*
*
G04 PADS 9.3.1 Build Number: 456998 generated Gerber (RS-274-X) file*
G04 PC Version=2.1*
*
%IN "strain_gauge_digitizer_"*%
*
%MOIN*%
*
%FSLAX35Y35*%
*
*
*
*
G04 PC Standard Apertures*
*
*
G04 Thermal Relief Aperture macro.*
%AMTER*
1,1,$1,0,0*
1,0,$1-$2,0,0*
21,0,$3,$4,0,0,45*
21,0,$3,$4,0,0,135*
%
*
*
G04 Annular Aperture macro.*
%AMANN*
1,1,$1,0,0*
1,0,$2,0,0*
%
*
*
G04 Odd Aperture macro.*
%AMODD*
1,1,$1,0,0*
1,0,$1-0.005,0,0*
%
*
*
G04 PC Custom Aperture Macros*
*
*
*
*
*
*
G04 PC Aperture Table*
*
%ADD010C,0.001*%
%ADD018R,0.038X0.03*%
%ADD019C,0.01*%
%ADD021C,0.025*%
%ADD023C,0.015*%
%ADD036R,0.05118X0.05118*%
%ADD037C,0.05118*%
%ADD038R,0.03X0.038*%
%ADD040R,0.06299X0.01378*%
%ADD041R,0.05512X0.03543*%
%ADD042R,0.04331X0.03543*%
%ADD052R,0.04016X0.01181*%
*
*
*
*
G04 PC Circuitry*
G04 Layer Name strain_gauge_digitizer_ - circuitry*
%LPD*%
*
*
G04 PC Custom Flashes*
G04 Layer Name strain_gauge_digitizer_ - flashes*
%LPD*%
*
*
G04 PC Circuitry*
G04 Layer Name strain_gauge_digitizer_ - circuitry*
%LPD*%
*
G54D10*
G54D18*
G01X199900Y122000D03*
X206100D03*
Y126000D03*
X199900D03*
Y152000D03*
X206100D03*
Y147000D03*
X199900D03*
X166100Y146500D03*
X159900D03*
X160100Y157000D03*
X153900D03*
X135100Y127000D03*
X128900D03*
X160100Y161000D03*
X153900D03*
X140900Y165000D03*
X147100D03*
X140900Y161000D03*
X147100D03*
X129900Y165000D03*
X136100D03*
X170100Y116000D03*
X163900D03*
X170900Y171500D03*
X177100D03*
G54D19*
X202000Y105000D02*
Y109000D01*
X203126*
X202000Y105000D02*
X167126D01*
X163126Y109000*
X202000Y105000D02*
X224000D01*
X228050Y109050*
Y142000*
X170100Y116000D02*
Y123812D01*
X172449Y126161*
Y133063*
X171000Y109000D02*
X170654D01*
Y116000*
X170100*
X163126Y109000D02*
Y116000D01*
X163900*
X225500Y112000D02*
X221863D01*
X220863Y113000*
X198000*
X190500Y120500*
X186000*
X223000Y115000D02*
X201000D01*
X194000Y122000*
Y128700*
X190000Y132700*
Y133100*
X109000Y118315D02*
X105141Y122174D01*
Y135661*
X109000Y126189D02*
X115000Y132189D01*
Y135600*
X116518Y137118*
X120976*
X137000Y123000D02*
X136333Y127000D01*
X135541*
X165500Y120500D02*
Y126191D01*
X156659Y135031*
X153551*
X198500Y122000D02*
Y126000D01*
X199900*
Y131900*
X207000Y139000*
X199900Y122000D02*
X198500D01*
X206100Y126000D02*
Y133100D01*
X209550Y136550*
Y143950*
X218000Y118504D02*
X217016D01*
X213520Y122000*
X206100*
X105141Y135661D02*
X107479Y138000D01*
X112687*
X114365Y139677*
X120976*
X116000Y129000D02*
X118483Y132000D01*
X120976*
Y134559D02*
X121095D01*
X127000Y135000*
X135541Y127000D02*
X135521Y126979D01*
X135100*
Y127000*
X135541D02*
X140552Y132011D01*
X143024*
X135100Y127000D02*
X135541D01*
X149000Y134500D02*
Y134559D01*
X143024*
Y132000D02*
Y132011D01*
X153500Y130000D02*
Y133063D01*
X153551*
X169209Y135000D02*
X169241Y135031D01*
X172449*
X169209Y135000D02*
X167000D01*
X160000Y142000*
X178000Y134500D02*
Y146500D01*
X190000Y133100D02*
X191000D01*
Y138900*
X194000Y136000D02*
Y141500D01*
X199500Y147000*
X199900*
X209000Y131000D02*
X213472D01*
Y131496*
X213500*
Y133870*
X222134Y142504*
X222528*
X120976Y144795D02*
X116727D01*
X115000Y146522*
Y151685*
X109000Y157685*
X120976Y142236D02*
X114764D01*
X113000Y144000*
Y145811*
X109000Y149811*
X136500Y137500D02*
X138677Y139677D01*
X143024*
X137000Y142000D02*
X140374Y142047D01*
X143024*
Y142236*
X153551Y140937D02*
X152134D01*
X150714Y142357*
Y145286*
X149000Y147000*
X153551Y138969D02*
X150443D01*
X148858Y140554*
Y143210*
X147273Y144795*
X143024*
X153551Y137000D02*
X150343D01*
X150225Y137118*
X143024*
X166100Y146500D02*
Y151400D01*
X160500Y157000*
X160100*
X181000Y137000D02*
X185000D01*
X186900Y138900*
X190000*
X172449Y137000D02*
X176000D01*
X172449Y138969D02*
X169341D01*
X166100Y142209*
Y146500*
X191000Y138900D02*
X190000D01*
Y145100D02*
X184575D01*
X183175Y146500*
X178000*
X209550Y143950D02*
X206500Y147000D01*
X206100*
X228050Y142000D02*
X222528D01*
Y142504*
X228050Y142000D02*
Y161950D01*
X224000Y166000*
X218874*
X222528Y142504D02*
X222921D01*
X198500Y147000D02*
Y152000D01*
X199900*
Y147000D02*
X198500D01*
X206100Y152000D02*
X206500D01*
X209996Y155496*
X218000*
X139500Y164000D02*
Y165000D01*
X140900*
X139500Y164000D02*
X140900D01*
Y165000*
X139500Y164000D02*
X136100D01*
Y165000*
X129900D02*
X120059D01*
X119500Y165559*
X109000*
X152500Y161000D02*
X153900D01*
X158700D02*
X160100D01*
X147100D02*
X152500D01*
X140900D02*
X139500D01*
Y164000*
X147100Y165000D02*
X147000D01*
Y171000*
X153900Y161000D02*
X158900Y166000D01*
X162126*
X160100Y161000D02*
X173100D01*
Y161226*
X177874Y166000*
X170000D02*
X170346D01*
Y171500*
X170900*
X177874Y166000D02*
X177100D01*
Y171500*
X177874Y166000D02*
X189601D01*
X193601Y170000*
X214874*
X218874Y166000*
X153900Y157000D02*
X152500D01*
Y161000*
X160100Y157000D02*
X158700D01*
Y161000*
X112859Y110441D02*
G75*
G03X112859I-3859J0D01*
G01X228500Y101500D02*
Y106954D01*
X225273Y103727*
X224000Y103200D02*
G03X225273Y103727I0J1800D01*
G01X224000Y103200D02*
X202000D01*
X167126*
X165853Y103727D02*
G03X167126Y103200I1273J1273D01*
G01X165853Y103727D02*
X164439Y105141D01*
X160567*
X159267Y106441D02*
G03X160567Y105141I1300J-0D01*
G01X159267Y106441D02*
Y111559D01*
X160567Y112859D02*
G03X159267Y111559I-0J-1300D01*
G01X160567Y112859D02*
X161326D01*
Y113388*
X160700Y114500D02*
G03X161326Y113388I1300J0D01*
G01X160700Y114500D02*
Y117500D01*
X162000Y118800D02*
G03X160700Y117500I0J-1300D01*
G01X162000Y118800D02*
X163599D01*
X163700Y122306D02*
G03X163599Y118800I1800J-1806D01*
G01X163700Y122306D02*
Y125445D01*
X159645Y129500*
X156001*
X152000Y127938D02*
G03X156001Y129500I1500J2062D01*
G01X152000Y127938D02*
Y106500D01*
X148500*
Y101500*
X228500*
X226250Y114437D02*
Y140200D01*
X225879*
X224693Y139432D02*
G03X225879Y140200I-0J1300D01*
G01X224693Y139432D02*
X221608D01*
X216455Y134279*
X216938Y133268D02*
G03X216455Y134279I-1300J-0D01*
G01X216938Y133268D02*
Y129724D01*
X215638Y128424D02*
G03X216938Y129724I-0J1300D01*
G01X215638Y128424D02*
X211307D01*
X210355Y128840D02*
G03X211307Y128424I952J884D01*
G01X208885Y128453D02*
G03X210355Y128840I115J2547D01*
G01X209300Y127500D02*
G03X208885Y128453I-1300J0D01*
G01X209300Y127500D02*
Y124500D01*
X209200Y124000D02*
G03X209300Y124500I-1200J500D01*
G01X209265Y123800D02*
G03X209200Y124000I-1265J-300D01*
G01X209265Y123800D02*
X213520D01*
X214792Y123273D02*
G03X213520Y123800I-1272J-1273D01*
G01X214792Y123273D02*
X216490Y121576D01*
X220756*
X222056Y120276D02*
G03X220756Y121576I-1300J-0D01*
G01X222056Y120276D02*
Y117369D01*
X225510Y114550D02*
G03X222056Y117369I-2510J450D01*
G01X226250Y114437D02*
G03X225510Y114550I-750J-2437D01*
G01X226250Y143800D02*
Y161204D01*
X223254Y164200*
X222733*
Y163441*
X221433Y162141D02*
G03X222733Y163441I0J1300D01*
G01X221433Y162141D02*
X216315D01*
X215015Y163441D02*
G03X216315Y162141I1300J-0D01*
G01X215015Y163441D02*
Y167313D01*
X214254Y168074*
X207829Y168200D02*
G03X214254Y168074I3171J-2200D01*
G01X207829Y168200D02*
X206297D01*
X199955D02*
G03X206297I3171J-2200D01*
G01X199955D02*
X194346D01*
X190874Y164727*
X189601Y164200D02*
G03X190874Y164727I-0J1800D01*
G01X189601Y164200D02*
X181733D01*
Y163441*
X180433Y162141D02*
G03X181733Y163441I0J1300D01*
G01X180433Y162141D02*
X176561D01*
X174784Y160364*
X173100Y159200D02*
G03X174784Y160364I0J1800D01*
G01X173100Y159200D02*
X163265D01*
X163200Y159000D02*
G03X163265Y159200I-1200J500D01*
G01X163300Y158500D02*
G03X163200Y159000I-1300J0D01*
G01X163300Y158500D02*
Y156746D01*
X167373Y152673*
X167900Y151400D02*
G03X167373Y152673I-1800J0D01*
G01X167900Y151400D02*
Y149300D01*
X168000*
X169300Y148000D02*
G03X168000Y149300I-1300J0D01*
G01X169300Y148000D02*
Y145000D01*
X169200Y144500D02*
G03X169300Y145000I-1200J500D01*
G01X169200Y144500D02*
X171000D01*
X171500Y144000D02*
G03X171000Y144500I-500J0D01*
G01X171500Y144000D02*
Y142828D01*
X174457*
X175757Y141528D02*
G03X174457Y142828I-1300J-0D01*
G01X175757Y141528D02*
Y140346D01*
X175696Y139953D02*
G03X175757Y140346I-1239J393D01*
G01Y139559D02*
G03X175696Y139953I-1300J0D01*
G01X175757Y139559D02*
Y138378D01*
X175696Y137984D02*
G03X175757Y138378I-1239J394D01*
G01Y137591D02*
G03X175696Y137984I-1300J-0D01*
G01X175757Y137591D02*
Y136409D01*
X175696Y136016D02*
G03X175757Y136409I-1239J393D01*
G01X175754Y135707D02*
G03X175696Y136016I-1297J-85D01*
G01X176200Y136306D02*
G03X175754Y135707I1800J-1806D01*
G01X176200Y136306D02*
Y144694D01*
X179806Y148300D02*
G03X176200Y144694I-1806J-1800D01*
G01X179806Y148300D02*
X183175D01*
X184448Y147773D02*
G03X183175Y148300I-1273J-1273D01*
G01X184448Y147773D02*
X185321Y146900D01*
X187200*
Y147000*
X188500Y148300D02*
G03X187200Y147000I0J-1300D01*
G01X188500Y148300D02*
X191500D01*
X192800Y147000D02*
G03X191500Y148300I-1300J0D01*
G01X192800Y147000D02*
Y143200D01*
X192728Y142774D02*
G03X192800Y143200I-1228J426D01*
G01X192728Y142774D02*
X196700Y146746D01*
Y147000*
Y150500*
Y153500*
X198000Y154800D02*
G03X196700Y153500I0J-1300D01*
G01X198000Y154800D02*
X201800D01*
X203000Y154000D02*
G03X201800Y154800I-1200J-500D01*
G01X204200D02*
G03X203000Y154000I0J-1300D01*
G01X204200Y154800D02*
X206754D01*
X208723Y156769*
X209996Y157296D02*
G03X208723Y156769I0J-1800D01*
G01X209996Y157296D02*
X213944D01*
X215244Y158568D02*
G03X213944Y157296I0J-1300D01*
G01X215244Y158568D02*
X220756D01*
X222056Y157268D02*
G03X220756Y158568I-1300J-0D01*
G01X222056Y157268D02*
Y153724D01*
X220756Y152424D02*
G03X222056Y153724I-0J1300D01*
G01X220756Y152424D02*
X215244D01*
X213944Y153696D02*
G03X215244Y152424I1300J28D01*
G01X213944Y153696D02*
X210742D01*
X209300Y152254*
Y150500*
X208831Y149500D02*
G03X209300Y150500I-831J1000D01*
G01Y148500D02*
G03X208831Y149500I-1300J0D01*
G01X209300Y148500D02*
Y145500D01*
X208000Y144200D02*
G03X209300Y145500I0J1300D01*
G01X208000Y144200D02*
X204200D01*
X203000Y145000D02*
G03X204200Y144200I1200J500D01*
G01X201800D02*
G03X203000Y145000I0J1300D01*
G01X201800Y144200D02*
X199246D01*
X195800Y140754*
Y137806*
X192800Y133750D02*
G03X195800Y137806I1200J2250D01*
G01X192800Y133750D02*
Y133100D01*
Y132446*
X195273Y129973*
X195800Y128700D02*
G03X195273Y129973I-1800J0D01*
G01X195800Y128700D02*
Y122746D01*
X196700Y121846*
Y122000*
Y124500*
Y127500*
X198000Y128800D02*
G03X196700Y127500I0J-1300D01*
G01X198000Y128800D02*
X198100D01*
Y131900*
X198627Y133173D02*
G03X198100Y131900I1273J-1273D01*
G01X198627Y133173D02*
X204450Y138996D01*
Y139000*
X206996Y136450D02*
G03X204450Y139000I4J2550D01*
G01X206996Y136450D02*
X201700Y131154D01*
Y128800*
X201800*
X203000Y128000D02*
G03X201800Y128800I-1200J-500D01*
G01X204200D02*
G03X203000Y128000I0J-1300D01*
G01X204200Y128800D02*
X207711D01*
X210009Y133342D02*
G03X207711Y128800I-1009J-2342D01*
G01X211307Y134568D02*
G03X210009Y133342I0J-1300D01*
G01X211307Y134568D02*
X211841D01*
X212227Y135143D02*
G03X211841Y134568I1273J-1273D01*
G01X212227Y135143D02*
X219062Y141978D01*
Y144276*
X220362Y145576D02*
G03X219062Y144276I0J-1300D01*
G01X220362Y145576D02*
X224693D01*
X225993Y144276D02*
G03X224693Y145576I-1300J-0D01*
G01X225993Y144276D02*
Y143800D01*
X226250*
X228500Y164046D02*
Y173700D01*
X180095*
X180300Y173000D02*
G03X180095Y173700I-1300J0D01*
G01X180300Y173000D02*
Y170000D01*
X180292Y169859D02*
G03X180300Y170000I-1292J141D01*
G01X180292Y169859D02*
X180433D01*
X181733Y168559D02*
G03X180433Y169859I-1300J0D01*
G01X181733Y168559D02*
Y167800D01*
X188855*
X192328Y171273*
X193601Y171800D02*
G03X192328Y171273I-0J-1800D01*
G01X193601Y171800D02*
X214874D01*
X216147Y171273D02*
G03X214874Y171800I-1273J-1273D01*
G01X216147Y171273D02*
X217561Y169859D01*
X221433*
X222733Y168559D02*
G03X221433Y169859I-1300J0D01*
G01X222733Y168559D02*
Y167800D01*
X224000*
X225273Y167273D02*
G03X224000Y167800I-1273J-1273D01*
G01X225273Y167273D02*
X228500Y164046D01*
X167905Y173700D02*
G03X167700Y173000I1095J-700D01*
G01X167905Y173700D02*
X152000D01*
Y163800*
X155800*
X157000Y163000D02*
G03X155800Y163800I-1200J-500D01*
G01X158200D02*
G03X157000Y163000I0J-1300D01*
G01X158200Y163800D02*
X158955D01*
X159000Y168263D02*
G03X158955Y163800I3126J-2263D01*
G01X159000Y168263D02*
Y170500D01*
X159500Y171000D02*
G03X159000Y170500I0J-500D01*
G01X159500Y171000D02*
X167700D01*
Y173000*
X164300Y149300D02*
Y150654D01*
X160754Y154200*
X158200*
X157000Y155000D02*
G03X158200Y154200I1200J500D01*
G01X155800D02*
G03X157000Y155000I0J1300D01*
G01X155800Y154200D02*
X152000D01*
Y146545*
X152514Y145286D02*
G03X152000Y146545I-1800J0D01*
G01X152514Y145286D02*
Y143103D01*
X152789Y142828*
X154500*
Y144000*
X155000Y144500D02*
G03X154500Y144000I0J-500D01*
G01X155000Y144500D02*
X156800D01*
X156700Y145000D02*
G03X156800Y144500I1300J0D01*
G01X156700Y145000D02*
Y148000D01*
X158000Y149300D02*
G03X156700Y148000I0J-1300D01*
G01X158000Y149300D02*
X161800D01*
X163000Y148500D02*
G03X161800Y149300I-1200J-500D01*
G01X164200D02*
G03X163000Y148500I0J-1300D01*
G01X164200Y149300D02*
X164300D01*
X192348Y142215D02*
G03X192238Y141870I1652J-715D01*
G01X192000Y142000D02*
G03X192348Y142215I-500J1200D01*
G01X192238Y141870D02*
G03X192000Y142000I-738J-1070D01*
G01X199267Y106800D02*
Y111200D01*
X198000*
X196727Y111727D02*
G03X198000Y111200I1273J1273D01*
G01X196727Y111727D02*
X189754Y118700D01*
X187806*
Y122300D02*
G03Y118700I-1806J-1800D01*
G01Y122300D02*
X190500D01*
X191773Y121773D02*
G03X190500Y122300I-1273J-1273D01*
G01X191773Y121773D02*
X192435Y121110D01*
X192200Y122000D02*
G03X192435Y121110I1800J0D01*
G01X192200Y122000D02*
Y123905D01*
X191500Y123700D02*
G03X192200Y123905I0J1300D01*
G01X191500Y123700D02*
X188500D01*
X187200Y125000D02*
G03X188500Y123700I1300J0D01*
G01X187200Y125000D02*
Y128800D01*
X188000Y130000D02*
G03X187200Y128800I500J-1200D01*
G01Y131200D02*
G03X188000Y130000I1300J0D01*
G01X187200Y131200D02*
Y135000D01*
X187669Y136000D02*
G03X187200Y135000I831J-1000D01*
G01X187237Y136692D02*
G03X187669Y136000I1263J308D01*
G01X187237Y136692D02*
X186273Y135727D01*
X185000Y135200D02*
G03X186273Y135727I0J1800D01*
G01X185000Y135200D02*
X182806D01*
X180550Y134490D02*
G03X182806Y135200I450J2510D01*
G01X175757Y133287D02*
G03X180550Y134490I2243J1213D01*
G01X175757Y133287D02*
Y132472D01*
X174457Y131172D02*
G03X175757Y132472I-0J1300D01*
G01X174457Y131172D02*
X174249D01*
Y126161*
X173722Y124888D02*
G03X174249Y126161I-1273J1273D01*
G01X173722Y124888D02*
X171900Y123066D01*
Y118800*
X172000*
X173300Y117500D02*
G03X172000Y118800I-1300J0D01*
G01X173300Y117500D02*
Y114500D01*
X172454Y113282D02*
G03X173300Y114500I-454J1218D01*
G01X172454Y113282D02*
Y112575D01*
X174171Y106800D02*
G03X172454Y112575I-3171J2200D01*
G01X174171Y106800D02*
X175703D01*
X182045D02*
G03X175703I-3171J2200D01*
G01X182045D02*
X199267D01*
X203369Y149500D02*
G03X203000Y149000I831J-1000D01*
G01Y150000D02*
G03X203369Y149500I1200J500D01*
G01X202631D02*
G03X203000Y150000I-831J1000D01*
G01Y149000D02*
G03X202631Y149500I-1200J-500D01*
G01X150000Y167331D02*
Y173700D01*
X101500*
Y101500*
X150000*
Y132154*
X147473Y132458D02*
G03X150000Y132154I1527J2042D01*
G01X147473Y132458D02*
Y131311D01*
X146173Y130011D02*
G03X147473Y131311I0J1300D01*
G01X146173Y130011D02*
X141098D01*
X138300Y127213*
Y126149*
X138479Y125078*
X134750Y124200D02*
G03X138479Y125078I2250J-1200D01*
G01X134750Y124200D02*
X133200D01*
X132000Y125000D02*
G03X133200Y124200I1200J500D01*
G01X130800D02*
G03X132000Y125000I0J1300D01*
G01X130800Y124200D02*
X127000D01*
X125700Y125500D02*
G03X127000Y124200I1300J0D01*
G01X125700Y125500D02*
Y128500D01*
X127000Y129800D02*
G03X125700Y128500I0J-1300D01*
G01X127000Y129800D02*
X130800D01*
X132000Y129000D02*
G03X130800Y129800I-1200J-500D01*
G01X133200D02*
G03X132000Y129000I0J-1300D01*
G01X133200Y129800D02*
X135795D01*
X138574Y132579*
Y132689*
X138716Y133280D02*
G03X138574Y132689I1158J-591D01*
G01Y133870D02*
G03X138716Y133280I1300J0D01*
G01X138574Y133870D02*
Y135248D01*
X138716Y135839D02*
G03X138574Y135248I1158J-591D01*
G01Y136429D02*
G03X138716Y135839I1300J0D01*
G01X138574Y136429D02*
Y137807D01*
X138716Y138398D02*
G03X138574Y137807I1158J-591D01*
G01Y138988D02*
G03X138716Y138398I1300J0D01*
G01X138574Y138988D02*
Y139994D01*
X138578Y144003D02*
G03X138574Y139994I-1578J-2003D01*
G01Y144106D02*
G03X138578Y144003I1300J0D01*
G01X138574Y144106D02*
Y145484D01*
X138716Y146075D02*
G03X138574Y145484I1158J-591D01*
G01Y146665D02*
G03X138716Y146075I1300J0D01*
G01X138574Y146665D02*
Y148043D01*
X138716Y148634D02*
G03X138574Y148043I1158J-591D01*
G01Y149224D02*
G03X138716Y148634I1300J0D01*
G01X138574Y149224D02*
Y150602D01*
X139874Y151902D02*
G03X138574Y150602I0J-1300D01*
G01X139874Y151902D02*
X146173D01*
X147473Y150602D02*
G03X146173Y151902I-1300J0D01*
G01X147473Y150602D02*
Y149224D01*
X147459Y149032D02*
G03X147473Y149224I-1286J192D01*
G01X150000Y149346D02*
G03X147459Y149032I-1000J-2346D01*
G01X150000Y149346D02*
Y158669D01*
X149000Y158200D02*
G03X150000Y158669I0J1300D01*
G01X149000Y158200D02*
X145200D01*
X144000Y159000D02*
G03X145200Y158200I1200J500D01*
G01X142800D02*
G03X144000Y159000I0J1300D01*
G01X142800Y158200D02*
X139000D01*
X137700Y159500D02*
G03X139000Y158200I1300J0D01*
G01X137700Y159500D02*
Y162200D01*
X136100*
X134200*
X133000Y163000D02*
G03X134200Y162200I1200J500D01*
G01X131800D02*
G03X133000Y163000I0J1300D01*
G01X131800Y162200D02*
X128000D01*
X126735Y163200D02*
G03X128000Y162200I1265J300D01*
G01X126735Y163200D02*
X120059D01*
X118786Y163727D02*
G03X120059Y163200I1273J1273D01*
G01X118786Y163727D02*
X118754Y163759D01*
X112859*
Y163000*
X111559Y161700D02*
G03X112859Y163000I0J1300D01*
G01X111559Y161700D02*
X106441D01*
X105141Y163000D02*
G03X106441Y161700I1300J0D01*
G01X105141Y163000D02*
Y168118D01*
X106441Y169418D02*
G03X105141Y168118I-0J-1300D01*
G01X106441Y169418D02*
X111559D01*
X112859Y168118D02*
G03X111559Y169418I-1300J0D01*
G01X112859Y168118D02*
Y167359D01*
X119500*
X120773Y166832D02*
G03X119500Y167359I-1273J-1273D01*
G01X120773Y166832D02*
X120805Y166800D01*
X126735*
X128000Y167800D02*
G03X126735Y166800I0J-1300D01*
G01X128000Y167800D02*
X131800D01*
X133000Y167000D02*
G03X131800Y167800I-1200J-500D01*
G01X134200D02*
G03X133000Y167000I0J-1300D01*
G01X134200Y167800D02*
X138000D01*
X138500Y167700D02*
G03X138000Y167800I-500J-1200D01*
G01X139000D02*
G03X138500Y167700I0J-1300D01*
G01X139000Y167800D02*
X142800D01*
X144000Y167000D02*
G03X142800Y167800I-1200J-500D01*
G01X145200D02*
G03X144000Y167000I0J-1300D01*
G01X145200Y167800D02*
Y169194D01*
X148800D02*
G03X145200I-1800J1806D01*
G01X148800D02*
Y167800D01*
X149000*
X150000Y167331D02*
G03X149000Y167800I-1000J-831D01*
G01X225993Y133268D02*
Y129724D01*
X224693Y128424D02*
G03X225993Y129724I-0J1300D01*
G01X224693Y128424D02*
X220362D01*
X219062Y129724D02*
G03X220362Y128424I1300J0D01*
G01X219062Y129724D02*
Y133268D01*
X220362Y134568D02*
G03X219062Y133268I0J-1300D01*
G01X220362Y134568D02*
X224693D01*
X225993Y133268D02*
G03X224693Y134568I-1300J-0D01*
G01X216938Y144276D02*
Y140732D01*
X215638Y139432D02*
G03X216938Y140732I-0J1300D01*
G01X215638Y139432D02*
X211307D01*
X210007Y140732D02*
G03X211307Y139432I1300J0D01*
G01X210007Y140732D02*
Y144276D01*
X211307Y145576D02*
G03X210007Y144276I0J-1300D01*
G01X211307Y145576D02*
X215638D01*
X216938Y144276D02*
G03X215638Y145576I-1300J-0D01*
G01X112859Y110441D02*
G03X112859I-3859J0D01*
G01X125380Y133030D02*
G03X125426Y137006I1620J1970D01*
G01Y132689D02*
G03X125380Y133030I-1300J-0D01*
G01X125426Y132689D02*
Y131311D01*
X124126Y130011D02*
G03X125426Y131311I-0J1300D01*
G01X124126Y130011D02*
X119173D01*
X119173D02*
X118538Y129244D01*
X113573Y128217D02*
G03X118538Y129244I2427J783D01*
G01X113573Y128217D02*
X112687Y127330D01*
X106941Y122925D02*
G03X112687Y127330I2059J3264D01*
G01X106941Y122925D02*
Y122920D01*
X107859Y122002*
X105313Y119456D02*
G03X107859Y122002I3687J-1141D01*
G01X105313Y119456D02*
X103868Y120901D01*
X103341Y122174D02*
G03X103868Y120901I1800J0D01*
G01X103341Y122174D02*
Y135661D01*
X103868Y136934D02*
G03X103341Y135661I1273J-1273D01*
G01X103868Y136934D02*
X106207Y139273D01*
Y139274D02*
Y139273D01*
X111074Y145191D02*
G03X106207Y139274I-2074J-3254D01*
G01X111074Y145191D02*
X110141Y146124D01*
X111074Y153065D02*
G03X110141Y146124I-2074J-3254D01*
G01X111074Y153065D02*
X110141Y153998D01*
X112687Y156544D02*
G03X110141Y153998I-3687J1141D01*
G01X112687Y156544D02*
X116273Y152958D01*
X116800Y151685D02*
G03X116273Y152958I-1800J0D01*
G01X116800Y151685D02*
Y151400D01*
X117827Y151902D02*
G03X116800Y151400I-0J-1300D01*
G01X117827Y151902D02*
X124126D01*
X125426Y150602D02*
G03X124126Y151902I-1300J0D01*
G01X125426Y150602D02*
Y149224D01*
X125284Y148634D02*
G03X125426Y149224I-1158J590D01*
G01Y148043D02*
G03X125284Y148634I-1300J0D01*
G01X125426Y148043D02*
Y146665D01*
X125284Y146075D02*
G03X125426Y146665I-1158J590D01*
G01Y145484D02*
G03X125284Y146075I-1300J0D01*
G01X125426Y145484D02*
Y144106D01*
X125284Y143516D02*
G03X125426Y144106I-1158J590D01*
G01Y142925D02*
G03X125284Y143516I-1300J0D01*
G01X125426Y142925D02*
Y141547D01*
X125284Y140957D02*
G03X125426Y141547I-1158J590D01*
G01Y140366D02*
G03X125284Y140957I-1300J0D01*
G01X125426Y140366D02*
Y138988D01*
X125284Y138398D02*
G03X125426Y138988I-1158J590D01*
G01Y137807D02*
G03X125284Y138398I-1300J0D01*
G01X125426Y137807D02*
Y137006D01*
X202896Y149199D02*
X203104D01*
X182430Y110499D02*
X199267D01*
X182686Y109599D02*
X199267D01*
X182721Y108699D02*
X199267D01*
X182541Y107799D02*
X199267D01*
X182111Y106899D02*
X199267D01*
X181897Y111399D02*
X197178D01*
X180877Y112299D02*
X196156D01*
X172454Y113199D02*
X195256D01*
X173237Y114099D02*
X194356D01*
X173300Y114999D02*
X193456D01*
X173300Y115899D02*
X192556D01*
X192247Y121299D02*
X192342D01*
X171932Y123099D02*
X192200D01*
X191095Y122199D02*
X192200D01*
X173300Y116799D02*
X191656D01*
X173285Y117699D02*
X190756D01*
X187699Y118599D02*
X189856D01*
X172832Y123999D02*
X187671D01*
X174249Y130299D02*
X187563D01*
X186244Y135699D02*
X187404D01*
X174249Y129399D02*
X187346D01*
X187144Y136599D02*
X187263D01*
X173732Y124899D02*
X187204D01*
X182287Y134799D02*
X187200D01*
X180478Y133899D02*
X187200D01*
X180061Y132999D02*
X187200D01*
X178858Y132099D02*
X187200D01*
X174717Y131199D02*
X187200D01*
X174249Y128499D02*
X187200D01*
X174249Y127599D02*
X187200D01*
X174249Y126699D02*
X187200D01*
X174212Y125799D02*
X187200D01*
X172695Y118599D02*
X184301D01*
X171900Y122199D02*
X184098D01*
X171900Y119499D02*
X183655D01*
X171900Y121299D02*
X183578D01*
X171900Y120399D02*
X183452D01*
X175702Y132099D02*
X177142D01*
X173003Y112299D02*
X176871D01*
X175757Y132999D02*
X175939D01*
X174023Y111399D02*
X175851D01*
X174237Y106899D02*
X175637D01*
X174556Y110499D02*
X175318D01*
X174667Y107799D02*
X175207D01*
X174812Y109599D02*
X175062D01*
X174847Y108699D02*
X175027D01*
X192003Y141999D02*
X192270D01*
X152000Y150099D02*
X164300D01*
X152000Y150999D02*
X163956D01*
X162303Y149199D02*
X163697D01*
X152000Y151899D02*
X163056D01*
X152000Y152799D02*
X162156D01*
X152000Y153699D02*
X161256D01*
X152000Y149199D02*
X157497D01*
X156737Y154599D02*
X157263D01*
X152514Y144699D02*
X156735D01*
X152000Y148299D02*
X156735D01*
X152000Y147399D02*
X156700D01*
X152044Y146499D02*
X156700D01*
X152486Y145599D02*
X156700D01*
X152514Y143799D02*
X154500D01*
X152718Y142899D02*
X154500D01*
X152000Y173499D02*
X167799D01*
X152000Y172599D02*
X167700D01*
X152000Y171699D02*
X167700D01*
X152000Y170799D02*
X159099D01*
X152000Y169899D02*
X159000D01*
X152000Y168999D02*
X159000D01*
X152000Y168099D02*
X158887D01*
X152000Y164499D02*
X158571D01*
X152000Y167199D02*
X158458D01*
X152000Y165399D02*
X158314D01*
X152000Y166299D02*
X158278D01*
X156495Y163599D02*
X157505D01*
X180201Y173499D02*
X228500D01*
X180300Y172599D02*
X228500D01*
X215469Y171699D02*
X228500D01*
X216621Y170799D02*
X228500D01*
X217521Y169899D02*
X228500D01*
X222656Y168999D02*
X228500D01*
X222733Y168099D02*
X228500D01*
X225347Y167199D02*
X228500D01*
X226247Y166299D02*
X228500D01*
X227147Y165399D02*
X228500D01*
X228047Y164499D02*
X228500D01*
X180300Y171699D02*
X193005D01*
X180300Y170799D02*
X191854D01*
X180296Y169899D02*
X190954D01*
X181656Y168999D02*
X190054D01*
X181733Y168099D02*
X189154D01*
X175318Y160899D02*
X226250D01*
X174596Y159999D02*
X226250D01*
X163237Y159099D02*
X226250D01*
X221663Y158199D02*
X226250D01*
X222056Y157299D02*
X226250D01*
X222056Y156399D02*
X226250D01*
X222056Y155499D02*
X226250D01*
X222056Y154599D02*
X226250D01*
X222056Y153699D02*
X226250D01*
X221669Y152799D02*
X226250D01*
X209300Y151899D02*
X226250D01*
X209300Y150999D02*
X226250D01*
X209237Y150099D02*
X226250D01*
X209096Y149199D02*
X226250D01*
X209300Y148299D02*
X226250D01*
X209300Y147399D02*
X226250D01*
X209300Y146499D02*
X226250D01*
X209300Y145599D02*
X226250D01*
X225922Y144699D02*
X226250D01*
X176218Y161799D02*
X225656D01*
X222500Y162699D02*
X224756D01*
X222733Y163599D02*
X223856D01*
X216867Y144699D02*
X219133D01*
X216938Y143799D02*
X219062D01*
X216938Y142899D02*
X219062D01*
X216938Y141999D02*
X219062D01*
X216938Y141099D02*
X218183D01*
X216823Y140199D02*
X217283D01*
X209532Y139299D02*
X216383D01*
X209478Y138399D02*
X215483D01*
X212998Y162699D02*
X215248D01*
X214668Y167199D02*
X215015D01*
X214847Y166299D02*
X215015D01*
X214812Y165399D02*
X215015D01*
X214555Y164499D02*
X215015D01*
X214021Y163599D02*
X215015D01*
X209061Y137499D02*
X214583D01*
X163300Y158199D02*
X214337D01*
X209844Y152799D02*
X214331D01*
X163300Y157299D02*
X213944D01*
X207858Y136599D02*
X213683D01*
X206244Y135699D02*
X212783D01*
X205344Y134799D02*
X211958D01*
X204444Y133899D02*
X210170D01*
X209251Y140199D02*
X210122D01*
X209024Y144699D02*
X210078D01*
X198844Y143799D02*
X210007D01*
X197944Y142899D02*
X210007D01*
X197044Y141999D02*
X210007D01*
X208448Y141099D02*
X210007D01*
X205124Y162699D02*
X209002D01*
X163647Y156399D02*
X208353D01*
X206147Y163599D02*
X207979D01*
X206364Y168099D02*
X207761D01*
X164547Y155499D02*
X207453D01*
X206681Y164499D02*
X207445D01*
X203544Y132999D02*
X207416D01*
X206794Y167199D02*
X207332D01*
X206938Y165399D02*
X207188D01*
X206973Y166299D02*
X207153D01*
X201700Y129399D02*
X207015D01*
X202644Y132099D02*
X206699D01*
X201700Y130299D02*
X206548D01*
X201744Y131199D02*
X206458D01*
X196144Y141099D02*
X205552D01*
X195800Y140199D02*
X204749D01*
X195800Y139299D02*
X204468D01*
X195800Y138399D02*
X203853D01*
X202495Y154599D02*
X203505D01*
X202632Y128499D02*
X203368D01*
X202824Y144699D02*
X203176D01*
X196063Y137499D02*
X202953D01*
X196479Y136599D02*
X202053D01*
X196532Y135699D02*
X201153D01*
X181500Y162699D02*
X201128D01*
X196249Y134799D02*
X200253D01*
X181733Y163599D02*
X200105D01*
X194245Y168099D02*
X199887D01*
X190594Y164499D02*
X199571D01*
X193345Y167199D02*
X199458D01*
X195445Y133899D02*
X199353D01*
X191545Y165399D02*
X199314D01*
X192445Y166299D02*
X199278D01*
X192800Y132999D02*
X198474D01*
X193147Y132099D02*
X198111D01*
X194047Y131199D02*
X198100D01*
X194947Y130299D02*
X198100D01*
X195659Y129399D02*
X198100D01*
X165447Y154599D02*
X197305D01*
X195800Y128499D02*
X197168D01*
X166347Y153699D02*
X196715D01*
X195800Y127599D02*
X196704D01*
X167247Y152799D02*
X196700D01*
X167830Y151899D02*
X196700D01*
X167900Y150999D02*
X196700D01*
X167900Y150099D02*
X196700D01*
X168503Y149199D02*
X196700D01*
X191559Y148299D02*
X196700D01*
X192737Y147399D02*
X196700D01*
X195800Y126699D02*
X196700D01*
X195800Y125799D02*
X196700D01*
X195800Y124899D02*
X196700D01*
X195800Y123999D02*
X196700D01*
X195800Y123099D02*
X196700D01*
X196347Y122199D02*
X196700D01*
X192800Y146499D02*
X196453D01*
X192800Y145599D02*
X195553D01*
X192800Y144699D02*
X194653D01*
X192800Y143799D02*
X193753D01*
X192765Y142899D02*
X192853D01*
X183244Y148299D02*
X188441D01*
X184822Y147399D02*
X187263D01*
X171500Y143799D02*
X176200D01*
X171500Y142899D02*
X176200D01*
X175668Y141999D02*
X176200D01*
X175757Y141099D02*
X176200D01*
X175748Y140199D02*
X176200D01*
X175757Y139299D02*
X176200D01*
X175757Y138399D02*
X176200D01*
X175757Y137499D02*
X176200D01*
X175757Y136599D02*
X176200D01*
X169265Y144699D02*
X176195D01*
X169265Y148299D02*
X176192D01*
X169300Y145599D02*
X175615D01*
X169300Y147399D02*
X175614D01*
X169300Y146499D02*
X175450D01*
X225878Y140199D02*
X226250D01*
X221474Y139299D02*
X226250D01*
X220574Y138399D02*
X226250D01*
X219674Y137499D02*
X226250D01*
X218774Y136599D02*
X226250D01*
X217874Y135699D02*
X226250D01*
X216974Y134799D02*
X226250D01*
X225830Y133899D02*
X226250D01*
X225993Y132999D02*
X226250D01*
X225993Y132099D02*
X226250D01*
X225993Y131199D02*
X226250D01*
X225993Y130299D02*
X226250D01*
X225951Y129399D02*
X226250D01*
X225126Y128499D02*
X226250D01*
X209296Y127599D02*
X226250D01*
X209300Y126699D02*
X226250D01*
X209300Y125799D02*
X226250D01*
X209300Y124899D02*
X226250D01*
X209201Y123999D02*
X226250D01*
X214967Y123099D02*
X226250D01*
X215867Y122199D02*
X226250D01*
X221558Y121299D02*
X226250D01*
X222050Y120399D02*
X226250D01*
X222056Y119499D02*
X226250D01*
X222056Y118599D02*
X226250D01*
X222056Y117699D02*
X226250D01*
X224808Y116799D02*
X226250D01*
X225386Y115899D02*
X226250D01*
X225550Y114999D02*
X226250D01*
X216071Y128499D02*
X219929D01*
X216774Y133899D02*
X219226D01*
X216896Y129399D02*
X219104D01*
X216938Y132999D02*
X219062D01*
X216938Y132099D02*
X219062D01*
X216938Y131199D02*
X219062D01*
X216938Y130299D02*
X219062D01*
X209496Y128499D02*
X210874D01*
X228444Y106899D02*
X228500D01*
X227544Y105999D02*
X228500D01*
X226644Y105099D02*
X228500D01*
X225744Y104199D02*
X228500D01*
X224588Y103299D02*
X228500D01*
X148500Y102399D02*
X228500D01*
X148500Y103299D02*
X166538D01*
X148500Y104199D02*
X165382D01*
X148500Y105099D02*
X164482D01*
X152000Y124899D02*
X163700D01*
X152000Y123999D02*
X163700D01*
X152000Y123099D02*
X163700D01*
X152000Y122199D02*
X163598D01*
X152000Y125799D02*
X163346D01*
X152000Y119499D02*
X163155D01*
X152000Y121299D02*
X163078D01*
X152000Y120399D02*
X162952D01*
X152000Y126699D02*
X162446D01*
X154358Y127599D02*
X161546D01*
X152000Y113199D02*
X161326D01*
X152000Y118599D02*
X161305D01*
X152000Y114099D02*
X160763D01*
X152000Y117699D02*
X160715D01*
X152000Y116799D02*
X160700D01*
X152000Y115899D02*
X160700D01*
X152000Y114999D02*
X160700D01*
X155561Y128499D02*
X160646D01*
X155978Y129399D02*
X159746D01*
X152000Y112299D02*
X159498D01*
X148500Y105999D02*
X159344D01*
X152000Y111399D02*
X159267D01*
X152000Y110499D02*
X159267D01*
X152000Y109599D02*
X159267D01*
X152000Y108699D02*
X159267D01*
X152000Y107799D02*
X159267D01*
X152000Y106899D02*
X159267D01*
X152000Y127599D02*
X152642D01*
X147509Y173499D02*
X150000D01*
X148987Y172599D02*
X150000D01*
X149452Y171699D02*
X150000D01*
X149542Y170799D02*
X150000D01*
X149300Y169899D02*
X150000D01*
X148800Y168999D02*
X150000D01*
X148800Y168099D02*
X150000D01*
X112825Y158199D02*
X150000D01*
X112840Y157299D02*
X150000D01*
X112832Y156399D02*
X150000D01*
X113732Y155499D02*
X150000D01*
X114632Y154599D02*
X150000D01*
X115532Y153699D02*
X150000D01*
X116414Y152799D02*
X150000D01*
X146271Y151899D02*
X150000D01*
X147411Y150999D02*
X150000D01*
X147473Y150099D02*
X150000D01*
X149858Y132099D02*
X150000D01*
X147468Y131199D02*
X150000D01*
X146989Y130299D02*
X150000D01*
X140485Y129399D02*
X150000D01*
X139585Y128499D02*
X150000D01*
X138685Y127599D02*
X150000D01*
X138300Y126699D02*
X150000D01*
X138358Y125799D02*
X150000D01*
X138702Y124899D02*
X150000D01*
X139346Y123999D02*
X150000D01*
X139548Y123099D02*
X150000D01*
X139421Y122199D02*
X150000D01*
X138900Y121299D02*
X150000D01*
X112248Y120399D02*
X150000D01*
X112673Y119499D02*
X150000D01*
X112849Y118599D02*
X150000D01*
X112810Y117699D02*
X150000D01*
X112549Y116799D02*
X150000D01*
X112009Y115899D02*
X150000D01*
X110974Y114999D02*
X150000D01*
X110230Y114099D02*
X150000D01*
X111700Y113199D02*
X150000D01*
X112382Y112299D02*
X150000D01*
X112738Y111399D02*
X150000D01*
X112859Y110499D02*
X150000D01*
X112766Y109599D02*
X150000D01*
X112443Y108699D02*
X150000D01*
X111813Y107799D02*
X150000D01*
X110531Y106899D02*
X150000D01*
X101500Y105999D02*
X150000D01*
X101500Y105099D02*
X150000D01*
X101500Y104199D02*
X150000D01*
X101500Y103299D02*
X150000D01*
X101500Y102399D02*
X150000D01*
X147473Y132099D02*
X148142D01*
X147473Y149199D02*
X147708D01*
X101500Y173499D02*
X146491D01*
X112515Y168999D02*
X145200D01*
X112859Y168099D02*
X145200D01*
X101500Y172599D02*
X145013D01*
X101500Y169899D02*
X144700D01*
X101500Y171699D02*
X144548D01*
X101500Y170799D02*
X144458D01*
X143896Y167199D02*
X144104D01*
X124224Y151899D02*
X139776D01*
X125285Y138399D02*
X138715D01*
X129452Y135699D02*
X138655D01*
X125364Y150999D02*
X138636D01*
X128580Y132999D02*
X138611D01*
X125401Y148299D02*
X138599D01*
X125415Y146499D02*
X138585D01*
X125421Y145599D02*
X138579D01*
X125426Y149199D02*
X138574D01*
X125426Y150099D02*
X138574D01*
X125426Y147399D02*
X138574D01*
X125426Y144699D02*
X138574D01*
X125426Y139299D02*
X138574D01*
X127509Y137499D02*
X138574D01*
X128987Y136599D02*
X138574D01*
X129542Y134799D02*
X138574D01*
X129300Y133899D02*
X138574D01*
X125426Y132099D02*
X138094D01*
X112591Y159099D02*
X137763D01*
X112056Y161799D02*
X137700D01*
X111137Y160899D02*
X137700D01*
X112089Y159999D02*
X137700D01*
X125421Y131199D02*
X137194D01*
X124942Y130299D02*
X136294D01*
X125426Y140199D02*
X135195D01*
X125389Y143799D02*
X135192D01*
X111447Y121299D02*
X135100D01*
X112177Y123999D02*
X134654D01*
X125346Y141099D02*
X134615D01*
X125426Y142899D02*
X134614D01*
X107662Y122199D02*
X134579D01*
X111311Y123099D02*
X134452D01*
X125426Y141999D02*
X134450D01*
X132824Y162699D02*
X133176D01*
X132896Y167199D02*
X133104D01*
X131739Y129399D02*
X132261D01*
X131953Y124899D02*
X132047D01*
X112824Y162699D02*
X126976D01*
X120243Y167199D02*
X126904D01*
X125426Y137499D02*
X126491D01*
X118667Y129399D02*
X126061D01*
X112637Y124899D02*
X125847D01*
X118500Y128499D02*
X125700D01*
X118130Y127599D02*
X125700D01*
X117098Y126699D02*
X125700D01*
X112839Y125799D02*
X125700D01*
X125389Y132999D02*
X125420D01*
X112859Y163599D02*
X118929D01*
X116787Y151899D02*
X117729D01*
X112825Y126699D02*
X114902D01*
X112955Y127599D02*
X113870D01*
X110218Y145599D02*
X110667D01*
X101500Y153699D02*
X110441D01*
X101500Y145599D02*
X107782D01*
X101500Y114099D02*
X107770D01*
X101500Y106899D02*
X107469D01*
X101500Y114999D02*
X107026D01*
X101500Y146499D02*
X107020D01*
X101500Y160899D02*
X106863D01*
X101500Y154599D02*
X106683D01*
X101500Y152799D02*
X106557D01*
X101500Y144699D02*
X106305D01*
X101500Y113199D02*
X106300D01*
X101500Y107799D02*
X106187D01*
X101500Y139299D02*
X106184D01*
X101500Y115899D02*
X105991D01*
X101500Y147399D02*
X105988D01*
X101500Y161799D02*
X105944D01*
X101500Y159999D02*
X105911D01*
X101500Y155499D02*
X105820D01*
X101500Y151899D02*
X105754D01*
X101500Y143799D02*
X105620D01*
X101500Y112299D02*
X105618D01*
X101500Y108699D02*
X105557D01*
X101500Y140199D02*
X105555D01*
X101500Y168999D02*
X105485D01*
X101500Y116799D02*
X105451D01*
X101500Y148299D02*
X105450D01*
X101500Y159099D02*
X105409D01*
X101500Y156399D02*
X105362D01*
X101500Y138399D02*
X105333D01*
X101500Y150999D02*
X105328D01*
X101500Y119499D02*
X105271D01*
X101500Y142899D02*
X105263D01*
X101500Y111399D02*
X105262D01*
X101500Y109599D02*
X105234D01*
X101500Y141099D02*
X105233D01*
X101500Y117699D02*
X105190D01*
X101500Y149199D02*
X105190D01*
X101500Y162699D02*
X105176D01*
X101500Y158199D02*
X105175D01*
X101500Y157299D02*
X105160D01*
X101500Y150099D02*
X105152D01*
X101500Y118599D02*
X105151D01*
X101500Y141999D02*
X105141D01*
X101500Y110499D02*
X105141D01*
X101500Y168099D02*
X105141D01*
X101500Y167199D02*
X105141D01*
X101500Y166299D02*
X105141D01*
X101500Y165399D02*
X105141D01*
X101500Y164499D02*
X105141D01*
X101500Y163599D02*
X105141D01*
X101500Y137499D02*
X104433D01*
X101500Y120399D02*
X104371D01*
X101500Y136599D02*
X103604D01*
X101500Y121299D02*
X103568D01*
X101500Y135699D02*
X103341D01*
X101500Y134799D02*
X103341D01*
X101500Y133899D02*
X103341D01*
X101500Y132999D02*
X103341D01*
X101500Y132099D02*
X103341D01*
X101500Y131199D02*
X103341D01*
X101500Y130299D02*
X103341D01*
X101500Y129399D02*
X103341D01*
X101500Y128499D02*
X103341D01*
X101500Y127599D02*
X103341D01*
X101500Y126699D02*
X103341D01*
X101500Y125799D02*
X103341D01*
X101500Y124899D02*
X103341D01*
X101500Y123999D02*
X103341D01*
X101500Y123099D02*
X103341D01*
X101500Y122199D02*
X103341D01*
X149919Y158581D02*
X148561Y159939D01*
X144281Y158581D02*
X145639Y159939D01*
X126081Y129419D02*
X127439Y128061D01*
X126081Y124581D02*
X127439Y125939D01*
X131719Y124581D02*
X130361Y125939D01*
X131719Y129419D02*
X130361Y128061D01*
X156719Y163419D02*
X155361Y162061D01*
X156719Y154581D02*
X155361Y155939D01*
X157081Y148919D02*
X158439Y147561D01*
X162719Y148919D02*
X161361Y147561D01*
X203281Y149419D02*
X204639Y148061D01*
X203281Y144581D02*
X204639Y145939D01*
X208919Y144581D02*
X207561Y145939D01*
X208919Y149419D02*
X207561Y148061D01*
X203281Y128419D02*
X204639Y127061D01*
X208919Y128419D02*
X207561Y127061D01*
X187581Y129719D02*
X188939Y128361D01*
X187581Y124081D02*
X188939Y125439D01*
X175376Y142447D02*
X174284Y141355D01*
X147092Y151522D02*
X145971Y150401D01*
X138955Y151522D02*
X140076Y150401D01*
G54D21*
X102850Y102850D03*
X112850D03*
X122850D03*
X132850D03*
X142850D03*
X160204D03*
X152850D03*
X102850Y112850D03*
X122850D03*
X132850D03*
X142850D03*
X190204D03*
X225500Y112000D03*
X223000Y115000D03*
X122850Y122850D03*
X137000Y123000D03*
X132850Y122850D03*
X142850D03*
X165500Y120500D03*
X186000D03*
X116000Y129000D03*
X127000Y135000D03*
X132850Y132850D03*
X149000Y134500D03*
X153500Y130000D03*
X178000Y134500D03*
X194000Y136000D03*
X209000Y131000D03*
X102850Y142850D03*
X137000Y142000D03*
X132850Y142850D03*
X160000Y142000D03*
X181000Y137000D03*
X178000Y146500D03*
X207000Y139000D03*
X102850Y152850D03*
X122850D03*
X132850D03*
X149000Y147000D03*
X142850Y152850D03*
X187000Y156000D03*
X102850Y162850D03*
X147000Y171000D03*
X185000Y171500D03*
X190204Y162850D03*
X222500Y160000D03*
X224000Y171000D03*
G54D23*
X111729Y107712D02*
X110810Y108631D01*
X111729Y113170D02*
X110810Y112250D01*
X106271Y113170D02*
X107190Y112250D01*
X106271Y107712D02*
X107190Y108631D01*
X181603Y111729D02*
X180684Y110810D01*
X176145Y111729D02*
X177064Y110810D01*
X200397Y163271D02*
X201316Y164190D01*
X205855Y163271D02*
X204936Y164190D01*
G54D36*
X109000Y165559D03*
X203126Y109000D03*
X218874Y166000D03*
X163126Y109000D03*
X177874Y166000D03*
G54D37*
X109000Y157685D03*
Y149811D03*
Y141937D03*
Y134063D03*
Y126189D03*
Y118315D03*
Y110441D03*
X211000Y109000D03*
X218874D03*
X211000Y166000D03*
X203126D03*
X171000Y109000D03*
X178874D03*
X170000Y166000D03*
X162126D03*
G54D38*
X190000Y138900D03*
Y145100D03*
Y126900D03*
Y133100D03*
G54D40*
X120976Y132000D03*
Y134559D03*
Y137118D03*
Y139677D03*
Y142236D03*
Y144795D03*
Y147354D03*
Y149913D03*
X143024D03*
Y147354D03*
Y144795D03*
Y142236D03*
Y139677D03*
Y137118D03*
Y134559D03*
Y132000D03*
G54D41*
X218000Y118504D03*
Y155496D03*
G54D42*
X213472Y131496D03*
X222528D03*
Y142504D03*
X213472D03*
G54D52*
X172449Y140937D03*
Y138969D03*
Y137000D03*
Y135031D03*
Y133063D03*
X153551D03*
Y135031D03*
Y137000D03*
Y138969D03*
Y140937D03*
G74*
X0Y0D02*
M02*
