*
*
G04 PADS 9.3.1 Build Number: 456998 generated Gerber (RS-274-X) file*
G04 PC Version=2.1*
*
%IN "strain_gauge_digitizer_"*%
*
%MOIN*%
*
%FSLAX35Y35*%
*
*
*
*
G04 PC Standard Apertures*
*
*
G04 Thermal Relief Aperture macro.*
%AMTER*
1,1,$1,0,0*
1,0,$1-$2,0,0*
21,0,$3,$4,0,0,45*
21,0,$3,$4,0,0,135*
%
*
*
G04 Annular Aperture macro.*
%AMANN*
1,1,$1,0,0*
1,0,$2,0,0*
%
*
*
G04 Odd Aperture macro.*
%AMODD*
1,1,$1,0,0*
1,0,$1-0.005,0,0*
%
*
*
G04 PC Custom Aperture Macros*
*
*
*
*
*
*
G04 PC Aperture Table*
*
%ADD010C,0.001*%
%ADD018R,0.038X0.03*%
%ADD019C,0.01*%
%ADD021C,0.025*%
%ADD023C,0.015*%
%ADD036R,0.05118X0.05118*%
%ADD037C,0.05118*%
%ADD038R,0.03X0.038*%
%ADD039R,0.01378X0.06299*%
%ADD040R,0.06299X0.01378*%
%ADD041R,0.05512X0.03543*%
%ADD042R,0.04331X0.03543*%
*
*
*
*
G04 PC Circuitry*
G04 Layer Name strain_gauge_digitizer_ - circuitry*
%LPD*%
*
*
G04 PC Custom Flashes*
G04 Layer Name strain_gauge_digitizer_ - flashes*
%LPD*%
*
*
G04 PC Circuitry*
G04 Layer Name strain_gauge_digitizer_ - circuitry*
%LPD*%
*
G54D10*
G54D18*
G01X199900Y122000D03*
X206100D03*
Y126000D03*
X199900D03*
Y152000D03*
X206100D03*
Y147000D03*
X199900D03*
X173100Y156000D03*
X166900D03*
X160100Y157000D03*
X153900D03*
X135100Y127000D03*
X128900D03*
X160100Y161000D03*
X153900D03*
X140900Y165000D03*
X147100D03*
X140900Y161000D03*
X147100D03*
X129900Y165000D03*
X136100D03*
X170100Y116000D03*
X163900D03*
X170900Y171500D03*
X177100D03*
G54D19*
X187899Y105000D02*
X191899Y109000D01*
X203126*
X187899Y105000D02*
X167126D01*
X163126Y109000*
X171000D02*
X170654D01*
Y116000*
X170100*
X171000Y109000D02*
X179441Y117441D01*
Y126976*
X163126Y109000D02*
Y116000D01*
X163900*
X203126Y109000D02*
X208126Y114000D01*
X224028*
X225993Y115965*
Y136806*
X109000Y118315D02*
X105141Y122174D01*
Y135661*
X109000Y126189D02*
X115000Y132189D01*
Y135600*
X116518Y137118*
X120976*
X137000Y123000D02*
X136333Y127000D01*
X135541*
X158242Y122000D02*
X158969Y122727D01*
Y126976*
X158242Y122000D02*
X153150D01*
X151000Y124150*
Y132000*
X148441Y134559*
X143024*
X175000Y119000D02*
X176882Y120882D01*
Y126976*
X198500Y122000D02*
Y126000D01*
X199900*
Y131900*
X207000Y139000*
X199900Y122000D02*
X198500D01*
X206100Y126000D02*
Y127000D01*
X218000Y121504D02*
X211870D01*
X211374Y122000*
X206100*
X223000Y117000D02*
X199000D01*
X194000Y122000*
Y128700*
X190000Y132700*
Y133100*
X105141Y135661D02*
X107479Y138000D01*
X112687*
X114365Y139677*
X120976*
X116000Y129000D02*
X118483Y132000D01*
X120976*
Y134559D02*
X121095D01*
X127000Y135000*
X135541Y127000D02*
X135521Y126979D01*
X135100*
Y127000*
X135541D02*
X140552Y132011D01*
X143024*
X135100Y127000D02*
X135541D01*
X143024Y132000D02*
Y132011D01*
X153850Y126976D02*
Y132150D01*
X148882Y137118*
X143024*
X156409Y126976D02*
Y132136D01*
X148868Y139677*
X143024*
X164087Y126976D02*
Y131000D01*
X163000Y132087*
X159005*
X148855Y142236*
X174000Y135000D02*
X180000Y141000D01*
X191000Y133100D02*
Y138900D01*
X190000*
Y133100D02*
X191000D01*
X182000Y126976D02*
Y132350D01*
X180350Y134000*
X178000*
X194000Y136000D02*
Y141500D01*
X199500Y147000*
X199900*
X206100Y127000D02*
X207500D01*
X211000Y128000*
X206100Y127000D02*
Y133100D01*
X209550Y136550*
Y143950*
X209000Y131000D02*
X213412Y134496D01*
X213472*
X216752*
X221947Y139691*
X222528*
X120976Y144795D02*
X116727D01*
X115000Y146522*
Y151685*
X109000Y157685*
X120976Y142236D02*
X114764D01*
X113000Y144000*
Y145811*
X109000Y149811*
X138677Y139677D02*
X143024D01*
X137000Y142000D02*
X140374Y142047D01*
X143024*
Y142236*
X148855D02*
X156431D01*
X158969Y144774*
Y149024*
X143024Y142236D02*
X148855D01*
X143024Y144795D02*
X152083D01*
X153850Y146563*
Y149024*
X176882D02*
Y146374D01*
X174323*
Y149024*
X172000Y144000D02*
X178876D01*
X179441Y144565*
Y149024*
X172000Y144000D02*
X171764Y144236D01*
Y149024*
X172000Y144000D02*
X167129D01*
X166646Y144484*
Y149024*
X180000Y137000D02*
X185000D01*
X186900Y138900*
X190000*
X180000Y141000D02*
X182000Y141175D01*
X185925Y145100*
X190000*
X209550Y143950D02*
X206500Y147000D01*
X206100*
X222528Y139691D02*
Y156511D01*
X218874Y160165*
Y166000*
X225993Y136806D02*
X223108Y139691D01*
X222528*
Y139504D02*
Y139691D01*
X150000Y149913D02*
Y150000D01*
X161528Y149024D02*
Y151673D01*
X158969Y149024D02*
Y151673D01*
X161528*
X156409Y149024D02*
Y153453D01*
X155863Y154000*
X169205Y149024D02*
Y152142D01*
X173063Y156000*
X173100*
X166646Y149024D02*
Y156000D01*
X166900*
X164087Y149024D02*
Y153413D01*
X160500Y157000*
X160100*
X178000Y156000D02*
X173100D01*
Y161000*
X179441Y149024D02*
Y153441D01*
X182000Y149024D02*
X191024D01*
X199000Y157000*
X218000*
X198500Y147000D02*
Y152000D01*
X199900*
Y147000D02*
X198500D01*
X206100Y152000D02*
X211000D01*
X211496Y152496*
X218000*
X139500Y164000D02*
X140900D01*
Y165000*
X139500Y164000D02*
Y165000D01*
X140900*
X139500Y164000D02*
X136100D01*
Y165000*
X129900D02*
X120059D01*
X119500Y165559*
X109000*
X173100Y161000D02*
Y161226D01*
X177874Y166000*
X152500Y161000D02*
X153900D01*
X158700Y157000D02*
Y161000D01*
X160100*
X147100D02*
X152500D01*
X140900D02*
X139500D01*
Y164000*
X147100Y165000D02*
X147000D01*
Y171000*
X153900Y161000D02*
X158900Y166000D01*
X162126*
X160100Y161000D02*
X173100D01*
X170000Y166000D02*
X170346D01*
Y171500*
X170900*
X177874Y166000D02*
X177100D01*
Y171500*
X177874Y166000D02*
X189601D01*
X193601Y170000*
X214874*
X218874Y166000*
X153900Y157000D02*
X152500D01*
Y161000*
X160100Y157000D02*
X158700D01*
X112859Y110441D02*
G75*
G03X112859I-3859J0D01*
G01X228500Y101500D02*
Y173700D01*
X180095*
X180300Y173000D02*
G03X180095Y173700I-1300J0D01*
G01X180300Y173000D02*
Y170000D01*
X180292Y169859D02*
G03X180300Y170000I-1292J141D01*
G01X180292Y169859D02*
X180433D01*
X181733Y168559D02*
G03X180433Y169859I-1300J0D01*
G01X181733Y168559D02*
Y167800D01*
X188855*
X192328Y171273*
X193601Y171800D02*
G03X192328Y171273I-0J-1800D01*
G01X193601Y171800D02*
X214874D01*
X216147Y171273D02*
G03X214874Y171800I-1273J-1273D01*
G01X216147Y171273D02*
X217561Y169859D01*
X221433*
X222733Y168559D02*
G03X221433Y169859I-1300J0D01*
G01X222733Y168559D02*
Y163441D01*
X221433Y162141D02*
G03X222733Y163441I0J1300D01*
G01X221433Y162141D02*
X220674D01*
Y160910*
X223800Y157784*
X224328Y156511D02*
G03X223800Y157784I-1800J-0D01*
G01X224328Y156511D02*
Y142576D01*
X224693*
X225993Y141276D02*
G03X224693Y142576I-1300J-0D01*
G01X225993Y141276D02*
Y139352D01*
X227266Y138079*
X227793Y136806D02*
G03X227266Y138079I-1800J0D01*
G01X227793Y136806D02*
Y115965D01*
X227266Y114692D02*
G03X227793Y115965I-1273J1273D01*
G01X227266Y114692D02*
X225301Y112727D01*
X224028Y112200D02*
G03X225301Y112727I0J1800D01*
G01X224028Y112200D02*
X221031D01*
X216717D02*
G03X221031I2157J-3200D01*
G01X216717D02*
X213157D01*
X207746Y111074D02*
G03X213157Y112200I3254J-2074D01*
G01X207746Y111074D02*
X206985Y110313D01*
Y106441*
X205685Y105141D02*
G03X206985Y106441I0J1300D01*
G01X205685Y105141D02*
X200567D01*
X199267Y106441D02*
G03X200567Y105141I1300J-0D01*
G01X199267Y106441D02*
Y107200D01*
X192645*
X189172Y103727*
X187899Y103200D02*
G03X189172Y103727I0J1800D01*
G01X187899Y103200D02*
X167126D01*
X165853Y103727D02*
G03X167126Y103200I1273J1273D01*
G01X165853Y103727D02*
X164439Y105141D01*
X160567*
X159267Y106441D02*
G03X160567Y105141I1300J-0D01*
G01X159267Y106441D02*
Y111559D01*
X160567Y112859D02*
G03X159267Y111559I-0J-1300D01*
G01X160567Y112859D02*
X161326D01*
Y113388*
X160700Y114500D02*
G03X161326Y113388I1300J0D01*
G01X160700Y114500D02*
Y117500D01*
X162000Y118800D02*
G03X160700Y117500I0J-1300D01*
G01X162000Y118800D02*
X165800D01*
X167000Y118000D02*
G03X165800Y118800I-1200J-500D01*
G01X168200D02*
G03X167000Y118000I0J-1300D01*
G01X168200Y118800D02*
X172000D01*
X172466Y118714D02*
G03X172000Y118800I-466J-1214D01*
G01X175004Y121550D02*
G03X172466Y118714I-4J-2550D01*
G01X175004Y121550D02*
X175082Y121627D01*
Y122529*
X175012Y122527D02*
G03X175082Y122529I-0J1300D01*
G01X175012Y122527D02*
X173634D01*
X173043Y122669D02*
G03X173634Y122527I591J1158D01*
G01X172453D02*
G03X173043Y122669I-0J1300D01*
G01X172453Y122527D02*
X171075D01*
X170484Y122669D02*
G03X171075Y122527I591J1158D01*
G01X169894D02*
G03X170484Y122669I-0J1300D01*
G01X169894Y122527D02*
X168516D01*
X167925Y122669D02*
G03X168516Y122527I591J1158D01*
G01X167335D02*
G03X167925Y122669I-0J1300D01*
G01X167335Y122527D02*
X165957D01*
X165366Y122669D02*
G03X165957Y122527I591J1158D01*
G01X164776D02*
G03X165366Y122669I-0J1300D01*
G01X164776Y122527D02*
X163398D01*
X162807Y122669D02*
G03X163398Y122527I591J1158D01*
G01X162217D02*
G03X162807Y122669I-0J1300D01*
G01X162217Y122527D02*
X160839D01*
X160758Y122529D02*
G03X160839Y122527I81J1298D01*
G01X160241Y121454D02*
G03X160758Y122529I-1272J1273D01*
G01X160241Y121454D02*
X159515Y120727D01*
X158500Y120219D02*
G03X159515Y120727I-258J1781D01*
G01X158500Y120219D02*
Y106500D01*
X154500*
Y101500*
X228500*
X204439Y112859D02*
X206780Y115200D01*
X199000*
X197727Y115727D02*
G03X199000Y115200I1273J1273D01*
G01X197727Y115727D02*
X192727Y120727D01*
X192200Y122000D02*
G03X192727Y120727I1800J0D01*
G01X192200Y122000D02*
Y123905D01*
X191500Y123700D02*
G03X192200Y123905I0J1300D01*
G01X191500Y123700D02*
X188500D01*
X187200Y125000D02*
G03X188500Y123700I1300J0D01*
G01X187200Y125000D02*
Y128800D01*
X188000Y130000D02*
G03X187200Y128800I500J-1200D01*
G01Y131200D02*
G03X188000Y130000I1300J0D01*
G01X187200Y131200D02*
Y135000D01*
X187669Y136000D02*
G03X187200Y135000I831J-1000D01*
G01X187237Y136692D02*
G03X187669Y136000I1263J308D01*
G01X187237Y136692D02*
X186273Y135727D01*
X185000Y135200D02*
G03X186273Y135727I0J1800D01*
G01X185000Y135200D02*
X184000D01*
Y129500*
X183989Y129396D02*
G03X184000Y129500I-489J104D01*
G01X183989Y129396D02*
Y123827D01*
X182689Y122527D02*
G03X183989Y123827I-0J1300D01*
G01X182689Y122527D02*
X181311D01*
X181241Y122529D02*
G03X181311Y122527I70J1298D01*
G01X181241Y122529D02*
Y117441D01*
X180714Y116168D02*
G03X181241Y117441I-1273J1273D01*
G01X180714Y116168D02*
X176800Y112254D01*
X182045Y106800D02*
G03X176800Y112254I-3171J2200D01*
G01X182045Y106800D02*
X187154D01*
X190626Y110273*
X191899Y110800D02*
G03X190626Y110273I0J-1800D01*
G01X191899Y110800D02*
X199267D01*
Y111559*
X200567Y112859D02*
G03X199267Y111559I-0J-1300D01*
G01X200567Y112859D02*
X204439D01*
X203369Y149500D02*
G03X203000Y149000I831J-1000D01*
G01Y150000D02*
G03X203369Y149500I1200J500D01*
G01X202631D02*
G03X203000Y150000I-831J1000D01*
G01Y149000D02*
G03X202631Y149500I-1200J-500D01*
G01X217230Y159431D02*
G03X216194Y158800I770J-2431D01*
G01X217074Y160165D02*
G03X217230Y159431I1800J-0D01*
G01X217074Y160165D02*
Y162141D01*
X216315*
X215015Y163441D02*
G03X216315Y162141I1300J-0D01*
G01X215015Y163441D02*
Y167313D01*
X214254Y168074*
X207829Y168200D02*
G03X214254Y168074I3171J-2200D01*
G01X207829Y168200D02*
X206297D01*
X199955D02*
G03X206297I3171J-2200D01*
G01X199955D02*
X194346D01*
X190874Y164727*
X189601Y164200D02*
G03X190874Y164727I-0J1800D01*
G01X189601Y164200D02*
X181733D01*
Y163441*
X180433Y162141D02*
G03X181733Y163441I0J1300D01*
G01X180433Y162141D02*
X176561D01*
X174900Y160480*
Y158800*
X175000*
X176251Y157855D02*
G03X175000Y158800I-1251J-355D01*
G01X176251Y154145D02*
G03Y157855I1749J1855D01*
G01X175586Y153340D02*
G03X176251Y154145I-586J1160D01*
G01X175602Y153331D02*
G03X175586Y153340I-590J-1158D01*
G01X176193Y153473D02*
G03X175602Y153331I-0J-1300D01*
G01X176193Y153473D02*
X177571D01*
X178161Y153331D02*
G03X177571Y153473I-590J-1158D01*
G01X178752D02*
G03X178161Y153331I-0J-1300D01*
G01X178752Y153473D02*
X180130D01*
X180720Y153331D02*
G03X180130Y153473I-590J-1158D01*
G01X181311D02*
G03X180720Y153331I0J-1300D01*
G01X181311Y153473D02*
X182689D01*
X183989Y152173D02*
G03X182689Y153473I-1300J0D01*
G01X183989Y152173D02*
Y150824D01*
X190278*
X197727Y158273*
X199000Y158800D02*
G03X197727Y158273I0J-1800D01*
G01X199000Y158800D02*
X216194D01*
X224193Y119254D02*
Y131424D01*
X220362*
X219062Y132724D02*
G03X220362Y131424I1300J0D01*
G01X219062Y132724D02*
Y134261D01*
X218025Y133223*
X216938Y132706D02*
G03X218025Y133223I-186J1790D01*
G01X215638Y131424D02*
G03X216938Y132706I-0J1300D01*
G01X215638Y131424D02*
X212434D01*
X211534Y130711*
X208885Y128453D02*
G03X211534Y130711I115J2547D01*
G01X209300Y127500D02*
G03X208885Y128453I-1300J0D01*
G01X209300Y127500D02*
Y124500D01*
X209200Y124000D02*
G03X209300Y124500I-1200J500D01*
G01X209265Y123800D02*
G03X209200Y124000I-1265J-300D01*
G01X209265Y123800D02*
X211374D01*
X212615Y123304D02*
G03X211374Y123800I-1241J-1304D01*
G01X212615Y123304D02*
X213944D01*
X215244Y124576D02*
G03X213944Y123304I0J-1300D01*
G01X215244Y124576D02*
X220756D01*
X222056Y123276D02*
G03X220756Y124576I-1300J-0D01*
G01X222056Y123276D02*
Y119732D01*
X221997Y119344D02*
G03X222056Y119732I-1241J388D01*
G01X224193Y119254D02*
G03X221997Y119344I-1193J-2254D01*
G01X220728Y142576D02*
Y149424D01*
X215244*
X213944Y150696D02*
G03X215244Y149424I1300J28D01*
G01X213944Y150696D02*
X212241D01*
X211000Y150200D02*
G03X212241Y150696I0J1800D01*
G01X211000Y150200D02*
X209265D01*
X208831Y149500D02*
G03X209265Y150200I-831J1000D01*
G01X209300Y148500D02*
G03X208831Y149500I-1300J0D01*
G01X209300Y148500D02*
Y145500D01*
X208000Y144200D02*
G03X209300Y145500I0J1300D01*
G01X208000Y144200D02*
X204200D01*
X203000Y145000D02*
G03X204200Y144200I1200J500D01*
G01X201800D02*
G03X203000Y145000I0J1300D01*
G01X201800Y144200D02*
X199246D01*
X195800Y140754*
Y137806*
X192800Y133750D02*
G03X195800Y137806I1200J2250D01*
G01X192800Y133750D02*
Y133100D01*
Y132446*
X195273Y129973*
X195800Y128700D02*
G03X195273Y129973I-1800J0D01*
G01X195800Y128700D02*
Y122746D01*
X196700Y121846*
Y122000*
Y124500*
Y127500*
X198000Y128800D02*
G03X196700Y127500I0J-1300D01*
G01X198000Y128800D02*
X198100D01*
Y131900*
X198627Y133173D02*
G03X198100Y131900I1273J-1273D01*
G01X198627Y133173D02*
X204450Y138996D01*
Y139000*
X206996Y136450D02*
G03X204450Y139000I4J2550D01*
G01X206996Y136450D02*
X201700Y131154D01*
Y128800*
X201800*
X203000Y128000D02*
G03X201800Y128800I-1200J-500D01*
G01X204200D02*
G03X203000Y128000I0J-1300D01*
G01X204200Y128800D02*
X207711D01*
X209298Y133533D02*
G03X207711Y128800I-298J-2533D01*
G01X209298Y133533D02*
X210007Y134095D01*
Y136268*
X210233Y137000D02*
G03X210007Y136268I1074J-732D01*
G01Y137732D02*
G03X210233Y137000I1300J0D01*
G01X210007Y137732D02*
Y141276D01*
X211307Y142576D02*
G03X210007Y141276I0J-1300D01*
G01X211307Y142576D02*
X215638D01*
X216938Y141276D02*
G03X215638Y142576I-1300J-0D01*
G01X216938Y141276D02*
Y137732D01*
X216715Y137005D02*
G03X216938Y137732I-1077J727D01*
G01X216715Y137005D02*
X219062Y139352D01*
Y141276*
X220362Y142576D02*
G03X219062Y141276I0J-1300D01*
G01X220362Y142576D02*
X220728D01*
X156500Y163595D02*
Y173700D01*
X101500*
Y101500*
X156500*
Y120200*
X153150*
X151877Y120727D02*
G03X153150Y120200I1273J1273D01*
G01X151877Y120727D02*
X149727Y122877D01*
X149200Y124150D02*
G03X149727Y122877I1800J-0D01*
G01X149200Y124150D02*
Y131254D01*
X147695Y132759*
X147471*
X147473Y132689D02*
G03X147471Y132759I-1300J-0D01*
G01X147473Y132689D02*
Y131311D01*
X146173Y130011D02*
G03X147473Y131311I0J1300D01*
G01X146173Y130011D02*
X141098D01*
X138300Y127213*
Y126149*
X138479Y125078*
X134750Y124200D02*
G03X138479Y125078I2250J-1200D01*
G01X134750Y124200D02*
X133200D01*
X132000Y125000D02*
G03X133200Y124200I1200J500D01*
G01X130800D02*
G03X132000Y125000I0J1300D01*
G01X130800Y124200D02*
X127000D01*
X125700Y125500D02*
G03X127000Y124200I1300J0D01*
G01X125700Y125500D02*
Y128500D01*
X127000Y129800D02*
G03X125700Y128500I0J-1300D01*
G01X127000Y129800D02*
X130800D01*
X132000Y129000D02*
G03X130800Y129800I-1200J-500D01*
G01X133200D02*
G03X132000Y129000I0J-1300D01*
G01X133200Y129800D02*
X135795D01*
X138574Y132579*
Y132689*
X138716Y133280D02*
G03X138574Y132689I1158J-591D01*
G01Y133870D02*
G03X138716Y133280I1300J0D01*
G01X138574Y133870D02*
Y135248D01*
X138716Y135839D02*
G03X138574Y135248I1158J-591D01*
G01Y136429D02*
G03X138716Y135839I1300J0D01*
G01X138574Y136429D02*
Y137807D01*
X138716Y138398D02*
G03X138574Y137807I1158J-591D01*
G01Y138988D02*
G03X138716Y138398I1300J0D01*
G01X138574Y138988D02*
Y139994D01*
X138578Y144003D02*
G03X138574Y139994I-1578J-2003D01*
G01Y144106D02*
G03X138578Y144003I1300J0D01*
G01X138574Y144106D02*
Y145484D01*
X138716Y146075D02*
G03X138574Y145484I1158J-591D01*
G01Y146665D02*
G03X138716Y146075I1300J0D01*
G01X138574Y146665D02*
Y148043D01*
X138716Y148634D02*
G03X138574Y148043I1158J-591D01*
G01Y149224D02*
G03X138716Y148634I1300J0D01*
G01X138574Y149224D02*
Y150602D01*
X139874Y151902D02*
G03X138574Y150602I0J-1300D01*
G01X139874Y151902D02*
X146173D01*
X147473Y150602D02*
G03X146173Y151902I-1300J0D01*
G01X147473Y150602D02*
Y149224D01*
X147331Y148634D02*
G03X147473Y149224I-1158J590D01*
G01Y148043D02*
G03X147331Y148634I-1300J0D01*
G01X147473Y148043D02*
Y146665D01*
X147471Y146595D02*
G03X147473Y146665I-1298J70D01*
G01X147471Y146595D02*
X151009D01*
X151500Y147000D02*
G03X151009Y146595I0J-500D01*
G01X151500Y147000D02*
X151742D01*
X151861Y147120*
Y152173*
X153161Y153473D02*
G03X151861Y152173I0J-1300D01*
G01X153161Y153473D02*
X154539D01*
X155130Y153331D02*
G03X154539Y153473I-591J-1158D01*
G01X155720D02*
G03X155130Y153331I0J-1300D01*
G01X155720Y153473D02*
X156500D01*
Y154405*
X155800Y154200D02*
G03X156500Y154405I0J1300D01*
G01X155800Y154200D02*
X152000D01*
X150700Y155500D02*
G03X152000Y154200I1300J0D01*
G01X150700Y155500D02*
Y158500D01*
X150800Y159000D02*
G03X150700Y158500I1200J-500D01*
G01Y159500D02*
G03X150800Y159000I1300J0D01*
G01X150700Y159500D02*
Y162500D01*
X152000Y163800D02*
G03X150700Y162500I0J-1300D01*
G01X152000Y163800D02*
X155800D01*
X156500Y163595D02*
G03X155800Y163800I-700J-1095D01*
G01X150300Y166500D02*
Y163500D01*
X150200Y163000D02*
G03X150300Y163500I-1200J500D01*
G01Y162500D02*
G03X150200Y163000I-1300J0D01*
G01X150300Y162500D02*
Y159500D01*
X149000Y158200D02*
G03X150300Y159500I0J1300D01*
G01X149000Y158200D02*
X145200D01*
X144000Y159000D02*
G03X145200Y158200I1200J500D01*
G01X142800D02*
G03X144000Y159000I0J1300D01*
G01X142800Y158200D02*
X139000D01*
X137700Y159500D02*
G03X139000Y158200I1300J0D01*
G01X137700Y159500D02*
Y162200D01*
X136100*
X134200*
X133000Y163000D02*
G03X134200Y162200I1200J500D01*
G01X131800D02*
G03X133000Y163000I0J1300D01*
G01X131800Y162200D02*
X128000D01*
X126735Y163200D02*
G03X128000Y162200I1265J300D01*
G01X126735Y163200D02*
X120059D01*
X118786Y163727D02*
G03X120059Y163200I1273J1273D01*
G01X118786Y163727D02*
X118754Y163759D01*
X112859*
Y163000*
X111559Y161700D02*
G03X112859Y163000I0J1300D01*
G01X111559Y161700D02*
X106441D01*
X105141Y163000D02*
G03X106441Y161700I1300J0D01*
G01X105141Y163000D02*
Y168118D01*
X106441Y169418D02*
G03X105141Y168118I-0J-1300D01*
G01X106441Y169418D02*
X111559D01*
X112859Y168118D02*
G03X111559Y169418I-1300J0D01*
G01X112859Y168118D02*
Y167359D01*
X119500*
X120773Y166832D02*
G03X119500Y167359I-1273J-1273D01*
G01X120773Y166832D02*
X120805Y166800D01*
X126735*
X128000Y167800D02*
G03X126735Y166800I0J-1300D01*
G01X128000Y167800D02*
X131800D01*
X133000Y167000D02*
G03X131800Y167800I-1200J-500D01*
G01X134200D02*
G03X133000Y167000I0J-1300D01*
G01X134200Y167800D02*
X138000D01*
X138500Y167700D02*
G03X138000Y167800I-500J-1200D01*
G01X139000D02*
G03X138500Y167700I0J-1300D01*
G01X139000Y167800D02*
X142800D01*
X144000Y167000D02*
G03X142800Y167800I-1200J-500D01*
G01X145200D02*
G03X144000Y167000I0J-1300D01*
G01X145200Y167800D02*
Y169194D01*
X148800D02*
G03X145200I-1800J1806D01*
G01X148800D02*
Y167800D01*
X149000*
X150300Y166500D02*
G03X149000Y167800I-1300J0D01*
G01X112859Y110441D02*
G03X112859I-3859J0D01*
G01X125380Y133030D02*
G03X125426Y137006I1620J1970D01*
G01Y132689D02*
G03X125380Y133030I-1300J-0D01*
G01X125426Y132689D02*
Y131311D01*
X124126Y130011D02*
G03X125426Y131311I-0J1300D01*
G01X124126Y130011D02*
X119173D01*
X119173D02*
X118538Y129244D01*
X113573Y128217D02*
G03X118538Y129244I2427J783D01*
G01X113573Y128217D02*
X112687Y127330D01*
X106941Y122925D02*
G03X112687Y127330I2059J3264D01*
G01X106941Y122925D02*
Y122920D01*
X107859Y122002*
X105313Y119456D02*
G03X107859Y122002I3687J-1141D01*
G01X105313Y119456D02*
X103868Y120901D01*
X103341Y122174D02*
G03X103868Y120901I1800J0D01*
G01X103341Y122174D02*
Y135661D01*
X103868Y136934D02*
G03X103341Y135661I1273J-1273D01*
G01X103868Y136934D02*
X106207Y139273D01*
Y139274D02*
Y139273D01*
X111074Y145191D02*
G03X106207Y139274I-2074J-3254D01*
G01X111074Y145191D02*
X110141Y146124D01*
X111074Y153065D02*
G03X110141Y146124I-2074J-3254D01*
G01X111074Y153065D02*
X110141Y153998D01*
X112687Y156544D02*
G03X110141Y153998I-3687J1141D01*
G01X112687Y156544D02*
X116273Y152958D01*
X116800Y151685D02*
G03X116273Y152958I-1800J0D01*
G01X116800Y151685D02*
Y151400D01*
X117827Y151902D02*
G03X116800Y151400I-0J-1300D01*
G01X117827Y151902D02*
X124126D01*
X125426Y150602D02*
G03X124126Y151902I-1300J0D01*
G01X125426Y150602D02*
Y149224D01*
X125284Y148634D02*
G03X125426Y149224I-1158J590D01*
G01Y148043D02*
G03X125284Y148634I-1300J0D01*
G01X125426Y148043D02*
Y146665D01*
X125284Y146075D02*
G03X125426Y146665I-1158J590D01*
G01Y145484D02*
G03X125284Y146075I-1300J0D01*
G01X125426Y145484D02*
Y144106D01*
X125284Y143516D02*
G03X125426Y144106I-1158J590D01*
G01Y142925D02*
G03X125284Y143516I-1300J0D01*
G01X125426Y142925D02*
Y141547D01*
X125284Y140957D02*
G03X125426Y141547I-1158J590D01*
G01Y140366D02*
G03X125284Y140957I-1300J0D01*
G01X125426Y140366D02*
Y138988D01*
X125284Y138398D02*
G03X125426Y138988I-1158J590D01*
G01Y137807D02*
G03X125284Y138398I-1300J0D01*
G01X125426Y137807D02*
Y137006D01*
X209096Y149199D02*
X220728D01*
X209300Y148299D02*
X220728D01*
X209300Y147399D02*
X220728D01*
X209300Y146499D02*
X220728D01*
X209300Y145599D02*
X220728D01*
X209024Y144699D02*
X220728D01*
X198844Y143799D02*
X220728D01*
X197944Y142899D02*
X220728D01*
X216718Y141999D02*
X219282D01*
X216938Y141099D02*
X219062D01*
X216938Y140199D02*
X219062D01*
X216938Y139299D02*
X219009D01*
X216938Y138399D02*
X218109D01*
X216917Y137499D02*
X217209D01*
X209237Y150099D02*
X214105D01*
X197044Y141999D02*
X210227D01*
X207858Y136599D02*
X210050D01*
X209061Y137499D02*
X210028D01*
X208448Y141099D02*
X210007D01*
X209251Y140199D02*
X210007D01*
X209532Y139299D02*
X210007D01*
X209478Y138399D02*
X210007D01*
X206244Y135699D02*
X210007D01*
X205344Y134799D02*
X210007D01*
X204444Y133899D02*
X209760D01*
X203544Y132999D02*
X207416D01*
X201700Y129399D02*
X207015D01*
X202644Y132099D02*
X206699D01*
X201700Y130299D02*
X206548D01*
X201744Y131199D02*
X206458D01*
X196144Y141099D02*
X205552D01*
X195800Y140199D02*
X204749D01*
X195800Y139299D02*
X204468D01*
X195800Y138399D02*
X203853D01*
X202632Y128499D02*
X203368D01*
X202824Y144699D02*
X203176D01*
X196063Y137499D02*
X202953D01*
X196479Y136599D02*
X202053D01*
X196532Y135699D02*
X201153D01*
X196249Y134799D02*
X200253D01*
X195445Y133899D02*
X199353D01*
X192800Y132999D02*
X198474D01*
X193147Y132099D02*
X198111D01*
X194047Y131199D02*
X198100D01*
X194947Y130299D02*
X198100D01*
X195659Y129399D02*
X198100D01*
X195800Y128499D02*
X197168D01*
X195800Y127599D02*
X196704D01*
X195800Y126699D02*
X196700D01*
X195800Y125799D02*
X196700D01*
X195800Y124899D02*
X196700D01*
X195800Y123999D02*
X196700D01*
X195800Y123099D02*
X196700D01*
X196347Y122199D02*
X196700D01*
X212149Y131199D02*
X224193D01*
X211452Y130299D02*
X224193D01*
X210985Y129399D02*
X224193D01*
X209496Y128499D02*
X224193D01*
X209296Y127599D02*
X224193D01*
X209300Y126699D02*
X224193D01*
X209300Y125799D02*
X224193D01*
X209300Y124899D02*
X224193D01*
X221836Y123999D02*
X224193D01*
X222056Y123099D02*
X224193D01*
X222056Y122199D02*
X224193D01*
X222056Y121299D02*
X224193D01*
X222056Y120399D02*
X224193D01*
X223509Y119499D02*
X224193D01*
X222035D02*
X222491D01*
X216777Y132099D02*
X219223D01*
X218700Y133899D02*
X219062D01*
X217751Y132999D02*
X219062D01*
X209201Y123999D02*
X214164D01*
X174900Y159999D02*
X217082D01*
X176218Y161799D02*
X217074D01*
X175318Y160899D02*
X217074D01*
X174900Y159099D02*
X216552D01*
X212998Y162699D02*
X215248D01*
X214668Y167199D02*
X215015D01*
X214847Y166299D02*
X215015D01*
X214812Y165399D02*
X215015D01*
X214555Y164499D02*
X215015D01*
X214021Y163599D02*
X215015D01*
X205124Y162699D02*
X209002D01*
X206147Y163599D02*
X207979D01*
X206364Y168099D02*
X207761D01*
X206681Y164499D02*
X207445D01*
X206794Y167199D02*
X207332D01*
X206938Y165399D02*
X207188D01*
X206973Y166299D02*
X207153D01*
X181500Y162699D02*
X201128D01*
X181733Y163599D02*
X200105D01*
X194245Y168099D02*
X199887D01*
X190594Y164499D02*
X199571D01*
X193345Y167199D02*
X199458D01*
X191545Y165399D02*
X199314D01*
X192445Y166299D02*
X199278D01*
X179292Y158199D02*
X197653D01*
X180195Y157299D02*
X196753D01*
X180519Y156399D02*
X195853D01*
X180500Y155499D02*
X194953D01*
X180130Y154599D02*
X194053D01*
X179098Y153699D02*
X193153D01*
X183829Y152799D02*
X192253D01*
X183989Y151899D02*
X191353D01*
X183989Y150999D02*
X190453D01*
X176024Y153699D02*
X176902D01*
X176096Y158199D02*
X176708D01*
X202896Y149199D02*
X203104D01*
X179544Y114999D02*
X206579D01*
X178644Y114099D02*
X205679D01*
X177744Y113199D02*
X204779D01*
X180877Y112299D02*
X199498D01*
X181897Y111399D02*
X199267D01*
X180444Y115899D02*
X197556D01*
X181122Y116799D02*
X196656D01*
X181241Y117699D02*
X195756D01*
X181241Y118599D02*
X194856D01*
X181241Y119499D02*
X193956D01*
X181241Y120399D02*
X193056D01*
X181241Y121299D02*
X192342D01*
X183766Y123099D02*
X192200D01*
X181241Y122199D02*
X192200D01*
X182430Y110499D02*
X190902D01*
X182686Y109599D02*
X189952D01*
X182721Y108699D02*
X189052D01*
X182541Y107799D02*
X188152D01*
X183989Y123999D02*
X187671D01*
X184000Y130299D02*
X187563D01*
X186244Y135699D02*
X187404D01*
X183990Y129399D02*
X187346D01*
X187144Y136599D02*
X187263D01*
X182111Y106899D02*
X187252D01*
X183989Y124899D02*
X187204D01*
X184000Y134799D02*
X187200D01*
X184000Y133899D02*
X187200D01*
X184000Y132999D02*
X187200D01*
X184000Y132099D02*
X187200D01*
X184000Y131199D02*
X187200D01*
X183989Y128499D02*
X187200D01*
X183989Y127599D02*
X187200D01*
X183989Y126699D02*
X187200D01*
X183989Y125799D02*
X187200D01*
X176844Y112299D02*
X176871D01*
X180201Y173499D02*
X228500D01*
X180300Y172599D02*
X228500D01*
X215469Y171699D02*
X228500D01*
X216621Y170799D02*
X228500D01*
X217521Y169899D02*
X228500D01*
X222656Y168999D02*
X228500D01*
X222733Y168099D02*
X228500D01*
X222733Y167199D02*
X228500D01*
X222733Y166299D02*
X228500D01*
X222733Y165399D02*
X228500D01*
X222733Y164499D02*
X228500D01*
X222733Y163599D02*
X228500D01*
X222500Y162699D02*
X228500D01*
X220674Y161799D02*
X228500D01*
X220685Y160899D02*
X228500D01*
X221585Y159999D02*
X228500D01*
X222485Y159099D02*
X228500D01*
X223385Y158199D02*
X228500D01*
X224146Y157299D02*
X228500D01*
X224328Y156399D02*
X228500D01*
X224328Y155499D02*
X228500D01*
X224328Y154599D02*
X228500D01*
X224328Y153699D02*
X228500D01*
X224328Y152799D02*
X228500D01*
X224328Y151899D02*
X228500D01*
X224328Y150999D02*
X228500D01*
X224328Y150099D02*
X228500D01*
X224328Y149199D02*
X228500D01*
X224328Y148299D02*
X228500D01*
X224328Y147399D02*
X228500D01*
X224328Y146499D02*
X228500D01*
X224328Y145599D02*
X228500D01*
X224328Y144699D02*
X228500D01*
X224328Y143799D02*
X228500D01*
X224328Y142899D02*
X228500D01*
X225773Y141999D02*
X228500D01*
X225993Y141099D02*
X228500D01*
X225993Y140199D02*
X228500D01*
X226046Y139299D02*
X228500D01*
X226946Y138399D02*
X228500D01*
X227654Y137499D02*
X228500D01*
X227793Y136599D02*
X228500D01*
X227793Y135699D02*
X228500D01*
X227793Y134799D02*
X228500D01*
X227793Y133899D02*
X228500D01*
X227793Y132999D02*
X228500D01*
X227793Y132099D02*
X228500D01*
X227793Y131199D02*
X228500D01*
X227793Y130299D02*
X228500D01*
X227793Y129399D02*
X228500D01*
X227793Y128499D02*
X228500D01*
X227793Y127599D02*
X228500D01*
X227793Y126699D02*
X228500D01*
X227793Y125799D02*
X228500D01*
X227793Y124899D02*
X228500D01*
X227793Y123999D02*
X228500D01*
X227793Y123099D02*
X228500D01*
X227793Y122199D02*
X228500D01*
X227793Y121299D02*
X228500D01*
X227793Y120399D02*
X228500D01*
X227793Y119499D02*
X228500D01*
X227793Y118599D02*
X228500D01*
X227793Y117699D02*
X228500D01*
X227793Y116799D02*
X228500D01*
X227792Y115899D02*
X228500D01*
X227512Y114999D02*
X228500D01*
X226672Y114099D02*
X228500D01*
X225772Y113199D02*
X228500D01*
X224616Y112299D02*
X228500D01*
X221897Y111399D02*
X228500D01*
X222430Y110499D02*
X228500D01*
X222686Y109599D02*
X228500D01*
X222721Y108699D02*
X228500D01*
X222541Y107799D02*
X228500D01*
X222111Y106899D02*
X228500D01*
X221300Y105999D02*
X228500D01*
X190544Y105099D02*
X228500D01*
X189644Y104199D02*
X228500D01*
X188487Y103299D02*
X228500D01*
X154500Y102399D02*
X228500D01*
X213426Y105999D02*
X216448D01*
X214023Y111399D02*
X215851D01*
X214237Y106899D02*
X215637D01*
X214556Y110499D02*
X215318D01*
X214667Y107799D02*
X215207D01*
X214812Y109599D02*
X215062D01*
X214847Y108699D02*
X215027D01*
X206908Y105999D02*
X208574D01*
X206985Y106899D02*
X207763D01*
X207170Y110499D02*
X207444D01*
X206985Y107799D02*
X207333D01*
X206985Y109599D02*
X207188D01*
X206985Y108699D02*
X207153D01*
X191444Y105999D02*
X199344D01*
X192344Y106899D02*
X199267D01*
X180300Y171699D02*
X193005D01*
X180300Y170799D02*
X191854D01*
X180296Y169899D02*
X190954D01*
X181656Y168999D02*
X190054D01*
X181733Y168099D02*
X189154D01*
X160689Y122199D02*
X175082D01*
X160086Y121299D02*
X173896D01*
X159064Y120399D02*
X172868D01*
X158500Y119499D02*
X172499D01*
X166495Y118599D02*
X167505D01*
X154500Y103299D02*
X166538D01*
X154500Y104199D02*
X165382D01*
X154500Y105099D02*
X164482D01*
X158500Y113199D02*
X161326D01*
X158500Y118599D02*
X161305D01*
X158500Y114099D02*
X160763D01*
X158500Y117699D02*
X160715D01*
X158500Y116799D02*
X160700D01*
X158500Y115899D02*
X160700D01*
X158500Y114999D02*
X160700D01*
X158500Y112299D02*
X159498D01*
X154500Y105999D02*
X159344D01*
X158500Y111399D02*
X159267D01*
X158500Y110499D02*
X159267D01*
X158500Y109599D02*
X159267D01*
X158500Y108699D02*
X159267D01*
X158500Y107799D02*
X159267D01*
X158500Y106899D02*
X159267D01*
X147509Y173499D02*
X156500D01*
X148987Y172599D02*
X156500D01*
X149452Y171699D02*
X156500D01*
X149542Y170799D02*
X156500D01*
X149300Y169899D02*
X156500D01*
X148800Y168999D02*
X156500D01*
X148800Y168099D02*
X156500D01*
X150096Y167199D02*
X156500D01*
X150300Y166299D02*
X156500D01*
X150300Y165399D02*
X156500D01*
X150300Y164499D02*
X156500D01*
X156495Y163599D02*
X156500D01*
X115532Y153699D02*
X156500D01*
X112673Y119499D02*
X156500D01*
X112849Y118599D02*
X156500D01*
X112810Y117699D02*
X156500D01*
X112549Y116799D02*
X156500D01*
X112009Y115899D02*
X156500D01*
X110974Y114999D02*
X156500D01*
X110230Y114099D02*
X156500D01*
X111700Y113199D02*
X156500D01*
X112382Y112299D02*
X156500D01*
X112738Y111399D02*
X156500D01*
X112859Y110499D02*
X156500D01*
X112766Y109599D02*
X156500D01*
X112443Y108699D02*
X156500D01*
X111813Y107799D02*
X156500D01*
X110531Y106899D02*
X156500D01*
X101500Y105999D02*
X156500D01*
X101500Y105099D02*
X156500D01*
X101500Y104199D02*
X156500D01*
X101500Y103299D02*
X156500D01*
X101500Y102399D02*
X156500D01*
X112248Y120399D02*
X152328D01*
X116414Y152799D02*
X152022D01*
X146271Y151899D02*
X151861D01*
X147411Y150999D02*
X151861D01*
X147473Y150099D02*
X151861D01*
X147473Y149199D02*
X151861D01*
X147448Y148299D02*
X151861D01*
X147473Y147399D02*
X151861D01*
X138900Y121299D02*
X151305D01*
X150300Y163599D02*
X151305D01*
X114632Y154599D02*
X151063D01*
X150237Y159099D02*
X150763D01*
X150285Y162699D02*
X150715D01*
X150300Y161799D02*
X150700D01*
X150300Y160899D02*
X150700D01*
X150300Y159999D02*
X150700D01*
X112825Y158199D02*
X150700D01*
X112840Y157299D02*
X150700D01*
X112832Y156399D02*
X150700D01*
X113732Y155499D02*
X150700D01*
X139421Y122199D02*
X150405D01*
X139548Y123099D02*
X149539D01*
X139346Y123999D02*
X149206D01*
X147468Y131199D02*
X149200D01*
X146989Y130299D02*
X149200D01*
X140485Y129399D02*
X149200D01*
X139585Y128499D02*
X149200D01*
X138685Y127599D02*
X149200D01*
X138300Y126699D02*
X149200D01*
X138358Y125799D02*
X149200D01*
X138702Y124899D02*
X149200D01*
X147473Y132099D02*
X148356D01*
X101500Y173499D02*
X146491D01*
X112515Y168999D02*
X145200D01*
X112859Y168099D02*
X145200D01*
X101500Y172599D02*
X145013D01*
X101500Y169899D02*
X144700D01*
X101500Y171699D02*
X144548D01*
X101500Y170799D02*
X144458D01*
X143896Y167199D02*
X144104D01*
X124224Y151899D02*
X139776D01*
X125285Y138399D02*
X138715D01*
X129452Y135699D02*
X138655D01*
X125364Y150999D02*
X138636D01*
X128580Y132999D02*
X138611D01*
X125401Y148299D02*
X138599D01*
X125415Y146499D02*
X138585D01*
X125421Y145599D02*
X138579D01*
X125426Y149199D02*
X138574D01*
X125426Y150099D02*
X138574D01*
X125426Y147399D02*
X138574D01*
X125426Y144699D02*
X138574D01*
X125426Y139299D02*
X138574D01*
X127509Y137499D02*
X138574D01*
X128987Y136599D02*
X138574D01*
X129542Y134799D02*
X138574D01*
X129300Y133899D02*
X138574D01*
X125426Y132099D02*
X138094D01*
X112591Y159099D02*
X137763D01*
X112056Y161799D02*
X137700D01*
X111137Y160899D02*
X137700D01*
X112089Y159999D02*
X137700D01*
X125421Y131199D02*
X137194D01*
X124942Y130299D02*
X136294D01*
X125426Y140199D02*
X135195D01*
X125389Y143799D02*
X135192D01*
X111447Y121299D02*
X135100D01*
X112177Y123999D02*
X134654D01*
X125346Y141099D02*
X134615D01*
X125426Y142899D02*
X134614D01*
X107662Y122199D02*
X134579D01*
X111311Y123099D02*
X134452D01*
X125426Y141999D02*
X134450D01*
X132824Y162699D02*
X133176D01*
X132896Y167199D02*
X133104D01*
X131739Y129399D02*
X132261D01*
X131953Y124899D02*
X132047D01*
X112824Y162699D02*
X126976D01*
X120243Y167199D02*
X126904D01*
X125426Y137499D02*
X126491D01*
X118667Y129399D02*
X126061D01*
X112637Y124899D02*
X125847D01*
X118500Y128499D02*
X125700D01*
X118130Y127599D02*
X125700D01*
X117098Y126699D02*
X125700D01*
X112839Y125799D02*
X125700D01*
X125389Y132999D02*
X125420D01*
X112859Y163599D02*
X118929D01*
X116787Y151899D02*
X117729D01*
X112825Y126699D02*
X114902D01*
X112955Y127599D02*
X113870D01*
X110218Y145599D02*
X110667D01*
X101500Y153699D02*
X110441D01*
X101500Y145599D02*
X107782D01*
X101500Y114099D02*
X107770D01*
X101500Y106899D02*
X107469D01*
X101500Y114999D02*
X107026D01*
X101500Y146499D02*
X107020D01*
X101500Y160899D02*
X106863D01*
X101500Y154599D02*
X106683D01*
X101500Y152799D02*
X106557D01*
X101500Y144699D02*
X106305D01*
X101500Y113199D02*
X106300D01*
X101500Y107799D02*
X106187D01*
X101500Y139299D02*
X106184D01*
X101500Y115899D02*
X105991D01*
X101500Y147399D02*
X105988D01*
X101500Y161799D02*
X105944D01*
X101500Y159999D02*
X105911D01*
X101500Y155499D02*
X105820D01*
X101500Y151899D02*
X105754D01*
X101500Y143799D02*
X105620D01*
X101500Y112299D02*
X105618D01*
X101500Y108699D02*
X105557D01*
X101500Y140199D02*
X105555D01*
X101500Y168999D02*
X105485D01*
X101500Y116799D02*
X105451D01*
X101500Y148299D02*
X105450D01*
X101500Y159099D02*
X105409D01*
X101500Y156399D02*
X105362D01*
X101500Y138399D02*
X105333D01*
X101500Y150999D02*
X105328D01*
X101500Y119499D02*
X105271D01*
X101500Y142899D02*
X105263D01*
X101500Y111399D02*
X105262D01*
X101500Y109599D02*
X105234D01*
X101500Y141099D02*
X105233D01*
X101500Y117699D02*
X105190D01*
X101500Y149199D02*
X105190D01*
X101500Y162699D02*
X105176D01*
X101500Y158199D02*
X105175D01*
X101500Y157299D02*
X105160D01*
X101500Y150099D02*
X105152D01*
X101500Y118599D02*
X105151D01*
X101500Y141999D02*
X105141D01*
X101500Y110499D02*
X105141D01*
X101500Y168099D02*
X105141D01*
X101500Y167199D02*
X105141D01*
X101500Y166299D02*
X105141D01*
X101500Y165399D02*
X105141D01*
X101500Y164499D02*
X105141D01*
X101500Y163599D02*
X105141D01*
X101500Y137499D02*
X104433D01*
X101500Y120399D02*
X104371D01*
X101500Y136599D02*
X103604D01*
X101500Y121299D02*
X103568D01*
X101500Y135699D02*
X103341D01*
X101500Y134799D02*
X103341D01*
X101500Y133899D02*
X103341D01*
X101500Y132999D02*
X103341D01*
X101500Y132099D02*
X103341D01*
X101500Y131199D02*
X103341D01*
X101500Y130299D02*
X103341D01*
X101500Y129399D02*
X103341D01*
X101500Y128499D02*
X103341D01*
X101500Y127599D02*
X103341D01*
X101500Y126699D02*
X103341D01*
X101500Y125799D02*
X103341D01*
X101500Y124899D02*
X103341D01*
X101500Y123999D02*
X103341D01*
X101500Y123099D02*
X103341D01*
X101500Y122199D02*
X103341D01*
X151081Y163419D02*
X152439Y162061D01*
X151081Y158581D02*
X152439Y159939D01*
X156719Y163419D02*
X155361Y162061D01*
X151081Y159419D02*
X152439Y158061D01*
X151081Y154581D02*
X152439Y155939D01*
X156719Y154581D02*
X155361Y155939D01*
X126081Y129419D02*
X127439Y128061D01*
X126081Y124581D02*
X127439Y125939D01*
X131719Y124581D02*
X130361Y125939D01*
X131719Y129419D02*
X130361Y128061D01*
X203281Y149419D02*
X204639Y148061D01*
X203281Y144581D02*
X204639Y145939D01*
X208919Y144581D02*
X207561Y145939D01*
X208919Y149419D02*
X207561Y148061D01*
X203281Y128419D02*
X204639Y127061D01*
X208919Y128419D02*
X207561Y127061D01*
X187581Y129719D02*
X188939Y128361D01*
X187581Y124081D02*
X188939Y125439D01*
X147092Y151522D02*
X145971Y150401D01*
X138955Y151522D02*
X140076Y150401D01*
X149919Y158581D02*
X148561Y159939D01*
X144281Y158581D02*
X145639Y159939D01*
G54D21*
X102850Y102850D03*
X112850D03*
X122850D03*
X132850D03*
X142850D03*
X160204D03*
X152850D03*
X190204D03*
X200204D03*
X210204D03*
X220204D03*
X102850Y112850D03*
X122850D03*
X132850D03*
X142850D03*
X152850D03*
X190204D03*
X226642Y112159D03*
X122850Y122850D03*
X137000Y123000D03*
X132850Y122850D03*
X142850D03*
X175000Y119000D03*
X223000Y117000D03*
X116000Y129000D03*
X127000Y135000D03*
X132850Y132850D03*
X174000Y135000D03*
X178000Y134000D03*
X194000Y136000D03*
X209000Y131000D03*
X211000Y128000D03*
X102850Y142850D03*
X137000Y142000D03*
X132850Y142850D03*
X180000Y137000D03*
Y141000D03*
X207000Y139000D03*
X102850Y152850D03*
X122850D03*
X132850D03*
X142850D03*
X150000Y150000D03*
X178000Y156000D03*
X182000D03*
X226642Y152159D03*
X102850Y162850D03*
X147000Y171000D03*
X218000Y157000D03*
X185000Y171500D03*
X190204Y162850D03*
X226642Y162159D03*
X224000Y171000D03*
G54D23*
X111729Y107712D02*
X110810Y108631D01*
X111729Y113170D02*
X110810Y112250D01*
X106271Y113170D02*
X107190Y112250D01*
X106271Y107712D02*
X107190Y108631D01*
X181603Y111729D02*
X180684Y110810D01*
X200397Y163271D02*
X201316Y164190D01*
X205855Y163271D02*
X204936Y164190D01*
X221603Y111729D02*
X220684Y110810D01*
X216145Y111729D02*
X217064Y110810D01*
X216145Y106271D02*
X217064Y107190D01*
X221603Y106271D02*
X220684Y107190D01*
G54D36*
X109000Y165559D03*
X203126Y109000D03*
X218874Y166000D03*
X163126Y109000D03*
X177874Y166000D03*
G54D37*
X109000Y157685D03*
Y149811D03*
Y141937D03*
Y134063D03*
Y126189D03*
Y118315D03*
Y110441D03*
X211000Y109000D03*
X218874D03*
X211000Y166000D03*
X203126D03*
X171000Y109000D03*
X178874D03*
X170000Y166000D03*
X162126D03*
G54D38*
X190000Y138900D03*
Y145100D03*
Y126900D03*
Y133100D03*
G54D39*
X182000Y126976D03*
X179441D03*
X176882D03*
X174323D03*
X171764D03*
X169205D03*
X166646D03*
X164087D03*
X161528D03*
X158969D03*
X156409D03*
X153850D03*
Y149024D03*
X156409D03*
X158969D03*
X161528D03*
X164087D03*
X166646D03*
X169205D03*
X171764D03*
X174323D03*
X176882D03*
X179441D03*
X182000D03*
G54D40*
X120976Y132000D03*
Y134559D03*
Y137118D03*
Y139677D03*
Y142236D03*
Y144795D03*
Y147354D03*
Y149913D03*
X143024D03*
Y147354D03*
Y144795D03*
Y142236D03*
Y139677D03*
Y137118D03*
Y134559D03*
Y132000D03*
G54D41*
X218000Y121504D03*
Y152496D03*
G54D42*
X213472Y134496D03*
X222528D03*
Y139504D03*
X213472D03*
G74*
X0Y0D02*
M02*
