%
T1C.015F095S3
X010285Y010285
X010285Y011285
X011285Y010285
X012285Y010285
X012285Y011285
X012285Y012285
X013285Y010285
X013285Y011285
X013285Y012285
X0137Y0123
X014285Y010285
X014285Y011285
X014285Y012285
X015285Y010285
X015285Y011285
X01602Y010285
X0175Y0119
X01902Y010285
X01902Y011285
X02002Y010285
X02102Y010285
X02202Y010285
X0223Y0117
X022664Y011216
X022664Y015216
X0211Y0128
X0209Y0131
X0207Y0139
X0194Y0136
X018Y0137
X018Y0141
X0178Y0134
X0174Y0135
X015Y015
X0137Y0142
X013285Y013285
X013285Y014285
X0127Y0135
X0116Y0129
X010285Y014285
X010285Y015285
X010285Y016285
X012285Y015285
X013285Y015285
X014285Y015285
X0147Y0171
X0178Y0156
X0182Y0156
X0185Y01715
X01902Y016285
X0218Y0157
X0224Y0171
X022664Y016216
T2C.0315F197S55
X0109Y012619
X0109Y011831
X0109Y011044
X016313Y0109
X0171Y0109
X017887Y0109
X020313Y0109
X0211Y0109
X021887Y0109
X021887Y0166
X0211Y0166
X020313Y0166
X017787Y0166
X017Y0166
X016213Y0166
X0109Y016556
X0109Y013406
X0109Y014981
X0109Y014194
X0109Y015769
T3C.125F035S794
X024Y01375
X0265Y01125
X0265Y01625
M30
