%
T1C.015F095S3
X010285Y010285
X010285Y011285
X011285Y010285
X012285Y010285
X012285Y011285
X012285Y012285
X013285Y010285
X013285Y011285
X013285Y012285
X0137Y0123
X014285Y011285
X014285Y010285
X014285Y012285
X015285Y010285
X01602Y010285
X01655Y01205
X0186Y01205
X01902Y011285
X0223Y0115
X02255Y0112
X0209Y0131
X0207Y0139
X0194Y0136
X0181Y0137
X0178Y01345
X0178Y01465
X016Y0142
X01535Y013
X0149Y01345
X0149Y0147
X0137Y0142
X013285Y013285
X013285Y014285
X0127Y0135
X0116Y0129
X010285Y014285
X010285Y015285
X010285Y016285
X012285Y015285
X013285Y015285
X014285Y015285
X0147Y0171
X0185Y01715
X0187Y0156
X01902Y016285
X02225Y016
X0224Y0171
T2C.0315F197S55
X0109Y012619
X0109Y011831
X0109Y011044
X016313Y0109
X0171Y0109
X017887Y0109
X020313Y0109
X0211Y0109
X021887Y0109
X021887Y0166
X0211Y0166
X020313Y0166
X017787Y0166
X017Y0166
X016213Y0166
X0109Y016556
X0109Y013406
X0109Y014981
X0109Y014194
X0109Y015769
T3C.125F035S794
X024Y01375
X0265Y01125
X0265Y01625
M30
