*
*
G04 PADS 9.3.1 Build Number: 456998 generated Gerber (RS-274-X) file*
G04 PC Version=2.1*
*
%IN "strain_gauge_digitizer_"*%
*
%MOIN*%
*
%FSLAX35Y35*%
*
*
*
*
G04 PC Standard Apertures*
*
*
G04 Thermal Relief Aperture macro.*
%AMTER*
1,1,$1,0,0*
1,0,$1-$2,0,0*
21,0,$3,$4,0,0,45*
21,0,$3,$4,0,0,135*
%
*
*
G04 Annular Aperture macro.*
%AMANN*
1,1,$1,0,0*
1,0,$2,0,0*
%
*
*
G04 Odd Aperture macro.*
%AMODD*
1,1,$1,0,0*
1,0,$1-0.005,0,0*
%
*
*
G04 PC Custom Aperture Macros*
*
*
*
*
*
*
G04 PC Aperture Table*
*
%ADD010C,0.001*%
%ADD022C,0.005*%
%ADD033C,0.00787*%
%ADD047C,0.003*%
*
*
*
*
G04 PC Circuitry*
G04 Layer Name strain_gauge_digitizer_ - circuitry*
%LPD*%
*
*
G04 PC Custom Flashes*
G04 Layer Name strain_gauge_digitizer_ - flashes*
%LPD*%
*
*
G04 PC Circuitry*
G04 Layer Name strain_gauge_digitizer_ - circuitry*
%LPD*%
*
G54D10*
G54D22*
G01X160000Y126281D02*
Y123938D01*
X160000D02*
X160114Y123469D01*
X160341Y123156*
X160682Y123000*
X160909*
X161250Y123156*
X161477Y123469*
X161591Y123938*
X161591D02*
Y126281D01*
X162614Y125656D02*
X162841Y125813D01*
X162841D02*
X163182Y126281D01*
Y123000*
X223000Y151281D02*
Y148938D01*
X223000D02*
X223114Y148469D01*
X223341Y148156*
X223682Y148000*
X223909*
X224250Y148156*
X224477Y148469*
X224591Y148938*
X224591D02*
Y151281D01*
X225727Y150500D02*
Y150656D01*
X225841Y150969*
X225955Y151125*
X226182Y151281*
X226636*
X226864Y151125*
X226977Y150969*
X227091Y150656*
Y150344*
X226977Y150031*
X226750Y149563*
X226750D02*
X225614Y148000D01*
X227205*
X166000Y126281D02*
Y123000D01*
Y126281D02*
X167023D01*
X167364Y126125*
X167477Y125969*
X167591Y125656*
Y125344*
X167477Y125031*
X167364Y124875*
X167023Y124719*
X166000*
X166795D02*
X167591Y123000D01*
X168727Y125500D02*
Y125656D01*
X168841Y125969*
X168955Y126125*
X169182Y126281*
X169636*
X169864Y126125*
X169977Y125969*
X170091Y125656*
Y125344*
X169977Y125031*
X169750Y124563*
X169750D02*
X168614Y123000D01*
X170205*
X218000Y152281D02*
Y149000D01*
Y152281D02*
X219023D01*
X219364Y152125*
X219477Y151969*
X219591Y151656*
Y151344*
X219477Y151031*
X219364Y150875*
X219023Y150719*
X218000*
X218795D02*
X219591Y149000D01*
X220614Y151656D02*
X220841Y151813D01*
X221182Y152281*
Y149000*
X149500Y144705D02*
X149187Y144591D01*
X149187D02*
X148875Y144364D01*
X148719Y144136*
Y143682*
X148875Y143455*
X149187Y143227*
X149187D02*
X149500Y143114D01*
X149969Y143000*
X150750*
X151219Y143114*
X151531Y143227*
X151844Y143455*
X152000Y143682*
Y144136*
X151844Y144364*
X151531Y144591*
X151219Y144705*
X148719Y146864D02*
X150906Y145727D01*
Y147432*
X148719Y146864D02*
X152000D01*
X185705Y151500D02*
X185591Y151813D01*
X185591D02*
X185364Y152125D01*
X185136Y152281*
X184682*
X184455Y152125*
X184227Y151813*
X184227D02*
X184114Y151500D01*
X184000Y151031*
Y150250*
X184114Y149781*
X184227Y149469*
X184455Y149156*
X184682Y149000*
X185136*
X185364Y149156*
X185591Y149469*
X185705Y149781*
X188205Y152281D02*
X187068D01*
X186955Y150875*
X187068Y151031*
X187409Y151188*
X187409D02*
X187750D01*
X187750D02*
X188091Y151031D01*
X188318Y150719*
X188432Y150250*
X188318Y149938*
X188318D02*
X188205Y149469D01*
X187977Y149156*
X187636Y149000*
X187295*
X186955Y149156*
X186841Y149313*
X186841D02*
X186727Y149625D01*
X218705Y125500D02*
X218591Y125813D01*
X218364Y126125*
X218136Y126281*
X217682*
X217455Y126125*
X217227Y125813*
X217114Y125500*
X217000Y125031*
Y124250*
X217114Y123781*
X217227Y123469*
X217455Y123156*
X217682Y123000*
X218136*
X218364Y123156*
X218591Y123469*
X218705Y123781*
X221091Y125813D02*
X220977Y126125D01*
X220636Y126281*
X220409*
X220068Y126125*
X219841Y125656*
X219727Y124875*
Y124094*
X219841Y123469*
X220068Y123156*
X220409Y123000*
X220523*
X220864Y123156*
X221091Y123469*
X221205Y123938*
Y124094*
X221091Y124563*
X220864Y124875*
X220523Y125031*
X220409*
X220068Y124875*
X219841Y124563*
X219727Y124094*
G54D33*
X181724Y127157D02*
X172276D01*
Y146843*
X181724*
Y127157*
X206276Y146843D02*
X215724D01*
Y127157*
X206276*
Y146843*
X121795Y174220D02*
Y101780D01*
X100142*
Y108079*
X104079*
Y167921*
X100142*
Y174220*
X121795*
G54D47*
X126020Y172134D02*
X124595D01*
X124328Y172206*
X124239Y172277*
X124150Y172421*
Y172564*
X124239Y172707*
X124328Y172778*
X124595Y172850*
X124773*
X125664Y171490D02*
X125753Y171347D01*
X126020Y171132*
X124150*
X191980Y112150D02*
X193850D01*
X191980D02*
Y112794D01*
X192069Y113009*
X192158Y113081*
X192336Y113152*
X192514*
X192692Y113081*
X192781Y113009*
X192870Y112794*
Y112150D02*
Y112794D01*
X192959Y113009*
X192959D02*
X193049Y113081D01*
X193227Y113152*
X193494*
X193672Y113081*
X193761Y113009*
X193850Y112794*
Y112150*
X191980Y113796D02*
X193850D01*
X191980D02*
Y114441D01*
X192069Y114655*
X192158Y114727*
X192336Y114799*
X192514*
X192692Y114727*
X192781Y114655*
X192870Y114441*
Y113796*
Y114297D02*
X193850Y114799D01*
X191980Y115443D02*
X193850D01*
X191980Y116087D02*
X193850D01*
X191980D02*
Y116588D01*
X192069Y116803*
X192247Y116946*
X192425Y117018*
X192692Y117089*
X193138*
X193405Y117018*
X193583Y116946*
X193761Y116803*
X193850Y116588*
Y116087*
X192425Y118807D02*
X192247Y118736D01*
X192069Y118592*
X191980Y118449*
Y118163*
X192069Y118020*
X192247Y117877*
X192425Y117805*
X192692Y117733*
X193138*
X193405Y117805*
X193583Y117877*
X193761Y118020*
X193850Y118163*
Y118449*
X193761Y118592*
X193583Y118736*
X193405Y118807*
X193138*
Y118449D02*
Y118807D01*
X191980Y119451D02*
X193850D01*
X191980D02*
Y120382D01*
X192870Y119451D02*
Y120024D01*
X193850Y119451D02*
Y120382D01*
X192336Y121026D02*
X192247Y121169D01*
X191980Y121384*
X193850*
X194020Y162850D02*
X192150D01*
X194020D02*
Y162206D01*
X193931Y161991*
X193842Y161919*
X193664Y161848*
X193486*
X193308Y161919*
X193219Y161991*
X193130Y162206*
Y162850D02*
Y162206D01*
X193041Y161991*
X193041D02*
X192951Y161919D01*
X192773Y161848*
X192506*
X192328Y161919*
X192239Y161991*
X192150Y162206*
Y162850*
X194020Y161204D02*
X192150D01*
X194020D02*
Y160559D01*
X193931Y160345*
X193842Y160273*
X193664Y160201*
X193486*
X193308Y160273*
X193219Y160345*
X193130Y160559*
Y161204*
Y160703D02*
X192150Y160201D01*
X194020Y159557D02*
X192150D01*
X194020Y158913D02*
X192150D01*
X194020D02*
Y158412D01*
X193931Y158197*
X193753Y158054*
X193575Y157982*
X193308Y157911*
X192862*
X192595Y157982*
X192417Y158054*
X192239Y158197*
X192150Y158412*
Y158913*
X193575Y156193D02*
X193753Y156264D01*
X193931Y156408*
X194020Y156551*
Y156837*
X193931Y156980*
X193753Y157123*
X193575Y157195*
X193308Y157267*
X192862*
X192595Y157195*
X192417Y157123*
X192239Y156980*
X192150Y156837*
Y156551*
X192239Y156408*
X192417Y156264*
X192595Y156193*
X192862*
Y156551D02*
Y156193D01*
X194020Y155549D02*
X192150D01*
X194020D02*
Y154618D01*
X193130Y155549D02*
Y154976D01*
X192150Y155549D02*
Y154618D01*
X193575Y153902D02*
X193664D01*
X193842Y153831*
X193931Y153759*
X194020Y153616*
Y153330*
X193931Y153186*
X193842Y153115*
X193664Y153043*
X193486*
X193308Y153115*
X193041Y153258*
X193041D02*
X192150Y153974D01*
Y152972*
X151980Y116723D02*
X153850Y116150D01*
X151980Y116723D02*
X153850Y117295D01*
X153227Y116365D02*
Y117081D01*
X151980Y117940D02*
X153316D01*
X153583Y118011*
X153761Y118154*
X153850Y118369*
Y118512*
X153761Y118727*
X153583Y118870*
X153316Y118942*
X151980*
Y119586D02*
X153850Y120588D01*
X151980D02*
X153850Y119586D01*
X152336Y121232D02*
X152247Y121375D01*
X151980Y121590*
X153850*
X153020Y159277D02*
X151150Y159850D01*
X153020Y159277D02*
X151150Y158705D01*
X151773Y159635D02*
Y158919D01*
X153020Y158060D02*
X151684D01*
X151417Y157989*
X151239Y157846*
X151150Y157631*
Y157488*
X151239Y157273*
X151417Y157130*
X151684Y157058*
X153020*
Y156414D02*
X151150Y155412D01*
X153020D02*
X151150Y156414D01*
X152575Y154696D02*
X152664D01*
X152842Y154625*
X152931Y154553*
X153020Y154410*
Y154123*
X152931Y153980*
X152842Y153909*
X152664Y153837*
X152486*
X152308Y153909*
X152041Y154052*
X152041D02*
X151150Y154768D01*
Y153766*
X0Y0D02*
M02*
