*
*
G04 PADS 9.3.1 Build Number: 456998 generated Gerber (RS-274-X) file*
G04 PC Version=2.1*
*
%IN "strain_gauge_digitizer_"*%
*
%MOIN*%
*
%FSLAX35Y35*%
*
*
*
*
G04 PC Standard Apertures*
*
*
G04 Thermal Relief Aperture macro.*
%AMTER*
1,1,$1,0,0*
1,0,$1-$2,0,0*
21,0,$3,$4,0,0,45*
21,0,$3,$4,0,0,135*
%
*
*
G04 Annular Aperture macro.*
%AMANN*
1,1,$1,0,0*
1,0,$2,0,0*
%
*
*
G04 Odd Aperture macro.*
%AMODD*
1,1,$1,0,0*
1,0,$1-0.005,0,0*
%
*
*
G04 PC Custom Aperture Macros*
*
*
*
*
*
*
G04 PC Aperture Table*
*
%ADD010C,0.001*%
%ADD019C,0.01*%
%ADD022C,0.005*%
*
*
*
*
G04 PC Circuitry*
G04 Layer Name strain_gauge_digitizer_ - circuitry*
%LPD*%
*
*
G04 PC Custom Flashes*
G04 Layer Name strain_gauge_digitizer_ - flashes*
%LPD*%
*
*
G04 PC Circuitry*
G04 Layer Name strain_gauge_digitizer_ - circuitry*
%LPD*%
*
G54D10*
G54D19*
G01X183181Y131307D02*
Y144693D01*
X152472*
Y131307*
X183181*
X185150Y126976D02*
G75*
G03X185150I-394J0D01*
G01X125307Y130819D02*
X138693D01*
Y150898*
X125307*
Y130819*
X121370Y129244D02*
G03X121370I-394J0D01*
G01X214063Y121307D02*
X210913D01*
Y131543*
X221937Y121307D02*
X225087D01*
Y131543*
X221937Y152693D02*
X225087D01*
Y142457*
X214063Y152693D02*
X210913D01*
Y142457*
G54D22*
X187281Y120670D02*
X184937D01*
X184937D02*
X184469Y120784D01*
X184156Y121011*
X184000Y121352*
Y121580*
X184156Y121920*
X184469Y122148*
X184937Y122261*
X184937D02*
X187281D01*
Y123511D02*
Y124761D01*
X186031Y124080*
Y124420*
X185875Y124648*
X185719Y124761*
X185250Y124875*
X184937*
X184937D02*
X184469Y124761D01*
X184156Y124534*
X184000Y124193*
Y123852*
X184156Y123511*
X184312Y123398*
X184312D02*
X184625Y123284D01*
X118614Y123719D02*
Y126063D01*
X118614D02*
X118727Y126531D01*
X118955Y126844*
X119295Y127000*
X119523*
X119864Y126844*
X120091Y126531*
X120205Y126063*
X120205D02*
Y123719D01*
X122364D02*
X121227Y125906D01*
X122932*
X122364Y123719D02*
Y127000D01*
X197000Y123281D02*
Y120000D01*
Y123281D02*
X195977D01*
X195636Y123125*
X195523Y122969*
X195409Y122656*
Y122344*
X195523Y122031*
X195636Y121875*
X195977Y121719*
X197000*
X196205D02*
X195409Y120000D01*
X194159Y123281D02*
X192909D01*
X193591Y122031*
X193250*
X193023Y121875*
X192909Y121719*
X192795Y121250*
Y120938*
X192909Y120469*
X193136Y120156*
X193477Y120000*
X193818*
X194159Y120156*
X194273Y120313*
X194386Y120625*
X197000Y128281D02*
Y125000D01*
Y128281D02*
X195977D01*
X195636Y128125*
X195523Y127969*
X195409Y127656*
Y127344*
X195523Y127031*
X195636Y126875*
X195977Y126719*
X197000*
X196205D02*
X195409Y125000D01*
X193250Y128281D02*
X194386Y126094D01*
X192682*
X193250Y128281D02*
Y125000D01*
X197000Y154281D02*
Y151000D01*
Y154281D02*
X195977D01*
X195636Y154125*
X195523Y153969*
X195409Y153656*
Y153344*
X195523Y153031*
X195636Y152875*
X195977Y152719*
X197000*
X196205D02*
X195409Y151000D01*
X192909Y154281D02*
X194045D01*
X194159Y152875*
X194045Y153031*
X193705Y153188*
X193364*
X193023Y153031*
X192795Y152719*
X192682Y152250*
X192795Y151938*
X192909Y151469*
X193136Y151156*
X193477Y151000*
X193818*
X194159Y151156*
X194273Y151313*
X194386Y151625*
X197000Y149281D02*
Y146000D01*
Y149281D02*
X195977D01*
X195636Y149125*
X195523Y148969*
X195409Y148656*
Y148344*
X195523Y148031*
X195636Y147875*
X195977Y147719*
X197000*
X196205D02*
X195409Y146000D01*
X193023Y148813D02*
X193136Y149125D01*
X193477Y149281*
X193705*
X194045Y149125*
X194273Y148656*
X194386Y147875*
Y147094*
X194273Y146469*
X194045Y146156*
X193705Y146000*
X193591*
X193250Y146156*
X193023Y146469*
X192909Y146938*
X192909D02*
Y147094D01*
X193023Y147563*
X193023D02*
X193250Y147875D01*
X193591Y148031*
X193705*
X194045Y147875*
X194273Y147563*
X194273D02*
X194386Y147094D01*
X178295Y156500D02*
X178409Y156813D01*
X178409D02*
X178636Y157125D01*
X178864Y157281*
X179318*
X179545Y157125*
X179773Y156813*
X179773D02*
X179886Y156500D01*
X180000Y156031*
Y155250*
X179886Y154781*
X179773Y154469*
X179545Y154156*
X179318Y154000*
X178864*
X178636Y154156*
X178409Y154469*
X178295Y154781*
X177273Y156656D02*
X177045Y156813D01*
X177045D02*
X176705Y157281D01*
Y154000*
X149295Y157500D02*
X149409Y157813D01*
X149409D02*
X149636Y158125D01*
X149864Y158281*
X150318*
X150545Y158125*
X150773Y157813*
X150773D02*
X150886Y157500D01*
X151000Y157031*
Y156250*
X150886Y155781*
X150773Y155469*
X150545Y155156*
X150318Y155000*
X149864*
X149636Y155156*
X149409Y155469*
X149295Y155781*
X148159Y157500D02*
Y157656D01*
X148045Y157969*
X147932Y158125*
X147705Y158281*
X147250*
X147023Y158125*
X146909Y157969*
X146795Y157656*
Y157344*
X146909Y157031*
X147136Y156563*
X147136D02*
X148273Y155000D01*
X146682*
X223000Y115719D02*
Y118062D01*
X223000D02*
X223114Y118531D01*
X223341Y118844*
X223682Y119000*
X223909*
X224250Y118844*
X224477Y118531*
X224591Y118062*
X224591D02*
Y115719D01*
X227091D02*
X225955D01*
X225841Y117125*
X225955Y116969*
X226295Y116812*
X226295D02*
X226636D01*
X226636D02*
X226977Y116969D01*
X227205Y117281*
X227318Y117750*
X227205Y118062*
X227205D02*
X227091Y118531D01*
X226864Y118844*
X226523Y119000*
X226182*
X225841Y118844*
X225727Y118687*
X225727D02*
X225614Y118375D01*
X226000Y158281D02*
Y155938D01*
X226000D02*
X225886Y155469D01*
X225659Y155156*
X225318Y155000*
X225091*
X224750Y155156*
X224523Y155469*
X224409Y155938*
X224409D02*
Y158281D01*
X222023Y157813D02*
X222136Y158125D01*
X222477Y158281*
X222705*
X223045Y158125*
X223273Y157656*
X223386Y156875*
Y156094*
X223273Y155469*
X223045Y155156*
X222705Y155000*
X222591*
X222250Y155156*
X222023Y155469*
X221909Y155938*
X221909D02*
Y156094D01*
X222023Y156563*
X222023D02*
X222250Y156875D01*
X222591Y157031*
X222705*
X223045Y156875*
X223273Y156563*
X223273D02*
X223386Y156094D01*
X191281Y148000D02*
X188000D01*
X191281D02*
Y149023D01*
X191125Y149364*
X190969Y149477*
X190656Y149591*
X190344*
X190031Y149477*
X189875Y149364*
X189719Y149023*
Y148000*
Y148795D02*
X188000Y149591D01*
X191281Y152205D02*
X188000Y151068D01*
X191281Y150614D02*
Y152205D01*
Y120000D02*
X188000D01*
X191281D02*
Y121023D01*
X191125Y121364*
X190969Y121477*
X190656Y121591*
X190344*
X190031Y121477*
X189875Y121364*
X189719Y121023*
Y120000*
Y120795D02*
X188000Y121591D01*
X191281Y123182D02*
X191125Y122841D01*
X190813Y122727*
X190813D02*
X190500D01*
X190188Y122841*
X190188D02*
X190031Y123068D01*
X189875Y123523*
X189719Y123864*
X189406Y124091*
X189094Y124205*
X188625*
X188313Y124091*
X188313D02*
X188156Y123977D01*
X188000Y123636*
Y123182*
X188156Y122841*
X188313Y122727*
X188313D02*
X188625Y122614D01*
X189094*
X189406Y122727*
X189719Y122955*
X189875Y123295*
X190031Y123750*
X190188Y123977*
X190188D02*
X190500Y124091D01*
X190813*
X190813D02*
X191125Y123977D01*
X191281Y123636*
Y123182*
X139705Y126500D02*
X139591Y126187D01*
X139591D02*
X139364Y125875D01*
X139136Y125719*
X138682*
X138455Y125875*
X138227Y126187*
X138227D02*
X138114Y126500D01*
X138000Y126969*
Y127750*
X138114Y128219*
X138227Y128531*
X138455Y128844*
X138682Y129000*
X139136*
X139364Y128844*
X139591Y128531*
X139705Y128219*
X140955Y125719D02*
X142205D01*
X141523Y126969*
X141864*
X142091Y127125*
X142205Y127281*
X142318Y127750*
Y128062*
X142318D02*
X142205Y128531D01*
X141977Y128844*
X141636Y129000*
X141295*
X140955Y128844*
X140841Y128687*
X140841D02*
X140727Y128375D01*
X165295Y161500D02*
X165409Y161813D01*
X165409D02*
X165636Y162125D01*
X165864Y162281*
X166318*
X166545Y162125*
X166773Y161813*
X166773D02*
X166886Y161500D01*
X167000Y161031*
Y160250*
X166886Y159781*
X166773Y159469*
X166545Y159156*
X166318Y159000*
X165864*
X165636Y159156*
X165409Y159469*
X165295Y159781*
X162682Y162281D02*
X163818Y159000D01*
X164273Y162281D02*
X162682D01*
X154000Y167281D02*
Y164000D01*
Y167281D02*
X152977D01*
X152636Y167125*
X152523Y166969*
X152409Y166656*
Y166344*
X152523Y166031*
X152636Y165875*
X152977Y165719*
X154000*
X153205D02*
X152409Y164000D01*
X149909Y166188D02*
X150023Y165719D01*
X150250Y165406*
X150591Y165250*
X150705*
X151045Y165406*
X151273Y165719*
X151386Y166188*
X151386D02*
Y166344D01*
X151273Y166813*
X151273D02*
X151045Y167125D01*
X150705Y167281*
X150591*
X150250Y167125*
X150023Y166813*
X150023D02*
X149909Y166188D01*
X149909D02*
Y165406D01*
X150023Y164625*
X150250Y164156*
X150591Y164000*
X150818*
X151159Y164156*
X151273Y164469*
X136295Y161500D02*
X136409Y161813D01*
X136636Y162125*
X136864Y162281*
X137318*
X137545Y162125*
X137773Y161813*
X137886Y161500*
X138000Y161031*
Y160250*
X137886Y159781*
X137773Y159469*
X137545Y159156*
X137318Y159000*
X136864*
X136636Y159156*
X136409Y159469*
X136295Y159781*
X134705Y162281D02*
X135045Y162125D01*
X135159Y161813*
Y161500*
X135045Y161188*
X134818Y161031*
X134364Y160875*
X134023Y160719*
X133795Y160406*
X133682Y160094*
Y159625*
X133795Y159313*
X133909Y159156*
X134250Y159000*
X134705*
X135045Y159156*
X135159Y159313*
X135273Y159625*
Y160094*
X135159Y160406*
X134932Y160719*
X134591Y160875*
X134136Y161031*
X133909Y161188*
X133795Y161500*
Y161813*
X133909Y162125*
X134250Y162281*
X134705*
X127000Y167281D02*
Y164000D01*
Y167281D02*
X125523D01*
X127000Y165719D02*
X126091D01*
X124500Y167281D02*
Y164000D01*
Y167281D02*
X123477D01*
X123136Y167125*
X123023Y166969*
X122909Y166656*
Y166344*
X123023Y166031*
X123136Y165875*
X123477Y165719*
X124500D02*
X123477D01*
X123136Y165563*
X123023Y165406*
X122909Y165094*
Y164625*
X123023Y164313*
X123136Y164156*
X123477Y164000*
X124500*
X121886Y166656D02*
X121659Y166813D01*
X121318Y167281*
Y164000*
X179000Y117781D02*
Y114500D01*
Y117781D02*
X177977D01*
X177636Y117625*
X177523Y117469*
X177409Y117156*
Y116844*
X177523Y116531*
X177636Y116375*
X177977Y116219*
X179000*
X178205D02*
X177409Y114500D01*
X176386Y117156D02*
X176159Y117313D01*
X176159D02*
X175818Y117781D01*
Y114500*
X174114Y117781D02*
X174455Y117625D01*
X174682Y117156*
X174795Y116375*
Y115906*
X174682Y115125*
X174455Y114656*
X174114Y114500*
X173886*
X173545Y114656*
X173318Y115125*
X173205Y115906*
Y116375*
X173318Y117156*
X173545Y117625*
X173886Y117781*
X174114*
X167000Y172781D02*
Y169500D01*
Y172781D02*
X165977D01*
X165636Y172625*
X165523Y172469*
X165409Y172156*
Y171844*
X165523Y171531*
X165636Y171375*
X165977Y171219*
X167000*
X166205D02*
X165409Y169500D01*
X164386Y172156D02*
X164159Y172313D01*
X163818Y172781*
Y169500*
X162795Y172156D02*
X162568Y172313D01*
X162227Y172781*
Y169500*
G74*
X0Y0D02*
M02*
