*
*
G04 PADS 9.3.1 Build Number: 456998 generated Gerber (RS-274-X) file*
G04 PC Version=2.1*
*
%IN "strain_gauge_digitizer_"*%
*
%MOIN*%
*
%FSLAX35Y35*%
*
*
*
*
G04 PC Standard Apertures*
*
*
G04 Thermal Relief Aperture macro.*
%AMTER*
1,1,$1,0,0*
1,0,$1-$2,0,0*
21,0,$3,$4,0,0,45*
21,0,$3,$4,0,0,135*
%
*
*
G04 Annular Aperture macro.*
%AMANN*
1,1,$1,0,0*
1,0,$2,0,0*
%
*
*
G04 Odd Aperture macro.*
%AMODD*
1,1,$1,0,0*
1,0,$1-0.005,0,0*
%
*
*
G04 PC Custom Aperture Macros*
*
*
*
*
*
*
G04 PC Aperture Table*
*
%ADD010C,0.001*%
%ADD018R,0.038X0.03*%
%ADD019C,0.01*%
%ADD021C,0.025*%
%ADD023C,0.015*%
%ADD035R,0.08661X0.02362*%
%ADD036R,0.05118X0.05118*%
%ADD037C,0.05118*%
*
*
*
*
G04 PC Circuitry*
G04 Layer Name strain_gauge_digitizer_ - circuitry*
%LPD*%
*
*
G04 PC Custom Flashes*
G04 Layer Name strain_gauge_digitizer_ - flashes*
%LPD*%
*
*
G04 PC Circuitry*
G04 Layer Name strain_gauge_digitizer_ - circuitry*
%LPD*%
*
G54D10*
G54D18*
G01X173900Y124000D03*
X180100D03*
X214100Y151000D03*
X207900D03*
X173900D03*
X180100D03*
X214100Y124000D03*
X207900D03*
G54D19*
X225500Y112000D02*
X226867Y113367D01*
X137000Y123000D02*
Y142000D01*
X165500Y120500D02*
X186000D01*
X180100Y124000D02*
X184017D01*
X187236Y127219*
Y129500*
X207900Y124000D02*
X208300D01*
X214100D02*
Y130000D01*
X109000Y134063D02*
X112063Y131000D01*
X114000*
X116000Y129000*
X149000Y134500D02*
Y147000D01*
X153500Y130000D02*
X158101Y134601D01*
X158716*
X163614Y139500*
X166764*
Y129500D02*
Y127219D01*
X169983Y124000*
X173900*
X166764Y134570D02*
Y134500D01*
X178000*
X187236D02*
X188627D01*
X194000Y136000*
X195133Y127367D02*
Y132019D01*
X197614Y134500*
X200764*
X195133Y127367D02*
X201000Y121500D01*
X203500*
X211000Y114000*
Y109000*
X209000Y131000D02*
X212022D01*
X213022Y130000*
X214100*
Y135513*
X218087Y139500*
X221236*
Y134500D02*
X224386D01*
X226867Y132019*
Y113367*
X221236Y129500D02*
Y124166D01*
X223000Y122403*
Y115000*
X109000Y141937D02*
X120063D01*
X127000Y135000*
X160000Y142000D02*
Y156000D01*
X170000Y166000*
X166764Y144500D02*
Y144662D01*
X173338*
X181000Y137000*
X187236Y139500D02*
X190386D01*
X195000Y144114*
Y150000*
X200000Y155000*
X207000*
X211000Y159000*
Y166000*
X200764Y139500D02*
Y139430D01*
X207000*
Y139000*
X200764Y144500D02*
Y147764D01*
X204000Y151000*
X207900*
X180100D02*
X181375D01*
X173900D02*
Y162026D01*
X177874Y166000*
X174300Y151000D02*
X173900D01*
X174529*
X178000Y146500*
X214100Y151000D02*
X218000D01*
X221000Y148000*
Y144500*
X221236*
X109000Y165559D02*
X131441D01*
X137000Y160000*
Y142000*
X147000Y171000D02*
X172874D01*
X177874Y166000*
X222733Y109000D02*
G75*
G03X222733I-3859J0D01*
G01X182733D02*
G03X182733I-3859J0D01*
G01X174859D02*
G03X174859I-3859J0D01*
G01X206985Y166000D02*
G03X206985I-3859J0D01*
G01X112859Y110441D02*
G03X112859I-3859J0D01*
G01Y118315D02*
G03X112859I-3859J0D01*
G01Y126189D02*
G03X112859I-3859J0D01*
G01Y149811D02*
G03X112859I-3859J0D01*
G01Y157685D02*
G03X112859I-3859J0D01*
G01X228500Y101500D02*
Y112610D01*
X228140Y112094D02*
G03X228500Y112610I-1273J1273D01*
G01X228140Y112094D02*
X228050Y112004D01*
Y112000*
X222990Y112450D02*
G03X228050Y112000I2510J-450D01*
G01X221200Y116806D02*
G03X222990Y112450I1800J-1806D01*
G01X221200Y116806D02*
Y121657D01*
X219963Y122894*
X219436Y124166D02*
G03X219963Y122894I1800J0D01*
G01X219436Y124166D02*
Y127019D01*
X216906*
X215900Y127495D02*
G03X216906Y127019I1006J824D01*
G01X215900Y127495D02*
Y126800D01*
X216000*
X217300Y125500D02*
G03X216000Y126800I-1300J0D01*
G01X217300Y125500D02*
Y122500D01*
X216000Y121200D02*
G03X217300Y122500I0J1300D01*
G01X216000Y121200D02*
X212200D01*
X211000Y122000D02*
G03X212200Y121200I1200J500D01*
G01X209800D02*
G03X211000Y122000I0J1300D01*
G01X209800Y121200D02*
X206346D01*
X212273Y115273*
X212800Y114000D02*
G03X212273Y115273I-1800J0D01*
G01X212800Y114000D02*
Y112414D01*
X209200D02*
G03X212800I1800J-3414D01*
G01X209200D02*
Y113254D01*
X202754Y119700*
X201000*
X199727Y120227D02*
G03X201000Y119700I1273J1273D01*
G01X199727Y120227D02*
X193860Y126094D01*
X193333Y127367D02*
G03X193860Y126094I1800J-0D01*
G01X193333Y127367D02*
Y132019D01*
X193860Y133292D02*
G03X193333Y132019I1273J-1273D01*
G01X193860Y133292D02*
X194019Y133450D01*
X192867Y133716D02*
G03X194019Y133450I1133J2284D01*
G01X192867Y133716D02*
Y133319D01*
X191567Y132019D02*
G03X192867Y133319I-0J1300D01*
G01X191567Y132019D02*
X182906D01*
X181605Y133319D02*
G03X182906Y132019I1301J-0D01*
G01X181605Y133319D02*
Y134523D01*
X180550Y134490D02*
G03X181605Y134523I450J2510D01*
G01X176194Y132700D02*
G03X180550Y134490I1806J1800D01*
G01X176194Y132700D02*
X172238D01*
X171094Y132019D02*
G03X172238Y132700I0J1300D01*
G01X171094Y132019D02*
X162433D01*
X161133Y133319D02*
G03X162433Y132019I1300J-0D01*
G01X161133Y133319D02*
Y134473D01*
X159988Y133329*
X158852Y132807D02*
G03X159988Y133329I-136J1794D01*
G01X158852Y132807D02*
X156050Y130004D01*
Y130000*
X152000Y127938D02*
G03X156050Y130000I1500J2062D01*
G01X152000Y127938D02*
Y106500D01*
X148500*
Y101500*
X228500*
Y132776D02*
Y173700D01*
X152000*
Y172800*
X172874*
X174147Y172273D02*
G03X172874Y172800I-1273J-1273D01*
G01X174147Y172273D02*
X176561Y169859D01*
X180433*
X181733Y168559D02*
G03X180433Y169859I-1300J0D01*
G01X181733Y168559D02*
Y163441D01*
X180433Y162141D02*
G03X181733Y163441I0J1300D01*
G01X180433Y162141D02*
X176561D01*
X175700Y161280*
Y153800*
X175800*
X177000Y153000D02*
G03X175800Y153800I-1200J-500D01*
G01X178200D02*
G03X177000Y153000I0J-1300D01*
G01X178200Y153800D02*
X182000D01*
X183300Y152500D02*
G03X182000Y153800I-1300J0D01*
G01X183300Y152500D02*
Y149500D01*
X182000Y148200D02*
G03X183300Y149500I0J1300D01*
G01X182000Y148200D02*
X179901D01*
X175472Y146831D02*
G03X179901Y148200I2528J-331D01*
G01X175472Y146831D02*
X174415Y148200D01*
X172000*
X170700Y149500D02*
G03X172000Y148200I1300J0D01*
G01X170700Y149500D02*
Y152500D01*
X172000Y153800D02*
G03X170700Y152500I0J-1300D01*
G01X172000Y153800D02*
X172100D01*
Y162026*
X172348Y162937D02*
G03X172100Y162026I1552J-911D01*
G01X168859Y162313D02*
G03X172348Y162937I1141J3687D01*
G01X168859Y162313D02*
X161800Y155254D01*
Y146817*
X162433Y146981D02*
G03X161800Y146817I0J-1300D01*
G01X162433Y146981D02*
X171094D01*
X172134Y146462D02*
G03X171094Y146981I-1040J-781D01*
G01X172134Y146462D02*
X173338D01*
X174611Y145935D02*
G03X173338Y146462I-1273J-1273D01*
G01X174611Y145935D02*
X180996Y139550D01*
X181605Y139477D02*
G03X180996Y139550I-605J-2477D01*
G01X181605Y139477D02*
Y140681D01*
X182906Y141981D02*
G03X181605Y140681I-0J-1300D01*
G01X182906Y141981D02*
X190321D01*
X190359Y142019*
X182906*
X181605Y143319D02*
G03X182906Y142019I1301J-0D01*
G01X181605Y143319D02*
Y145681D01*
X182906Y146981D02*
G03X181605Y145681I-0J-1300D01*
G01X182906Y146981D02*
X191567D01*
X192867Y145681D02*
G03X191567Y146981I-1300J0D01*
G01X192867Y145681D02*
Y144527D01*
X193200Y144860*
Y150000*
X193727Y151273D02*
G03X193200Y150000I1273J-1273D01*
G01X193727Y151273D02*
X198727Y156273D01*
X200000Y156800D02*
G03X198727Y156273I0J-1800D01*
G01X200000Y156800D02*
X206254D01*
X209200Y159746*
Y162586*
X212800D02*
G03X209200I-1800J3414D01*
G01X212800D02*
Y159000D01*
X212273Y157727D02*
G03X212800Y159000I-1273J1273D01*
G01X212273Y157727D02*
X208346Y153800D01*
X209800*
X211000Y153000D02*
G03X209800Y153800I-1200J-500D01*
G01X212200D02*
G03X211000Y153000I0J-1300D01*
G01X212200Y153800D02*
X216000D01*
X217265Y152800D02*
G03X216000Y153800I-1265J-300D01*
G01X217265Y152800D02*
X218000D01*
X219273Y152273D02*
G03X218000Y152800I-1273J-1273D01*
G01X219273Y152273D02*
X222273Y149273D01*
X222800Y148000D02*
G03X222273Y149273I-1800J0D01*
G01X222800Y148000D02*
Y146981D01*
X225567*
X226867Y145681D02*
G03X225567Y146981I-1300J0D01*
G01X226867Y145681D02*
Y143319D01*
X225567Y142019D02*
G03X226867Y143319I-0J1300D01*
G01X225567Y142019D02*
X216906D01*
X215605Y143319D02*
G03X216906Y142019I1301J-0D01*
G01X215605Y143319D02*
Y145681D01*
X216906Y146981D02*
G03X215605Y145681I-0J-1300D01*
G01X216906Y146981D02*
X219200D01*
Y147254*
X217263Y149192*
X216000Y148200D02*
G03X217263Y149192I0J1300D01*
G01X216000Y148200D02*
X212200D01*
X211000Y149000D02*
G03X212200Y148200I1200J500D01*
G01X209800D02*
G03X211000Y149000I0J1300D01*
G01X209800Y148200D02*
X206000D01*
X204737Y149192D02*
G03X206000Y148200I1263J308D01*
G01X204737Y149192D02*
X202564Y147018D01*
Y146981*
X205094*
X206395Y145681D02*
G03X205094Y146981I-1301J0D01*
G01X206395Y145681D02*
Y143319D01*
X205094Y142019D02*
G03X206395Y143319I0J1300D01*
G01X205094Y142019D02*
X196433D01*
X195686Y142255D02*
G03X196433Y142019I747J1064D01*
G01X195686Y142255D02*
X192867Y139436D01*
Y138319*
X192866Y138284D02*
G03X192867Y138319I-1299J35D01*
G01X195134Y138284D02*
G03X192866I-1134J-2284D01*
G01X195133Y138319D02*
G03X195134Y138284I1300J-0D01*
G01X195133Y138319D02*
Y140681D01*
X196433Y141981D02*
G03X195133Y140681I0J-1300D01*
G01X196433Y141981D02*
X205094D01*
X206170Y141411D02*
G03X205094Y141981I-1076J-730D01*
G01X205906Y136696D02*
G03X206170Y141411I1094J2304D01*
G01X206395Y135681D02*
G03X205906Y136696I-1301J0D01*
G01X206395Y135681D02*
Y133319D01*
X205094Y132019D02*
G03X206395Y133319I0J1300D01*
G01X205094Y132019D02*
X197679D01*
X197641Y131981*
X205094*
X206395Y130681D02*
G03X205094Y131981I-1301J0D01*
G01X206395Y130681D02*
Y128319D01*
X205094Y127019D02*
G03X206395Y128319I0J1300D01*
G01X205094Y127019D02*
X198027D01*
X201746Y123300*
X203500*
X204700Y122842D02*
G03X203500Y123300I-1200J-1342D01*
G01X204700Y122842D02*
Y125500D01*
X206000Y126800D02*
G03X204700Y125500I0J-1300D01*
G01X206000Y126800D02*
X209800D01*
X211000Y126000D02*
G03X209800Y126800I-1200J-500D01*
G01X212200D02*
G03X211000Y126000I0J-1300D01*
G01X212200Y126800D02*
X212300D01*
Y128351*
X211749Y128727D02*
G03X212300Y128351I1273J1273D01*
G01X211749Y128727D02*
X211276Y129200D01*
X210806*
Y132800D02*
G03Y129200I-1806J-1800D01*
G01Y132800D02*
X212022D01*
X212300Y132778D02*
G03X212022Y132800I-278J-1778D01*
G01X212300Y132778D02*
Y135513D01*
X212827Y136786D02*
G03X212300Y135513I1273J-1273D01*
G01X212827Y136786D02*
X215605Y139564D01*
Y140681*
X216906Y141981D02*
G03X215605Y140681I-0J-1300D01*
G01X216906Y141981D02*
X225567D01*
X226867Y140681D02*
G03X225567Y141981I-1300J0D01*
G01X226867Y140681D02*
Y138319D01*
X225567Y137019D02*
G03X226867Y138319I-0J1300D01*
G01X225567Y137019D02*
X218151D01*
X218113Y136981*
X225567*
X226867Y135681D02*
G03X225567Y136981I-1300J0D01*
G01X226867Y135681D02*
Y134564D01*
X228140Y133292*
X228500Y132776D02*
G03X228140Y133292I-1633J-757D01*
G01X167843Y169200D02*
G03X166313Y164859I2157J-3200D01*
G01X167843Y169200D02*
X164283D01*
X165380Y163926D02*
G03X164283Y169200I-3254J2074D01*
G01X165380Y163926D02*
X166313Y164859D01*
X158727Y157273D02*
X164200Y162746D01*
X159969Y169200D02*
G03X164200Y162746I2157J-3200D01*
G01X159969Y169200D02*
X152000D01*
Y132062*
X153504Y132550D02*
G03X152000Y132062I-4J-2550D01*
G01X153504Y132550D02*
X156829Y135874D01*
X157965Y136396D02*
G03X156829Y135874I136J-1795D01*
G01X157965Y136396D02*
X161133Y139564D01*
Y139716*
X158200Y143806D02*
G03X161133Y139716I1800J-1806D01*
G01X158200Y143806D02*
Y156000D01*
X158727Y157273D02*
G03X158200Y156000I1273J-1273D01*
G01X205562Y136894D02*
G03X205094Y136981I-468J-1213D01*
G01X205361Y137046D02*
G03X205562Y136894I1639J1954D01*
G01X205094Y137019D02*
G03X205361Y137046I0J1300D01*
G01X205094Y137019D02*
X196433D01*
X196336Y137023D02*
G03X196433Y137019I97J1296D01*
G01X196355Y136979D02*
G03X196336Y137022I-2355J-979D01*
G01X196433Y136981D02*
G03X196355Y136979I0J-1300D01*
G01X196433Y136981D02*
X205094D01*
X150000Y172800D02*
Y173700D01*
X101500*
Y101500*
X150000*
Y132154*
X147200Y136306D02*
G03X150000Y132154I1800J-1806D01*
G01X147200Y136306D02*
Y145194D01*
X150000Y149346D02*
G03X147200Y145194I-1000J-2346D01*
G01X150000Y149346D02*
Y169200D01*
X148806*
Y172800D02*
G03Y169200I-1806J-1800D01*
G01Y172800D02*
X150000D01*
X222733Y109000D02*
G03X222733I-3859J0D01*
G01X206985Y111559D02*
Y106441D01*
X205685Y105141D02*
G03X206985Y106441I0J1300D01*
G01X205685Y105141D02*
X200567D01*
X199267Y106441D02*
G03X200567Y105141I1300J-0D01*
G01X199267Y106441D02*
Y111559D01*
X200567Y112859D02*
G03X199267Y111559I-0J-1300D01*
G01X200567Y112859D02*
X205685D01*
X206985Y111559D02*
G03X205685Y112859I-1300J0D01*
G01X182733Y109000D02*
G03X182733I-3859J0D01*
G01X174859D02*
G03X174859I-3859J0D01*
G01X166985Y111559D02*
Y106441D01*
X165685Y105141D02*
G03X166985Y106441I0J1300D01*
G01X165685Y105141D02*
X160567D01*
X159267Y106441D02*
G03X160567Y105141I1300J-0D01*
G01X159267Y106441D02*
Y111559D01*
X160567Y112859D02*
G03X159267Y111559I-0J-1300D01*
G01X160567Y112859D02*
X165685D01*
X166985Y111559D02*
G03X165685Y112859I-1300J0D01*
G01X192867Y130681D02*
Y128319D01*
X191567Y127019D02*
G03X192867Y128319I-0J1300D01*
G01X191567Y127019D02*
X189025D01*
X188509Y125946D02*
G03X189025Y127019I-1273J1273D01*
G01X188509Y125946D02*
X185578Y123015D01*
X184194Y118700D02*
G03X185578Y123015I1806J1800D01*
G01X184194Y118700D02*
X167306D01*
Y122300D02*
G03Y118700I-1806J-1800D01*
G01Y122300D02*
X169391D01*
X168710Y122727D02*
G03X169391Y122300I1273J1273D01*
G01X168710Y122727D02*
X165491Y125946D01*
X164975Y127019D02*
G03X165491Y125946I1789J200D01*
G01X164975Y127019D02*
X162433D01*
X161133Y128319D02*
G03X162433Y127019I1300J-0D01*
G01X161133Y128319D02*
Y130681D01*
X162433Y131981D02*
G03X161133Y130681I0J-1300D01*
G01X162433Y131981D02*
X171094D01*
X172395Y130681D02*
G03X171094Y131981I-1301J0D01*
G01X172395Y130681D02*
Y128319D01*
X171094Y127019D02*
G03X172395Y128319I0J1300D01*
G01X171094Y127019D02*
X169509D01*
X170728Y125800*
X170735*
X172000Y126800D02*
G03X170735Y125800I0J-1300D01*
G01X172000Y126800D02*
X175800D01*
X177000Y126000D02*
G03X175800Y126800I-1200J-500D01*
G01X178200D02*
G03X177000Y126000I0J-1300D01*
G01X178200Y126800D02*
X182000D01*
X183265Y125800D02*
G03X182000Y126800I-1265J-300D01*
G01X183265Y125800D02*
X183272D01*
X184491Y127019*
X182906*
X181605Y128319D02*
G03X182906Y127019I1301J-0D01*
G01X181605Y128319D02*
Y130681D01*
X182906Y131981D02*
G03X181605Y130681I-0J-1300D01*
G01X182906Y131981D02*
X191567D01*
X192867Y130681D02*
G03X191567Y131981I-1300J0D01*
G01X222733Y168559D02*
Y163441D01*
X221433Y162141D02*
G03X222733Y163441I0J1300D01*
G01X221433Y162141D02*
X216315D01*
X215015Y163441D02*
G03X216315Y162141I1300J-0D01*
G01X215015Y163441D02*
Y168559D01*
X216315Y169859D02*
G03X215015Y168559I-0J-1300D01*
G01X216315Y169859D02*
X221433D01*
X222733Y168559D02*
G03X221433Y169859I-1300J0D01*
G01X206985Y166000D02*
G03X206985I-3859J0D01*
G01X138800Y140194D02*
G03Y143806I-1800J1806D01*
G01Y140194D02*
Y124806D01*
X135200D02*
G03X138800I1800J-1806D01*
G01X135200D02*
Y140194D01*
Y143806D02*
G03Y140194I1800J-1806D01*
G01Y143806D02*
Y159254D01*
X130695Y163759*
X112859*
Y163000*
X111559Y161700D02*
G03X112859Y163000I0J1300D01*
G01X111559Y161700D02*
X106441D01*
X105141Y163000D02*
G03X106441Y161700I1300J0D01*
G01X105141Y163000D02*
Y168118D01*
X106441Y169418D02*
G03X105141Y168118I-0J-1300D01*
G01X106441Y169418D02*
X111559D01*
X112859Y168118D02*
G03X111559Y169418I-1300J0D01*
G01X112859Y168118D02*
Y167359D01*
X131441*
X132714Y166832D02*
G03X131441Y167359I-1273J-1273D01*
G01X132714Y166832D02*
X138273Y161273D01*
X138800Y160000D02*
G03X138273Y161273I-1800J0D01*
G01X138800Y160000D02*
Y143806D01*
X112859Y110441D02*
G03X112859I-3859J0D01*
G01Y118315D02*
G03X112859I-3859J0D01*
G01Y126189D02*
G03X112859I-3859J0D01*
G01X113450Y129000D02*
G03X115996Y131550I2550J0D01*
G01X113450Y129000D02*
Y129004D01*
X113254Y129200*
X112063*
X110790Y129727D02*
G03X112063Y129200I1273J1273D01*
G01X110790Y129727D02*
X110141Y130376D01*
X112687Y132922D02*
G03X110141Y130376I-3687J1141D01*
G01X112687Y132922D02*
X112809Y132800D01*
X114000*
X115273Y132273D02*
G03X114000Y132800I-1273J-1273D01*
G01X115273Y132273D02*
X115996Y131550D01*
X124450Y135000D02*
G03X126996Y137550I2550J0D01*
G01X124450Y135000D02*
Y135004D01*
X119317Y140137*
X112414*
Y143737D02*
G03Y140137I-3414J-1800D01*
G01Y143737D02*
X120063D01*
X121336Y143210D02*
G03X120063Y143737I-1273J-1273D01*
G01X121336Y143210D02*
X126996Y137550D01*
X112859Y149811D02*
G03X112859I-3859J0D01*
G01Y157685D02*
G03X112859I-3859J0D01*
G01X164124Y162699D02*
X164153D01*
X152000Y161799D02*
X163253D01*
X152000Y160899D02*
X162353D01*
X152000Y159999D02*
X161453D01*
X152000Y139299D02*
X160867D01*
X152000Y159099D02*
X160553D01*
X152000Y162699D02*
X160128D01*
X152000Y138399D02*
X159967D01*
X152000Y168999D02*
X159697D01*
X152000Y158199D02*
X159653D01*
X152000Y163599D02*
X159105D01*
X152000Y137499D02*
X159067D01*
X152000Y168099D02*
X158887D01*
X152000Y157299D02*
X158753D01*
X152000Y164499D02*
X158571D01*
X152000Y167199D02*
X158458D01*
X152000Y165399D02*
X158314D01*
X152000Y166299D02*
X158278D01*
X152000Y156399D02*
X158245D01*
X152000Y155499D02*
X158200D01*
X152000Y154599D02*
X158200D01*
X152000Y153699D02*
X158200D01*
X152000Y152799D02*
X158200D01*
X152000Y151899D02*
X158200D01*
X152000Y150999D02*
X158200D01*
X152000Y150099D02*
X158200D01*
X152000Y149199D02*
X158200D01*
X152000Y148299D02*
X158200D01*
X152000Y147399D02*
X158200D01*
X152000Y146499D02*
X158200D01*
X152000Y145599D02*
X158200D01*
X152000Y144699D02*
X158200D01*
X152000Y140199D02*
X158195D01*
X152000Y143799D02*
X158192D01*
X152000Y136599D02*
X158167D01*
X152000Y141099D02*
X157615D01*
X152000Y142899D02*
X157614D01*
X152000Y141999D02*
X157450D01*
X152000Y135699D02*
X156653D01*
X152000Y134799D02*
X155753D01*
X152000Y133899D02*
X154853D01*
X152000Y132999D02*
X153953D01*
X152000Y132099D02*
X152052D01*
X164555Y168999D02*
X167571D01*
X165364Y168099D02*
X166761D01*
X165794Y167199D02*
X166332D01*
X165938Y165399D02*
X166188D01*
X165973Y166299D02*
X166153D01*
X165681Y164499D02*
X165953D01*
X152000Y173499D02*
X228500D01*
X173701Y172599D02*
X228500D01*
X174721Y171699D02*
X228500D01*
X175621Y170799D02*
X228500D01*
X176521Y169899D02*
X228500D01*
X222656Y168999D02*
X228500D01*
X222733Y168099D02*
X228500D01*
X222733Y167199D02*
X228500D01*
X222733Y166299D02*
X228500D01*
X222733Y165399D02*
X228500D01*
X222733Y164499D02*
X228500D01*
X222733Y163599D02*
X228500D01*
X222500Y162699D02*
X228500D01*
X212800Y161799D02*
X228500D01*
X212800Y160899D02*
X228500D01*
X212800Y159999D02*
X228500D01*
X212800Y159099D02*
X228500D01*
X212612Y158199D02*
X228500D01*
X211844Y157299D02*
X228500D01*
X210944Y156399D02*
X228500D01*
X210044Y155499D02*
X228500D01*
X209144Y154599D02*
X228500D01*
X216503Y153699D02*
X228500D01*
X218069Y152799D02*
X228500D01*
X219647Y151899D02*
X228500D01*
X220547Y150999D02*
X228500D01*
X221447Y150099D02*
X228500D01*
X222343Y149199D02*
X228500D01*
X222775Y148299D02*
X228500D01*
X222800Y147399D02*
X228500D01*
X226578Y146499D02*
X228500D01*
X226867Y145599D02*
X228500D01*
X226867Y144699D02*
X228500D01*
X226867Y143799D02*
X228500D01*
X226797Y142899D02*
X228500D01*
X195430Y141999D02*
X228500D01*
X226798Y141099D02*
X228500D01*
X226867Y140199D02*
X228500D01*
X226867Y139299D02*
X228500D01*
X226867Y138399D02*
X228500D01*
X226576Y137499D02*
X228500D01*
X226488Y136599D02*
X228500D01*
X226867Y135699D02*
X228500D01*
X226867Y134799D02*
X228500D01*
X227533Y133899D02*
X228500D01*
X228377Y132999D02*
X228500D01*
X202944Y147399D02*
X219056D01*
X216497Y148299D02*
X218156D01*
X206105Y146499D02*
X215895D01*
X206325Y142899D02*
X215675D01*
X208448Y141099D02*
X215674D01*
X206395Y145599D02*
X215605D01*
X206395Y144699D02*
X215605D01*
X206395Y143799D02*
X215605D01*
X209251Y140199D02*
X215605D01*
X209532Y139299D02*
X215340D01*
X212998Y162699D02*
X215248D01*
X213429Y168999D02*
X215092D01*
X214239Y168099D02*
X215015D01*
X214668Y167199D02*
X215015D01*
X214847Y166299D02*
X215015D01*
X214812Y165399D02*
X215015D01*
X214555Y164499D02*
X215015D01*
X214021Y163599D02*
X215015D01*
X209478Y138399D02*
X214440D01*
X209061Y137499D02*
X213540D01*
X207858Y136599D02*
X212664D01*
X206394Y135699D02*
X212310D01*
X206395Y134799D02*
X212300D01*
X206395Y133899D02*
X212300D01*
X210584Y132999D02*
X212300D01*
X206177Y127599D02*
X212300D01*
X209496Y128499D02*
X212029D01*
X210297Y148299D02*
X211703D01*
X210303Y153699D02*
X211697D01*
X210303Y126699D02*
X211697D01*
X176218Y161799D02*
X209200D01*
X175700Y160899D02*
X209200D01*
X175700Y159999D02*
X209200D01*
X205124Y162699D02*
X209002D01*
X205555Y168999D02*
X208571D01*
X175700Y159099D02*
X208553D01*
X206395Y128499D02*
X208504D01*
X206147Y163599D02*
X207979D01*
X206364Y168099D02*
X207761D01*
X175700Y158199D02*
X207653D01*
X206681Y164499D02*
X207445D01*
X206354Y132999D02*
X207416D01*
X206794Y167199D02*
X207332D01*
X206938Y165399D02*
X207188D01*
X206973Y166299D02*
X207153D01*
X206395Y129399D02*
X207015D01*
X175700Y157299D02*
X206753D01*
X205543Y132099D02*
X206699D01*
X206395Y130299D02*
X206548D01*
X206287Y131199D02*
X206458D01*
X206015Y136599D02*
X206142D01*
X203844Y148299D02*
X205503D01*
X198347Y126699D02*
X205497D01*
X199247Y125799D02*
X204735D01*
X200147Y124899D02*
X204700D01*
X201047Y123999D02*
X204700D01*
X204327Y123099D02*
X204700D01*
X181500Y162699D02*
X201128D01*
X181656Y168999D02*
X200697D01*
X181733Y163599D02*
X200105D01*
X181733Y168099D02*
X199887D01*
X181733Y164499D02*
X199571D01*
X181733Y167199D02*
X199458D01*
X181733Y165399D02*
X199314D01*
X181733Y166299D02*
X199278D01*
X175700Y156399D02*
X198867D01*
X175700Y155499D02*
X197953D01*
X175700Y154599D02*
X197053D01*
X182503Y153699D02*
X196153D01*
X183265Y152799D02*
X195253D01*
X194530Y141099D02*
X195202D01*
X193630Y140199D02*
X195133D01*
X192867Y139299D02*
X195133D01*
X194865Y138399D02*
X195133D01*
X183300Y151899D02*
X194353D01*
X183300Y150999D02*
X193502D01*
X183300Y150099D02*
X193203D01*
X183265Y149199D02*
X193200D01*
X182497Y148299D02*
X193200D01*
X180386Y147399D02*
X193200D01*
X192578Y146499D02*
X193200D01*
X192867Y145599D02*
X193200D01*
X192867Y138399D02*
X193135D01*
X192867Y144699D02*
X193039D01*
X178547Y141999D02*
X190339D01*
X180550Y146499D02*
X181895D01*
X177647Y142899D02*
X181675D01*
X179447Y141099D02*
X181674D01*
X180385Y145599D02*
X181605D01*
X179805Y144699D02*
X181605D01*
X176747Y143799D02*
X181605D01*
X180347Y140199D02*
X181605D01*
X176303Y153699D02*
X177697D01*
X175847Y144699D02*
X176195D01*
X174947Y145599D02*
X175615D01*
X172105Y146499D02*
X175450D01*
X161800Y147399D02*
X175033D01*
X171998Y162699D02*
X172230D01*
X168344Y161799D02*
X172100D01*
X167444Y160899D02*
X172100D01*
X166544Y159999D02*
X172100D01*
X165644Y159099D02*
X172100D01*
X164744Y158199D02*
X172100D01*
X163844Y157299D02*
X172100D01*
X162944Y156399D02*
X172100D01*
X162044Y155499D02*
X172100D01*
X161800Y154599D02*
X172100D01*
X161800Y148299D02*
X171503D01*
X161800Y153699D02*
X171497D01*
X161800Y149199D02*
X170735D01*
X161800Y152799D02*
X170735D01*
X161800Y151899D02*
X170700D01*
X161800Y150999D02*
X170700D01*
X161800Y150099D02*
X170700D01*
X228316Y112299D02*
X228500D01*
X227978Y111399D02*
X228500D01*
X227561Y110499D02*
X228500D01*
X226358Y109599D02*
X228500D01*
X222721Y108699D02*
X228500D01*
X222541Y107799D02*
X228500D01*
X222111Y106899D02*
X228500D01*
X221300Y105999D02*
X228500D01*
X148500Y105099D02*
X228500D01*
X148500Y104199D02*
X228500D01*
X148500Y103299D02*
X228500D01*
X148500Y102399D02*
X228500D01*
X222686Y109599D02*
X224642D01*
X222430Y110499D02*
X223439D01*
X221897Y111399D02*
X223022D01*
X220877Y112299D02*
X222968D01*
X216497Y121299D02*
X221200D01*
X207147Y120399D02*
X221200D01*
X208047Y119499D02*
X221200D01*
X208947Y118599D02*
X221200D01*
X209847Y117699D02*
X221200D01*
X212800Y113199D02*
X221195D01*
X210747Y116799D02*
X221192D01*
X217265Y122199D02*
X220658D01*
X212797Y114099D02*
X220615D01*
X211647Y115899D02*
X220614D01*
X212498Y114999D02*
X220450D01*
X217300Y123099D02*
X219787D01*
X217300Y123999D02*
X219444D01*
X216503Y126699D02*
X219436D01*
X217265Y125799D02*
X219436D01*
X217300Y124899D02*
X219436D01*
X213003Y112299D02*
X216871D01*
X213426Y105999D02*
X216448D01*
X214023Y111399D02*
X215851D01*
X214237Y106899D02*
X215637D01*
X214556Y110499D02*
X215318D01*
X214667Y107799D02*
X215207D01*
X214812Y109599D02*
X215062D01*
X214847Y108699D02*
X215027D01*
X210297Y121299D02*
X211703D01*
X152000Y113199D02*
X209200D01*
X206754Y112299D02*
X208997D01*
X206908Y105999D02*
X208574D01*
X152000Y114099D02*
X208356D01*
X206985Y111399D02*
X207977D01*
X206985Y106899D02*
X207763D01*
X152000Y114999D02*
X207456D01*
X206985Y110499D02*
X207444D01*
X206985Y107799D02*
X207333D01*
X206985Y109599D02*
X207188D01*
X206985Y108699D02*
X207153D01*
X152000Y115899D02*
X206556D01*
X152000Y116799D02*
X205656D01*
X152000Y117699D02*
X204756D01*
X187699Y118599D02*
X203856D01*
X188345Y119499D02*
X202956D01*
X188548Y120399D02*
X199556D01*
X180877Y112299D02*
X199498D01*
X181300Y105999D02*
X199344D01*
X181897Y111399D02*
X199267D01*
X182430Y110499D02*
X199267D01*
X182686Y109599D02*
X199267D01*
X182721Y108699D02*
X199267D01*
X182541Y107799D02*
X199267D01*
X182111Y106899D02*
X199267D01*
X188422Y121299D02*
X198656D01*
X187902Y122199D02*
X197756D01*
X185662Y123099D02*
X196856D01*
X186562Y123999D02*
X195956D01*
X187462Y124899D02*
X195056D01*
X188362Y125799D02*
X194156D01*
X192827Y132999D02*
X193623D01*
X188959Y126699D02*
X193462D01*
X192015Y132099D02*
X193335D01*
X192759Y131199D02*
X193333D01*
X192867Y130299D02*
X193333D01*
X192867Y129399D02*
X193333D01*
X192867Y128499D02*
X193333D01*
X192649Y127599D02*
X193333D01*
X167199Y118599D02*
X184301D01*
X182503Y126699D02*
X184170D01*
X178858Y132099D02*
X182457D01*
X172177Y127599D02*
X181823D01*
X172287Y131199D02*
X181713D01*
X180061Y132999D02*
X181646D01*
X180478Y133899D02*
X181605D01*
X172395Y130299D02*
X181605D01*
X172395Y129399D02*
X181605D01*
X172395Y128499D02*
X181605D01*
X176303Y126699D02*
X177697D01*
X171543Y132099D02*
X177142D01*
X173003Y112299D02*
X176871D01*
X173426Y105999D02*
X176448D01*
X174023Y111399D02*
X175851D01*
X174237Y106899D02*
X175637D01*
X174556Y110499D02*
X175318D01*
X174667Y107799D02*
X175207D01*
X174812Y109599D02*
X175062D01*
X174847Y108699D02*
X175027D01*
X169830Y126699D02*
X171497D01*
X166754Y112299D02*
X168997D01*
X166908Y105999D02*
X168574D01*
X152000Y123099D02*
X168338D01*
X166985Y111399D02*
X167977D01*
X166985Y106899D02*
X167763D01*
X166985Y110499D02*
X167444D01*
X152000Y123999D02*
X167438D01*
X166985Y107799D02*
X167333D01*
X166985Y109599D02*
X167188D01*
X166985Y108699D02*
X167153D01*
X152000Y124899D02*
X166538D01*
X152000Y125799D02*
X165638D01*
X152000Y126699D02*
X165041D01*
X152000Y118599D02*
X163801D01*
X152000Y122199D02*
X163598D01*
X152000Y119499D02*
X163155D01*
X152000Y121299D02*
X163078D01*
X152000Y120399D02*
X162952D01*
X158144Y132099D02*
X161985D01*
X154358Y127599D02*
X161351D01*
X157244Y131199D02*
X161241D01*
X159535Y132999D02*
X161173D01*
X160558Y133899D02*
X161133D01*
X156344Y130299D02*
X161133D01*
X155978Y129399D02*
X161133D01*
X155561Y128499D02*
X161133D01*
X152000Y112299D02*
X159498D01*
X148500Y105999D02*
X159344D01*
X152000Y111399D02*
X159267D01*
X152000Y110499D02*
X159267D01*
X152000Y109599D02*
X159267D01*
X152000Y108699D02*
X159267D01*
X152000Y107799D02*
X159267D01*
X152000Y106899D02*
X159267D01*
X152000Y127599D02*
X152642D01*
X147509Y173499D02*
X150000D01*
X148580Y168999D02*
X150000D01*
X112859Y168099D02*
X150000D01*
X132184Y167199D02*
X150000D01*
X133247Y166299D02*
X150000D01*
X134147Y165399D02*
X150000D01*
X135047Y164499D02*
X150000D01*
X135947Y163599D02*
X150000D01*
X136847Y162699D02*
X150000D01*
X137747Y161799D02*
X150000D01*
X138560Y160899D02*
X150000D01*
X138800Y159999D02*
X150000D01*
X138800Y159099D02*
X150000D01*
X138800Y158199D02*
X150000D01*
X138800Y157299D02*
X150000D01*
X138800Y156399D02*
X150000D01*
X138800Y155499D02*
X150000D01*
X138800Y154599D02*
X150000D01*
X138800Y153699D02*
X150000D01*
X138800Y152799D02*
X150000D01*
X138800Y151899D02*
X150000D01*
X138800Y150999D02*
X150000D01*
X138800Y150099D02*
X150000D01*
X149858Y132099D02*
X150000D01*
X138800Y131199D02*
X150000D01*
X138800Y130299D02*
X150000D01*
X138800Y129399D02*
X150000D01*
X138800Y128499D02*
X150000D01*
X138800Y127599D02*
X150000D01*
X138800Y126699D02*
X150000D01*
X138800Y125799D02*
X150000D01*
X138800Y124899D02*
X150000D01*
X139346Y123999D02*
X150000D01*
X139548Y123099D02*
X150000D01*
X139421Y122199D02*
X150000D01*
X138900Y121299D02*
X150000D01*
X112248Y120399D02*
X150000D01*
X112673Y119499D02*
X150000D01*
X112849Y118599D02*
X150000D01*
X112810Y117699D02*
X150000D01*
X112549Y116799D02*
X150000D01*
X112009Y115899D02*
X150000D01*
X110974Y114999D02*
X150000D01*
X110230Y114099D02*
X150000D01*
X111700Y113199D02*
X150000D01*
X112382Y112299D02*
X150000D01*
X112738Y111399D02*
X150000D01*
X112859Y110499D02*
X150000D01*
X112766Y109599D02*
X150000D01*
X112443Y108699D02*
X150000D01*
X111813Y107799D02*
X150000D01*
X110531Y106899D02*
X150000D01*
X101500Y105999D02*
X150000D01*
X101500Y105099D02*
X150000D01*
X101500Y104199D02*
X150000D01*
X101500Y103299D02*
X150000D01*
X101500Y102399D02*
X150000D01*
X138800Y132099D02*
X148142D01*
X138800Y149199D02*
X147708D01*
X138800Y144699D02*
X147200D01*
X138808Y143799D02*
X147200D01*
X139386Y142899D02*
X147200D01*
X139550Y141999D02*
X147200D01*
X139385Y141099D02*
X147200D01*
X138805Y140199D02*
X147200D01*
X138800Y139299D02*
X147200D01*
X138800Y138399D02*
X147200D01*
X138800Y137499D02*
X147200D01*
X138800Y136599D02*
X147200D01*
X138800Y132999D02*
X146939D01*
X138800Y145599D02*
X146870D01*
X138800Y148299D02*
X146805D01*
X138800Y135699D02*
X146749D01*
X138800Y133899D02*
X146522D01*
X138800Y146499D02*
X146500D01*
X101500Y173499D02*
X146491D01*
X138800Y147399D02*
X146481D01*
X138800Y134799D02*
X146468D01*
X112515Y168999D02*
X145420D01*
X101500Y172599D02*
X145013D01*
X101500Y169899D02*
X144700D01*
X101500Y171699D02*
X144548D01*
X101500Y170799D02*
X144458D01*
X112591Y159099D02*
X135200D01*
X112825Y158199D02*
X135200D01*
X112840Y157299D02*
X135200D01*
X112638Y156399D02*
X135200D01*
X112180Y155499D02*
X135200D01*
X111317Y154599D02*
X135200D01*
X101500Y153699D02*
X135200D01*
X111443Y152799D02*
X135200D01*
X112246Y151899D02*
X135200D01*
X112672Y150999D02*
X135200D01*
X112848Y150099D02*
X135200D01*
X112810Y149199D02*
X135200D01*
X112550Y148299D02*
X135200D01*
X112012Y147399D02*
X135200D01*
X110980Y146499D02*
X135200D01*
X110218Y145599D02*
X135200D01*
X111695Y144699D02*
X135200D01*
X125247Y139299D02*
X135200D01*
X126147Y138399D02*
X135200D01*
X127509Y137499D02*
X135200D01*
X128987Y136599D02*
X135200D01*
X129452Y135699D02*
X135200D01*
X129542Y134799D02*
X135200D01*
X129300Y133899D02*
X135200D01*
X128580Y132999D02*
X135200D01*
X115447Y132099D02*
X135200D01*
X117292Y131199D02*
X135200D01*
X118195Y130299D02*
X135200D01*
X118519Y129399D02*
X135200D01*
X118500Y128499D02*
X135200D01*
X118130Y127599D02*
X135200D01*
X117098Y126699D02*
X135200D01*
X112839Y125799D02*
X135200D01*
X112637Y124899D02*
X135200D01*
X124347Y140199D02*
X135195D01*
X112380Y143799D02*
X135192D01*
X111447Y121299D02*
X135100D01*
X112177Y123999D02*
X134654D01*
X123447Y141099D02*
X134615D01*
X121647Y142899D02*
X134614D01*
X101500Y122199D02*
X134579D01*
X112089Y159999D02*
X134456D01*
X111311Y123099D02*
X134452D01*
X122547Y141999D02*
X134450D01*
X111137Y160899D02*
X133556D01*
X112056Y161799D02*
X132656D01*
X112824Y162699D02*
X131756D01*
X112859Y163599D02*
X130856D01*
X112709Y132999D02*
X125420D01*
X112856Y133899D02*
X124700D01*
X112788Y134799D02*
X124458D01*
X112495Y135699D02*
X123756D01*
X111909Y136599D02*
X122856D01*
X110757Y137499D02*
X121956D01*
X110540Y138399D02*
X121056D01*
X111816Y139299D02*
X120156D01*
X112825Y126699D02*
X114902D01*
X112592Y127599D02*
X113870D01*
X112092Y128499D02*
X113500D01*
X111142Y129399D02*
X111241D01*
X109850Y130299D02*
X110219D01*
X101500D02*
X108150D01*
X101500Y145599D02*
X107782D01*
X101500Y114099D02*
X107770D01*
X101500Y106899D02*
X107469D01*
X101500Y138399D02*
X107460D01*
X101500Y137499D02*
X107243D01*
X101500Y114999D02*
X107026D01*
X101500Y146499D02*
X107020D01*
X101500Y160899D02*
X106863D01*
X101500Y129399D02*
X106858D01*
X101500Y123099D02*
X106689D01*
X101500Y154599D02*
X106683D01*
X101500Y152799D02*
X106557D01*
X101500Y121299D02*
X106553D01*
X101500Y131199D02*
X106414D01*
X101500Y144699D02*
X106305D01*
X101500Y113199D02*
X106300D01*
X101500Y107799D02*
X106187D01*
X101500Y139299D02*
X106184D01*
X101500Y136599D02*
X106091D01*
X101500Y115899D02*
X105991D01*
X101500Y147399D02*
X105988D01*
X101500Y161799D02*
X105944D01*
X101500Y159999D02*
X105911D01*
X101500Y128499D02*
X105908D01*
X101500Y123999D02*
X105823D01*
X101500Y155499D02*
X105820D01*
X101500Y151899D02*
X105754D01*
X101500Y120399D02*
X105752D01*
X101500Y132099D02*
X105678D01*
X101500Y143799D02*
X105620D01*
X101500Y112299D02*
X105618D01*
X101500Y108699D02*
X105557D01*
X101500Y140199D02*
X105555D01*
X101500Y135699D02*
X105505D01*
X101500Y168999D02*
X105485D01*
X101500Y116799D02*
X105451D01*
X101500Y148299D02*
X105450D01*
X101500Y159099D02*
X105409D01*
X101500Y127599D02*
X105408D01*
X101500Y124899D02*
X105363D01*
X101500Y156399D02*
X105362D01*
X101500Y150999D02*
X105328D01*
X101500Y119499D02*
X105327D01*
X101500Y132999D02*
X105291D01*
X101500Y142899D02*
X105263D01*
X101500Y111399D02*
X105262D01*
X101500Y109599D02*
X105234D01*
X101500Y141099D02*
X105233D01*
X101500Y134799D02*
X105212D01*
X101500Y117699D02*
X105190D01*
X101500Y149199D02*
X105190D01*
X101500Y162699D02*
X105176D01*
X101500Y158199D02*
X105175D01*
X101500Y126699D02*
X105175D01*
X101500Y125799D02*
X105161D01*
X101500Y157299D02*
X105160D01*
X101500Y150099D02*
X105152D01*
X101500Y118599D02*
X105151D01*
X101500Y133899D02*
X105144D01*
X101500Y141999D02*
X105141D01*
X101500Y110499D02*
X105141D01*
X101500Y168099D02*
X105141D01*
X101500Y167199D02*
X105141D01*
X101500Y166299D02*
X105141D01*
X101500Y165399D02*
X105141D01*
X101500Y164499D02*
X105141D01*
X101500Y163599D02*
X105141D01*
X205081Y126419D02*
X206439Y125061D01*
X210719Y126419D02*
X209361Y125061D01*
X210719Y121581D02*
X209361Y122939D01*
X182919Y153419D02*
X181561Y152061D01*
X182919Y148581D02*
X181561Y149939D01*
X177281Y153419D02*
X178639Y152061D01*
X181986Y142400D02*
X183251Y143665D01*
X181986Y146600D02*
X183251Y145335D01*
X192486Y146600D02*
X191221Y145335D01*
X206014Y131600D02*
X204749Y130335D01*
X206014Y127400D02*
X204749Y128665D01*
G54D21*
X102850Y102850D03*
X112850D03*
X122850D03*
X132850D03*
X142850D03*
X160204D03*
X152850D03*
X102850Y112850D03*
X122850D03*
X132850D03*
X142850D03*
X190204D03*
X225500Y112000D03*
X223000Y115000D03*
X122850Y122850D03*
X137000Y123000D03*
X132850Y122850D03*
X142850D03*
X165500Y120500D03*
X186000D03*
X116000Y129000D03*
X127000Y135000D03*
X132850Y132850D03*
X149000Y134500D03*
X153500Y130000D03*
X178000Y134500D03*
X194000Y136000D03*
X209000Y131000D03*
X102850Y142850D03*
X137000Y142000D03*
X132850Y142850D03*
X160000Y142000D03*
X181000Y137000D03*
X178000Y146500D03*
X207000Y139000D03*
X102850Y152850D03*
X122850D03*
X132850D03*
X149000Y147000D03*
X142850Y152850D03*
X187000Y156000D03*
X102850Y162850D03*
X147000Y171000D03*
X185000Y171500D03*
X190204Y162850D03*
X222500Y160000D03*
X224000Y171000D03*
G54D23*
X111729Y107712D02*
X110810Y108631D01*
X111729Y113170D02*
X110810Y112250D01*
X106271Y113170D02*
X107190Y112250D01*
X106271Y107712D02*
X107190Y108631D01*
X159397Y163271D02*
X160316Y164190D01*
X159397Y168729D02*
X160316Y167810D01*
X164855Y168729D02*
X163936Y167810D01*
X181603Y111729D02*
X180684Y110810D01*
X176145Y111729D02*
X177064Y110810D01*
X176145Y106271D02*
X177064Y107190D01*
X181603Y106271D02*
X180684Y107190D01*
X200397Y163271D02*
X201316Y164190D01*
X205855Y163271D02*
X204936Y164190D01*
X205855Y168729D02*
X204936Y167810D01*
X200397Y168729D02*
X201316Y167810D01*
X221603Y111729D02*
X220684Y110810D01*
X216145Y111729D02*
X217064Y110810D01*
X216145Y106271D02*
X217064Y107190D01*
X221603Y106271D02*
X220684Y107190D01*
G54D35*
X187236Y129500D03*
Y134500D03*
Y139500D03*
Y144500D03*
X166764D03*
Y139500D03*
Y134500D03*
Y129500D03*
X200764Y144500D03*
Y139500D03*
Y134500D03*
Y129500D03*
X221236D03*
Y134500D03*
Y139500D03*
Y144500D03*
G54D36*
X109000Y165559D03*
X203126Y109000D03*
X218874Y166000D03*
X163126Y109000D03*
X177874Y166000D03*
G54D37*
X109000Y157685D03*
Y149811D03*
Y141937D03*
Y134063D03*
Y126189D03*
Y118315D03*
Y110441D03*
X211000Y109000D03*
X218874D03*
X211000Y166000D03*
X203126D03*
X171000Y109000D03*
X178874D03*
X170000Y166000D03*
X162126D03*
G74*
X0Y0D02*
M02*
