*
*
G04 PADS 9.3.1 Build Number: 456998 generated Gerber (RS-274-X) file*
G04 PC Version=2.1*
*
%IN "amp_breakout_v1.pcb"*%
*
%MOIN*%
*
%FSLAX35Y35*%
*
*
*
*
G04 PC Standard Apertures*
*
*
G04 Thermal Relief Aperture macro.*
%AMTER*
1,1,$1,0,0*
1,0,$1-$2,0,0*
21,0,$3,$4,0,0,45*
21,0,$3,$4,0,0,135*
%
*
*
G04 Annular Aperture macro.*
%AMANN*
1,1,$1,0,0*
1,0,$2,0,0*
%
*
*
G04 Odd Aperture macro.*
%AMODD*
1,1,$1,0,0*
1,0,$1-0.005,0,0*
%
*
*
G04 PC Custom Aperture Macros*
*
*
*
*
*
*
G04 PC Aperture Table*
*
%ADD010C,0.001*%
%ADD011C,0.04*%
%ADD013C,0.05512*%
%ADD015C,0.11024*%
%ADD017C,0.07874*%
%ADD019C,0.01*%
%ADD020C,0.007*%
%ADD021C,0.025*%
%ADD022C,0.005*%
%ADD023C,0.015*%
%ADD024C,0.07087*%
*
*
*
*
G04 PC Circuitry*
G04 Layer Name amp_breakout_v1.pcb - circuitry*
%LPD*%
*
*
G04 PC Custom Flashes*
G04 Layer Name amp_breakout_v1.pcb - flashes*
%LPD*%
*
*
G04 PC Circuitry*
G04 Layer Name amp_breakout_v1.pcb - circuitry*
%LPD*%
*
G54D10*
G54D11*
G01X375000Y245000D03*
X365000D03*
Y235000D03*
X375000D03*
X365000Y225000D03*
X375000D03*
X365000Y215000D03*
X375000D03*
X365000Y205000D03*
X375000D03*
X365000Y195000D03*
X375000D03*
X365000Y185000D03*
X375000D03*
X365000Y175000D03*
X375000D03*
X365000Y165000D03*
X375000D03*
X365000Y155000D03*
X375000D03*
X365000Y145000D03*
X375000D03*
X365000Y135000D03*
X375000D03*
X335000Y245000D03*
X325000D03*
Y235000D03*
X335000D03*
X325000Y225000D03*
X335000D03*
X325000Y215000D03*
X335000D03*
X325000Y205000D03*
X335000D03*
X325000Y195000D03*
X335000D03*
X325000Y185000D03*
X335000D03*
X325000Y175000D03*
X335000D03*
X325000Y165000D03*
X335000D03*
X325000Y155000D03*
X335000D03*
X325000Y145000D03*
X335000D03*
X325000Y135000D03*
X335000D03*
X127000Y263000D03*
Y253000D03*
Y243000D03*
Y233000D03*
Y223000D03*
Y213000D03*
Y203000D03*
Y193000D03*
Y183000D03*
Y173000D03*
Y163000D03*
Y153000D03*
X117000Y263000D03*
Y253000D03*
Y243000D03*
Y233000D03*
Y223000D03*
Y213000D03*
Y203000D03*
Y193000D03*
Y183000D03*
Y173000D03*
Y163000D03*
Y153000D03*
Y143000D03*
X127000D03*
X117000Y133000D03*
X127000D03*
X117000Y123000D03*
X127000D03*
G54D13*
X161130Y282063D03*
Y289937D03*
X169004Y282063D03*
Y289937D03*
X176878Y282063D03*
Y289937D03*
X184752Y282063D03*
Y289937D03*
X192626Y282063D03*
Y289937D03*
X200500Y282063D03*
Y289937D03*
X208374Y282063D03*
Y289937D03*
X216248Y282063D03*
Y289937D03*
X224122Y282063D03*
Y289937D03*
X231996Y282063D03*
Y289937D03*
X239870Y282063D03*
Y289937D03*
G54D15*
X423000Y221000D03*
Y201000D03*
Y181000D03*
Y161000D03*
Y141000D03*
G54D17*
X404236Y269000D03*
G54D19*
X169500Y153000D02*
Y237000D01*
X188500Y256000*
Y277000*
X172500Y158000D02*
Y236000D01*
X196500Y260000*
Y277000*
X204500Y168000D02*
Y225937D01*
X204437Y226000*
Y276937*
X212500Y173000D02*
Y277000D01*
X220500Y178000D02*
Y277000D01*
X156000Y208000D02*
Y218000D01*
X185500Y213000D02*
X199500D01*
X156000Y218000D02*
Y282000D01*
X175500Y233000D02*
X189500D01*
X179500Y238000D02*
X201500D01*
X162000Y263000D02*
X172500D01*
X176878Y267378*
Y282063*
X156000Y282000D02*
Y292000D01*
X161000Y297000*
X337000*
X156000Y282000D02*
X161130D01*
Y282063*
X342000Y292000D02*
X337000Y297000D01*
X130450Y123000D02*
G75*
G03X130450I-3450J0D01*
G01Y133000D02*
G03X130450I-3450J0D01*
G01Y143000D02*
G03X130450I-3450J0D01*
G01Y153000D02*
G03X130450I-3450J0D01*
G01Y163000D02*
G03X130450I-3450J0D01*
G01Y173000D02*
G03X130450I-3450J0D01*
G01Y183000D02*
G03X130450I-3450J0D01*
G01Y193000D02*
G03X130450I-3450J0D01*
G01Y203000D02*
G03X130450I-3450J0D01*
G01Y213000D02*
G03X130450I-3450J0D01*
G01Y223000D02*
G03X130450I-3450J0D01*
G01Y233000D02*
G03X130450I-3450J0D01*
G01Y243000D02*
G03X130450I-3450J0D01*
G01Y253000D02*
G03X130450I-3450J0D01*
G01Y263000D02*
G03X130450I-3450J0D01*
G01X120450Y123000D02*
G03X120450I-3450J0D01*
G01Y133000D02*
G03X120450I-3450J0D01*
G01Y143000D02*
G03X120450I-3450J0D01*
G01Y153000D02*
G03X120450I-3450J0D01*
G01Y163000D02*
G03X120450I-3450J0D01*
G01Y173000D02*
G03X120450I-3450J0D01*
G01Y183000D02*
G03X120450I-3450J0D01*
G01Y193000D02*
G03X120450I-3450J0D01*
G01Y203000D02*
G03X120450I-3450J0D01*
G01Y213000D02*
G03X120450I-3450J0D01*
G01Y223000D02*
G03X120450I-3450J0D01*
G01Y233000D02*
G03X120450I-3450J0D01*
G01Y243000D02*
G03X120450I-3450J0D01*
G01Y253000D02*
G03X120450I-3450J0D01*
G01Y263000D02*
G03X120450I-3450J0D01*
G01X446500Y103500D02*
Y127500D01*
X293500*
Y293500*
X337954*
X336254Y295200*
X161746*
X160487Y293942*
X165067Y290912D02*
G03X160487Y293942I-3937J-975D01*
G01X172941Y290912D02*
G03X165067I-3937J-975D01*
G01X180815D02*
G03X172941I-3937J-975D01*
G01X188689D02*
G03X180815I-3937J-975D01*
G01X196563D02*
G03X188689I-3937J-975D01*
G01X204437D02*
G03X196563I-3937J-975D01*
G01X212311D02*
G03X204437I-3937J-975D01*
G01X220185D02*
G03X212311I-3937J-975D01*
G01X228059D02*
G03X220185I-3937J-975D01*
G01X235933D02*
G03X228059I-3937J-975D01*
G01X240845Y286000D02*
G03X235933Y290912I-975J3937D01*
G01Y281088D02*
G03X240845Y286000I3937J975D01*
G01X228059Y281088D02*
G03X235933I3937J975D01*
G01X221866Y278692D02*
G03X228059Y281088I2256J3371D01*
G01X221866Y278692D02*
Y278172D01*
X222300Y277000D02*
G03X221866Y278172I-1800J0D01*
G01X222300Y277000D02*
Y179806D01*
X218700D02*
G03X222300I1800J-1806D01*
G01X218700D02*
Y276633D01*
X218566Y277284D02*
G03X218700Y276633I1650J-0D01*
G01X218566Y277284D02*
Y278735D01*
X213992Y278692D02*
G03X218566Y278735I2256J3371D01*
G01X213992Y278692D02*
Y278007D01*
X214300Y277000D02*
G03X213992Y278007I-1800J0D01*
G01X214300Y277000D02*
Y174806D01*
X210700D02*
G03X214300I1800J-1806D01*
G01X210700D02*
Y276997D01*
X210692Y277158D02*
G03X210700Y276997I1650J-0D01*
G01X210692Y277158D02*
Y278735D01*
X206087Y278713D02*
G03X210692Y278735I2287J3350D01*
G01X206087Y278713D02*
Y277656D01*
X206237Y276937D02*
G03X206087Y277656I-1800J0D01*
G01X206237Y276937D02*
Y226409D01*
X206300Y225937D02*
G03X206237Y226409I-1800J0D01*
G01X206300Y225937D02*
Y169806D01*
X202700D02*
G03X206300I1800J-1806D01*
G01X202700D02*
Y225528D01*
X202637Y226000D02*
G03X202700Y225528I1800J0D01*
G01X202637Y226000D02*
Y235717D01*
X199694Y236200D02*
G03X202637Y235717I1806J1800D01*
G01X199694Y236200D02*
X181306D01*
X176952Y237906D02*
G03X181306Y236200I2548J94D01*
G01X176952Y237906D02*
X174300Y235254D01*
Y235250*
X177306Y234800D02*
G03X174300Y235250I-1806J-1800D01*
G01X177306Y234800D02*
X187694D01*
Y231200D02*
G03Y234800I1806J1800D01*
G01Y231200D02*
X177306D01*
X174300Y230750D02*
G03X177306Y231200I1200J2250D01*
G01X174300Y230750D02*
Y159806D01*
X171300Y155750D02*
G03X174300Y159806I1200J2250D01*
G01X171300Y155750D02*
Y154806D01*
X167700D02*
G03X171300I1800J-1806D01*
G01X167700D02*
Y237000D01*
X168227Y238273D02*
G03X167700Y237000I1273J-1273D01*
G01X168227Y238273D02*
X186700Y256746D01*
Y277000*
X186850Y277719D02*
G03X186700Y277000I1650J-719D01*
G01X186850Y277719D02*
Y278592D01*
X180815Y281088D02*
G03X186850Y278592I3937J975D01*
G01X178678Y278428D02*
G03X180815Y281088I-1800J3635D01*
G01X178678Y278428D02*
Y267378D01*
X178151Y266105D02*
G03X178678Y267378I-1273J1273D01*
G01X178151Y266105D02*
X173773Y261727D01*
X172500Y261200D02*
G03X173773Y261727I0J1800D01*
G01X172500Y261200D02*
X163806D01*
Y264800D02*
G03Y261200I-1806J-1800D01*
G01Y264800D02*
X171754D01*
X175078Y268124*
Y278428*
X172941Y281088D02*
G03X175078Y278428I3937J975D01*
G01X165067Y281088D02*
G03X172941I3937J975D01*
G01X157800Y279747D02*
G03X165067Y281088I3330J2316D01*
G01X157800Y279747D02*
Y219806D01*
Y216194D02*
G03Y219806I-1800J1806D01*
G01Y216194D02*
Y209806D01*
X154200D02*
G03X157800I1800J-1806D01*
G01X154200D02*
Y216194D01*
Y219806D02*
G03Y216194I1800J-1806D01*
G01Y219806D02*
Y282000D01*
Y292000*
X154727Y293273D02*
G03X154200Y292000I1273J-1273D01*
G01X154727Y293273D02*
X157954Y296500D01*
X103500*
Y103500*
X446500*
X160155Y286000D02*
G03X157800Y284379I975J-3937D01*
G01Y287621D02*
G03X160155Y286000I3330J2316D01*
G01X157800Y287621D02*
Y284379D01*
X168029Y286000D02*
G03X165067Y283038I975J-3937D01*
G01Y288962D02*
G03X168029Y286000I3937J975D01*
G01X162105D02*
G03X165067Y288962I-975J3937D01*
G01Y283038D02*
G03X162105Y286000I-3937J-975D01*
G01X197694Y211200D02*
G03Y214800I1806J1800D01*
G01Y211200D02*
X187306D01*
Y214800D02*
G03Y211200I-1806J-1800D01*
G01Y214800D02*
X197694D01*
X130450Y123000D02*
G03X130450I-3450J0D01*
G01Y133000D02*
G03X130450I-3450J0D01*
G01Y143000D02*
G03X130450I-3450J0D01*
G01Y153000D02*
G03X130450I-3450J0D01*
G01Y163000D02*
G03X130450I-3450J0D01*
G01Y173000D02*
G03X130450I-3450J0D01*
G01Y183000D02*
G03X130450I-3450J0D01*
G01Y193000D02*
G03X130450I-3450J0D01*
G01Y203000D02*
G03X130450I-3450J0D01*
G01Y213000D02*
G03X130450I-3450J0D01*
G01Y223000D02*
G03X130450I-3450J0D01*
G01Y233000D02*
G03X130450I-3450J0D01*
G01Y243000D02*
G03X130450I-3450J0D01*
G01Y253000D02*
G03X130450I-3450J0D01*
G01Y263000D02*
G03X130450I-3450J0D01*
G01X120450Y123000D02*
G03X120450I-3450J0D01*
G01Y133000D02*
G03X120450I-3450J0D01*
G01Y143000D02*
G03X120450I-3450J0D01*
G01Y153000D02*
G03X120450I-3450J0D01*
G01Y163000D02*
G03X120450I-3450J0D01*
G01Y173000D02*
G03X120450I-3450J0D01*
G01Y183000D02*
G03X120450I-3450J0D01*
G01Y193000D02*
G03X120450I-3450J0D01*
G01Y203000D02*
G03X120450I-3450J0D01*
G01Y213000D02*
G03X120450I-3450J0D01*
G01Y223000D02*
G03X120450I-3450J0D01*
G01Y233000D02*
G03X120450I-3450J0D01*
G01Y243000D02*
G03X120450I-3450J0D01*
G01Y253000D02*
G03X120450I-3450J0D01*
G01Y263000D02*
G03X120450I-3450J0D01*
G01X103500Y126899D02*
X446500D01*
X128706Y125999D02*
X446500D01*
X129738Y125099D02*
X446500D01*
X130235Y124199D02*
X446500D01*
X130437Y123299D02*
X446500D01*
X130397Y122399D02*
X446500D01*
X130106Y121499D02*
X446500D01*
X129477Y120599D02*
X446500D01*
X128002Y119699D02*
X446500D01*
X103500Y118799D02*
X446500D01*
X103500Y117899D02*
X446500D01*
X103500Y116999D02*
X446500D01*
X103500Y116099D02*
X446500D01*
X103500Y115199D02*
X446500D01*
X103500Y114299D02*
X446500D01*
X103500Y113399D02*
X446500D01*
X103500Y112499D02*
X446500D01*
X103500Y111599D02*
X446500D01*
X103500Y110699D02*
X446500D01*
X103500Y109799D02*
X446500D01*
X103500Y108899D02*
X446500D01*
X103500Y107999D02*
X446500D01*
X103500Y107099D02*
X446500D01*
X103500Y106199D02*
X446500D01*
X103500Y105299D02*
X446500D01*
X103500Y104399D02*
X446500D01*
X160844Y294299D02*
X337156D01*
X161744Y295199D02*
X336256D01*
X241984Y293399D02*
X293500D01*
X243015Y292499D02*
X293500D01*
X243570Y291599D02*
X293500D01*
X243854Y290699D02*
X293500D01*
X243924Y289799D02*
X293500D01*
X243791Y288899D02*
X293500D01*
X243433Y287999D02*
X293500D01*
X242767Y287099D02*
X293500D01*
X241443Y286199D02*
X293500D01*
X242316Y285299D02*
X293500D01*
X243186Y284399D02*
X293500D01*
X243663Y283499D02*
X293500D01*
X243890Y282599D02*
X293500D01*
X243910Y281699D02*
X293500D01*
X243724Y280799D02*
X293500D01*
X243300Y279899D02*
X293500D01*
X242527Y278999D02*
X293500D01*
X240727Y278099D02*
X293500D01*
X222289Y277199D02*
X293500D01*
X222300Y276299D02*
X293500D01*
X222300Y275399D02*
X293500D01*
X222300Y274499D02*
X293500D01*
X222300Y273599D02*
X293500D01*
X222300Y272699D02*
X293500D01*
X222300Y271799D02*
X293500D01*
X222300Y270899D02*
X293500D01*
X222300Y269999D02*
X293500D01*
X222300Y269099D02*
X293500D01*
X222300Y268199D02*
X293500D01*
X222300Y267299D02*
X293500D01*
X222300Y266399D02*
X293500D01*
X222300Y265499D02*
X293500D01*
X222300Y264599D02*
X293500D01*
X222300Y263699D02*
X293500D01*
X222300Y262799D02*
X293500D01*
X222300Y261899D02*
X293500D01*
X222300Y260999D02*
X293500D01*
X222300Y260099D02*
X293500D01*
X222300Y259199D02*
X293500D01*
X222300Y258299D02*
X293500D01*
X222300Y257399D02*
X293500D01*
X222300Y256499D02*
X293500D01*
X222300Y255599D02*
X293500D01*
X222300Y254699D02*
X293500D01*
X222300Y253799D02*
X293500D01*
X222300Y252899D02*
X293500D01*
X222300Y251999D02*
X293500D01*
X222300Y251099D02*
X293500D01*
X222300Y250199D02*
X293500D01*
X222300Y249299D02*
X293500D01*
X222300Y248399D02*
X293500D01*
X222300Y247499D02*
X293500D01*
X222300Y246599D02*
X293500D01*
X222300Y245699D02*
X293500D01*
X222300Y244799D02*
X293500D01*
X222300Y243899D02*
X293500D01*
X222300Y242999D02*
X293500D01*
X222300Y242099D02*
X293500D01*
X222300Y241199D02*
X293500D01*
X222300Y240299D02*
X293500D01*
X222300Y239399D02*
X293500D01*
X222300Y238499D02*
X293500D01*
X222300Y237599D02*
X293500D01*
X222300Y236699D02*
X293500D01*
X222300Y235799D02*
X293500D01*
X222300Y234899D02*
X293500D01*
X222300Y233999D02*
X293500D01*
X222300Y233099D02*
X293500D01*
X222300Y232199D02*
X293500D01*
X222300Y231299D02*
X293500D01*
X222300Y230399D02*
X293500D01*
X222300Y229499D02*
X293500D01*
X222300Y228599D02*
X293500D01*
X222300Y227699D02*
X293500D01*
X222300Y226799D02*
X293500D01*
X222300Y225899D02*
X293500D01*
X222300Y224999D02*
X293500D01*
X222300Y224099D02*
X293500D01*
X222300Y223199D02*
X293500D01*
X222300Y222299D02*
X293500D01*
X222300Y221399D02*
X293500D01*
X222300Y220499D02*
X293500D01*
X222300Y219599D02*
X293500D01*
X222300Y218699D02*
X293500D01*
X222300Y217799D02*
X293500D01*
X222300Y216899D02*
X293500D01*
X222300Y215999D02*
X293500D01*
X222300Y215099D02*
X293500D01*
X222300Y214199D02*
X293500D01*
X222300Y213299D02*
X293500D01*
X222300Y212399D02*
X293500D01*
X222300Y211499D02*
X293500D01*
X222300Y210599D02*
X293500D01*
X222300Y209699D02*
X293500D01*
X222300Y208799D02*
X293500D01*
X222300Y207899D02*
X293500D01*
X222300Y206999D02*
X293500D01*
X222300Y206099D02*
X293500D01*
X222300Y205199D02*
X293500D01*
X222300Y204299D02*
X293500D01*
X222300Y203399D02*
X293500D01*
X222300Y202499D02*
X293500D01*
X222300Y201599D02*
X293500D01*
X222300Y200699D02*
X293500D01*
X222300Y199799D02*
X293500D01*
X222300Y198899D02*
X293500D01*
X222300Y197999D02*
X293500D01*
X222300Y197099D02*
X293500D01*
X222300Y196199D02*
X293500D01*
X222300Y195299D02*
X293500D01*
X222300Y194399D02*
X293500D01*
X222300Y193499D02*
X293500D01*
X222300Y192599D02*
X293500D01*
X222300Y191699D02*
X293500D01*
X222300Y190799D02*
X293500D01*
X222300Y189899D02*
X293500D01*
X222300Y188999D02*
X293500D01*
X222300Y188099D02*
X293500D01*
X222300Y187199D02*
X293500D01*
X222300Y186299D02*
X293500D01*
X222300Y185399D02*
X293500D01*
X222300Y184499D02*
X293500D01*
X222300Y183599D02*
X293500D01*
X222300Y182699D02*
X293500D01*
X222300Y181799D02*
X293500D01*
X222300Y180899D02*
X293500D01*
X222300Y179999D02*
X293500D01*
X222801Y179099D02*
X293500D01*
X223042Y178199D02*
X293500D01*
X222952Y177299D02*
X293500D01*
X222485Y176399D02*
X293500D01*
X220996Y175499D02*
X293500D01*
X214487Y174599D02*
X293500D01*
X214952Y173699D02*
X293500D01*
X215042Y172799D02*
X293500D01*
X214800Y171899D02*
X293500D01*
X214080Y170999D02*
X293500D01*
X206300Y170099D02*
X293500D01*
X206751Y169199D02*
X293500D01*
X207032Y168299D02*
X293500D01*
X206978Y167399D02*
X293500D01*
X206561Y166499D02*
X293500D01*
X205358Y165599D02*
X293500D01*
X174300Y164699D02*
X293500D01*
X174300Y163799D02*
X293500D01*
X174300Y162899D02*
X293500D01*
X174300Y161999D02*
X293500D01*
X174300Y161099D02*
X293500D01*
X174300Y160199D02*
X293500D01*
X174695Y159299D02*
X293500D01*
X175019Y158399D02*
X293500D01*
X175000Y157499D02*
X293500D01*
X174630Y156599D02*
X293500D01*
X173598Y155699D02*
X293500D01*
X171308Y154799D02*
X293500D01*
X171886Y153899D02*
X293500D01*
X172050Y152999D02*
X293500D01*
X171885Y152099D02*
X293500D01*
X171305Y151199D02*
X293500D01*
X129146Y150299D02*
X293500D01*
X103500Y149399D02*
X293500D01*
X103500Y148499D02*
X293500D01*
X103500Y147599D02*
X293500D01*
X103500Y146699D02*
X293500D01*
X129017Y145799D02*
X293500D01*
X129881Y144899D02*
X293500D01*
X130302Y143999D02*
X293500D01*
X130449Y143099D02*
X293500D01*
X130356Y142199D02*
X293500D01*
X130001Y141299D02*
X293500D01*
X129266Y140399D02*
X293500D01*
X103500Y139499D02*
X293500D01*
X103500Y138599D02*
X293500D01*
X103500Y137699D02*
X293500D01*
X103500Y136799D02*
X293500D01*
X128871Y135899D02*
X293500D01*
X129812Y134999D02*
X293500D01*
X130270Y134099D02*
X293500D01*
X130444Y133199D02*
X293500D01*
X130378Y132299D02*
X293500D01*
X130056Y131399D02*
X293500D01*
X129376Y130499D02*
X293500D01*
X127578Y129599D02*
X293500D01*
X103500Y128699D02*
X293500D01*
X103500Y127799D02*
X293500D01*
X232853Y278099D02*
X239013D01*
X234110Y293399D02*
X237756D01*
X234653Y278999D02*
X237213D01*
X235141Y292499D02*
X236726D01*
X235426Y279899D02*
X236440D01*
X235696Y291599D02*
X236170D01*
X235850Y280799D02*
X236016D01*
X224979Y278099D02*
X231139D01*
X226236Y293399D02*
X229882D01*
X226779Y278999D02*
X229339D01*
X227267Y292499D02*
X228851D01*
X227552Y279899D02*
X228566D01*
X227822Y291599D02*
X228296D01*
X227976Y280799D02*
X228142D01*
X221926Y278099D02*
X223265D01*
X218362Y293399D02*
X222008D01*
X219393Y292499D02*
X220977D01*
X219948Y291599D02*
X220422D01*
X214300Y175499D02*
X220004D01*
X214300Y276299D02*
X218700D01*
X214300Y275399D02*
X218700D01*
X214300Y274499D02*
X218700D01*
X214300Y273599D02*
X218700D01*
X214300Y272699D02*
X218700D01*
X214300Y271799D02*
X218700D01*
X214300Y270899D02*
X218700D01*
X214300Y269999D02*
X218700D01*
X214300Y269099D02*
X218700D01*
X214300Y268199D02*
X218700D01*
X214300Y267299D02*
X218700D01*
X214300Y266399D02*
X218700D01*
X214300Y265499D02*
X218700D01*
X214300Y264599D02*
X218700D01*
X214300Y263699D02*
X218700D01*
X214300Y262799D02*
X218700D01*
X214300Y261899D02*
X218700D01*
X214300Y260999D02*
X218700D01*
X214300Y260099D02*
X218700D01*
X214300Y259199D02*
X218700D01*
X214300Y258299D02*
X218700D01*
X214300Y257399D02*
X218700D01*
X214300Y256499D02*
X218700D01*
X214300Y255599D02*
X218700D01*
X214300Y254699D02*
X218700D01*
X214300Y253799D02*
X218700D01*
X214300Y252899D02*
X218700D01*
X214300Y251999D02*
X218700D01*
X214300Y251099D02*
X218700D01*
X214300Y250199D02*
X218700D01*
X214300Y249299D02*
X218700D01*
X214300Y248399D02*
X218700D01*
X214300Y247499D02*
X218700D01*
X214300Y246599D02*
X218700D01*
X214300Y245699D02*
X218700D01*
X214300Y244799D02*
X218700D01*
X214300Y243899D02*
X218700D01*
X214300Y242999D02*
X218700D01*
X214300Y242099D02*
X218700D01*
X214300Y241199D02*
X218700D01*
X214300Y240299D02*
X218700D01*
X214300Y239399D02*
X218700D01*
X214300Y238499D02*
X218700D01*
X214300Y237599D02*
X218700D01*
X214300Y236699D02*
X218700D01*
X214300Y235799D02*
X218700D01*
X214300Y234899D02*
X218700D01*
X214300Y233999D02*
X218700D01*
X214300Y233099D02*
X218700D01*
X214300Y232199D02*
X218700D01*
X214300Y231299D02*
X218700D01*
X214300Y230399D02*
X218700D01*
X214300Y229499D02*
X218700D01*
X214300Y228599D02*
X218700D01*
X214300Y227699D02*
X218700D01*
X214300Y226799D02*
X218700D01*
X214300Y225899D02*
X218700D01*
X214300Y224999D02*
X218700D01*
X214300Y224099D02*
X218700D01*
X214300Y223199D02*
X218700D01*
X214300Y222299D02*
X218700D01*
X214300Y221399D02*
X218700D01*
X214300Y220499D02*
X218700D01*
X214300Y219599D02*
X218700D01*
X214300Y218699D02*
X218700D01*
X214300Y217799D02*
X218700D01*
X214300Y216899D02*
X218700D01*
X214300Y215999D02*
X218700D01*
X214300Y215099D02*
X218700D01*
X214300Y214199D02*
X218700D01*
X214300Y213299D02*
X218700D01*
X214300Y212399D02*
X218700D01*
X214300Y211499D02*
X218700D01*
X214300Y210599D02*
X218700D01*
X214300Y209699D02*
X218700D01*
X214300Y208799D02*
X218700D01*
X214300Y207899D02*
X218700D01*
X214300Y206999D02*
X218700D01*
X214300Y206099D02*
X218700D01*
X214300Y205199D02*
X218700D01*
X214300Y204299D02*
X218700D01*
X214300Y203399D02*
X218700D01*
X214300Y202499D02*
X218700D01*
X214300Y201599D02*
X218700D01*
X214300Y200699D02*
X218700D01*
X214300Y199799D02*
X218700D01*
X214300Y198899D02*
X218700D01*
X214300Y197999D02*
X218700D01*
X214300Y197099D02*
X218700D01*
X214300Y196199D02*
X218700D01*
X214300Y195299D02*
X218700D01*
X214300Y194399D02*
X218700D01*
X214300Y193499D02*
X218700D01*
X214300Y192599D02*
X218700D01*
X214300Y191699D02*
X218700D01*
X214300Y190799D02*
X218700D01*
X214300Y189899D02*
X218700D01*
X214300Y188999D02*
X218700D01*
X214300Y188099D02*
X218700D01*
X214300Y187199D02*
X218700D01*
X214300Y186299D02*
X218700D01*
X214300Y185399D02*
X218700D01*
X214300Y184499D02*
X218700D01*
X214300Y183599D02*
X218700D01*
X214300Y182699D02*
X218700D01*
X214300Y181799D02*
X218700D01*
X214300Y180899D02*
X218700D01*
X214300Y179999D02*
X218700D01*
X214289Y277199D02*
X218568D01*
X217105Y278099D02*
X218566D01*
X214300Y176399D02*
X218515D01*
X214300Y179099D02*
X218199D01*
X214300Y177299D02*
X218048D01*
X214300Y178199D02*
X217958D01*
X213992Y278099D02*
X215391D01*
X210488Y293399D02*
X214134D01*
X211519Y292499D02*
X213103D01*
X212074Y291599D02*
X212548D01*
X206300Y170999D02*
X210920D01*
X206237Y276299D02*
X210700D01*
X206237Y275399D02*
X210700D01*
X206237Y274499D02*
X210700D01*
X206237Y273599D02*
X210700D01*
X206237Y272699D02*
X210700D01*
X206237Y271799D02*
X210700D01*
X206237Y270899D02*
X210700D01*
X206237Y269999D02*
X210700D01*
X206237Y269099D02*
X210700D01*
X206237Y268199D02*
X210700D01*
X206237Y267299D02*
X210700D01*
X206237Y266399D02*
X210700D01*
X206237Y265499D02*
X210700D01*
X206237Y264599D02*
X210700D01*
X206237Y263699D02*
X210700D01*
X206237Y262799D02*
X210700D01*
X206237Y261899D02*
X210700D01*
X206237Y260999D02*
X210700D01*
X206237Y260099D02*
X210700D01*
X206237Y259199D02*
X210700D01*
X206237Y258299D02*
X210700D01*
X206237Y257399D02*
X210700D01*
X206237Y256499D02*
X210700D01*
X206237Y255599D02*
X210700D01*
X206237Y254699D02*
X210700D01*
X206237Y253799D02*
X210700D01*
X206237Y252899D02*
X210700D01*
X206237Y251999D02*
X210700D01*
X206237Y251099D02*
X210700D01*
X206237Y250199D02*
X210700D01*
X206237Y249299D02*
X210700D01*
X206237Y248399D02*
X210700D01*
X206237Y247499D02*
X210700D01*
X206237Y246599D02*
X210700D01*
X206237Y245699D02*
X210700D01*
X206237Y244799D02*
X210700D01*
X206237Y243899D02*
X210700D01*
X206237Y242999D02*
X210700D01*
X206237Y242099D02*
X210700D01*
X206237Y241199D02*
X210700D01*
X206237Y240299D02*
X210700D01*
X206237Y239399D02*
X210700D01*
X206237Y238499D02*
X210700D01*
X206237Y237599D02*
X210700D01*
X206237Y236699D02*
X210700D01*
X206237Y235799D02*
X210700D01*
X206237Y234899D02*
X210700D01*
X206237Y233999D02*
X210700D01*
X206237Y233099D02*
X210700D01*
X206237Y232199D02*
X210700D01*
X206237Y231299D02*
X210700D01*
X206237Y230399D02*
X210700D01*
X206237Y229499D02*
X210700D01*
X206237Y228599D02*
X210700D01*
X206237Y227699D02*
X210700D01*
X206237Y226799D02*
X210700D01*
X206300Y225899D02*
X210700D01*
X206300Y224999D02*
X210700D01*
X206300Y224099D02*
X210700D01*
X206300Y223199D02*
X210700D01*
X206300Y222299D02*
X210700D01*
X206300Y221399D02*
X210700D01*
X206300Y220499D02*
X210700D01*
X206300Y219599D02*
X210700D01*
X206300Y218699D02*
X210700D01*
X206300Y217799D02*
X210700D01*
X206300Y216899D02*
X210700D01*
X206300Y215999D02*
X210700D01*
X206300Y215099D02*
X210700D01*
X206300Y214199D02*
X210700D01*
X206300Y213299D02*
X210700D01*
X206300Y212399D02*
X210700D01*
X206300Y211499D02*
X210700D01*
X206300Y210599D02*
X210700D01*
X206300Y209699D02*
X210700D01*
X206300Y208799D02*
X210700D01*
X206300Y207899D02*
X210700D01*
X206300Y206999D02*
X210700D01*
X206300Y206099D02*
X210700D01*
X206300Y205199D02*
X210700D01*
X206300Y204299D02*
X210700D01*
X206300Y203399D02*
X210700D01*
X206300Y202499D02*
X210700D01*
X206300Y201599D02*
X210700D01*
X206300Y200699D02*
X210700D01*
X206300Y199799D02*
X210700D01*
X206300Y198899D02*
X210700D01*
X206300Y197999D02*
X210700D01*
X206300Y197099D02*
X210700D01*
X206300Y196199D02*
X210700D01*
X206300Y195299D02*
X210700D01*
X206300Y194399D02*
X210700D01*
X206300Y193499D02*
X210700D01*
X206300Y192599D02*
X210700D01*
X206300Y191699D02*
X210700D01*
X206300Y190799D02*
X210700D01*
X206300Y189899D02*
X210700D01*
X206300Y188999D02*
X210700D01*
X206300Y188099D02*
X210700D01*
X206300Y187199D02*
X210700D01*
X206300Y186299D02*
X210700D01*
X206300Y185399D02*
X210700D01*
X206300Y184499D02*
X210700D01*
X206300Y183599D02*
X210700D01*
X206300Y182699D02*
X210700D01*
X206300Y181799D02*
X210700D01*
X206300Y180899D02*
X210700D01*
X206300Y179999D02*
X210700D01*
X206300Y179099D02*
X210700D01*
X206300Y178199D02*
X210700D01*
X206300Y177299D02*
X210700D01*
X206300Y176399D02*
X210700D01*
X206300Y175499D02*
X210700D01*
X209231Y278099D02*
X210692D01*
X206218Y277199D02*
X210692D01*
X206300Y174599D02*
X210513D01*
X206300Y171899D02*
X210200D01*
X206300Y173699D02*
X210048D01*
X206300Y172799D02*
X209958D01*
X206087Y278099D02*
X207517D01*
X202614Y293399D02*
X206260D01*
X203645Y292499D02*
X205229D01*
X204200Y291599D02*
X204674D01*
X174300Y165599D02*
X203642D01*
X174300Y224999D02*
X202700D01*
X174300Y224099D02*
X202700D01*
X174300Y223199D02*
X202700D01*
X174300Y222299D02*
X202700D01*
X174300Y221399D02*
X202700D01*
X174300Y220499D02*
X202700D01*
X174300Y219599D02*
X202700D01*
X174300Y218699D02*
X202700D01*
X174300Y217799D02*
X202700D01*
X174300Y216899D02*
X202700D01*
X174300Y215999D02*
X202700D01*
X200948Y215099D02*
X202700D01*
X201751Y214199D02*
X202700D01*
X202032Y213299D02*
X202700D01*
X201978Y212399D02*
X202700D01*
X201561Y211499D02*
X202700D01*
X200358Y210599D02*
X202700D01*
X174300Y209699D02*
X202700D01*
X174300Y208799D02*
X202700D01*
X174300Y207899D02*
X202700D01*
X174300Y206999D02*
X202700D01*
X174300Y206099D02*
X202700D01*
X174300Y205199D02*
X202700D01*
X174300Y204299D02*
X202700D01*
X174300Y203399D02*
X202700D01*
X174300Y202499D02*
X202700D01*
X174300Y201599D02*
X202700D01*
X174300Y200699D02*
X202700D01*
X174300Y199799D02*
X202700D01*
X174300Y198899D02*
X202700D01*
X174300Y197999D02*
X202700D01*
X174300Y197099D02*
X202700D01*
X174300Y196199D02*
X202700D01*
X174300Y195299D02*
X202700D01*
X174300Y194399D02*
X202700D01*
X174300Y193499D02*
X202700D01*
X174300Y192599D02*
X202700D01*
X174300Y191699D02*
X202700D01*
X174300Y190799D02*
X202700D01*
X174300Y189899D02*
X202700D01*
X174300Y188999D02*
X202700D01*
X174300Y188099D02*
X202700D01*
X174300Y187199D02*
X202700D01*
X174300Y186299D02*
X202700D01*
X174300Y185399D02*
X202700D01*
X174300Y184499D02*
X202700D01*
X174300Y183599D02*
X202700D01*
X174300Y182699D02*
X202700D01*
X174300Y181799D02*
X202700D01*
X174300Y180899D02*
X202700D01*
X174300Y179999D02*
X202700D01*
X174300Y179099D02*
X202700D01*
X174300Y178199D02*
X202700D01*
X174300Y177299D02*
X202700D01*
X174300Y176399D02*
X202700D01*
X174300Y175499D02*
X202700D01*
X174300Y174599D02*
X202700D01*
X174300Y173699D02*
X202700D01*
X174300Y172799D02*
X202700D01*
X174300Y171899D02*
X202700D01*
X174300Y170999D02*
X202700D01*
X174300Y170099D02*
X202700D01*
X174300Y225899D02*
X202640D01*
X191202Y234899D02*
X202637D01*
X191846Y233999D02*
X202637D01*
X192048Y233099D02*
X202637D01*
X191921Y232199D02*
X202637D01*
X191400Y231299D02*
X202637D01*
X174300Y230399D02*
X202637D01*
X174300Y229499D02*
X202637D01*
X174300Y228599D02*
X202637D01*
X174300Y227699D02*
X202637D01*
X174300Y226799D02*
X202637D01*
X174300Y166499D02*
X202439D01*
X174300Y169199D02*
X202249D01*
X174300Y167399D02*
X202022D01*
X174300Y168299D02*
X201968D01*
X180787Y235799D02*
X200213D01*
X186358Y210599D02*
X198642D01*
X194740Y293399D02*
X198386D01*
X186948Y215099D02*
X198052D01*
X195771Y292499D02*
X197355D01*
X196326Y291599D02*
X196800D01*
X186866Y293399D02*
X190512D01*
X187897Y292499D02*
X189481D01*
X188452Y291599D02*
X188926D01*
X177202Y234899D02*
X187798D01*
X185609Y278099D02*
X186850D01*
X178678Y277199D02*
X186711D01*
X178678Y276299D02*
X186700D01*
X178678Y275399D02*
X186700D01*
X178678Y274499D02*
X186700D01*
X178678Y273599D02*
X186700D01*
X178678Y272699D02*
X186700D01*
X178678Y271799D02*
X186700D01*
X178678Y270899D02*
X186700D01*
X178678Y269999D02*
X186700D01*
X178678Y269099D02*
X186700D01*
X178678Y268199D02*
X186700D01*
X178676Y267299D02*
X186700D01*
X178388Y266399D02*
X186700D01*
X177544Y265499D02*
X186700D01*
X176644Y264599D02*
X186700D01*
X175744Y263699D02*
X186700D01*
X174844Y262799D02*
X186700D01*
X173944Y261899D02*
X186700D01*
X163580Y260999D02*
X186700D01*
X157800Y260099D02*
X186700D01*
X157800Y259199D02*
X186700D01*
X157800Y258299D02*
X186700D01*
X157800Y257399D02*
X186700D01*
X157800Y256499D02*
X186453D01*
X157800Y255599D02*
X185553D01*
X157800Y254699D02*
X184653D01*
X174300Y210599D02*
X184642D01*
X174300Y215099D02*
X184052D01*
X178678Y278099D02*
X183895D01*
X157800Y253799D02*
X183753D01*
X174300Y211499D02*
X183439D01*
X174300Y214199D02*
X183249D01*
X174300Y212399D02*
X183022D01*
X174300Y213299D02*
X182968D01*
X157800Y252899D02*
X182853D01*
X178992Y293399D02*
X182638D01*
X179535Y278999D02*
X182095D01*
X157800Y251999D02*
X181953D01*
X180023Y292499D02*
X181607D01*
X180308Y279899D02*
X181322D01*
X157800Y251099D02*
X181053D01*
X180578Y291599D02*
X181052D01*
X180732Y280799D02*
X180898D01*
X157800Y250199D02*
X180153D01*
X157800Y249299D02*
X179253D01*
X157800Y248399D02*
X178353D01*
X174844Y235799D02*
X178213D01*
X157800Y247499D02*
X177453D01*
X175744Y236699D02*
X177307D01*
X176644Y237599D02*
X176982D01*
X157800Y246599D02*
X176553D01*
X157800Y245699D02*
X175653D01*
X169861Y278099D02*
X175078D01*
X157800Y277199D02*
X175078D01*
X157800Y276299D02*
X175078D01*
X157800Y275399D02*
X175078D01*
X157800Y274499D02*
X175078D01*
X157800Y273599D02*
X175078D01*
X157800Y272699D02*
X175078D01*
X157800Y271799D02*
X175078D01*
X157800Y270899D02*
X175078D01*
X157800Y269999D02*
X175078D01*
X157800Y269099D02*
X175078D01*
X157800Y268199D02*
X175078D01*
X171118Y293399D02*
X174764D01*
X157800Y244799D02*
X174753D01*
X157800Y267299D02*
X174253D01*
X171661Y278999D02*
X174221D01*
X157800Y243899D02*
X173853D01*
X172149Y292499D02*
X173733D01*
X172434Y279899D02*
X173448D01*
X157800Y266399D02*
X173353D01*
X172704Y291599D02*
X173178D01*
X172858Y280799D02*
X173024D01*
X157800Y242999D02*
X172953D01*
X162509Y265499D02*
X172453D01*
X157800Y242099D02*
X172053D01*
X171300Y155699D02*
X171402D01*
X157800Y241199D02*
X171153D01*
X157800Y240299D02*
X170253D01*
X157800Y239399D02*
X169353D01*
X157800Y238499D02*
X168453D01*
X161987Y278099D02*
X168147D01*
X157800Y237599D02*
X167802D01*
X157800Y236699D02*
X167700D01*
X157800Y235799D02*
X167700D01*
X157800Y234899D02*
X167700D01*
X157800Y233999D02*
X167700D01*
X157800Y233099D02*
X167700D01*
X157800Y232199D02*
X167700D01*
X157800Y231299D02*
X167700D01*
X157800Y230399D02*
X167700D01*
X157800Y229499D02*
X167700D01*
X157800Y228599D02*
X167700D01*
X157800Y227699D02*
X167700D01*
X157800Y226799D02*
X167700D01*
X157800Y225899D02*
X167700D01*
X157800Y224999D02*
X167700D01*
X157800Y224099D02*
X167700D01*
X157800Y223199D02*
X167700D01*
X157800Y222299D02*
X167700D01*
X157800Y221399D02*
X167700D01*
X157800Y220499D02*
X167700D01*
X157987Y219599D02*
X167700D01*
X158452Y218699D02*
X167700D01*
X158542Y217799D02*
X167700D01*
X158300Y216899D02*
X167700D01*
X157800Y215999D02*
X167700D01*
X157800Y215099D02*
X167700D01*
X157800Y214199D02*
X167700D01*
X157800Y213299D02*
X167700D01*
X157800Y212399D02*
X167700D01*
X157800Y211499D02*
X167700D01*
X157800Y210599D02*
X167700D01*
X157902Y209699D02*
X167700D01*
X158422Y208799D02*
X167700D01*
X158548Y207899D02*
X167700D01*
X158345Y206999D02*
X167700D01*
X157699Y206099D02*
X167700D01*
X129659Y205199D02*
X167700D01*
X130196Y204299D02*
X167700D01*
X130427Y203399D02*
X167700D01*
X130413Y202499D02*
X167700D01*
X130153Y201599D02*
X167700D01*
X129570Y200699D02*
X167700D01*
X128286Y199799D02*
X167700D01*
X103500Y198899D02*
X167700D01*
X103500Y197999D02*
X167700D01*
X103500Y197099D02*
X167700D01*
X128293Y196199D02*
X167700D01*
X129573Y195299D02*
X167700D01*
X130154Y194399D02*
X167700D01*
X130414Y193499D02*
X167700D01*
X130427Y192599D02*
X167700D01*
X130195Y191699D02*
X167700D01*
X129656Y190799D02*
X167700D01*
X128511Y189899D02*
X167700D01*
X103500Y188999D02*
X167700D01*
X103500Y188099D02*
X167700D01*
X103500Y187199D02*
X167700D01*
X128011Y186299D02*
X167700D01*
X129480Y185399D02*
X167700D01*
X130108Y184499D02*
X167700D01*
X130398Y183599D02*
X167700D01*
X130437Y182699D02*
X167700D01*
X130234Y181799D02*
X167700D01*
X129736Y180899D02*
X167700D01*
X128701Y179999D02*
X167700D01*
X103500Y179099D02*
X167700D01*
X103500Y178199D02*
X167700D01*
X103500Y177299D02*
X167700D01*
X127593Y176399D02*
X167700D01*
X129379Y175499D02*
X167700D01*
X130057Y174599D02*
X167700D01*
X130379Y173699D02*
X167700D01*
X130444Y172799D02*
X167700D01*
X130270Y171899D02*
X167700D01*
X129810Y170999D02*
X167700D01*
X128867Y170099D02*
X167700D01*
X103500Y169199D02*
X167700D01*
X103500Y168299D02*
X167700D01*
X103500Y167399D02*
X167700D01*
X103500Y166499D02*
X167700D01*
X129269Y165599D02*
X167700D01*
X130003Y164699D02*
X167700D01*
X130356Y163799D02*
X167700D01*
X130449Y162899D02*
X167700D01*
X130302Y161999D02*
X167700D01*
X129879Y161099D02*
X167700D01*
X129014Y160199D02*
X167700D01*
X103500Y159299D02*
X167700D01*
X103500Y158399D02*
X167700D01*
X103500Y157499D02*
X167700D01*
X103500Y156599D02*
X167700D01*
X129149Y155699D02*
X167700D01*
X129942Y151199D02*
X167695D01*
X129944Y154799D02*
X167692D01*
X130330Y152099D02*
X167115D01*
X130331Y153899D02*
X167114D01*
X130450Y152999D02*
X166950D01*
X163244Y293399D02*
X166890D01*
X163787Y278999D02*
X166347D01*
X164274Y292499D02*
X165859D01*
X164560Y279899D02*
X165574D01*
X164830Y291599D02*
X165304D01*
X164984Y280799D02*
X165150D01*
X157800Y265499D02*
X161491D01*
X157800Y260999D02*
X160420D01*
X157800Y278099D02*
X160273D01*
X157800Y264599D02*
X160013D01*
X157800Y261899D02*
X159700D01*
X157800Y263699D02*
X159548D01*
X157800Y262799D02*
X159458D01*
X157800Y278999D02*
X158473D01*
X103500Y296099D02*
X157553D01*
X103500Y295199D02*
X156653D01*
X103500Y294299D02*
X155753D01*
X103500Y293399D02*
X154853D01*
X128517Y206099D02*
X154301D01*
X103500Y292499D02*
X154270D01*
X103500Y291599D02*
X154200D01*
X103500Y290699D02*
X154200D01*
X103500Y289799D02*
X154200D01*
X103500Y288899D02*
X154200D01*
X103500Y287999D02*
X154200D01*
X103500Y287099D02*
X154200D01*
X103500Y286199D02*
X154200D01*
X103500Y285299D02*
X154200D01*
X103500Y284399D02*
X154200D01*
X103500Y283499D02*
X154200D01*
X103500Y282599D02*
X154200D01*
X103500Y281699D02*
X154200D01*
X103500Y280799D02*
X154200D01*
X103500Y279899D02*
X154200D01*
X103500Y278999D02*
X154200D01*
X103500Y278099D02*
X154200D01*
X103500Y277199D02*
X154200D01*
X103500Y276299D02*
X154200D01*
X103500Y275399D02*
X154200D01*
X103500Y274499D02*
X154200D01*
X103500Y273599D02*
X154200D01*
X103500Y272699D02*
X154200D01*
X103500Y271799D02*
X154200D01*
X103500Y270899D02*
X154200D01*
X103500Y269999D02*
X154200D01*
X103500Y269099D02*
X154200D01*
X103500Y268199D02*
X154200D01*
X103500Y267299D02*
X154200D01*
X127593Y266399D02*
X154200D01*
X129379Y265499D02*
X154200D01*
X130057Y264599D02*
X154200D01*
X130379Y263699D02*
X154200D01*
X130444Y262799D02*
X154200D01*
X130270Y261899D02*
X154200D01*
X129810Y260999D02*
X154200D01*
X128867Y260099D02*
X154200D01*
X103500Y259199D02*
X154200D01*
X103500Y258299D02*
X154200D01*
X103500Y257399D02*
X154200D01*
X103500Y256499D02*
X154200D01*
X129269Y255599D02*
X154200D01*
X130003Y254699D02*
X154200D01*
X130356Y253799D02*
X154200D01*
X130449Y252899D02*
X154200D01*
X130302Y251999D02*
X154200D01*
X129879Y251099D02*
X154200D01*
X129014Y250199D02*
X154200D01*
X103500Y249299D02*
X154200D01*
X103500Y248399D02*
X154200D01*
X103500Y247499D02*
X154200D01*
X103500Y246599D02*
X154200D01*
X129149Y245699D02*
X154200D01*
X129944Y244799D02*
X154200D01*
X130331Y243899D02*
X154200D01*
X130450Y242999D02*
X154200D01*
X130330Y242099D02*
X154200D01*
X129942Y241199D02*
X154200D01*
X129146Y240299D02*
X154200D01*
X103500Y239399D02*
X154200D01*
X103500Y238499D02*
X154200D01*
X103500Y237599D02*
X154200D01*
X103500Y236699D02*
X154200D01*
X129017Y235799D02*
X154200D01*
X129881Y234899D02*
X154200D01*
X130302Y233999D02*
X154200D01*
X130449Y233099D02*
X154200D01*
X130356Y232199D02*
X154200D01*
X130001Y231299D02*
X154200D01*
X129266Y230399D02*
X154200D01*
X103500Y229499D02*
X154200D01*
X103500Y228599D02*
X154200D01*
X103500Y227699D02*
X154200D01*
X103500Y226799D02*
X154200D01*
X128871Y225899D02*
X154200D01*
X129812Y224999D02*
X154200D01*
X130270Y224099D02*
X154200D01*
X130444Y223199D02*
X154200D01*
X130378Y222299D02*
X154200D01*
X130056Y221399D02*
X154200D01*
X129376Y220499D02*
X154200D01*
X128706Y215999D02*
X154200D01*
X129738Y215099D02*
X154200D01*
X130235Y214199D02*
X154200D01*
X130437Y213299D02*
X154200D01*
X130397Y212399D02*
X154200D01*
X130106Y211499D02*
X154200D01*
X129477Y210599D02*
X154200D01*
X128002Y209699D02*
X154098D01*
X127578Y219599D02*
X154013D01*
X103500Y216899D02*
X153700D01*
X103500Y206999D02*
X153655D01*
X103500Y208799D02*
X153578D01*
X103500Y218699D02*
X153548D01*
X103500Y217799D02*
X153458D01*
X103500Y207899D02*
X153452D01*
X117578Y219599D02*
X126422D01*
X117578Y129599D02*
X126422D01*
X117593Y266399D02*
X126407D01*
X117593Y176399D02*
X126407D01*
X118002Y209699D02*
X125998D01*
X118002Y119699D02*
X125998D01*
X118011Y186299D02*
X125989D01*
X118286Y199799D02*
X125714D01*
X118293Y196199D02*
X125707D01*
X118511Y189899D02*
X125489D01*
X118517Y206099D02*
X125483D01*
X118701Y179999D02*
X125299D01*
X118706Y215999D02*
X125294D01*
X118706Y125999D02*
X125294D01*
X118867Y260099D02*
X125133D01*
X118867Y170099D02*
X125133D01*
X118871Y225899D02*
X125129D01*
X118871Y135899D02*
X125129D01*
X119014Y250199D02*
X124986D01*
X119014Y160199D02*
X124986D01*
X119017Y235799D02*
X124983D01*
X119017Y145799D02*
X124983D01*
X119146Y240299D02*
X124854D01*
X119146Y150299D02*
X124854D01*
X119149Y245699D02*
X124851D01*
X119149Y155699D02*
X124851D01*
X119266Y230399D02*
X124734D01*
X119266Y140399D02*
X124734D01*
X119269Y255599D02*
X124731D01*
X119269Y165599D02*
X124731D01*
X119376Y220499D02*
X124624D01*
X119376Y130499D02*
X124624D01*
X119379Y265499D02*
X124621D01*
X119379Y175499D02*
X124621D01*
X119477Y210599D02*
X124523D01*
X119477Y120599D02*
X124523D01*
X119480Y185399D02*
X124520D01*
X119570Y200699D02*
X124430D01*
X119573Y195299D02*
X124427D01*
X119656Y190799D02*
X124344D01*
X119659Y205199D02*
X124341D01*
X119736Y180899D02*
X124264D01*
X119738Y215099D02*
X124262D01*
X119738Y125099D02*
X124262D01*
X119810Y260999D02*
X124190D01*
X119810Y170999D02*
X124190D01*
X119812Y224999D02*
X124188D01*
X119812Y134999D02*
X124188D01*
X119879Y251099D02*
X124121D01*
X119879Y161099D02*
X124121D01*
X119881Y234899D02*
X124119D01*
X119881Y144899D02*
X124119D01*
X119942Y241199D02*
X124058D01*
X119942Y151199D02*
X124058D01*
X119944Y244799D02*
X124056D01*
X119944Y154799D02*
X124056D01*
X120001Y231299D02*
X123999D01*
X120001Y141299D02*
X123999D01*
X120003Y254699D02*
X123997D01*
X120003Y164699D02*
X123997D01*
X120056Y221399D02*
X123944D01*
X120056Y131399D02*
X123944D01*
X120057Y264599D02*
X123943D01*
X120057Y174599D02*
X123943D01*
X120106Y211499D02*
X123894D01*
X120106Y121499D02*
X123894D01*
X120108Y184499D02*
X123892D01*
X120153Y201599D02*
X123847D01*
X120154Y194399D02*
X123846D01*
X120195Y191699D02*
X123805D01*
X120196Y204299D02*
X123804D01*
X120234Y181799D02*
X123766D01*
X120235Y214199D02*
X123765D01*
X120235Y124199D02*
X123765D01*
X120270Y261899D02*
X123730D01*
X120270Y171899D02*
X123730D01*
X120270Y224099D02*
X123730D01*
X120270Y134099D02*
X123730D01*
X120302Y251999D02*
X123698D01*
X120302Y161999D02*
X123698D01*
X120302Y233999D02*
X123698D01*
X120302Y143999D02*
X123698D01*
X120330Y242099D02*
X123670D01*
X120330Y152099D02*
X123670D01*
X120331Y243899D02*
X123669D01*
X120331Y153899D02*
X123669D01*
X120356Y232199D02*
X123644D01*
X120356Y142199D02*
X123644D01*
X120356Y253799D02*
X123644D01*
X120356Y163799D02*
X123644D01*
X120378Y222299D02*
X123622D01*
X120378Y132299D02*
X123622D01*
X120379Y263699D02*
X123621D01*
X120379Y173699D02*
X123621D01*
X120397Y212399D02*
X123603D01*
X120397Y122399D02*
X123603D01*
X120398Y183599D02*
X123602D01*
X120413Y202499D02*
X123587D01*
X120414Y193499D02*
X123586D01*
X120427Y192599D02*
X123573D01*
X120427Y203399D02*
X123573D01*
X120437Y182699D02*
X123563D01*
X120437Y213299D02*
X123563D01*
X120437Y123299D02*
X123563D01*
X120444Y262799D02*
X123556D01*
X120444Y172799D02*
X123556D01*
X120444Y223199D02*
X123556D01*
X120444Y133199D02*
X123556D01*
X120449Y252899D02*
X123551D01*
X120449Y162899D02*
X123551D01*
X120449Y233099D02*
X123551D01*
X120449Y143099D02*
X123551D01*
X120450Y242999D02*
X123550D01*
X120450Y152999D02*
X123550D01*
X103500Y219599D02*
X116422D01*
X103500Y129599D02*
X116422D01*
X103500Y266399D02*
X116407D01*
X103500Y176399D02*
X116407D01*
X103500Y209699D02*
X115998D01*
X103500Y119699D02*
X115998D01*
X103500Y186299D02*
X115989D01*
X103500Y199799D02*
X115714D01*
X103500Y196199D02*
X115707D01*
X103500Y189899D02*
X115489D01*
X103500Y206099D02*
X115483D01*
X103500Y179999D02*
X115299D01*
X103500Y215999D02*
X115294D01*
X103500Y125999D02*
X115294D01*
X103500Y260099D02*
X115133D01*
X103500Y170099D02*
X115133D01*
X103500Y225899D02*
X115129D01*
X103500Y135899D02*
X115129D01*
X103500Y250199D02*
X114986D01*
X103500Y160199D02*
X114986D01*
X103500Y235799D02*
X114983D01*
X103500Y145799D02*
X114983D01*
X103500Y240299D02*
X114854D01*
X103500Y150299D02*
X114854D01*
X103500Y245699D02*
X114851D01*
X103500Y155699D02*
X114851D01*
X103500Y230399D02*
X114734D01*
X103500Y140399D02*
X114734D01*
X103500Y255599D02*
X114731D01*
X103500Y165599D02*
X114731D01*
X103500Y220499D02*
X114624D01*
X103500Y130499D02*
X114624D01*
X103500Y265499D02*
X114621D01*
X103500Y175499D02*
X114621D01*
X103500Y210599D02*
X114523D01*
X103500Y120599D02*
X114523D01*
X103500Y185399D02*
X114520D01*
X103500Y200699D02*
X114430D01*
X103500Y195299D02*
X114427D01*
X103500Y190799D02*
X114344D01*
X103500Y205199D02*
X114341D01*
X103500Y180899D02*
X114264D01*
X103500Y215099D02*
X114262D01*
X103500Y125099D02*
X114262D01*
X103500Y260999D02*
X114190D01*
X103500Y170999D02*
X114190D01*
X103500Y224999D02*
X114188D01*
X103500Y134999D02*
X114188D01*
X103500Y251099D02*
X114121D01*
X103500Y161099D02*
X114121D01*
X103500Y234899D02*
X114119D01*
X103500Y144899D02*
X114119D01*
X103500Y241199D02*
X114058D01*
X103500Y151199D02*
X114058D01*
X103500Y244799D02*
X114056D01*
X103500Y154799D02*
X114056D01*
X103500Y231299D02*
X113999D01*
X103500Y141299D02*
X113999D01*
X103500Y254699D02*
X113997D01*
X103500Y164699D02*
X113997D01*
X103500Y221399D02*
X113944D01*
X103500Y131399D02*
X113944D01*
X103500Y264599D02*
X113943D01*
X103500Y174599D02*
X113943D01*
X103500Y211499D02*
X113894D01*
X103500Y121499D02*
X113894D01*
X103500Y184499D02*
X113892D01*
X103500Y201599D02*
X113847D01*
X103500Y194399D02*
X113846D01*
X103500Y191699D02*
X113805D01*
X103500Y204299D02*
X113804D01*
X103500Y181799D02*
X113766D01*
X103500Y214199D02*
X113765D01*
X103500Y124199D02*
X113765D01*
X103500Y261899D02*
X113730D01*
X103500Y171899D02*
X113730D01*
X103500Y224099D02*
X113730D01*
X103500Y134099D02*
X113730D01*
X103500Y251999D02*
X113698D01*
X103500Y161999D02*
X113698D01*
X103500Y233999D02*
X113698D01*
X103500Y143999D02*
X113698D01*
X103500Y242099D02*
X113670D01*
X103500Y152099D02*
X113670D01*
X103500Y243899D02*
X113669D01*
X103500Y153899D02*
X113669D01*
X103500Y232199D02*
X113644D01*
X103500Y142199D02*
X113644D01*
X103500Y253799D02*
X113644D01*
X103500Y163799D02*
X113644D01*
X103500Y222299D02*
X113622D01*
X103500Y132299D02*
X113622D01*
X103500Y263699D02*
X113621D01*
X103500Y173699D02*
X113621D01*
X103500Y212399D02*
X113603D01*
X103500Y122399D02*
X113603D01*
X103500Y183599D02*
X113602D01*
X103500Y202499D02*
X113587D01*
X103500Y193499D02*
X113586D01*
X103500Y192599D02*
X113573D01*
X103500Y203399D02*
X113573D01*
X103500Y182699D02*
X113563D01*
X103500Y213299D02*
X113563D01*
X103500Y123299D02*
X113563D01*
X103500Y262799D02*
X113556D01*
X103500Y172799D02*
X113556D01*
X103500Y223199D02*
X113556D01*
X103500Y133199D02*
X113556D01*
X103500Y252899D02*
X113551D01*
X103500Y162899D02*
X113551D01*
X103500Y233099D02*
X113551D01*
X103500Y143099D02*
X113551D01*
X103500Y242999D02*
X113550D01*
X103500Y152999D02*
X113550D01*
X157800Y286177D02*
X159608D01*
X157800Y285277D02*
X158656D01*
X157800Y287077D02*
X158254D01*
X162849Y285737D02*
X167285D01*
X163487Y286637D02*
X166646D01*
X164089Y284837D02*
X166045D01*
X164399Y287537D02*
X165735D01*
X164727Y283937D02*
X165407D01*
X164898Y288437D02*
X165236D01*
G54D20*
X188500Y277000D02*
Y279469D01*
X188689Y279658*
Y286000*
X192626Y289937*
X196500Y277000D02*
Y279532D01*
X196563Y279595*
Y286000*
X200500Y289937*
X204437Y276937D02*
Y286000D01*
X208374Y289937*
X212500Y277000D02*
X212342Y277158D01*
Y286031*
X216248Y289937*
X220500Y277000D02*
X220216Y277284D01*
Y286031*
X224122Y289937*
G54D21*
X104850Y104850D03*
X124850D03*
X144850D03*
X164850D03*
X184850D03*
X204850D03*
X224850D03*
X244850D03*
X264850D03*
X284850D03*
X304850D03*
X324850D03*
X344850D03*
X364850D03*
X384850D03*
X404850D03*
X424850D03*
X444850D03*
X144850Y124850D03*
X164850D03*
X184850D03*
X204850D03*
X224850D03*
X244850D03*
X264850D03*
X284850D03*
X304850D03*
X324850D03*
X344850D03*
X364850D03*
X384850D03*
X404850D03*
X424850D03*
X444850D03*
X144850Y144850D03*
X164850D03*
X184850D03*
X204850D03*
X224850D03*
X244850D03*
X264850D03*
X284850D03*
X297850Y139850D03*
X308000Y140000D03*
X318000D03*
X328000D03*
X338000D03*
X348000D03*
X357850Y139850D03*
X367850D03*
X377850D03*
X387850D03*
X393850D03*
X407850D03*
X437850D03*
X169500Y153000D03*
X172500Y158000D03*
X224850Y164850D03*
X244850D03*
X284850D03*
X298000Y160000D03*
X308000D03*
X318000D03*
X328000D03*
X338000D03*
X348439Y159850D03*
X358439D03*
X368439D03*
X378439D03*
X388439D03*
X394439D03*
X408439D03*
X438000Y160000D03*
X204500Y168000D03*
X212500Y173000D03*
X220500Y178000D03*
X224850Y184850D03*
X244850D03*
X284850D03*
X298000Y180000D03*
X308000D03*
X318000D03*
X328000D03*
X338439Y179850D03*
X348439D03*
X358439D03*
X368439D03*
X378439D03*
X388439D03*
X394439D03*
X408439D03*
X438000Y180000D03*
X224850Y204850D03*
X244850D03*
X284850D03*
X298000Y200000D03*
X308000D03*
X318000D03*
X328000D03*
X338439Y199850D03*
X348439D03*
X358439D03*
X368439D03*
X378439D03*
X388439D03*
X394439D03*
X408439D03*
X437000Y200000D03*
X156000Y208000D03*
X185500Y213000D03*
X199500D03*
X298000Y210000D03*
X308000D03*
X318000D03*
X328000D03*
X338439Y209850D03*
X348439D03*
X358439D03*
X368439D03*
X378439D03*
X388439D03*
X156000Y218000D03*
X184850Y224850D03*
X244850D03*
X284850D03*
X175500Y233000D03*
X189500D03*
X298000Y230000D03*
X308000D03*
X318000D03*
X328000D03*
X338000D03*
X348000D03*
X358000D03*
X368000D03*
X378000D03*
X388000D03*
X398000D03*
X408000D03*
X425000D03*
X438000D03*
X179500Y238000D03*
X201500D03*
X284850Y244850D03*
X298000Y240000D03*
X308000D03*
X318000D03*
X328000D03*
X338000D03*
X348000D03*
X358000D03*
X368000D03*
X378000D03*
X388000D03*
X398000D03*
X408000D03*
X425000D03*
X438000D03*
X297850Y252850D03*
X317850D03*
X337850D03*
X347850D03*
X367850D03*
X387850D03*
X407850D03*
X424000Y253000D03*
X437850Y252850D03*
X162000Y263000D03*
X264850Y264850D03*
X284850D03*
X297850Y267850D03*
X317850D03*
X337850D03*
X347850D03*
X367850D03*
X387850D03*
X104850Y284850D03*
X124850D03*
X144850D03*
X264850D03*
X284850D03*
X297850Y282850D03*
X317850D03*
X337850D03*
X347850D03*
X367850D03*
X387850D03*
X407850D03*
X342000Y292000D03*
G54D22*
X429562Y161000D02*
G03X429562I-6562J0D01*
G01X378200Y155000D02*
G03X378200I-3200J0D01*
G01Y165000D02*
G03X378200I-3200J0D01*
G01X368200Y155000D02*
G03X368200I-3200J0D01*
G01Y165000D02*
G03X368200I-3200J0D01*
G01X338200Y155000D02*
G03X338200I-3200J0D01*
G01Y165000D02*
G03X338200I-3200J0D01*
G01X328200Y155000D02*
G03X328200I-3200J0D01*
G01Y165000D02*
G03X328200I-3200J0D01*
G01X429562Y181000D02*
G03X429562I-6562J0D01*
G01X378200Y175000D02*
G03X378200I-3200J0D01*
G01Y185000D02*
G03X378200I-3200J0D01*
G01X368200Y175000D02*
G03X368200I-3200J0D01*
G01Y185000D02*
G03X368200I-3200J0D01*
G01X338200Y175000D02*
G03X338200I-3200J0D01*
G01Y185000D02*
G03X338200I-3200J0D01*
G01X328200Y175000D02*
G03X328200I-3200J0D01*
G01Y185000D02*
G03X328200I-3200J0D01*
G01X440300Y230000D02*
G03X440300I-2300J0D01*
G01Y240000D02*
G03X440300I-2300J0D01*
G01X440150Y252850D02*
G03X440150I-2300J0D01*
G01X429562Y201000D02*
G03X429562I-6562J0D01*
G01X438357Y269000D02*
G03X438357I-4593J0D01*
G01X427300Y240000D02*
G03X427300I-2300J0D01*
G01X426300Y253000D02*
G03X426300I-2300J0D01*
G01X378200Y195000D02*
G03X378200I-3200J0D01*
G01Y205000D02*
G03X378200I-3200J0D01*
G01Y215000D02*
G03X378200I-3200J0D01*
G01X368200Y195000D02*
G03X368200I-3200J0D01*
G01Y205000D02*
G03X368200I-3200J0D01*
G01Y215000D02*
G03X368200I-3200J0D01*
G01X338200Y195000D02*
G03X338200I-3200J0D01*
G01Y205000D02*
G03X338200I-3200J0D01*
G01Y215000D02*
G03X338200I-3200J0D01*
G01X328200Y195000D02*
G03X328200I-3200J0D01*
G01Y205000D02*
G03X328200I-3200J0D01*
G01Y215000D02*
G03X328200I-3200J0D01*
G01X409223Y269000D02*
G03X409223I-4987J0D01*
G01X378200Y225000D02*
G03X378200I-3200J0D01*
G01Y235000D02*
G03X378200I-3200J0D01*
G01Y245000D02*
G03X378200I-3200J0D01*
G01X368200Y225000D02*
G03X368200I-3200J0D01*
G01Y235000D02*
G03X368200I-3200J0D01*
G01Y245000D02*
G03X368200I-3200J0D01*
G01X338200Y225000D02*
G03X338200I-3200J0D01*
G01Y235000D02*
G03X338200I-3200J0D01*
G01Y245000D02*
G03X338200I-3200J0D01*
G01X328200Y225000D02*
G03X328200I-3200J0D01*
G01Y235000D02*
G03X328200I-3200J0D01*
G01Y245000D02*
G03X328200I-3200J0D01*
G01X429562Y141000D02*
G03X429562I-6562J0D01*
G01X378200Y135000D02*
G03X378200I-3200J0D01*
G01Y145000D02*
G03X378200I-3200J0D01*
G01X368200Y135000D02*
G03X368200I-3200J0D01*
G01Y145000D02*
G03X368200I-3200J0D01*
G01X338200Y135000D02*
G03X338200I-3200J0D01*
G01Y145000D02*
G03X338200I-3200J0D01*
G01X328200Y135000D02*
G03X328200I-3200J0D01*
G01Y145000D02*
G03X328200I-3200J0D01*
G01X441750Y151500D02*
Y169500D01*
G03X441500Y169750I-250J0*
G01X296500*
G03X296250Y169500I0J-250*
G01Y151500*
G03X296500Y151250I250J0*
G01X441500*
G03X441750Y151500I0J250*
G01Y171500D02*
Y189500D01*
G03X441500Y189750I-250J0*
G01X296500*
G03X296250Y189500I0J-250*
G01Y171500*
G03X296500Y171250I250J0*
G01X441500*
G03X441750Y171500I0J250*
G01X446750Y191500D02*
Y290500D01*
G03X446500Y290750I-250J0*
G01X413500*
G03X413250Y290500I0J-250*
G01Y210750*
X397551*
X388883Y216769D02*
G03X397551Y210750I8668J3231D01*
G01X388883Y216769D02*
G03X388876Y216787I-234J-87D01*
G01X388057Y219536D02*
G03X388876Y216787I9943J1464D01*
G01X388057Y219536D02*
G03X387810Y219750I-247J-36D01*
G01X296500*
G03X296250Y219500I0J-250*
G01Y191500*
G03X296500Y191250I250J0*
G01X446500*
G03X446750Y191500I0J250*
G01X411750Y212500D02*
Y290500D01*
G03X411500Y290750I-250J0*
G01X344062*
G03X343860Y290647I0J-250*
G01X340140D02*
G03X343860I1860J1353D01*
G01X340140D02*
G03X339938Y290750I-202J-147D01*
G01X296500*
G03X296250Y290500I0J-250*
G01Y221500*
G03X296500Y221250I250J0*
G01X389254*
G03Y220723I8746J-250*
X389311Y220572I250J8*
G01X389603Y219785D02*
G03X389311Y220572I-1299J-35D01*
G01X389603Y219785D02*
G03X390077Y217289I7948J215D01*
X390086Y217268I235J85*
X398000Y212250I7914J3732*
G01X411500*
G03X411750Y212500I0J250*
G01X441750Y130500D02*
Y149500D01*
G03X441500Y149750I-250J0*
G01X296500*
G03X296250Y149500I0J-250*
G01Y130500*
G03X296500Y130250I250J0*
G01X441500*
G03X441750Y130500I0J250*
G01X429562Y161000D02*
G03X429562I-6562J0D01*
G01X378200Y155000D02*
G03X378200I-3200J0D01*
G01Y165000D02*
G03X378200I-3200J0D01*
G01X368200Y155000D02*
G03X368200I-3200J0D01*
G01Y165000D02*
G03X368200I-3200J0D01*
G01X338200Y155000D02*
G03X338200I-3200J0D01*
G01Y165000D02*
G03X338200I-3200J0D01*
G01X328200Y155000D02*
G03X328200I-3200J0D01*
G01Y165000D02*
G03X328200I-3200J0D01*
G01X429562Y181000D02*
G03X429562I-6562J0D01*
G01X378200Y175000D02*
G03X378200I-3200J0D01*
G01Y185000D02*
G03X378200I-3200J0D01*
G01X368200Y175000D02*
G03X368200I-3200J0D01*
G01Y185000D02*
G03X368200I-3200J0D01*
G01X338200Y175000D02*
G03X338200I-3200J0D01*
G01Y185000D02*
G03X338200I-3200J0D01*
G01X328200Y175000D02*
G03X328200I-3200J0D01*
G01Y185000D02*
G03X328200I-3200J0D01*
G01X440300Y230000D02*
G03X440300I-2300J0D01*
G01Y240000D02*
G03X440300I-2300J0D01*
G01X440150Y252850D02*
G03X440150I-2300J0D01*
G01X429562Y201000D02*
G03X429562I-6562J0D01*
G01X423737Y227520D02*
G03X425093Y227219I-737J-6520D01*
G01X423737Y227520D02*
G03X423887Y227987I29J249D01*
G01X425156Y227705D02*
G03X423887Y227987I-156J2295D01*
G01X425156Y227705D02*
G03X425093Y227219I17J-249D01*
G01X438357Y269000D02*
G03X438357I-4593J0D01*
G01X427300Y240000D02*
G03X427300I-2300J0D01*
G01X426300Y253000D02*
G03X426300I-2300J0D01*
G01X378200Y195000D02*
G03X378200I-3200J0D01*
G01Y205000D02*
G03X378200I-3200J0D01*
G01Y215000D02*
G03X378200I-3200J0D01*
G01X368200Y195000D02*
G03X368200I-3200J0D01*
G01Y205000D02*
G03X368200I-3200J0D01*
G01Y215000D02*
G03X368200I-3200J0D01*
G01X338200Y195000D02*
G03X338200I-3200J0D01*
G01Y205000D02*
G03X338200I-3200J0D01*
G01Y215000D02*
G03X338200I-3200J0D01*
G01X328200Y195000D02*
G03X328200I-3200J0D01*
G01Y205000D02*
G03X328200I-3200J0D01*
G01Y215000D02*
G03X328200I-3200J0D01*
G01X409223Y269000D02*
G03X409223I-4987J0D01*
G01X378200Y225000D02*
G03X378200I-3200J0D01*
G01Y235000D02*
G03X378200I-3200J0D01*
G01Y245000D02*
G03X378200I-3200J0D01*
G01X368200Y225000D02*
G03X368200I-3200J0D01*
G01Y235000D02*
G03X368200I-3200J0D01*
G01Y245000D02*
G03X368200I-3200J0D01*
G01X338200Y225000D02*
G03X338200I-3200J0D01*
G01Y235000D02*
G03X338200I-3200J0D01*
G01Y245000D02*
G03X338200I-3200J0D01*
G01X328200Y225000D02*
G03X328200I-3200J0D01*
G01Y235000D02*
G03X328200I-3200J0D01*
G01Y245000D02*
G03X328200I-3200J0D01*
G01X429562Y141000D02*
G03X429562I-6562J0D01*
G01X378200Y135000D02*
G03X378200I-3200J0D01*
G01Y145000D02*
G03X378200I-3200J0D01*
G01X368200Y135000D02*
G03X368200I-3200J0D01*
G01Y145000D02*
G03X368200I-3200J0D01*
G01X338200Y135000D02*
G03X338200I-3200J0D01*
G01Y145000D02*
G03X338200I-3200J0D01*
G01X328200Y135000D02*
G03X328200I-3200J0D01*
G01Y145000D02*
G03X328200I-3200J0D01*
G01X296250Y169249D02*
X441750D01*
X296250Y168799D02*
X441750D01*
X296250Y168349D02*
X441750D01*
X376356Y167899D02*
X441750D01*
X424213Y167449D02*
X441750D01*
X425660Y166999D02*
X441750D01*
X426503Y166549D02*
X441750D01*
X427130Y166099D02*
X441750D01*
X427631Y165649D02*
X441750D01*
X428043Y165199D02*
X441750D01*
X428386Y164749D02*
X441750D01*
X428672Y164299D02*
X441750D01*
X428911Y163849D02*
X441750D01*
X429108Y163399D02*
X441750D01*
X429266Y162949D02*
X441750D01*
X429388Y162499D02*
X441750D01*
X429477Y162049D02*
X441750D01*
X429534Y161599D02*
X441750D01*
X429560Y161149D02*
X441750D01*
X429555Y160699D02*
X441750D01*
X429519Y160249D02*
X441750D01*
X429451Y159799D02*
X441750D01*
X429351Y159349D02*
X441750D01*
X429216Y158899D02*
X441750D01*
X429046Y158449D02*
X441750D01*
X428835Y157999D02*
X441750D01*
X428581Y157549D02*
X441750D01*
X428276Y157099D02*
X441750D01*
X427912Y156649D02*
X441750D01*
X427473Y156199D02*
X441750D01*
X426935Y155749D02*
X441750D01*
X426248Y155299D02*
X441750D01*
X425285Y154849D02*
X441750D01*
X378143Y154399D02*
X441750D01*
X378022Y153949D02*
X441750D01*
X377826Y153499D02*
X441750D01*
X377536Y153049D02*
X441750D01*
X377115Y152599D02*
X441750D01*
X376453Y152149D02*
X441750D01*
X296250Y151699D02*
X441750D01*
X296348Y169699D02*
X441652D01*
X377060Y167449D02*
X421787D01*
X378196Y154849D02*
X420715D01*
X377499Y166999D02*
X420340D01*
X378186Y155299D02*
X419752D01*
X377800Y166549D02*
X419497D01*
X378111Y155749D02*
X419065D01*
X378005Y166099D02*
X418870D01*
X377967Y156199D02*
X418527D01*
X378134Y165649D02*
X418369D01*
X377743Y156649D02*
X418088D01*
X378194Y165199D02*
X417957D01*
X377416Y157099D02*
X417724D01*
X378190Y164749D02*
X417614D01*
X376935Y157549D02*
X417419D01*
X378122Y164299D02*
X417328D01*
X376117Y157999D02*
X417165D01*
X377986Y163849D02*
X417089D01*
X296250Y158449D02*
X416954D01*
X377771Y163399D02*
X416892D01*
X296250Y158899D02*
X416784D01*
X377456Y162949D02*
X416734D01*
X296250Y159349D02*
X416649D01*
X376996Y162499D02*
X416612D01*
X296250Y159799D02*
X416549D01*
X376237Y162049D02*
X416523D01*
X296250Y160249D02*
X416481D01*
X296250Y161599D02*
X416466D01*
X296250Y160699D02*
X416445D01*
X296250Y161149D02*
X416440D01*
X366117Y157999D02*
X373883D01*
X366237Y162049D02*
X373763D01*
X366356Y167899D02*
X373644D01*
X366453Y152149D02*
X373547D01*
X366935Y157549D02*
X373065D01*
X366996Y162499D02*
X373004D01*
X367060Y167449D02*
X372940D01*
X367115Y152599D02*
X372885D01*
X367416Y157099D02*
X372584D01*
X367456Y162949D02*
X372544D01*
X367499Y166999D02*
X372501D01*
X367536Y153049D02*
X372464D01*
X367743Y156649D02*
X372257D01*
X367771Y163399D02*
X372229D01*
X367800Y166549D02*
X372200D01*
X367826Y153499D02*
X372174D01*
X367967Y156199D02*
X372033D01*
X367986Y163849D02*
X372014D01*
X368005Y166099D02*
X371995D01*
X368022Y153949D02*
X371978D01*
X368111Y155749D02*
X371889D01*
X368122Y164299D02*
X371878D01*
X368134Y165649D02*
X371866D01*
X368143Y154399D02*
X371857D01*
X368186Y155299D02*
X371814D01*
X368190Y164749D02*
X371810D01*
X368194Y165199D02*
X371806D01*
X368196Y154849D02*
X371804D01*
X336117Y157999D02*
X363883D01*
X336237Y162049D02*
X363763D01*
X336356Y167899D02*
X363644D01*
X336453Y152149D02*
X363547D01*
X336935Y157549D02*
X363065D01*
X336996Y162499D02*
X363004D01*
X337060Y167449D02*
X362940D01*
X337115Y152599D02*
X362885D01*
X337416Y157099D02*
X362584D01*
X337456Y162949D02*
X362544D01*
X337499Y166999D02*
X362501D01*
X337536Y153049D02*
X362464D01*
X337743Y156649D02*
X362257D01*
X337771Y163399D02*
X362229D01*
X337800Y166549D02*
X362200D01*
X337826Y153499D02*
X362174D01*
X337967Y156199D02*
X362033D01*
X337986Y163849D02*
X362014D01*
X338005Y166099D02*
X361995D01*
X338022Y153949D02*
X361978D01*
X338111Y155749D02*
X361889D01*
X338122Y164299D02*
X361878D01*
X338134Y165649D02*
X361866D01*
X338143Y154399D02*
X361857D01*
X338186Y155299D02*
X361814D01*
X338190Y164749D02*
X361810D01*
X338194Y165199D02*
X361806D01*
X338196Y154849D02*
X361804D01*
X326117Y157999D02*
X333883D01*
X326237Y162049D02*
X333763D01*
X326356Y167899D02*
X333644D01*
X326453Y152149D02*
X333547D01*
X326935Y157549D02*
X333065D01*
X326996Y162499D02*
X333004D01*
X327060Y167449D02*
X332940D01*
X327115Y152599D02*
X332885D01*
X327416Y157099D02*
X332584D01*
X327456Y162949D02*
X332544D01*
X327499Y166999D02*
X332501D01*
X327536Y153049D02*
X332464D01*
X327743Y156649D02*
X332257D01*
X327771Y163399D02*
X332229D01*
X327800Y166549D02*
X332200D01*
X327826Y153499D02*
X332174D01*
X327967Y156199D02*
X332033D01*
X327986Y163849D02*
X332014D01*
X328005Y166099D02*
X331995D01*
X328022Y153949D02*
X331978D01*
X328111Y155749D02*
X331889D01*
X328122Y164299D02*
X331878D01*
X328134Y165649D02*
X331866D01*
X328143Y154399D02*
X331857D01*
X328186Y155299D02*
X331814D01*
X328190Y164749D02*
X331810D01*
X328194Y165199D02*
X331806D01*
X328196Y154849D02*
X331804D01*
X296250Y157999D02*
X323883D01*
X296250Y162049D02*
X323763D01*
X296250Y167899D02*
X323644D01*
X296250Y152149D02*
X323547D01*
X296250Y157549D02*
X323065D01*
X296250Y162499D02*
X323004D01*
X296250Y167449D02*
X322940D01*
X296250Y152599D02*
X322885D01*
X296250Y157099D02*
X322584D01*
X296250Y162949D02*
X322544D01*
X296250Y166999D02*
X322501D01*
X296250Y153049D02*
X322464D01*
X296250Y156649D02*
X322257D01*
X296250Y163399D02*
X322229D01*
X296250Y166549D02*
X322200D01*
X296250Y153499D02*
X322174D01*
X296250Y156199D02*
X322033D01*
X296250Y163849D02*
X322014D01*
X296250Y166099D02*
X321995D01*
X296250Y153949D02*
X321978D01*
X296250Y155749D02*
X321889D01*
X296250Y164299D02*
X321878D01*
X296250Y165649D02*
X321866D01*
X296250Y154399D02*
X321857D01*
X296250Y155299D02*
X321814D01*
X296250Y164749D02*
X321810D01*
X296250Y165199D02*
X321806D01*
X296250Y154849D02*
X321804D01*
X296250Y189249D02*
X441750D01*
X296250Y188799D02*
X441750D01*
X296250Y188349D02*
X441750D01*
X376356Y187899D02*
X441750D01*
X424213Y187449D02*
X441750D01*
X425660Y186999D02*
X441750D01*
X426503Y186549D02*
X441750D01*
X427130Y186099D02*
X441750D01*
X427631Y185649D02*
X441750D01*
X428043Y185199D02*
X441750D01*
X428386Y184749D02*
X441750D01*
X428672Y184299D02*
X441750D01*
X428911Y183849D02*
X441750D01*
X429108Y183399D02*
X441750D01*
X429266Y182949D02*
X441750D01*
X429388Y182499D02*
X441750D01*
X429477Y182049D02*
X441750D01*
X429534Y181599D02*
X441750D01*
X429560Y181149D02*
X441750D01*
X429555Y180699D02*
X441750D01*
X429519Y180249D02*
X441750D01*
X429451Y179799D02*
X441750D01*
X429351Y179349D02*
X441750D01*
X429216Y178899D02*
X441750D01*
X429046Y178449D02*
X441750D01*
X428835Y177999D02*
X441750D01*
X428581Y177549D02*
X441750D01*
X428276Y177099D02*
X441750D01*
X427912Y176649D02*
X441750D01*
X427473Y176199D02*
X441750D01*
X426935Y175749D02*
X441750D01*
X426248Y175299D02*
X441750D01*
X425285Y174849D02*
X441750D01*
X378143Y174399D02*
X441750D01*
X378022Y173949D02*
X441750D01*
X377826Y173499D02*
X441750D01*
X377536Y173049D02*
X441750D01*
X377115Y172599D02*
X441750D01*
X376453Y172149D02*
X441750D01*
X296250Y171699D02*
X441750D01*
X296348Y189699D02*
X441652D01*
X377060Y187449D02*
X421787D01*
X378196Y174849D02*
X420715D01*
X377499Y186999D02*
X420340D01*
X378186Y175299D02*
X419752D01*
X377800Y186549D02*
X419497D01*
X378111Y175749D02*
X419065D01*
X378005Y186099D02*
X418870D01*
X377967Y176199D02*
X418527D01*
X378134Y185649D02*
X418369D01*
X377743Y176649D02*
X418088D01*
X378194Y185199D02*
X417957D01*
X377416Y177099D02*
X417724D01*
X378190Y184749D02*
X417614D01*
X376935Y177549D02*
X417419D01*
X378122Y184299D02*
X417328D01*
X376117Y177999D02*
X417165D01*
X377986Y183849D02*
X417089D01*
X296250Y178449D02*
X416954D01*
X377771Y183399D02*
X416892D01*
X296250Y178899D02*
X416784D01*
X377456Y182949D02*
X416734D01*
X296250Y179349D02*
X416649D01*
X376996Y182499D02*
X416612D01*
X296250Y179799D02*
X416549D01*
X376237Y182049D02*
X416523D01*
X296250Y180249D02*
X416481D01*
X296250Y181599D02*
X416466D01*
X296250Y180699D02*
X416445D01*
X296250Y181149D02*
X416440D01*
X366117Y177999D02*
X373883D01*
X366237Y182049D02*
X373763D01*
X366356Y187899D02*
X373644D01*
X366453Y172149D02*
X373547D01*
X366935Y177549D02*
X373065D01*
X366996Y182499D02*
X373004D01*
X367060Y187449D02*
X372940D01*
X367115Y172599D02*
X372885D01*
X367416Y177099D02*
X372584D01*
X367456Y182949D02*
X372544D01*
X367499Y186999D02*
X372501D01*
X367536Y173049D02*
X372464D01*
X367743Y176649D02*
X372257D01*
X367771Y183399D02*
X372229D01*
X367800Y186549D02*
X372200D01*
X367826Y173499D02*
X372174D01*
X367967Y176199D02*
X372033D01*
X367986Y183849D02*
X372014D01*
X368005Y186099D02*
X371995D01*
X368022Y173949D02*
X371978D01*
X368111Y175749D02*
X371889D01*
X368122Y184299D02*
X371878D01*
X368134Y185649D02*
X371866D01*
X368143Y174399D02*
X371857D01*
X368186Y175299D02*
X371814D01*
X368190Y184749D02*
X371810D01*
X368194Y185199D02*
X371806D01*
X368196Y174849D02*
X371804D01*
X336117Y177999D02*
X363883D01*
X336237Y182049D02*
X363763D01*
X336356Y187899D02*
X363644D01*
X336453Y172149D02*
X363547D01*
X336935Y177549D02*
X363065D01*
X336996Y182499D02*
X363004D01*
X337060Y187449D02*
X362940D01*
X337115Y172599D02*
X362885D01*
X337416Y177099D02*
X362584D01*
X337456Y182949D02*
X362544D01*
X337499Y186999D02*
X362501D01*
X337536Y173049D02*
X362464D01*
X337743Y176649D02*
X362257D01*
X337771Y183399D02*
X362229D01*
X337800Y186549D02*
X362200D01*
X337826Y173499D02*
X362174D01*
X337967Y176199D02*
X362033D01*
X337986Y183849D02*
X362014D01*
X338005Y186099D02*
X361995D01*
X338022Y173949D02*
X361978D01*
X338111Y175749D02*
X361889D01*
X338122Y184299D02*
X361878D01*
X338134Y185649D02*
X361866D01*
X338143Y174399D02*
X361857D01*
X338186Y175299D02*
X361814D01*
X338190Y184749D02*
X361810D01*
X338194Y185199D02*
X361806D01*
X338196Y174849D02*
X361804D01*
X326117Y177999D02*
X333883D01*
X326237Y182049D02*
X333763D01*
X326356Y187899D02*
X333644D01*
X326453Y172149D02*
X333547D01*
X326935Y177549D02*
X333065D01*
X326996Y182499D02*
X333004D01*
X327060Y187449D02*
X332940D01*
X327115Y172599D02*
X332885D01*
X327416Y177099D02*
X332584D01*
X327456Y182949D02*
X332544D01*
X327499Y186999D02*
X332501D01*
X327536Y173049D02*
X332464D01*
X327743Y176649D02*
X332257D01*
X327771Y183399D02*
X332229D01*
X327800Y186549D02*
X332200D01*
X327826Y173499D02*
X332174D01*
X327967Y176199D02*
X332033D01*
X327986Y183849D02*
X332014D01*
X328005Y186099D02*
X331995D01*
X328022Y173949D02*
X331978D01*
X328111Y175749D02*
X331889D01*
X328122Y184299D02*
X331878D01*
X328134Y185649D02*
X331866D01*
X328143Y174399D02*
X331857D01*
X328186Y175299D02*
X331814D01*
X328190Y184749D02*
X331810D01*
X328194Y185199D02*
X331806D01*
X328196Y174849D02*
X331804D01*
X296250Y177999D02*
X323883D01*
X296250Y182049D02*
X323763D01*
X296250Y187899D02*
X323644D01*
X296250Y172149D02*
X323547D01*
X296250Y177549D02*
X323065D01*
X296250Y182499D02*
X323004D01*
X296250Y187449D02*
X322940D01*
X296250Y172599D02*
X322885D01*
X296250Y177099D02*
X322584D01*
X296250Y182949D02*
X322544D01*
X296250Y186999D02*
X322501D01*
X296250Y173049D02*
X322464D01*
X296250Y176649D02*
X322257D01*
X296250Y183399D02*
X322229D01*
X296250Y186549D02*
X322200D01*
X296250Y173499D02*
X322174D01*
X296250Y176199D02*
X322033D01*
X296250Y183849D02*
X322014D01*
X296250Y186099D02*
X321995D01*
X296250Y173949D02*
X321978D01*
X296250Y175749D02*
X321889D01*
X296250Y184299D02*
X321878D01*
X296250Y185649D02*
X321866D01*
X296250Y174399D02*
X321857D01*
X296250Y175299D02*
X321814D01*
X296250Y184749D02*
X321810D01*
X296250Y185199D02*
X321806D01*
X296250Y174849D02*
X321804D01*
X413250Y290249D02*
X446750D01*
X413250Y289799D02*
X446750D01*
X413250Y289349D02*
X446750D01*
X413250Y288899D02*
X446750D01*
X413250Y288449D02*
X446750D01*
X413250Y287999D02*
X446750D01*
X413250Y287549D02*
X446750D01*
X413250Y287099D02*
X446750D01*
X413250Y286649D02*
X446750D01*
X413250Y286199D02*
X446750D01*
X413250Y285749D02*
X446750D01*
X413250Y285299D02*
X446750D01*
X413250Y284849D02*
X446750D01*
X413250Y284399D02*
X446750D01*
X413250Y283949D02*
X446750D01*
X413250Y283499D02*
X446750D01*
X413250Y283049D02*
X446750D01*
X413250Y282599D02*
X446750D01*
X413250Y282149D02*
X446750D01*
X413250Y281699D02*
X446750D01*
X413250Y281249D02*
X446750D01*
X413250Y280799D02*
X446750D01*
X413250Y280349D02*
X446750D01*
X413250Y279899D02*
X446750D01*
X413250Y279449D02*
X446750D01*
X413250Y278999D02*
X446750D01*
X413250Y278549D02*
X446750D01*
X413250Y278099D02*
X446750D01*
X413250Y277649D02*
X446750D01*
X413250Y277199D02*
X446750D01*
X413250Y276749D02*
X446750D01*
X413250Y276299D02*
X446750D01*
X413250Y275849D02*
X446750D01*
X413250Y275399D02*
X446750D01*
X413250Y274949D02*
X446750D01*
X413250Y274499D02*
X446750D01*
X413250Y274049D02*
X446750D01*
X413250Y273599D02*
X446750D01*
X435735Y273149D02*
X446750D01*
X436487Y272699D02*
X446750D01*
X437011Y272249D02*
X446750D01*
X437406Y271799D02*
X446750D01*
X437711Y271349D02*
X446750D01*
X437946Y270899D02*
X446750D01*
X438123Y270449D02*
X446750D01*
X438247Y269999D02*
X446750D01*
X438324Y269549D02*
X446750D01*
X438356Y269099D02*
X446750D01*
X438344Y268649D02*
X446750D01*
X438287Y268199D02*
X446750D01*
X438183Y267749D02*
X446750D01*
X438030Y267299D02*
X446750D01*
X437822Y266849D02*
X446750D01*
X437550Y266399D02*
X446750D01*
X437197Y265949D02*
X446750D01*
X436737Y265499D02*
X446750D01*
X436106Y265049D02*
X446750D01*
X435078Y264599D02*
X446750D01*
X413250Y264149D02*
X446750D01*
X413250Y263699D02*
X446750D01*
X413250Y263249D02*
X446750D01*
X413250Y262799D02*
X446750D01*
X413250Y262349D02*
X446750D01*
X413250Y261899D02*
X446750D01*
X413250Y261449D02*
X446750D01*
X413250Y260999D02*
X446750D01*
X413250Y260549D02*
X446750D01*
X413250Y260099D02*
X446750D01*
X413250Y259649D02*
X446750D01*
X413250Y259199D02*
X446750D01*
X413250Y258749D02*
X446750D01*
X413250Y258299D02*
X446750D01*
X413250Y257849D02*
X446750D01*
X413250Y257399D02*
X446750D01*
X413250Y256949D02*
X446750D01*
X413250Y256499D02*
X446750D01*
X413250Y256049D02*
X446750D01*
X413250Y255599D02*
X446750D01*
X437928Y255149D02*
X446750D01*
X439218Y254699D02*
X446750D01*
X439676Y254249D02*
X446750D01*
X439945Y253799D02*
X446750D01*
X440095Y253349D02*
X446750D01*
X440150Y252899D02*
X446750D01*
X440115Y252449D02*
X446750D01*
X439987Y251999D02*
X446750D01*
X439746Y251549D02*
X446750D01*
X439341Y251099D02*
X446750D01*
X438517Y250649D02*
X446750D01*
X413250Y250199D02*
X446750D01*
X413250Y249749D02*
X446750D01*
X413250Y249299D02*
X446750D01*
X413250Y248849D02*
X446750D01*
X413250Y248399D02*
X446750D01*
X413250Y247949D02*
X446750D01*
X413250Y247499D02*
X446750D01*
X413250Y247049D02*
X446750D01*
X413250Y246599D02*
X446750D01*
X413250Y246149D02*
X446750D01*
X413250Y245699D02*
X446750D01*
X413250Y245249D02*
X446750D01*
X413250Y244799D02*
X446750D01*
X413250Y244349D02*
X446750D01*
X413250Y243899D02*
X446750D01*
X413250Y243449D02*
X446750D01*
X413250Y242999D02*
X446750D01*
X413250Y242549D02*
X446750D01*
X438941Y242099D02*
X446750D01*
X439604Y241649D02*
X446750D01*
X439963Y241199D02*
X446750D01*
X440175Y240749D02*
X446750D01*
X440281Y240299D02*
X446750D01*
X440295Y239849D02*
X446750D01*
X440220Y239399D02*
X446750D01*
X440046Y238949D02*
X446750D01*
X439742Y238499D02*
X446750D01*
X439218Y238049D02*
X446750D01*
X413250Y237599D02*
X446750D01*
X413250Y237149D02*
X446750D01*
X413250Y236699D02*
X446750D01*
X413250Y236249D02*
X446750D01*
X413250Y235799D02*
X446750D01*
X413250Y235349D02*
X446750D01*
X413250Y234899D02*
X446750D01*
X413250Y234449D02*
X446750D01*
X413250Y233999D02*
X446750D01*
X413250Y233549D02*
X446750D01*
X413250Y233099D02*
X446750D01*
X413250Y232649D02*
X446750D01*
X438675Y232199D02*
X446750D01*
X439494Y231749D02*
X446750D01*
X439898Y231299D02*
X446750D01*
X440138Y230849D02*
X446750D01*
X440265Y230399D02*
X446750D01*
X440299Y229949D02*
X446750D01*
X440245Y229499D02*
X446750D01*
X440094Y229049D02*
X446750D01*
X439824Y228599D02*
X446750D01*
X439365Y228149D02*
X446750D01*
X425114Y227699D02*
X446750D01*
X425033Y227249D02*
X446750D01*
X426071Y226799D02*
X446750D01*
X426801Y226349D02*
X446750D01*
X427366Y225899D02*
X446750D01*
X427824Y225449D02*
X446750D01*
X428203Y224999D02*
X446750D01*
X428519Y224549D02*
X446750D01*
X428784Y224099D02*
X446750D01*
X429004Y223649D02*
X446750D01*
X429183Y223199D02*
X446750D01*
X429325Y222749D02*
X446750D01*
X429432Y222299D02*
X446750D01*
X429507Y221849D02*
X446750D01*
X429550Y221399D02*
X446750D01*
X429562Y220949D02*
X446750D01*
X429543Y220499D02*
X446750D01*
X429493Y220049D02*
X446750D01*
X429410Y219599D02*
X446750D01*
X429295Y219149D02*
X446750D01*
X429145Y218699D02*
X446750D01*
X428957Y218249D02*
X446750D01*
X428728Y217799D02*
X446750D01*
X428452Y217349D02*
X446750D01*
X428122Y216899D02*
X446750D01*
X427727Y216449D02*
X446750D01*
X427248Y215999D02*
X446750D01*
X426653Y215549D02*
X446750D01*
X425869Y215099D02*
X446750D01*
X424649Y214649D02*
X446750D01*
X413250Y214199D02*
X446750D01*
X413250Y213749D02*
X446750D01*
X413250Y213299D02*
X446750D01*
X413250Y212849D02*
X446750D01*
X413250Y212399D02*
X446750D01*
X413250Y211949D02*
X446750D01*
X413250Y211499D02*
X446750D01*
X413250Y211049D02*
X446750D01*
X296250Y210599D02*
X446750D01*
X296250Y210149D02*
X446750D01*
X296250Y209699D02*
X446750D01*
X296250Y209249D02*
X446750D01*
X296250Y208799D02*
X446750D01*
X296250Y208349D02*
X446750D01*
X376356Y207899D02*
X446750D01*
X424213Y207449D02*
X446750D01*
X425660Y206999D02*
X446750D01*
X426503Y206549D02*
X446750D01*
X427130Y206099D02*
X446750D01*
X427631Y205649D02*
X446750D01*
X428043Y205199D02*
X446750D01*
X428386Y204749D02*
X446750D01*
X428672Y204299D02*
X446750D01*
X428911Y203849D02*
X446750D01*
X429108Y203399D02*
X446750D01*
X429266Y202949D02*
X446750D01*
X429388Y202499D02*
X446750D01*
X429477Y202049D02*
X446750D01*
X429534Y201599D02*
X446750D01*
X429560Y201149D02*
X446750D01*
X429555Y200699D02*
X446750D01*
X429519Y200249D02*
X446750D01*
X429451Y199799D02*
X446750D01*
X429351Y199349D02*
X446750D01*
X429216Y198899D02*
X446750D01*
X429046Y198449D02*
X446750D01*
X428835Y197999D02*
X446750D01*
X428581Y197549D02*
X446750D01*
X428276Y197099D02*
X446750D01*
X427912Y196649D02*
X446750D01*
X427473Y196199D02*
X446750D01*
X426935Y195749D02*
X446750D01*
X426248Y195299D02*
X446750D01*
X425285Y194849D02*
X446750D01*
X378143Y194399D02*
X446750D01*
X378022Y193949D02*
X446750D01*
X377826Y193499D02*
X446750D01*
X377536Y193049D02*
X446750D01*
X377115Y192599D02*
X446750D01*
X376453Y192149D02*
X446750D01*
X296250Y191699D02*
X446750D01*
X413348Y290699D02*
X446652D01*
X424821Y255149D02*
X437772D01*
X425675Y232199D02*
X437325D01*
X413250Y250649D02*
X437183D01*
X425941Y242099D02*
X437059D01*
X426218Y238049D02*
X436782D01*
X426365Y228149D02*
X436635D01*
X426494Y231749D02*
X436506D01*
X425551Y254699D02*
X436482D01*
X426604Y241649D02*
X436396D01*
X425294Y251099D02*
X436359D01*
X426742Y238499D02*
X436258D01*
X426824Y228599D02*
X436176D01*
X426898Y231299D02*
X436102D01*
X426963Y241199D02*
X436037D01*
X425932Y254249D02*
X436024D01*
X427046Y238949D02*
X435954D01*
X425784Y251549D02*
X435954D01*
X427094Y229049D02*
X435906D01*
X427138Y230849D02*
X435862D01*
X427175Y240749D02*
X435825D01*
X427220Y239399D02*
X435780D01*
X427245Y229499D02*
X435755D01*
X426157Y253799D02*
X435755D01*
X427265Y230399D02*
X435735D01*
X427281Y240299D02*
X435719D01*
X426071Y251999D02*
X435713D01*
X427295Y239849D02*
X435705D01*
X427299Y229949D02*
X435701D01*
X426273Y253349D02*
X435605D01*
X426233Y252449D02*
X435585D01*
X426298Y252899D02*
X435550D01*
X413250Y264599D02*
X432450D01*
X413250Y273149D02*
X431792D01*
X413250Y265049D02*
X431422D01*
X413250Y272699D02*
X431040D01*
X413250Y265499D02*
X430791D01*
X413250Y272249D02*
X430517D01*
X413250Y265949D02*
X430330D01*
X413250Y271799D02*
X430122D01*
X413250Y266399D02*
X429978D01*
X413250Y271349D02*
X429816D01*
X413250Y266849D02*
X429705D01*
X413250Y270899D02*
X429581D01*
X413250Y267299D02*
X429497D01*
X413250Y270449D02*
X429405D01*
X413250Y267749D02*
X429344D01*
X413250Y269999D02*
X429280D01*
X413250Y268199D02*
X429241D01*
X413250Y269549D02*
X429203D01*
X413250Y268649D02*
X429184D01*
X413250Y269099D02*
X429172D01*
X413250Y232199D02*
X424325D01*
X413250Y242099D02*
X424059D01*
X413250Y227699D02*
X424006D01*
X413250Y238049D02*
X423782D01*
X413250Y228149D02*
X423635D01*
X413250Y231749D02*
X423506D01*
X413250Y241649D02*
X423396D01*
X413250Y238499D02*
X423258D01*
X413250Y255149D02*
X423179D01*
X413250Y228599D02*
X423176D01*
X413250Y231299D02*
X423102D01*
X413250Y241199D02*
X423037D01*
X413250Y238949D02*
X422954D01*
X413250Y229049D02*
X422906D01*
X413250Y230849D02*
X422862D01*
X413250Y240749D02*
X422825D01*
X413250Y239399D02*
X422780D01*
X413250Y229499D02*
X422755D01*
X413250Y230399D02*
X422735D01*
X413250Y240299D02*
X422719D01*
X413250Y251099D02*
X422706D01*
X413250Y239849D02*
X422705D01*
X413250Y229949D02*
X422701D01*
X413250Y254699D02*
X422449D01*
X413250Y251549D02*
X422216D01*
X413250Y254249D02*
X422068D01*
X413250Y251999D02*
X421929D01*
X413250Y253799D02*
X421843D01*
X377060Y207449D02*
X421787D01*
X413250Y252449D02*
X421767D01*
X413250Y253349D02*
X421727D01*
X413250Y252899D02*
X421702D01*
X413250Y214649D02*
X421351D01*
X413250Y227249D02*
X420997D01*
X378196Y194849D02*
X420715D01*
X377499Y206999D02*
X420340D01*
X413250Y215099D02*
X420131D01*
X413250Y226799D02*
X419929D01*
X378186Y195299D02*
X419752D01*
X377800Y206549D02*
X419497D01*
X413250Y215549D02*
X419347D01*
X413250Y226349D02*
X419199D01*
X378111Y195749D02*
X419065D01*
X378005Y206099D02*
X418870D01*
X413250Y215999D02*
X418752D01*
X413250Y225899D02*
X418634D01*
X377967Y196199D02*
X418527D01*
X378134Y205649D02*
X418369D01*
X413250Y216449D02*
X418273D01*
X413250Y225449D02*
X418176D01*
X377743Y196649D02*
X418088D01*
X378194Y205199D02*
X417957D01*
X413250Y216899D02*
X417878D01*
X413250Y224999D02*
X417797D01*
X377416Y197099D02*
X417724D01*
X378190Y204749D02*
X417614D01*
X413250Y217349D02*
X417548D01*
X413250Y224549D02*
X417481D01*
X376935Y197549D02*
X417419D01*
X378122Y204299D02*
X417328D01*
X413250Y217799D02*
X417272D01*
X413250Y224099D02*
X417216D01*
X376117Y197999D02*
X417165D01*
X377986Y203849D02*
X417089D01*
X413250Y218249D02*
X417043D01*
X413250Y223649D02*
X416996D01*
X296250Y198449D02*
X416954D01*
X377771Y203399D02*
X416892D01*
X413250Y218699D02*
X416855D01*
X413250Y223199D02*
X416817D01*
X296250Y198899D02*
X416784D01*
X377456Y202949D02*
X416734D01*
X413250Y219149D02*
X416705D01*
X413250Y222749D02*
X416675D01*
X296250Y199349D02*
X416649D01*
X376996Y202499D02*
X416612D01*
X413250Y219599D02*
X416590D01*
X413250Y222299D02*
X416568D01*
X296250Y199799D02*
X416549D01*
X376237Y202049D02*
X416523D01*
X413250Y220049D02*
X416507D01*
X413250Y221849D02*
X416493D01*
X296250Y200249D02*
X416481D01*
X296250Y201599D02*
X416466D01*
X413250Y220499D02*
X416457D01*
X413250Y221399D02*
X416450D01*
X296250Y200699D02*
X416445D01*
X296250Y201149D02*
X416440D01*
X413250Y220949D02*
X416438D01*
X296250Y211049D02*
X395219D01*
X296250Y211499D02*
X393905D01*
X375964Y211949D02*
X392997D01*
X376864Y212399D02*
X392280D01*
X377369Y212849D02*
X391684D01*
X377710Y213299D02*
X391174D01*
X377945Y213749D02*
X390733D01*
X378098Y214199D02*
X390346D01*
X378181Y214649D02*
X390006D01*
X378198Y215099D02*
X389706D01*
X378153Y215549D02*
X389442D01*
X378040Y215999D02*
X389211D01*
X377853Y216449D02*
X389009D01*
X377576Y216899D02*
X388825D01*
X377173Y217349D02*
X388637D01*
X376552Y217799D02*
X388473D01*
X296250Y218249D02*
X388334D01*
X296250Y218699D02*
X388217D01*
X296250Y219149D02*
X388122D01*
X296270Y219599D02*
X388039D01*
X365964Y211949D02*
X374036D01*
X366117Y197999D02*
X373883D01*
X366237Y202049D02*
X373763D01*
X366356Y207899D02*
X373644D01*
X366453Y192149D02*
X373547D01*
X366552Y217799D02*
X373448D01*
X366864Y212399D02*
X373136D01*
X366935Y197549D02*
X373065D01*
X366996Y202499D02*
X373004D01*
X367060Y207449D02*
X372940D01*
X367115Y192599D02*
X372885D01*
X367173Y217349D02*
X372827D01*
X367369Y212849D02*
X372631D01*
X367416Y197099D02*
X372584D01*
X367456Y202949D02*
X372544D01*
X367499Y206999D02*
X372501D01*
X367536Y193049D02*
X372464D01*
X367576Y216899D02*
X372424D01*
X367710Y213299D02*
X372290D01*
X367743Y196649D02*
X372257D01*
X367771Y203399D02*
X372229D01*
X367800Y206549D02*
X372200D01*
X367826Y193499D02*
X372174D01*
X367853Y216449D02*
X372147D01*
X367945Y213749D02*
X372055D01*
X367967Y196199D02*
X372033D01*
X367986Y203849D02*
X372014D01*
X368005Y206099D02*
X371995D01*
X368022Y193949D02*
X371978D01*
X368040Y215999D02*
X371960D01*
X368098Y214199D02*
X371902D01*
X368111Y195749D02*
X371889D01*
X368122Y204299D02*
X371878D01*
X368134Y205649D02*
X371866D01*
X368143Y194399D02*
X371857D01*
X368153Y215549D02*
X371847D01*
X368181Y214649D02*
X371819D01*
X368186Y195299D02*
X371814D01*
X368190Y204749D02*
X371810D01*
X368194Y205199D02*
X371806D01*
X368196Y194849D02*
X371804D01*
X368198Y215099D02*
X371802D01*
X335964Y211949D02*
X364036D01*
X336117Y197999D02*
X363883D01*
X336237Y202049D02*
X363763D01*
X336356Y207899D02*
X363644D01*
X336453Y192149D02*
X363547D01*
X336552Y217799D02*
X363448D01*
X336864Y212399D02*
X363136D01*
X336935Y197549D02*
X363065D01*
X336996Y202499D02*
X363004D01*
X337060Y207449D02*
X362940D01*
X337115Y192599D02*
X362885D01*
X337173Y217349D02*
X362827D01*
X337369Y212849D02*
X362631D01*
X337416Y197099D02*
X362584D01*
X337456Y202949D02*
X362544D01*
X337499Y206999D02*
X362501D01*
X337536Y193049D02*
X362464D01*
X337576Y216899D02*
X362424D01*
X337710Y213299D02*
X362290D01*
X337743Y196649D02*
X362257D01*
X337771Y203399D02*
X362229D01*
X337800Y206549D02*
X362200D01*
X337826Y193499D02*
X362174D01*
X337853Y216449D02*
X362147D01*
X337945Y213749D02*
X362055D01*
X337967Y196199D02*
X362033D01*
X337986Y203849D02*
X362014D01*
X338005Y206099D02*
X361995D01*
X338022Y193949D02*
X361978D01*
X338040Y215999D02*
X361960D01*
X338098Y214199D02*
X361902D01*
X338111Y195749D02*
X361889D01*
X338122Y204299D02*
X361878D01*
X338134Y205649D02*
X361866D01*
X338143Y194399D02*
X361857D01*
X338153Y215549D02*
X361847D01*
X338181Y214649D02*
X361819D01*
X338186Y195299D02*
X361814D01*
X338190Y204749D02*
X361810D01*
X338194Y205199D02*
X361806D01*
X338196Y194849D02*
X361804D01*
X338198Y215099D02*
X361802D01*
X325964Y211949D02*
X334036D01*
X326117Y197999D02*
X333883D01*
X326237Y202049D02*
X333763D01*
X326356Y207899D02*
X333644D01*
X326453Y192149D02*
X333547D01*
X326552Y217799D02*
X333448D01*
X326864Y212399D02*
X333136D01*
X326935Y197549D02*
X333065D01*
X326996Y202499D02*
X333004D01*
X327060Y207449D02*
X332940D01*
X327115Y192599D02*
X332885D01*
X327173Y217349D02*
X332827D01*
X327369Y212849D02*
X332631D01*
X327416Y197099D02*
X332584D01*
X327456Y202949D02*
X332544D01*
X327499Y206999D02*
X332501D01*
X327536Y193049D02*
X332464D01*
X327576Y216899D02*
X332424D01*
X327710Y213299D02*
X332290D01*
X327743Y196649D02*
X332257D01*
X327771Y203399D02*
X332229D01*
X327800Y206549D02*
X332200D01*
X327826Y193499D02*
X332174D01*
X327853Y216449D02*
X332147D01*
X327945Y213749D02*
X332055D01*
X327967Y196199D02*
X332033D01*
X327986Y203849D02*
X332014D01*
X328005Y206099D02*
X331995D01*
X328022Y193949D02*
X331978D01*
X328040Y215999D02*
X331960D01*
X328098Y214199D02*
X331902D01*
X328111Y195749D02*
X331889D01*
X328122Y204299D02*
X331878D01*
X328134Y205649D02*
X331866D01*
X328143Y194399D02*
X331857D01*
X328153Y215549D02*
X331847D01*
X328181Y214649D02*
X331819D01*
X328186Y195299D02*
X331814D01*
X328190Y204749D02*
X331810D01*
X328194Y205199D02*
X331806D01*
X328196Y194849D02*
X331804D01*
X328198Y215099D02*
X331802D01*
X296250Y211949D02*
X324036D01*
X296250Y197999D02*
X323883D01*
X296250Y202049D02*
X323763D01*
X296250Y207899D02*
X323644D01*
X296250Y192149D02*
X323547D01*
X296250Y217799D02*
X323448D01*
X296250Y212399D02*
X323136D01*
X296250Y197549D02*
X323065D01*
X296250Y202499D02*
X323004D01*
X296250Y207449D02*
X322940D01*
X296250Y192599D02*
X322885D01*
X296250Y217349D02*
X322827D01*
X296250Y212849D02*
X322631D01*
X296250Y197099D02*
X322584D01*
X296250Y202949D02*
X322544D01*
X296250Y206999D02*
X322501D01*
X296250Y193049D02*
X322464D01*
X296250Y216899D02*
X322424D01*
X296250Y213299D02*
X322290D01*
X296250Y196649D02*
X322257D01*
X296250Y203399D02*
X322229D01*
X296250Y206549D02*
X322200D01*
X296250Y193499D02*
X322174D01*
X296250Y216449D02*
X322147D01*
X296250Y213749D02*
X322055D01*
X296250Y196199D02*
X322033D01*
X296250Y203849D02*
X322014D01*
X296250Y206099D02*
X321995D01*
X296250Y193949D02*
X321978D01*
X296250Y215999D02*
X321960D01*
X296250Y214199D02*
X321902D01*
X296250Y195749D02*
X321889D01*
X296250Y204299D02*
X321878D01*
X296250Y205649D02*
X321866D01*
X296250Y194399D02*
X321857D01*
X296250Y215549D02*
X321847D01*
X296250Y214649D02*
X321819D01*
X296250Y195299D02*
X321814D01*
X296250Y204749D02*
X321810D01*
X296250Y205199D02*
X321806D01*
X296250Y194849D02*
X321804D01*
X296250Y215099D02*
X321802D01*
X343294Y290099D02*
X411750D01*
X296250Y289649D02*
X411750D01*
X296250Y289199D02*
X411750D01*
X296250Y288749D02*
X411750D01*
X296250Y288299D02*
X411750D01*
X296250Y287849D02*
X411750D01*
X296250Y287399D02*
X411750D01*
X296250Y286949D02*
X411750D01*
X296250Y286499D02*
X411750D01*
X296250Y286049D02*
X411750D01*
X296250Y285599D02*
X411750D01*
X296250Y285149D02*
X411750D01*
X296250Y284699D02*
X411750D01*
X296250Y284249D02*
X411750D01*
X296250Y283799D02*
X411750D01*
X296250Y283349D02*
X411750D01*
X296250Y282899D02*
X411750D01*
X296250Y282449D02*
X411750D01*
X296250Y281999D02*
X411750D01*
X296250Y281549D02*
X411750D01*
X296250Y281099D02*
X411750D01*
X296250Y280649D02*
X411750D01*
X296250Y280199D02*
X411750D01*
X296250Y279749D02*
X411750D01*
X296250Y279299D02*
X411750D01*
X296250Y278849D02*
X411750D01*
X296250Y278399D02*
X411750D01*
X296250Y277949D02*
X411750D01*
X296250Y277499D02*
X411750D01*
X296250Y277049D02*
X411750D01*
X296250Y276599D02*
X411750D01*
X296250Y276149D02*
X411750D01*
X296250Y275699D02*
X411750D01*
X296250Y275249D02*
X411750D01*
X296250Y274799D02*
X411750D01*
X296250Y274349D02*
X411750D01*
X405171Y273899D02*
X411750D01*
X406490Y273449D02*
X411750D01*
X407216Y272999D02*
X411750D01*
X407740Y272549D02*
X411750D01*
X408144Y272099D02*
X411750D01*
X408462Y271649D02*
X411750D01*
X408712Y271199D02*
X411750D01*
X408907Y270749D02*
X411750D01*
X409051Y270299D02*
X411750D01*
X409151Y269849D02*
X411750D01*
X409207Y269399D02*
X411750D01*
X409223Y268949D02*
X411750D01*
X409198Y268499D02*
X411750D01*
X409132Y268049D02*
X411750D01*
X409022Y267599D02*
X411750D01*
X408867Y267149D02*
X411750D01*
X408661Y266699D02*
X411750D01*
X408396Y266249D02*
X411750D01*
X408060Y265799D02*
X411750D01*
X407633Y265349D02*
X411750D01*
X407073Y264899D02*
X411750D01*
X406275Y264449D02*
X411750D01*
X296250Y263999D02*
X411750D01*
X296250Y263549D02*
X411750D01*
X296250Y263099D02*
X411750D01*
X296250Y262649D02*
X411750D01*
X296250Y262199D02*
X411750D01*
X296250Y261749D02*
X411750D01*
X296250Y261299D02*
X411750D01*
X296250Y260849D02*
X411750D01*
X296250Y260399D02*
X411750D01*
X296250Y259949D02*
X411750D01*
X296250Y259499D02*
X411750D01*
X296250Y259049D02*
X411750D01*
X296250Y258599D02*
X411750D01*
X296250Y258149D02*
X411750D01*
X296250Y257699D02*
X411750D01*
X296250Y257249D02*
X411750D01*
X296250Y256799D02*
X411750D01*
X296250Y256349D02*
X411750D01*
X296250Y255899D02*
X411750D01*
X296250Y255449D02*
X411750D01*
X296250Y254999D02*
X411750D01*
X296250Y254549D02*
X411750D01*
X296250Y254099D02*
X411750D01*
X296250Y253649D02*
X411750D01*
X296250Y253199D02*
X411750D01*
X296250Y252749D02*
X411750D01*
X296250Y252299D02*
X411750D01*
X296250Y251849D02*
X411750D01*
X296250Y251399D02*
X411750D01*
X296250Y250949D02*
X411750D01*
X296250Y250499D02*
X411750D01*
X296250Y250049D02*
X411750D01*
X296250Y249599D02*
X411750D01*
X296250Y249149D02*
X411750D01*
X296250Y248699D02*
X411750D01*
X296250Y248249D02*
X411750D01*
X376552Y247799D02*
X411750D01*
X377173Y247349D02*
X411750D01*
X377576Y246899D02*
X411750D01*
X377853Y246449D02*
X411750D01*
X378040Y245999D02*
X411750D01*
X378153Y245549D02*
X411750D01*
X378198Y245099D02*
X411750D01*
X378181Y244649D02*
X411750D01*
X378098Y244199D02*
X411750D01*
X377945Y243749D02*
X411750D01*
X377710Y243299D02*
X411750D01*
X377369Y242849D02*
X411750D01*
X376864Y242399D02*
X411750D01*
X375964Y241949D02*
X411750D01*
X296250Y241499D02*
X411750D01*
X296250Y241049D02*
X411750D01*
X296250Y240599D02*
X411750D01*
X296250Y240149D02*
X411750D01*
X296250Y239699D02*
X411750D01*
X296250Y239249D02*
X411750D01*
X296250Y238799D02*
X411750D01*
X296250Y238349D02*
X411750D01*
X376356Y237899D02*
X411750D01*
X377060Y237449D02*
X411750D01*
X377499Y236999D02*
X411750D01*
X377800Y236549D02*
X411750D01*
X378005Y236099D02*
X411750D01*
X378134Y235649D02*
X411750D01*
X378194Y235199D02*
X411750D01*
X378190Y234749D02*
X411750D01*
X378122Y234299D02*
X411750D01*
X377986Y233849D02*
X411750D01*
X377771Y233399D02*
X411750D01*
X377456Y232949D02*
X411750D01*
X376996Y232499D02*
X411750D01*
X376237Y232049D02*
X411750D01*
X296250Y231599D02*
X411750D01*
X296250Y231149D02*
X411750D01*
X296250Y230699D02*
X411750D01*
X296250Y230249D02*
X411750D01*
X296250Y229799D02*
X411750D01*
X296250Y229349D02*
X411750D01*
X296250Y228899D02*
X411750D01*
X296250Y228449D02*
X411750D01*
X376117Y227999D02*
X411750D01*
X376935Y227549D02*
X411750D01*
X377416Y227099D02*
X411750D01*
X377743Y226649D02*
X411750D01*
X377967Y226199D02*
X411750D01*
X378111Y225749D02*
X411750D01*
X378186Y225299D02*
X411750D01*
X378196Y224849D02*
X411750D01*
X378143Y224399D02*
X411750D01*
X378022Y223949D02*
X411750D01*
X377826Y223499D02*
X411750D01*
X377536Y223049D02*
X411750D01*
X377115Y222599D02*
X411750D01*
X376453Y222149D02*
X411750D01*
X296250Y221699D02*
X411750D01*
X389254Y221249D02*
X411750D01*
X389252Y220799D02*
X411750D01*
X389458Y220349D02*
X411750D01*
X389595Y219899D02*
X411750D01*
X389620Y219449D02*
X411750D01*
X389664Y218999D02*
X411750D01*
X389734Y218549D02*
X411750D01*
X389831Y218099D02*
X411750D01*
X389956Y217649D02*
X411750D01*
X390119Y217199D02*
X411750D01*
X390352Y216749D02*
X411750D01*
X390620Y216299D02*
X411750D01*
X390927Y215849D02*
X411750D01*
X391278Y215399D02*
X411750D01*
X391680Y214949D02*
X411750D01*
X392144Y214499D02*
X411750D01*
X392686Y214049D02*
X411750D01*
X393333Y213599D02*
X411750D01*
X394137Y213149D02*
X411750D01*
X395234Y212699D02*
X411750D01*
X343784Y290549D02*
X411745D01*
X296250Y273899D02*
X403302D01*
X296250Y264449D02*
X402198D01*
X296250Y273449D02*
X401982D01*
X296250Y264899D02*
X401399D01*
X296250Y272999D02*
X401256D01*
X296250Y265349D02*
X400839D01*
X296250Y272549D02*
X400732D01*
X296250Y265799D02*
X400412D01*
X296250Y272099D02*
X400329D01*
X296250Y266249D02*
X400077D01*
X296250Y271649D02*
X400011D01*
X296250Y266699D02*
X399812D01*
X296250Y271199D02*
X399760D01*
X296250Y267149D02*
X399606D01*
X296250Y270749D02*
X399566D01*
X296250Y267599D02*
X399450D01*
X296250Y270299D02*
X399421D01*
X296250Y268049D02*
X399341D01*
X296250Y269849D02*
X399322D01*
X296250Y268499D02*
X399274D01*
X296250Y269399D02*
X399265D01*
X296250Y268949D02*
X399249D01*
X365964Y241949D02*
X374036D01*
X366117Y227999D02*
X373883D01*
X366237Y232049D02*
X373763D01*
X366356Y237899D02*
X373644D01*
X366453Y222149D02*
X373547D01*
X366552Y247799D02*
X373448D01*
X366864Y242399D02*
X373136D01*
X366935Y227549D02*
X373065D01*
X366996Y232499D02*
X373004D01*
X367060Y237449D02*
X372940D01*
X367115Y222599D02*
X372885D01*
X367173Y247349D02*
X372827D01*
X367369Y242849D02*
X372631D01*
X367416Y227099D02*
X372584D01*
X367456Y232949D02*
X372544D01*
X367499Y236999D02*
X372501D01*
X367536Y223049D02*
X372464D01*
X367576Y246899D02*
X372424D01*
X367710Y243299D02*
X372290D01*
X367743Y226649D02*
X372257D01*
X367771Y233399D02*
X372229D01*
X367800Y236549D02*
X372200D01*
X367826Y223499D02*
X372174D01*
X367853Y246449D02*
X372147D01*
X367945Y243749D02*
X372055D01*
X367967Y226199D02*
X372033D01*
X367986Y233849D02*
X372014D01*
X368005Y236099D02*
X371995D01*
X368022Y223949D02*
X371978D01*
X368040Y245999D02*
X371960D01*
X368098Y244199D02*
X371902D01*
X368111Y225749D02*
X371889D01*
X368122Y234299D02*
X371878D01*
X368134Y235649D02*
X371866D01*
X368143Y224399D02*
X371857D01*
X368153Y245549D02*
X371847D01*
X368181Y244649D02*
X371819D01*
X368186Y225299D02*
X371814D01*
X368190Y234749D02*
X371810D01*
X368194Y235199D02*
X371806D01*
X368196Y224849D02*
X371804D01*
X368198Y245099D02*
X371802D01*
X335964Y241949D02*
X364036D01*
X336117Y227999D02*
X363883D01*
X336237Y232049D02*
X363763D01*
X336356Y237899D02*
X363644D01*
X336453Y222149D02*
X363547D01*
X336552Y247799D02*
X363448D01*
X336864Y242399D02*
X363136D01*
X336935Y227549D02*
X363065D01*
X336996Y232499D02*
X363004D01*
X337060Y237449D02*
X362940D01*
X337115Y222599D02*
X362885D01*
X337173Y247349D02*
X362827D01*
X337369Y242849D02*
X362631D01*
X337416Y227099D02*
X362584D01*
X337456Y232949D02*
X362544D01*
X337499Y236999D02*
X362501D01*
X337536Y223049D02*
X362464D01*
X337576Y246899D02*
X362424D01*
X337710Y243299D02*
X362290D01*
X337743Y226649D02*
X362257D01*
X337771Y233399D02*
X362229D01*
X337800Y236549D02*
X362200D01*
X337826Y223499D02*
X362174D01*
X337853Y246449D02*
X362147D01*
X337945Y243749D02*
X362055D01*
X337967Y226199D02*
X362033D01*
X337986Y233849D02*
X362014D01*
X338005Y236099D02*
X361995D01*
X338022Y223949D02*
X361978D01*
X338040Y245999D02*
X361960D01*
X338098Y244199D02*
X361902D01*
X338111Y225749D02*
X361889D01*
X338122Y234299D02*
X361878D01*
X338134Y235649D02*
X361866D01*
X338143Y224399D02*
X361857D01*
X338153Y245549D02*
X361847D01*
X338181Y244649D02*
X361819D01*
X338186Y225299D02*
X361814D01*
X338190Y234749D02*
X361810D01*
X338194Y235199D02*
X361806D01*
X338196Y224849D02*
X361804D01*
X338198Y245099D02*
X361802D01*
X296250Y290099D02*
X340706D01*
X296255Y290549D02*
X340216D01*
X325964Y241949D02*
X334036D01*
X326117Y227999D02*
X333883D01*
X326237Y232049D02*
X333763D01*
X326356Y237899D02*
X333644D01*
X326453Y222149D02*
X333547D01*
X326552Y247799D02*
X333448D01*
X326864Y242399D02*
X333136D01*
X326935Y227549D02*
X333065D01*
X326996Y232499D02*
X333004D01*
X327060Y237449D02*
X332940D01*
X327115Y222599D02*
X332885D01*
X327173Y247349D02*
X332827D01*
X327369Y242849D02*
X332631D01*
X327416Y227099D02*
X332584D01*
X327456Y232949D02*
X332544D01*
X327499Y236999D02*
X332501D01*
X327536Y223049D02*
X332464D01*
X327576Y246899D02*
X332424D01*
X327710Y243299D02*
X332290D01*
X327743Y226649D02*
X332257D01*
X327771Y233399D02*
X332229D01*
X327800Y236549D02*
X332200D01*
X327826Y223499D02*
X332174D01*
X327853Y246449D02*
X332147D01*
X327945Y243749D02*
X332055D01*
X327967Y226199D02*
X332033D01*
X327986Y233849D02*
X332014D01*
X328005Y236099D02*
X331995D01*
X328022Y223949D02*
X331978D01*
X328040Y245999D02*
X331960D01*
X328098Y244199D02*
X331902D01*
X328111Y225749D02*
X331889D01*
X328122Y234299D02*
X331878D01*
X328134Y235649D02*
X331866D01*
X328143Y224399D02*
X331857D01*
X328153Y245549D02*
X331847D01*
X328181Y244649D02*
X331819D01*
X328186Y225299D02*
X331814D01*
X328190Y234749D02*
X331810D01*
X328194Y235199D02*
X331806D01*
X328196Y224849D02*
X331804D01*
X328198Y245099D02*
X331802D01*
X296250Y241949D02*
X324036D01*
X296250Y227999D02*
X323883D01*
X296250Y232049D02*
X323763D01*
X296250Y237899D02*
X323644D01*
X296250Y222149D02*
X323547D01*
X296250Y247799D02*
X323448D01*
X296250Y242399D02*
X323136D01*
X296250Y227549D02*
X323065D01*
X296250Y232499D02*
X323004D01*
X296250Y237449D02*
X322940D01*
X296250Y222599D02*
X322885D01*
X296250Y247349D02*
X322827D01*
X296250Y242849D02*
X322631D01*
X296250Y227099D02*
X322584D01*
X296250Y232949D02*
X322544D01*
X296250Y236999D02*
X322501D01*
X296250Y223049D02*
X322464D01*
X296250Y246899D02*
X322424D01*
X296250Y243299D02*
X322290D01*
X296250Y226649D02*
X322257D01*
X296250Y233399D02*
X322229D01*
X296250Y236549D02*
X322200D01*
X296250Y223499D02*
X322174D01*
X296250Y246449D02*
X322147D01*
X296250Y243749D02*
X322055D01*
X296250Y226199D02*
X322033D01*
X296250Y233849D02*
X322014D01*
X296250Y236099D02*
X321995D01*
X296250Y223949D02*
X321978D01*
X296250Y245999D02*
X321960D01*
X296250Y244199D02*
X321902D01*
X296250Y225749D02*
X321889D01*
X296250Y234299D02*
X321878D01*
X296250Y235649D02*
X321866D01*
X296250Y224399D02*
X321857D01*
X296250Y245549D02*
X321847D01*
X296250Y244649D02*
X321819D01*
X296250Y225299D02*
X321814D01*
X296250Y234749D02*
X321810D01*
X296250Y235199D02*
X321806D01*
X296250Y224849D02*
X321804D01*
X296250Y245099D02*
X321802D01*
X296250Y149149D02*
X441750D01*
X296250Y148699D02*
X441750D01*
X296250Y148249D02*
X441750D01*
X376552Y147799D02*
X441750D01*
X424659Y147349D02*
X441750D01*
X425875Y146899D02*
X441750D01*
X426656Y146449D02*
X441750D01*
X427251Y145999D02*
X441750D01*
X427729Y145549D02*
X441750D01*
X428124Y145099D02*
X441750D01*
X428454Y144649D02*
X441750D01*
X428729Y144199D02*
X441750D01*
X428958Y143749D02*
X441750D01*
X429146Y143299D02*
X441750D01*
X429296Y142849D02*
X441750D01*
X429411Y142399D02*
X441750D01*
X429493Y141949D02*
X441750D01*
X429543Y141499D02*
X441750D01*
X429562Y141049D02*
X441750D01*
X429550Y140599D02*
X441750D01*
X429506Y140149D02*
X441750D01*
X429432Y139699D02*
X441750D01*
X429324Y139249D02*
X441750D01*
X429182Y138799D02*
X441750D01*
X429002Y138349D02*
X441750D01*
X428783Y137899D02*
X441750D01*
X428518Y137449D02*
X441750D01*
X428201Y136999D02*
X441750D01*
X427821Y136549D02*
X441750D01*
X427363Y136099D02*
X441750D01*
X426798Y135649D02*
X441750D01*
X426066Y135199D02*
X441750D01*
X424995Y134749D02*
X441750D01*
X378122Y134299D02*
X441750D01*
X377986Y133849D02*
X441750D01*
X377771Y133399D02*
X441750D01*
X377456Y132949D02*
X441750D01*
X376996Y132499D02*
X441750D01*
X376237Y132049D02*
X441750D01*
X296250Y131599D02*
X441750D01*
X296250Y131149D02*
X441750D01*
X296250Y130699D02*
X441750D01*
X296270Y149599D02*
X441730D01*
X377173Y147349D02*
X421341D01*
X378190Y134749D02*
X421005D01*
X377576Y146899D02*
X420125D01*
X378194Y135199D02*
X419934D01*
X377853Y146449D02*
X419344D01*
X378134Y135649D02*
X419202D01*
X378040Y145999D02*
X418749D01*
X378005Y136099D02*
X418637D01*
X378153Y145549D02*
X418271D01*
X377800Y136549D02*
X418179D01*
X378198Y145099D02*
X417876D01*
X377499Y136999D02*
X417799D01*
X378181Y144649D02*
X417546D01*
X377060Y137449D02*
X417482D01*
X378098Y144199D02*
X417271D01*
X376356Y137899D02*
X417217D01*
X377945Y143749D02*
X417042D01*
X296250Y138349D02*
X416998D01*
X377710Y143299D02*
X416854D01*
X296250Y138799D02*
X416818D01*
X377369Y142849D02*
X416704D01*
X296250Y139249D02*
X416676D01*
X376864Y142399D02*
X416589D01*
X296250Y139699D02*
X416568D01*
X375964Y141949D02*
X416507D01*
X296250Y140149D02*
X416494D01*
X296250Y141499D02*
X416457D01*
X296250Y140599D02*
X416450D01*
X296250Y141049D02*
X416438D01*
X365964Y141949D02*
X374036D01*
X366237Y132049D02*
X373763D01*
X366356Y137899D02*
X373644D01*
X366552Y147799D02*
X373448D01*
X366864Y142399D02*
X373136D01*
X366996Y132499D02*
X373004D01*
X367060Y137449D02*
X372940D01*
X367173Y147349D02*
X372827D01*
X367369Y142849D02*
X372631D01*
X367456Y132949D02*
X372544D01*
X367499Y136999D02*
X372501D01*
X367576Y146899D02*
X372424D01*
X367710Y143299D02*
X372290D01*
X367771Y133399D02*
X372229D01*
X367800Y136549D02*
X372200D01*
X367853Y146449D02*
X372147D01*
X367945Y143749D02*
X372055D01*
X367986Y133849D02*
X372014D01*
X368005Y136099D02*
X371995D01*
X368040Y145999D02*
X371960D01*
X368098Y144199D02*
X371902D01*
X368122Y134299D02*
X371878D01*
X368134Y135649D02*
X371866D01*
X368153Y145549D02*
X371847D01*
X368181Y144649D02*
X371819D01*
X368190Y134749D02*
X371810D01*
X368194Y135199D02*
X371806D01*
X368198Y145099D02*
X371802D01*
X335964Y141949D02*
X364036D01*
X336237Y132049D02*
X363763D01*
X336356Y137899D02*
X363644D01*
X336552Y147799D02*
X363448D01*
X336864Y142399D02*
X363136D01*
X336996Y132499D02*
X363004D01*
X337060Y137449D02*
X362940D01*
X337173Y147349D02*
X362827D01*
X337369Y142849D02*
X362631D01*
X337456Y132949D02*
X362544D01*
X337499Y136999D02*
X362501D01*
X337576Y146899D02*
X362424D01*
X337710Y143299D02*
X362290D01*
X337771Y133399D02*
X362229D01*
X337800Y136549D02*
X362200D01*
X337853Y146449D02*
X362147D01*
X337945Y143749D02*
X362055D01*
X337986Y133849D02*
X362014D01*
X338005Y136099D02*
X361995D01*
X338040Y145999D02*
X361960D01*
X338098Y144199D02*
X361902D01*
X338122Y134299D02*
X361878D01*
X338134Y135649D02*
X361866D01*
X338153Y145549D02*
X361847D01*
X338181Y144649D02*
X361819D01*
X338190Y134749D02*
X361810D01*
X338194Y135199D02*
X361806D01*
X338198Y145099D02*
X361802D01*
X325964Y141949D02*
X334036D01*
X326237Y132049D02*
X333763D01*
X326356Y137899D02*
X333644D01*
X326552Y147799D02*
X333448D01*
X326864Y142399D02*
X333136D01*
X326996Y132499D02*
X333004D01*
X327060Y137449D02*
X332940D01*
X327173Y147349D02*
X332827D01*
X327369Y142849D02*
X332631D01*
X327456Y132949D02*
X332544D01*
X327499Y136999D02*
X332501D01*
X327576Y146899D02*
X332424D01*
X327710Y143299D02*
X332290D01*
X327771Y133399D02*
X332229D01*
X327800Y136549D02*
X332200D01*
X327853Y146449D02*
X332147D01*
X327945Y143749D02*
X332055D01*
X327986Y133849D02*
X332014D01*
X328005Y136099D02*
X331995D01*
X328040Y145999D02*
X331960D01*
X328098Y144199D02*
X331902D01*
X328122Y134299D02*
X331878D01*
X328134Y135649D02*
X331866D01*
X328153Y145549D02*
X331847D01*
X328181Y144649D02*
X331819D01*
X328190Y134749D02*
X331810D01*
X328194Y135199D02*
X331806D01*
X328198Y145099D02*
X331802D01*
X296250Y141949D02*
X324036D01*
X296250Y132049D02*
X323763D01*
X296250Y137899D02*
X323644D01*
X296250Y147799D02*
X323448D01*
X296250Y142399D02*
X323136D01*
X296250Y132499D02*
X323004D01*
X296250Y137449D02*
X322940D01*
X296250Y147349D02*
X322827D01*
X296250Y142849D02*
X322631D01*
X296250Y132949D02*
X322544D01*
X296250Y136999D02*
X322501D01*
X296250Y146899D02*
X322424D01*
X296250Y143299D02*
X322290D01*
X296250Y133399D02*
X322229D01*
X296250Y136549D02*
X322200D01*
X296250Y146449D02*
X322147D01*
X296250Y143749D02*
X322055D01*
X296250Y133849D02*
X322014D01*
X296250Y136099D02*
X321995D01*
X296250Y145999D02*
X321960D01*
X296250Y144199D02*
X321902D01*
X296250Y134299D02*
X321878D01*
X296250Y135649D02*
X321866D01*
X296250Y145549D02*
X321847D01*
X296250Y144649D02*
X321819D01*
X296250Y134749D02*
X321810D01*
X296250Y135199D02*
X321806D01*
X296250Y145099D02*
X321802D01*
G54D23*
X427640Y136360D02*
X426897Y137103D01*
X427640Y145640D02*
X426897Y144897D01*
X418360Y145640D02*
X419103Y144897D01*
X418360Y136360D02*
X419103Y137103D01*
X427640Y156360D02*
X426897Y157103D01*
X427640Y165640D02*
X426897Y164897D01*
X418360Y165640D02*
X419103Y164897D01*
X418360Y156360D02*
X419103Y157103D01*
X427640Y176360D02*
X426897Y177103D01*
X427640Y185640D02*
X426897Y184897D01*
X418360Y185640D02*
X419103Y184897D01*
X418360Y176360D02*
X419103Y177103D01*
X430516Y265752D02*
X431258Y266495D01*
X437012Y265752D02*
X436269Y266495D01*
X437012Y272248D02*
X436269Y271505D01*
X430516Y272248D02*
X431258Y271505D01*
X427640Y196360D02*
X426897Y197103D01*
X427640Y205640D02*
X426897Y204897D01*
X418360Y205640D02*
X419103Y204897D01*
X418360Y196360D02*
X419103Y197103D01*
X400710Y265474D02*
X401452Y266216D01*
X407763Y265474D02*
X407020Y266216D01*
X407763Y272526D02*
X407020Y271784D01*
X400710Y272526D02*
X401452Y271784D01*
X163998Y292805D02*
X163079Y291886D01*
X158262Y287069D02*
X159181Y287988D01*
X163998Y287069D02*
X163079Y287988D01*
G54D24*
X433764Y269000D03*
G74*
X0Y0D02*
M02*
