%
T1C.015F0S0
X010485Y010485
X012485Y010485
X014485Y010485
X014485Y012485
X016485Y010485
X016485Y012485
X018485Y010485
X018485Y012485
X020485Y010485
X020485Y012485
X022485Y010485
X022485Y012485
X024485Y010485
X024485Y012485
X026485Y010485
X026485Y012485
X028485Y010485
X028485Y012485
X030485Y010485
X030485Y012485
X032485Y010485
X032485Y012485
X034485Y010485
X034485Y012485
X036485Y010485
X036485Y012485
X038485Y010485
X038485Y012485
X040485Y010485
X040485Y012485
X042485Y010485
X042485Y012485
X044485Y010485
X044485Y012485
X043785Y013985
X040785Y013985
X039385Y013985
X038785Y013985
X037785Y013985
X036785Y013985
X035785Y013985
X0348Y014
X0338Y014
X0328Y014
X0318Y014
X0308Y014
X029785Y013985
X028485Y014485
X026485Y014485
X024485Y014485
X022485Y014485
X020485Y014485
X018485Y014485
X01695Y0153
X016485Y014485
X014485Y014485
X01725Y0158
X02045Y0168
X02125Y0173
X02205Y0178
X022485Y016485
X024485Y016485
X028485Y016485
X0298Y016
X0308Y016
X0318Y016
X0328Y016
X0338Y016
X034844Y015985
X035844Y015985
X036844Y015985
X037844Y015985
X038844Y015985
X039444Y015985
X040844Y015985
X0438Y016
X0438Y018
X0437Y02
X040844Y017985
X040844Y019985
X039444Y017985
X039444Y019985
X038844Y017985
X038844Y019985
X037844Y017985
X037844Y019985
X036844Y017985
X036844Y019985
X035844Y019985
X035844Y017985
X034844Y019985
X034844Y017985
X033844Y019985
X033844Y017985
X0328Y02
X0328Y018
X0318Y02
X0318Y018
X0308Y018
X0308Y02
X0298Y02
X0298Y018
X028485Y018485
X024485Y018485
X022485Y018485
X0156Y0208
X0156Y0218
X018485Y022485
X01855Y0213
X01995Y0213
X022485Y020485
X024485Y020485
X024485Y022485
X028485Y020485
X028485Y022485
X0298Y021
X0308Y021
X0318Y021
X0328Y021
X033844Y020985
X034844Y020985
X035844Y020985
X036844Y020985
X037844Y020985
X038844Y020985
X0438Y023
X0438Y024
X043785Y025285
X0425Y023
X0425Y024
X0424Y0253
X0408Y023
X0408Y024
X040785Y025285
X0398Y023
X0398Y024
X0388Y023
X0388Y024
X038785Y025285
X0378Y024
X0378Y023
X0368Y024
X0368Y023
X036785Y025285
X0358Y024
X0358Y023
X0348Y024
X0348Y023
X034785Y025285
X0338Y024
X0338Y023
X033785Y025285
X0328Y024
X0328Y023
X0318Y023
X0318Y024
X031785Y025285
X0308Y023
X0308Y024
X0298Y024
X0298Y023
X029785Y025285
X028485Y024485
X02015Y0238
X01895Y0233
X01795Y0238
X01755Y0233
X010485Y028485
X012485Y028485
X014485Y028485
X0162Y0263
X026485Y026485
X026485Y028485
X028485Y026485
X028485Y028485
X029785Y026785
X029785Y028285
X031785Y026785
X031785Y028285
X033785Y026785
X033785Y028285
X0342Y0292
X034785Y026785
X034785Y028285
X036785Y026785
X036785Y028285
X038785Y028285
X038785Y026785
X040785Y028285
T2C.03543F0S0
X016113Y028206
X016113Y028994
X0169Y028206
X0169Y028994
X017688Y028206
X017688Y028994
X018475Y028206
X018475Y028994
X019263Y028206
X019263Y028994
X02005Y028206
X02005Y028994
X020837Y028206
X020837Y028994
X021625Y028206
X021625Y028994
X022412Y028206
X022412Y028994
X0232Y028206
X0232Y028994
X023987Y028206
X023987Y028994
T3C.03937F0S0
X040424Y0269
X043376Y0269
T4C.04F0S0
X0117Y0123
X0117Y0153
X0117Y0143
X0117Y0133
X0127Y0153
X0127Y0123
X0127Y0143
X0127Y0133
X0325Y0135
X0325Y0145
X0335Y0135
X0335Y0145
X0365Y0145
X0365Y0135
X0375Y0145
X0375Y0135
X0375Y0165
X0375Y0155
X0375Y0175
X0365Y0165
X0365Y0175
X0365Y0155
X0335Y0165
X0335Y0155
X0335Y0175
X0325Y0165
X0325Y0175
X0325Y0155
X0127Y0173
X0127Y0163
X0117Y0173
X0117Y0163
X0117Y0203
X0117Y0193
X0117Y0183
X0127Y0203
X0127Y0193
X0127Y0183
X0325Y0195
X0325Y0185
X0335Y0185
X0335Y0195
X0365Y0195
X0365Y0185
X0375Y0195
X0375Y0185
X0375Y0205
X0375Y0225
X0375Y0215
X0365Y0225
X0365Y0205
X0365Y0215
X0335Y0225
X0335Y0205
X0335Y0215
X0325Y0205
X0325Y0225
X0325Y0215
X0127Y0223
X0127Y0213
X0117Y0223
X0117Y0213
X0117Y0243
X0117Y0233
X0117Y0253
X0127Y0243
X0127Y0233
X0127Y0253
X0325Y0235
X0325Y0245
X0335Y0235
X0335Y0245
X0365Y0235
X0365Y0245
X0375Y0245
X0375Y0235
X0127Y0263
X0117Y0263
T5C.06496F0S0
X0423Y0141
X0423Y0161
X0423Y0181
X0423Y0201
X0423Y0221
M30
