*
*
G04 PADS 9.3.1 Build Number: 456998 generated Gerber (RS-274-X) file*
G04 PC Version=2.1*
*
%IN "main.pcb"*%
*
%MOIN*%
*
%FSLAX35Y35*%
*
*
*
*
G04 PC Standard Apertures*
*
*
G04 Thermal Relief Aperture macro.*
%AMTER*
1,1,$1,0,0*
1,0,$1-$2,0,0*
21,0,$3,$4,0,0,45*
21,0,$3,$4,0,0,135*
%
*
*
G04 Annular Aperture macro.*
%AMANN*
1,1,$1,0,0*
1,0,$2,0,0*
%
*
*
G04 Odd Aperture macro.*
%AMODD*
1,1,$1,0,0*
1,0,$1-0.005,0,0*
%
*
*
G04 PC Custom Aperture Macros*
*
*
*
*
*
*
G04 PC Aperture Table*
*
%ADD010C,0.001*%
%ADD018R,0.038X0.03*%
%ADD019C,0.01*%
%ADD023C,0.015*%
%ADD036R,0.05118X0.05118*%
%ADD037C,0.05118*%
%ADD054C,0.028*%
*
*
*
*
G04 PC Circuitry*
G04 Layer Name main.pcb - circuitry*
%LPD*%
*
*
G04 PC Custom Flashes*
G04 Layer Name main.pcb - flashes*
%LPD*%
*
*
G04 PC Circuitry*
G04 Layer Name main.pcb - circuitry*
%LPD*%
*
G54D10*
G54D18*
G01X184400Y146000D03*
X190600D03*
X184400Y155000D03*
X190600D03*
X209600D03*
X203400D03*
X209600Y146000D03*
X203400D03*
X227600D03*
X221400D03*
Y155000D03*
X227600D03*
X184900Y130500D03*
X191100D03*
X219900Y120500D03*
X226100D03*
X202900D03*
X209100D03*
X202900Y130500D03*
X209100D03*
X219900D03*
X226100D03*
X191100Y120500D03*
X184900D03*
G54D19*
X150000Y104500D02*
X150600Y106000D01*
Y109400*
X186500Y105000D02*
Y113550D01*
X181500Y118550*
X147500Y108500D02*
Y112864D01*
X151136Y116500*
X165000*
X176500Y128000*
Y128500*
X177000*
X154500Y107500D02*
X179818D01*
X183700Y111382*
Y113693*
X179700Y117693*
Y130538*
X183162Y134000*
X189818*
X191700Y135882*
Y138118*
X188318Y141500*
X183662*
X181200Y143962*
Y148038*
X183662Y150500*
X185700*
X190200Y155000*
X190600*
X150600Y109400D02*
X149500Y110500D01*
Y112318*
X151682Y114500*
X158186*
X176750Y123250D02*
X167500Y114000D01*
X158686*
X158186Y114500*
X172000Y110500D02*
X174000Y112500D01*
X180500*
X172000Y110500D02*
X167500D01*
X166500Y111500*
X152500*
X192689Y114000D02*
Y113778D01*
X192467*
X185522Y120722*
X210035Y110141D02*
X212374Y112479D01*
Y118212*
X219662Y125500*
X231000*
X210035Y110141D02*
X206839D01*
X204500Y112479*
Y115910*
X202900Y117510*
Y120500*
X246000Y125689D02*
X228311Y108000D01*
X198689*
X192689Y114000*
X110500Y117815D02*
X115815D01*
X119000Y121000*
Y125000*
X122000Y128000*
X142000*
X153000Y139000*
Y146500*
X110500Y125689D02*
X114000D01*
X119500Y131189*
X121811*
X134500Y122500D02*
X137500Y125500D01*
X148000*
X155500Y122000D02*
X162818D01*
X175250Y134432*
Y134750*
X179000Y138500*
X152500Y119500D02*
X150732Y121268D01*
Y122768*
X148000Y125500*
X177000Y123000D02*
X176750Y123250D01*
X181500Y118550D02*
Y127500D01*
X184500Y130500*
X184900*
Y120500D02*
Y120722D01*
X185522*
X191100Y120500D02*
X190500D01*
Y124500*
X203700Y125500D02*
X208700Y130500D01*
X209100*
X203700Y125500D02*
X195500D01*
X193500Y127500*
X188300*
X185300Y130500*
X184900*
X209100Y120500D02*
Y130500D01*
X226100Y120500D02*
X229818D01*
X233700Y124382*
Y126618*
X229364Y117500D02*
X240556Y128692D01*
Y135993*
X246000Y141437*
X229364Y117500D02*
X223300D01*
X220300Y120500*
X219900*
X233700Y126618D02*
X229818Y130500D01*
X226100*
X246163Y125526D02*
Y125689D01*
X246000*
X246163Y125526D02*
X251659Y131022D01*
X110500Y133563D02*
X133609D01*
X148500Y148454*
Y160318*
X153823Y165641*
X155000Y168000*
X133591Y131000D02*
X152500Y149909D01*
Y159000*
X133591Y131000D02*
X122000D01*
X121811Y131189*
X154000Y135500D02*
Y136000D01*
X155500Y137500*
Y140000*
X161500Y146000*
Y148500*
X178000Y133500D02*
X182500Y138000D01*
X185500*
X172500Y135500D02*
X169500Y138500D01*
Y141000*
X196000Y131500D02*
X200400Y135900D01*
Y146267*
X191100Y130500D02*
X198500Y137900D01*
Y142000*
X193500Y147000*
X198500Y128500D02*
X201500Y129500D01*
X202900*
Y130500*
X203300*
X207300Y134500*
X222100*
X226100Y130500D02*
X225429D01*
X223622Y132978*
X222100Y134500*
X219900Y130500D02*
X216000D01*
X215500Y131500*
X235000Y134000D02*
X232000Y137000D01*
Y142000*
X251659Y131022D02*
Y149109D01*
X245769Y155000*
X227631*
X110500Y141437D02*
X138937D01*
X146500Y149000*
Y162500*
X151000Y167000*
X134000Y147000D02*
X137500Y150500D01*
X184400Y146000D02*
X184800D01*
X188800Y150000*
X194500*
X191000Y146000D02*
X192000Y147000D01*
X193500*
X197000*
X195000Y139500D02*
Y141400D01*
X193000Y143400*
X191600*
X190663Y144337*
Y145663*
X191000Y146000*
X190600D02*
X191000D01*
X200400Y146267D02*
X199844Y147974D01*
X197818Y150000*
X194500*
X206000Y138000D02*
X218000D01*
X203400Y146000D02*
Y146267D01*
X200400*
X221400Y146000D02*
X209600D01*
X209200*
X203200Y152000*
X197000*
X194000Y155000*
X190600*
X232000Y142000D02*
X233000Y143000D01*
X110500Y149311D02*
X114935D01*
X115624Y150000*
X118000*
X123000Y155000*
X129000*
X133500Y159500*
X137500Y150500D02*
Y161500D01*
X134000Y164500*
X133500*
X184400Y155000D02*
X184800D01*
X188800Y159000*
X192063*
X197563Y164500*
X198500Y155000D02*
X203400D01*
X209600D02*
X209200D01*
X205437Y158763*
Y164500*
X227631Y155000D02*
Y159869D01*
X223000Y164500*
X213311*
X227600Y155000D02*
X227631D01*
X133500Y164500D02*
X133250D01*
Y171500*
X133000*
X177000Y162000D02*
Y170500D01*
X175500Y172000*
X167500Y171000D02*
X168500Y172000D01*
X175500*
X297700Y112500D02*
G75*
G03X297700I-7700J0D01*
G01X298489Y129640D02*
G03X298489I-2700J0D01*
G01Y139640D02*
G03X298489I-2700J0D01*
G01Y149640D02*
G03X298489I-2700J0D01*
G01X288489Y129640D02*
G03X288489I-2700J0D01*
G01Y139640D02*
G03X288489I-2700J0D01*
G01Y149640D02*
G03X288489I-2700J0D01*
G01X297700Y162500D02*
G03X297700I-7700J0D01*
G01X278489Y109640D02*
G03X278489I-2700J0D01*
G01Y119640D02*
G03X278489I-2700J0D01*
G01Y129640D02*
G03X278489I-2700J0D01*
G01Y139640D02*
G03X278489I-2700J0D01*
G01Y149640D02*
G03X278489I-2700J0D01*
G01Y159640D02*
G03X278489I-2700J0D01*
G01Y169640D02*
G03X278489I-2700J0D01*
G01X268489Y109640D02*
G03X268489I-2700J0D01*
G01Y119640D02*
G03X268489I-2700J0D01*
G01X258489Y109640D02*
G03X258489I-2700J0D01*
G01Y119640D02*
G03X258489I-2700J0D01*
G01X268489Y149640D02*
G03X268489I-2700J0D01*
G01Y159640D02*
G03X268489I-2700J0D01*
G01Y169640D02*
G03X268489I-2700J0D01*
G01X258489Y159640D02*
G03X258489I-2700J0D01*
G01Y169640D02*
G03X258489I-2700J0D01*
G01X248489Y159640D02*
G03X248489I-2700J0D01*
G01Y169640D02*
G03X248489I-2700J0D01*
G01X238489Y159640D02*
G03X238489I-2700J0D01*
G01Y169640D02*
G03X238489I-2700J0D01*
G01X228489D02*
G03X228489I-2700J0D01*
G01X172200Y141000D02*
G03X172200I-2700J0D01*
G01X164200Y148500D02*
G03X164200I-2700J0D01*
G01X114359Y157185D02*
G03X114359I-3859J0D01*
G01X128489Y119640D02*
G03X128489I-2700J0D01*
G01X114359Y109941D02*
G03X114359I-3859J0D01*
G01X138489Y109640D02*
G03X138489I-2700J0D01*
G01X248489D02*
G03X248489I-2700J0D01*
G01X238489Y149640D02*
G03X238489I-2700J0D01*
G01X298700Y101300D02*
Y173700D01*
X176092*
X176773Y173273D02*
G03X176092Y173700I-1273J-1273D01*
G01X176773Y173273D02*
X178273Y171773D01*
X178800Y170500D02*
G03X178273Y171773I-1800J0D01*
G01X178800Y170500D02*
Y164012D01*
X175200D02*
G03X178800I1800J-2012D01*
G01X175200D02*
Y169754D01*
X174754Y170200*
X170079*
X167485Y173700D02*
G03X170079Y170200I15J-2700D01*
G01X167485Y173700D02*
X134565D01*
X135050Y169743D02*
G03X134565Y173700I-2050J1757D01*
G01X135050Y169743D02*
Y166711D01*
X136147Y165030D02*
G03X135050Y166711I-2647J-530D01*
G01X136147Y165030D02*
X138671Y162867D01*
X139300Y161500D02*
G03X138671Y162867I-1800J0D01*
G01X139300Y161500D02*
Y150500D01*
X138773Y149227D02*
G03X139300Y150500I-1273J1273D01*
G01X138773Y149227D02*
X136696Y147150D01*
X134150Y149696D02*
G03X136696Y147150I-150J-2696D01*
G01X134150Y149696D02*
X135700Y151246D01*
Y157935*
X133350Y156804D02*
G03X135700Y157935I150J2696D01*
G01X133350Y156804D02*
X130273Y153727D01*
X129000Y153200D02*
G03X130273Y153727I0J1800D01*
G01X129000Y153200D02*
X123746D01*
X119273Y148727*
X118000Y148200D02*
G03X119273Y148727I0J1800D01*
G01X118000Y148200D02*
X116370D01*
X116208Y148038*
X114935Y147511D02*
G03X116208Y148038I0J1800D01*
G01X114935Y147511D02*
X113914D01*
Y151111D02*
G03Y147511I-3414J-1800D01*
G01Y151111D02*
X114189D01*
X114351Y151273*
X115624Y151800D02*
G03X114351Y151273I0J-1800D01*
G01X115624Y151800D02*
X117254D01*
X121727Y156273*
X123000Y156800D02*
G03X121727Y156273I0J-1800D01*
G01X123000Y156800D02*
X128254D01*
X130804Y159350*
X132480Y162000D02*
G03X130804Y159350I1020J-2500D01*
G01X131450Y166257D02*
G03X132480Y162000I2050J-1757D01*
G01X131450Y166257D02*
Y169289D01*
X131435Y173700D02*
G03X131450Y169289I1565J-2200D01*
G01X131435Y173700D02*
X101300D01*
Y101300*
X298700*
X249859Y131767D02*
Y133545D01*
X242356Y132292D02*
G03X249859Y133545I3644J1271D01*
G01X242356Y132292D02*
Y128965D01*
X243441Y129548D02*
G03X242356Y128965I-0J-1300D01*
G01X243441Y129548D02*
X247640D01*
X249859Y131767*
Y133581D02*
Y141419D01*
X244859Y137750D02*
G03X249859Y141419I1141J3687D01*
G01X244859Y137750D02*
X243926Y136817D01*
X249859Y133581D02*
G03X243926Y136817I-3859J-18D01*
G01X242141Y124376D02*
Y127838D01*
X241829Y127420D02*
G03X242141Y127838I-1273J1272D01*
G01X241829Y127420D02*
X230637Y116227D01*
X229364Y115700D02*
G03X230637Y116227I-0J1800D01*
G01X229364Y115700D02*
X223300D01*
X222027Y116227D02*
G03X223300Y115700I1273J1273D01*
G01X222027Y116227D02*
X220554Y117700D01*
X218000*
X216700Y119000D02*
G03X218000Y117700I1300J0D01*
G01X216700Y119000D02*
Y119993D01*
X214174Y117467*
Y117213*
X213648Y111207D02*
G03X214174Y117213I2663J2793D01*
G01X213647Y111207D02*
X212240Y109800D01*
X227565*
X242141Y124376*
X249859Y141455D02*
Y148364D01*
X249764Y148459*
X245148Y153075D02*
G03X249764Y148459I852J-3764D01*
G01X245148Y153075D02*
X245023Y153200D01*
X230765*
X229500Y152200D02*
G03X230765Y153200I0J1300D01*
G01X229500Y152200D02*
X225700D01*
X224500Y153000D02*
G03X225700Y152200I1200J500D01*
G01X223300D02*
G03X224500Y153000I0J1300D01*
G01X223300Y152200D02*
X222065D01*
X222919Y148800D02*
G03X222065Y152200I-2419J1200D01*
G01X222919Y148800D02*
X223300D01*
X224500Y148000D02*
G03X223300Y148800I-1200J-500D01*
G01X225700D02*
G03X224500Y148000I0J-1300D01*
G01X225700Y148800D02*
X229500D01*
X230800Y147500D02*
G03X229500Y148800I-1300J0D01*
G01X230800Y147500D02*
Y144565D01*
X235617Y142335D02*
G03X230800Y144565I-2617J665D01*
G01X233800Y137814D02*
G03X235617Y142335I1989J1826D01*
G01X233800Y137814D02*
Y137746D01*
X234850Y136696*
X232304Y134150D02*
G03X234850Y136696I2696J-150D01*
G01X232304Y134150D02*
X230727Y135727D01*
X230200Y136990D02*
G03X230727Y135727I1800J10D01*
G01X230200Y137015D02*
G03Y136990I-2700J-15D01*
G01Y137015D02*
Y142000D01*
X230322Y142653D02*
G03X230200Y142000I1678J-653D01*
G01X230350Y143516D02*
G03X230322Y142653I2650J-516D01*
G01X229500Y143200D02*
G03X230350Y143516I0J1300D01*
G01X229500Y143200D02*
X225700D01*
X224500Y144000D02*
G03X225700Y143200I1200J500D01*
G01X223300D02*
G03X224500Y144000I0J1300D01*
G01X223300Y143200D02*
X219500D01*
X218235Y144200D02*
G03X219500Y143200I1265J300D01*
G01X218235Y144200D02*
X212765D01*
X211500Y143200D02*
G03X212765Y144200I0J1300D01*
G01X211500Y143200D02*
X207700D01*
X206500Y144000D02*
G03X207700Y143200I1200J500D01*
G01X205300D02*
G03X206500Y144000I0J1300D01*
G01X205300Y143200D02*
X202200D01*
Y135900*
X201673Y134627D02*
G03X202200Y135900I-1273J1273D01*
G01X201673Y134627D02*
X198696Y131650D01*
X198683Y131194D02*
G03X198696Y131650I-2683J306D01*
G01X199700Y130919D02*
G03X198683Y131194I-1200J-2419D01*
G01X199700Y130919D02*
Y132000D01*
X201000Y133300D02*
G03X199700Y132000I0J-1300D01*
G01X201000Y133300D02*
X203554D01*
X205586Y135332*
X208012Y139800D02*
G03X205586Y135332I-2012J-1800D01*
G01X208012Y139800D02*
X215988D01*
X220098Y136300D02*
G03X215988Y139800I-2098J1700D01*
G01X220098Y136300D02*
X222100D01*
X223373Y135773D02*
G03X222100Y136300I-1273J-1273D01*
G01X223373Y135773D02*
X224895Y134251D01*
X225076Y134038D02*
G03X224895Y134251I-1454J-1060D01*
G01X225076Y134038D02*
X225615Y133300D01*
X228000*
X229265Y132300D02*
G03X228000Y133300I-1265J-300D01*
G01X229265Y132300D02*
X229818D01*
X231091Y131773D02*
G03X229818Y132300I-1273J-1273D01*
G01X231091Y131773D02*
X234973Y127891D01*
X235500Y126618D02*
G03X234973Y127891I-1800J0D01*
G01X235500Y126618D02*
Y126182D01*
X238756Y129438*
Y135993*
X239284Y137266D02*
G03X238756Y135993I1272J-1273D01*
G01X239284Y137266D02*
X242313Y140296D01*
X249859Y141455D02*
G03X242313Y140296I-3859J-18D01*
G01X198600Y136646D02*
Y144825D01*
X194317Y147306D02*
G03X198600Y144825I2683J-306D01*
G01X193800Y147392D02*
G03X194317Y147306I700J2608D01*
G01X193800Y147392D02*
Y144500D01*
X192500Y143200D02*
G03X193800Y144500I0J1300D01*
G01X192500Y143200D02*
X188910D01*
X189591Y142773D02*
G03X188910Y143200I-1273J-1273D01*
G01X189591Y142773D02*
X192349Y140015D01*
X193500Y137255D02*
G03X192349Y140015I1500J2245D01*
G01X193500Y137255D02*
Y135882D01*
X192973Y134609D02*
G03X193500Y135882I-1273J1273D01*
G01X192973Y134609D02*
X191664Y133300D01*
X193000*
X193781Y133039D02*
G03X193000Y133300I-781J-1039D01*
G01X196150Y134196D02*
G03X193781Y133039I-150J-2696D01*
G01X196150Y134196D02*
X198600Y136646D01*
X186800Y143300D02*
X188200D01*
X187500Y144000D02*
G03X188200Y143300I1200J500D01*
G01X186800D02*
G03X187500Y144000I-500J1200D01*
G01X113664Y127899D02*
X117528Y131763D01*
X113914*
X108401Y130325D02*
G03X113914Y131763I2099J3238D01*
G01X108392Y128921D02*
G03X108401Y130325I-2603J719D01*
G01X113664Y127899D02*
G03X108392Y128921I-3164J-2210D01*
G01X188299Y122937D02*
G03X188000Y122500I901J-937D01*
G01X188088Y125713D02*
G03X188299Y122937I2412J-1213D01*
G01X187027Y126227D02*
G03X188088Y125713I1273J1273D01*
G01X187027Y126227D02*
X185554Y127700D01*
X184246*
X183300Y126754*
Y123300*
X186800*
X188000Y122500D02*
G03X186800Y123300I-1200J-500D01*
G01X189900Y136627D02*
Y137373D01*
X187681Y139592*
X187065Y135800D02*
G03X187681Y139592I-1565J2200D01*
G01X187065Y135800D02*
X189073D01*
X189900Y136627*
X207300Y123300D02*
Y126554D01*
X204973Y124227*
X203700Y123700D02*
G03X204973Y124227I0J1800D01*
G01X203700Y123700D02*
X195500D01*
X194227Y124227D02*
G03X195500Y123700I1273J1273D01*
G01X194227Y124227D02*
X193041Y125414D01*
X192919Y123300D02*
G03X193041Y125414I-2419J1200D01*
G01X192919Y123300D02*
X193000D01*
X194300Y122000D02*
G03X193000Y123300I-1300J0D01*
G01X194300Y122000D02*
Y119000D01*
X193623Y117859D02*
G03X194300Y119000I-623J1141D01*
G01X193623Y117859D02*
X195248D01*
X196548Y116559D02*
G03X195248Y117859I-1300J0D01*
G01X196548Y116559D02*
Y112687D01*
X197309Y111926*
X200384Y117855D02*
G03X197309Y111926I179J-3855D01*
G01X199700Y119000D02*
G03X200384Y117855I1300J0D01*
G01X199700Y119000D02*
Y122000D01*
X201000Y123300D02*
G03X199700Y122000I0J-1300D01*
G01X201000Y123300D02*
X204800D01*
X206000Y122500D02*
G03X204800Y123300I-1200J-500D01*
G01X207200D02*
G03X206000Y122500I0J-1300D01*
G01X207200Y123300D02*
X207300D01*
X229836Y127936D02*
G03X228988Y127300I1164J-2436D01*
G01X229836Y127936D02*
X229220Y128552D01*
X228000Y127700D02*
G03X229220Y128552I0J1300D01*
G01X228000Y127700D02*
X224200D01*
X223000Y128500D02*
G03X224200Y127700I1200J500D01*
G01X221800D02*
G03X223000Y128500I0J1300D01*
G01X221800Y127700D02*
X218000D01*
X216700Y129000D02*
G03X218000Y127700I1300J0D01*
G01X216700Y129000D02*
Y129081D01*
X213081Y132700D02*
G03X216700Y129081I2419J-1200D01*
G01X213081Y132700D02*
X212095D01*
X212300Y132000D02*
G03X212095Y132700I-1300J0D01*
G01X212300Y132000D02*
Y129000D01*
X211000Y127700D02*
G03X212300Y129000I0J1300D01*
G01X211000Y127700D02*
X210900D01*
Y123300*
X211000*
X212300Y122000D02*
G03X211000Y123300I-1300J0D01*
G01X212300Y122000D02*
Y120684D01*
X218389Y126773*
X219662Y127300D02*
G03X218389Y126773I-0J-1800D01*
G01X219662Y127300D02*
X228988D01*
X167908Y173700D02*
G03X167847Y173678I592J-1700D01*
G01X167908Y173700D02*
X167515D01*
X167847Y173678D02*
G03X167515Y173700I-347J-2678D01*
G01X297700Y112500D02*
G03X297700I-7700J0D01*
G01X298489Y129640D02*
G03X298489I-2700J0D01*
G01Y139640D02*
G03X298489I-2700J0D01*
G01Y149640D02*
G03X298489I-2700J0D01*
G01X288489Y129640D02*
G03X288489I-2700J0D01*
G01Y139640D02*
G03X288489I-2700J0D01*
G01Y149640D02*
G03X288489I-2700J0D01*
G01X297700Y162500D02*
G03X297700I-7700J0D01*
G01X278489Y109640D02*
G03X278489I-2700J0D01*
G01Y119640D02*
G03X278489I-2700J0D01*
G01Y129640D02*
G03X278489I-2700J0D01*
G01Y139640D02*
G03X278489I-2700J0D01*
G01Y149640D02*
G03X278489I-2700J0D01*
G01Y159640D02*
G03X278489I-2700J0D01*
G01Y169640D02*
G03X278489I-2700J0D01*
G01X268489Y109640D02*
G03X268489I-2700J0D01*
G01Y119640D02*
G03X268489I-2700J0D01*
G01X258489Y109640D02*
G03X258489I-2700J0D01*
G01Y119640D02*
G03X258489I-2700J0D01*
G01X257301Y137403D02*
G03X258132Y140982I7699J97D01*
G01X253459Y138276D02*
G03X257301Y137403I2330J1364D01*
G01X253459Y138276D02*
Y131022D01*
Y131004D02*
G03Y131022I-1800J18D01*
G01X253107Y129953D02*
G03X253459Y131004I2682J-313D01*
G01X252932Y129749D02*
G03X253107Y129953I-1273J1273D01*
G01X252932Y129749D02*
X249859Y126676D01*
Y123130*
X248559Y121830D02*
G03X249859Y123130I0J1300D01*
G01X248559Y121830D02*
X247369D01*
X243176Y120319D02*
G03X247369Y121830I2613J-679D01*
G01X243176Y120319D02*
X235110Y112254D01*
X233176Y110319D02*
G03X235110Y112254I2613J-679D01*
G01X233176Y110319D02*
X229584Y106727D01*
X228311Y106200D02*
G03X229584Y106727I0J1800D01*
G01X228311Y106200D02*
X198689D01*
X197416Y106727D02*
G03X198689Y106200I1273J1273D01*
G01X197416Y106727D02*
X194002Y110141D01*
X190130*
X188830Y111441D02*
G03X190130Y110141I1300J-0D01*
G01X188830Y111441D02*
Y114869D01*
X185999Y117700*
X184896*
X187773Y114823*
X188300Y113550D02*
G03X187773Y114823I-1800J-0D01*
G01X188300Y113550D02*
Y107012D01*
X184700D02*
G03X188300I1800J-2012D01*
G01X184700D02*
Y109836D01*
X181091Y106227*
X179818Y105700D02*
G03X181091Y106227I0J1800D01*
G01X179818Y105700D02*
X156512D01*
X152390Y105815D02*
G03X156512Y105700I2110J1685D01*
G01X152385Y105766D02*
G03X152390Y105815I-1785J234D01*
G01X147635Y105803D02*
G03X152385Y105766I2365J-1303D01*
G01X145700Y110512D02*
G03X147635Y105803I1800J-2012D01*
G01X145700Y110512D02*
Y112864D01*
X146227Y114137D02*
G03X145700Y112864I1273J-1273D01*
G01X146227Y114137D02*
X149863Y117773D01*
X150222Y118051D02*
G03X149863Y117773I914J-1551D01*
G01X149804Y119650D02*
G03X150222Y118051I2696J-150D01*
G01X149804Y119650D02*
X149459Y119995D01*
X148932Y121268D02*
G03X149459Y119995I1800J-0D01*
G01X148932Y121268D02*
Y122022D01*
X148150Y122804*
X145988Y123700D02*
G03X148150Y122804I2012J1800D01*
G01X145988Y123700D02*
X138246D01*
X137196Y122650*
X134650Y125196D02*
G03X137196Y122650I-150J-2696D01*
G01X134650Y125196D02*
X135654Y126200D01*
X122746*
X120800Y124254*
Y121000*
X120273Y119727D02*
G03X120800Y121000I-1273J1273D01*
G01X120273Y119727D02*
X117088Y116542D01*
X115815Y116015D02*
G03X117088Y116542I-0J1800D01*
G01X115815Y116015D02*
X113914D01*
Y119615D02*
G03Y116015I-3414J-1800D01*
G01Y119615D02*
X115069D01*
X117200Y121746*
Y125000*
X117727Y126273D02*
G03X117200Y125000I1273J-1273D01*
G01X117727Y126273D02*
X120727Y129273D01*
X120855Y129389D02*
G03X120727Y129273I1145J-1389D01*
G01X120855Y129389D02*
X120246D01*
X115273Y124416*
X114000Y123889D02*
G03X115273Y124416I0J1800D01*
G01X114000Y123889D02*
X113914D01*
X106950Y127203D02*
G03X113914Y123889I3550J-1514D01*
G01X106935Y132085D02*
G03X106950Y127203I-1146J-2445D01*
G01X113914Y135363D02*
G03X106935Y132085I-3414J-1800D01*
G01X113914Y135363D02*
X132863D01*
X137137Y139637*
X113914*
Y143237D02*
G03Y139637I-3414J-1800D01*
G01Y143237D02*
X138191D01*
X144700Y149746*
Y162500*
X145227Y163773D02*
G03X144700Y162500I1273J-1273D01*
G01X145227Y163773D02*
X148304Y166850D01*
X152577Y169192D02*
G03X148304Y166850I-1577J-2192D01*
G01X155712Y165396D02*
G03X152577Y169192I-712J2604D01*
G01X155712Y165396D02*
X155434Y164838D01*
X155096Y164369D02*
G03X155434Y164838I-1273J1272D01*
G01X155096Y164369D02*
X152426Y161699D01*
X154300Y156988D02*
G03X152426Y161699I-1800J2012D01*
G01X154300Y156988D02*
Y149909D01*
X154047Y148989D02*
G03X154300Y149909I-1547J920D01*
G01X154800Y144488D02*
G03X154047Y148989I-1800J2012D01*
G01X154800Y144488D02*
Y139000D01*
X154580Y138137D02*
G03X154800Y139000I-1580J863D01*
G01X151383Y134837D02*
G03X154580Y138137I2617J663D01*
G01X151383Y134837D02*
X143846Y127300D01*
X145988*
X150696Y125350D02*
G03X145988Y127300I-2696J150D01*
G01X150696Y125350D02*
X152005Y124041D01*
X152532Y122768D02*
G03X152005Y124041I-1800J-0D01*
G01X152532Y122768D02*
Y122200D01*
X152806Y122183D02*
G03X152532Y122200I-306J-2683D01*
G01X157512Y123800D02*
G03X152806Y122183I-2012J-1800D01*
G01X157512Y123800D02*
X162073D01*
X171336Y133064*
X174826Y136871D02*
G03X171336Y133064I-2326J-1371D01*
G01X174826Y136871D02*
X176304Y138350D01*
X179372Y135826D02*
G03X176304Y138350I-372J2674D01*
G01X180647Y134031D02*
G03X179372Y135826I-2647J-531D01*
G01X180647Y134031D02*
X181889Y135273D01*
X183162Y135800D02*
G03X181889Y135273I-0J-1800D01*
G01X183162Y135800D02*
X183935D01*
X183416Y139717D02*
G03X183935Y135800I2084J-1717D01*
G01X182389Y140227D02*
G03X183416Y139717I1273J1273D01*
G01X182389Y140227D02*
X179927Y142689D01*
X179400Y143962D02*
G03X179927Y142689I1800J-0D01*
G01X179400Y143962D02*
Y148038D01*
X179927Y149311D02*
G03X179400Y148038I1273J-1273D01*
G01X179927Y149311D02*
X182389Y151773D01*
X183070Y152200D02*
G03X182389Y151773I592J-1700D01*
G01X183070Y152200D02*
X182500D01*
X181200Y153500D02*
G03X182500Y152200I1300J0D01*
G01X181200Y153500D02*
Y156500D01*
X182500Y157800D02*
G03X181200Y156500I0J-1300D01*
G01X182500Y157800D02*
X185054D01*
X187527Y160273*
X188622Y160791D02*
G03X187527Y160273I178J-1791D01*
G01X186921Y167189D02*
G03X188622Y160791I2768J-2689D01*
G01X187845Y167890D02*
G03X186921Y167189I-2056J1750D01*
G01X192943Y162426D02*
G03X187845Y167890I-3254J2074D01*
G01X192943Y162426D02*
X193876Y163359D01*
X194754Y167146D02*
G03X193876Y163359I2809J-2646D01*
G01X198142Y168315D02*
G03X194754Y167146I-2353J1325D01*
G01X196422Y160813D02*
G03X198142Y168315I1141J3687D01*
G01X196422Y160813D02*
X193336Y157727D01*
X193194Y157599D02*
G03X193336Y157727I-1131J1401D01*
G01X193765Y156800D02*
G03X193194Y157599I-1265J-300D01*
G01X193765Y156800D02*
X194000D01*
X195273Y156273D02*
G03X194000Y156800I-1273J-1273D01*
G01X195273Y156273D02*
X195883Y155663D01*
X200304Y157009D02*
G03X195883Y155663I-1804J-2009D01*
G01X201500Y157800D02*
G03X200304Y157009I0J-1300D01*
G01X201500Y157800D02*
X203916D01*
X203637Y158763D02*
G03X203916Y157800I1800J-0D01*
G01X203637Y158763D02*
Y161086D01*
X207237D02*
G03X203637I-1800J3414D01*
G01X207237D02*
Y159509D01*
X208946Y157800*
X211500*
X212800Y156500D02*
G03X211500Y157800I-1300J0D01*
G01X212800Y156500D02*
Y153500D01*
X211500Y152200D02*
G03X212800Y153500I0J1300D01*
G01X211500Y152200D02*
X207700D01*
X206500Y153000D02*
G03X207700Y152200I1200J500D01*
G01X205526Y152220D02*
G03X206500Y153000I-226J1280D01*
G01X205526Y152220D02*
X208946Y148800D01*
X211500*
X212765Y147800D02*
G03X211500Y148800I-1265J-300D01*
G01X212765Y147800D02*
X213402D01*
X217902Y150734D02*
G03X213402Y147800I-2402J-1234D01*
G01X219053Y152279D02*
G03X217902Y150734I1447J-2279D01*
G01X218200Y153500D02*
G03X219053Y152279I1300J0D01*
G01X218200Y153500D02*
Y156500D01*
X219500Y157800D02*
G03X218200Y156500I0J-1300D01*
G01X219500Y157800D02*
X223300D01*
X224500Y157000D02*
G03X223300Y157800I-1200J-500D01*
G01X225700D02*
G03X224500Y157000I0J-1300D01*
G01X225700Y157800D02*
X225831D01*
Y159123*
X222254Y162700*
X217170*
Y161941*
X215870Y160641D02*
G03X217170Y161941I0J1300D01*
G01X215870Y160641D02*
X210752D01*
X209452Y161941D02*
G03X210752Y160641I1300J-0D01*
G01X209452Y161941D02*
Y167059D01*
X210752Y168359D02*
G03X209452Y167059I-0J-1300D01*
G01X210752Y168359D02*
X215870D01*
X217170Y167059D02*
G03X215870Y168359I-1300J0D01*
G01X217170Y167059D02*
Y166300D01*
X223000*
X224273Y165773D02*
G03X223000Y166300I-1273J-1273D01*
G01X224273Y165773D02*
X228904Y161141D01*
X229431Y159869D02*
G03X228904Y161141I-1800J-0D01*
G01X229431Y159869D02*
Y157800D01*
X229500*
X230765Y156800D02*
G03X229500Y157800I-1265J-300D01*
G01X230765Y156800D02*
X245769D01*
X247041Y156273D02*
G03X245769Y156800I-1272J-1273D01*
G01X247041Y156273D02*
X252932Y150382D01*
X253136Y150139D02*
G03X252932Y150382I-1477J-1030D01*
G01X253459Y148276D02*
G03X253136Y150139I2330J1364D01*
G01X253459Y148276D02*
Y141005D01*
X258132Y140982D02*
G03X253459Y141005I-2343J-1342D01*
G01X238489Y149640D02*
G03X238489I-2700J0D01*
G01X268489D02*
G03X268489I-2700J0D01*
G01Y159640D02*
G03X268489I-2700J0D01*
G01Y169640D02*
G03X268489I-2700J0D01*
G01X258489Y159640D02*
G03X258489I-2700J0D01*
G01Y169640D02*
G03X258489I-2700J0D01*
G01X248489Y159640D02*
G03X248489I-2700J0D01*
G01Y169640D02*
G03X248489I-2700J0D01*
G01X238489Y159640D02*
G03X238489I-2700J0D01*
G01Y169640D02*
G03X238489I-2700J0D01*
G01X228489D02*
G03X228489I-2700J0D01*
G01X172200Y141000D02*
G03X172200I-2700J0D01*
G01X164200Y148500D02*
G03X164200I-2700J0D01*
G01X114359Y157185D02*
G03X114359I-3859J0D01*
G01Y167350D02*
G03X113189Y168912I1430J2290D01*
G01X114359Y167350D02*
Y162500D01*
X113059Y161200D02*
G03X114359Y162500I0J1300D01*
G01X113059Y161200D02*
X107941D01*
X106641Y162500D02*
G03X107941Y161200I1300J0D01*
G01X106641Y162500D02*
Y167078D01*
X108391Y168918D02*
G03X106641Y167078I-2602J722D01*
G01X108391Y168918D02*
X113059D01*
X113189Y168912D02*
G03X113059Y168918I-130J-1294D01*
G01X128489Y119640D02*
G03X128489I-2700J0D01*
G01X114359Y109941D02*
G03X114359I-3859J0D01*
G01X138489Y109640D02*
G03X138489I-2700J0D01*
G01X248489D02*
G03X248489I-2700J0D01*
G01X229153Y128399D02*
X229374D01*
X210900Y127499D02*
X229185D01*
X222953Y128399D02*
X223047D01*
X210900Y126599D02*
X218215D01*
X210900Y125699D02*
X217315D01*
X212153Y128399D02*
X216847D01*
X210900Y124799D02*
X216415D01*
X210900Y123899D02*
X215515D01*
X211832Y122999D02*
X214615D01*
X212300Y129299D02*
X213937D01*
X212296Y122099D02*
X213715D01*
X212300Y130199D02*
X213134D01*
X212300Y131999D02*
X212846D01*
X212300Y131099D02*
X212830D01*
X212300Y121199D02*
X212815D01*
X206444Y125699D02*
X207300D01*
X205544Y124799D02*
X207300D01*
X204522Y123899D02*
X207300D01*
X205632Y122999D02*
X206368D01*
X193832D02*
X200168D01*
X194199Y118499D02*
X199801D01*
X194296Y122099D02*
X199704D01*
X194300Y121199D02*
X199700D01*
X194300Y120299D02*
X199700D01*
X194300Y119399D02*
X199700D01*
X196029Y117599D02*
X199169D01*
X196541Y116699D02*
X197804D01*
X197036Y112199D02*
X197150D01*
X196548Y115799D02*
X197149D01*
X196548Y113099D02*
X196811D01*
X196548Y114899D02*
X196810D01*
X196548Y113999D02*
X196704D01*
X193132Y123899D02*
X194678D01*
X193183Y124799D02*
X193656D01*
X188132Y137399D02*
X189874D01*
X187744Y136499D02*
X189771D01*
X188183Y138299D02*
X188974D01*
X187919Y139199D02*
X188074D01*
X187632Y122999D02*
X188256D01*
X183300Y125699D02*
X188081D01*
X183300Y123899D02*
X187868D01*
X183300Y124799D02*
X187817D01*
X183300Y126599D02*
X186656D01*
X184044Y127499D02*
X185756D01*
X113470Y131099D02*
X116864D01*
X112390Y130199D02*
X115964D01*
X111865Y129299D02*
X115064D01*
X113248Y128399D02*
X114164D01*
X108467Y129299D02*
X109135D01*
X108431Y130199D02*
X108610D01*
X187324Y143699D02*
X187676D01*
X198234Y144599D02*
X198600D01*
X193524Y143699D02*
X198600D01*
X189565Y142799D02*
X198600D01*
X196240Y141899D02*
X198600D01*
X197246Y140999D02*
X198600D01*
X197633Y140099D02*
X198600D01*
X197683Y139199D02*
X198600D01*
X197418Y138299D02*
X198600D01*
X196695Y137399D02*
X198600D01*
X193500Y136499D02*
X198453D01*
X193478Y135599D02*
X197553D01*
X193057Y134699D02*
X196653D01*
X193800Y144599D02*
X195766D01*
X193800Y145499D02*
X194756D01*
X192163Y133799D02*
X194584D01*
X193800Y146399D02*
X194368D01*
X193800Y147299D02*
X194317D01*
X190465Y141899D02*
X193760D01*
X191365Y140999D02*
X192754D01*
X192265Y140099D02*
X192367D01*
X249695Y148199D02*
X249859D01*
X249293Y147299D02*
X249859D01*
X248532Y146399D02*
X249859D01*
X246599Y145499D02*
X249859D01*
X248213Y144599D02*
X249859D01*
X249127Y143699D02*
X249859D01*
X249611Y142799D02*
X249859D01*
X249831Y141899D02*
X249859D01*
X234023Y145499D02*
X245401D01*
X230524Y152699D02*
X244152D01*
X235176Y144599D02*
X243787D01*
X230800Y146399D02*
X243468D01*
X237411Y151799D02*
X243050D01*
X235608Y143699D02*
X242873D01*
X237133Y147299D02*
X242707D01*
X238178Y150899D02*
X242483D01*
X235693Y142799D02*
X242389D01*
X238072Y148199D02*
X242305D01*
X238465Y149999D02*
X242203D01*
X237269Y141899D02*
X242169D01*
X238122Y140999D02*
X242166D01*
X238434Y149099D02*
X242147D01*
X238450Y140099D02*
X242116D01*
X238453Y139199D02*
X241216D01*
X238132Y138299D02*
X240316D01*
X237294Y137399D02*
X239416D01*
X236023Y136499D02*
X238829D01*
X237176Y135599D02*
X238756D01*
X237608Y134699D02*
X238756D01*
X237693Y133799D02*
X238756D01*
X237465Y132899D02*
X238756D01*
X236812Y131999D02*
X238756D01*
X231765Y131099D02*
X238756D01*
X232665Y130199D02*
X238756D01*
X233565Y129299D02*
X238617D01*
X234465Y128399D02*
X237717D01*
X235270Y127499D02*
X236817D01*
X235500Y126599D02*
X235917D01*
X230800Y147299D02*
X234445D01*
X234147Y137399D02*
X234284D01*
X222514Y151799D02*
X234167D01*
X230596Y148199D02*
X233506D01*
X223046Y150899D02*
X233400D01*
X230815Y131999D02*
X233188D01*
X223045Y149099D02*
X233144D01*
X223200Y149999D02*
X233113D01*
X228939Y132899D02*
X232535D01*
X225251Y133799D02*
X232307D01*
X230800Y145499D02*
X231977D01*
X228912Y134699D02*
X231756D01*
X229808Y135599D02*
X230856D01*
X230800Y144599D02*
X230824D01*
X202200Y142799D02*
X230307D01*
X230153Y136499D02*
X230271D01*
X202200Y141899D02*
X230200D01*
X202200Y140999D02*
X230200D01*
X219699Y140099D02*
X230200D01*
X229067Y139199D02*
X230200D01*
X229867Y138299D02*
X230200D01*
X230170Y137399D02*
X230200D01*
X224447Y134699D02*
X226088D01*
X220419Y139199D02*
X225933D01*
X223547Y135599D02*
X225192D01*
X220683Y138299D02*
X225133D01*
X220244Y136499D02*
X224847D01*
X220632Y137399D02*
X224830D01*
X224324Y152699D02*
X224676D01*
X224324Y143699D02*
X224676D01*
X224396Y148199D02*
X224604D01*
X212524Y143699D02*
X218476D01*
X207699Y140099D02*
X216301D01*
X206324Y143699D02*
X206676D01*
X201740Y134699D02*
X204953D01*
X202175Y135599D02*
X204766D01*
X202200Y140099D02*
X204301D01*
X200844Y133799D02*
X204053D01*
X202200Y136499D02*
X203756D01*
X202200Y139199D02*
X203581D01*
X202200Y137399D02*
X203368D01*
X202200Y138299D02*
X203317D01*
X199944Y132899D02*
X200061D01*
X199044Y131999D02*
X199700D01*
X199233Y131099D02*
X199700D01*
X241904Y127499D02*
X242141D01*
X241008Y126599D02*
X242141D01*
X240108Y125699D02*
X242141D01*
X239208Y124799D02*
X242141D01*
X238308Y123899D02*
X241664D01*
X237408Y122999D02*
X240764D01*
X236508Y122099D02*
X239864D01*
X235608Y121199D02*
X238964D01*
X234708Y120299D02*
X238064D01*
X233808Y119399D02*
X237164D01*
X232908Y118499D02*
X236264D01*
X232008Y117599D02*
X235364D01*
X231108Y116699D02*
X234464D01*
X229952Y115799D02*
X233564D01*
X220064Y114899D02*
X232664D01*
X220170Y113999D02*
X231764D01*
X220063Y113099D02*
X230864D01*
X219724Y112199D02*
X229964D01*
X219067Y111299D02*
X229064D01*
X217698Y110399D02*
X228164D01*
X219725Y115799D02*
X222712D01*
X219070Y116699D02*
X221556D01*
X217705Y117599D02*
X220656D01*
X215206Y118499D02*
X216801D01*
X216106Y119399D02*
X216700D01*
X212839Y110399D02*
X214924D01*
X214306Y117599D02*
X214917D01*
X249834Y140999D02*
X249859D01*
X249620Y140099D02*
X249859D01*
X249144Y139199D02*
X249859D01*
X248246Y138299D02*
X249859D01*
X246424Y137399D02*
X249859D01*
X248505Y136499D02*
X249859D01*
X249278Y135599D02*
X249859D01*
X249688Y134699D02*
X249859D01*
X249852Y133799D02*
X249859D01*
X244507Y137399D02*
X245576D01*
X249801Y132899D02*
X249859D01*
X249528Y131999D02*
X249859D01*
X248970Y131099D02*
X249190D01*
X247890Y130199D02*
X248290D01*
X242356D02*
X244110D01*
X242356Y131099D02*
X243030D01*
X242356Y129299D02*
X242675D01*
X242356Y131999D02*
X242472D01*
X176633Y173399D02*
X298700D01*
X177547Y172499D02*
X298700D01*
X277648Y171599D02*
X298700D01*
X278273Y170699D02*
X298700D01*
X292453Y169799D02*
X298700D01*
X294283Y168899D02*
X298700D01*
X295390Y167999D02*
X298700D01*
X296176Y167099D02*
X298700D01*
X296754Y166199D02*
X298700D01*
X297173Y165299D02*
X298700D01*
X297462Y164399D02*
X298700D01*
X297635Y163499D02*
X298700D01*
X297699Y162599D02*
X298700D01*
X297658Y161699D02*
X298700D01*
X297510Y160799D02*
X298700D01*
X297247Y159899D02*
X298700D01*
X296858Y158999D02*
X298700D01*
X296318Y158099D02*
X298700D01*
X295584Y157199D02*
X298700D01*
X294564Y156299D02*
X298700D01*
X292977Y155399D02*
X298700D01*
X248815Y154499D02*
X298700D01*
X249715Y153599D02*
X298700D01*
X250615Y152699D02*
X298700D01*
X297411Y151799D02*
X298700D01*
X298178Y150899D02*
X298700D01*
X298465Y149999D02*
X298700D01*
X298434Y149099D02*
X298700D01*
X298072Y148199D02*
X298700D01*
X297133Y147299D02*
X298700D01*
X253459Y146399D02*
X298700D01*
X253459Y145499D02*
X298700D01*
X267983Y144599D02*
X298700D01*
X269568Y143699D02*
X298700D01*
X270587Y142799D02*
X298700D01*
X297269Y141899D02*
X298700D01*
X298122Y140999D02*
X298700D01*
X298450Y140099D02*
X298700D01*
X298453Y139199D02*
X298700D01*
X298132Y138299D02*
X298700D01*
X297294Y137399D02*
X298700D01*
X272635Y136499D02*
X298700D01*
X272462Y135599D02*
X298700D01*
X272172Y134699D02*
X298700D01*
X271752Y133799D02*
X298700D01*
X271174Y132899D02*
X298700D01*
X297104Y131999D02*
X298700D01*
X298061Y131099D02*
X298700D01*
X298431Y130199D02*
X298700D01*
X298467Y129299D02*
X298700D01*
X298187Y128399D02*
X298700D01*
X297433Y127499D02*
X298700D01*
X249859Y126599D02*
X298700D01*
X249859Y125699D02*
X298700D01*
X249859Y124799D02*
X298700D01*
X249859Y123899D02*
X298700D01*
X249852Y122999D02*
X298700D01*
X276905Y122099D02*
X298700D01*
X277994Y121199D02*
X298700D01*
X278408Y120299D02*
X298700D01*
X293420Y119399D02*
X298700D01*
X294828Y118499D02*
X298700D01*
X295770Y117599D02*
X298700D01*
X296455Y116699D02*
X298700D01*
X296958Y115799D02*
X298700D01*
X297317Y114899D02*
X298700D01*
X297553Y113999D02*
X298700D01*
X297677Y113099D02*
X298700D01*
X297694Y112199D02*
X298700D01*
X297606Y111299D02*
X298700D01*
X297408Y110399D02*
X298700D01*
X297091Y109499D02*
X298700D01*
X296639Y108599D02*
X298700D01*
X296020Y107699D02*
X298700D01*
X295175Y106799D02*
X298700D01*
X293964Y105899D02*
X298700D01*
X291738Y104999D02*
X298700D01*
X189045Y104099D02*
X298700D01*
X188511Y103199D02*
X298700D01*
X151563Y102299D02*
X298700D01*
X101300Y101399D02*
X298700D01*
X287104Y131999D02*
X294475D01*
X287133Y147299D02*
X294445D01*
X287269Y141899D02*
X294309D01*
X287294Y137399D02*
X294284D01*
X287411Y151799D02*
X294167D01*
X287433Y127499D02*
X294145D01*
X288061Y131099D02*
X293517D01*
X288072Y148199D02*
X293506D01*
X288122Y140999D02*
X293456D01*
X288132Y138299D02*
X293446D01*
X288178Y150899D02*
X293400D01*
X288187Y128399D02*
X293391D01*
X288431Y130199D02*
X293147D01*
X288434Y149099D02*
X293144D01*
X288450Y140099D02*
X293128D01*
X288453Y139199D02*
X293125D01*
X288465Y149999D02*
X293113D01*
X288467Y129299D02*
X293111D01*
X189200Y104999D02*
X288262D01*
X278484Y169799D02*
X287547D01*
X247915Y155399D02*
X287023D01*
X278478Y119399D02*
X286580D01*
X189046Y105899D02*
X286036D01*
X278385Y168899D02*
X285717D01*
X247015Y156299D02*
X285436D01*
X278236Y118499D02*
X285172D01*
X229655Y106799D02*
X284825D01*
X277933Y167999D02*
X284610D01*
X277104Y131999D02*
X284475D01*
X277133Y147299D02*
X284445D01*
X276942Y157199D02*
X284416D01*
X277269Y141899D02*
X284309D01*
X277294Y137399D02*
X284284D01*
X277556Y117599D02*
X284230D01*
X277411Y151799D02*
X284167D01*
X277433Y127499D02*
X284145D01*
X277665Y107699D02*
X283980D01*
X276700Y167099D02*
X283824D01*
X278006Y158099D02*
X283682D01*
X239555Y116699D02*
X283545D01*
X278061Y131099D02*
X283517D01*
X278072Y148199D02*
X283506D01*
X278122Y140999D02*
X283456D01*
X278132Y138299D02*
X283446D01*
X278178Y150899D02*
X283400D01*
X278187Y128399D02*
X283391D01*
X278280Y108599D02*
X283361D01*
X223595Y166199D02*
X283246D01*
X278431Y130199D02*
X283147D01*
X278434Y149099D02*
X283144D01*
X278412Y158999D02*
X283142D01*
X278450Y140099D02*
X283128D01*
X278453Y139199D02*
X283125D01*
X278465Y149999D02*
X283113D01*
X278467Y129299D02*
X283111D01*
X238655Y115799D02*
X283042D01*
X278485Y109499D02*
X282909D01*
X224747Y165299D02*
X282827D01*
X278477Y159899D02*
X282753D01*
X237755Y114899D02*
X282683D01*
X278380Y110399D02*
X282592D01*
X225647Y164399D02*
X282538D01*
X278228Y160799D02*
X282490D01*
X236855Y113999D02*
X282447D01*
X277920Y111299D02*
X282394D01*
X226547Y163499D02*
X282365D01*
X277536Y161699D02*
X282342D01*
X235955Y113099D02*
X282323D01*
X276652Y112199D02*
X282306D01*
X227447Y162599D02*
X282301D01*
X266652Y112199D02*
X274926D01*
X266700Y167099D02*
X274878D01*
X266905Y122099D02*
X274673D01*
X266942Y157199D02*
X274636D01*
X270388Y131999D02*
X274475D01*
X267133Y147299D02*
X274445D01*
X271320Y141899D02*
X274309D01*
X272699Y137399D02*
X274284D01*
X267411Y151799D02*
X274167D01*
X257433Y127499D02*
X274145D01*
X267536Y161699D02*
X274042D01*
X267556Y117599D02*
X274022D01*
X267648Y171599D02*
X273930D01*
X267665Y107699D02*
X273913D01*
X267920Y111299D02*
X273658D01*
X267933Y167999D02*
X273645D01*
X267994Y121199D02*
X273584D01*
X268006Y158099D02*
X273572D01*
X269279Y131099D02*
X273517D01*
X268072Y148199D02*
X273506D01*
X271859Y140999D02*
X273456D01*
X272658Y138299D02*
X273446D01*
X268178Y150899D02*
X273400D01*
X258187Y128399D02*
X273391D01*
X268228Y160799D02*
X273350D01*
X268236Y118499D02*
X273342D01*
X268273Y170699D02*
X273305D01*
X268280Y108599D02*
X273298D01*
X268380Y110399D02*
X273198D01*
X268385Y168899D02*
X273193D01*
X268408Y120299D02*
X273171D01*
X268412Y158999D02*
X273166D01*
X267446Y130199D02*
X273147D01*
X268434Y149099D02*
X273144D01*
X272248Y140099D02*
X273128D01*
X272510Y139199D02*
X273125D01*
X268465Y149999D02*
X273113D01*
X258467Y129299D02*
X273111D01*
X268477Y159899D02*
X273101D01*
X268478Y119399D02*
X273100D01*
X268484Y169799D02*
X273094D01*
X268485Y109499D02*
X273093D01*
X256652Y112199D02*
X264926D01*
X256700Y167099D02*
X264878D01*
X256905Y122099D02*
X264673D01*
X256942Y157199D02*
X264636D01*
X257133Y147299D02*
X264445D01*
X257411Y151799D02*
X264167D01*
X257536Y161699D02*
X264042D01*
X257556Y117599D02*
X264022D01*
X257648Y171599D02*
X263930D01*
X257665Y107699D02*
X263913D01*
X257920Y111299D02*
X263658D01*
X257933Y167999D02*
X263645D01*
X257994Y121199D02*
X263584D01*
X258006Y158099D02*
X263572D01*
X258072Y148199D02*
X263506D01*
X258178Y150899D02*
X263400D01*
X258228Y160799D02*
X263350D01*
X258236Y118499D02*
X263342D01*
X258273Y170699D02*
X263305D01*
X258280Y108599D02*
X263298D01*
X258380Y110399D02*
X263198D01*
X258385Y168899D02*
X263193D01*
X258408Y120299D02*
X263171D01*
X258412Y158999D02*
X263166D01*
X258434Y149099D02*
X263144D01*
X258465Y149999D02*
X263113D01*
X258477Y159899D02*
X263101D01*
X258478Y119399D02*
X263100D01*
X258484Y169799D02*
X263094D01*
X258485Y109499D02*
X263093D01*
X258431Y130199D02*
X262554D01*
X253459Y144599D02*
X262017D01*
X258061Y131099D02*
X260721D01*
X253459Y143699D02*
X260432D01*
X257104Y131999D02*
X259612D01*
X253459Y142799D02*
X259413D01*
X253459Y132899D02*
X258826D01*
X257269Y141899D02*
X258680D01*
X253459Y133799D02*
X258248D01*
X258122Y140999D02*
X258141D01*
X253459Y134699D02*
X257828D01*
X253459Y135599D02*
X257538D01*
X253459Y136499D02*
X257365D01*
X257294Y137399D02*
X257301D01*
X246652Y112199D02*
X254926D01*
X246700Y167099D02*
X254878D01*
X249351Y122099D02*
X254673D01*
X246942Y157199D02*
X254636D01*
X253459Y131999D02*
X254475D01*
X253459Y147299D02*
X254445D01*
X253459Y141899D02*
X254309D01*
X253459Y137399D02*
X254284D01*
X251515Y151799D02*
X254167D01*
X250682Y127499D02*
X254145D01*
X247536Y161699D02*
X254042D01*
X247556Y117599D02*
X254022D01*
X247648Y171599D02*
X253930D01*
X247665Y107699D02*
X253913D01*
X247920Y111299D02*
X253658D01*
X247933Y167999D02*
X253645D01*
X247994Y121199D02*
X253584D01*
X248006Y158099D02*
X253572D01*
X253459Y131099D02*
X253517D01*
X253459Y148199D02*
X253506D01*
X252415Y150899D02*
X253400D01*
X251582Y128399D02*
X253391D01*
X248228Y160799D02*
X253350D01*
X248236Y118499D02*
X253342D01*
X248273Y170699D02*
X253305D01*
X248280Y108599D02*
X253298D01*
X248380Y110399D02*
X253198D01*
X248385Y168899D02*
X253193D01*
X248408Y120299D02*
X253171D01*
X248412Y158999D02*
X253166D01*
X252482Y129299D02*
X253111D01*
X248477Y159899D02*
X253101D01*
X248478Y119399D02*
X253100D01*
X248484Y169799D02*
X253094D01*
X248485Y109499D02*
X253093D01*
X236652Y112199D02*
X244926D01*
X236700Y167099D02*
X244878D01*
X236942Y157199D02*
X244636D01*
X237536Y161699D02*
X244042D01*
X240455Y117599D02*
X244022D01*
X237648Y171599D02*
X243930D01*
X237665Y107699D02*
X243913D01*
X237920Y111299D02*
X243658D01*
X237933Y167999D02*
X243645D01*
X238006Y158099D02*
X243572D01*
X238228Y160799D02*
X243350D01*
X241355Y118499D02*
X243342D01*
X238273Y170699D02*
X243305D01*
X238280Y108599D02*
X243298D01*
X238380Y110399D02*
X243198D01*
X238385Y168899D02*
X243193D01*
X243155Y120299D02*
X243171D01*
X238412Y158999D02*
X243166D01*
X238477Y159899D02*
X243101D01*
X242255Y119399D02*
X243100D01*
X238484Y169799D02*
X243094D01*
X238485Y109499D02*
X243093D01*
X226700Y167099D02*
X234878D01*
X230596Y157199D02*
X234636D01*
X228347Y161699D02*
X234042D01*
X227648Y171599D02*
X233930D01*
X230555Y107699D02*
X233913D01*
X227933Y167999D02*
X233645D01*
X229431Y158099D02*
X233572D01*
X229172Y160799D02*
X233350D01*
X228273Y170699D02*
X233305D01*
X231455Y108599D02*
X233298D01*
X228385Y168899D02*
X233193D01*
X229431Y158999D02*
X233166D01*
X229431Y159899D02*
X233101D01*
X228484Y169799D02*
X233094D01*
X232355Y109499D02*
X233093D01*
X207747Y158999D02*
X225831D01*
X208647Y158099D02*
X225831D01*
X207237Y159899D02*
X225056D01*
X217169Y167099D02*
X224878D01*
X224396Y157199D02*
X224604D01*
X216491Y160799D02*
X224156D01*
X197648Y171599D02*
X223930D01*
X216768Y167999D02*
X223645D01*
X198273Y170699D02*
X223305D01*
X217147Y161699D02*
X223256D01*
X198385Y168899D02*
X223193D01*
X198484Y169799D02*
X223094D01*
X217170Y162599D02*
X222356D01*
X216916Y151799D02*
X218486D01*
X212524Y152699D02*
X218476D01*
X212596Y157199D02*
X218404D01*
X212800Y156299D02*
X218200D01*
X212800Y155399D02*
X218200D01*
X212800Y154499D02*
X218200D01*
X212800Y153599D02*
X218200D01*
X217809Y150899D02*
X217954D01*
X205947Y151799D02*
X214084D01*
X206847Y150899D02*
X213191D01*
X212596Y148199D02*
X213134D01*
X207747Y149999D02*
X212846D01*
X208647Y149099D02*
X212830D01*
X207237Y160799D02*
X210131D01*
X207065Y167999D02*
X209854D01*
X208091Y161699D02*
X209475D01*
X208290Y167099D02*
X209453D01*
X208902Y166199D02*
X209452D01*
X209213Y165299D02*
X209452D01*
X209295Y164399D02*
X209452D01*
X209164Y163499D02*
X209452D01*
X208795Y162599D02*
X209452D01*
X206324Y152699D02*
X206676D01*
X199191Y167999D02*
X203809D01*
X193707Y158099D02*
X203764D01*
X198655Y160799D02*
X203637D01*
X195507Y159899D02*
X203637D01*
X194607Y158999D02*
X203637D01*
X200217Y161699D02*
X202783D01*
X200416Y167099D02*
X202584D01*
X200921Y162599D02*
X202079D01*
X201028Y166199D02*
X201972D01*
X201290Y163499D02*
X201710D01*
X201339Y165299D02*
X201661D01*
X201421Y164399D02*
X201579D01*
X200067Y157199D02*
X200404D01*
X188514Y106799D02*
X197345D01*
X193596Y157199D02*
X196933D01*
X196407Y160799D02*
X196471D01*
X188300Y107699D02*
X196445D01*
X195246Y156299D02*
X196133D01*
X188300Y108599D02*
X195545D01*
X192542Y167099D02*
X194710D01*
X188300Y109499D02*
X194645D01*
X193154Y166199D02*
X194098D01*
X187648Y171599D02*
X193930D01*
X193416Y163499D02*
X193836D01*
X193464Y165299D02*
X193787D01*
X193547Y164399D02*
X193705D01*
X191317Y167999D02*
X193645D01*
X188273Y170699D02*
X193305D01*
X188385Y168899D02*
X193193D01*
X193047Y162599D02*
X193116D01*
X188484Y169799D02*
X193094D01*
X188300Y110399D02*
X189353D01*
X188300Y111299D02*
X188838D01*
X188243Y113999D02*
X188830D01*
X188300Y113099D02*
X188830D01*
X188300Y112199D02*
X188830D01*
X187697Y114899D02*
X188800D01*
X179418Y160799D02*
X188597D01*
X187933Y167999D02*
X188061D01*
X186797Y115799D02*
X187900D01*
X178695Y159899D02*
X187153D01*
X179683Y161699D02*
X187035D01*
X185897Y116699D02*
X187000D01*
X186700Y167099D02*
X186836D01*
X179633Y162599D02*
X186331D01*
X155200Y158999D02*
X186253D01*
X178800Y166199D02*
X186224D01*
X184997Y117599D02*
X186100D01*
X179246Y163499D02*
X185962D01*
X178800Y165299D02*
X185913D01*
X178800Y164399D02*
X185831D01*
X155045Y158099D02*
X185353D01*
X178800Y167099D02*
X184878D01*
X184363Y109499D02*
X184700D01*
X183463Y108599D02*
X184700D01*
X182563Y107699D02*
X184700D01*
X152366Y103199D02*
X184489D01*
X181663Y106799D02*
X184486D01*
X152670Y104099D02*
X183955D01*
X180640Y105899D02*
X183954D01*
X178426Y171599D02*
X183930D01*
X155517Y104999D02*
X183800D01*
X178800Y167999D02*
X183645D01*
X178789Y170699D02*
X183305D01*
X180812Y136499D02*
X183256D01*
X178800Y168899D02*
X183193D01*
X178800Y169799D02*
X183094D01*
X181608Y139199D02*
X183081D01*
X181465Y137399D02*
X182868D01*
X181693Y138299D02*
X182817D01*
X181176Y140099D02*
X182532D01*
X154300Y151799D02*
X182415D01*
X179699Y135599D02*
X182334D01*
X180023Y140999D02*
X181617D01*
X162740Y150899D02*
X181515D01*
X154300Y152699D02*
X181476D01*
X154511Y157199D02*
X181404D01*
X180419Y134699D02*
X181315D01*
X154300Y156299D02*
X181200D01*
X154300Y155399D02*
X181200D01*
X154300Y154499D02*
X181200D01*
X154300Y153599D02*
X181200D01*
X172046Y141899D02*
X180717D01*
X163746Y149999D02*
X180615D01*
X171514Y142799D02*
X179826D01*
X164133Y149099D02*
X179745D01*
X169585Y143699D02*
X179419D01*
X164183Y148199D02*
X179407D01*
X163918Y147299D02*
X179400D01*
X163195Y146399D02*
X179400D01*
X155507Y145499D02*
X179400D01*
X154917Y144599D02*
X179400D01*
X172200Y140999D02*
X177977D01*
X172045Y140099D02*
X176824D01*
X171511Y139199D02*
X176392D01*
X154658Y138299D02*
X176253D01*
X174420Y137399D02*
X175353D01*
X155046Y159899D02*
X175305D01*
X169195Y168899D02*
X175200D01*
X157700Y167999D02*
X175200D01*
X157545Y167099D02*
X175200D01*
X157011Y166199D02*
X175200D01*
X155664Y165299D02*
X175200D01*
X155125Y164399D02*
X175200D01*
X169918Y169799D02*
X175156D01*
X154226Y163499D02*
X174754D01*
X154514Y160799D02*
X174582D01*
X153326Y162599D02*
X174367D01*
X152585Y161699D02*
X174317D01*
X154723Y132899D02*
X171171D01*
X155920Y137399D02*
X170580D01*
X156097Y133799D02*
X170403D01*
X148544Y131999D02*
X170271D01*
X156509Y136499D02*
X169991D01*
X156578Y134699D02*
X169922D01*
X156698Y135599D02*
X169802D01*
X154800Y143699D02*
X169415D01*
X147644Y131099D02*
X169371D01*
X146744Y130199D02*
X168471D01*
X145844Y129299D02*
X167571D01*
X154800Y139199D02*
X167489D01*
X154800Y142799D02*
X167486D01*
X154800Y140099D02*
X166955D01*
X154800Y141899D02*
X166954D01*
X154800Y140999D02*
X166800D01*
X144944Y128399D02*
X166671D01*
X134920Y173399D02*
X166260D01*
X157546Y168899D02*
X165805D01*
X149815Y127499D02*
X165771D01*
X135509Y172499D02*
X165254D01*
X157014Y169799D02*
X165082D01*
X150466Y126599D02*
X164871D01*
X135698Y171599D02*
X164867D01*
X155085Y170699D02*
X164817D01*
X150693Y125699D02*
X163971D01*
X151247Y124799D02*
X163071D01*
X157420Y123899D02*
X162171D01*
X154300Y150899D02*
X160260D01*
X155698Y146399D02*
X159805D01*
X154300Y149999D02*
X159254D01*
X155579Y147299D02*
X159082D01*
X154107Y149099D02*
X158867D01*
X155099Y148199D02*
X158817D01*
X135578Y170699D02*
X154915D01*
X152133Y123899D02*
X153580D01*
X152654Y104999D02*
X153483D01*
X149444Y132899D02*
X153277D01*
X152517Y122999D02*
X152991D01*
X135097Y169799D02*
X152986D01*
X150344Y133799D02*
X151903D01*
X151244Y134699D02*
X151422D01*
X128236Y118499D02*
X149993D01*
X128478Y119399D02*
X149802D01*
X127556Y117599D02*
X149689D01*
X136063Y120299D02*
X149215D01*
X135050Y168899D02*
X149080D01*
X136866Y121199D02*
X148934D01*
X137170Y122099D02*
X148856D01*
X117244Y116699D02*
X148789D01*
X135050Y167999D02*
X148491D01*
X101300Y102299D02*
X148437D01*
X135050Y167099D02*
X148302D01*
X113790Y115799D02*
X147889D01*
X135599Y166199D02*
X147653D01*
X101300Y103199D02*
X147634D01*
X101300Y104999D02*
X147346D01*
X101300Y104099D02*
X147330D01*
X113027Y114899D02*
X146989D01*
X137544Y122999D02*
X146983D01*
X101300Y105899D02*
X146777D01*
X136079Y165299D02*
X146753D01*
X144044Y127499D02*
X146185D01*
X111073Y113999D02*
X146103D01*
X136884Y164399D02*
X145853D01*
X112718Y113099D02*
X145715D01*
X136652Y112199D02*
X145700D01*
X137920Y111299D02*
X145700D01*
X138380Y110399D02*
X145580D01*
X112740Y106799D02*
X145403D01*
X137934Y163499D02*
X145002D01*
X138485Y109499D02*
X144991D01*
X137665Y107699D02*
X144922D01*
X138280Y108599D02*
X144802D01*
X138926Y162599D02*
X144703D01*
X139289Y161699D02*
X144700D01*
X139300Y160799D02*
X144700D01*
X139300Y159899D02*
X144700D01*
X139300Y158999D02*
X144700D01*
X139300Y158099D02*
X144700D01*
X139300Y157199D02*
X144700D01*
X139300Y156299D02*
X144700D01*
X139300Y155399D02*
X144700D01*
X139300Y154499D02*
X144700D01*
X139300Y153599D02*
X144700D01*
X139300Y152699D02*
X144700D01*
X139300Y151799D02*
X144700D01*
X139300Y150899D02*
X144700D01*
X139229Y149999D02*
X144700D01*
X138644Y149099D02*
X144053D01*
X137744Y148199D02*
X143153D01*
X136844Y147299D02*
X142253D01*
X136632Y146399D02*
X141353D01*
X136244Y145499D02*
X140453D01*
X135234Y144599D02*
X139553D01*
X113627Y143699D02*
X138653D01*
X113644Y139199D02*
X136699D01*
X112746Y138299D02*
X135799D01*
X134912Y157199D02*
X135700D01*
X132844Y156299D02*
X135700D01*
X131944Y155399D02*
X135700D01*
X131044Y154499D02*
X135700D01*
X130130Y153599D02*
X135700D01*
X123244Y152699D02*
X135700D01*
X122344Y151799D02*
X135700D01*
X121444Y150899D02*
X135353D01*
X122244Y125699D02*
X135153D01*
X113630Y112199D02*
X134926D01*
X110924Y137399D02*
X134899D01*
X120544Y149999D02*
X134453D01*
X113005Y136499D02*
X133999D01*
X113641Y107699D02*
X133913D01*
X114112Y111299D02*
X133658D01*
X114118Y108599D02*
X133298D01*
X114332Y110399D02*
X133198D01*
X113778Y135599D02*
X133099D01*
X114334Y109499D02*
X133093D01*
X121344Y124799D02*
X133084D01*
X128408Y120299D02*
X132937D01*
X112713Y144599D02*
X132766D01*
X119644Y149099D02*
X132301D01*
X120800Y123899D02*
X132191D01*
X127994Y121199D02*
X132134D01*
X114083Y161699D02*
X131933D01*
X120800Y122999D02*
X131846D01*
X126905Y122099D02*
X131830D01*
X111099Y145499D02*
X131756D01*
X114359Y162599D02*
X131583D01*
X116368Y148199D02*
X131581D01*
X118385Y168899D02*
X131450D01*
X117933Y167999D02*
X131450D01*
X116700Y167099D02*
X131450D01*
X114359Y166199D02*
X131401D01*
X113032Y146399D02*
X131368D01*
X113793Y147299D02*
X131317D01*
X111854Y160799D02*
X131133D01*
X101300Y173399D02*
X131080D01*
X114359Y163499D02*
X130993D01*
X114359Y165299D02*
X130921D01*
X118484Y169799D02*
X130903D01*
X113244Y159899D02*
X130830D01*
X114359Y164399D02*
X130802D01*
X101300Y172499D02*
X130491D01*
X113906Y158999D02*
X130453D01*
X118273Y170699D02*
X130422D01*
X117648Y171599D02*
X130302D01*
X114249Y158099D02*
X129553D01*
X114359Y157199D02*
X128653D01*
X120800Y122099D02*
X124673D01*
X118144Y117599D02*
X124022D01*
X120800Y121199D02*
X123584D01*
X119044Y118499D02*
X123342D01*
X120658Y120299D02*
X123171D01*
X119944Y119399D02*
X123100D01*
X114256Y156299D02*
X121754D01*
X113921Y155399D02*
X120853D01*
X120155Y129299D02*
X120754D01*
X113271Y154499D02*
X119953D01*
X119255Y128399D02*
X119853D01*
X111925Y153599D02*
X119053D01*
X118355Y127499D02*
X118953D01*
X112348Y152699D02*
X118153D01*
X117455Y126599D02*
X118053D01*
X116555Y125699D02*
X117341D01*
X115655Y124799D02*
X117200D01*
X114187Y123899D02*
X117200D01*
X113267Y122999D02*
X117200D01*
X111915Y122099D02*
X117200D01*
X112355Y121199D02*
X116653D01*
X113454Y120299D02*
X115753D01*
X113450Y151799D02*
X115555D01*
X114359Y167099D02*
X114878D01*
X107648Y171599D02*
X113930D01*
X108273Y170699D02*
X113305D01*
X108484Y169799D02*
X113094D01*
X101300Y137399D02*
X110076D01*
X101300Y113999D02*
X109927D01*
X101300Y145499D02*
X109901D01*
X101300Y160799D02*
X109146D01*
X101300Y122099D02*
X109085D01*
X101300Y153599D02*
X109075D01*
X101300Y152699D02*
X108652D01*
X101300Y121199D02*
X108645D01*
X101300Y144599D02*
X108287D01*
X101300Y113099D02*
X108282D01*
X101300Y106799D02*
X108260D01*
X101300Y138299D02*
X108254D01*
X101300Y136499D02*
X107995D01*
X101300Y114899D02*
X107973D01*
X101300Y146399D02*
X107968D01*
X101300Y159899D02*
X107756D01*
X101300Y122999D02*
X107733D01*
X101300Y154499D02*
X107729D01*
X101300Y151799D02*
X107550D01*
X101300Y120299D02*
X107546D01*
X101300Y143699D02*
X107373D01*
X101300Y112199D02*
X107370D01*
X101300Y107699D02*
X107359D01*
X101300Y139199D02*
X107356D01*
X101300Y135599D02*
X107222D01*
X101300Y115799D02*
X107210D01*
X101300Y147299D02*
X107207D01*
X101300Y158999D02*
X107094D01*
X101300Y123899D02*
X107081D01*
X101300Y155399D02*
X107079D01*
X101300Y150899D02*
X106983D01*
X101300Y119399D02*
X106981D01*
X101300Y161699D02*
X106917D01*
X101300Y142799D02*
X106889D01*
X101300Y111299D02*
X106888D01*
X101300Y108599D02*
X106882D01*
X101300Y140099D02*
X106880D01*
X101300Y134699D02*
X106812D01*
X101300Y116699D02*
X106806D01*
X101300Y148199D02*
X106805D01*
X101300Y158099D02*
X106751D01*
X101300Y126599D02*
X106750D01*
X101300Y124799D02*
X106745D01*
X101300Y156299D02*
X106744D01*
X101300Y149999D02*
X106703D01*
X101300Y118499D02*
X106702D01*
X101300Y132899D02*
X106699D01*
X101300Y141899D02*
X106669D01*
X101300Y110399D02*
X106668D01*
X101300Y109499D02*
X106666D01*
X101300Y140999D02*
X106666D01*
X101300Y133799D02*
X106648D01*
X101300Y117599D02*
X106647D01*
X101300Y149099D02*
X106647D01*
X101300Y157199D02*
X106641D01*
X101300Y125699D02*
X106641D01*
X101300Y166199D02*
X106641D01*
X101300Y165299D02*
X106641D01*
X101300Y164399D02*
X106641D01*
X101300Y163499D02*
X106641D01*
X101300Y162599D02*
X106641D01*
X101300Y167099D02*
X104878D01*
X101300Y131999D02*
X104475D01*
X101300Y127499D02*
X104145D01*
X101300Y171599D02*
X103930D01*
X101300Y167999D02*
X103645D01*
X101300Y131099D02*
X103517D01*
X101300Y128399D02*
X103391D01*
X101300Y170699D02*
X103305D01*
X101300Y168899D02*
X103193D01*
X101300Y130199D02*
X103147D01*
X101300Y129299D02*
X103111D01*
X101300Y169799D02*
X103094D01*
X221400Y157800D02*
Y156500D01*
X218200Y155000D02*
X219500D01*
X227600Y143200D02*
Y144500D01*
Y148800D02*
Y147500D01*
X230800Y146000D02*
X229500D01*
X194300Y120500D02*
X193000D01*
X219900Y127700D02*
Y129000D01*
X193800Y146000D02*
X192500D01*
X190600Y143200D02*
Y144500D01*
G54D23*
X220170Y114000D02*
X218870D01*
X216311Y117859D02*
Y116559D01*
Y110141D02*
Y111441D01*
X242141Y149311D02*
X243441D01*
X185830Y164500D02*
X187130D01*
X189689Y168359D02*
Y167059D01*
X197700Y139500D02*
X196400D01*
X195000Y142200D02*
Y140900D01*
Y136800D02*
Y138100D01*
X188200Y138000D02*
X186900D01*
X182800D02*
X184100D01*
X172500Y138200D02*
Y136900D01*
X169800Y135500D02*
X171100D01*
X172200Y141000D02*
X170900D01*
X169500Y143700D02*
Y142400D01*
X166800Y141000D02*
X168100D01*
X169500Y138300D02*
Y139600D01*
X194300Y147000D02*
X195600D01*
X197000Y144300D02*
Y145600D01*
X223200Y150000D02*
X221900D01*
X212800Y131500D02*
X214100D01*
X215500Y128800D02*
Y130100D01*
X156700Y135500D02*
X155400D01*
X154000Y132800D02*
Y134100D01*
X164200Y148500D02*
X162900D01*
X161500Y151200D02*
Y149900D01*
X158800Y148500D02*
X160100D01*
X161500Y145800D02*
Y147100D01*
X108489Y129640D02*
X107189D01*
X105789Y132340D02*
Y131040D01*
X103089Y129640D02*
X104389D01*
X105789Y126940D02*
Y128240D01*
X108489Y169640D02*
X107189D01*
X105789Y172340D02*
Y171040D01*
X103089Y169640D02*
X104389D01*
X105789Y166940D02*
Y168240D01*
X118489Y169640D02*
X117189D01*
X115789Y172340D02*
Y171040D01*
X113089Y169640D02*
X114389D01*
X115789Y166940D02*
Y168240D01*
X128489Y119640D02*
X127189D01*
X125789Y122340D02*
Y121040D01*
X123089Y119640D02*
X124389D01*
X125789Y116940D02*
Y118240D01*
X138489Y109640D02*
X137189D01*
X135789Y112340D02*
Y111040D01*
X133089Y109640D02*
X134389D01*
X135789Y106940D02*
Y108240D01*
X188489Y169640D02*
X187189D01*
X185789Y172340D02*
Y171040D01*
X183089Y169640D02*
X184389D01*
X185789Y166940D02*
Y168240D01*
X198489Y169640D02*
X197189D01*
X195789Y172340D02*
Y171040D01*
X193089Y169640D02*
X194389D01*
X228489D02*
X227189D01*
X225789Y172340D02*
Y171040D01*
X223089Y169640D02*
X224389D01*
X225789Y166940D02*
Y168240D01*
X288489Y149640D02*
X287189D01*
X285789Y152340D02*
Y151040D01*
X283089Y149640D02*
X284389D01*
X285789Y146940D02*
Y148240D01*
X288489Y139640D02*
X287189D01*
X285789Y142340D02*
Y141040D01*
X283089Y139640D02*
X284389D01*
X285789Y136940D02*
Y138240D01*
X288489Y129640D02*
X287189D01*
X285789Y132340D02*
Y131040D01*
X283089Y129640D02*
X284389D01*
X285789Y126940D02*
Y128240D01*
X278489Y169640D02*
X277189D01*
X275789Y172340D02*
Y171040D01*
X273089Y169640D02*
X274389D01*
X275789Y166940D02*
Y168240D01*
X278489Y159640D02*
X277189D01*
X275789Y162340D02*
Y161040D01*
X273089Y159640D02*
X274389D01*
X275789Y156940D02*
Y158240D01*
X278489Y149640D02*
X277189D01*
X275789Y152340D02*
Y151040D01*
X273089Y149640D02*
X274389D01*
X275789Y146940D02*
Y148240D01*
X278489Y139640D02*
X277189D01*
X275789Y142340D02*
Y141040D01*
X273089Y139640D02*
X274389D01*
X275789Y136940D02*
Y138240D01*
X278489Y129640D02*
X277189D01*
X275789Y132340D02*
Y131040D01*
X273089Y129640D02*
X274389D01*
X275789Y126940D02*
Y128240D01*
X278489Y119640D02*
X277189D01*
X275789Y122340D02*
Y121040D01*
X273089Y119640D02*
X274389D01*
X275789Y116940D02*
Y118240D01*
X215500Y152200D02*
Y150900D01*
X212800Y149500D02*
X214100D01*
X278489Y109640D02*
X277189D01*
X275789Y112340D02*
Y111040D01*
X273089Y109640D02*
X274389D01*
X275789Y106940D02*
Y108240D01*
X268489Y169640D02*
X267189D01*
X265789Y172340D02*
Y171040D01*
X263089Y169640D02*
X264389D01*
X265789Y166940D02*
Y168240D01*
X268489Y159640D02*
X267189D01*
X265789Y162340D02*
Y161040D01*
X263089Y159640D02*
X264389D01*
X265789Y156940D02*
Y158240D01*
X268489Y149640D02*
X267189D01*
X265789Y152340D02*
Y151040D01*
X263089Y149640D02*
X264389D01*
X265789Y146940D02*
Y148240D01*
X268489Y119640D02*
X267189D01*
X265789Y122340D02*
Y121040D01*
X263089Y119640D02*
X264389D01*
X265789Y116940D02*
Y118240D01*
X268489Y109640D02*
X267189D01*
X265789Y112340D02*
Y111040D01*
X263089Y109640D02*
X264389D01*
X265789Y106940D02*
Y108240D01*
X258489Y169640D02*
X257189D01*
X255789Y172340D02*
Y171040D01*
X253089Y169640D02*
X254389D01*
X255789Y166940D02*
Y168240D01*
X258489Y159640D02*
X257189D01*
X255789Y162340D02*
Y161040D01*
X253089Y159640D02*
X254389D01*
X255789Y156940D02*
Y158240D01*
X193200Y124500D02*
X191900D01*
X187800D02*
X189100D01*
X258489Y149640D02*
X257189D01*
X255789Y152340D02*
Y151040D01*
Y146940D02*
Y148240D01*
Y142340D02*
Y141040D01*
Y136940D02*
Y138240D01*
X258489Y119640D02*
X257189D01*
X255789Y122340D02*
Y121040D01*
X253089Y119640D02*
X254389D01*
X255789Y116940D02*
Y118240D01*
X258489Y109640D02*
X257189D01*
X255789Y112340D02*
Y111040D01*
X253089Y109640D02*
X254389D01*
X255789Y106940D02*
Y108240D01*
X248489Y169640D02*
X247189D01*
X245789Y172340D02*
Y171040D01*
X243089Y169640D02*
X244389D01*
X245789Y166940D02*
Y168240D01*
X248489Y119640D02*
X247189D01*
X243089D02*
X244389D01*
X245789Y116940D02*
Y118240D01*
X248489Y109640D02*
X247189D01*
X245789Y112340D02*
Y111040D01*
X243089Y109640D02*
X244389D01*
X245789Y106940D02*
Y108240D01*
X238489Y169640D02*
X237189D01*
X235789Y172340D02*
Y171040D01*
X233089Y169640D02*
X234389D01*
X235789Y166940D02*
Y168240D01*
X238489Y109640D02*
X237189D01*
X235789Y112340D02*
Y111040D01*
X233089Y109640D02*
X234389D01*
X235789Y106940D02*
Y108240D01*
X238489Y149640D02*
X237189D01*
X235789Y152340D02*
Y151040D01*
X233089Y149640D02*
X234389D01*
X235789Y146940D02*
Y148240D01*
X238489Y159640D02*
X237189D01*
X235789Y162340D02*
Y161040D01*
X233089Y159640D02*
X234389D01*
X248489D02*
X247189D01*
X245789Y162340D02*
Y161040D01*
X243089Y159640D02*
X244389D01*
X258489Y129640D02*
X257189D01*
X255789Y132340D02*
Y131040D01*
Y126940D02*
Y128240D01*
X238489Y139640D02*
X237189D01*
X235789Y136940D02*
Y138240D01*
X295789Y132340D02*
Y131040D01*
X293089Y129640D02*
X294389D01*
X295789Y126940D02*
Y128240D01*
Y142340D02*
Y141040D01*
X293089Y139640D02*
X294389D01*
X295789Y136940D02*
Y138240D01*
X227500Y139700D02*
Y138400D01*
X224800Y137000D02*
X226100D01*
X227500Y134300D02*
Y135600D01*
X295789Y152340D02*
Y151040D01*
X293089Y149640D02*
X294389D01*
X295789Y146940D02*
Y148240D01*
G54D36*
X213311Y164500D03*
X192689Y114000D03*
X110500Y165059D03*
X246000Y125689D03*
G54D37*
X205437Y164500D03*
X197563D03*
X189689D03*
X200563Y114000D03*
X208437D03*
X216311D03*
X110500Y157185D03*
Y149311D03*
Y141437D03*
Y133563D03*
Y125689D03*
Y117815D03*
Y109941D03*
X246000Y133563D03*
Y141437D03*
Y149311D03*
G54D54*
X150000Y104500D03*
X186500Y105000D03*
X135789Y109640D03*
X147500Y108500D03*
X154500Y107500D03*
X152500Y111500D03*
X180500Y112500D03*
X235789Y109640D03*
X245789D03*
X255789D03*
X265789D03*
X275789D03*
X125789Y119640D03*
X134500Y122500D03*
X148000Y125500D03*
X155500Y122000D03*
X152500Y119500D03*
X177000Y123000D03*
X190500Y124500D03*
X231000Y125500D03*
X245789Y119640D03*
X255789D03*
X265789D03*
X275789D03*
X105789Y129640D03*
X154000Y135500D03*
X177000Y128500D03*
X178000Y133500D03*
X172500Y135500D03*
X196000Y131500D03*
X198500Y128500D03*
X215500Y131500D03*
X227500Y137000D03*
X235000Y134000D03*
X255789Y129640D03*
X275789D03*
X285789D03*
X295789D03*
X134000Y147000D03*
X153000Y146500D03*
X169500Y141000D03*
X179000Y138500D03*
X185500Y138000D03*
X197000Y147000D03*
X195000Y139500D03*
X206000Y138000D03*
X218000D03*
X235789Y139640D03*
X233000Y143000D03*
X255789Y139640D03*
X275789D03*
X285789D03*
X295789D03*
X161500Y148500D03*
X194500Y150000D03*
X198500Y155000D03*
X215500Y149500D03*
X220500Y150000D03*
X235789Y149640D03*
X255789D03*
X265789D03*
X275789D03*
X285789D03*
X295789D03*
X133500Y159500D03*
Y164500D03*
X152500Y159000D03*
X151000Y167000D03*
X177000Y162000D03*
X235789Y159640D03*
X245789D03*
X255789D03*
X265789D03*
X275789D03*
X105789Y169640D03*
X115789D03*
X133000Y171500D03*
X155000Y168000D03*
X167500Y171000D03*
X185789Y169640D03*
X195789D03*
X225789D03*
X235789D03*
X245789D03*
X255789D03*
X265789D03*
X275789D03*
G74*
X0Y0D02*
M02*
