%
T1C.015F095S3
X012579Y011964
X01345Y01225
X013579Y010964
X01475Y01085
X0148Y01255
X015Y01045
X01525Y01115
X01525Y01195
X01545Y01075
X01555Y0122
X0177Y0123
X0177Y01285
X01805Y01125
X01865Y0105
X01905Y01245
X01985Y01285
X0231Y01255
X023579Y010964
X024579Y010964
X024579Y011964
X025579Y011964
X025579Y010964
X026579Y011964
X026579Y010964
X027579Y010964
X027579Y011964
X029579Y012964
X029579Y013964
X029579Y014964
X028579Y012964
X028579Y013964
X028579Y014964
X027579Y012964
X027579Y013964
X027579Y014964
X026579Y014964
X025579Y013964
X025579Y014964
X025579Y012964
X023579Y013964
X023579Y014964
X0235Y0134
X0233Y0143
X02275Y0137
X02205Y015
X0218Y0138
X02155Y01495
X02155Y01315
X0206Y0138
X0197Y0147
X0196Y01315
X0195Y01395
X01945Y015
X01855Y0138
X0179Y01385
X0178Y01335
X01725Y01355
X01695Y0141
X01615Y01485
X0154Y01355
X0153Y01465
X0134Y0147
X010579Y012964
X010579Y016964
X011579Y016964
X0133Y01715
X01335Y01595
X01335Y01645
X0151Y0167
X01525Y0159
X0155Y0168
X01675Y0171
X0177Y0162
X018579Y016964
X019579Y016964
X01985Y0155
X022579Y016964
X023579Y015964
X023579Y016964
X024579Y015964
X024579Y016964
X025579Y015964
X025579Y016964
X026579Y015964
X026579Y016964
X027579Y015964
X027579Y016964
T2C.0315F197S55
X01105Y012569
X01105Y011781
X01105Y010994
X019269Y0114
X020056Y0114
X020844Y0114
X021631Y0114
X0246Y012569
X0246Y013356
X0246Y014144
X0246Y014931
X021331Y01645
X020544Y01645
X019756Y01645
X018969Y01645
X01105Y013356
X01105Y014144
X01105Y015719
X01105Y016506
X01105Y014931
T3C.125F035S794
X0265Y01375
X029Y01125
X029Y01625
M30
