*
*
G04 PADS 9.3.1 Build Number: 456998 generated Gerber (RS-274-X) file*
G04 PC Version=2.1*
*
%IN "main.pcb"*%
*
%MOIN*%
*
%FSLAX35Y35*%
*
*
*
*
G04 PC Standard Apertures*
*
*
G04 Thermal Relief Aperture macro.*
%AMTER*
1,1,$1,0,0*
1,0,$1-$2,0,0*
21,0,$3,$4,0,0,45*
21,0,$3,$4,0,0,135*
%
*
*
G04 Annular Aperture macro.*
%AMANN*
1,1,$1,0,0*
1,0,$2,0,0*
%
*
*
G04 Odd Aperture macro.*
%AMODD*
1,1,$1,0,0*
1,0,$1-0.005,0,0*
%
*
*
G04 PC Custom Aperture Macros*
*
*
*
*
*
*
G04 PC Aperture Table*
*
%ADD010C,0.001*%
%ADD032R,0.048X0.04*%
%ADD044R,0.06118X0.06118*%
%ADD045C,0.06118*%
%ADD046R,0.04X0.048*%
%ADD049R,0.07299X0.02378*%
%ADD055C,0.01394*%
%ADD056C,0.143*%
*
*
*
*
G04 PC Circuitry*
G04 Layer Name main.pcb - circuitry*
%LPD*%
*
*
G04 PC Custom Flashes*
G04 Layer Name main.pcb - flashes*
%LPD*%
*
*
G04 PC Circuitry*
G04 Layer Name main.pcb - circuitry*
%LPD*%
*
G54D10*
G54D32*
G01X221400Y133000D03*
X227600D03*
X209600Y143000D03*
X203400D03*
X221400D03*
X227600D03*
X203400Y133000D03*
X209600D03*
X184400D03*
X190600D03*
X184400Y143000D03*
X190600D03*
G54D44*
X213311Y164500D03*
X192689Y114000D03*
X110500Y165059D03*
X246000Y125689D03*
G54D45*
X205437Y164500D03*
X197563D03*
X189689D03*
X200563Y114000D03*
X208437D03*
X216311D03*
X110500Y157185D03*
Y149311D03*
Y141437D03*
Y133563D03*
Y125689D03*
Y117815D03*
Y109941D03*
X246000Y133563D03*
Y141437D03*
Y149311D03*
G54D46*
X128000Y109400D03*
Y115600D03*
X173000Y167600D03*
Y161400D03*
X173500Y108400D03*
Y114600D03*
X128000Y145400D03*
Y151600D03*
Y161900D03*
Y168100D03*
X173000Y144900D03*
Y151100D03*
X128000Y131100D03*
Y124900D03*
G54D49*
X139476Y169500D03*
Y166941D03*
Y164382D03*
Y161823D03*
Y159264D03*
Y156705D03*
Y154146D03*
Y151587D03*
X161524D03*
Y154146D03*
Y156705D03*
Y159264D03*
Y161823D03*
Y164382D03*
Y166941D03*
Y169500D03*
G54D55*
X138343Y141181D02*
Y142087D01*
X143579*
Y141181*
X138343*
Y141811D02*
X143579D01*
X139024Y141181D02*
Y142087D01*
X140417Y141181D02*
Y142087D01*
X141811Y141181D02*
Y142087D01*
X143205Y141181D02*
Y142087D01*
X138343Y138622D02*
Y139528D01*
X143579*
Y138622*
X138343*
Y139024D02*
X143579D01*
X139024Y138622D02*
Y139528D01*
X140417Y138622D02*
Y139528D01*
X141811Y138622D02*
Y139528D01*
X143205Y138622D02*
Y139528D01*
X138343Y136063D02*
Y136969D01*
X143579*
Y136063*
X138343*
Y136236D02*
X143579D01*
X139024Y136063D02*
Y136969D01*
X140417Y136063D02*
Y136969D01*
X141811Y136063D02*
Y136969D01*
X143205Y136063D02*
Y136969D01*
X138343Y133504D02*
Y134409D01*
X143579*
Y133504*
X138343*
X139024D02*
Y134409D01*
X140417Y133504D02*
Y134409D01*
X141811Y133504D02*
Y134409D01*
X143205Y133504D02*
Y134409D01*
X138343Y130945D02*
Y131850D01*
X143579*
Y130945*
X138343*
X139024D02*
Y131850D01*
X140417Y130945D02*
Y131850D01*
X141811Y130945D02*
Y131850D01*
X143205Y130945D02*
Y131850D01*
X138343Y128386D02*
Y129291D01*
X143579*
Y128386*
X138343*
Y129268D02*
X143579D01*
X139024Y128386D02*
Y129291D01*
X140417Y128386D02*
Y129291D01*
X141811Y128386D02*
Y129291D01*
X143205Y128386D02*
Y129291D01*
X138343Y125827D02*
Y126732D01*
X143579*
Y125827*
X138343*
Y126480D02*
X143579D01*
X139024Y125827D02*
Y126732D01*
X140417Y125827D02*
Y126732D01*
X141811Y125827D02*
Y126732D01*
X143205Y125827D02*
Y126732D01*
X138343Y123268D02*
Y124173D01*
X143579*
Y123268*
X138343*
Y123693D02*
X143579D01*
X139024Y123268D02*
Y124173D01*
X140417Y123268D02*
Y124173D01*
X141811Y123268D02*
Y124173D01*
X143205Y123268D02*
Y124173D01*
X138343Y120709D02*
Y121614D01*
X143579*
Y120709*
X138343*
Y120906D02*
X143579D01*
X139024Y120709D02*
Y121614D01*
X140417Y120709D02*
Y121614D01*
X141811Y120709D02*
Y121614D01*
X143205Y120709D02*
Y121614D01*
X138343Y118150D02*
Y119055D01*
X143579*
Y118150*
X138343*
X139024D02*
Y119055D01*
X140417Y118150D02*
Y119055D01*
X141811Y118150D02*
Y119055D01*
X143205Y118150D02*
Y119055D01*
X138343Y115591D02*
Y116496D01*
X143579*
Y115591*
X138343*
X139024D02*
Y116496D01*
X140417Y115591D02*
Y116496D01*
X141811Y115591D02*
Y116496D01*
X143205Y115591D02*
Y116496D01*
X138343Y113031D02*
Y113937D01*
X143579*
Y113031*
X138343*
Y113937D02*
X143579D01*
X139024Y113031D02*
Y113937D01*
X140417Y113031D02*
Y113937D01*
X141811Y113031D02*
Y113937D01*
X143205Y113031D02*
Y113937D01*
X138343Y110472D02*
Y111378D01*
X143579*
Y110472*
X138343*
Y111150D02*
X143579D01*
X139024Y110472D02*
Y111378D01*
X140417Y110472D02*
Y111378D01*
X141811Y110472D02*
Y111378D01*
X143205Y110472D02*
Y111378D01*
X138343Y107913D02*
Y108819D01*
X143579*
Y107913*
X138343*
Y108362D02*
X143579D01*
X139024Y107913D02*
Y108819D01*
X140417Y107913D02*
Y108819D01*
X141811Y107913D02*
Y108819D01*
X143205Y107913D02*
Y108819D01*
X158421Y107913D02*
Y108819D01*
X163657*
Y107913*
X158421*
Y108362D02*
X163657D01*
X158535Y107913D02*
Y108819D01*
X159929Y107913D02*
Y108819D01*
X161323Y107913D02*
Y108819D01*
X162717Y107913D02*
Y108819D01*
X158421Y110472D02*
Y111378D01*
X163657*
Y110472*
X158421*
Y111150D02*
X163657D01*
X158535Y110472D02*
Y111378D01*
X159929Y110472D02*
Y111378D01*
X161323Y110472D02*
Y111378D01*
X162717Y110472D02*
Y111378D01*
X158421Y113031D02*
Y113937D01*
X163657*
Y113031*
X158421*
Y113937D02*
X163657D01*
X158535Y113031D02*
Y113937D01*
X159929Y113031D02*
Y113937D01*
X161323Y113031D02*
Y113937D01*
X162717Y113031D02*
Y113937D01*
X158421Y115591D02*
Y116496D01*
X163657*
Y115591*
X158421*
X158535D02*
Y116496D01*
X159929Y115591D02*
Y116496D01*
X161323Y115591D02*
Y116496D01*
X162717Y115591D02*
Y116496D01*
X158421Y118150D02*
Y119055D01*
X163657*
Y118150*
X158421*
X158535D02*
Y119055D01*
X159929Y118150D02*
Y119055D01*
X161323Y118150D02*
Y119055D01*
X162717Y118150D02*
Y119055D01*
X158421Y120709D02*
Y121614D01*
X163657*
Y120709*
X158421*
Y120906D02*
X163657D01*
X158535Y120709D02*
Y121614D01*
X159929Y120709D02*
Y121614D01*
X161323Y120709D02*
Y121614D01*
X162717Y120709D02*
Y121614D01*
X158421Y123268D02*
Y124173D01*
X163657*
Y123268*
X158421*
Y123693D02*
X163657D01*
X158535Y123268D02*
Y124173D01*
X159929Y123268D02*
Y124173D01*
X161323Y123268D02*
Y124173D01*
X162717Y123268D02*
Y124173D01*
X158421Y125827D02*
Y126732D01*
X163657*
Y125827*
X158421*
Y126480D02*
X163657D01*
X158535Y125827D02*
Y126732D01*
X159929Y125827D02*
Y126732D01*
X161323Y125827D02*
Y126732D01*
X162717Y125827D02*
Y126732D01*
X158421Y128386D02*
Y129291D01*
X163657*
Y128386*
X158421*
Y129268D02*
X163657D01*
X158535Y128386D02*
Y129291D01*
X159929Y128386D02*
Y129291D01*
X161323Y128386D02*
Y129291D01*
X162717Y128386D02*
Y129291D01*
X158421Y130945D02*
Y131850D01*
X163657*
Y130945*
X158421*
X158535D02*
Y131850D01*
X159929Y130945D02*
Y131850D01*
X161323Y130945D02*
Y131850D01*
X162717Y130945D02*
Y131850D01*
X158421Y133504D02*
Y134409D01*
X163657*
Y133504*
X158421*
X158535D02*
Y134409D01*
X159929Y133504D02*
Y134409D01*
X161323Y133504D02*
Y134409D01*
X162717Y133504D02*
Y134409D01*
X158421Y136063D02*
Y136969D01*
X163657*
Y136063*
X158421*
Y136236D02*
X163657D01*
X158535Y136063D02*
Y136969D01*
X159929Y136063D02*
Y136969D01*
X161323Y136063D02*
Y136969D01*
X162717Y136063D02*
Y136969D01*
X158421Y138622D02*
Y139528D01*
X163657*
Y138622*
X158421*
Y139024D02*
X163657D01*
X158535Y138622D02*
Y139528D01*
X159929Y138622D02*
Y139528D01*
X161323Y138622D02*
Y139528D01*
X162717Y138622D02*
Y139528D01*
X158421Y141181D02*
Y142087D01*
X163657*
Y141181*
X158421*
Y141811D02*
X163657D01*
X158535Y141181D02*
Y142087D01*
X159929Y141181D02*
Y142087D01*
X161323Y141181D02*
Y142087D01*
X162717Y141181D02*
Y142087D01*
G54D56*
X265000Y137500D03*
X290000Y112500D03*
Y162500D03*
X0Y0D02*
M02*
