*
*
G04 PADS 9.3.1 Build Number: 456998 generated Gerber (RS-274-X) file*
G04 PC Version=2.1*
*
%IN "main.pcb"*%
*
%MOIN*%
*
%FSLAX35Y35*%
*
*
*
*
G04 PC Standard Apertures*
*
*
G04 Thermal Relief Aperture macro.*
%AMTER*
1,1,$1,0,0*
1,0,$1-$2,0,0*
21,0,$3,$4,0,0,45*
21,0,$3,$4,0,0,135*
%
*
*
G04 Annular Aperture macro.*
%AMANN*
1,1,$1,0,0*
1,0,$2,0,0*
%
*
*
G04 Odd Aperture macro.*
%AMODD*
1,1,$1,0,0*
1,0,$1-0.005,0,0*
%
*
*
G04 PC Custom Aperture Macros*
*
*
*
*
*
*
G04 PC Aperture Table*
*
%ADD010C,0.001*%
%ADD018R,0.038X0.03*%
%ADD019C,0.01*%
%ADD023C,0.015*%
%ADD036R,0.05118X0.05118*%
%ADD037C,0.05118*%
%ADD038R,0.03X0.038*%
%ADD040R,0.06299X0.01378*%
%ADD052R,0.0563X0.01299*%
%ADD053C,0.00394*%
%ADD054C,0.028*%
*
*
*
*
G04 PC Circuitry*
G04 Layer Name main.pcb - circuitry*
%LPD*%
*
*
G04 PC Custom Flashes*
G04 Layer Name main.pcb - flashes*
%LPD*%
*
*
G04 PC Circuitry*
G04 Layer Name main.pcb - circuitry*
%LPD*%
*
G54D10*
G54D18*
G01X221400Y133000D03*
X227600D03*
X209600Y143000D03*
X203400D03*
X221400D03*
X227600D03*
X203400Y133000D03*
X209600D03*
X184400D03*
X190600D03*
X184400Y143000D03*
X190600D03*
G54D19*
X150000Y104500D02*
X160000D01*
X161500Y106000*
X110500Y109941D02*
X111441Y109000D01*
X114000*
X119500Y114500*
Y127600*
X123000Y131100*
X128000*
X140961Y108366D02*
Y108500D01*
X147500*
X140961Y110925D02*
X145000D01*
X145500Y111425*
X148500*
X149500Y110500*
X150949Y109051*
Y108551*
X152000Y107500*
X154500*
X140961Y113484D02*
X150516D01*
X152500Y111500*
X140961Y116043D02*
X145129D01*
X151585Y122500*
X155500*
Y122000*
X161039Y110925D02*
X164954D01*
X170880Y105000*
X186500*
X161039Y108366D02*
X161500D01*
Y106000*
X173500Y114600D02*
Y129318D01*
X175682Y131500*
X176000*
X173500Y114600D02*
X176938D01*
X186838Y124500*
X190500*
X173500Y108400D02*
X191900D01*
X192689Y109189*
Y114000*
X180500Y112500D02*
X181000D01*
X188500Y120000*
X196200*
X209100Y132900*
X208437Y114000D02*
Y122129D01*
X212800Y126492*
X200563Y114000D02*
X204422Y110141D01*
X210035*
X212374Y112479*
Y115521*
X220883Y124030*
X223868*
X233838Y134000*
X235000*
X122000Y123000D02*
X123900Y124900D01*
X128000*
X122000Y123000D02*
Y110900D01*
X123500Y109400*
X128000*
Y124900D02*
X133000D01*
X134500Y123400*
Y122500*
X140961Y118602D02*
X140858Y118500D01*
X144943*
X152723Y126280*
X161039*
X148000Y125500D02*
X153898Y131398D01*
X161039*
X140961Y118602D02*
Y121161D01*
X152500Y119500D02*
Y119000D01*
X155863*
X156261Y118602*
X161039*
Y126280D02*
X163385D01*
X165154Y128049*
Y132470*
X161039Y118602D02*
X169000D01*
Y112900*
X173500Y108400*
X169000Y118602D02*
Y135818D01*
X173132Y139950*
X174700*
X180550Y145800*
X187800*
X190600Y143000*
X177000Y123000D02*
X180500Y126500D01*
X188526*
X189526Y127500*
X194773*
X195773Y128500*
X198500*
X231000Y125500D02*
X239063Y133563D01*
X246000*
X128000Y131100D02*
Y145400D01*
X140961Y136516D02*
X146834D01*
X156000Y145682*
Y148103*
X161039Y133957D02*
X158224Y134000D01*
X160996*
X161000Y133996*
X163629*
X165154Y132470*
X154000Y135500D02*
X155500Y134000D01*
X158224*
X176000Y131500D02*
X178000Y133500D01*
X177000Y128500D02*
X181025D01*
X181175Y128350*
X187682*
X188737Y129405*
X193905*
X196000Y131500*
X172500Y135500D02*
X176000Y132000D01*
Y131500*
X190600Y133000D02*
X193641D01*
X195141Y134500*
X196601*
X199601Y137500*
X200500*
X209200Y133000D02*
X209100Y132900D01*
X209200Y132800*
Y133000*
X209600*
X227600D02*
X227500D01*
X229689*
X236059Y139370*
X221400Y133000D02*
Y138000D01*
X128000Y145400D02*
Y145500D01*
X132500*
X134000Y147000*
X156500Y142500D02*
X157366Y141634D01*
X161039*
X156500Y142500D02*
Y143500D01*
X158000Y145000*
X161039Y139075D02*
X164954D01*
X166000Y140120*
Y156478*
X169500Y141000D02*
Y141500D01*
X169600*
X173000Y144900*
X179000Y138500D02*
X181200Y136300D01*
Y130962*
X181962Y130200*
X186913*
X189990Y133278*
X190600*
Y133000*
X197000Y147000D02*
X205074D01*
X207715Y149640*
X215500*
Y149500*
X200500Y137500D02*
Y140500D01*
X203000Y143000*
X203400*
X200500Y137500D02*
Y135500D01*
X203000Y133000*
X203400*
X206000Y138000D02*
Y136000D01*
X209100Y132900*
X220500Y150000D02*
X215000Y144500D01*
Y131500*
X215250Y131250*
X215500Y131500*
X218000Y138000D02*
X221400D01*
X209600Y143000D02*
Y139319D01*
X212800Y136119*
Y126492*
X221400Y138000D02*
X222000D01*
X222100Y137900*
X227200Y143000*
X227600*
X221400D02*
X221800D01*
X224800Y146000*
X229838*
X230800Y145038*
X230962*
X233000Y143000*
X246000Y149311D02*
X236059Y139370D01*
X235789Y139640*
X110500Y157185D02*
X124453D01*
X124933Y156705*
X139476*
X161500Y148500D02*
Y151563D01*
X161524Y151587*
Y156705D02*
X165773D01*
X166000Y156478*
X173000Y151100D02*
Y161400D01*
X194500Y150000D02*
X198500Y155000D01*
X110500Y165059D02*
X118200D01*
X121359Y161900*
X128000*
X130600Y164500*
X133500*
Y159500D02*
X136827Y159453D01*
X139476*
Y159264*
Y161823D02*
X143726D01*
X153000Y152549*
Y146500*
X139476Y164382D02*
X148618D01*
X152500Y160500*
Y159000*
X139476Y166941D02*
X146083D01*
X146143Y167000*
X151000*
X155274Y163809D02*
Y148829D01*
X156000Y148103*
X155274Y163809D02*
X158406Y166941D01*
X161524*
X157074Y163050D02*
Y149967D01*
X158000Y149041*
Y145000*
X157074Y163050D02*
X158406Y164382D01*
X161524*
Y159264D02*
X167500D01*
X169000Y157764*
Y153000*
X171000Y151000*
X172900*
X173000Y151100*
Y161400D02*
Y162000D01*
X177000*
X133000Y171500D02*
Y172000D01*
X154963*
X157274Y169689*
X161524*
Y169500*
X139476D02*
X146704D01*
X147204Y170000*
X153000*
X155000Y168000*
X161524Y169500D02*
X166500D01*
Y170000*
X167500Y171000*
X297700Y112500D02*
G75*
G03X297700I-7700J0D01*
G01X298489Y129640D02*
G03X298489I-2700J0D01*
G01Y139640D02*
G03X298489I-2700J0D01*
G01Y149640D02*
G03X298489I-2700J0D01*
G01X288489Y129640D02*
G03X288489I-2700J0D01*
G01Y139640D02*
G03X288489I-2700J0D01*
G01Y149640D02*
G03X288489I-2700J0D01*
G01X297700Y162500D02*
G03X297700I-7700J0D01*
G01X278489Y109640D02*
G03X278489I-2700J0D01*
G01Y119640D02*
G03X278489I-2700J0D01*
G01Y129640D02*
G03X278489I-2700J0D01*
G01Y139640D02*
G03X278489I-2700J0D01*
G01Y149640D02*
G03X278489I-2700J0D01*
G01Y159640D02*
G03X278489I-2700J0D01*
G01Y169640D02*
G03X278489I-2700J0D01*
G01X268489Y109640D02*
G03X268489I-2700J0D01*
G01Y119640D02*
G03X268489I-2700J0D01*
G01X258489Y109640D02*
G03X258489I-2700J0D01*
G01Y119640D02*
G03X258489I-2700J0D01*
G01Y129640D02*
G03X258489I-2700J0D01*
G01X268489Y149640D02*
G03X268489I-2700J0D01*
G01Y159640D02*
G03X268489I-2700J0D01*
G01Y169640D02*
G03X268489I-2700J0D01*
G01X258489Y149640D02*
G03X258489I-2700J0D01*
G01Y159640D02*
G03X258489I-2700J0D01*
G01Y169640D02*
G03X258489I-2700J0D01*
G01X248489Y109640D02*
G03X248489I-2700J0D01*
G01X238489D02*
G03X238489I-2700J0D01*
G01X114359Y117815D02*
G03X114359I-3859J0D01*
G01Y141437D02*
G03X114359I-3859J0D01*
G01Y149311D02*
G03X114359I-3859J0D01*
G01X249859Y141437D02*
G03X249859I-3859J0D01*
G01Y149311D02*
G03X249859I-3859J0D01*
G01X248489Y159640D02*
G03X248489I-2700J0D01*
G01Y169640D02*
G03X248489I-2700J0D01*
G01X238489Y149640D02*
G03X238489I-2700J0D01*
G01Y159640D02*
G03X238489I-2700J0D01*
G01Y169640D02*
G03X238489I-2700J0D01*
G01X228489D02*
G03X228489I-2700J0D01*
G01X209296Y164500D02*
G03X209296I-3859J0D01*
G01X298700Y101300D02*
Y173700D01*
X167515*
X167863Y168325D02*
G03X167515Y173700I-363J2675D01*
G01X166500Y167700D02*
G03X167863Y168325I0J1800D01*
G01X166500Y167700D02*
X165971D01*
X165973Y167630D02*
G03X165971Y167700I-1300J-0D01*
G01X165973Y167630D02*
Y166252D01*
X165831Y165661D02*
G03X165973Y166252I-1158J591D01*
G01Y165071D02*
G03X165831Y165661I-1300J-0D01*
G01X165973Y165071D02*
Y163693D01*
X165831Y163102D02*
G03X165973Y163693I-1158J591D01*
G01Y162512D02*
G03X165831Y163102I-1300J-0D01*
G01X165973Y162512D02*
Y161134D01*
X165971Y161064D02*
G03X165973Y161134I-1298J70D01*
G01X165971Y161064D02*
X167500D01*
X168773Y160537D02*
G03X167500Y161064I-1273J-1273D01*
G01X168773Y160537D02*
X170273Y159037D01*
X170294Y159015D02*
G03X170273Y159037I-1294J-1251D01*
G01X170200Y159500D02*
G03X170294Y159015I1300J0D01*
G01X170200Y159500D02*
Y163300D01*
X171000Y164500D02*
G03X170200Y163300I500J-1200D01*
G01Y165700D02*
G03X171000Y164500I1300J0D01*
G01X170200Y165700D02*
Y169500D01*
X171500Y170800D02*
G03X170200Y169500I0J-1300D01*
G01X171500Y170800D02*
X174500D01*
X175800Y169500D02*
G03X174500Y170800I-1300J0D01*
G01X175800Y169500D02*
Y165700D01*
X175000Y164500D02*
G03X175800Y165700I-500J1200D01*
G01X175437Y164201D02*
G03X175000Y164500I-937J-901D01*
G01X175800Y159581D02*
G03X175437Y164201I1200J2419D01*
G01X175800Y159581D02*
Y159500D01*
X174800Y158235D02*
G03X175800Y159500I-300J1265D01*
G01X174800Y158235D02*
Y154265D01*
X175800Y153000D02*
G03X174800Y154265I-1300J0D01*
G01X175800Y153000D02*
Y149200D01*
X175000Y148000D02*
G03X175800Y149200I-500J1200D01*
G01Y146800D02*
G03X175000Y148000I-1300J0D01*
G01X175800Y146800D02*
Y143596D01*
X179277Y147073*
X180550Y147600D02*
G03X179277Y147073I0J-1800D01*
G01X180550Y147600D02*
X187800D01*
X189073Y147073D02*
G03X187800Y147600I-1273J-1273D01*
G01X189073Y147073D02*
X190346Y145800D01*
X192500*
X193800Y144500D02*
G03X192500Y145800I-1300J0D01*
G01X193800Y144500D02*
Y141919D01*
X192392Y140200D02*
G03X193800Y141919I2608J-700D01*
G01X192392Y140200D02*
X188700D01*
X187500Y141000D02*
G03X188700Y140200I1200J500D01*
G01X186865Y140329D02*
G03X187500Y141000I-565J1171D01*
G01X186865Y135671D02*
G03Y140329I-1365J2329D01*
G01X187500Y135000D02*
G03X186865Y135671I-1200J-500D01*
G01X188700Y135800D02*
G03X187500Y135000I0J-1300D01*
G01X188700Y135800D02*
X192500D01*
X193466Y135370D02*
G03X192500Y135800I-966J-870D01*
G01X193466Y135370D02*
X193868Y135773D01*
X195141Y136300D02*
G03X193868Y135773I-0J-1800D01*
G01X195141Y136300D02*
X195855D01*
X198328Y138773*
X198700Y139059D02*
G03X198328Y138773I901J-1559D01*
G01X198700Y139059D02*
Y140500D01*
X199227Y141773D02*
G03X198700Y140500I1273J-1273D01*
G01X199227Y141773D02*
X200200Y142746D01*
Y144500*
X201500Y145800D02*
G03X200200Y144500I0J-1300D01*
G01X201500Y145800D02*
X205300D01*
X206500Y145000D02*
G03X205300Y145800I-1200J-500D01*
G01X207700D02*
G03X206500Y145000I0J-1300D01*
G01X207700Y145800D02*
X211500D01*
X212800Y144500D02*
G03X211500Y145800I-1300J0D01*
G01X212800Y144500D02*
Y141500D01*
X211500Y140200D02*
G03X212800Y141500I0J1300D01*
G01X211500Y140200D02*
X211400D01*
Y140065*
X214073Y137392*
X214600Y136119D02*
G03X214073Y137392I-1800J0D01*
G01X214600Y136119D02*
Y134046D01*
X218200Y131515D02*
G03X214600Y134046I-2700J-15D01*
G01X218200Y131515D02*
Y134500D01*
X218516Y135350D02*
G03X218200Y134500I984J-850D01*
G01X218516Y140650D02*
G03Y135350I-516J-2650D01*
G01X218200Y141500D02*
G03X218516Y140650I1300J0D01*
G01X218200Y141500D02*
Y144500D01*
X219500Y145800D02*
G03X218200Y144500I0J-1300D01*
G01X219500Y145800D02*
X222054D01*
X223527Y147273*
X224800Y147800D02*
G03X223527Y147273I0J-1800D01*
G01X224800Y147800D02*
X229838D01*
X231111Y147273D02*
G03X229838Y147800I-1273J-1273D01*
G01X231111Y147273D02*
X231707Y146677D01*
X232234Y146311D02*
G03X231707Y146677I-1272J-1273D01*
G01X232234Y146311D02*
X232850Y145696D01*
X235617Y142335D02*
G03X232850Y145696I-2617J665D01*
G01X233172Y140305D02*
G03X235617Y142335I2617J-665D01*
G01X230798Y141437D02*
G03X233172Y140305I2202J1563D01*
G01X229500Y140200D02*
G03X230798Y141437I0J1300D01*
G01X229500Y140200D02*
X226946D01*
X225971Y139225*
X229888Y135741D02*
G03X225971Y139225I-2388J1259D01*
G01X230800Y134500D02*
G03X229888Y135741I-1300J0D01*
G01X230800Y134500D02*
Y133507D01*
X232566Y135273*
X232676Y135374D02*
G03X232566Y135273I1162J-1374D01*
G01X237617Y134663D02*
G03X232676Y135374I-2617J-663D01*
G01X237617Y134663D02*
X237790Y134836D01*
X239063Y135363D02*
G03X237790Y134836I-0J-1800D01*
G01X239063Y135363D02*
X242586D01*
Y131763D02*
G03Y135363I3414J1800D01*
G01Y131763D02*
X239809D01*
X233696Y125650*
X228338Y125954D02*
G03X233696Y125650I2662J-454D01*
G01X228338Y125954D02*
X225141Y122757D01*
X223868Y122230D02*
G03X225141Y122757I0J1800D01*
G01X223868Y122230D02*
X221629D01*
X217163Y117764*
X213648Y111207D02*
G03X217163Y117764I2663J2793D01*
G01X213647Y111207D02*
X211308Y108868D01*
X210035Y108341D02*
G03X211308Y108868I0J1800D01*
G01X210035Y108341D02*
X204422D01*
X203149Y108868D02*
G03X204422Y108341I1273J1273D01*
G01X203149Y108868D02*
X201704Y110313D01*
X204250Y112859D02*
G03X201704Y110313I-3687J1141D01*
G01X204250Y112859D02*
X205168Y111941D01*
X205173*
X206637Y117414D02*
G03X205173Y111941I1800J-3414D01*
G01X206637Y117414D02*
Y122129D01*
X207164Y123402D02*
G03X206637Y122129I1273J-1273D01*
G01X207164Y123402D02*
X211000Y127237D01*
Y130200*
X208946*
X197473Y118727*
X196200Y118200D02*
G03X197473Y118727I0J1800D01*
G01X196200Y118200D02*
X189246D01*
X183174Y112129*
X181914Y110200D02*
G03X183174Y112129I-1414J2300D01*
G01X181914Y110200D02*
X189742D01*
X188830Y111441D02*
G03X189742Y110200I1300J-0D01*
G01X188830Y111441D02*
Y116559D01*
X190130Y117859D02*
G03X188830Y116559I-0J-1300D01*
G01X190130Y117859D02*
X195248D01*
X196548Y116559D02*
G03X195248Y117859I-1300J0D01*
G01X196548Y116559D02*
Y111441D01*
X195248Y110141D02*
G03X196548Y111441I0J1300D01*
G01X195248Y110141D02*
X194489D01*
Y109189*
X193962Y107916D02*
G03X194489Y109189I-1273J1273D01*
G01X193962Y107916D02*
X193173Y107127D01*
X191900Y106600D02*
G03X193173Y107127I0J1800D01*
G01X191900Y106600D02*
X188675D01*
X184488Y103200D02*
G03X188675Y106600I2012J1800D01*
G01X184488Y103200D02*
X170880D01*
X169607Y103727D02*
G03X170880Y103200I1273J1273D01*
G01X169607Y103727D02*
X165154Y108180D01*
Y107913*
X163657Y106417D02*
G03X165154Y107913I0J1496D01*
G01X163657Y106417D02*
X163300D01*
Y106000*
X162773Y104727D02*
G03X163300Y106000I-1273J1273D01*
G01X162773Y104727D02*
X161273Y103227D01*
X160000Y102700D02*
G03X161273Y103227I0J1800D01*
G01X160000Y102700D02*
X152012D01*
X147635Y105803D02*
G03X152012Y102700I2365J-1303D01*
G01X145488Y106700D02*
G03X147635Y105803I2012J1800D01*
G01X145488Y106700D02*
X144455D01*
X143579Y106417D02*
G03X144455Y106700I-0J1496D01*
G01X143579Y106417D02*
X138343D01*
X137010Y107232D02*
G03X138343Y106417I1333J681D01*
G01X137005Y112051D02*
G03X137010Y107232I-1216J-2411D01*
G01X137095Y112205D02*
G03X137005Y112051I1248J-827D01*
G01X136846Y113031D02*
G03X137095Y112205I1497J0D01*
G01X136846Y113031D02*
Y113937D01*
X137095Y114764D02*
G03X136846Y113937I1248J-827D01*
G01Y115591D02*
G03X137095Y114764I1497J-0D01*
G01X136846Y115591D02*
Y116496D01*
X137095Y117323D02*
G03X136846Y116496I1248J-827D01*
G01Y118150D02*
G03X137095Y117323I1497J-0D01*
G01X136846Y118150D02*
Y119055D01*
X137095Y119882D02*
G03X136846Y119055I1248J-827D01*
G01Y120709D02*
G03X137095Y119882I1497J-0D01*
G01X136846Y120709D02*
Y121163D01*
X131867Y123100D02*
G03X136846Y121163I2633J-600D01*
G01X131867Y123100D02*
X130800D01*
Y123000*
X129500Y121700D02*
G03X130800Y123000I0J1300D01*
G01X129500Y121700D02*
X127535D01*
X128355Y118800D02*
G03X127535Y121700I-2566J840D01*
G01X128355Y118800D02*
X129500D01*
X130800Y117500D02*
G03X129500Y118800I-1300J0D01*
G01X130800Y117500D02*
Y113700D01*
X130000Y112500D02*
G03X130800Y113700I-500J1200D01*
G01Y111300D02*
G03X130000Y112500I-1300J0D01*
G01X130800Y111300D02*
Y107500D01*
X129500Y106200D02*
G03X130800Y107500I0J1300D01*
G01X129500Y106200D02*
X126500D01*
X125200Y107500D02*
G03X126500Y106200I1300J0D01*
G01X125200Y107500D02*
Y107600D01*
X123500*
X122227Y108127D02*
G03X123500Y107600I1273J1273D01*
G01X122227Y108127D02*
X120727Y109627D01*
X120200Y110900D02*
G03X120727Y109627I1800J0D01*
G01X120200Y110900D02*
Y112654D01*
X115273Y107727*
X114000Y107200D02*
G03X115273Y107727I0J1800D01*
G01X114000Y107200D02*
X113217D01*
X114007Y111552D02*
G03X113217Y107200I-3507J-1611D01*
G01X114007Y111552D02*
X117700Y115246D01*
Y127600*
X118227Y128873D02*
G03X117700Y127600I1273J-1273D01*
G01X118227Y128873D02*
X121727Y132373D01*
X123000Y132900D02*
G03X121727Y132373I0J-1800D01*
G01X123000Y132900D02*
X125200D01*
Y133000*
X126200Y134265D02*
G03X125200Y133000I300J-1265D01*
G01X126200Y134265D02*
Y142235D01*
X125200Y143500D02*
G03X126200Y142235I1300J0D01*
G01X125200Y143500D02*
Y147300D01*
X126000Y148500D02*
G03X125200Y147300I500J-1200D01*
G01Y149700D02*
G03X126000Y148500I1300J0D01*
G01X125200Y149700D02*
Y153500D01*
X126500Y154800D02*
G03X125200Y153500I0J-1300D01*
G01X126500Y154800D02*
X129500D01*
X130800Y153500D02*
G03X129500Y154800I-1300J0D01*
G01X130800Y153500D02*
Y149700D01*
X130000Y148500D02*
G03X130800Y149700I-500J1200D01*
G01Y147300D02*
G03X130000Y148500I-1300J0D01*
G01X130800Y147300D02*
X131317D01*
X133850Y144304D02*
G03X131317Y147300I150J2696D01*
G01X133850Y144304D02*
X133773Y144227D01*
X132500Y143700D02*
G03X133773Y144227I0J1800D01*
G01X132500Y143700D02*
X130800D01*
Y143500*
X129800Y142235D02*
G03X130800Y143500I-300J1265D01*
G01X129800Y142235D02*
Y134265D01*
X130800Y133000D02*
G03X129800Y134265I-1300J0D01*
G01X130800Y133000D02*
Y129200D01*
X130000Y128000D02*
G03X130800Y129200I-500J1200D01*
G01Y126800D02*
G03X130000Y128000I-1300J0D01*
G01X130800Y126800D02*
Y126700D01*
X133000*
X134273Y126173D02*
G03X133000Y126700I-1273J-1273D01*
G01X134273Y126173D02*
X135400Y125046D01*
X136846Y123837D02*
G03X135400Y125046I-2346J-1337D01*
G01X136846Y123837D02*
Y124173D01*
X137095Y125000D02*
G03X136846Y124173I1248J-827D01*
G01Y125827D02*
G03X137095Y125000I1497J-0D01*
G01X136846Y125827D02*
Y126732D01*
X137095Y127559D02*
G03X136846Y126732I1248J-827D01*
G01Y128386D02*
G03X137095Y127559I1497J-0D01*
G01X136846Y128386D02*
Y129291D01*
X137095Y130118D02*
G03X136846Y129291I1248J-827D01*
G01Y130945D02*
G03X137095Y130118I1497J-0D01*
G01X136846Y130945D02*
Y131850D01*
X137095Y132677D02*
G03X136846Y131850I1248J-827D01*
G01Y133504D02*
G03X137095Y132677I1497J-0D01*
G01X136846Y133504D02*
Y134409D01*
X137095Y135236D02*
G03X136846Y134409I1248J-827D01*
G01Y136063D02*
G03X137095Y135236I1497J-0D01*
G01X136846Y136063D02*
Y136969D01*
X137095Y137795D02*
G03X136846Y136969I1248J-826D01*
G01Y138622D02*
G03X137095Y137795I1497J0D01*
G01X136846Y138622D02*
Y139528D01*
X137051Y140284D02*
G03X136846Y139528I1292J-756D01*
G01Y140984D02*
G03X137051Y140284I1300J0D01*
G01X136846Y140984D02*
Y142283D01*
X138146Y143583D02*
G03X136846Y142283I-0J-1300D01*
G01X138146Y143583D02*
X143776D01*
X145076Y142283D02*
G03X143776Y143583I-1300J0D01*
G01X145076Y142283D02*
Y140984D01*
X144871Y140284D02*
G03X145076Y140984I-1095J700D01*
G01Y139528D02*
G03X144871Y140284I-1497J-0D01*
G01X145076Y139528D02*
Y138622D01*
X145044Y138316D02*
G03X145076Y138622I-1465J306D01*
G01X145044Y138316D02*
X146089D01*
X151836Y144064*
X151200Y148512D02*
G03X151836Y144064I1800J-2012D01*
G01X151200Y148512D02*
Y151803D01*
X143926Y159077*
Y158575*
X143784Y157984D02*
G03X143926Y158575I-1158J591D01*
G01Y157394D02*
G03X143784Y157984I-1300J-0D01*
G01X143926Y157394D02*
Y156016D01*
X143784Y155425D02*
G03X143926Y156016I-1158J591D01*
G01Y154835D02*
G03X143784Y155425I-1300J-0D01*
G01X143926Y154835D02*
Y153457D01*
X143784Y152866D02*
G03X143926Y153457I-1158J591D01*
G01Y152276D02*
G03X143784Y152866I-1300J-0D01*
G01X143926Y152276D02*
Y150898D01*
X142626Y149598D02*
G03X143926Y150898I-0J1300D01*
G01X142626Y149598D02*
X136327D01*
X135027Y150898D02*
G03X136327Y149598I1300J-0D01*
G01X135027Y150898D02*
Y152276D01*
X135169Y152866D02*
G03X135027Y152276I1158J-590D01*
G01Y153457D02*
G03X135169Y152866I1300J-0D01*
G01X135027Y153457D02*
Y154835D01*
X135029Y154905D02*
G03X135027Y154835I1298J-70D01*
G01X135029Y154905D02*
X124933D01*
X123709Y155385D02*
G03X124933Y154905I1224J1320D01*
G01X123709Y155385D02*
X113914D01*
Y158985D02*
G03Y155385I-3414J-1800D01*
G01Y158985D02*
X124453D01*
X125677Y158505D02*
G03X124453Y158985I-1224J-1320D01*
G01X125677Y158505D02*
X130990D01*
X132480Y162000D02*
G03X130990Y158505I1020J-2500D01*
G01X131488Y162700D02*
G03X132480Y162000I2012J1800D01*
G01X131488Y162700D02*
X131346D01*
X130800Y162154*
Y160000*
X129500Y158700D02*
G03X130800Y160000I0J1300D01*
G01X129500Y158700D02*
X126500D01*
X125200Y160000D02*
G03X126500Y158700I1300J0D01*
G01X125200Y160000D02*
Y160100D01*
X121359*
X120086Y160627D02*
G03X121359Y160100I1273J1273D01*
G01X120086Y160627D02*
X117454Y163259D01*
X114359*
Y162500*
X113059Y161200D02*
G03X114359Y162500I0J1300D01*
G01X113059Y161200D02*
X107941D01*
X106641Y162500D02*
G03X107941Y161200I1300J0D01*
G01X106641Y162500D02*
Y167078D01*
X108391Y168918D02*
G03X106641Y167078I-2602J722D01*
G01X108391Y168918D02*
X113059D01*
X113189Y168912D02*
G03X113059Y168918I-130J-1294D01*
G01X114359Y167350D02*
G03X113189Y168912I1430J2290D01*
G01X114359Y167350D02*
Y166859D01*
X118200*
X119473Y166332D02*
G03X118200Y166859I-1273J-1273D01*
G01X119473Y166332D02*
X122105Y163700D01*
X125200*
Y163800*
X126000Y165000D02*
G03X125200Y163800I500J-1200D01*
G01Y166200D02*
G03X126000Y165000I1300J0D01*
G01X125200Y166200D02*
Y170000D01*
X126500Y171300D02*
G03X125200Y170000I0J-1300D01*
G01X126500Y171300D02*
X129500D01*
X130350Y170984D02*
G03X129500Y171300I-850J-984D01*
G01X131435Y173700D02*
G03X130350Y170984I1565J-2200D01*
G01X131435Y173700D02*
X101300D01*
Y101300*
X298700*
X164200Y143482D02*
Y148485D01*
X159800Y146402D02*
G03X164200Y148485I1700J2098D01*
G01X159800Y146402D02*
Y145000D01*
X159273Y143727D02*
G03X159800Y145000I-1273J1273D01*
G01X159273Y143727D02*
X159129Y143583D01*
X163657*
X164200Y143482D02*
G03X163657Y143583I-543J-1395D01*
G01X164200Y148515D02*
Y149598D01*
X163967*
X164200Y148515D02*
G03X163967Y149598I-2700J-15D01*
G01X157173Y137795D02*
G03X156924Y136969I1248J-826D01*
G01Y138622D02*
G03X157173Y137795I1497J0D01*
G01X156924Y138622D02*
Y139528D01*
X156966Y139879D02*
G03X156924Y139528I1455J-351D01*
G01X156093Y140361D02*
G03X156966Y139879I1273J1273D01*
G01X156093Y140361D02*
X155227Y141227D01*
X154793Y141929D02*
G03X155227Y141227I1707J571D01*
G01X154793Y141929D02*
X148107Y135243D01*
X146834Y134716D02*
G03X148107Y135243I0J1800D01*
G01X146834Y134716D02*
X145044D01*
X145076Y134409D02*
G03X145044Y134716I-1497J0D01*
G01X145076Y134409D02*
Y133504D01*
X144827Y132677D02*
G03X145076Y133504I-1248J827D01*
G01Y131850D02*
G03X144827Y132677I-1497J0D01*
G01X145076Y131850D02*
Y130945D01*
X144827Y130118D02*
G03X145076Y130945I-1248J827D01*
G01Y129291D02*
G03X144827Y130118I-1497J0D01*
G01X145076Y129291D02*
Y128386D01*
X144827Y127559D02*
G03X145076Y128386I-1248J827D01*
G01Y126732D02*
G03X144827Y127559I-1497J0D01*
G01X145076Y126732D02*
Y125827D01*
X144827Y125000D02*
G03X145076Y125827I-1248J827D01*
G01Y124173D02*
G03X144827Y125000I-1497J0D01*
G01X145076Y124173D02*
Y123268D01*
X144827Y122441D02*
G03X145076Y123268I-1248J827D01*
G01Y121614D02*
G03X144827Y122441I-1497J0D01*
G01X145076Y121614D02*
Y120709D01*
X144827Y119882D02*
G03X145076Y120709I-1248J827D01*
G01Y119055D02*
G03X144827Y119882I-1497J0D01*
G01X145076Y119055D02*
Y118536D01*
X150312Y123773*
X151585Y124300D02*
G03X150312Y123773I0J-1800D01*
G01X151585Y124300D02*
X154086D01*
X156929Y124291D02*
G03X154086Y124300I-1429J-2291D01*
G01X157173Y125000D02*
G03X156929Y124291I1248J-827D01*
G01X156924Y125827D02*
G03X157173Y125000I1497J-0D01*
G01X156924Y125827D02*
Y126732D01*
X157173Y127559D02*
G03X156924Y126732I1248J-827D01*
G01Y128386D02*
G03X157173Y127559I1497J-0D01*
G01X156924Y128386D02*
Y129291D01*
X156956Y129598D02*
G03X156924Y129291I1465J-307D01*
G01X156956Y129598D02*
X154643D01*
X150696Y125650*
X148150Y128196D02*
G03X150696Y125650I-150J-2696D01*
G01X148150Y128196D02*
X152625Y132670D01*
X153036Y132978D02*
G03X152625Y132670I862J-1580D01*
G01X155410Y133198D02*
G03X153036Y132978I-1410J2302D01*
G01X155410Y133198D02*
X156956D01*
X156924Y133504D02*
G03X156956Y133198I1497J-0D01*
G01X156924Y133504D02*
Y134409D01*
X157173Y135236D02*
G03X156924Y134409I1248J-827D01*
G01Y136063D02*
G03X157173Y135236I1497J-0D01*
G01X156924Y136063D02*
Y136969D01*
X167485Y173700D02*
G03X164843Y171478I15J-2700D01*
G01X167485Y173700D02*
X155555D01*
X156236Y173273D02*
G03X155555Y173700I-1273J-1273D01*
G01X156236Y173273D02*
X158020Y171489D01*
X161524*
X164673*
X164843Y171478D02*
G03X164673Y171489I-170J-1289D01*
G01X126000Y112500D02*
G03X125200Y111300I500J-1200D01*
G01Y113700D02*
G03X126000Y112500I1300J0D01*
G01X125200Y113700D02*
Y117005D01*
X123800Y117814D02*
G03X125200Y117005I1989J1826D01*
G01X123800Y117814D02*
Y111646D01*
X124246Y111200*
X125200*
Y111300*
X135169Y168220D02*
G03X135027Y167630I1158J-590D01*
G01Y168811D02*
G03X135169Y168220I1300J0D01*
G01X135027Y168811D02*
Y169716D01*
X130800Y169935D02*
G03X135027Y169716I2200J1565D01*
G01X130800Y169935D02*
Y166300D01*
X131488*
X135027Y166727D02*
G03X131488Y166300I-1527J-2227D01*
G01X135027Y166727D02*
Y167630D01*
X167727Y137091D02*
X168985Y138349D01*
X167523Y139161D02*
G03X168985Y138349I1977J1839D01*
G01X167273Y138848D02*
G03X167523Y139161I-1273J1272D01*
G01X167273Y138848D02*
X166227Y137802D01*
X165121Y137283D02*
G03X166227Y137802I-167J1792D01*
G01X165154Y136969D02*
G03X165121Y137283I-1497J-0D01*
G01X165154Y136969D02*
Y136063D01*
X164905Y135236D02*
G03X165154Y136063I-1248J827D01*
G01Y134409D02*
G03X164905Y135236I-1497J0D01*
G01X165154Y134409D02*
Y133504D01*
X164905Y132677D02*
G03X165154Y133504I-1248J827D01*
G01Y131850D02*
G03X164905Y132677I-1497J0D01*
G01X165154Y131850D02*
Y130945D01*
X164905Y130118D02*
G03X165154Y130945I-1248J827D01*
G01Y129291D02*
G03X164905Y130118I-1497J0D01*
G01X165154Y129291D02*
Y128386D01*
X164905Y127559D02*
G03X165154Y128386I-1248J827D01*
G01Y126732D02*
G03X164905Y127559I-1497J0D01*
G01X165154Y126732D02*
Y125827D01*
X164905Y125000D02*
G03X165154Y125827I-1248J827D01*
G01Y124173D02*
G03X164905Y125000I-1497J0D01*
G01X165154Y124173D02*
Y123268D01*
X164905Y122441D02*
G03X165154Y123268I-1248J827D01*
G01Y121614D02*
G03X164905Y122441I-1497J0D01*
G01X165154Y121614D02*
Y120709D01*
X165123Y120402D02*
G03X165154Y120709I-1466J307D01*
G01X165123Y120402D02*
X167200D01*
Y135818*
X167727Y137091D02*
G03X167200Y135818I1273J-1273D01*
G01X171000Y148000D02*
G03X170200Y146800I500J-1200D01*
G01Y149200D02*
G03X171000Y148000I1300J0D01*
G01X170200Y149200D02*
Y149388D01*
X169727Y149727D02*
G03X170200Y149388I1273J1273D01*
G01X169727Y149727D02*
X167800Y151654D01*
Y143098*
X170200Y143608D02*
G03X167800Y143098I-700J-2608D01*
G01X170200Y143608D02*
Y146800D01*
X171200Y154265D02*
Y158235D01*
X170625Y158539D02*
G03X171200Y158235I875J961D01*
G01X170800Y157764D02*
G03X170625Y158539I-1800J-0D01*
G01X170800Y157764D02*
Y154095D01*
X171200Y154265D02*
G03X170800Y154095I300J-1265D01*
G01X183935Y140200D02*
G03Y135800I1565J-2200D01*
G01Y140200D02*
X182500D01*
X181200Y141500D02*
G03X182500Y140200I1300J0D01*
G01X181200Y141500D02*
Y143904D01*
X178436Y141140*
X181696Y138350D02*
G03X178436Y141140I-2696J150D01*
G01X181696Y138350D02*
X182473Y137573D01*
X183000Y136300D02*
G03X182473Y137573I-1800J0D01*
G01X183000Y136300D02*
Y135800D01*
X183935*
X195454Y121800D02*
X199774Y126119D01*
X196502Y126684D02*
G03X199774Y126119I1998J1816D01*
G01X196502Y126684D02*
X196046Y126227D01*
X194773Y125700D02*
G03X196046Y126227I-0J1800D01*
G01X194773Y125700D02*
X192919D01*
X190515Y121800D02*
G03X192919Y125700I-15J2700D01*
G01X190515Y121800D02*
X195454D01*
X188500D02*
X190485D01*
X187807Y124700D02*
G03X190485Y121800I2693J-200D01*
G01X187807Y124700D02*
X181246D01*
X179696Y123150*
X177150Y125696D02*
G03X179696Y123150I-150J-2696D01*
G01X177150Y125696D02*
X177268Y125813D01*
X176628Y131174D02*
G03X177268Y125813I372J-2674D01*
G01X177628Y136174D02*
G03X176628Y131174I372J-2674D01*
G01X176360Y139064D02*
G03X177628Y136174I2640J-564D01*
G01X176360Y139064D02*
X175973Y138677D01*
X174700Y138150D02*
G03X175973Y138677I0J1800D01*
G01X174700Y138150D02*
X173877D01*
X173664Y137936*
X170800Y133402D02*
G03X173664Y137936I1700J2098D01*
G01X170800Y133402D02*
Y118602D01*
Y117000*
X172000Y117800D02*
G03X170800Y117000I0J-1300D01*
G01X172000Y117800D02*
X175000D01*
X176300Y116500D02*
G03X175000Y117800I-1300J0D01*
G01X176300Y116500D02*
Y112700D01*
X175500Y111500D02*
G03X176300Y112700I-500J1200D01*
G01Y110300D02*
G03X175500Y111500I-1300J0D01*
G01X176300Y110300D02*
Y110200D01*
X179086*
X181089Y115135D02*
G03X179086Y110200I-589J-2635D01*
G01X181089Y115135D02*
X187227Y121273D01*
X188500Y121800D02*
G03X187227Y121273I0J-1800D01*
G01X223122Y125830D02*
X227493Y130200D01*
X225700*
X224500Y131000D02*
G03X225700Y130200I1200J500D01*
G01X223300D02*
G03X224500Y131000I0J1300D01*
G01X223300Y130200D02*
X219500D01*
X218200Y131491D02*
G03X219500Y130200I1300J9D01*
G01X214600Y128954D02*
G03X218200Y131491I900J2546D01*
G01X214600Y128954D02*
Y126492D01*
X214073Y125219D02*
G03X214600Y126492I-1273J1273D01*
G01X214073Y125219D02*
X210237Y121383D01*
Y117414*
X211100Y116793D02*
G03X210237Y117414I-2663J-2793D01*
G01X211101Y116793D02*
X219610Y125302D01*
X220883Y125830D02*
G03X219610Y125302I0J-1800D01*
G01X220883Y125830D02*
X223122D01*
X225275Y138529D02*
G03X225147Y135676I2225J-1529D01*
G01X225275Y138529D02*
X223373Y136627D01*
X223200Y136475D02*
G03X223373Y136627I-1100J1425D01*
G01X223200Y136475D02*
Y135800D01*
X223300*
X224500Y135000D02*
G03X223300Y135800I-1200J-500D01*
G01X225147Y135676D02*
G03X224500Y135000I553J-1176D01*
G01X297700Y112500D02*
G03X297700I-7700J0D01*
G01X298489Y129640D02*
G03X298489I-2700J0D01*
G01Y139640D02*
G03X298489I-2700J0D01*
G01Y149640D02*
G03X298489I-2700J0D01*
G01X288489Y129640D02*
G03X288489I-2700J0D01*
G01Y139640D02*
G03X288489I-2700J0D01*
G01Y149640D02*
G03X288489I-2700J0D01*
G01X297700Y162500D02*
G03X297700I-7700J0D01*
G01X278489Y109640D02*
G03X278489I-2700J0D01*
G01Y119640D02*
G03X278489I-2700J0D01*
G01Y129640D02*
G03X278489I-2700J0D01*
G01Y139640D02*
G03X278489I-2700J0D01*
G01Y149640D02*
G03X278489I-2700J0D01*
G01Y159640D02*
G03X278489I-2700J0D01*
G01Y169640D02*
G03X278489I-2700J0D01*
G01X268489Y109640D02*
G03X268489I-2700J0D01*
G01Y119640D02*
G03X268489I-2700J0D01*
G01X258489Y109640D02*
G03X258489I-2700J0D01*
G01Y119640D02*
G03X258489I-2700J0D01*
G01Y129640D02*
G03X258489I-2700J0D01*
G01X257301Y137403D02*
G03X258132Y140982I7699J97D01*
X257301Y137403I-2343J-1342*
G01X268489Y149640D02*
G03X268489I-2700J0D01*
G01Y159640D02*
G03X268489I-2700J0D01*
G01Y169640D02*
G03X268489I-2700J0D01*
G01X258489Y149640D02*
G03X258489I-2700J0D01*
G01Y159640D02*
G03X258489I-2700J0D01*
G01Y169640D02*
G03X258489I-2700J0D01*
G01X248489Y109640D02*
G03X248489I-2700J0D01*
G01X249859Y128248D02*
Y123130D01*
X248559Y121830D02*
G03X249859Y123130I0J1300D01*
G01X248559Y121830D02*
X247369D01*
X244209D02*
G03X247369I1580J-2190D01*
G01X244209D02*
X243441D01*
X242141Y123130D02*
G03X243441Y121830I1300J-0D01*
G01X242141Y123130D02*
Y128248D01*
X243441Y129548D02*
G03X242141Y128248I-0J-1300D01*
G01X243441Y129548D02*
X248559D01*
X249859Y128248D02*
G03X248559Y129548I-1300J0D01*
G01X238489Y109640D02*
G03X238489I-2700J0D01*
G01X114359Y117815D02*
G03X114359I-3859J0D01*
G01X108401Y130325D02*
G03X106935Y132085I2099J3238D01*
G01X108392Y128921D02*
G03X108401Y130325I-2603J719D01*
G01X106950Y127203D02*
G03X108392Y128921I3550J-1514D01*
G01X106935Y132085D02*
G03X106950Y127203I-1146J-2445D01*
G01X114359Y141437D02*
G03X114359I-3859J0D01*
G01Y149311D02*
G03X114359I-3859J0D01*
G01X249859Y141437D02*
G03X249859I-3859J0D01*
G01Y149311D02*
G03X249859I-3859J0D01*
G01X248489Y159640D02*
G03X248489I-2700J0D01*
G01Y169640D02*
G03X248489I-2700J0D01*
G01X238489Y149640D02*
G03X238489I-2700J0D01*
G01Y159640D02*
G03X238489I-2700J0D01*
G01Y169640D02*
G03X238489I-2700J0D01*
G01X218098Y148766D02*
G03X217902Y150734I2402J1234D01*
X218098Y148766I-2402J-1234*
G01X228489Y169640D02*
G03X228489I-2700J0D01*
G01X217170Y167059D02*
Y161941D01*
X215870Y160641D02*
G03X217170Y161941I0J1300D01*
G01X215870Y160641D02*
X210752D01*
X209452Y161941D02*
G03X210752Y160641I1300J-0D01*
G01X209452Y161941D02*
Y167059D01*
X210752Y168359D02*
G03X209452Y167059I-0J-1300D01*
G01X210752Y168359D02*
X215870D01*
X217170Y167059D02*
G03X215870Y168359I-1300J0D01*
G01X209296Y164500D02*
G03X209296I-3859J0D01*
G01X198648Y152304D02*
G03X195837Y154553I-148J2696D01*
G01X198648Y152304D02*
X197163Y150447D01*
X197183Y149694D02*
G03X197163Y150447I-2683J306D01*
G01X194317Y147306D02*
G03X197183Y149694I2683J-306D01*
G01X194352Y152696D02*
G03X194317Y147306I148J-2696D01*
G01X194352Y152696D02*
X195837Y154553D01*
X194754Y167146D02*
G03X198142Y168315I2809J-2646D01*
X194754Y167146I-2353J1325*
G01X186921Y167189D02*
G03X187845Y167890I2768J-2689D01*
X186921Y167189I-2056J1750*
G01X225044Y138299D02*
X225133D01*
X223995Y135599D02*
X225005D01*
X223230Y136499D02*
X224847D01*
X224144Y137399D02*
X224830D01*
X217866Y130199D02*
X227492D01*
X217063Y129299D02*
X226592D01*
X214600Y128399D02*
X225692D01*
X214600Y127499D02*
X224792D01*
X214600Y126599D02*
X223892D01*
X214416Y125699D02*
X220209D01*
X213653Y124799D02*
X219107D01*
X218170Y131099D02*
X218263D01*
X212753Y123899D02*
X218207D01*
X211853Y122999D02*
X217307D01*
X210953Y122099D02*
X216407D01*
X210237Y121199D02*
X215507D01*
X210237Y120299D02*
X214607D01*
X210237Y119399D02*
X213707D01*
X210237Y118499D02*
X212807D01*
X210237Y117599D02*
X211907D01*
X179545Y122099D02*
X189266D01*
X179700Y122999D02*
X188256D01*
X180444Y123899D02*
X187868D01*
X179011Y121199D02*
X187153D01*
X170800Y120299D02*
X186253D01*
X170800Y119399D02*
X185353D01*
X170800Y118499D02*
X184453D01*
X175695Y117599D02*
X183553D01*
X176285Y116699D02*
X182653D01*
X176300Y115799D02*
X181753D01*
X176300Y114899D02*
X179260D01*
X176296Y110399D02*
X178805D01*
X176300Y113999D02*
X178254D01*
X175832Y111299D02*
X178082D01*
X176300Y113099D02*
X177867D01*
X176199Y112199D02*
X177817D01*
X175009Y136499D02*
X177188D01*
X177085Y125699D02*
X177153D01*
X170800D02*
X176915D01*
X174420Y137399D02*
X176535D01*
X175416Y138299D02*
X176307D01*
X175198Y135599D02*
X176301D01*
X170800Y131099D02*
X176267D01*
X170800Y131999D02*
X175756D01*
X175078Y134699D02*
X175581D01*
X173223Y132899D02*
X175368D01*
X174597Y133799D02*
X175317D01*
X170800Y126599D02*
X175083D01*
X170800Y121199D02*
X174989D01*
X170800Y124799D02*
X174986D01*
X170800Y130199D02*
X174901D01*
X170800Y127499D02*
X174493D01*
X170800Y122099D02*
X174455D01*
X170800Y123899D02*
X174454D01*
X170800Y129299D02*
X174421D01*
X170800Y128399D02*
X174302D01*
X170800Y122999D02*
X174300D01*
X170800Y132899D02*
X171777D01*
X170800Y117599D02*
X171305D01*
X192919Y125699D02*
X199353D01*
X193183Y124799D02*
X198453D01*
X193132Y123899D02*
X197553D01*
X192744Y122999D02*
X196653D01*
X196417Y126599D02*
X196583D01*
X191734Y122099D02*
X195753D01*
X181176Y140099D02*
X183801D01*
X182989Y136499D02*
X183256D01*
X181608Y139199D02*
X183081D01*
X182626Y137399D02*
X182868D01*
X181747Y138299D02*
X182817D01*
X180023Y140999D02*
X181301D01*
X180994Y143699D02*
X181200D01*
X180094Y142799D02*
X181200D01*
X179194Y141899D02*
X181200D01*
X170769Y158099D02*
X171200D01*
X170800Y157199D02*
X171200D01*
X170800Y156299D02*
X171200D01*
X170800Y155399D02*
X171200D01*
X170800Y154499D02*
X171200D01*
X167800Y148199D02*
X170671D01*
X167800Y147299D02*
X170299D01*
X167800Y149099D02*
X170204D01*
X167800Y146399D02*
X170200D01*
X167800Y145499D02*
X170200D01*
X167800Y144599D02*
X170200D01*
X169585Y143699D02*
X170200D01*
X167800Y149999D02*
X169456D01*
X167800Y143699D02*
X169415D01*
X167800Y150899D02*
X168556D01*
X166724Y138299D02*
X168935D01*
X165611Y137399D02*
X168035D01*
X165154Y136499D02*
X167333D01*
X165081Y135599D02*
X167200D01*
X165126Y134699D02*
X167200D01*
X165154Y133799D02*
X167200D01*
X165027Y132899D02*
X167200D01*
X165147Y131999D02*
X167200D01*
X165154Y131099D02*
X167200D01*
X164955Y130199D02*
X167200D01*
X165154Y129299D02*
X167200D01*
X165154Y128399D02*
X167200D01*
X164943Y127499D02*
X167200D01*
X165154Y126599D02*
X167200D01*
X165149Y125699D02*
X167200D01*
X165017Y124799D02*
X167200D01*
X165154Y123899D02*
X167200D01*
X165130Y122999D02*
X167200D01*
X165074Y122099D02*
X167200D01*
X165154Y121199D02*
X167200D01*
X130800Y167999D02*
X135080D01*
X133723Y168899D02*
X135027D01*
X134233Y167099D02*
X135027D01*
X130800D02*
X132767D01*
X130800Y168899D02*
X132277D01*
X130800Y169799D02*
X130903D01*
X123800Y112199D02*
X125561D01*
X123800Y113099D02*
X125347D01*
X123800Y116699D02*
X125200D01*
X123800Y115799D02*
X125200D01*
X123800Y114899D02*
X125200D01*
X123800Y113999D02*
X125200D01*
X124147Y111299D02*
X125200D01*
X123800Y117599D02*
X124022D01*
X156096Y173399D02*
X166260D01*
X157010Y172499D02*
X165254D01*
X157910Y171599D02*
X164867D01*
X152544Y127499D02*
X157135D01*
X150607Y124799D02*
X157061D01*
X156698Y135599D02*
X156998D01*
X155920Y137399D02*
X156988D01*
X151163Y138299D02*
X156960D01*
X156578Y134699D02*
X156953D01*
X150744Y125699D02*
X156930D01*
X154344Y129299D02*
X156924D01*
X152063Y139199D02*
X156924D01*
X156509Y136499D02*
X156924D01*
X156097Y133799D02*
X156924D01*
X153444Y128399D02*
X156924D01*
X151644Y126599D02*
X156924D01*
X152963Y140099D02*
X156426D01*
X153863Y140999D02*
X155456D01*
X154763Y141899D02*
X154803D01*
X144948Y132899D02*
X152904D01*
X150263Y137399D02*
X152080D01*
X145068Y131999D02*
X151953D01*
X145076Y133799D02*
X151903D01*
X149363Y136499D02*
X151491D01*
X145047Y134699D02*
X151422D01*
X148463Y135599D02*
X151302D01*
X145076Y131099D02*
X151053D01*
X150174Y123899D02*
X150452D01*
X144876Y130199D02*
X150153D01*
X149017Y122999D02*
X149538D01*
X145076Y129299D02*
X149253D01*
X144995Y122099D02*
X148638D01*
X145076Y128399D02*
X148353D01*
X145076Y121199D02*
X147738D01*
X145051Y122999D02*
X146983D01*
X145018Y120299D02*
X146838D01*
X144865Y127499D02*
X146185D01*
X145036Y119399D02*
X145938D01*
X145076Y123899D02*
X145826D01*
X145076Y126599D02*
X145534D01*
X144939Y124799D02*
X145393D01*
X145070Y125699D02*
X145307D01*
X164133Y149099D02*
X164200D01*
X164183Y148199D02*
X164200D01*
X163918Y147299D02*
X164200D01*
X163195Y146399D02*
X164200D01*
X159800Y145499D02*
X164200D01*
X159755Y144599D02*
X164200D01*
X159244Y143699D02*
X164200D01*
X159800Y146399D02*
X159805D01*
X168740Y173399D02*
X298700D01*
X169746Y172499D02*
X298700D01*
X277648Y171599D02*
X298700D01*
X278273Y170699D02*
X298700D01*
X292453Y169799D02*
X298700D01*
X294283Y168899D02*
X298700D01*
X295390Y167999D02*
X298700D01*
X296176Y167099D02*
X298700D01*
X296754Y166199D02*
X298700D01*
X297173Y165299D02*
X298700D01*
X297462Y164399D02*
X298700D01*
X297635Y163499D02*
X298700D01*
X297699Y162599D02*
X298700D01*
X297658Y161699D02*
X298700D01*
X297510Y160799D02*
X298700D01*
X297247Y159899D02*
X298700D01*
X296858Y158999D02*
X298700D01*
X296318Y158099D02*
X298700D01*
X295584Y157199D02*
X298700D01*
X294564Y156299D02*
X298700D01*
X292977Y155399D02*
X298700D01*
X201153Y154499D02*
X298700D01*
X200808Y153599D02*
X298700D01*
X247848Y152699D02*
X298700D01*
X297411Y151799D02*
X298700D01*
X298178Y150899D02*
X298700D01*
X298465Y149999D02*
X298700D01*
X298434Y149099D02*
X298700D01*
X298072Y148199D02*
X298700D01*
X297133Y147299D02*
X298700D01*
X248532Y146399D02*
X298700D01*
X246599Y145499D02*
X298700D01*
X267983Y144599D02*
X298700D01*
X269568Y143699D02*
X298700D01*
X270587Y142799D02*
X298700D01*
X297269Y141899D02*
X298700D01*
X298122Y140999D02*
X298700D01*
X298450Y140099D02*
X298700D01*
X298453Y139199D02*
X298700D01*
X298132Y138299D02*
X298700D01*
X297294Y137399D02*
X298700D01*
X272635Y136499D02*
X298700D01*
X272462Y135599D02*
X298700D01*
X272172Y134699D02*
X298700D01*
X271752Y133799D02*
X298700D01*
X271174Y132899D02*
X298700D01*
X297104Y131999D02*
X298700D01*
X298061Y131099D02*
X298700D01*
X298431Y130199D02*
X298700D01*
X298467Y129299D02*
X298700D01*
X298187Y128399D02*
X298700D01*
X297433Y127499D02*
X298700D01*
X249859Y126599D02*
X298700D01*
X249859Y125699D02*
X298700D01*
X249859Y124799D02*
X298700D01*
X249859Y123899D02*
X298700D01*
X249852Y122999D02*
X298700D01*
X276905Y122099D02*
X298700D01*
X277994Y121199D02*
X298700D01*
X278408Y120299D02*
X298700D01*
X293420Y119399D02*
X298700D01*
X294828Y118499D02*
X298700D01*
X295770Y117599D02*
X298700D01*
X296455Y116699D02*
X298700D01*
X296958Y115799D02*
X298700D01*
X297317Y114899D02*
X298700D01*
X297553Y113999D02*
X298700D01*
X297677Y113099D02*
X298700D01*
X297694Y112199D02*
X298700D01*
X297606Y111299D02*
X298700D01*
X297408Y110399D02*
X298700D01*
X297091Y109499D02*
X298700D01*
X296639Y108599D02*
X298700D01*
X296020Y107699D02*
X298700D01*
X295175Y106799D02*
X298700D01*
X293964Y105899D02*
X298700D01*
X291738Y104999D02*
X298700D01*
X189045Y104099D02*
X298700D01*
X188511Y103199D02*
X298700D01*
X151563Y102299D02*
X298700D01*
X101300Y101399D02*
X298700D01*
X287104Y131999D02*
X294475D01*
X287133Y147299D02*
X294445D01*
X287269Y141899D02*
X294309D01*
X287294Y137399D02*
X294284D01*
X287411Y151799D02*
X294167D01*
X287433Y127499D02*
X294145D01*
X288061Y131099D02*
X293517D01*
X288072Y148199D02*
X293506D01*
X288122Y140999D02*
X293456D01*
X288132Y138299D02*
X293446D01*
X288178Y150899D02*
X293400D01*
X288187Y128399D02*
X293391D01*
X288431Y130199D02*
X293147D01*
X288434Y149099D02*
X293144D01*
X288450Y140099D02*
X293128D01*
X288453Y139199D02*
X293125D01*
X288465Y149999D02*
X293113D01*
X288467Y129299D02*
X293111D01*
X189200Y104999D02*
X288262D01*
X278484Y169799D02*
X287547D01*
X201170Y155399D02*
X287023D01*
X278478Y119399D02*
X286580D01*
X189046Y105899D02*
X286036D01*
X278385Y168899D02*
X285717D01*
X200867Y156299D02*
X285436D01*
X278236Y118499D02*
X285172D01*
X192722Y106799D02*
X284825D01*
X277933Y167999D02*
X284610D01*
X277104Y131999D02*
X284475D01*
X277133Y147299D02*
X284445D01*
X276942Y157199D02*
X284416D01*
X277269Y141899D02*
X284309D01*
X277294Y137399D02*
X284284D01*
X277556Y117599D02*
X284230D01*
X277411Y151799D02*
X284167D01*
X277433Y127499D02*
X284145D01*
X277665Y107699D02*
X283980D01*
X276700Y167099D02*
X283824D01*
X278006Y158099D02*
X283682D01*
X219070Y116699D02*
X283545D01*
X278061Y131099D02*
X283517D01*
X278072Y148199D02*
X283506D01*
X278122Y140999D02*
X283456D01*
X278132Y138299D02*
X283446D01*
X278178Y150899D02*
X283400D01*
X278187Y128399D02*
X283391D01*
X278280Y108599D02*
X283361D01*
X217170Y166199D02*
X283246D01*
X278431Y130199D02*
X283147D01*
X278434Y149099D02*
X283144D01*
X278412Y158999D02*
X283142D01*
X278450Y140099D02*
X283128D01*
X278453Y139199D02*
X283125D01*
X278465Y149999D02*
X283113D01*
X278467Y129299D02*
X283111D01*
X219725Y115799D02*
X283042D01*
X278485Y109499D02*
X282909D01*
X217170Y165299D02*
X282827D01*
X278477Y159899D02*
X282753D01*
X220064Y114899D02*
X282683D01*
X278380Y110399D02*
X282592D01*
X217170Y164399D02*
X282538D01*
X278228Y160799D02*
X282490D01*
X220170Y113999D02*
X282447D01*
X277920Y111299D02*
X282394D01*
X217170Y163499D02*
X282365D01*
X277536Y161699D02*
X282342D01*
X220063Y113099D02*
X282323D01*
X276652Y112199D02*
X282306D01*
X217170Y162599D02*
X282301D01*
X266652Y112199D02*
X274926D01*
X266700Y167099D02*
X274878D01*
X266905Y122099D02*
X274673D01*
X266942Y157199D02*
X274636D01*
X270388Y131999D02*
X274475D01*
X267133Y147299D02*
X274445D01*
X271320Y141899D02*
X274309D01*
X272699Y137399D02*
X274284D01*
X267411Y151799D02*
X274167D01*
X257433Y127499D02*
X274145D01*
X267536Y161699D02*
X274042D01*
X267556Y117599D02*
X274022D01*
X267648Y171599D02*
X273930D01*
X267665Y107699D02*
X273913D01*
X267920Y111299D02*
X273658D01*
X267933Y167999D02*
X273645D01*
X267994Y121199D02*
X273584D01*
X268006Y158099D02*
X273572D01*
X269279Y131099D02*
X273517D01*
X268072Y148199D02*
X273506D01*
X271859Y140999D02*
X273456D01*
X272658Y138299D02*
X273446D01*
X268178Y150899D02*
X273400D01*
X258187Y128399D02*
X273391D01*
X268228Y160799D02*
X273350D01*
X268236Y118499D02*
X273342D01*
X268273Y170699D02*
X273305D01*
X268280Y108599D02*
X273298D01*
X268380Y110399D02*
X273198D01*
X268385Y168899D02*
X273193D01*
X268408Y120299D02*
X273171D01*
X268412Y158999D02*
X273166D01*
X267446Y130199D02*
X273147D01*
X268434Y149099D02*
X273144D01*
X272248Y140099D02*
X273128D01*
X272510Y139199D02*
X273125D01*
X268465Y149999D02*
X273113D01*
X258467Y129299D02*
X273111D01*
X268477Y159899D02*
X273101D01*
X268478Y119399D02*
X273100D01*
X268484Y169799D02*
X273094D01*
X268485Y109499D02*
X273093D01*
X256652Y112199D02*
X264926D01*
X256700Y167099D02*
X264878D01*
X256905Y122099D02*
X264673D01*
X256942Y157199D02*
X264636D01*
X257133Y147299D02*
X264445D01*
X257411Y151799D02*
X264167D01*
X257536Y161699D02*
X264042D01*
X257556Y117599D02*
X264022D01*
X257648Y171599D02*
X263930D01*
X257665Y107699D02*
X263913D01*
X257920Y111299D02*
X263658D01*
X257933Y167999D02*
X263645D01*
X257994Y121199D02*
X263584D01*
X258006Y158099D02*
X263572D01*
X258072Y148199D02*
X263506D01*
X258178Y150899D02*
X263400D01*
X258228Y160799D02*
X263350D01*
X258236Y118499D02*
X263342D01*
X258273Y170699D02*
X263305D01*
X258280Y108599D02*
X263298D01*
X258380Y110399D02*
X263198D01*
X258385Y168899D02*
X263193D01*
X258408Y120299D02*
X263171D01*
X258412Y158999D02*
X263166D01*
X258434Y149099D02*
X263144D01*
X258465Y149999D02*
X263113D01*
X258477Y159899D02*
X263101D01*
X258478Y119399D02*
X263100D01*
X258484Y169799D02*
X263094D01*
X258485Y109499D02*
X263093D01*
X258431Y130199D02*
X262554D01*
X248213Y144599D02*
X262017D01*
X258061Y131099D02*
X260721D01*
X249127Y143699D02*
X260432D01*
X257104Y131999D02*
X259612D01*
X249611Y142799D02*
X259413D01*
X249801Y132899D02*
X258826D01*
X257269Y141899D02*
X258680D01*
X249852Y133799D02*
X258248D01*
X258122Y140999D02*
X258141D01*
X249688Y134699D02*
X257828D01*
X249278Y135599D02*
X257538D01*
X248505Y136499D02*
X257365D01*
X257294Y137399D02*
X257301D01*
X246652Y112199D02*
X254926D01*
X246700Y167099D02*
X254878D01*
X249351Y122099D02*
X254673D01*
X246942Y157199D02*
X254636D01*
X249528Y131999D02*
X254475D01*
X249293Y147299D02*
X254445D01*
X249831Y141899D02*
X254309D01*
X246424Y137399D02*
X254284D01*
X248950Y151799D02*
X254167D01*
X249859Y127499D02*
X254145D01*
X247536Y161699D02*
X254042D01*
X247556Y117599D02*
X254022D01*
X247648Y171599D02*
X253930D01*
X247665Y107699D02*
X253913D01*
X247920Y111299D02*
X253658D01*
X247933Y167999D02*
X253645D01*
X247994Y121199D02*
X253584D01*
X248006Y158099D02*
X253572D01*
X248970Y131099D02*
X253517D01*
X249695Y148199D02*
X253506D01*
X249834Y140999D02*
X253456D01*
X248246Y138299D02*
X253446D01*
X249517Y150899D02*
X253400D01*
X249850Y128399D02*
X253391D01*
X248228Y160799D02*
X253350D01*
X248236Y118499D02*
X253342D01*
X248273Y170699D02*
X253305D01*
X248280Y108599D02*
X253298D01*
X248380Y110399D02*
X253198D01*
X248385Y168899D02*
X253193D01*
X248408Y120299D02*
X253171D01*
X248412Y158999D02*
X253166D01*
X247890Y130199D02*
X253147D01*
X249853Y149099D02*
X253144D01*
X249620Y140099D02*
X253128D01*
X249144Y139199D02*
X253125D01*
X249797Y149999D02*
X253113D01*
X249325Y129299D02*
X253111D01*
X248477Y159899D02*
X253101D01*
X248478Y119399D02*
X253100D01*
X248484Y169799D02*
X253094D01*
X248485Y109499D02*
X253093D01*
X237294Y137399D02*
X245576D01*
X234023Y145499D02*
X245401D01*
X236652Y112199D02*
X244926D01*
X236700Y167099D02*
X244878D01*
X236942Y157199D02*
X244636D01*
X220585Y152699D02*
X244152D01*
X238244Y130199D02*
X244110D01*
X237536Y161699D02*
X244042D01*
X217705Y117599D02*
X244022D01*
X237648Y171599D02*
X243930D01*
X237665Y107699D02*
X243913D01*
X235176Y144599D02*
X243787D01*
X238132Y138299D02*
X243754D01*
X237920Y111299D02*
X243658D01*
X237933Y167999D02*
X243645D01*
X220598Y121199D02*
X243584D01*
X238006Y158099D02*
X243572D01*
X236023Y136499D02*
X243495D01*
X232140Y146399D02*
X243468D01*
X238228Y160799D02*
X243350D01*
X217898Y118499D02*
X243342D01*
X238273Y170699D02*
X243305D01*
X238280Y108599D02*
X243298D01*
X238380Y110399D02*
X243198D01*
X238385Y168899D02*
X243193D01*
X219698Y120299D02*
X243171D01*
X238412Y158999D02*
X243166D01*
X238477Y159899D02*
X243101D01*
X218798Y119399D02*
X243100D01*
X238484Y169799D02*
X243094D01*
X238485Y109499D02*
X243093D01*
X237411Y151799D02*
X243050D01*
X239144Y131099D02*
X243030D01*
X235608Y143699D02*
X242873D01*
X238453Y139199D02*
X242856D01*
X237176Y135599D02*
X242722D01*
X237133Y147299D02*
X242707D01*
X237344Y129299D02*
X242675D01*
X221498Y122099D02*
X242649D01*
X238178Y150899D02*
X242483D01*
X235693Y142799D02*
X242389D01*
X238450Y140099D02*
X242380D01*
X238072Y148199D02*
X242305D01*
X238465Y149999D02*
X242203D01*
X237269Y141899D02*
X242169D01*
X238122Y140999D02*
X242166D01*
X236444Y128399D02*
X242150D01*
X232017Y122999D02*
X242148D01*
X238434Y149099D02*
X242147D01*
X235544Y127499D02*
X242141D01*
X234644Y126599D02*
X242141D01*
X233744Y125699D02*
X242141D01*
X233607Y124799D02*
X242141D01*
X233174Y123899D02*
X242141D01*
X237608Y134699D02*
X237653D01*
X219724Y112199D02*
X234926D01*
X226700Y167099D02*
X234878D01*
X200067Y157199D02*
X234636D01*
X231085Y147299D02*
X234445D01*
X230170Y137399D02*
X234284D01*
X222514Y151799D02*
X234167D01*
X217147Y161699D02*
X234042D01*
X230153Y136499D02*
X233977D01*
X227648Y171599D02*
X233930D01*
X193744Y107699D02*
X233913D01*
X219067Y111299D02*
X233658D01*
X227933Y167999D02*
X233645D01*
X174800Y158099D02*
X233572D01*
X222511Y148199D02*
X233506D01*
X229867Y138299D02*
X233446D01*
X223046Y150899D02*
X233400D01*
X216491Y160799D02*
X233350D01*
X228273Y170699D02*
X233305D01*
X210964Y108599D02*
X233298D01*
X217698Y110399D02*
X233198D01*
X228385Y168899D02*
X233193D01*
X175699Y158999D02*
X233166D01*
X223045Y149099D02*
X233144D01*
X226844Y140099D02*
X233128D01*
X229067Y139199D02*
X233125D01*
X223200Y149999D02*
X233113D01*
X178695Y159899D02*
X233101D01*
X228484Y169799D02*
X233094D01*
X211939Y109499D02*
X233093D01*
X230195Y135599D02*
X232824D01*
X230785Y134699D02*
X231992D01*
X230699Y140999D02*
X231188D01*
X230800Y133799D02*
X231092D01*
X225383Y122999D02*
X229983D01*
X226283Y123899D02*
X228826D01*
X227183Y124799D02*
X228393D01*
X228083Y125699D02*
X228307D01*
X217169Y167099D02*
X224878D01*
X197648Y171599D02*
X223930D01*
X216768Y167999D02*
X223645D01*
X217063Y147299D02*
X223554D01*
X198273Y170699D02*
X223305D01*
X198385Y168899D02*
X223193D01*
X198484Y169799D02*
X223094D01*
X199632Y146399D02*
X222653D01*
X199912Y152699D02*
X220415D01*
X212332Y145499D02*
X218668D01*
X217866Y148199D02*
X218489D01*
X216916Y151799D02*
X218486D01*
X212699Y140999D02*
X218301D01*
X214600Y134699D02*
X218215D01*
X212796Y144599D02*
X218204D01*
X212800Y143699D02*
X218200D01*
X212800Y142799D02*
X218200D01*
X212800Y141899D02*
X218200D01*
X216916Y133799D02*
X218200D01*
X217809Y132899D02*
X218200D01*
X218154Y131999D02*
X218200D01*
X217809Y150899D02*
X217954D01*
X214600Y135599D02*
X216766D01*
X211400Y140099D02*
X216301D01*
X214560Y136499D02*
X215756D01*
X212266Y139199D02*
X215581D01*
X214066Y137399D02*
X215368D01*
X213166Y138299D02*
X215317D01*
X212839Y110399D02*
X214924D01*
X198244Y151799D02*
X214084D01*
X199683Y147299D02*
X213937D01*
X197524Y150899D02*
X213191D01*
X199419Y148199D02*
X213134D01*
X197200Y149999D02*
X212846D01*
X198699Y149099D02*
X212830D01*
X208944Y130199D02*
X211000D01*
X208044Y129299D02*
X211000D01*
X207144Y128399D02*
X211000D01*
X206244Y127499D02*
X211000D01*
X205344Y126599D02*
X210361D01*
X206529Y160799D02*
X210131D01*
X207065Y167999D02*
X209854D01*
X208091Y161699D02*
X209475D01*
X204444Y125699D02*
X209461D01*
X208290Y167099D02*
X209453D01*
X208902Y166199D02*
X209452D01*
X209213Y165299D02*
X209452D01*
X209295Y164399D02*
X209452D01*
X209164Y163499D02*
X209452D01*
X208795Y162599D02*
X209452D01*
X203544Y124799D02*
X208561D01*
X202644Y123899D02*
X207661D01*
X206132Y145499D02*
X206868D01*
X201744Y122999D02*
X206861D01*
X200844Y122099D02*
X206637D01*
X199944Y121199D02*
X206637D01*
X199044Y120299D02*
X206637D01*
X198144Y119399D02*
X206637D01*
X197193Y118499D02*
X206637D01*
X201957Y117599D02*
X206637D01*
X203322Y116699D02*
X205678D01*
X204910Y112199D02*
X205024D01*
X203977Y115799D02*
X205023D01*
X204315Y113099D02*
X204685D01*
X204316Y114899D02*
X204684D01*
X204422Y113999D02*
X204578D01*
X198655Y160799D02*
X204345D01*
X199191Y167999D02*
X203809D01*
X194389Y108599D02*
X203494D01*
X200217Y161699D02*
X202783D01*
X200416Y167099D02*
X202584D01*
X194489Y109499D02*
X202519D01*
X200921Y162599D02*
X202079D01*
X201028Y166199D02*
X201972D01*
X201290Y163499D02*
X201710D01*
X201339Y165299D02*
X201661D01*
X201421Y164399D02*
X201579D01*
X199244Y145499D02*
X200668D01*
X198234Y144599D02*
X200204D01*
X193800Y143699D02*
X200200D01*
X193800Y142799D02*
X200200D01*
X196240Y141899D02*
X199353D01*
X196025Y110399D02*
X199176D01*
X196029Y117599D02*
X199169D01*
X197246Y140999D02*
X198770D01*
X197633Y140099D02*
X198700D01*
X197683Y139199D02*
X198700D01*
X197418Y138299D02*
X197854D01*
X196540Y111299D02*
X197807D01*
X196541Y116699D02*
X197804D01*
X196548Y112199D02*
X197150D01*
X196548Y115799D02*
X197149D01*
X196695Y137399D02*
X196954D01*
X174800Y157199D02*
X196933D01*
X196548Y113099D02*
X196811D01*
X196548Y114899D02*
X196810D01*
X196548Y113999D02*
X196704D01*
X190781Y160799D02*
X196471D01*
X174800Y156299D02*
X196133D01*
X187744Y136499D02*
X196054D01*
X174800Y155399D02*
X195830D01*
X174800Y154499D02*
X195794D01*
X193796Y144599D02*
X195766D01*
X175654Y153599D02*
X195074D01*
X192343Y161699D02*
X194909D01*
X193332Y145499D02*
X194756D01*
X192542Y167099D02*
X194710D01*
X189747Y146399D02*
X194368D01*
X175800Y152699D02*
X194354D01*
X188797Y147299D02*
X194317D01*
X193047Y162599D02*
X194205D01*
X193154Y166199D02*
X194098D01*
X187648Y171599D02*
X193930D01*
X193416Y163499D02*
X193836D01*
X193464Y165299D02*
X193787D01*
X193547Y164399D02*
X193705D01*
X193195Y135599D02*
X193694D01*
X191317Y167999D02*
X193645D01*
X188273Y170699D02*
X193305D01*
X188132Y137399D02*
X193305D01*
X188385Y168899D02*
X193193D01*
X188484Y169799D02*
X193094D01*
X188183Y138299D02*
X192582D01*
X175329Y148199D02*
X192489D01*
X175800Y151799D02*
X192486D01*
X187199Y140099D02*
X192367D01*
X187919Y139199D02*
X192317D01*
X175796Y149099D02*
X191955D01*
X175800Y150899D02*
X191954D01*
X175800Y149999D02*
X191800D01*
X182195Y110399D02*
X189353D01*
X188644Y117599D02*
X189349D01*
X182918Y111299D02*
X188838D01*
X187744Y116699D02*
X188837D01*
X186844Y115799D02*
X188830D01*
X185944Y114899D02*
X188830D01*
X185044Y113999D02*
X188830D01*
X184144Y113099D02*
X188830D01*
X183244Y112199D02*
X188830D01*
X179418Y160799D02*
X188597D01*
X187933Y167999D02*
X188061D01*
X186995Y135599D02*
X188005D01*
X187499Y140999D02*
X187501D01*
X179683Y161699D02*
X187035D01*
X186700Y167099D02*
X186836D01*
X179633Y162599D02*
X186331D01*
X175800Y166199D02*
X186224D01*
X179246Y163499D02*
X185962D01*
X175737Y165299D02*
X185913D01*
X178240Y164399D02*
X185831D01*
X175800Y167099D02*
X184878D01*
X161244Y103199D02*
X184489D01*
X170133Y171599D02*
X183930D01*
X175800Y167999D02*
X183645D01*
X175003Y170699D02*
X183305D01*
X175800Y168899D02*
X183193D01*
X175765Y169799D02*
X183094D01*
X175701Y147299D02*
X179553D01*
X175800Y146399D02*
X178603D01*
X175800Y145499D02*
X177703D01*
X175800Y144599D02*
X176803D01*
X175800Y143699D02*
X175903D01*
X175195Y164399D02*
X175760D01*
X170183Y170699D02*
X170997D01*
X165973Y164399D02*
X170805D01*
X165953Y165299D02*
X170263D01*
X169918Y169799D02*
X170235D01*
X165959Y163499D02*
X170215D01*
X169195Y168899D02*
X170200D01*
X167493Y167999D02*
X170200D01*
X165973Y167099D02*
X170200D01*
X165972Y166199D02*
X170200D01*
X165970Y162599D02*
X170200D01*
X165973Y161699D02*
X170200D01*
X168440Y160799D02*
X170200D01*
X169411Y159899D02*
X170200D01*
X162144Y104099D02*
X169235D01*
X162996Y104999D02*
X168335D01*
X163297Y105899D02*
X167435D01*
X164657Y106799D02*
X166535D01*
X165139Y107699D02*
X165635D01*
X130800Y143699D02*
X151471D01*
X143926Y151799D02*
X151200D01*
X143926Y150899D02*
X151200D01*
X143565Y149999D02*
X151200D01*
X135699Y149099D02*
X151200D01*
X135234Y144599D02*
X151083D01*
X136419Y148199D02*
X150901D01*
X144969Y142799D02*
X150571D01*
X136244Y145499D02*
X150493D01*
X136683Y147299D02*
X150421D01*
X143855Y152699D02*
X150305D01*
X136632Y146399D02*
X150302D01*
X145076Y141899D02*
X149671D01*
X143926Y153599D02*
X149405D01*
X145076Y140999D02*
X148771D01*
X143926Y154499D02*
X148505D01*
X101300Y102299D02*
X148437D01*
X144962Y140099D02*
X147871D01*
X101300Y103199D02*
X147634D01*
X143797Y155399D02*
X147605D01*
X101300Y104999D02*
X147346D01*
X101300Y104099D02*
X147330D01*
X145076Y139199D02*
X146971D01*
X101300Y105899D02*
X146777D01*
X143926Y156299D02*
X146705D01*
X143926Y157199D02*
X145805D01*
X143836Y158099D02*
X144905D01*
X143926Y158999D02*
X144005D01*
X130595Y106799D02*
X137343D01*
X136652Y112199D02*
X137091D01*
X130596Y127499D02*
X137057D01*
X130800Y130199D02*
X137045D01*
X130800Y114899D02*
X137015D01*
X135916Y124799D02*
X136983D01*
X130800Y132899D02*
X136973D01*
X129800Y140099D02*
X136959D01*
X130595Y142799D02*
X136952D01*
X130796Y117599D02*
X136951D01*
X129800Y135599D02*
X136919D01*
X129800Y137399D02*
X136909D01*
X136063Y120299D02*
X136903D01*
X128478Y119399D02*
X136886D01*
X129800Y138299D02*
X136881D01*
X129800Y134699D02*
X136874D01*
X130800Y116699D02*
X136859D01*
X130800Y131999D02*
X136853D01*
X134747Y125699D02*
X136851D01*
X130800Y113999D02*
X136847D01*
X130800Y129299D02*
X136846D01*
X129800Y141899D02*
X136846D01*
X129800Y140999D02*
X136846D01*
X129800Y139199D02*
X136846D01*
X129800Y136499D02*
X136846D01*
X130526Y133799D02*
X136846D01*
X130800Y131099D02*
X136846D01*
X130524Y128399D02*
X136846D01*
X133595Y126599D02*
X136846D01*
X136809Y123899D02*
X136846D01*
X130332Y118499D02*
X136846D01*
X130800Y115799D02*
X136846D01*
X130653Y113099D02*
X136846D01*
X130800Y149999D02*
X135388D01*
X130800Y152699D02*
X135098D01*
X130332Y154499D02*
X135027D01*
X130796Y153599D02*
X135027D01*
X130800Y151799D02*
X135027D01*
X130800Y150899D02*
X135027D01*
X130439Y112199D02*
X134926D01*
X130800Y107699D02*
X133913D01*
X130800Y111299D02*
X133658D01*
X130800Y108599D02*
X133298D01*
X130800Y110399D02*
X133198D01*
X130800Y109499D02*
X133093D01*
X128408Y120299D02*
X132937D01*
X130653Y149099D02*
X132301D01*
X127994Y121199D02*
X132134D01*
X130800Y161699D02*
X131933D01*
X130800Y122999D02*
X131846D01*
X130437Y122099D02*
X131830D01*
X131244Y162599D02*
X131583D01*
X130439Y148199D02*
X131581D01*
X130800Y160799D02*
X131133D01*
X101300Y173399D02*
X131080D01*
X130329Y158999D02*
X130847D01*
X130796Y159899D02*
X130830D01*
X101300Y172499D02*
X130491D01*
X117648Y171599D02*
X130302D01*
X114331Y141899D02*
X126200D01*
X114334Y140999D02*
X126200D01*
X114120Y140099D02*
X126200D01*
X113644Y139199D02*
X126200D01*
X112746Y138299D02*
X126200D01*
X110924Y137399D02*
X126200D01*
X113005Y136499D02*
X126200D01*
X113778Y135599D02*
X126200D01*
X114188Y134699D02*
X126200D01*
X113906Y158999D02*
X125671D01*
X113271Y154499D02*
X125668D01*
X120506Y165299D02*
X125563D01*
X114195Y148199D02*
X125561D01*
X114352Y133799D02*
X125474D01*
X114111Y142799D02*
X125405D01*
X112740Y106799D02*
X125405D01*
X118273Y170699D02*
X125404D01*
X114353Y149099D02*
X125347D01*
X121406Y164399D02*
X125346D01*
X113244Y159899D02*
X125204D01*
X111925Y153599D02*
X125204D01*
X118484Y169799D02*
X125200D01*
X118385Y168899D02*
X125200D01*
X117933Y167999D02*
X125200D01*
X116700Y167099D02*
X125200D01*
X119606Y166199D02*
X125200D01*
X112348Y152699D02*
X125200D01*
X113450Y151799D02*
X125200D01*
X114017Y150899D02*
X125200D01*
X114297Y149999D02*
X125200D01*
X113793Y147299D02*
X125200D01*
X113032Y146399D02*
X125200D01*
X111099Y145499D02*
X125200D01*
X112713Y144599D02*
X125200D01*
X113627Y143699D02*
X125200D01*
X114301Y132899D02*
X122931D01*
X115244Y107699D02*
X122912D01*
X116144Y108599D02*
X121756D01*
X114028Y131999D02*
X121353D01*
X117044Y109499D02*
X120856D01*
X113470Y131099D02*
X120453D01*
X117944Y110399D02*
X120271D01*
X119744Y112199D02*
X120200D01*
X118844Y111299D02*
X120200D01*
X111854Y160799D02*
X119915D01*
X112390Y130199D02*
X119553D01*
X114083Y161699D02*
X119015D01*
X111865Y129299D02*
X118653D01*
X114359Y162599D02*
X118115D01*
X113248Y128399D02*
X117887D01*
X113908Y127499D02*
X117700D01*
X114250Y126599D02*
X117700D01*
X114359Y125699D02*
X117700D01*
X114255Y124799D02*
X117700D01*
X113919Y123899D02*
X117700D01*
X113267Y122999D02*
X117700D01*
X111915Y122099D02*
X117700D01*
X112355Y121199D02*
X117700D01*
X113454Y120299D02*
X117700D01*
X114019Y119399D02*
X117700D01*
X114298Y118499D02*
X117700D01*
X114353Y117599D02*
X117700D01*
X114194Y116699D02*
X117700D01*
X113790Y115799D02*
X117700D01*
X113027Y114899D02*
X117353D01*
X111073Y113999D02*
X116453D01*
X112718Y113099D02*
X115553D01*
X114359Y167099D02*
X114878D01*
X113630Y112199D02*
X114653D01*
X107648Y171599D02*
X113930D01*
X108273Y170699D02*
X113305D01*
X108484Y169799D02*
X113094D01*
X101300Y137399D02*
X110076D01*
X101300Y113999D02*
X109927D01*
X101300Y145499D02*
X109901D01*
X101300Y160799D02*
X109146D01*
X108467Y129299D02*
X109135D01*
X101300Y122099D02*
X109085D01*
X101300Y153599D02*
X109075D01*
X101300Y152699D02*
X108652D01*
X101300Y121199D02*
X108645D01*
X108431Y130199D02*
X108610D01*
X101300Y144599D02*
X108287D01*
X101300Y113099D02*
X108282D01*
X101300Y106799D02*
X108260D01*
X101300Y138299D02*
X108254D01*
X101300Y136499D02*
X107995D01*
X101300Y114899D02*
X107973D01*
X101300Y146399D02*
X107968D01*
X101300Y159899D02*
X107756D01*
X101300Y122999D02*
X107733D01*
X101300Y154499D02*
X107729D01*
X101300Y151799D02*
X107550D01*
X101300Y120299D02*
X107546D01*
X101300Y143699D02*
X107373D01*
X101300Y112199D02*
X107370D01*
X101300Y107699D02*
X107359D01*
X101300Y139199D02*
X107356D01*
X101300Y135599D02*
X107222D01*
X101300Y115799D02*
X107210D01*
X101300Y147299D02*
X107207D01*
X101300Y158999D02*
X107094D01*
X101300Y123899D02*
X107081D01*
X101300Y155399D02*
X107079D01*
X101300Y150899D02*
X106983D01*
X101300Y119399D02*
X106981D01*
X101300Y161699D02*
X106917D01*
X101300Y142799D02*
X106889D01*
X101300Y111299D02*
X106888D01*
X101300Y108599D02*
X106882D01*
X101300Y140099D02*
X106880D01*
X101300Y134699D02*
X106812D01*
X101300Y116699D02*
X106806D01*
X101300Y148199D02*
X106805D01*
X101300Y158099D02*
X106751D01*
X101300Y126599D02*
X106750D01*
X101300Y124799D02*
X106745D01*
X101300Y156299D02*
X106744D01*
X101300Y149999D02*
X106703D01*
X101300Y118499D02*
X106702D01*
X101300Y132899D02*
X106699D01*
X101300Y141899D02*
X106669D01*
X101300Y110399D02*
X106668D01*
X101300Y109499D02*
X106666D01*
X101300Y140999D02*
X106666D01*
X101300Y133799D02*
X106648D01*
X101300Y117599D02*
X106647D01*
X101300Y149099D02*
X106647D01*
X101300Y157199D02*
X106641D01*
X101300Y125699D02*
X106641D01*
X101300Y166199D02*
X106641D01*
X101300Y165299D02*
X106641D01*
X101300Y164399D02*
X106641D01*
X101300Y163499D02*
X106641D01*
X101300Y162599D02*
X106641D01*
X101300Y167099D02*
X104878D01*
X101300Y131999D02*
X104475D01*
X101300Y127499D02*
X104145D01*
X101300Y171599D02*
X103930D01*
X101300Y167999D02*
X103645D01*
X101300Y131099D02*
X103517D01*
X101300Y128399D02*
X103391D01*
X101300Y170699D02*
X103305D01*
X101300Y168899D02*
X103193D01*
X101300Y130199D02*
X103147D01*
X101300Y129299D02*
X103111D01*
X101300Y169799D02*
X103094D01*
X145076Y121161D02*
X143776D01*
X136846D02*
X138146D01*
X165154Y123720D02*
X163854D01*
X165154Y128839D02*
X163854D01*
X156924D02*
X158224D01*
X130800Y115600D02*
X129500D01*
X128000Y118800D02*
Y117500D01*
X125200Y115600D02*
X126500D01*
X170200Y167600D02*
X171500D01*
X175800D02*
X174500D01*
X173000Y170800D02*
Y169500D01*
X165973Y161823D02*
X164673D01*
X130800Y151600D02*
X129500D01*
X128000Y154800D02*
Y153500D01*
X125200Y151600D02*
X126500D01*
X130800Y168100D02*
X129500D01*
X128000Y171300D02*
Y170000D01*
X125200Y168100D02*
X126500D01*
X184400Y135800D02*
Y134500D01*
Y140200D02*
Y141500D01*
X181200Y143000D02*
X182500D01*
X175800Y144900D02*
X174500D01*
X170200D02*
X171500D01*
X176300Y114600D02*
X175000D01*
X173500Y117800D02*
Y116500D01*
X165154Y133957D02*
X163854D01*
X156924D02*
X158224D01*
X165154Y126280D02*
X163854D01*
X156924D02*
X158224D01*
X165154Y121161D02*
X163854D01*
X145076Y118602D02*
X143776D01*
X136846D02*
X138146D01*
G54D23*
X220170Y114000D02*
X218870D01*
X216311Y110141D02*
Y111441D01*
X246000Y153170D02*
Y151870D01*
X242141Y149311D02*
X243441D01*
X249859D02*
X248559D01*
X185830Y164500D02*
X187130D01*
X189689Y160641D02*
Y161941D01*
Y168359D02*
Y167059D01*
X197700Y139500D02*
X196400D01*
X195000Y142200D02*
Y140900D01*
X192300Y139500D02*
X193600D01*
X195000Y136800D02*
Y138100D01*
X175300Y133500D02*
X176600D01*
X188200Y138000D02*
X186900D01*
X182800D02*
X184100D01*
X175200Y135500D02*
X173900D01*
X172500Y132800D02*
Y134100D01*
X169500Y143700D02*
Y142400D01*
X199700Y147000D02*
X198400D01*
X194300D02*
X195600D01*
X197000Y144300D02*
Y145600D01*
X223200Y150000D02*
X221900D01*
X220500Y152700D02*
Y151400D01*
Y147300D02*
Y148600D01*
X215500Y128800D02*
Y130100D01*
X156700Y135500D02*
X155400D01*
X154000Y138200D02*
Y136900D01*
X151300Y135500D02*
X152600D01*
X108489Y129640D02*
X107189D01*
X105789Y132340D02*
Y131040D01*
X103089Y129640D02*
X104389D01*
X105789Y126940D02*
Y128240D01*
X108489Y169640D02*
X107189D01*
X105789Y172340D02*
Y171040D01*
X103089Y169640D02*
X104389D01*
X105789Y166940D02*
Y168240D01*
X128489Y119640D02*
X127189D01*
X135789Y112340D02*
Y111040D01*
X133089Y109640D02*
X134389D01*
X135789Y106940D02*
Y108240D01*
X188489Y169640D02*
X187189D01*
X185789Y172340D02*
Y171040D01*
X183089Y169640D02*
X184389D01*
X185789Y166940D02*
Y168240D01*
X198489Y169640D02*
X197189D01*
X195789Y172340D02*
Y171040D01*
X193089Y169640D02*
X194389D01*
X228489D02*
X227189D01*
X225789Y172340D02*
Y171040D01*
X223089Y169640D02*
X224389D01*
X225789Y166940D02*
Y168240D01*
X230200Y137000D02*
X228900D01*
X227500Y139700D02*
Y138400D01*
X224800Y137000D02*
X226100D01*
X288489Y149640D02*
X287189D01*
X285789Y152340D02*
Y151040D01*
X283089Y149640D02*
X284389D01*
X285789Y146940D02*
Y148240D01*
X288489Y139640D02*
X287189D01*
X285789Y142340D02*
Y141040D01*
X283089Y139640D02*
X284389D01*
X285789Y136940D02*
Y138240D01*
X288489Y129640D02*
X287189D01*
X285789Y132340D02*
Y131040D01*
X283089Y129640D02*
X284389D01*
X285789Y126940D02*
Y128240D01*
X278489Y169640D02*
X277189D01*
X275789Y172340D02*
Y171040D01*
X273089Y169640D02*
X274389D01*
X275789Y166940D02*
Y168240D01*
X278489Y159640D02*
X277189D01*
X275789Y162340D02*
Y161040D01*
X273089Y159640D02*
X274389D01*
X275789Y156940D02*
Y158240D01*
X278489Y149640D02*
X277189D01*
X275789Y152340D02*
Y151040D01*
X273089Y149640D02*
X274389D01*
X275789Y146940D02*
Y148240D01*
X278489Y139640D02*
X277189D01*
X275789Y142340D02*
Y141040D01*
X273089Y139640D02*
X274389D01*
X275789Y136940D02*
Y138240D01*
X278489Y129640D02*
X277189D01*
X275789Y132340D02*
Y131040D01*
X273089Y129640D02*
X274389D01*
X275789Y126940D02*
Y128240D01*
X278489Y119640D02*
X277189D01*
X275789Y122340D02*
Y121040D01*
X273089Y119640D02*
X274389D01*
X275789Y116940D02*
Y118240D01*
X215500Y152200D02*
Y150900D01*
X212800Y149500D02*
X214100D01*
X215500Y146800D02*
Y148100D01*
X278489Y109640D02*
X277189D01*
X275789Y112340D02*
Y111040D01*
X273089Y109640D02*
X274389D01*
X275789Y106940D02*
Y108240D01*
X268489Y169640D02*
X267189D01*
X265789Y172340D02*
Y171040D01*
X263089Y169640D02*
X264389D01*
X265789Y166940D02*
Y168240D01*
X268489Y159640D02*
X267189D01*
X265789Y162340D02*
Y161040D01*
X263089Y159640D02*
X264389D01*
X265789Y156940D02*
Y158240D01*
X268489Y149640D02*
X267189D01*
X265789Y152340D02*
Y151040D01*
X263089Y149640D02*
X264389D01*
X265789Y146940D02*
Y148240D01*
X268489Y119640D02*
X267189D01*
X265789Y122340D02*
Y121040D01*
X263089Y119640D02*
X264389D01*
X265789Y116940D02*
Y118240D01*
X268489Y109640D02*
X267189D01*
X265789Y112340D02*
Y111040D01*
X263089Y109640D02*
X264389D01*
X265789Y106940D02*
Y108240D01*
X258489Y169640D02*
X257189D01*
X255789Y172340D02*
Y171040D01*
X253089Y169640D02*
X254389D01*
X255789Y166940D02*
Y168240D01*
X258489Y159640D02*
X257189D01*
X255789Y162340D02*
Y161040D01*
X253089Y159640D02*
X254389D01*
X255789Y156940D02*
Y158240D01*
X258489Y149640D02*
X257189D01*
X255789Y152340D02*
Y151040D01*
X253089Y149640D02*
X254389D01*
X255789Y146940D02*
Y148240D01*
Y142340D02*
Y141040D01*
X253089Y139640D02*
X254389D01*
X255789Y136940D02*
Y138240D01*
X258489Y129640D02*
X257189D01*
X255789Y132340D02*
Y131040D01*
X253089Y129640D02*
X254389D01*
X255789Y126940D02*
Y128240D01*
X258489Y119640D02*
X257189D01*
X255789Y122340D02*
Y121040D01*
X253089Y119640D02*
X254389D01*
X255789Y116940D02*
Y118240D01*
X258489Y109640D02*
X257189D01*
X255789Y112340D02*
Y111040D01*
X253089Y109640D02*
X254389D01*
X255789Y106940D02*
Y108240D01*
X248489Y169640D02*
X247189D01*
X245789Y172340D02*
Y171040D01*
X243089Y169640D02*
X244389D01*
X245789Y166940D02*
Y168240D01*
X248489Y159640D02*
X247189D01*
X245789Y162340D02*
Y161040D01*
X243089Y159640D02*
X244389D01*
X245789Y156940D02*
Y158240D01*
X248489Y119640D02*
X247189D01*
X243089D02*
X244389D01*
X245789Y116940D02*
Y118240D01*
X248489Y109640D02*
X247189D01*
X245789Y112340D02*
Y111040D01*
X243089Y109640D02*
X244389D01*
X245789Y106940D02*
Y108240D01*
X238489Y169640D02*
X237189D01*
X235789Y172340D02*
Y171040D01*
X233089Y169640D02*
X234389D01*
X235789Y166940D02*
Y168240D01*
X238489Y109640D02*
X237189D01*
X235789Y112340D02*
Y111040D01*
X233089Y109640D02*
X234389D01*
X235789Y106940D02*
Y108240D01*
X238489Y159640D02*
X237189D01*
X235789Y162340D02*
Y161040D01*
X233089Y159640D02*
X234389D01*
X235789Y156940D02*
Y158240D01*
X238489Y149640D02*
X237189D01*
X235789Y152340D02*
Y151040D01*
X233089Y149640D02*
X234389D01*
X235789Y146940D02*
Y148240D01*
X193200Y124500D02*
X191900D01*
X238489Y139640D02*
X237189D01*
X233089D02*
X234389D01*
X235789Y136940D02*
Y138240D01*
X295789Y132340D02*
Y131040D01*
X293089Y129640D02*
X294389D01*
X295789Y126940D02*
Y128240D01*
Y142340D02*
Y141040D01*
X293089Y139640D02*
X294389D01*
X295789Y136940D02*
Y138240D01*
Y152340D02*
Y151040D01*
X293089Y149640D02*
X294389D01*
X295789Y146940D02*
Y148240D01*
X118489Y169640D02*
X117189D01*
X115789Y172340D02*
Y171040D01*
X113089Y169640D02*
X114389D01*
X161500Y145800D02*
Y147100D01*
X215500Y134200D02*
Y132900D01*
G54D36*
X213311Y164500D03*
X192689Y114000D03*
X110500Y165059D03*
X246000Y125689D03*
G54D37*
X205437Y164500D03*
X197563D03*
X189689D03*
X200563Y114000D03*
X208437D03*
X216311D03*
X110500Y157185D03*
Y149311D03*
Y141437D03*
Y133563D03*
Y125689D03*
Y117815D03*
Y109941D03*
X246000Y133563D03*
Y141437D03*
Y149311D03*
G54D38*
X128000Y109400D03*
Y115600D03*
X173000Y167600D03*
Y161400D03*
X173500Y108400D03*
Y114600D03*
X128000Y145400D03*
Y151600D03*
Y161900D03*
Y168100D03*
X173000Y144900D03*
Y151100D03*
X128000Y131100D03*
Y124900D03*
G54D40*
X139476Y169500D03*
Y166941D03*
Y164382D03*
Y161823D03*
Y159264D03*
Y156705D03*
Y154146D03*
Y151587D03*
X161524D03*
Y154146D03*
Y156705D03*
Y159264D03*
Y161823D03*
Y164382D03*
Y166941D03*
Y169500D03*
G54D52*
X140961Y141634D03*
G54D53*
X138343Y138622D02*
Y139528D01*
X143579*
Y138622*
X138343*
Y138976D02*
X143579D01*
X138343Y139370D02*
X143579D01*
X138583Y138622D02*
Y139528D01*
X138976Y138622D02*
Y139528D01*
X139370Y138622D02*
Y139528D01*
X139764Y138622D02*
Y139528D01*
X140157Y138622D02*
Y139528D01*
X140551Y138622D02*
Y139528D01*
X140945Y138622D02*
Y139528D01*
X141339Y138622D02*
Y139528D01*
X141732Y138622D02*
Y139528D01*
X142126Y138622D02*
Y139528D01*
X142520Y138622D02*
Y139528D01*
X142913Y138622D02*
Y139528D01*
X143307Y138622D02*
Y139528D01*
X138343Y136063D02*
Y136969D01*
X143579*
Y136063*
X138343*
Y136220D02*
X143579D01*
X138343Y136614D02*
X143579D01*
X138583Y136063D02*
Y136969D01*
X138976Y136063D02*
Y136969D01*
X139370Y136063D02*
Y136969D01*
X139764Y136063D02*
Y136969D01*
X140157Y136063D02*
Y136969D01*
X140551Y136063D02*
Y136969D01*
X140945Y136063D02*
Y136969D01*
X141339Y136063D02*
Y136969D01*
X141732Y136063D02*
Y136969D01*
X142126Y136063D02*
Y136969D01*
X142520Y136063D02*
Y136969D01*
X142913Y136063D02*
Y136969D01*
X143307Y136063D02*
Y136969D01*
X138343Y133504D02*
Y134409D01*
X143579*
Y133504*
X138343*
Y133858D02*
X143579D01*
X138343Y134252D02*
X143579D01*
X138583Y133504D02*
Y134409D01*
X138976Y133504D02*
Y134409D01*
X139370Y133504D02*
Y134409D01*
X139764Y133504D02*
Y134409D01*
X140157Y133504D02*
Y134409D01*
X140551Y133504D02*
Y134409D01*
X140945Y133504D02*
Y134409D01*
X141339Y133504D02*
Y134409D01*
X141732Y133504D02*
Y134409D01*
X142126Y133504D02*
Y134409D01*
X142520Y133504D02*
Y134409D01*
X142913Y133504D02*
Y134409D01*
X143307Y133504D02*
Y134409D01*
X138343Y130945D02*
Y131850D01*
X143579*
Y130945*
X138343*
Y131102D02*
X143579D01*
X138343Y131496D02*
X143579D01*
X138583Y130945D02*
Y131850D01*
X138976Y130945D02*
Y131850D01*
X139370Y130945D02*
Y131850D01*
X139764Y130945D02*
Y131850D01*
X140157Y130945D02*
Y131850D01*
X140551Y130945D02*
Y131850D01*
X140945Y130945D02*
Y131850D01*
X141339Y130945D02*
Y131850D01*
X141732Y130945D02*
Y131850D01*
X142126Y130945D02*
Y131850D01*
X142520Y130945D02*
Y131850D01*
X142913Y130945D02*
Y131850D01*
X143307Y130945D02*
Y131850D01*
X138343Y128386D02*
Y129291D01*
X143579*
Y128386*
X138343*
Y128740D02*
X143579D01*
X138343Y129134D02*
X143579D01*
X138583Y128386D02*
Y129291D01*
X138976Y128386D02*
Y129291D01*
X139370Y128386D02*
Y129291D01*
X139764Y128386D02*
Y129291D01*
X140157Y128386D02*
Y129291D01*
X140551Y128386D02*
Y129291D01*
X140945Y128386D02*
Y129291D01*
X141339Y128386D02*
Y129291D01*
X141732Y128386D02*
Y129291D01*
X142126Y128386D02*
Y129291D01*
X142520Y128386D02*
Y129291D01*
X142913Y128386D02*
Y129291D01*
X143307Y128386D02*
Y129291D01*
X138343Y125827D02*
Y126732D01*
X143579*
Y125827*
X138343*
Y125984D02*
X143579D01*
X138343Y126378D02*
X143579D01*
X138583Y125827D02*
Y126732D01*
X138976Y125827D02*
Y126732D01*
X139370Y125827D02*
Y126732D01*
X139764Y125827D02*
Y126732D01*
X140157Y125827D02*
Y126732D01*
X140551Y125827D02*
Y126732D01*
X140945Y125827D02*
Y126732D01*
X141339Y125827D02*
Y126732D01*
X141732Y125827D02*
Y126732D01*
X142126Y125827D02*
Y126732D01*
X142520Y125827D02*
Y126732D01*
X142913Y125827D02*
Y126732D01*
X143307Y125827D02*
Y126732D01*
X138343Y123268D02*
Y124173D01*
X143579*
Y123268*
X138343*
Y123622D02*
X143579D01*
X138343Y124016D02*
X143579D01*
X138583Y123268D02*
Y124173D01*
X138976Y123268D02*
Y124173D01*
X139370Y123268D02*
Y124173D01*
X139764Y123268D02*
Y124173D01*
X140157Y123268D02*
Y124173D01*
X140551Y123268D02*
Y124173D01*
X140945Y123268D02*
Y124173D01*
X141339Y123268D02*
Y124173D01*
X141732Y123268D02*
Y124173D01*
X142126Y123268D02*
Y124173D01*
X142520Y123268D02*
Y124173D01*
X142913Y123268D02*
Y124173D01*
X143307Y123268D02*
Y124173D01*
X138343Y120709D02*
Y121614D01*
X143579*
Y120709*
X138343*
Y120866D02*
X143579D01*
X138343Y121260D02*
X143579D01*
X138583Y120709D02*
Y121614D01*
X138976Y120709D02*
Y121614D01*
X139370Y120709D02*
Y121614D01*
X139764Y120709D02*
Y121614D01*
X140157Y120709D02*
Y121614D01*
X140551Y120709D02*
Y121614D01*
X140945Y120709D02*
Y121614D01*
X141339Y120709D02*
Y121614D01*
X141732Y120709D02*
Y121614D01*
X142126Y120709D02*
Y121614D01*
X142520Y120709D02*
Y121614D01*
X142913Y120709D02*
Y121614D01*
X143307Y120709D02*
Y121614D01*
X138343Y118150D02*
Y119055D01*
X143579*
Y118150*
X138343*
Y118504D02*
X143579D01*
X138343Y118898D02*
X143579D01*
X138583Y118150D02*
Y119055D01*
X138976Y118150D02*
Y119055D01*
X139370Y118150D02*
Y119055D01*
X139764Y118150D02*
Y119055D01*
X140157Y118150D02*
Y119055D01*
X140551Y118150D02*
Y119055D01*
X140945Y118150D02*
Y119055D01*
X141339Y118150D02*
Y119055D01*
X141732Y118150D02*
Y119055D01*
X142126Y118150D02*
Y119055D01*
X142520Y118150D02*
Y119055D01*
X142913Y118150D02*
Y119055D01*
X143307Y118150D02*
Y119055D01*
X138343Y115591D02*
Y116496D01*
X143579*
Y115591*
X138343*
Y115748D02*
X143579D01*
X138343Y116142D02*
X143579D01*
X138583Y115591D02*
Y116496D01*
X138976Y115591D02*
Y116496D01*
X139370Y115591D02*
Y116496D01*
X139764Y115591D02*
Y116496D01*
X140157Y115591D02*
Y116496D01*
X140551Y115591D02*
Y116496D01*
X140945Y115591D02*
Y116496D01*
X141339Y115591D02*
Y116496D01*
X141732Y115591D02*
Y116496D01*
X142126Y115591D02*
Y116496D01*
X142520Y115591D02*
Y116496D01*
X142913Y115591D02*
Y116496D01*
X143307Y115591D02*
Y116496D01*
X138343Y113031D02*
Y113937D01*
X143579*
Y113031*
X138343*
Y113386D02*
X143579D01*
X138343Y113780D02*
X143579D01*
X138583Y113031D02*
Y113937D01*
X138976Y113031D02*
Y113937D01*
X139370Y113031D02*
Y113937D01*
X139764Y113031D02*
Y113937D01*
X140157Y113031D02*
Y113937D01*
X140551Y113031D02*
Y113937D01*
X140945Y113031D02*
Y113937D01*
X141339Y113031D02*
Y113937D01*
X141732Y113031D02*
Y113937D01*
X142126Y113031D02*
Y113937D01*
X142520Y113031D02*
Y113937D01*
X142913Y113031D02*
Y113937D01*
X143307Y113031D02*
Y113937D01*
X138343Y110472D02*
Y111378D01*
X143579*
Y110472*
X138343*
Y110630D02*
X143579D01*
X138343Y111024D02*
X143579D01*
X138583Y110472D02*
Y111378D01*
X138976Y110472D02*
Y111378D01*
X139370Y110472D02*
Y111378D01*
X139764Y110472D02*
Y111378D01*
X140157Y110472D02*
Y111378D01*
X140551Y110472D02*
Y111378D01*
X140945Y110472D02*
Y111378D01*
X141339Y110472D02*
Y111378D01*
X141732Y110472D02*
Y111378D01*
X142126Y110472D02*
Y111378D01*
X142520Y110472D02*
Y111378D01*
X142913Y110472D02*
Y111378D01*
X143307Y110472D02*
Y111378D01*
X138343Y107913D02*
Y108819D01*
X143579*
Y107913*
X138343*
Y108268D02*
X143579D01*
X138343Y108661D02*
X143579D01*
X138583Y107913D02*
Y108819D01*
X138976Y107913D02*
Y108819D01*
X139370Y107913D02*
Y108819D01*
X139764Y107913D02*
Y108819D01*
X140157Y107913D02*
Y108819D01*
X140551Y107913D02*
Y108819D01*
X140945Y107913D02*
Y108819D01*
X141339Y107913D02*
Y108819D01*
X141732Y107913D02*
Y108819D01*
X142126Y107913D02*
Y108819D01*
X142520Y107913D02*
Y108819D01*
X142913Y107913D02*
Y108819D01*
X143307Y107913D02*
Y108819D01*
X158421Y107913D02*
Y108819D01*
X163657*
Y107913*
X158421*
Y108268D02*
X163657D01*
X158421Y108661D02*
X163657D01*
X158661Y107913D02*
Y108819D01*
X159055Y107913D02*
Y108819D01*
X159449Y107913D02*
Y108819D01*
X159843Y107913D02*
Y108819D01*
X160236Y107913D02*
Y108819D01*
X160630Y107913D02*
Y108819D01*
X161024Y107913D02*
Y108819D01*
X161417Y107913D02*
Y108819D01*
X161811Y107913D02*
Y108819D01*
X162205Y107913D02*
Y108819D01*
X162598Y107913D02*
Y108819D01*
X162992Y107913D02*
Y108819D01*
X163386Y107913D02*
Y108819D01*
X158421Y110472D02*
Y111378D01*
X163657*
Y110472*
X158421*
Y110630D02*
X163657D01*
X158421Y111024D02*
X163657D01*
X158661Y110472D02*
Y111378D01*
X159055Y110472D02*
Y111378D01*
X159449Y110472D02*
Y111378D01*
X159843Y110472D02*
Y111378D01*
X160236Y110472D02*
Y111378D01*
X160630Y110472D02*
Y111378D01*
X161024Y110472D02*
Y111378D01*
X161417Y110472D02*
Y111378D01*
X161811Y110472D02*
Y111378D01*
X162205Y110472D02*
Y111378D01*
X162598Y110472D02*
Y111378D01*
X162992Y110472D02*
Y111378D01*
X163386Y110472D02*
Y111378D01*
X158421Y113031D02*
Y113937D01*
X163657*
Y113031*
X158421*
Y113386D02*
X163657D01*
X158421Y113780D02*
X163657D01*
X158661Y113031D02*
Y113937D01*
X159055Y113031D02*
Y113937D01*
X159449Y113031D02*
Y113937D01*
X159843Y113031D02*
Y113937D01*
X160236Y113031D02*
Y113937D01*
X160630Y113031D02*
Y113937D01*
X161024Y113031D02*
Y113937D01*
X161417Y113031D02*
Y113937D01*
X161811Y113031D02*
Y113937D01*
X162205Y113031D02*
Y113937D01*
X162598Y113031D02*
Y113937D01*
X162992Y113031D02*
Y113937D01*
X163386Y113031D02*
Y113937D01*
X158421Y115591D02*
Y116496D01*
X163657*
Y115591*
X158421*
Y115748D02*
X163657D01*
X158421Y116142D02*
X163657D01*
X158661Y115591D02*
Y116496D01*
X159055Y115591D02*
Y116496D01*
X159449Y115591D02*
Y116496D01*
X159843Y115591D02*
Y116496D01*
X160236Y115591D02*
Y116496D01*
X160630Y115591D02*
Y116496D01*
X161024Y115591D02*
Y116496D01*
X161417Y115591D02*
Y116496D01*
X161811Y115591D02*
Y116496D01*
X162205Y115591D02*
Y116496D01*
X162598Y115591D02*
Y116496D01*
X162992Y115591D02*
Y116496D01*
X163386Y115591D02*
Y116496D01*
X158421Y118150D02*
Y119055D01*
X163657*
Y118150*
X158421*
Y118504D02*
X163657D01*
X158421Y118898D02*
X163657D01*
X158661Y118150D02*
Y119055D01*
X159055Y118150D02*
Y119055D01*
X159449Y118150D02*
Y119055D01*
X159843Y118150D02*
Y119055D01*
X160236Y118150D02*
Y119055D01*
X160630Y118150D02*
Y119055D01*
X161024Y118150D02*
Y119055D01*
X161417Y118150D02*
Y119055D01*
X161811Y118150D02*
Y119055D01*
X162205Y118150D02*
Y119055D01*
X162598Y118150D02*
Y119055D01*
X162992Y118150D02*
Y119055D01*
X163386Y118150D02*
Y119055D01*
X158421Y120709D02*
Y121614D01*
X163657*
Y120709*
X158421*
Y120866D02*
X163657D01*
X158421Y121260D02*
X163657D01*
X158661Y120709D02*
Y121614D01*
X159055Y120709D02*
Y121614D01*
X159449Y120709D02*
Y121614D01*
X159843Y120709D02*
Y121614D01*
X160236Y120709D02*
Y121614D01*
X160630Y120709D02*
Y121614D01*
X161024Y120709D02*
Y121614D01*
X161417Y120709D02*
Y121614D01*
X161811Y120709D02*
Y121614D01*
X162205Y120709D02*
Y121614D01*
X162598Y120709D02*
Y121614D01*
X162992Y120709D02*
Y121614D01*
X163386Y120709D02*
Y121614D01*
X158421Y123268D02*
Y124173D01*
X163657*
Y123268*
X158421*
Y123622D02*
X163657D01*
X158421Y124016D02*
X163657D01*
X158661Y123268D02*
Y124173D01*
X159055Y123268D02*
Y124173D01*
X159449Y123268D02*
Y124173D01*
X159843Y123268D02*
Y124173D01*
X160236Y123268D02*
Y124173D01*
X160630Y123268D02*
Y124173D01*
X161024Y123268D02*
Y124173D01*
X161417Y123268D02*
Y124173D01*
X161811Y123268D02*
Y124173D01*
X162205Y123268D02*
Y124173D01*
X162598Y123268D02*
Y124173D01*
X162992Y123268D02*
Y124173D01*
X163386Y123268D02*
Y124173D01*
X158421Y125827D02*
Y126732D01*
X163657*
Y125827*
X158421*
Y125984D02*
X163657D01*
X158421Y126378D02*
X163657D01*
X158661Y125827D02*
Y126732D01*
X159055Y125827D02*
Y126732D01*
X159449Y125827D02*
Y126732D01*
X159843Y125827D02*
Y126732D01*
X160236Y125827D02*
Y126732D01*
X160630Y125827D02*
Y126732D01*
X161024Y125827D02*
Y126732D01*
X161417Y125827D02*
Y126732D01*
X161811Y125827D02*
Y126732D01*
X162205Y125827D02*
Y126732D01*
X162598Y125827D02*
Y126732D01*
X162992Y125827D02*
Y126732D01*
X163386Y125827D02*
Y126732D01*
X158421Y128386D02*
Y129291D01*
X163657*
Y128386*
X158421*
Y128740D02*
X163657D01*
X158421Y129134D02*
X163657D01*
X158661Y128386D02*
Y129291D01*
X159055Y128386D02*
Y129291D01*
X159449Y128386D02*
Y129291D01*
X159843Y128386D02*
Y129291D01*
X160236Y128386D02*
Y129291D01*
X160630Y128386D02*
Y129291D01*
X161024Y128386D02*
Y129291D01*
X161417Y128386D02*
Y129291D01*
X161811Y128386D02*
Y129291D01*
X162205Y128386D02*
Y129291D01*
X162598Y128386D02*
Y129291D01*
X162992Y128386D02*
Y129291D01*
X163386Y128386D02*
Y129291D01*
X158421Y130945D02*
Y131850D01*
X163657*
Y130945*
X158421*
Y131102D02*
X163657D01*
X158421Y131496D02*
X163657D01*
X158661Y130945D02*
Y131850D01*
X159055Y130945D02*
Y131850D01*
X159449Y130945D02*
Y131850D01*
X159843Y130945D02*
Y131850D01*
X160236Y130945D02*
Y131850D01*
X160630Y130945D02*
Y131850D01*
X161024Y130945D02*
Y131850D01*
X161417Y130945D02*
Y131850D01*
X161811Y130945D02*
Y131850D01*
X162205Y130945D02*
Y131850D01*
X162598Y130945D02*
Y131850D01*
X162992Y130945D02*
Y131850D01*
X163386Y130945D02*
Y131850D01*
X158421Y133504D02*
Y134409D01*
X163657*
Y133504*
X158421*
Y133858D02*
X163657D01*
X158421Y134252D02*
X163657D01*
X158661Y133504D02*
Y134409D01*
X159055Y133504D02*
Y134409D01*
X159449Y133504D02*
Y134409D01*
X159843Y133504D02*
Y134409D01*
X160236Y133504D02*
Y134409D01*
X160630Y133504D02*
Y134409D01*
X161024Y133504D02*
Y134409D01*
X161417Y133504D02*
Y134409D01*
X161811Y133504D02*
Y134409D01*
X162205Y133504D02*
Y134409D01*
X162598Y133504D02*
Y134409D01*
X162992Y133504D02*
Y134409D01*
X163386Y133504D02*
Y134409D01*
X158421Y136063D02*
Y136969D01*
X163657*
Y136063*
X158421*
Y136220D02*
X163657D01*
X158421Y136614D02*
X163657D01*
X158661Y136063D02*
Y136969D01*
X159055Y136063D02*
Y136969D01*
X159449Y136063D02*
Y136969D01*
X159843Y136063D02*
Y136969D01*
X160236Y136063D02*
Y136969D01*
X160630Y136063D02*
Y136969D01*
X161024Y136063D02*
Y136969D01*
X161417Y136063D02*
Y136969D01*
X161811Y136063D02*
Y136969D01*
X162205Y136063D02*
Y136969D01*
X162598Y136063D02*
Y136969D01*
X162992Y136063D02*
Y136969D01*
X163386Y136063D02*
Y136969D01*
X158421Y138622D02*
Y139528D01*
X163657*
Y138622*
X158421*
Y138976D02*
X163657D01*
X158421Y139370D02*
X163657D01*
X158661Y138622D02*
Y139528D01*
X159055Y138622D02*
Y139528D01*
X159449Y138622D02*
Y139528D01*
X159843Y138622D02*
Y139528D01*
X160236Y138622D02*
Y139528D01*
X160630Y138622D02*
Y139528D01*
X161024Y138622D02*
Y139528D01*
X161417Y138622D02*
Y139528D01*
X161811Y138622D02*
Y139528D01*
X162205Y138622D02*
Y139528D01*
X162598Y138622D02*
Y139528D01*
X162992Y138622D02*
Y139528D01*
X163386Y138622D02*
Y139528D01*
X158421Y141181D02*
Y142087D01*
X163657*
Y141181*
X158421*
Y141339D02*
X163657D01*
X158421Y141732D02*
X163657D01*
X158661Y141181D02*
Y142087D01*
X159055Y141181D02*
Y142087D01*
X159449Y141181D02*
Y142087D01*
X159843Y141181D02*
Y142087D01*
X160236Y141181D02*
Y142087D01*
X160630Y141181D02*
Y142087D01*
X161024Y141181D02*
Y142087D01*
X161417Y141181D02*
Y142087D01*
X161811Y141181D02*
Y142087D01*
X162205Y141181D02*
Y142087D01*
X162598Y141181D02*
Y142087D01*
X162992Y141181D02*
Y142087D01*
X163386Y141181D02*
Y142087D01*
G54D54*
X150000Y104500D03*
X186500Y105000D03*
X135789Y109640D03*
X147500Y108500D03*
X154500Y107500D03*
X152500Y111500D03*
X180500Y112500D03*
X235789Y109640D03*
X245789D03*
X255789D03*
X265789D03*
X275789D03*
X125789Y119640D03*
X134500Y122500D03*
X148000Y125500D03*
X155500Y122000D03*
X152500Y119500D03*
X177000Y123000D03*
X190500Y124500D03*
X231000Y125500D03*
X245789Y119640D03*
X255789D03*
X265789D03*
X275789D03*
X105789Y129640D03*
X154000Y135500D03*
X177000Y128500D03*
X178000Y133500D03*
X172500Y135500D03*
X196000Y131500D03*
X198500Y128500D03*
X215500Y131500D03*
X227500Y137000D03*
X235000Y134000D03*
X255789Y129640D03*
X275789D03*
X285789D03*
X295789D03*
X134000Y147000D03*
X153000Y146500D03*
X169500Y141000D03*
X179000Y138500D03*
X185500Y138000D03*
X197000Y147000D03*
X195000Y139500D03*
X206000Y138000D03*
X218000D03*
X235789Y139640D03*
X233000Y143000D03*
X255789Y139640D03*
X275789D03*
X285789D03*
X295789D03*
X161500Y148500D03*
X194500Y150000D03*
X198500Y155000D03*
X215500Y149500D03*
X220500Y150000D03*
X235789Y149640D03*
X255789D03*
X265789D03*
X275789D03*
X285789D03*
X295789D03*
X133500Y159500D03*
Y164500D03*
X152500Y159000D03*
X151000Y167000D03*
X177000Y162000D03*
X235789Y159640D03*
X245789D03*
X255789D03*
X265789D03*
X275789D03*
X105789Y169640D03*
X115789D03*
X133000Y171500D03*
X155000Y168000D03*
X167500Y171000D03*
X185789Y169640D03*
X195789D03*
X225789D03*
X235789D03*
X245789D03*
X255789D03*
X265789D03*
X275789D03*
G74*
X0Y0D02*
M02*
