%
T1C.035F197S55
X017634Y012346
X017634Y011488
X017634Y01063
X018126Y012776
X018126Y011917
X018126Y011059
X018618Y012346
X018618Y01063
X018618Y011488
X018618Y014921
X018618Y014063
X018618Y013205
X018134Y014465
X018126Y01535
X018126Y013638
X017634Y014921
X017634Y014063
X017634Y013205
X017634Y017496
X017634Y01578
X017634Y016638
X018126Y017067
X018126Y016209
X018126Y017925
X018618Y016638
X018618Y017496
X018618Y01578
X018618Y019213
X018618Y018354
X018126Y018783
X017634Y018354
X017634Y019213
M30
