*
*
G04 PADS 9.3.1 Build Number: 456998 generated Gerber (RS-274-X) file*
G04 PC Version=2.1*
*
%IN "medulla_flat_flex.pcb"*%
*
%MOIN*%
*
%FSLAX35Y35*%
*
*
*
*
G04 PC Standard Apertures*
*
*
G04 Thermal Relief Aperture macro.*
%AMTER*
1,1,$1,0,0*
1,0,$1-$2,0,0*
21,0,$3,$4,0,0,45*
21,0,$3,$4,0,0,135*
%
*
*
G04 Annular Aperture macro.*
%AMANN*
1,1,$1,0,0*
1,0,$2,0,0*
%
*
*
G04 Odd Aperture macro.*
%AMODD*
1,1,$1,0,0*
1,0,$1-0.005,0,0*
%
*
*
G04 PC Custom Aperture Macros*
*
*
*
*
*
*
G04 PC Aperture Table*
*
%ADD010C,0.001*%
%ADD052R,0.01181X0.05512*%
%ADD053C,0.05709*%
%ADD054C,0.006*%
%ADD055C,0.01181*%
*
*
*
*
G04 PC Circuitry*
G04 Layer Name medulla_flat_flex.pcb - circuitry*
%LPD*%
*
*
G04 PC Custom Flashes*
G04 Layer Name medulla_flat_flex.pcb - flashes*
%LPD*%
*
*
G04 PC Circuitry*
G04 Layer Name medulla_flat_flex.pcb - circuitry*
%LPD*%
*
G54D10*
G54D52*
G01X247795Y178110D03*
X245827D03*
X243858D03*
X241890D03*
X239921D03*
X237953D03*
X235984D03*
X234016D03*
X232047D03*
X230079D03*
X228110D03*
X226142D03*
X224173D03*
X222205D03*
X220236D03*
X218268D03*
X216299D03*
X214331D03*
X114331Y120315D03*
X116299D03*
X118268D03*
X120236D03*
X122205D03*
X124173D03*
X126142D03*
X128110D03*
X130079D03*
X132047D03*
X134016D03*
X135984D03*
X137953D03*
X139921D03*
X141890D03*
X143858D03*
X145827D03*
X147795D03*
G54D53*
X186181Y192126D03*
X176339D03*
X186181Y183543D03*
X176339D03*
X186181Y174961D03*
X176339D03*
X186181Y166378D03*
X176339D03*
X186181Y157795D03*
X176339D03*
X186181Y149213D03*
X176339D03*
X186181Y140630D03*
X176339D03*
X186181Y132047D03*
X176339D03*
X186181Y123465D03*
X176339D03*
X186181Y114882D03*
X176339D03*
X186181Y106299D03*
X176339D03*
X181260Y187835D03*
Y179252D03*
Y170669D03*
Y162087D03*
Y153504D03*
X181339Y144646D03*
X181260Y136378D03*
Y127756D03*
Y119173D03*
Y110591D03*
G54D54*
X186181Y106299D02*
X247795Y167913D01*
Y178110*
X118268Y120315D02*
Y123971D01*
X169257Y174961*
X176339*
X116299Y120315D02*
Y123971D01*
X170801Y178473*
X171268*
X176339Y183543*
X114331Y120315D02*
Y130118D01*
X176339Y192126*
X128110Y120315D02*
Y123971D01*
X144769Y140630*
X176339*
X126142Y120315D02*
Y123971D01*
X146817Y144646*
X181339*
X124173Y120315D02*
Y123971D01*
X149415Y149213*
X176339*
X122205Y120315D02*
Y123971D01*
X156029Y157795*
X176339*
X120236Y120315D02*
Y123971D01*
X162643Y166378*
X176339*
X137953Y120315D02*
Y123971D01*
X141553Y127571*
X166032*
X174429Y119173*
X181260*
X135984Y120315D02*
Y123971D01*
X140784Y128771*
X166831*
X172137Y123465*
X176339*
X134016Y120315D02*
Y123971D01*
X140016Y129971*
X170114*
X172329Y127756*
X181260*
X132047Y120315D02*
Y123971D01*
X140124Y132047*
X176339*
X130079Y120315D02*
Y123971D01*
X142486Y136378*
X181260*
X143858Y120315D02*
Y123971D01*
X158667*
X176339Y106299*
X141890Y120315D02*
Y123971D01*
X143090Y125171*
X159849*
X174429Y110591*
X181260*
X139921Y120315D02*
Y123971D01*
X142321Y126371*
X164850*
X176339Y114882*
X186181D02*
X217346Y146047D01*
X217419*
X245827Y174454*
Y178110*
X186181Y123465D02*
X192869D01*
X243858Y174454*
Y178110*
X186181Y132047D02*
X199483D01*
X241890Y174454*
Y178110*
X186181Y140630D02*
X206097D01*
X239921Y174454*
Y178110*
X181260Y153504D02*
X215034D01*
X235984Y174454*
Y178110*
X186181Y149213D02*
X212711D01*
X237953Y174454*
Y178110*
X181260Y162087D02*
X219680D01*
X232047Y174454*
Y178110*
X186181Y157795D02*
X217357D01*
X234016Y174454*
Y178110*
X181260Y170669D02*
X190191D01*
X192406Y168454*
X222110*
X228110Y174454*
Y178110*
X186181Y166378D02*
X222002D01*
X230079Y174454*
Y178110*
X181260Y179252D02*
X188090D01*
X196488Y170854*
X220573*
X224173Y174454*
Y178110*
X186181Y174961D02*
X190383D01*
X195689Y169654*
X221342*
X226142Y174454*
Y178110*
X186181Y183543D02*
X197670Y172054D01*
X219805*
X222205Y174454*
Y178110*
X181260Y187835D02*
X188090D01*
X202671Y173254*
X219036*
X220236Y174454*
Y178110*
X186181Y192126D02*
X203853Y174454D01*
X218268*
Y178110*
G54D55*
X255669Y194252D02*
X260787D01*
Y186772*
X255669*
Y194252*
X206457D02*
Y186772D01*
X201339*
Y194252*
X206457*
X106457Y104173D02*
X101339D01*
Y111654*
X106457*
Y104173*
X155669D02*
Y111654D01*
X160787*
Y104173*
X155669*
X255669Y194211D02*
X260787D01*
X255669Y193148D02*
X260787D01*
X255669Y192085D02*
X260787D01*
X255669Y191022D02*
X260787D01*
X255669Y189959D02*
X260787D01*
X255669Y188896D02*
X260787D01*
X255669Y187833D02*
X260787D01*
X201339Y194211D02*
X206457D01*
X201339Y193148D02*
X206457D01*
X201339Y192085D02*
X206457D01*
X201339Y191022D02*
X206457D01*
X201339Y189959D02*
X206457D01*
X201339Y188896D02*
X206457D01*
X201339Y187833D02*
X206457D01*
X101339Y111613D02*
X106457D01*
X101339Y110550D02*
X106457D01*
X101339Y109487D02*
X106457D01*
X101339Y108424D02*
X106457D01*
X101339Y107361D02*
X106457D01*
X101339Y106298D02*
X106457D01*
X101339Y105235D02*
X106457D01*
X155669Y111613D02*
X160787D01*
X155669Y110550D02*
X160787D01*
X155669Y109487D02*
X160787D01*
X155669Y108424D02*
X160787D01*
X155669Y107361D02*
X160787D01*
X155669Y106298D02*
X160787D01*
X155669Y105235D02*
X160787D01*
X0Y0D02*
M02*
