%
T1C.015F095S3
X010585Y012114
X010585Y015114
X011307Y0163
X010585Y018114
X011307Y0193
X010585Y021114
X011307Y0253
X010585Y027114
X010585Y030114
X0128Y0331
X010585Y033114
X0128Y0358
X010585Y036114
X0116Y037
X0112Y037
X012Y0371
X0124Y0372
X0128Y0373
X011307Y0383
X01288Y03982
X015307Y0393
X014307Y0393
X0155Y0371
X0145Y0371
X0135Y0371
X013307Y0323
X0131Y0313
X0131Y0307
X0134Y0304
X014307Y0253
X015307Y0243
X013585Y024114
X013307Y0203
X013307Y0183
X0168Y0109
X0171Y0126
X0171Y0133
X0177Y017
X0169Y017
X0173Y017
X0177Y018
X0176Y0197
X0176Y0203
X016Y0246
X0156Y0249
X016585Y027114
X0176Y0282
X0174Y0285
X017Y0285
X0175Y0295
X0176Y0302
X016585Y039114
X018307Y0393
X019585Y039114
X018307Y0383
X020307Y0343
X019585Y033114
X0205Y033
X01942Y0319
X0205Y0319
X020307Y0303
X0188Y029
X0182Y0288
X019307Y0283
X0205Y0282
X0182Y0274
X0183Y0266
X0185Y0263
X0189Y0249
X0204Y0235
X0189Y023
X0181Y0218
X0185Y0215
X0184Y0203
X0185Y0188
X0192Y0162
X021307Y0113
X022307Y0113
X0208Y0126
X021307Y0133
X0225Y0174
X0218Y0181
X0218Y0188
X0211Y0194
X0218Y0198
X0218Y0208
X0211Y0218
X0227Y0231
X0213Y0231
X0223Y0235
X0207Y0239
X022Y0239
X0225Y0248
X0206Y0253
X0206Y0264
X0228Y0276
X0209Y0282
X0223Y03
X0227Y0315
X0211Y033
X0224Y0332
X023Y0332
X0209Y0333
X022585Y039114
X0253Y0324
X0253Y0319
X0246Y0317
X0253Y0315
X023307Y0313
X0246Y0313
X0231Y0308
X0246Y0308
X024307Y0303
X024307Y0293
X025307Y0293
X0249Y0286
X024307Y0283
X0234Y0279
X025307Y0273
X023307Y0243
X0244Y0227
X0247Y0223
X025Y0219
X0233Y0199
X0239Y0188
X027307Y0113
X026Y0116
X0267Y0122
X0279Y0181
X028Y0185
X0256Y0219
X0256Y0223
X0256Y0227
X0256Y0231
X0271Y0236
X0271Y024
X0279Y0243
X0271Y0246
X0258Y0255
X0269Y0265
X0276Y0265
X027307Y0273
X026307Y0283
X0268Y036
X025585Y039114
X028585Y039114
X030307Y0313
X029307Y0313
X030307Y0303
X0292Y0258
X0297Y0254
X0297Y0247
X0295Y023
X028585Y021114
X0303Y0196
X029307Y0193
X028307Y0193
X03Y0193
X029307Y0183
X0302Y0171
X0305Y0168
X0324Y0157
X032Y0163
X0316Y0167
X0306Y0198
X0314Y0274
X031Y0285
X0314Y03
X031Y0322
X031585Y033114
X031307Y0353
X032307Y0353
X031585Y039114
X034585Y039114
X035307Y0353
X034307Y0353
X033307Y0353
X0354Y0346
X034307Y0333
X033307Y0333
X033307Y0323
X035307Y0323
X0355Y0311
X0349Y026
X0333Y0169
X0332Y0157
X0368Y0105
X037585Y012114
X0359Y0122
X0376Y0134
X038Y0134
X037Y0136
X0374Y0256
X0369Y0261
X037307Y0263
X037307Y0273
X0369Y0276
X038Y028
X0376Y0286
X0371Y0296
X0356Y03
X0363Y0302
X036Y0311
X037307Y0313
X036307Y0333
X0378Y0338
X037Y0346
X0368Y0356
X037585Y039114
X039307Y0343
X0384Y0331
X0394Y0328
X0398Y0325
X0384Y0322
X040307Y0313
X039307Y0313
X038307Y0313
X0383Y0293
X040307Y0283
X038307Y0283
X039307Y0283
X039307Y0273
X039307Y0223
X039307Y0213
X039307Y0193
X040307Y0173
X039307Y0163
X039307Y0153
X038307Y0153
X0392Y0139
X0389Y0136
X0386Y0133
X042307Y0143
X041307Y0143
X0417Y0156
X042307Y0163
X042307Y0173
X041307Y0173
X042307Y0193
X0406Y0207
X0426Y0223
X0423Y0229
X0423Y0251
X0406Y0261
X043Y0271
X040585Y027114
X040585Y030114
X0422Y0334
X0418Y0334
X043Y0334
X0426Y0334
X0418Y0338
X0418Y0342
X0418Y0346
X0418Y035
X0418Y0354
X042Y036
X0423Y0363
X0427Y0367
X043Y037
X040585Y039114
X045307Y0393
X043585Y039114
X045307Y0383
X0433Y0373
X045307Y0353
X045307Y0343
X0438Y0334
X0442Y0334
X0434Y0334
X045307Y0333
X045307Y0313
X045307Y0303
X045307Y0293
X045307Y0283
X045307Y0253
X0434Y0245
X043307Y0223
X045307Y0223
X0438Y0223
X045307Y0213
X045307Y0203
X0442Y0201
X045307Y0193
X043307Y0193
X0446Y0186
X043307Y0173
X0452Y0166
X043307Y0163
X043585Y015114
X045307Y0143
X043585Y012114
X0473Y0166
X047307Y0173
X046307Y0173
X046307Y0193
X047307Y0193
X0469Y0198
X046585Y021114
X047307Y0223
X046307Y0223
X047307Y0233
X045985Y024114
X047307Y0243
X046307Y0253
X047307Y0253
X0473Y0258
X047307Y0263
X045985Y027114
X047307Y0273
X047307Y0283
X046307Y0283
X046585Y030114
X046307Y0313
X047307Y0313
X046307Y0323
X047307Y0323
X047307Y0333
X047307Y0353
X046585Y039114
X048307Y0393
X049585Y039114
X048307Y0383
X048307Y0343
X050307Y0343
X049307Y0343
X048307Y0333
X049585Y033114
X048307Y0323
X050307Y0313
X049307Y0313
X048307Y0313
X048307Y0303
X049585Y030114
X048307Y0293
X049307Y0283
X050307Y0283
X048307Y0283
X048307Y0273
X049585Y027114
X048307Y0263
X049307Y0253
X050307Y0253
X049585Y024114
X049307Y0223
X050307Y0223
X049585Y021114
X048307Y0193
X050307Y0193
X049307Y0193
X049585Y018114
X048307Y0173
X0498Y0156
X049585Y015114
X049585Y012114
X052307Y0143
X051307Y0143
X051307Y0163
X0524Y0166
X052307Y0173
X051307Y0173
X052785Y019285
X051785Y019285
X0528Y0212
X0518Y0212
X0518Y0232
X0528Y0232
X051785Y025285
X0528Y0253
X0518Y0263
X0528Y0263
X0528Y0282
X0518Y0282
X0518Y0293
X0528Y0293
X052785Y030485
X052785Y033485
X054785Y033485
X054785Y030485
X0538Y0293
X0548Y0293
X0548Y0282
X0538Y0282
X0538Y0263
X0548Y0263
X0548Y0253
X0538Y0253
X0548Y0232
X0538Y0232
X0538Y0212
X0548Y0212
X053785Y019285
X054785Y019285
X054307Y0173
X055307Y0173
X053307Y0173
X054307Y0163
X055307Y0163
X0545Y0156
X053307Y0143
X054307Y0143
X055585Y012114
X057307Y0143
X055585Y015114
X057307Y0163
X056307Y0163
X056307Y0173
X057307Y0173
X057785Y019285
X055785Y019285
X056785Y019285
X0578Y0212
X0558Y0212
X0568Y0212
X0558Y0232
X0578Y0232
X0568Y0232
X0578Y0253
X0568Y0253
X0558Y0253
X0578Y0263
X0558Y0263
X0568Y0263
X0578Y0282
X0558Y0282
X0568Y0282
X0568Y0293
X0578Y0293
X0558Y0293
X056785Y030485
X056785Y033485
X0558Y0346
X056307Y0353
X057307Y0353
X057307Y0363
X0558Y037
X056307Y0373
X056307Y0383
X057307Y0383
X057307Y0393
X056307Y0393
X060307Y0383
X059307Y0383
X060307Y0373
X059307Y0373
X058307Y0373
X060307Y0363
X058585Y036114
X060307Y0353
X058785Y033485
X058785Y030485
X0598Y0293
X0588Y0293
X0588Y0282
X0598Y0282
X0598Y0263
X0588Y0263
X0598Y0253
X0588Y0253
X0598Y0232
X0588Y0232
X0598Y0212
X0588Y0212
X059785Y019285
X058785Y019285
X059307Y0173
X058307Y0173
X060307Y0173
X059307Y0163
X058307Y0163
X060307Y0163
X060307Y0153
X058585Y015114
X061307Y0133
X061585Y015114
X061307Y0163
X062307Y0163
X061307Y0173
X062307Y0173
X060785Y019285
X062785Y019285
X060785Y021185
X062785Y021185
X062785Y023185
X0608Y0232
X062785Y025285
X060785Y025285
X0608Y0263
X0628Y0272
X0608Y0282
X0608Y0293
X0628Y0293
X061785Y030485
X061785Y033485
X061585Y036114
X062307Y0373
X061307Y0373
X061307Y0383
X062307Y0383
X062307Y0393
X063307Y0393
X064585Y039114
X063307Y0383
X064307Y0373
X063307Y0373
X065307Y0373
X063307Y0363
X064585Y036114
X063307Y0353
X063307Y0173
X064307Y0173
X065307Y0173
X064307Y0163
X063307Y0163
X065307Y0163
X063307Y0153
X064585Y015114
X063307Y0143
X065307Y0133
X064307Y0133
X063307Y0133
X063307Y0123
X064585Y012114
X066307Y0123
X066307Y0133
X066307Y0143
X066307Y0153
X066307Y0163
X066307Y0173
X065785Y019285
X0658Y0212
X065785Y023185
X065785Y025285
X066307Y0353
X066307Y0363
X066307Y0373
X066307Y0383
T2C.0315F197S55
X0112Y013606
X0112Y014394
X0112Y017506
X0112Y018294
X0112Y021125
X0112Y021913
X0112Y0227
X0112Y023487
X0112Y024275
X0112Y027106
X0112Y027894
X0112Y030744
X0112Y031531
X0112Y032319
X0112Y033106
X0112Y033894
X0112Y034681
X0112Y035469
X0112Y036256
X013619Y0112
X014406Y0112
X015194Y0112
X015981Y0112
X018419Y0112
X019206Y0112
X019994Y0112
X020781Y0112
X023219Y0112
X024006Y0112
X024794Y0112
X025581Y0112
X0213Y038006
X0243Y038006
X0213Y038794
X0243Y038794
X0273Y038794
X0303Y038794
X0303Y038006
X0273Y038006
X038431Y0112
X039219Y0112
X040006Y0112
X0333Y038006
X0363Y038006
X0393Y038006
X0333Y038794
X0393Y038794
X0363Y038794
X0423Y038794
X0423Y038006
X042369Y0112
X040794Y0112
X041581Y0112
X044831Y0112
X045619Y0112
X046406Y0112
X047194Y0112
X047981Y0112
X048769Y0112
X050244Y0393
X051819Y0393
X051031Y0393
X052606Y0393
X054969Y0393
X054181Y0393
X053394Y0393
X051231Y0112
X052019Y0112
X052806Y0112
X053594Y0112
X054381Y0112
X055169Y0112
X057644Y0112
X060006Y0112
X058431Y0112
X059219Y0112
X058325Y0393
X055756Y0393
X0599Y0393
X059113Y0393
X061475Y0393
X060687Y0393
X061581Y0112
X062369Y0112
X060794Y0112
X063156Y0112
T3C.035F197S55
X015Y01425
X014Y01425
X015Y01525
X014Y01525
X015Y01625
X014Y01625
X015Y01725
X014Y01725
X015Y01825
X014Y01825
X015Y01925
X014Y01925
X015Y02025
X014Y02025
X015Y02125
X014Y02125
X015Y02225
X014Y02225
X015Y02325
X014Y02325
X015Y02625
X014Y02625
X015Y02725
X014Y02725
X015Y02825
X014Y02825
X015Y02925
X014Y02925
X015Y03025
X014Y03025
X015Y03125
X014Y03125
X015Y03225
X014Y03225
X015Y03325
X014Y03325
X015Y03425
X014Y03425
X015Y03525
X014Y03525
X016Y03525
X023Y03525
X022Y03525
X021Y03525
X023Y03425
X022Y03425
X021Y03425
X016Y03025
X016Y02325
X016Y01825
X021Y01625
X022Y01525
X021Y01525
X023Y01525
X023Y01425
X021Y01425
X022Y01425
X025Y01425
X024Y01425
X028Y01425
X027Y01425
X026Y01425
X028Y01525
X025Y01525
X027Y01525
X026Y01525
X024Y01525
X026Y01625
X025Y03325
X024Y03425
X025Y03425
X027Y03425
X026Y03425
X028Y03425
X024Y03525
X026Y03525
X028Y03525
X027Y03525
X025Y03525
X029Y03525
X03Y03525
X03Y03425
X029Y03425
X03Y03325
X03Y01875
X03Y01775
X03Y01525
X029Y01525
X03Y01425
X029Y01425
T4C.03543F197S55
X028063Y010906
X028063Y011694
X030425Y011694
X029638Y011694
X02885Y011694
X032787Y011694
X032Y011694
X031213Y011694
X029638Y010906
X032787Y010906
X030425Y010906
X032Y010906
X02885Y010906
X031213Y010906
X03515Y010906
X034362Y010906
X033575Y010906
X035937Y010906
X033575Y011694
X034362Y011694
X035937Y011694
X03515Y011694
T5C.03937F197S55
X061624Y0327
X064576Y0327
T6C.04F139S55
X0332Y01755
X0342Y01755
X0332Y01855
X0342Y01855
X0332Y01955
X0342Y01955
X0342Y02055
X0332Y02055
X0342Y02155
X0332Y02155
X0332Y02255
X0342Y02255
X0332Y02355
X0342Y02355
X0332Y02455
X0342Y02455
X0332Y02555
X0342Y02555
X0332Y02655
X0342Y02655
X0332Y02755
X0342Y02755
X0332Y02855
X0342Y02855
X0332Y02955
X0342Y02955
X0332Y03055
X0342Y03055
X0342Y03155
X0332Y03155
X055Y02975
X054Y02975
X054Y02875
X055Y02875
X054Y02775
X055Y02775
X054Y02675
X055Y02675
X054Y02575
X055Y02575
X054Y02475
X055Y02475
X054Y02375
X055Y02375
X054Y02275
X055Y02275
X054Y02175
X055Y02175
X054Y02075
X055Y02075
X054Y01975
X055Y01975
X054Y01875
X055Y01875
X058Y01875
X058Y01975
X058Y02075
X058Y02175
X058Y02275
X058Y02375
X058Y02475
X058Y02575
X058Y02675
X058Y02775
X058Y02875
X058Y02975
X059Y02975
X059Y02875
X059Y02775
X059Y02675
X059Y02575
X059Y02475
X059Y02375
X059Y02275
X059Y02175
X059Y02075
X059Y01975
X059Y01875
T7C.06496F089S55
X0643Y0193
X0643Y0213
X0643Y0233
X0643Y0253
X0643Y0273
T8C.125F035S794
X011Y011
X019Y01475
X019Y03475
X011Y0395
X0465Y03475
X0465Y01475
X066Y011
X066Y0395
M30
