%
T1C.015F095S3
X012585Y012114
X010585Y012114
X010585Y014114
X010585Y016114
X010585Y018114
X010585Y020114
X010585Y022114
X010585Y024114
X010585Y026114
X010585Y028114
X010585Y030114
X0128Y0315
X010585Y032114
X0128Y0331
X010585Y034114
X0128Y0358
X010585Y036114
X0112Y037
X0116Y037
X012Y0371
X0124Y0372
X0128Y0373
X010585Y038114
X016585Y038114
X0155Y0371
X0145Y0371
X0135Y0371
X0131Y0306
X0132Y0302
X0176Y0302
X0175Y0295
X017Y0285
X0174Y0285
X0176Y0282
X0168Y0266
X0156Y0249
X016Y0246
X014585Y024114
X017Y0227
X0176Y0218
X0165Y0209
X0176Y0203
X0176Y0197
X0173Y0189
X0176Y0181
X0168Y0172
X0158Y0171
X0177Y017
X0158Y0159
X0173Y0151
X0178Y014
X0171Y0133
X0171Y0126
X0166Y0125
X0166Y0112
X019Y0134
X0201Y0152
X018585Y016114
X0192Y0162
X0185Y0188
X0184Y0203
X0186Y021
X0195Y0218
X0185Y0219
X0189Y023
X0189Y0249
X0185Y0263
X0182Y0266
X0182Y0274
X0205Y0282
X0182Y0288
X0188Y029
X0205Y033
X018585Y038114
X020585Y038114
X0209Y0333
X023Y0332
X0224Y0332
X0211Y033
X0227Y0315
X020585Y030114
X0223Y03
X0209Y0282
X022585Y028114
X0228Y0276
X0206Y0264
X0206Y0253
X0223Y0243
X020585Y024114
X0223Y0231
X0219Y0225
X0211Y0218
X0218Y0208
X0218Y0198
X0211Y0194
X0218Y0188
X0218Y0181
X0225Y0174
X0208Y0126
X024585Y018114
X0247Y0185
X0241Y0191
X0233Y0203
X0243Y0212
X024585Y022114
X024585Y024114
X024585Y026114
X0234Y0279
X024585Y030114
X0246Y0308
X0231Y0308
X0246Y0313
X0246Y0317
X025Y0321
X0254Y0321
X026585Y038114
X0268Y036
X0258Y0321
X0262Y0314
X0273Y0304
X0265Y0286
X026585Y026114
X0265Y0245
X0268Y024
X0274Y0235
X0271Y0231
X0262Y0225
X0263Y0192
X028Y0185
X0279Y0181
X0267Y0122
X026Y0116
X0305Y0168
X0302Y0171
X03Y0193
X0303Y0196
X028585Y020114
X0291Y0213
X0297Y0213
X0288Y0217
X0297Y0217
X0285Y0221
X0297Y0221
X0297Y0225
X0297Y0231
X0297Y0235
X0297Y024
X0297Y0245
X0293Y0258
X02945Y0284
X0284Y0294
X034585Y038114
X0354Y0346
X032585Y034114
X032585Y032114
X0355Y0311
X030585Y030114
X0314Y03
X031Y0285
X0314Y0274
X0349Y026
X0306Y0198
X0333Y0169
X0316Y0167
X032Y0163
X0349Y016
X0332Y0157
X0324Y0157
X0368Y0105
X036585Y012114
X0359Y0122
X0376Y0134
X038Y0134
X037Y0136
X0368Y0184
X0367Y0201
X0367Y0212
X0367Y0229
X0367Y0248
X0374Y0256
X0369Y0261
X0369Y0276
X038Y028
X0376Y0286
X0371Y0296
X0356Y03
X0363Y0302
X036Y0311
X0368Y0356
X043Y037
X0427Y0367
X0423Y0363
X042Y036
X0418Y0354
X0418Y035
X0418Y0346
X0418Y0342
X0418Y0338
X0426Y0334
X0422Y0334
X0418Y0334
X043Y0334
X0394Y0328
X0398Y0325
X038585Y032114
X040585Y032114
X040585Y030114
X0383Y0293
X043Y0271
X038585Y026114
X0406Y0261
X0423Y0251
X0423Y0229
X0426Y0223
X038585Y022114
X0406Y0207
X038585Y020114
X042585Y016114
X0417Y0156
X042585Y014114
X0392Y0139
X0389Y0136
X0386Y0133
X038585Y012114
X042585Y012114
X044585Y012114
X044585Y014114
X0452Y0166
X0446Y0186
X0442Y0201
X0438Y0223
X044585Y024114
X0434Y0245
X044585Y026114
X044585Y028114
X044585Y030114
X044585Y032114
X0434Y0334
X0442Y0334
X0438Y0334
X044585Y034114
X0433Y0373
X044585Y038114
X046585Y038114
X048585Y038114
X048585Y034114
X046585Y032114
X048585Y032114
X046585Y030114
X048585Y030114
X048585Y028114
X046585Y028114
X046585Y026114
X0473Y0258
X046585Y024114
X046585Y022114
X0469Y0198
X0473Y0166
X0498Y0156
X050585Y012114
X050585Y014114
X0524Y0166
X050585Y018114
X052785Y019285
X051785Y019285
X050585Y020114
X0518Y0212
X0528Y0212
X050585Y022114
X0528Y0232
X0518Y0232
X050585Y024114
X051785Y025285
X0528Y0253
X050585Y026114
X0528Y0263
X0518Y0263
X050585Y028114
X0518Y0282
X0528Y0282
X0518Y0293
X0528Y0293
X050585Y030114
X052785Y030485
X050585Y032114
X052785Y033485
X050585Y034114
X054785Y033485
X054785Y030485
X0538Y0293
X0548Y0293
X0538Y0282
X0548Y0282
X0538Y0263
X0548Y0263
X0548Y0253
X0538Y0253
X0548Y0232
X0538Y0232
X0538Y0212
X0548Y0212
X054785Y019285
X053785Y019285
X054585Y016114
X0545Y0156
X054585Y014114
X056585Y012114
X056585Y014114
X056585Y016114
X055785Y019285
X056785Y019285
X057785Y019285
X0578Y0212
X0558Y0212
X0568Y0212
X0578Y0232
X0568Y0232
X0558Y0232
X0568Y0253
X0558Y0253
X0578Y0253
X0558Y0263
X0568Y0263
X0578Y0263
X0578Y0282
X0558Y0282
X0568Y0282
X0558Y0293
X0568Y0293
X0578Y0293
X056785Y030485
X056785Y033485
X0558Y0346
X0558Y037
X056585Y038114
X058585Y036114
X058785Y033485
X058785Y030485
X0598Y0293
X0588Y0293
X0598Y0282
X0588Y0282
X0588Y0263
X0598Y0263
X0588Y0253
X0598Y0253
X0588Y0232
X0598Y0232
X0598Y0212
X0588Y0212
X058785Y019285
X059785Y019285
X058585Y016114
X062585Y016114
X060585Y016114
X062785Y019285
X060785Y019285
X062785Y021185
X060785Y021185
X062785Y023185
X0608Y0232
X062785Y025285
X060785Y025285
X0608Y0263
X0628Y0272
X0608Y0282
X0628Y0293
X0608Y0293
X061785Y030485
X061785Y033485
X060585Y036114
X062585Y036114
X060585Y038114
X062585Y038114
X064585Y038114
X064585Y036114
X065785Y025285
X065785Y023185
X0658Y0212
X065785Y019285
X064585Y016114
X064585Y014114
X064585Y012114
T2C.0315F197S55
X0112Y013606
X0112Y014394
X0112Y017506
X0112Y018294
X0112Y021125
X0112Y021913
X0112Y0227
X0112Y023487
X0112Y024275
X0112Y027106
X0112Y027894
X0112Y030744
X0112Y031531
X0112Y032319
X0112Y033106
X0112Y033894
X0112Y034681
X0112Y035469
X0112Y036256
X013619Y0112
X014406Y0112
X015194Y0112
X015981Y0112
X018419Y0112
X019206Y0112
X019994Y0112
X020781Y0112
X023219Y0112
X024006Y0112
X024794Y0112
X025581Y0112
X0213Y038006
X0243Y038006
X0213Y038794
X0243Y038794
X0273Y038794
X0303Y038794
X0303Y038006
X0273Y038006
X038431Y0112
X039219Y0112
X040006Y0112
X0333Y038006
X0363Y038006
X0393Y038006
X0333Y038794
X0393Y038794
X0363Y038794
X0423Y038794
X0423Y038006
X042369Y0112
X040794Y0112
X041581Y0112
X044831Y0112
X045619Y0112
X046406Y0112
X047194Y0112
X047981Y0112
X048769Y0112
X050244Y0393
X051819Y0393
X051031Y0393
X052606Y0393
X054969Y0393
X054181Y0393
X053394Y0393
X051231Y0112
X052019Y0112
X052806Y0112
X053594Y0112
X054381Y0112
X055169Y0112
X057644Y0112
X060006Y0112
X058431Y0112
X059219Y0112
X058325Y0393
X055756Y0393
X0599Y0393
X059113Y0393
X061475Y0393
X060687Y0393
X061581Y0112
X062369Y0112
X060794Y0112
X063156Y0112
T3C.035F197S55
X015Y01425
X014Y01425
X015Y01525
X014Y01525
X015Y01625
X014Y01625
X015Y01725
X014Y01725
X015Y01825
X014Y01825
X015Y01925
X014Y01925
X015Y02025
X014Y02025
X015Y02125
X014Y02125
X015Y02225
X014Y02225
X015Y02325
X014Y02325
X015Y02625
X014Y02625
X015Y02725
X014Y02725
X015Y02825
X014Y02825
X015Y02925
X014Y02925
X015Y03025
X014Y03025
X015Y03125
X014Y03125
X015Y03225
X014Y03225
X015Y03325
X014Y03325
X015Y03425
X014Y03425
X015Y03525
X014Y03525
X016Y03525
X023Y03525
X022Y03525
X021Y03525
X023Y03425
X022Y03425
X021Y03425
X016Y03025
X016Y02325
X016Y01825
X021Y01625
X022Y01525
X021Y01525
X023Y01525
X023Y01425
X021Y01425
X022Y01425
X025Y01425
X024Y01425
X028Y01425
X027Y01425
X026Y01425
X028Y01525
X025Y01525
X027Y01525
X026Y01525
X024Y01525
X026Y01625
X025Y03325
X024Y03425
X025Y03425
X027Y03425
X026Y03425
X028Y03425
X024Y03525
X026Y03525
X028Y03525
X027Y03525
X025Y03525
X029Y03525
X03Y03525
X03Y03425
X029Y03425
X03Y03325
X03Y01875
X03Y01775
X03Y01525
X029Y01525
X03Y01425
X029Y01425
T4C.03543F197S55
X028063Y010906
X028063Y011694
X030425Y011694
X029638Y011694
X02885Y011694
X032787Y011694
X032Y011694
X031213Y011694
X029638Y010906
X032787Y010906
X030425Y010906
X032Y010906
X02885Y010906
X031213Y010906
X03515Y010906
X034362Y010906
X033575Y010906
X035937Y010906
X033575Y011694
X034362Y011694
X035937Y011694
X03515Y011694
T5C.03937F197S55
X061624Y0327
X064576Y0327
T6C.04F139S55
X0332Y01755
X0342Y01755
X0332Y01855
X0342Y01855
X0332Y01955
X0342Y01955
X0342Y02055
X0332Y02055
X0342Y02155
X0332Y02155
X0332Y02255
X0342Y02255
X0332Y02355
X0342Y02355
X0332Y02455
X0342Y02455
X0332Y02555
X0342Y02555
X0332Y02655
X0342Y02655
X0332Y02755
X0342Y02755
X0332Y02855
X0342Y02855
X0332Y02955
X0342Y02955
X0332Y03055
X0342Y03055
X0342Y03155
X0332Y03155
X055Y02975
X054Y02975
X054Y02875
X055Y02875
X054Y02775
X055Y02775
X054Y02675
X055Y02675
X054Y02575
X055Y02575
X054Y02475
X055Y02475
X054Y02375
X055Y02375
X054Y02275
X055Y02275
X054Y02175
X055Y02175
X054Y02075
X055Y02075
X054Y01975
X055Y01975
X054Y01875
X055Y01875
X058Y01875
X058Y01975
X058Y02075
X058Y02175
X058Y02275
X058Y02375
X058Y02475
X058Y02575
X058Y02675
X058Y02775
X058Y02875
X058Y02975
X059Y02975
X059Y02875
X059Y02775
X059Y02675
X059Y02575
X059Y02475
X059Y02375
X059Y02275
X059Y02175
X059Y02075
X059Y01975
X059Y01875
T7C.06496F089S55
X0643Y0193
X0643Y0213
X0643Y0233
X0643Y0253
X0643Y0273
T8C.125F035S794
X011Y011
X019Y01475
X019Y03475
X011Y0395
X0465Y03475
X0465Y01475
X066Y011
X066Y0395
M30
