*
*
G04 PADS 9.3.1 Build Number: 456998 generated Gerber (RS-274-X) file*
G04 PC Version=2.1*
*
%IN "menial_board_21.pcb"*%
*
%MOIN*%
*
%FSLAX35Y35*%
*
*
*
*
G04 PC Standard Apertures*
*
*
G04 Thermal Relief Aperture macro.*
%AMTER*
1,1,$1,0,0*
1,0,$1-$2,0,0*
21,0,$3,$4,0,0,45*
21,0,$3,$4,0,0,135*
%
*
*
G04 Annular Aperture macro.*
%AMANN*
1,1,$1,0,0*
1,0,$2,0,0*
%
*
*
G04 Odd Aperture macro.*
%AMODD*
1,1,$1,0,0*
1,0,$1-0.005,0,0*
%
*
*
G04 PC Custom Aperture Macros*
*
*
*
*
*
*
G04 PC Aperture Table*
*
%ADD010C,0.001*%
%ADD019C,0.01*%
%ADD022C,0.005*%
%ADD033C,0.00787*%
*
*
*
*
G04 PC Circuitry*
G04 Layer Name menial_board_21.pcb - circuitry*
%LPD*%
*
*
G04 PC Custom Flashes*
G04 Layer Name menial_board_21.pcb - flashes*
%LPD*%
*
*
G04 PC Circuitry*
G04 Layer Name menial_board_21.pcb - circuitry*
%LPD*%
*
G54D10*
G54D19*
G01X416368Y156630D02*
G75*
G03X416368I-557J0D01*
G01X497368D02*
G03X497368I-557J0D01*
G01X544368D02*
G03X544368I-557J0D01*
G01X615437Y192818D02*
X622000Y191000D01*
X615437Y192818D02*
X622000Y194636D01*
X619812Y191682D02*
Y193955D01*
X615437Y211000D02*
X622000D01*
X615437D02*
Y213045D01*
X615437D02*
X615750Y213727D01*
X616062Y213955*
X616062D02*
X616687Y214182D01*
X616687D02*
X617312D01*
X617312D02*
X617937Y213955D01*
X617937D02*
X618250Y213727D01*
X618562Y213045*
Y211000D02*
Y213045D01*
X618562D02*
X618875Y213727D01*
X619187Y213955*
X619187D02*
X619812Y214182D01*
X619812D02*
X620750D01*
X621375Y213955*
X621687Y213727*
X621687D02*
X622000Y213045D01*
Y211000*
X617000Y234409D02*
X616375Y234182D01*
X615750Y233727*
X615437Y233273*
X615437D02*
Y232364D01*
X615437D02*
X615750Y231909D01*
X616375Y231455*
X617000Y231227*
X617937Y231000*
X617937D02*
X619500D01*
X620437Y231227*
X620437D02*
X621062Y231455D01*
X621062D02*
X621687Y231909D01*
X621687D02*
X622000Y232364D01*
Y233273*
X621687Y233727*
X621687D02*
X621062Y234182D01*
X621062D02*
X620437Y234409D01*
X618045Y255625D02*
Y250000D01*
X616000Y252813D02*
X620091D01*
X618187Y271000D02*
Y275091D01*
G54D22*
X667185Y324815D02*
Y329244D01*
X668795Y327030D02*
X665574D01*
X595567D02*
X592346D01*
X419281Y148000D02*
X416938D01*
X416938D02*
X416469Y147886D01*
X416156Y147659*
X416000Y147318*
Y147091*
X416156Y146750*
X416469Y146523*
X416938Y146409*
X416938D02*
X419281D01*
Y145159D02*
Y143909D01*
X418031Y144591*
Y144250*
X417875Y144023*
X417719Y143909*
X417250Y143795*
X416938*
X416938D02*
X416469Y143909D01*
X416156Y144136*
X416000Y144477*
Y144818*
X416156Y145159*
X416313Y145273*
X416313D02*
X416625Y145386D01*
X396841Y129781D02*
X396614Y130063D01*
X396614D02*
X396273Y130203D01*
X395818*
X395477Y130063*
X395477D02*
X395250Y129781D01*
Y129500*
X395364Y129219*
X395477Y129078*
X395705Y128938*
X395705D02*
X396386Y128656D01*
X396614Y128516*
X396727Y128375*
X396841Y128094*
Y127672*
X396614Y127391*
X396273Y127250*
X395818*
X395477Y127391*
X395250Y127672*
X399455Y129781D02*
X399227Y130063D01*
X399227D02*
X398886Y130203D01*
X398432*
X398091Y130063*
X398091D02*
X397864Y129781D01*
Y129500*
X397977Y129219*
X398091Y129078*
X398318Y128938*
X398318D02*
X399000Y128656D01*
X399227Y128516*
X399341Y128375*
X399455Y128094*
Y127672*
X399227Y127391*
X398886Y127250*
X398432*
X398091Y127391*
X397864Y127672*
X400477Y130203D02*
Y127250D01*
X401500Y126687D02*
X403886D01*
X404568Y130203D02*
Y127250D01*
Y130203D02*
X405591D01*
X405932Y130063*
X405932D02*
X406045Y129922D01*
X406159Y129641*
Y129359*
X406045Y129078*
X405932Y128938*
X405932D02*
X405591Y128797D01*
X404568D02*
X405591D01*
X405932Y128656*
X406045Y128516*
X406159Y128234*
Y127813*
X406159D02*
X406045Y127531D01*
X405932Y127391*
X405591Y127250*
X404568*
X407182Y130203D02*
Y127250D01*
X409795Y129781D02*
X409568Y130063D01*
X409568D02*
X409227Y130203D01*
X408773*
X408432Y130063*
X408432D02*
X408205Y129781D01*
Y129500*
X408318Y129219*
X408432Y129078*
X408659Y128938*
X408659D02*
X409341Y128656D01*
X409568Y128516*
X409682Y128375*
X409795Y128094*
Y127672*
X409568Y127391*
X409227Y127250*
X408773*
X408432Y127391*
X408205Y127672*
X412409Y129781D02*
X412182Y130063D01*
X412182D02*
X411841Y130203D01*
X411386*
X411045Y130063*
X411045D02*
X410818Y129781D01*
Y129500*
X410932Y129219*
X411045Y129078*
X411273Y128938*
X411273D02*
X411955Y128656D01*
X412182Y128516*
X412295Y128375*
X412409Y128094*
Y127672*
X412182Y127391*
X411841Y127250*
X411386*
X411045Y127391*
X410818Y127672*
X413432Y129641D02*
X413659Y129781D01*
X414000Y130203*
Y127250*
X500281Y148000D02*
X497938D01*
X497938D02*
X497469Y147886D01*
X497156Y147659*
X497000Y147318*
Y147091*
X497156Y146750*
X497469Y146523*
X497938Y146409*
X497938D02*
X500281D01*
Y144250D02*
X498094Y145386D01*
Y143682*
X500281Y144250D02*
X497000D01*
X461841Y129781D02*
X461614Y130063D01*
X461614D02*
X461273Y130203D01*
X460818*
X460477Y130063*
X460477D02*
X460250Y129781D01*
Y129500*
X460364Y129219*
X460477Y129078*
X460705Y128938*
X460705D02*
X461386Y128656D01*
X461614Y128516*
X461727Y128375*
X461841Y128094*
Y127672*
X461614Y127391*
X461273Y127250*
X460818*
X460477Y127391*
X460250Y127672*
X464455Y129781D02*
X464227Y130063D01*
X464227D02*
X463886Y130203D01*
X463432*
X463091Y130063*
X463091D02*
X462864Y129781D01*
Y129500*
X462977Y129219*
X463091Y129078*
X463318Y128938*
X463318D02*
X464000Y128656D01*
X464227Y128516*
X464341Y128375*
X464455Y128094*
Y127672*
X464227Y127391*
X463886Y127250*
X463432*
X463091Y127391*
X462864Y127672*
X465477Y130203D02*
Y127250D01*
X466500Y126687D02*
X468886D01*
X469568Y130203D02*
Y127250D01*
Y130203D02*
X470591D01*
X470932Y130063*
X470932D02*
X471045Y129922D01*
X471159Y129641*
Y129359*
X471045Y129078*
X470932Y128938*
X470932D02*
X470591Y128797D01*
X469568D02*
X470591D01*
X470932Y128656*
X471045Y128516*
X471159Y128234*
Y127813*
X471159D02*
X471045Y127531D01*
X470932Y127391*
X470591Y127250*
X469568*
X472182Y130203D02*
Y127250D01*
X474795Y129781D02*
X474568Y130063D01*
X474568D02*
X474227Y130203D01*
X473773*
X473432Y130063*
X473432D02*
X473205Y129781D01*
Y129500*
X473318Y129219*
X473432Y129078*
X473659Y128938*
X473659D02*
X474341Y128656D01*
X474568Y128516*
X474682Y128375*
X474795Y128094*
Y127672*
X474568Y127391*
X474227Y127250*
X473773*
X473432Y127391*
X473205Y127672*
X477409Y129781D02*
X477182Y130063D01*
X477182D02*
X476841Y130203D01*
X476386*
X476045Y130063*
X476045D02*
X475818Y129781D01*
Y129500*
X475932Y129219*
X476045Y129078*
X476273Y128938*
X476273D02*
X476955Y128656D01*
X477182Y128516*
X477295Y128375*
X477409Y128094*
Y127672*
X477182Y127391*
X476841Y127250*
X476386*
X476045Y127391*
X475818Y127672*
X478545Y129500D02*
Y129641D01*
X478659Y129922*
X478773Y130063*
X478773D02*
X479000Y130203D01*
X479455*
X479682Y130063*
X479682D02*
X479795Y129922D01*
X479909Y129641*
Y129359*
X479795Y129078*
X479568Y128656*
X478432Y127250*
X480023*
X547281Y148000D02*
X544938D01*
X544938D02*
X544469Y147886D01*
X544156Y147659*
X544000Y147318*
Y147091*
X544156Y146750*
X544469Y146523*
X544938Y146409*
X544938D02*
X547281D01*
Y143909D02*
Y145045D01*
X545875Y145159*
X546031Y145045*
X546188Y144705*
X546188D02*
Y144364D01*
X546188D02*
X546031Y144023D01*
X545719Y143795*
X545250Y143682*
X544938Y143795*
X544938D02*
X544469Y143909D01*
X544156Y144136*
X544000Y144477*
Y144818*
X544156Y145159*
X544313Y145273*
X544313D02*
X544625Y145386D01*
X525841Y129781D02*
X525614Y130063D01*
X525614D02*
X525273Y130203D01*
X524818*
X524477Y130063*
X524477D02*
X524250Y129781D01*
Y129500*
X524364Y129219*
X524477Y129078*
X524705Y128938*
X524705D02*
X525386Y128656D01*
X525614Y128516*
X525727Y128375*
X525841Y128094*
Y127672*
X525614Y127391*
X525273Y127250*
X524818*
X524477Y127391*
X524250Y127672*
X528455Y129781D02*
X528227Y130063D01*
X528227D02*
X527886Y130203D01*
X527432*
X527091Y130063*
X527091D02*
X526864Y129781D01*
Y129500*
X526977Y129219*
X527091Y129078*
X527318Y128938*
X527318D02*
X528000Y128656D01*
X528227Y128516*
X528341Y128375*
X528455Y128094*
Y127672*
X528227Y127391*
X527886Y127250*
X527432*
X527091Y127391*
X526864Y127672*
X529477Y130203D02*
Y127250D01*
X530500Y126687D02*
X532886D01*
X533568Y130203D02*
Y127250D01*
Y130203D02*
X534591D01*
X534932Y130063*
X534932D02*
X535045Y129922D01*
X535159Y129641*
Y129359*
X535045Y129078*
X534932Y128938*
X534932D02*
X534591Y128797D01*
X533568D02*
X534591D01*
X534932Y128656*
X535045Y128516*
X535159Y128234*
Y127813*
X535159D02*
X535045Y127531D01*
X534932Y127391*
X534591Y127250*
X533568*
X536182Y130203D02*
Y127250D01*
X538795Y129781D02*
X538568Y130063D01*
X538568D02*
X538227Y130203D01*
X537773*
X537432Y130063*
X537432D02*
X537205Y129781D01*
Y129500*
X537318Y129219*
X537432Y129078*
X537659Y128938*
X537659D02*
X538341Y128656D01*
X538568Y128516*
X538682Y128375*
X538795Y128094*
Y127672*
X538568Y127391*
X538227Y127250*
X537773*
X537432Y127391*
X537205Y127672*
X541409Y129781D02*
X541182Y130063D01*
X541182D02*
X540841Y130203D01*
X540386*
X540045Y130063*
X540045D02*
X539818Y129781D01*
Y129500*
X539932Y129219*
X540045Y129078*
X540273Y128938*
X540273D02*
X540955Y128656D01*
X541182Y128516*
X541295Y128375*
X541409Y128094*
Y127672*
X541182Y127391*
X540841Y127250*
X540386*
X540045Y127391*
X539818Y127672*
X542659Y130203D02*
X543909D01*
X543227Y129078*
X543568*
X543795Y128938*
X543795D02*
X543909Y128797D01*
X544023Y128375*
Y128094*
X543909Y127672*
X543682Y127391*
X543341Y127250*
X543000*
X542659Y127391*
X542545Y127531*
X542432Y127813*
X544750Y373797D02*
Y376750D01*
X543727Y373797D02*
Y376750D01*
Y373797D02*
X542136Y376750D01*
Y373797D02*
Y376750D01*
X539409Y374500D02*
X539523Y374219D01*
X539750Y373938*
X539750D02*
X539977Y373797D01*
X540432*
X540659Y373938*
X540659D02*
X540886Y374219D01*
X541000Y374500*
X541114Y374922*
Y375625*
X541000Y376047*
X540886Y376328*
X540659Y376609*
X540432Y376750*
X539977*
X539750Y376609*
X539523Y376328*
X539409Y376047*
X538386Y377313D02*
X536000D01*
X535318Y373797D02*
Y376750D01*
Y373797D02*
X533841D01*
X535318Y375203D02*
X534409D01*
X535318Y376750D02*
X533841D01*
X532818Y373797D02*
Y376750D01*
Y373797D02*
X531227Y376750D01*
Y373797D02*
Y376750D01*
X528500Y374500D02*
X528614Y374219D01*
X528841Y373938*
X528841D02*
X529068Y373797D01*
X529523*
X529750Y373938*
X529750D02*
X529977Y374219D01*
X530091Y374500*
X530205Y374922*
Y375625*
X530091Y376047*
X529977Y376328*
X529750Y376609*
X529523Y376750*
X529068*
X528841Y376609*
X528614Y376328*
X528500Y376047*
X526795Y373797D02*
X527023Y373938D01*
X527023D02*
X527250Y374219D01*
X527364Y374500*
X527477Y374922*
Y375625*
X527364Y376047*
X527250Y376328*
X527023Y376609*
X526795Y376750*
X526341*
X526114Y376609*
X525886Y376328*
X525773Y376047*
X525659Y375625*
Y374922*
X525773Y374500*
X525886Y374219*
X526114Y373938*
X526114D02*
X526341Y373797D01*
X526795*
X524636D02*
Y376750D01*
Y373797D02*
X523841D01*
X523500Y373938*
X523500D02*
X523273Y374219D01*
X523159Y374500*
X523045Y374922*
Y375625*
X523159Y376047*
X523273Y376328*
X523500Y376609*
X523841Y376750*
X524636*
X522023Y373797D02*
Y376750D01*
Y373797D02*
X520545D01*
X522023Y375203D02*
X521114D01*
X522023Y376750D02*
X520545D01*
X519523Y373797D02*
Y376750D01*
Y373797D02*
X518500D01*
X518159Y373938*
X518159D02*
X518045Y374078D01*
X517932Y374359*
Y374641*
X518045Y374922*
X518159Y375063*
X518159D02*
X518500Y375203D01*
X519523*
X518727D02*
X517932Y376750D01*
X398000Y331719D02*
Y334062D01*
X398000D02*
X397886Y334531D01*
X397659Y334844*
X397318Y335000*
X397091*
X396750Y334844*
X396523Y334531*
X396409Y334062*
X396409D02*
Y331719D01*
X394023Y332187D02*
X394136Y331875D01*
X394477Y331719*
X394705*
X395045Y331875*
X395273Y332344*
X395386Y333125*
Y333906*
X395273Y334531*
X395045Y334844*
X394705Y335000*
X394591*
X394250Y334844*
X394023Y334531*
X393909Y334062*
X393909D02*
Y333906D01*
X394023Y333437*
X394023D02*
X394250Y333125D01*
X394591Y332969*
X394705*
X395045Y333125*
X395273Y333437*
X395273D02*
X395386Y333906D01*
X516719Y354000D02*
X520000D01*
X516719D02*
Y355023D01*
X516875Y355364*
X517031Y355477*
X517344Y355591*
X517656*
X517969Y355477*
X518125Y355364*
X518281Y355023*
Y354000*
Y354795D02*
X520000Y355591D01*
X517812Y358091D02*
X518281Y357977D01*
X518594Y357750*
X518750Y357409*
Y357295*
X518594Y356955*
X518281Y356727*
X517812Y356614*
X517812D02*
X517656D01*
X517187Y356727*
X517187D02*
X516875Y356955D01*
X516719Y357295*
Y357409*
X516875Y357750*
X517187Y357977*
X517187D02*
X517812Y358091D01*
X517812D02*
X518594D01*
X519375Y357977*
X519844Y357750*
X520000Y357409*
Y357182*
X519844Y356841*
X519531Y356727*
X532719Y353000D02*
X536000D01*
X532719D02*
Y354023D01*
X532875Y354364*
X533031Y354477*
X533344Y354591*
X533656*
X533969Y354477*
X534125Y354364*
X534281Y354023*
Y353000*
Y353795D02*
X536000Y354591D01*
X533344Y355614D02*
X533187Y355841D01*
X533187D02*
X532719Y356182D01*
X536000*
X532719Y357886D02*
X532875Y357545D01*
X533344Y357318*
X534125Y357205*
X534594*
X535375Y357318*
X535844Y357545*
X536000Y357886*
Y358114*
X535844Y358455*
X535375Y358682*
X534594Y358795*
X534125*
X533344Y358682*
X532875Y358455*
X532719Y358114*
Y357886*
X548719Y353000D02*
X552000D01*
X548719D02*
Y354023D01*
X548875Y354364*
X549031Y354477*
X549344Y354591*
X549656*
X549969Y354477*
X550125Y354364*
X550281Y354023*
Y353000*
Y353795D02*
X552000Y354591D01*
X549344Y355614D02*
X549187Y355841D01*
X549187D02*
X548719Y356182D01*
X552000*
X549344Y357205D02*
X549187Y357432D01*
X549187D02*
X548719Y357773D01*
X552000*
X507719Y353000D02*
X511000D01*
X507719D02*
Y354023D01*
X507875Y354364*
X508031Y354477*
X508344Y354591*
X508656*
X508969Y354477*
X509125Y354364*
X509281Y354023*
Y353000*
Y353795D02*
X511000Y354591D01*
X508344Y355614D02*
X508187Y355841D01*
X508187D02*
X507719Y356182D01*
X511000*
X508500Y357318D02*
X508344D01*
X508031Y357432*
X507875Y357545*
X507719Y357773*
Y358227*
X507875Y358455*
X508031Y358568*
X508344Y358682*
X508656*
X508969Y358568*
X509437Y358341*
X509437D02*
X511000Y357205D01*
Y358795*
X524719Y353000D02*
X528000D01*
X524719D02*
Y354023D01*
X524875Y354364*
X525031Y354477*
X525344Y354591*
X525656*
X525969Y354477*
X526125Y354364*
X526281Y354023*
Y353000*
Y353795D02*
X528000Y354591D01*
X525344Y355614D02*
X525187Y355841D01*
X525187D02*
X524719Y356182D01*
X528000*
X524719Y357432D02*
Y358682D01*
X525969Y358000*
Y358341*
X526125Y358568*
X526281Y358682*
X526750Y358795*
X527062*
X527062D02*
X527531Y358682D01*
X527844Y358455*
X528000Y358114*
Y357773*
X527844Y357432*
X527687Y357318*
X527687D02*
X527375Y357205D01*
X540719Y353000D02*
X544000D01*
X540719D02*
Y354023D01*
X540875Y354364*
X541031Y354477*
X541344Y354591*
X541656*
X541969Y354477*
X542125Y354364*
X542281Y354023*
Y353000*
Y353795D02*
X544000Y354591D01*
X541344Y355614D02*
X541187Y355841D01*
X541187D02*
X540719Y356182D01*
X544000*
X540719Y358341D02*
X542906Y357205D01*
Y358909*
X540719Y358341D02*
X544000D01*
X300705Y296500D02*
X300591Y296813D01*
X300591D02*
X300364Y297125D01*
X300136Y297281*
X299682*
X299455Y297125*
X299227Y296813*
X299227D02*
X299114Y296500D01*
X299000Y296031*
Y295250*
X299114Y294781*
X299227Y294469*
X299455Y294156*
X299682Y294000*
X300136*
X300364Y294156*
X300591Y294469*
X300705Y294781*
X301727Y296656D02*
X301955Y296813D01*
X301955D02*
X302295Y297281D01*
Y294000*
X371705Y297500D02*
X371591Y297813D01*
X371591D02*
X371364Y298125D01*
X371136Y298281*
X370682*
X370455Y298125*
X370227Y297813*
X370227D02*
X370114Y297500D01*
X370000Y297031*
Y296250*
X370114Y295781*
X370227Y295469*
X370455Y295156*
X370682Y295000*
X371136*
X371364Y295156*
X371591Y295469*
X371705Y295781*
X372841Y297500D02*
Y297656D01*
X372955Y297969*
X373068Y298125*
X373295Y298281*
X373750*
X373977Y298125*
X374091Y297969*
X374205Y297656*
Y297344*
X374091Y297031*
X373864Y296563*
X373864D02*
X372727Y295000D01*
X374318*
X300705Y316500D02*
X300591Y316813D01*
X300591D02*
X300364Y317125D01*
X300136Y317281*
X299682*
X299455Y317125*
X299227Y316813*
X299227D02*
X299114Y316500D01*
X299000Y316031*
Y315250*
X299114Y314781*
X299227Y314469*
X299455Y314156*
X299682Y314000*
X300136*
X300364Y314156*
X300591Y314469*
X300705Y314781*
X301955Y317281D02*
X303205D01*
X302523Y316031*
X302864*
X303091Y315875*
X303205Y315719*
X303318Y315250*
Y314938*
X303318D02*
X303205Y314469D01*
X302977Y314156*
X302636Y314000*
X302295*
X301955Y314156*
X301841Y314313*
X301841D02*
X301727Y314625D01*
X371705Y317500D02*
X371591Y317813D01*
X371591D02*
X371364Y318125D01*
X371136Y318281*
X370682*
X370455Y318125*
X370227Y317813*
X370227D02*
X370114Y317500D01*
X370000Y317031*
Y316250*
X370114Y315781*
X370227Y315469*
X370455Y315156*
X370682Y315000*
X371136*
X371364Y315156*
X371591Y315469*
X371705Y315781*
X373864Y318281D02*
X372727Y316094D01*
X374432*
X373864Y318281D02*
Y315000D01*
X300705Y306500D02*
X300591Y306813D01*
X300591D02*
X300364Y307125D01*
X300136Y307281*
X299682*
X299455Y307125*
X299227Y306813*
X299227D02*
X299114Y306500D01*
X299000Y306031*
Y305250*
X299114Y304781*
X299227Y304469*
X299455Y304156*
X299682Y304000*
X300136*
X300364Y304156*
X300591Y304469*
X300705Y304781*
X303205Y307281D02*
X302068D01*
X301955Y305875*
X302068Y306031*
X302409Y306188*
X302409D02*
X302750D01*
X302750D02*
X303091Y306031D01*
X303318Y305719*
X303432Y305250*
X303318Y304938*
X303318D02*
X303205Y304469D01*
X302977Y304156*
X302636Y304000*
X302295*
X301955Y304156*
X301841Y304313*
X301841D02*
X301727Y304625D01*
X371705Y307500D02*
X371591Y307813D01*
X371591D02*
X371364Y308125D01*
X371136Y308281*
X370682*
X370455Y308125*
X370227Y307813*
X370227D02*
X370114Y307500D01*
X370000Y307031*
Y306250*
X370114Y305781*
X370227Y305469*
X370455Y305156*
X370682Y305000*
X371136*
X371364Y305156*
X371591Y305469*
X371705Y305781*
X374091Y307813D02*
X373977Y308125D01*
X373636Y308281*
X373409*
X373068Y308125*
X372841Y307656*
X372727Y306875*
Y306094*
X372841Y305469*
X373068Y305156*
X373409Y305000*
X373523*
X373864Y305156*
X374091Y305469*
X374205Y305938*
X374205D02*
Y306094D01*
X374091Y306563*
X374091D02*
X373864Y306875D01*
X373523Y307031*
X373409*
X373068Y306875*
X372841Y306563*
X372841D02*
X372727Y306094D01*
X394705Y166500D02*
X394591Y166813D01*
X394591D02*
X394364Y167125D01*
X394136Y167281*
X393682*
X393455Y167125*
X393227Y166813*
X393227D02*
X393114Y166500D01*
X393000Y166031*
Y165250*
X393114Y164781*
X393227Y164469*
X393455Y164156*
X393682Y164000*
X394136*
X394364Y164156*
X394591Y164469*
X394705Y164781*
X397318Y167281D02*
X396182Y164000D01*
X395727Y167281D02*
X397318D01*
X475705Y166500D02*
X475591Y166813D01*
X475591D02*
X475364Y167125D01*
X475136Y167281*
X474682*
X474455Y167125*
X474227Y166813*
X474227D02*
X474114Y166500D01*
X474000Y166031*
Y165250*
X474114Y164781*
X474227Y164469*
X474455Y164156*
X474682Y164000*
X475136*
X475364Y164156*
X475591Y164469*
X475705Y164781*
X477295Y167281D02*
X476955Y167125D01*
X476841Y166813*
X476841D02*
Y166500D01*
X476955Y166188*
X476955D02*
X477182Y166031D01*
X477636Y165875*
X477977Y165719*
X478205Y165406*
X478318Y165094*
Y164625*
X478205Y164313*
X478205D02*
X478091Y164156D01*
X477750Y164000*
X477295*
X476955Y164156*
X476841Y164313*
X476841D02*
X476727Y164625D01*
Y165094*
X476841Y165406*
X477068Y165719*
X477409Y165875*
X477864Y166031*
X478091Y166188*
X478091D02*
X478205Y166500D01*
Y166813*
X478205D02*
X478091Y167125D01*
X477750Y167281*
X477295*
X540705Y166500D02*
X540591Y166813D01*
X540364Y167125*
X540136Y167281*
X539682*
X539455Y167125*
X539227Y166813*
X539114Y166500*
X539000Y166031*
Y165250*
X539114Y164781*
X539227Y164469*
X539455Y164156*
X539682Y164000*
X540136*
X540364Y164156*
X540591Y164469*
X540705Y164781*
X543205Y166188D02*
X543091Y165719D01*
X542864Y165406*
X542523Y165250*
X542409*
X542068Y165406*
X541841Y165719*
X541727Y166188*
Y166344*
X541841Y166813*
X542068Y167125*
X542409Y167281*
X542523*
X542864Y167125*
X543091Y166813*
X543205Y166188*
Y165406*
X543091Y164625*
X542864Y164156*
X542523Y164000*
X542295*
X541955Y164156*
X541841Y164469*
X374500Y344295D02*
X374813Y344409D01*
X375125Y344636*
X375281Y344864*
Y345318*
X375125Y345545*
X374813Y345773*
X374500Y345886*
X374031Y346000*
X373250*
X372781Y345886*
X372469Y345773*
X372156Y345545*
X372000Y345318*
Y344864*
X372156Y344636*
X372469Y344409*
X372781Y344295*
X374656Y343273D02*
X374813Y343045D01*
X375281Y342705*
X372000*
X375281Y341000D02*
X375125Y341341D01*
X374656Y341568*
X373875Y341682*
X373406*
X372625Y341568*
X372156Y341341*
X372000Y341000*
Y340773*
X372156Y340432*
X372625Y340205*
X373406Y340091*
X373875*
X374656Y340205*
X375125Y340432*
X375281Y340773*
Y341000*
X207000Y287281D02*
Y284938D01*
X207000D02*
X207114Y284469D01*
X207341Y284156*
X207682Y284000*
X207909*
X208250Y284156*
X208477Y284469*
X208591Y284938*
X208591D02*
Y287281D01*
X211205D02*
X210068Y284000D01*
X209614Y287281D02*
X211205D01*
X218705Y253500D02*
X218591Y253813D01*
X218591D02*
X218364Y254125D01*
X218136Y254281*
X217682*
X217455Y254125*
X217227Y253813*
X217227D02*
X217114Y253500D01*
X217000Y253031*
Y252250*
X217114Y251781*
X217227Y251469*
X217455Y251156*
X217682Y251000*
X218136*
X218364Y251156*
X218591Y251469*
X218705Y251781*
X219727Y253656D02*
X219955Y253813D01*
X219955D02*
X220295Y254281D01*
Y251000*
X221318Y253656D02*
X221545Y253813D01*
X221545D02*
X221886Y254281D01*
Y251000*
X216705Y287500D02*
X216591Y287813D01*
X216591D02*
X216364Y288125D01*
X216136Y288281*
X215682*
X215455Y288125*
X215227Y287813*
X215227D02*
X215114Y287500D01*
X215000Y287031*
Y286250*
X215114Y285781*
X215227Y285469*
X215455Y285156*
X215682Y285000*
X216136*
X216364Y285156*
X216591Y285469*
X216705Y285781*
X217727Y287656D02*
X217955Y287813D01*
X217955D02*
X218295Y288281D01*
Y285000*
X219432Y287500D02*
Y287656D01*
X219545Y287969*
X219659Y288125*
X219886Y288281*
X220341*
X220568Y288125*
X220682Y287969*
X220795Y287656*
Y287344*
X220682Y287031*
X220455Y286563*
X220455D02*
X219318Y285000D01*
X220909*
X195219Y381841D02*
X194937Y381614D01*
X194937D02*
X194797Y381273D01*
Y380818*
X194937Y380477*
X194937D02*
X195219Y380250D01*
X195500*
X195781Y380364*
X195922Y380477*
X196062Y380705*
X196062D02*
X196344Y381386D01*
X196484Y381614*
X196625Y381727*
X196906Y381841*
X197328*
X197609Y381614*
X197750Y381273*
Y380818*
X197609Y380477*
X197328Y380250*
X194797Y382864D02*
X197750Y383432D01*
X194797Y384000D02*
X197750Y383432D01*
X194797Y384000D02*
X197750Y384568D01*
X194797Y385136D02*
X197750Y384568D01*
X195359Y386159D02*
X195219Y386386D01*
X194797Y386727*
X197750*
X225219Y381841D02*
X224937Y381614D01*
X224937D02*
X224797Y381273D01*
Y380818*
X224937Y380477*
X224937D02*
X225219Y380250D01*
X225500*
X225781Y380364*
X225922Y380477*
X226062Y380705*
X226062D02*
X226344Y381386D01*
X226484Y381614*
X226625Y381727*
X226906Y381841*
X227328*
X227609Y381614*
X227750Y381273*
Y380818*
X227609Y380477*
X227328Y380250*
X224797Y382864D02*
X227750Y383432D01*
X224797Y384000D02*
X227750Y383432D01*
X224797Y384000D02*
X227750Y384568D01*
X224797Y385136D02*
X227750Y384568D01*
X225500Y386273D02*
X225359D01*
X225078Y386386*
X224937Y386500*
X224937D02*
X224797Y386727D01*
Y387182*
X224937Y387409*
X224937D02*
X225078Y387523D01*
X225359Y387636*
X225641*
X225922Y387523*
X226344Y387295*
X227750Y386159*
Y387750*
X255219Y381841D02*
X254937Y381614D01*
X254937D02*
X254797Y381273D01*
Y380818*
X254937Y380477*
X254937D02*
X255219Y380250D01*
X255500*
X255781Y380364*
X255922Y380477*
X256062Y380705*
X256062D02*
X256344Y381386D01*
X256484Y381614*
X256625Y381727*
X256906Y381841*
X257328*
X257609Y381614*
X257750Y381273*
Y380818*
X257609Y380477*
X257328Y380250*
X254797Y382864D02*
X257750Y383432D01*
X254797Y384000D02*
X257750Y383432D01*
X254797Y384000D02*
X257750Y384568D01*
X254797Y385136D02*
X257750Y384568D01*
X254797Y386386D02*
Y387636D01*
X255922Y386955*
Y387295*
X256062Y387523*
X256062D02*
X256203Y387636D01*
X256625Y387750*
X256906*
X257328Y387636*
X257609Y387409*
X257750Y387068*
Y386727*
X257609Y386386*
X257469Y386273*
X257187Y386159*
X285219Y381841D02*
X284937Y381614D01*
X284937D02*
X284797Y381273D01*
Y380818*
X284937Y380477*
X284937D02*
X285219Y380250D01*
X285500*
X285781Y380364*
X285922Y380477*
X286062Y380705*
X286062D02*
X286344Y381386D01*
X286484Y381614*
X286625Y381727*
X286906Y381841*
X287328*
X287609Y381614*
X287750Y381273*
Y380818*
X287609Y380477*
X287328Y380250*
X284797Y382864D02*
X287750Y383432D01*
X284797Y384000D02*
X287750Y383432D01*
X284797Y384000D02*
X287750Y384568D01*
X284797Y385136D02*
X287750Y384568D01*
X284797Y387295D02*
X286766Y386159D01*
Y387864*
X284797Y387295D02*
X287750D01*
X315219Y381841D02*
X314937Y381614D01*
X314937D02*
X314797Y381273D01*
Y380818*
X314937Y380477*
X314937D02*
X315219Y380250D01*
X315500*
X315781Y380364*
X315922Y380477*
X316062Y380705*
X316062D02*
X316344Y381386D01*
X316484Y381614*
X316625Y381727*
X316906Y381841*
X317328*
X317609Y381614*
X317750Y381273*
Y380818*
X317609Y380477*
X317328Y380250*
X314797Y382864D02*
X317750Y383432D01*
X314797Y384000D02*
X317750Y383432D01*
X314797Y384000D02*
X317750Y384568D01*
X314797Y385136D02*
X317750Y384568D01*
X314797Y387636D02*
Y386500D01*
X316062Y386386*
X316062D02*
X315922Y386500D01*
X315781Y386841*
Y387182*
X315922Y387523*
X316203Y387750*
X316625Y387864*
X316906Y387750*
X317328Y387636*
X317609Y387409*
X317750Y387068*
Y386727*
X317609Y386386*
X317469Y386273*
X317187Y386159*
X345219Y381841D02*
X344937Y381614D01*
X344937D02*
X344797Y381273D01*
Y380818*
X344937Y380477*
X344937D02*
X345219Y380250D01*
X345500*
X345781Y380364*
X345922Y380477*
X346062Y380705*
X346062D02*
X346344Y381386D01*
X346484Y381614*
X346625Y381727*
X346906Y381841*
X347328*
X347609Y381614*
X347750Y381273*
Y380818*
X347609Y380477*
X347328Y380250*
X344797Y382864D02*
X347750Y383432D01*
X344797Y384000D02*
X347750Y383432D01*
X344797Y384000D02*
X347750Y384568D01*
X344797Y385136D02*
X347750Y384568D01*
X345219Y387523D02*
X344937Y387409D01*
X344937D02*
X344797Y387068D01*
Y386841*
X344937Y386500*
X344937D02*
X345359Y386273D01*
X346062Y386159*
X346062D02*
X346766D01*
X347328Y386273*
X347609Y386500*
X347750Y386841*
Y386955*
X347609Y387295*
X347328Y387523*
X346906Y387636*
X346766*
X346344Y387523*
X346062Y387295*
X346062D02*
X345922Y386955D01*
Y386841*
X346062Y386500*
X346062D02*
X346344Y386273D01*
X346766Y386159*
X375219Y381841D02*
X374937Y381614D01*
X374937D02*
X374797Y381273D01*
Y380818*
X374937Y380477*
X374937D02*
X375219Y380250D01*
X375500*
X375781Y380364*
X375922Y380477*
X376062Y380705*
X376062D02*
X376344Y381386D01*
X376484Y381614*
X376625Y381727*
X376906Y381841*
X377328*
X377609Y381614*
X377750Y381273*
Y380818*
X377609Y380477*
X377328Y380250*
X374797Y382864D02*
X377750Y383432D01*
X374797Y384000D02*
X377750Y383432D01*
X374797Y384000D02*
X377750Y384568D01*
X374797Y385136D02*
X377750Y384568D01*
X374797Y387750D02*
X377750Y386614D01*
X374797Y386159D02*
Y387750D01*
X405219Y381841D02*
X404937Y381614D01*
X404937D02*
X404797Y381273D01*
Y380818*
X404937Y380477*
X404937D02*
X405219Y380250D01*
X405500*
X405781Y380364*
X405922Y380477*
X406062Y380705*
X406062D02*
X406344Y381386D01*
X406484Y381614*
X406625Y381727*
X406906Y381841*
X407328*
X407609Y381614*
X407750Y381273*
Y380818*
X407609Y380477*
X407328Y380250*
X404797Y382864D02*
X407750Y383432D01*
X404797Y384000D02*
X407750Y383432D01*
X404797Y384000D02*
X407750Y384568D01*
X404797Y385136D02*
X407750Y384568D01*
X404797Y386727D02*
X404937Y386386D01*
X404937D02*
X405219Y386273D01*
X405500*
X405781Y386386*
X405922Y386614*
X406062Y387068*
X406062D02*
X406203Y387409D01*
X406484Y387636*
X406766Y387750*
X407187*
X407187D02*
X407469Y387636D01*
X407609Y387523*
X407750Y387182*
Y386727*
X407609Y386386*
X407469Y386273*
X407187Y386159*
X407187D02*
X406766D01*
X406484Y386273*
X406203Y386500*
X406062Y386841*
X406062D02*
X405922Y387295D01*
X405781Y387523*
X405500Y387636*
X405219*
X404937Y387523*
X404937D02*
X404797Y387182D01*
Y386727*
X601750Y374797D02*
Y377750D01*
X600159Y374797D02*
Y377750D01*
X601750Y376203D02*
X600159D01*
X598227Y374797D02*
X599136Y377750D01*
X598227Y374797D02*
X597318Y377750D01*
X598795Y376766D02*
X597659D01*
X596295Y374797D02*
Y377750D01*
X594932*
X593909Y374797D02*
Y377750D01*
X592545*
X594045Y131203D02*
Y128250D01*
X593250Y131203D02*
X594841D01*
X595864D02*
Y128250D01*
X597455Y131203D02*
Y128250D01*
X595864Y129797D02*
X597455D01*
X598477Y131203D02*
Y128250D01*
Y131203D02*
X599955D01*
X598477Y129797D02*
X599386D01*
X598477Y128250D02*
X599955D01*
X600977Y131203D02*
Y128250D01*
Y131203D02*
X602000D01*
X602341Y131063*
X602341D02*
X602455Y130922D01*
X602568Y130641*
Y130359*
X602455Y130078*
X602341Y129938*
X602341D02*
X602000Y129797D01*
X600977*
X601773D02*
X602568Y128250D01*
X603591Y131203D02*
Y128250D01*
Y131203D02*
X604500Y128250D01*
X605409Y131203D02*
X604500Y128250D01*
X605409Y131203D02*
Y128250D01*
X606432Y131203D02*
Y128250D01*
X609045Y130781D02*
X608818Y131063D01*
X608818D02*
X608477Y131203D01*
X608023*
X607682Y131063*
X607682D02*
X607455Y130781D01*
Y130500*
X607568Y130219*
X607682Y130078*
X607909Y129938*
X607909D02*
X608591Y129656D01*
X608818Y129516*
X608932Y129375*
X609045Y129094*
Y128672*
X608818Y128391*
X608477Y128250*
X608023*
X607682Y128391*
X607455Y128672*
X610864Y131203D02*
Y128250D01*
X610068Y131203D02*
X611659D01*
X613364D02*
X613136Y131063D01*
X613136D02*
X612909Y130781D01*
X612795Y130500*
X612682Y130078*
Y129375*
X612795Y128953*
X612909Y128672*
X613136Y128391*
X613364Y128250*
X613818*
X614045Y128391*
X614273Y128672*
X614386Y128953*
X614500Y129375*
Y130078*
X614386Y130500*
X614273Y130781*
X614045Y131063*
X614045D02*
X613818Y131203D01*
X613364*
X615523D02*
Y128250D01*
Y131203D02*
X616545D01*
X616886Y131063*
X616886D02*
X617000Y130922D01*
X617114Y130641*
Y130359*
X617000Y130078*
X616886Y129938*
X616886D02*
X616545Y129797D01*
X615523*
X616318D02*
X617114Y128250D01*
X130203Y281750D02*
X127250D01*
Y280386*
X130203Y278682D02*
X130062Y278909D01*
X130062D02*
X129781Y279136D01*
X129500Y279250*
X129078Y279364*
X128375*
X127953Y279250*
X127672Y279136*
X127391Y278909*
X127250Y278682*
Y278227*
X127391Y278000*
X127672Y277773*
X127953Y277659*
X128375Y277545*
X129078*
X129500Y277659*
X129781Y277773*
X130062Y278000*
X130062D02*
X130203Y278227D01*
Y278682*
X129500Y274818D02*
X129781Y274932D01*
X130062Y275159*
X130062D02*
X130203Y275386D01*
Y275841*
X130062Y276068*
X130062D02*
X129781Y276295D01*
X129500Y276409*
X129078Y276523*
X128375*
X127953Y276409*
X127672Y276295*
X127391Y276068*
X127250Y275841*
Y275386*
X127391Y275159*
X127672Y274932*
X127953Y274818*
X128375*
Y275386D02*
Y274818D01*
X130203Y273795D02*
X127250D01*
X129500Y271068D02*
X129781Y271182D01*
X130062Y271409*
X130062D02*
X130203Y271636D01*
Y272091*
X130062Y272318*
X130062D02*
X129781Y272545D01*
X129500Y272659*
X129078Y272773*
X128375*
X127953Y272659*
X127672Y272545*
X127391Y272318*
X127250Y272091*
Y271636*
X127391Y271409*
X127672Y271182*
X127953Y271068*
X630000Y176281D02*
Y173000D01*
Y176281D02*
X630909Y173000D01*
X631818Y176281D02*
X630909Y173000D01*
X631818Y176281D02*
Y173000D01*
X633523Y176281D02*
X633295Y176125D01*
X633068Y175813*
X633068D02*
X632955Y175500D01*
X632841Y175031*
Y174250*
X632955Y173781*
X633068Y173469*
X633295Y173156*
X633523Y173000*
X633977*
X634205Y173156*
X634432Y173469*
X634545Y173781*
X634659Y174250*
Y175031*
X634545Y175500*
X634432Y175813*
X634432D02*
X634205Y176125D01*
X633977Y176281*
X633523*
X636477D02*
Y173000D01*
X635682Y176281D02*
X637273D01*
X638977D02*
X638750Y176125D01*
X638523Y175813*
X638523D02*
X638409Y175500D01*
X638295Y175031*
Y174250*
X638409Y173781*
X638523Y173469*
X638750Y173156*
X638977Y173000*
X639432*
X639659Y173156*
X639886Y173469*
X640000Y173781*
X640114Y174250*
Y175031*
X640000Y175500*
X639886Y175813*
X639886D02*
X639659Y176125D01*
X639432Y176281*
X638977*
X641136D02*
Y173000D01*
Y176281D02*
X642159D01*
X642500Y176125*
X642614Y175969*
X642727Y175656*
Y175344*
X642614Y175031*
X642500Y174875*
X642159Y174719*
X641136*
X641932D02*
X642727Y173000D01*
X643750Y172375D02*
X646136D01*
X646818Y176281D02*
Y173000D01*
Y176281D02*
X647841D01*
X648182Y176125*
X648295Y175969*
X648409Y175656*
Y175188*
X648409D02*
X648295Y174875D01*
X648182Y174719*
X647841Y174563*
X647841D02*
X646818D01*
X650114Y176281D02*
X649886Y176125D01*
X649659Y175813*
X649659D02*
X649545Y175500D01*
X649432Y175031*
Y174250*
X649545Y173781*
X649659Y173469*
X649886Y173156*
X650114Y173000*
X650568*
X650795Y173156*
X651023Y173469*
X651136Y173781*
X651250Y174250*
Y175031*
X651136Y175500*
X651023Y175813*
X651023D02*
X650795Y176125D01*
X650568Y176281*
X650114*
X652273D02*
X652841Y173000D01*
X653409Y176281D02*
X652841Y173000D01*
X653409Y176281D02*
X653977Y173000D01*
X654545Y176281D02*
X653977Y173000D01*
X655568Y176281D02*
Y173000D01*
Y176281D02*
X657045D01*
X655568Y174719D02*
X656477D01*
X655568Y173000D02*
X657045D01*
X658068Y176281D02*
Y173000D01*
Y176281D02*
X659091D01*
X659432Y176125*
X659545Y175969*
X659659Y175656*
Y175344*
X659545Y175031*
X659432Y174875*
X659091Y174719*
X658068*
X658864D02*
X659659Y173000D01*
X130203Y235750D02*
X127250D01*
X130203D02*
Y234727D01*
X130062Y234386*
X130062D02*
X129922Y234273D01*
X129641Y234159*
X129359*
X129078Y234273*
X128937Y234386*
X128937D02*
X128797Y234727D01*
Y235750*
Y234955D02*
X127250Y234159D01*
X129500Y231432D02*
X129781Y231545D01*
X130062Y231773*
X130062D02*
X130203Y232000D01*
Y232455*
X130062Y232682*
X130062D02*
X129781Y232909D01*
X129500Y233023*
X129078Y233136*
X128375*
X127953Y233023*
X127672Y232909*
X127391Y232682*
X127250Y232455*
Y232000*
X127391Y231773*
X127672Y231545*
X127953Y231432*
X128375*
Y232000D02*
Y231432D01*
X130203Y230409D02*
X127250D01*
X130203D02*
Y229386D01*
X130062Y229045*
X130062D02*
X129922Y228932D01*
X129641Y228818*
X129359*
X129078Y228932*
X128937Y229045*
X128937D02*
X128797Y229386D01*
Y230409D02*
Y229386D01*
X128656Y229045*
X128516Y228932*
X128234Y228818*
X127812*
X127812D02*
X127531Y228932D01*
X127391Y229045*
X127250Y229386*
Y230409*
X126687Y227795D02*
Y225409D01*
X130203Y224727D02*
X127250D01*
Y223364*
X130203Y222341D02*
X127250D01*
X130203D02*
Y220864D01*
X128797Y222341D02*
Y221432D01*
X127250Y222341D02*
Y220864D01*
X130203Y219841D02*
X127250D01*
X130203D02*
Y219045D01*
X130062Y218705*
X130062D02*
X129781Y218477D01*
X129500Y218364*
X129078Y218250*
X128375*
X127953Y218364*
X127672Y218477*
X127391Y218705*
X127250Y219045*
Y219841*
X240159Y130203D02*
X239250Y127250D01*
X240159Y130203D02*
X241068Y127250D01*
X239591Y128234D02*
X240727D01*
X242091Y130203D02*
Y128094D01*
X242205Y127672*
X242432Y127391*
X242773Y127250*
X243000*
X243341Y127391*
X243568Y127672*
X243682Y128094*
Y130203*
X244705D02*
X246295Y127250D01*
Y130203D02*
X244705Y127250D01*
X247318Y129641D02*
X247545Y129781D01*
X247886Y130203*
Y127250*
X193159Y130203D02*
X192250Y127250D01*
X193159Y130203D02*
X194068Y127250D01*
X192591Y128234D02*
X193727D01*
X195091Y130203D02*
Y128094D01*
X195205Y127672*
X195432Y127391*
X195773Y127250*
X196000*
X196341Y127391*
X196568Y127672*
X196682Y128094*
Y130203*
X197705D02*
X199295Y127250D01*
Y130203D02*
X197705Y127250D01*
X200432Y129500D02*
Y129641D01*
X200545Y129922*
X200659Y130063*
X200659D02*
X200886Y130203D01*
X201341*
X201568Y130063*
X201568D02*
X201682Y129922D01*
X201795Y129641*
Y129359*
X201682Y129078*
X201455Y128656*
X200318Y127250*
X201909*
X501000Y259281D02*
Y256000D01*
Y259281D02*
X502023D01*
X502364Y259125*
X502477Y258969*
X502591Y258656*
Y258344*
X502477Y258031*
X502364Y257875*
X502023Y257719*
X501000*
X501795D02*
X502591Y256000D01*
X503727Y258500D02*
Y258656D01*
X503841Y258969*
X503955Y259125*
X504182Y259281*
X504636*
X504864Y259125*
X504977Y258969*
X505091Y258656*
Y258344*
X504977Y258031*
X504750Y257563*
X504750D02*
X503614Y256000D01*
X505205*
X507591Y258813D02*
X507477Y259125D01*
X507136Y259281*
X506909*
X506568Y259125*
X506341Y258656*
X506227Y257875*
Y257094*
X506341Y256469*
X506568Y256156*
X506909Y256000*
X507023*
X507364Y256156*
X507591Y256469*
X507705Y256938*
X507705D02*
Y257094D01*
X507591Y257563*
X507591D02*
X507364Y257875D01*
X507023Y258031*
X506909*
X506568Y257875*
X506341Y257563*
X506341D02*
X506227Y257094D01*
X468000Y259281D02*
Y256000D01*
Y259281D02*
X469023D01*
X469364Y259125*
X469477Y258969*
X469591Y258656*
Y258344*
X469477Y258031*
X469364Y257875*
X469023Y257719*
X468000*
X468795D02*
X469591Y256000D01*
X470727Y258500D02*
Y258656D01*
X470841Y258969*
X470955Y259125*
X471182Y259281*
X471636*
X471864Y259125*
X471977Y258969*
X472091Y258656*
Y258344*
X471977Y258031*
X471750Y257563*
X471750D02*
X470614Y256000D01*
X472205*
X474818Y259281D02*
X473682Y256000D01*
X473227Y259281D02*
X474818D01*
X273000Y189281D02*
Y186000D01*
Y189281D02*
X274023D01*
X274364Y189125*
X274477Y188969*
X274591Y188656*
Y188344*
X274477Y188031*
X274364Y187875*
X274023Y187719*
X273000*
X273795D02*
X274591Y186000D01*
X275727Y188500D02*
Y188656D01*
X275841Y188969*
X275955Y189125*
X276182Y189281*
X276636*
X276864Y189125*
X276977Y188969*
X277091Y188656*
Y188344*
X276977Y188031*
X276750Y187563*
X276750D02*
X275614Y186000D01*
X277205*
X278795Y189281D02*
X278455Y189125D01*
X278341Y188813*
X278341D02*
Y188500D01*
X278455Y188188*
X278455D02*
X278682Y188031D01*
X279136Y187875*
X279477Y187719*
X279705Y187406*
X279818Y187094*
Y186625*
X279705Y186313*
X279705D02*
X279591Y186156D01*
X279250Y186000*
X278795*
X278455Y186156*
X278341Y186313*
X278341D02*
X278227Y186625D01*
Y187094*
X278341Y187406*
X278568Y187719*
X278909Y187875*
X279364Y188031*
X279591Y188188*
X279591D02*
X279705Y188500D01*
Y188813*
X279705D02*
X279591Y189125D01*
X279250Y189281*
X278795*
X273000Y179281D02*
Y176000D01*
Y179281D02*
X274023D01*
X274364Y179125*
X274477Y178969*
X274591Y178656*
Y178344*
X274477Y178031*
X274364Y177875*
X274023Y177719*
X273000*
X273795D02*
X274591Y176000D01*
X275727Y178500D02*
Y178656D01*
X275841Y178969*
X275955Y179125*
X276182Y179281*
X276636*
X276864Y179125*
X276977Y178969*
X277091Y178656*
Y178344*
X276977Y178031*
X276750Y177563*
X276750D02*
X275614Y176000D01*
X277205*
X279705Y178188D02*
X279591Y177719D01*
X279364Y177406*
X279023Y177250*
X278909*
X278568Y177406*
X278341Y177719*
X278227Y178188*
X278227D02*
Y178344D01*
X278341Y178813*
X278341D02*
X278568Y179125D01*
X278909Y179281*
X279023*
X279364Y179125*
X279591Y178813*
X279591D02*
X279705Y178188D01*
X279705D02*
Y177406D01*
X279591Y176625*
X279364Y176156*
X279023Y176000*
X278795*
X278455Y176156*
X278341Y176469*
X121919Y374800D02*
X125200D01*
X121919D02*
Y375595D01*
X122075Y375936*
X122387Y376164*
X122387D02*
X122700Y376277D01*
X123169Y376391*
X123950*
X124419Y376277*
X124731Y376164*
X125044Y375936*
X125200Y375595*
Y374800*
X121919Y377414D02*
X125200D01*
X121919Y378436D02*
X125200D01*
X121919D02*
Y379459D01*
X122075Y379800*
X122231Y379914*
X122544Y380027*
X123012*
X123012D02*
X123325Y379914D01*
X123481Y379800*
X123637Y379459*
X123637D02*
Y378436D01*
X125825Y381050D02*
Y383436D01*
X122387Y385709D02*
X122075Y385482D01*
X121919Y385141*
Y384686*
X122075Y384345*
X122387Y384118*
X122387D02*
X122700D01*
X123012Y384232*
X123012D02*
X123169Y384345D01*
X123325Y384573*
X123637Y385255*
X123637D02*
X123794Y385482D01*
X123950Y385595*
X124262Y385709*
X124262D02*
X124731D01*
X125044Y385482*
X125200Y385141*
Y384686*
X125044Y384345*
X124731Y384118*
X121919Y386732D02*
X125200Y387300D01*
X121919Y387868D02*
X125200Y387300D01*
X121919Y387868D02*
X125200Y388436D01*
X121919Y389005D02*
X125200Y388436D01*
X121919Y390027D02*
X125200D01*
X121919Y391845D02*
X125200D01*
X121919Y391050D02*
Y392641D01*
X122700Y395368D02*
X122387Y395255D01*
X122387D02*
X122075Y395027D01*
X121919Y394800*
Y394345*
X122075Y394118*
X122387Y393891*
X122387D02*
X122700Y393777D01*
X123169Y393664*
X123950*
X124419Y393777*
X124731Y393891*
X125044Y394118*
X125200Y394345*
Y394800*
X125044Y395027*
X124731Y395255*
X124419Y395368*
X121919Y396391D02*
X125200D01*
X121919Y397982D02*
X125200D01*
X123481Y396391D02*
Y397982D01*
X390281Y262000D02*
X387000D01*
X390281D02*
Y260977D01*
X390125Y260636*
X389969Y260523*
X389656Y260409*
X389344*
X389031Y260523*
X388875Y260636*
X388719Y260977*
Y262000*
Y261205D02*
X387000Y260409D01*
X390281Y259159D02*
Y257909D01*
X389031Y258591*
Y258250*
X388875Y258023*
X388719Y257909*
X388250Y257795*
X387938*
X387938D02*
X387469Y257909D01*
X387156Y258136*
X387000Y258477*
Y258818*
X387156Y259159*
X387313Y259273*
X387313D02*
X387625Y259386D01*
X390281Y256091D02*
X390125Y256432D01*
X389656Y256659*
X388875Y256773*
X388406*
X387625Y256659*
X387156Y256432*
X387000Y256091*
Y255864*
X387156Y255523*
X387625Y255295*
X388406Y255182*
X388875*
X389656Y255295*
X390125Y255523*
X390281Y255864*
Y256091*
X130203Y183750D02*
X127250D01*
X130203D02*
Y182273D01*
X128797Y183750D02*
Y182841D01*
X127250Y183750D02*
Y182273D01*
X128516Y181250D02*
Y179205D01*
X130203Y178182D02*
X127250D01*
X130203Y177159D02*
X127250D01*
X130203D02*
X127250Y175568D01*
X130203D02*
X127250D01*
X130203Y145750D02*
X127250D01*
X130203D02*
Y144273D01*
X128797Y145750D02*
Y144841D01*
X127250Y145750D02*
Y144273D01*
X128516Y143250D02*
Y141205D01*
X130203Y139500D02*
X130063Y139727D01*
X130063D02*
X129781Y139955D01*
X129500Y140068*
X129078Y140182*
X128375*
X127953Y140068*
X127672Y139955*
X127391Y139727*
X127250Y139500*
Y139045*
X127391Y138818*
X127672Y138591*
X127953Y138477*
X128375Y138364*
X129078*
X129500Y138477*
X129781Y138591*
X130063Y138818*
X130063D02*
X130203Y139045D01*
Y139500*
Y137341D02*
X128094D01*
X127672Y137227*
X127391Y137000*
X127250Y136659*
Y136432*
X127391Y136091*
X127672Y135864*
X128094Y135750*
X130203*
Y133932D02*
X127250D01*
X130203Y134727D02*
Y133136D01*
X373000Y240281D02*
Y237000D01*
Y240281D02*
X374023D01*
X374364Y240125*
X374477Y239969*
X374591Y239656*
Y239344*
X374477Y239031*
X374364Y238875*
X374023Y238719*
X373000*
X373795D02*
X374591Y237000D01*
X375841Y240281D02*
X377091D01*
X376409Y239031*
X376750*
X376977Y238875*
X377091Y238719*
X377205Y238250*
Y237938*
X377205D02*
X377091Y237469D01*
X376864Y237156*
X376523Y237000*
X376182*
X375841Y237156*
X375727Y237313*
X375727D02*
X375614Y237625D01*
X378227Y239656D02*
X378455Y239813D01*
X378455D02*
X378795Y240281D01*
Y237000*
X443281Y270000D02*
X440000D01*
X443281D02*
Y268977D01*
X443125Y268636*
X442969Y268523*
X442656Y268409*
X442344*
X442031Y268523*
X441875Y268636*
X441719Y268977*
Y270000*
Y269205D02*
X440000Y268409D01*
X443281Y267159D02*
Y265909D01*
X442031Y266591*
Y266250*
X441875Y266023*
X441719Y265909*
X441250Y265795*
X440938*
X440938D02*
X440469Y265909D01*
X440156Y266136*
X440000Y266477*
Y266818*
X440156Y267159*
X440313Y267273*
X440313D02*
X440625Y267386D01*
X442500Y264659D02*
X442656D01*
X442969Y264545*
X443125Y264432*
X443281Y264205*
Y263750*
X443125Y263523*
X442969Y263409*
X442656Y263295*
X442344*
X442031Y263409*
X441563Y263636*
X441563D02*
X440000Y264773D01*
Y263182*
X372000Y218281D02*
Y215000D01*
Y218281D02*
X373023D01*
X373364Y218125*
X373477Y217969*
X373591Y217656*
Y217344*
X373477Y217031*
X373364Y216875*
X373023Y216719*
X372000*
X372795D02*
X373591Y215000D01*
X374841Y218281D02*
X376091D01*
X375409Y217031*
X375750*
X375977Y216875*
X376091Y216719*
X376205Y216250*
Y215938*
X376205D02*
X376091Y215469D01*
X375864Y215156*
X375523Y215000*
X375182*
X374841Y215156*
X374727Y215313*
X374727D02*
X374614Y215625D01*
X377455Y218281D02*
X378705D01*
X378023Y217031*
X378364*
X378591Y216875*
X378705Y216719*
X378818Y216250*
Y215938*
X378818D02*
X378705Y215469D01*
X378477Y215156*
X378136Y215000*
X377795*
X377455Y215156*
X377341Y215313*
X377341D02*
X377227Y215625D01*
X308909Y131281D02*
X308000Y128000D01*
X308909Y131281D02*
X309818Y128000D01*
X308341Y129094D02*
X309477D01*
X310841Y131281D02*
Y128000D01*
Y131281D02*
X311750Y128000D01*
X312659Y131281D02*
X311750Y128000D01*
X312659Y131281D02*
Y128000D01*
X313682Y131281D02*
Y128000D01*
Y131281D02*
X314705D01*
X315045Y131125*
X315159Y130969*
X315273Y130656*
Y130187*
X315273D02*
X315159Y129875D01*
X315045Y129719*
X314705Y129562*
X314705D02*
X313682D01*
X316295Y127375D02*
X318682D01*
X321068Y130500D02*
X320955Y130812D01*
X320955D02*
X320727Y131125D01*
X320500Y131281*
X320045*
X319818Y131125*
X319591Y130812*
X319591D02*
X319477Y130500D01*
X319364Y130031*
Y129250*
X319477Y128781*
X319591Y128469*
X319818Y128156*
X320045Y128000*
X320500*
X320727Y128156*
X320955Y128469*
X321068Y128781*
X322773Y131281D02*
X322545Y131125D01*
X322318Y130812*
X322318D02*
X322205Y130500D01*
X322091Y130031*
Y129250*
X322205Y128781*
X322318Y128469*
X322545Y128156*
X322773Y128000*
X323227*
X323455Y128156*
X323682Y128469*
X323795Y128781*
X323909Y129250*
Y130031*
X323795Y130500*
X323682Y130812*
X323682D02*
X323455Y131125D01*
X323227Y131281*
X322773*
X324932D02*
Y128000D01*
Y131281D02*
X326523Y128000D01*
Y131281D02*
Y128000D01*
X327545Y131281D02*
Y128000D01*
Y131281D02*
X329136Y128000D01*
Y131281D02*
Y128000D01*
X212000Y226281D02*
Y223938D01*
X212000D02*
X212114Y223469D01*
X212341Y223156*
X212682Y223000*
X212909*
X213250Y223156*
X213477Y223469*
X213591Y223938*
X213591D02*
Y226281D01*
X214614Y225656D02*
X214841Y225813D01*
X214841D02*
X215182Y226281D01*
Y223000*
X216886Y226281D02*
X216545Y226125D01*
X216318Y225656*
X216205Y224875*
Y224406*
X216318Y223625*
X216545Y223156*
X216886Y223000*
X217114*
X217455Y223156*
X217682Y223625*
X217795Y224406*
Y224875*
X217682Y225656*
X217455Y226125*
X217114Y226281*
X216886*
X180000Y189281D02*
Y186000D01*
Y189281D02*
X181023D01*
X181364Y189125*
X181477Y188969*
X181591Y188656*
Y188344*
X181477Y188031*
X181364Y187875*
X181023Y187719*
X180000*
X180795D02*
X181591Y186000D01*
X182841Y189281D02*
X184091D01*
X183409Y188031*
X183750*
X183977Y187875*
X184091Y187719*
X184205Y187250*
Y186938*
X184205D02*
X184091Y186469D01*
X183864Y186156*
X183523Y186000*
X183182*
X182841Y186156*
X182727Y186313*
X182727D02*
X182614Y186625D01*
X186818Y189281D02*
X185682Y186000D01*
X185227Y189281D02*
X186818D01*
X236719Y221000D02*
X240000D01*
X236719D02*
Y222023D01*
X236875Y222364*
X237031Y222477*
X237344Y222591*
X237656*
X237969Y222477*
X238125Y222364*
X238281Y222023*
Y221000*
Y221795D02*
X240000Y222591D01*
X236719Y223841D02*
Y225091D01*
X237969Y224409*
Y224750*
X238125Y224977*
X238281Y225091*
X238750Y225205*
X239062*
X239531Y225091*
X239844Y224864*
X240000Y224523*
Y224182*
X239844Y223841*
X239687Y223727*
X239375Y223614*
X236719Y226795D02*
X236875Y226455D01*
X237187Y226341*
X237500*
X237812Y226455*
X237969Y226682*
X238125Y227136*
X238281Y227477*
X238594Y227705*
X238906Y227818*
X239375*
X239687Y227705*
X239844Y227591*
X240000Y227250*
Y226795*
X239844Y226455*
X239687Y226341*
X239375Y226227*
X238906*
X238594Y226341*
X238281Y226568*
X238125Y226909*
X237969Y227364*
X237812Y227591*
X237500Y227705*
X237187*
X236875Y227591*
X236719Y227250*
Y226795*
X187719Y202000D02*
X191000D01*
X187719D02*
Y203023D01*
X187875Y203364*
X188031Y203477*
X188344Y203591*
X188656*
X188969Y203477*
X189125Y203364*
X189281Y203023*
Y202000*
Y202795D02*
X191000Y203591D01*
X187719Y204841D02*
Y206091D01*
X188969Y205409*
Y205750*
X189125Y205977*
X189281Y206091*
X189750Y206205*
X190062*
X190531Y206091*
X190844Y205864*
X191000Y205523*
Y205182*
X190844Y204841*
X190687Y204727*
X190375Y204614*
X188812Y208705D02*
X189281Y208591D01*
X189594Y208364*
X189750Y208023*
Y207909*
X189594Y207568*
X189281Y207341*
X188812Y207227*
X188656*
X188187Y207341*
X187875Y207568*
X187719Y207909*
Y208023*
X187875Y208364*
X188187Y208591*
X188812Y208705*
X189594*
X190375Y208591*
X190844Y208364*
X191000Y208023*
Y207795*
X190844Y207455*
X190531Y207341*
X194500Y213705D02*
X194187Y213591D01*
X193875Y213364*
X193719Y213136*
Y212682*
X193875Y212455*
X194187Y212227*
X194500Y212114*
X194969Y212000*
X195750*
X196219Y212114*
X196531Y212227*
X196844Y212455*
X197000Y212682*
Y213136*
X196844Y213364*
X196531Y213591*
X196219Y213705*
X194344Y214727D02*
X194187Y214955D01*
X193719Y215295*
X197000*
X193719Y217795D02*
Y216659D01*
X195125Y216545*
X194969Y216659*
X194812Y217000*
Y217341*
X194969Y217682*
X195281Y217909*
X195750Y218023*
X196062Y217909*
X196531Y217795*
X196844Y217568*
X197000Y217227*
Y216886*
X196844Y216545*
X196687Y216432*
X196375Y216318*
X231500Y222705D02*
X231187Y222591D01*
X230875Y222364*
X230719Y222136*
Y221682*
X230875Y221455*
X231187Y221227*
X231500Y221114*
X231969Y221000*
X232750*
X233219Y221114*
X233531Y221227*
X233844Y221455*
X234000Y221682*
Y222136*
X233844Y222364*
X233531Y222591*
X233219Y222705*
X231344Y223727D02*
X231187Y223955D01*
X230719Y224295*
X234000*
X231187Y226682D02*
X230875Y226568D01*
X230719Y226227*
Y226000*
X230875Y225659*
X231344Y225432*
X232125Y225318*
X232906*
X233531Y225432*
X233844Y225659*
X234000Y226000*
Y226114*
X233844Y226455*
X233531Y226682*
X233062Y226795*
X232906*
X232437Y226682*
X232125Y226455*
X231969Y226114*
Y226000*
X232125Y225659*
X232437Y225432*
X232906Y225318*
X234500Y180295D02*
X234813Y180409D01*
X235125Y180636*
X235281Y180864*
Y181318*
X235125Y181545*
X234813Y181773*
X234500Y181886*
X234031Y182000*
X233250*
X232781Y181886*
X232469Y181773*
X232156Y181545*
X232000Y181318*
Y180864*
X232156Y180636*
X232469Y180409*
X232781Y180295*
X234500Y179159D02*
X234656D01*
X234969Y179045*
X235125Y178932*
X235281Y178705*
Y178250*
X235125Y178023*
X234969Y177909*
X234656Y177795*
X234344*
X234031Y177909*
X233563Y178136*
X232000Y179273*
Y177682*
X234500Y176545D02*
X234656D01*
X234969Y176432*
X235125Y176318*
X235281Y176091*
Y175636*
X235125Y175409*
X234969Y175295*
X234656Y175182*
X234344*
X234031Y175295*
X233563Y175523*
X232000Y176659*
Y175068*
X203705Y177500D02*
X203591Y177813D01*
X203591D02*
X203364Y178125D01*
X203136Y178281*
X202682*
X202455Y178125*
X202227Y177813*
X202227D02*
X202114Y177500D01*
X202000Y177031*
Y176250*
X202114Y175781*
X202227Y175469*
X202455Y175156*
X202682Y175000*
X203136*
X203364Y175156*
X203591Y175469*
X203705Y175781*
X204841Y177500D02*
Y177656D01*
X204955Y177969*
X205068Y178125*
X205295Y178281*
X205750*
X205977Y178125*
X206091Y177969*
X206205Y177656*
Y177344*
X206091Y177031*
X205864Y176563*
X205864D02*
X204727Y175000D01*
X206318*
X207568Y178281D02*
X208818D01*
X208136Y177031*
X208477*
X208705Y176875*
X208818Y176719*
X208932Y176250*
Y175938*
X208932D02*
X208818Y175469D01*
X208591Y175156*
X208250Y175000*
X207909*
X207568Y175156*
X207455Y175313*
X207455D02*
X207341Y175625D01*
X591705Y342500D02*
X591591Y342812D01*
X591591D02*
X591364Y343125D01*
X591136Y343281*
X590682*
X590455Y343125*
X590227Y342812*
X590227D02*
X590114Y342500D01*
X590000Y342031*
Y341250*
X590114Y340781*
X590227Y340469*
X590455Y340156*
X590682Y340000*
X591136*
X591364Y340156*
X591591Y340469*
X591705Y340781*
X592841Y342500D02*
Y342656D01*
X592955Y342969*
X593068Y343125*
X593295Y343281*
X593750*
X593977Y343125*
X594091Y342969*
X594205Y342656*
Y342344*
X594091Y342031*
X593864Y341562*
X593864D02*
X592727Y340000D01*
X594318*
X596477Y343281D02*
X595341Y341094D01*
X597045*
X596477Y343281D02*
Y340000D01*
X582719Y147000D02*
X586000D01*
X582719D02*
Y148023D01*
X582875Y148364*
X583031Y148477*
X583344Y148591*
X583656*
X583969Y148477*
X584125Y148364*
X584281Y148023*
Y147000*
Y147795D02*
X586000Y148591D01*
X582719Y150750D02*
X584906Y149614D01*
Y151318*
X582719Y150750D02*
X586000D01*
X582719Y153023D02*
X582875Y152682D01*
X583344Y152455*
X584125Y152341*
X584594*
X585375Y152455*
X585844Y152682*
X586000Y153023*
Y153250*
X585844Y153591*
X585375Y153818*
X584594Y153932*
X584125*
X583344Y153818*
X582875Y153591*
X582719Y153250*
Y153023*
X590719Y147000D02*
X594000D01*
X590719D02*
Y148023D01*
X590875Y148364*
X591031Y148477*
X591344Y148591*
X591656*
X591969Y148477*
X592125Y148364*
X592281Y148023*
Y147000*
Y147795D02*
X594000Y148591D01*
X590719Y150750D02*
X592906Y149614D01*
Y151318*
X590719Y150750D02*
X594000D01*
X591344Y152341D02*
X591187Y152568D01*
X590719Y152909*
X594000*
X598719Y147000D02*
X602000D01*
X598719D02*
Y148023D01*
X598875Y148364*
X599031Y148477*
X599344Y148591*
X599656*
X599969Y148477*
X600125Y148364*
X600281Y148023*
Y147000*
Y147795D02*
X602000Y148591D01*
X598719Y150750D02*
X600906Y149614D01*
Y151318*
X598719Y150750D02*
X602000D01*
X599500Y152455D02*
X599344D01*
X599031Y152568*
X598875Y152682*
X598719Y152909*
Y153364*
X598875Y153591*
X599031Y153705*
X599344Y153818*
X599656*
X599969Y153705*
X600437Y153477*
X602000Y152341*
Y153932*
X606719Y147000D02*
X610000D01*
X606719D02*
Y148023D01*
X606875Y148364*
X607031Y148477*
X607344Y148591*
X607656*
X607969Y148477*
X608125Y148364*
X608281Y148023*
Y147000*
Y147795D02*
X610000Y148591D01*
X606719Y150750D02*
X608906Y149614D01*
Y151318*
X606719Y150750D02*
X610000D01*
X606719Y152568D02*
Y153818D01*
X607969Y153136*
Y153477*
X608125Y153705*
X608281Y153818*
X608750Y153932*
X609062*
X609531Y153818*
X609844Y153591*
X610000Y153250*
Y152909*
X609844Y152568*
X609687Y152455*
X609375Y152341*
X614719Y147000D02*
X618000D01*
X614719D02*
Y148023D01*
X614875Y148364*
X615031Y148477*
X615344Y148591*
X615656*
X615969Y148477*
X616125Y148364*
X616281Y148023*
Y147000*
Y147795D02*
X618000Y148591D01*
X614719Y150750D02*
X616906Y149614D01*
Y151318*
X614719Y150750D02*
X618000D01*
X614719Y153477D02*
X616906Y152341D01*
Y154045*
X614719Y153477D02*
X618000D01*
X622719Y147000D02*
X626000D01*
X622719D02*
Y148023D01*
X622875Y148364*
X623031Y148477*
X623344Y148591*
X623656*
X623969Y148477*
X624125Y148364*
X624281Y148023*
Y147000*
Y147795D02*
X626000Y148591D01*
X622719Y150750D02*
X624906Y149614D01*
Y151318*
X622719Y150750D02*
X626000D01*
X622719Y153818D02*
Y152682D01*
X624125Y152568*
X623969Y152682*
X623812Y153023*
Y153364*
X623969Y153705*
X624281Y153932*
X624750Y154045*
X625062Y153932*
X625531Y153818*
X625844Y153591*
X626000Y153250*
Y152909*
X625844Y152568*
X625687Y152455*
X625375Y152341*
X144159Y130203D02*
X143250Y127250D01*
X144159Y130203D02*
X145068Y127250D01*
X143591Y128234D02*
X144727D01*
X146091Y130203D02*
Y128094D01*
X146205Y127672*
X146432Y127391*
X146773Y127250*
X147000*
X147341Y127391*
X147568Y127672*
X147682Y128094*
Y130203*
X148705D02*
X150295Y127250D01*
Y130203D02*
X148705Y127250D01*
X151545Y130203D02*
X152795D01*
X152114Y129078*
X152455*
X152682Y128938*
X152682D02*
X152795Y128797D01*
X152909Y128375*
Y128094*
X152795Y127672*
X152568Y127391*
X152227Y127250*
X151886*
X151545Y127391*
X151432Y127531*
X151318Y127813*
X212000Y327281D02*
Y324938D01*
X212000D02*
X212114Y324469D01*
X212341Y324156*
X212682Y324000*
X212909*
X213250Y324156*
X213477Y324469*
X213591Y324938*
X213591D02*
Y327281D01*
X214614Y326656D02*
X214841Y326813D01*
X214841D02*
X215182Y327281D01*
Y324000*
X216318Y326500D02*
Y326656D01*
X216432Y326969*
X216545Y327125*
X216773Y327281*
X217227*
X217455Y327125*
X217568Y326969*
X217682Y326656*
Y326344*
X217568Y326031*
X217341Y325563*
X217341D02*
X216205Y324000D01*
X217795*
X215705Y293500D02*
X215591Y293813D01*
X215591D02*
X215364Y294125D01*
X215136Y294281*
X214682*
X214455Y294125*
X214227Y293813*
X214227D02*
X214114Y293500D01*
X214000Y293031*
Y292250*
X214114Y291781*
X214227Y291469*
X214455Y291156*
X214682Y291000*
X215136*
X215364Y291156*
X215591Y291469*
X215705Y291781*
X216841Y293500D02*
Y293656D01*
X216955Y293969*
X217068Y294125*
X217295Y294281*
X217750*
X217977Y294125*
X218091Y293969*
X218205Y293656*
Y293344*
X218091Y293031*
X217864Y292563*
X217864D02*
X216727Y291000D01*
X218318*
X220818Y294281D02*
X219682D01*
X219568Y292875*
X219682Y293031*
X220023Y293188*
X220023D02*
X220364D01*
X220364D02*
X220705Y293031D01*
X220932Y292719*
X221045Y292250*
X220932Y291938*
X220932D02*
X220818Y291469D01*
X220591Y291156*
X220250Y291000*
X219909*
X219568Y291156*
X219455Y291313*
X219455D02*
X219341Y291625D01*
X227705Y331100D02*
X227591Y331413D01*
X227591D02*
X227364Y331725D01*
X227136Y331881*
X226682*
X226455Y331725*
X226227Y331413*
X226227D02*
X226114Y331100D01*
X226000Y330631*
Y329850*
X226114Y329381*
X226227Y329069*
X226455Y328756*
X226682Y328600*
X227136*
X227364Y328756*
X227591Y329069*
X227705Y329381*
X228841Y331100D02*
Y331256D01*
X228955Y331569*
X229068Y331725*
X229295Y331881*
X229750*
X229977Y331725*
X230091Y331569*
X230205Y331256*
Y330944*
X230091Y330631*
X229864Y330163*
X229864D02*
X228727Y328600D01*
X230318*
X232705Y331413D02*
X232591Y331725D01*
X232250Y331881*
X232023*
X231682Y331725*
X231455Y331256*
X231341Y330475*
Y329694*
X231455Y329069*
X231682Y328756*
X232023Y328600*
X232136*
X232477Y328756*
X232705Y329069*
X232818Y329538*
X232818D02*
Y329694D01*
X232705Y330163*
X232705D02*
X232477Y330475D01*
X232136Y330631*
X232023*
X231682Y330475*
X231455Y330163*
X231455D02*
X231341Y329694D01*
X301000Y257281D02*
Y254000D01*
Y257281D02*
X302023D01*
X302364Y257125*
X302477Y256969*
X302591Y256656*
Y256344*
X302477Y256031*
X302364Y255875*
X302023Y255719*
X301000*
X301795D02*
X302591Y254000D01*
X303614Y256656D02*
X303841Y256813D01*
X303841D02*
X304182Y257281D01*
Y254000*
X300000Y267281D02*
Y264000D01*
Y267281D02*
X301023D01*
X301364Y267125*
X301477Y266969*
X301591Y266656*
Y266344*
X301477Y266031*
X301364Y265875*
X301023Y265719*
X300000*
X300795D02*
X301591Y264000D01*
X302727Y266500D02*
Y266656D01*
X302841Y266969*
X302955Y267125*
X303182Y267281*
X303636*
X303864Y267125*
X303977Y266969*
X304091Y266656*
Y266344*
X303977Y266031*
X303750Y265563*
X303750D02*
X302614Y264000D01*
X304205*
X129781Y339959D02*
X130062Y340186D01*
X130062D02*
X130203Y340527D01*
Y340982*
X130062Y341323*
X130062D02*
X129781Y341550D01*
X129500*
X129219Y341436*
X129078Y341323*
X128937Y341095*
X128937D02*
X128656Y340414D01*
X128516Y340186*
X128375Y340073*
X128094Y339959*
X127672*
X127391Y340186*
X127250Y340527*
Y340982*
X127391Y341323*
X127672Y341550*
X130203Y338141D02*
X127250D01*
X130203Y338936D02*
Y337345D01*
Y336323D02*
X127250D01*
X130203D02*
Y335300D01*
X130062Y334959*
X130062D02*
X129922Y334845D01*
X129641Y334732*
X129359*
X129078Y334845*
X128937Y334959*
X128937D02*
X128797Y335300D01*
Y336323*
Y335527D02*
X127250Y334732D01*
X130203Y332800D02*
X127250Y333709D01*
X130203Y332800D02*
X127250Y331891D01*
X128234Y333368D02*
Y332232D01*
X130203Y330868D02*
X127250D01*
X130203Y329845D02*
X127250D01*
X130203D02*
X127250Y328255D01*
X130203D02*
X127250D01*
X430000Y224281D02*
Y221938D01*
X430000D02*
X430114Y221469D01*
X430341Y221156*
X430682Y221000*
X430909*
X431250Y221156*
X431477Y221469*
X431591Y221938*
X431591D02*
Y224281D01*
X432614Y223656D02*
X432841Y223813D01*
X432841D02*
X433182Y224281D01*
Y221000*
X430000Y268281D02*
Y265938D01*
X430000D02*
X430114Y265469D01*
X430341Y265156*
X430682Y265000*
X430909*
X431250Y265156*
X431477Y265469*
X431591Y265938*
X431591D02*
Y268281D01*
X432727Y267500D02*
Y267656D01*
X432841Y267969*
X432955Y268125*
X433182Y268281*
X433636*
X433864Y268125*
X433977Y267969*
X434091Y267656*
Y267344*
X433977Y267031*
X433750Y266563*
X433750D02*
X432614Y265000D01*
X434205*
X430000Y246281D02*
Y243938D01*
X430000D02*
X430114Y243469D01*
X430341Y243156*
X430682Y243000*
X430909*
X431250Y243156*
X431477Y243469*
X431591Y243938*
X431591D02*
Y246281D01*
X433182D02*
X432841Y246125D01*
X432727Y245813*
X432727D02*
Y245500D01*
X432841Y245188*
X432841D02*
X433068Y245031D01*
X433523Y244875*
X433864Y244719*
X434091Y244406*
X434205Y244094*
Y243625*
X434091Y243313*
X434091D02*
X433977Y243156D01*
X433636Y243000*
X433182*
X432841Y243156*
X432727Y243313*
X432727D02*
X432614Y243625D01*
Y244094*
X432727Y244406*
X432955Y244719*
X433295Y244875*
X433750Y245031*
X433977Y245188*
X433977D02*
X434091Y245500D01*
Y245813*
X434091D02*
X433977Y246125D01*
X433636Y246281*
X433182*
X395909Y147375D02*
X395000Y144094D01*
X395909Y147375D02*
X396818Y144094D01*
X395341Y145187D02*
X396477D01*
X397841Y147375D02*
Y144094D01*
Y147375D02*
X398636D01*
X398977Y147219*
X399205Y146906*
X399318Y146594*
X399432Y146125*
Y145344*
X399318Y144875*
X399205Y144562*
X399205D02*
X398977Y144250D01*
X398636Y144094*
X397841*
X400455Y147375D02*
Y144094D01*
Y147375D02*
X401364Y144094D01*
X402273Y147375D02*
X401364Y144094D01*
X402273Y147375D02*
Y144094D01*
X403523Y147375D02*
X404773D01*
X404091Y146125*
X404432*
X404659Y145969*
X404773Y145812*
X404773D02*
X404886Y145344D01*
Y145031*
X404773Y144562*
X404773D02*
X404545Y144250D01*
X404205Y144094*
X403864*
X403523Y144250*
X403409Y144406*
X403295Y144719*
X407045Y147375D02*
X405909Y145187D01*
X405909D02*
X407614D01*
X407045Y147375D02*
Y144094D01*
X410114Y146281D02*
X410000Y145812D01*
X410000D02*
X409773Y145500D01*
X409432Y145344*
X409318*
X408977Y145500*
X408750Y145812*
X408750D02*
X408636Y146281D01*
Y146437*
X408636D02*
X408750Y146906D01*
X408977Y147219*
X409318Y147375*
X409432*
X409773Y147219*
X410000Y146906*
X410114Y146281*
Y145500*
X410000Y144719*
X409773Y144250*
X409432Y144094*
X409205*
X408864Y144250*
X408750Y144562*
X411818Y147375D02*
X411477Y147219D01*
X411250Y146750*
X411136Y145969*
Y145500*
X411250Y144719*
X411477Y144250*
X411818Y144094*
X412045*
X412386Y144250*
X412614Y144719*
X412727Y145500*
Y145969*
X412614Y146750*
X412386Y147219*
X412045Y147375*
X411818*
X476909D02*
X476000Y144094D01*
X476909Y147375D02*
X477818Y144094D01*
X476341Y145187D02*
X477477D01*
X478841Y147375D02*
Y144094D01*
Y147375D02*
X479636D01*
X479977Y147219*
X480205Y146906*
X480318Y146594*
X480432Y146125*
Y145344*
X480318Y144875*
X480205Y144562*
X480205D02*
X479977Y144250D01*
X479636Y144094*
X478841*
X481455Y147375D02*
Y144094D01*
Y147375D02*
X482364Y144094D01*
X483273Y147375D02*
X482364Y144094D01*
X483273Y147375D02*
Y144094D01*
X484523Y147375D02*
X485773D01*
X485091Y146125*
X485432*
X485659Y145969*
X485773Y145812*
X485773D02*
X485886Y145344D01*
Y145031*
X485773Y144562*
X485773D02*
X485545Y144250D01*
X485205Y144094*
X484864*
X484523Y144250*
X484409Y144406*
X484295Y144719*
X488045Y147375D02*
X486909Y145187D01*
X486909D02*
X488614D01*
X488045Y147375D02*
Y144094D01*
X491114Y146281D02*
X491000Y145812D01*
X491000D02*
X490773Y145500D01*
X490432Y145344*
X490318*
X489977Y145500*
X489750Y145812*
X489750D02*
X489636Y146281D01*
Y146437*
X489636D02*
X489750Y146906D01*
X489977Y147219*
X490318Y147375*
X490432*
X490773Y147219*
X491000Y146906*
X491114Y146281*
Y145500*
X491000Y144719*
X490773Y144250*
X490432Y144094*
X490205*
X489864Y144250*
X489750Y144562*
X492818Y147375D02*
X492477Y147219D01*
X492250Y146750*
X492136Y145969*
Y145500*
X492250Y144719*
X492477Y144250*
X492818Y144094*
X493045*
X493386Y144250*
X493614Y144719*
X493727Y145500*
Y145969*
X493614Y146750*
X493386Y147219*
X493045Y147375*
X492818*
X523909D02*
X523000Y144094D01*
X523909Y147375D02*
X524818Y144094D01*
X523341Y145187D02*
X524477D01*
X525841Y147375D02*
Y144094D01*
Y147375D02*
X526636D01*
X526977Y147219*
X527205Y146906*
X527318Y146594*
X527432Y146125*
Y145344*
X527318Y144875*
X527205Y144562*
X527205D02*
X526977Y144250D01*
X526636Y144094*
X525841*
X528455Y147375D02*
Y144094D01*
Y147375D02*
X529364Y144094D01*
X530273Y147375D02*
X529364Y144094D01*
X530273Y147375D02*
Y144094D01*
X531523Y147375D02*
X532773D01*
X532091Y146125*
X532432*
X532659Y145969*
X532773Y145812*
X532773D02*
X532886Y145344D01*
Y145031*
X532773Y144562*
X532773D02*
X532545Y144250D01*
X532205Y144094*
X531864*
X531523Y144250*
X531409Y144406*
X531295Y144719*
X535045Y147375D02*
X533909Y145187D01*
X533909D02*
X535614D01*
X535045Y147375D02*
Y144094D01*
X538114Y146281D02*
X538000Y145812D01*
X538000D02*
X537773Y145500D01*
X537432Y145344*
X537318*
X536977Y145500*
X536750Y145812*
X536750D02*
X536636Y146281D01*
Y146437*
X536636D02*
X536750Y146906D01*
X536977Y147219*
X537318Y147375*
X537432*
X537773Y147219*
X538000Y146906*
X538114Y146281*
Y145500*
X538000Y144719*
X537773Y144250*
X537432Y144094*
X537205*
X536864Y144250*
X536750Y144562*
X539818Y147375D02*
X539477Y147219D01*
X539250Y146750*
X539136Y145969*
Y145500*
X539250Y144719*
X539477Y144250*
X539818Y144094*
X540045*
X540386Y144250*
X540614Y144719*
X540727Y145500*
Y145969*
X540614Y146750*
X540386Y147219*
X540045Y147375*
X539818*
X396375Y355091D02*
X393094Y356000D01*
X396375Y355091D02*
X393094Y354182D01*
X394187Y355659D02*
Y354523D01*
X396375Y353159D02*
X393094D01*
X396375D02*
Y352364D01*
X396219Y352023*
X395906Y351795*
X395594Y351682*
X395125Y351568*
X394344*
X393875Y351682*
X393562Y351795*
X393562D02*
X393250Y352023D01*
X393094Y352364*
Y353159*
X396375Y350545D02*
X393094D01*
X396375D02*
X393094Y348955D01*
X396375D02*
X393094D01*
X396375Y346795D02*
X394187Y347932D01*
X394187D02*
Y346227D01*
X396375Y346795D02*
X393094D01*
X395906Y343841D02*
X396219Y343955D01*
X396375Y344295*
Y344523*
X396219Y344864*
X395750Y345091*
X394969Y345205*
X394187*
X394187D02*
X393562Y345091D01*
X393562D02*
X393250Y344864D01*
X393094Y344523*
Y344409*
X393250Y344068*
X393562Y343841*
X393562D02*
X394031Y343727D01*
X394187*
X394187D02*
X394656Y343841D01*
X394969Y344068*
X395125Y344409*
Y344523*
X394969Y344864*
X394656Y345091*
X394187Y345205*
X395906Y341341D02*
X396219Y341455D01*
X396375Y341795*
Y342023*
X396219Y342364*
X395750Y342591*
X394969Y342705*
X394187*
X394187D02*
X393562Y342591D01*
X393562D02*
X393250Y342364D01*
X393094Y342023*
Y341909*
X393250Y341568*
X393562Y341341*
X393562D02*
X394031Y341227D01*
X394187*
X394187D02*
X394656Y341341D01*
X394969Y341568*
X395125Y341909*
Y342023*
X394969Y342364*
X394656Y342591*
X394187Y342705*
X396375Y339636D02*
X396219Y339977D01*
X395906Y340091*
X395594*
X395281Y339977*
X395125Y339750*
X394969Y339295*
X394812Y338955*
X394812D02*
X394500Y338727D01*
X394187Y338614*
X394187D02*
X393719D01*
X393406Y338727*
X393250Y338841*
X393094Y339182*
Y339636*
X393250Y339977*
X393406Y340091*
X393719Y340205*
X394187*
X394187D02*
X394500Y340091D01*
X394812Y339864*
X394812D02*
X394969Y339523D01*
X395125Y339068*
X395281Y338841*
X395594Y338727*
X395906*
X396219Y338841*
X396375Y339182*
Y339636*
X225625Y261909D02*
X228906Y261000D01*
X225625Y261909D02*
X228906Y262818D01*
X227812Y261341D02*
Y262477D01*
X225625Y263841D02*
X228906D01*
X225625D02*
Y264636D01*
X225781Y264977*
X226094Y265205*
X226406Y265318*
X226875Y265432*
X227656*
X228125Y265318*
X228437Y265205*
X228437D02*
X228750Y264977D01*
X228906Y264636*
Y263841*
X226406Y268159D02*
X226094Y268045D01*
X225781Y267818*
X225625Y267591*
Y267136*
X225781Y266909*
X226094Y266682*
X226406Y266568*
X226875Y266455*
X227656*
X228125Y266568*
X228437Y266682*
X228437D02*
X228750Y266909D01*
X228906Y267136*
Y267591*
X228750Y267818*
X228437Y268045*
X228437D02*
X228125Y268159D01*
X227656*
Y267591D02*
Y268159D01*
X225625Y269409D02*
Y270659D01*
X226875Y269977*
Y270318*
X227031Y270545*
X227187Y270659*
X227187D02*
X227656Y270773D01*
X227969*
X228437Y270659*
X228437D02*
X228750Y270432D01*
X228906Y270091*
Y269750*
X228750Y269409*
X228594Y269295*
X228281Y269182*
X225625Y272023D02*
Y273273D01*
X226875Y272591*
Y272932*
X227031Y273159*
X227187Y273273*
X227187D02*
X227656Y273386D01*
X227969*
X228437Y273273*
X228437D02*
X228750Y273045D01*
X228906Y272705*
Y272364*
X228750Y272023*
X228594Y271909*
X228281Y271795*
X225625Y275091D02*
X225781Y274750D01*
X226250Y274523*
X227031Y274409*
X227500*
X228281Y274523*
X228750Y274750*
X228906Y275091*
Y275318*
X228750Y275659*
X228281Y275886*
X227500Y276000*
X227031*
X226250Y275886*
X225781Y275659*
X225625Y275318*
Y275091*
Y277591D02*
X225781Y277250D01*
X226094Y277136*
X226406*
X226719Y277250*
X226875Y277477*
X227031Y277932*
X227187Y278273*
X227187D02*
X227500Y278500D01*
X227812Y278614*
X227812D02*
X228281D01*
X228594Y278500*
X228750Y278386*
X228906Y278045*
Y277591*
X228750Y277250*
X228594Y277136*
X228281Y277023*
X227812*
X227812D02*
X227500Y277136D01*
X227187Y277364*
X227187D02*
X227031Y277705D01*
X226875Y278159*
X226719Y278386*
X226406Y278500*
X226094*
X225781Y278386*
X225625Y278045*
Y277591*
X167091Y380625D02*
X168000Y383906D01*
X167091Y380625D02*
X166182Y383906D01*
X167659Y382813D02*
X166523D01*
X163795Y381094D02*
X163909Y380781D01*
X164250Y380625*
X164477*
X164818Y380781*
X165045Y381250*
X165159Y382031*
Y382813*
X165159D02*
X165045Y383438D01*
X165045D02*
X164818Y383750D01*
X164477Y383906*
X164364*
X164023Y383750*
X163795Y383438*
X163795D02*
X163682Y382969D01*
Y382813*
X163682D02*
X163795Y382344D01*
X164023Y382031*
X164364Y381875*
X164477*
X164818Y382031*
X165045Y382344*
X165159Y382813*
X161068Y381094D02*
X161295Y380781D01*
X161636Y380625*
X162091*
X162432Y380781*
X162659Y381094*
Y381406*
X162545Y381719*
X162432Y381875*
X162205Y382031*
X161523Y382344*
X161295Y382500*
X161182Y382656*
X161068Y382969*
Y383438*
X161068D02*
X161295Y383750D01*
X161636Y383906*
X162091*
X162432Y383750*
X162659Y383438*
X160045Y382500D02*
X158000D01*
X155614Y381094D02*
X155727Y380781D01*
X156068Y380625*
X156295*
X156636Y380781*
X156864Y381250*
X156977Y382031*
Y382813*
X156977D02*
X156864Y383438D01*
X156864D02*
X156636Y383750D01*
X156295Y383906*
X156182*
X155841Y383750*
X155614Y383438*
X155614D02*
X155500Y382969D01*
Y382813*
X155500D02*
X155614Y382344D01*
X155841Y382031*
X156182Y381875*
X156295*
X156636Y382031*
X156864Y382344*
X156977Y382813*
X154477Y381250D02*
X154250Y381094D01*
X153909Y380625*
Y383906*
X152205Y380625D02*
X152545Y380781D01*
X152773Y381250*
X152886Y382031*
Y382500*
X152773Y383281*
X152545Y383750*
X152205Y383906*
X151977*
X151636Y383750*
X151409Y383281*
X151295Y382500*
Y382031*
X151409Y381250*
X151636Y380781*
X151977Y380625*
X152205*
X149136D02*
X150273Y382813D01*
X150273D02*
X148568D01*
X149136Y380625D02*
Y383906D01*
X213125Y191000D02*
X216406D01*
X213125Y192023D02*
X216406D01*
Y193386*
X213125Y194636D02*
Y195886D01*
X214375Y195205*
Y195545*
X214531Y195773*
X214687Y195886*
X214687D02*
X215156Y196000D01*
X215469*
X215937Y195886*
X215937D02*
X216250Y195659D01*
X216406Y195318*
Y194977*
X216250Y194636*
X216094Y194523*
X215781Y194409*
X213750Y197023D02*
X213594Y197250D01*
X213125Y197591*
X216406*
X213906Y198727D02*
X213750D01*
X213437Y198841*
X213437D02*
X213281Y198955D01*
X213125Y199182*
Y199636*
X213281Y199864*
X213437Y199977*
X213437D02*
X213750Y200091D01*
X214062*
X214062D02*
X214375Y199977D01*
X214844Y199750*
X216406Y198614*
Y200205*
X213906Y201341D02*
X213750D01*
X213437Y201455*
X213437D02*
X213281Y201568D01*
X213125Y201795*
Y202250*
X213281Y202477*
X213437Y202591*
X213437D02*
X213750Y202705D01*
X214062*
X214062D02*
X214375Y202591D01*
X214844Y202364*
X216406Y201227*
Y202818*
X215000Y203841D02*
Y205886D01*
X213125Y207136D02*
Y208386D01*
X214375Y207705*
Y208045*
X214531Y208273*
X214687Y208386*
X214687D02*
X215156Y208500D01*
X215469*
X215937Y208386*
X215937D02*
X216250Y208159D01*
X216406Y207818*
Y207477*
X216250Y207136*
X216094Y207023*
X215781Y206909*
X224625Y300909D02*
X227906Y300000D01*
X224625Y300909D02*
X227906Y301818D01*
X226812Y300341D02*
Y301477D01*
X224625Y302841D02*
X227906D01*
X224625D02*
Y303636D01*
X224781Y303977*
X225094Y304205*
X225406Y304318*
X225875Y304432*
X226656*
X227125Y304318*
X227437Y304205*
X227437D02*
X227750Y303977D01*
X227906Y303636*
Y302841*
X225406Y307159D02*
X225094Y307045D01*
X224781Y306818*
X224625Y306591*
Y306136*
X224781Y305909*
X225094Y305682*
X225406Y305568*
X225875Y305455*
X226656*
X227125Y305568*
X227437Y305682*
X227437D02*
X227750Y305909D01*
X227906Y306136*
Y306591*
X227750Y306818*
X227437Y307045*
X227437D02*
X227125Y307159D01*
X226656*
Y306591D02*
Y307159D01*
X224625Y308409D02*
Y309659D01*
X225875Y308977*
Y309318*
X226031Y309545*
X226187Y309659*
X226187D02*
X226656Y309773D01*
X226969*
X227437Y309659*
X227437D02*
X227750Y309432D01*
X227906Y309091*
Y308750*
X227750Y308409*
X227594Y308295*
X227281Y308182*
X224625Y311023D02*
Y312273D01*
X225875Y311591*
Y311932*
X226031Y312159*
X226187Y312273*
X226187D02*
X226656Y312386D01*
X226969*
X227437Y312273*
X227437D02*
X227750Y312045D01*
X227906Y311705*
Y311364*
X227750Y311023*
X227594Y310909*
X227281Y310795*
X224625Y314091D02*
X224781Y313750D01*
X225250Y313523*
X226031Y313409*
X226500*
X227281Y313523*
X227750Y313750*
X227906Y314091*
Y314318*
X227750Y314659*
X227281Y314886*
X226500Y315000*
X226031*
X225250Y314886*
X224781Y314659*
X224625Y314318*
Y314091*
Y316591D02*
X224781Y316250D01*
X225094Y316136*
X225406*
X225719Y316250*
X225875Y316477*
X226031Y316932*
X226187Y317273*
X226187D02*
X226500Y317500D01*
X226812Y317614*
X226812D02*
X227281D01*
X227594Y317500*
X227750Y317386*
X227906Y317045*
Y316591*
X227750Y316250*
X227594Y316136*
X227281Y316023*
X226812*
X226812D02*
X226500Y316136D01*
X226187Y316364*
X226187D02*
X226031Y316705D01*
X225875Y317159*
X225719Y317386*
X225406Y317500*
X225094*
X224781Y317386*
X224625Y317045*
Y316591*
X405591Y213375D02*
X404000Y210094D01*
Y213375D02*
X405591D01*
X404000Y210094D02*
X405591D01*
X406727Y212594D02*
Y212750D01*
X406841Y213062*
X406841D02*
X406955Y213219D01*
X407182Y213375*
X407636*
X407864Y213219*
X407977Y213062*
X407977D02*
X408091Y212750D01*
Y212437*
X408091D02*
X407977Y212125D01*
X407750Y211656*
X406614Y210094*
X408205*
X409227Y212750D02*
X409455Y212906D01*
X409795Y213375*
Y210094*
X411500Y213375D02*
X411159Y213219D01*
X410932Y212750*
X410818Y211969*
Y211500*
X410932Y210719*
X411159Y210250*
X411500Y210094*
X411727*
X412068Y210250*
X412295Y210719*
X412409Y211500*
Y211969*
X412295Y212750*
X412068Y213219*
X411727Y213375*
X411500*
X413432Y212750D02*
X413659Y212906D01*
X414000Y213375*
Y210094*
X415023Y211500D02*
X417068D01*
X418091Y213375D02*
Y210094D01*
Y213375D02*
X419682Y210094D01*
Y213375D02*
Y210094D01*
X420705Y213375D02*
Y210094D01*
Y213375D02*
X421500D01*
X421841Y213219*
X422068Y212906*
X422182Y212594*
X422295Y212125*
Y211344*
X422182Y210875*
X422068Y210562*
X422068D02*
X421841Y210250D01*
X421500Y210094*
X420705*
X405591Y257375D02*
X404000Y254094D01*
Y257375D02*
X405591D01*
X404000Y254094D02*
X405591D01*
X406727Y256594D02*
Y256750D01*
X406841Y257062*
X406841D02*
X406955Y257219D01*
X407182Y257375*
X407636*
X407864Y257219*
X407977Y257062*
X407977D02*
X408091Y256750D01*
Y256437*
X408091D02*
X407977Y256125D01*
X407750Y255656*
X406614Y254094*
X408205*
X409227Y256750D02*
X409455Y256906D01*
X409795Y257375*
Y254094*
X411500Y257375D02*
X411159Y257219D01*
X410932Y256750*
X410818Y255969*
Y255500*
X410932Y254719*
X411159Y254250*
X411500Y254094*
X411727*
X412068Y254250*
X412295Y254719*
X412409Y255500*
Y255969*
X412295Y256750*
X412068Y257219*
X411727Y257375*
X411500*
X413432Y256750D02*
X413659Y256906D01*
X414000Y257375*
Y254094*
X415023Y255500D02*
X417068D01*
X418091Y257375D02*
Y254094D01*
Y257375D02*
X419682Y254094D01*
Y257375D02*
Y254094D01*
X420705Y257375D02*
Y254094D01*
Y257375D02*
X421500D01*
X421841Y257219*
X422068Y256906*
X422182Y256594*
X422295Y256125*
Y255344*
X422182Y254875*
X422068Y254562*
X422068D02*
X421841Y254250D01*
X421500Y254094*
X420705*
X405591Y235375D02*
X404000Y232094D01*
Y235375D02*
X405591D01*
X404000Y232094D02*
X405591D01*
X406727Y234594D02*
Y234750D01*
X406841Y235062*
X406841D02*
X406955Y235219D01*
X407182Y235375*
X407636*
X407864Y235219*
X407977Y235062*
X407977D02*
X408091Y234750D01*
Y234437*
X408091D02*
X407977Y234125D01*
X407750Y233656*
X406614Y232094*
X408205*
X409227Y234750D02*
X409455Y234906D01*
X409795Y235375*
Y232094*
X411500Y235375D02*
X411159Y235219D01*
X410932Y234750*
X410818Y233969*
Y233500*
X410932Y232719*
X411159Y232250*
X411500Y232094*
X411727*
X412068Y232250*
X412295Y232719*
X412409Y233500*
Y233969*
X412295Y234750*
X412068Y235219*
X411727Y235375*
X411500*
X413432Y234750D02*
X413659Y234906D01*
X414000Y235375*
Y232094*
X415023Y233500D02*
X417068D01*
X418091Y235375D02*
Y232094D01*
Y235375D02*
X419682Y232094D01*
Y235375D02*
Y232094D01*
X420705Y235375D02*
Y232094D01*
Y235375D02*
X421500D01*
X421841Y235219*
X422068Y234906*
X422182Y234594*
X422295Y234125*
Y233344*
X422182Y232875*
X422068Y232562*
X422068D02*
X421841Y232250D01*
X421500Y232094*
X420705*
X513250Y361000D02*
X513094Y361227D01*
X512625Y361568*
X515906*
X512625Y363273D02*
X512781Y362932D01*
X513250Y362705*
X514031Y362591*
X514500*
X515281Y362705*
X515750Y362932*
X515906Y363273*
Y363500*
X515750Y363841*
X515281Y364068*
X514500Y364182*
X514031*
X513250Y364068*
X512781Y363841*
X512625Y363500*
Y363273*
Y365205D02*
X515906D01*
X512625Y366795D02*
X514813Y365205D01*
X514031Y365773D02*
X515906Y366795D01*
X529250Y361000D02*
X529094Y361227D01*
X528625Y361568*
X531906*
X528625Y363273D02*
X528781Y362932D01*
X529250Y362705*
X530031Y362591*
X530500*
X531281Y362705*
X531750Y362932*
X531906Y363273*
Y363500*
X531750Y363841*
X531281Y364068*
X530500Y364182*
X530031*
X529250Y364068*
X528781Y363841*
X528625Y363500*
Y363273*
Y365205D02*
X531906D01*
X528625Y366795D02*
X530813Y365205D01*
X530031Y365773D02*
X531906Y366795D01*
X545250Y361000D02*
X545094Y361227D01*
X544625Y361568*
X547906*
X544625Y363273D02*
X544781Y362932D01*
X545250Y362705*
X546031Y362591*
X546500*
X547281Y362705*
X547750Y362932*
X547906Y363273*
Y363500*
X547750Y363841*
X547281Y364068*
X546500Y364182*
X546031*
X545250Y364068*
X544781Y363841*
X544625Y363500*
Y363273*
Y365205D02*
X547906D01*
X544625Y366795D02*
X546813Y365205D01*
X546031Y365773D02*
X547906Y366795D01*
X504406Y361114D02*
X504250D01*
X503937Y361227*
X503937D02*
X503781Y361341D01*
X503625Y361568*
Y362023*
X503781Y362250*
X503937Y362364*
X503937D02*
X504250Y362477D01*
X504562*
X504562D02*
X504875Y362364D01*
X505344Y362136*
X506906Y361000*
Y362591*
X503625Y364295D02*
X503781Y363955D01*
X504250Y363727*
X505031Y363614*
X505500*
X506281Y363727*
X506750Y363955*
X506906Y364295*
Y364523*
X506750Y364864*
X506281Y365091*
X505500Y365205*
X505031*
X504250Y365091*
X503781Y364864*
X503625Y364523*
Y364295*
Y366227D02*
X506906D01*
X503625Y367818D02*
X505812Y366227D01*
X505031Y366795D02*
X506906Y367818D01*
X521406Y361114D02*
X521250D01*
X520937Y361227*
X520937D02*
X520781Y361341D01*
X520625Y361568*
Y362023*
X520781Y362250*
X520937Y362364*
X520937D02*
X521250Y362477D01*
X521562*
X521562D02*
X521875Y362364D01*
X522344Y362136*
X523906Y361000*
Y362591*
X520625Y364295D02*
X520781Y363955D01*
X521250Y363727*
X522031Y363614*
X522500*
X523281Y363727*
X523750Y363955*
X523906Y364295*
Y364523*
X523750Y364864*
X523281Y365091*
X522500Y365205*
X522031*
X521250Y365091*
X520781Y364864*
X520625Y364523*
Y364295*
Y366227D02*
X523906D01*
X520625Y367818D02*
X522812Y366227D01*
X522031Y366795D02*
X523906Y367818D01*
X537406Y361114D02*
X537250D01*
X536937Y361227*
X536937D02*
X536781Y361341D01*
X536625Y361568*
Y362023*
X536781Y362250*
X536937Y362364*
X536937D02*
X537250Y362477D01*
X537562*
X537562D02*
X537875Y362364D01*
X538344Y362136*
X539906Y361000*
Y362591*
X536625Y364295D02*
X536781Y363955D01*
X537250Y363727*
X538031Y363614*
X538500*
X539281Y363727*
X539750Y363955*
X539906Y364295*
Y364523*
X539750Y364864*
X539281Y365091*
X538500Y365205*
X538031*
X537250Y365091*
X536781Y364864*
X536625Y364523*
Y364295*
Y366227D02*
X539906D01*
X536625Y367818D02*
X538812Y366227D01*
X538031Y366795D02*
X539906Y367818D01*
X306000Y301750D02*
X306227Y301906D01*
X306568Y302375*
Y299094*
X308727Y302375D02*
X307591Y300187D01*
X307591D02*
X309295D01*
X308727Y302375D02*
Y299094D01*
X311000Y302375D02*
X310659Y302219D01*
X310432Y301750*
X310318Y300969*
Y300500*
X310432Y299719*
X310659Y299250*
X311000Y299094*
X311227*
X311568Y299250*
X311795Y299719*
X311909Y300500*
Y300969*
X311795Y301750*
X311568Y302219*
X311227Y302375*
X311000*
X312932Y301281D02*
Y298000D01*
Y300812D02*
X313159Y301125D01*
X313386Y301281*
X313727*
X313955Y301125*
X314182Y300812*
X314182D02*
X314295Y300344D01*
Y300031*
X314182Y299562*
X314182D02*
X313955Y299250D01*
X313727Y299094*
X313386*
X313159Y299250*
X312932Y299562*
X315318Y302375D02*
Y299094D01*
Y302375D02*
X316795D01*
X315318Y300812D02*
X316227D01*
X358000Y301750D02*
X358227Y301906D01*
X358568Y302375*
Y299094*
X360727Y302375D02*
X359591Y300188D01*
X359591D02*
X361295D01*
X360727Y302375D02*
Y299094D01*
X363000Y302375D02*
X362659Y302219D01*
X362432Y301750*
X362318Y300969*
Y300500*
X362432Y299719*
X362659Y299250*
X363000Y299094*
X363227*
X363568Y299250*
X363795Y299719*
X363909Y300500*
Y300969*
X363795Y301750*
X363568Y302219*
X363227Y302375*
X363000*
X364932Y301281D02*
Y298000D01*
Y300813D02*
X365159Y301125D01*
X365386Y301281*
X365727*
X365955Y301125*
X366182Y300813*
X366182D02*
X366295Y300344D01*
Y300031*
X366182Y299563*
X366182D02*
X365955Y299250D01*
X365727Y299094*
X365386*
X365159Y299250*
X364932Y299563*
X367318Y302375D02*
Y299094D01*
Y302375D02*
X368795D01*
X367318Y300813D02*
X368227D01*
X306000Y321750D02*
X306227Y321906D01*
X306568Y322375*
Y319094*
X308727Y322375D02*
X307591Y320187D01*
X307591D02*
X309295D01*
X308727Y322375D02*
Y319094D01*
X311000Y322375D02*
X310659Y322219D01*
X310432Y321750*
X310318Y320969*
Y320500*
X310432Y319719*
X310659Y319250*
X311000Y319094*
X311227*
X311568Y319250*
X311795Y319719*
X311909Y320500*
Y320969*
X311795Y321750*
X311568Y322219*
X311227Y322375*
X311000*
X312932Y321281D02*
Y318000D01*
Y320812D02*
X313159Y321125D01*
X313386Y321281*
X313727*
X313955Y321125*
X314182Y320812*
X314182D02*
X314295Y320344D01*
Y320031*
X314182Y319562*
X314182D02*
X313955Y319250D01*
X313727Y319094*
X313386*
X313159Y319250*
X312932Y319562*
X315318Y322375D02*
Y319094D01*
Y322375D02*
X316795D01*
X315318Y320812D02*
X316227D01*
X358000Y321750D02*
X358227Y321906D01*
X358568Y322375*
Y319094*
X360727Y322375D02*
X359591Y320188D01*
X359591D02*
X361295D01*
X360727Y322375D02*
Y319094D01*
X363000Y322375D02*
X362659Y322219D01*
X362432Y321750*
X362318Y320969*
Y320500*
X362432Y319719*
X362659Y319250*
X363000Y319094*
X363227*
X363568Y319250*
X363795Y319719*
X363909Y320500*
Y320969*
X363795Y321750*
X363568Y322219*
X363227Y322375*
X363000*
X364932Y321281D02*
Y318000D01*
Y320813D02*
X365159Y321125D01*
X365386Y321281*
X365727*
X365955Y321125*
X366182Y320813*
X366182D02*
X366295Y320344D01*
Y320031*
X366182Y319563*
X366182D02*
X365955Y319250D01*
X365727Y319094*
X365386*
X365159Y319250*
X364932Y319563*
X367318Y322375D02*
Y319094D01*
Y322375D02*
X368795D01*
X367318Y320813D02*
X368227D01*
X306000Y311750D02*
X306227Y311906D01*
X306568Y312375*
Y309094*
X308727Y312375D02*
X307591Y310187D01*
X307591D02*
X309295D01*
X308727Y312375D02*
Y309094D01*
X311000Y312375D02*
X310659Y312219D01*
X310432Y311750*
X310318Y310969*
Y310500*
X310432Y309719*
X310659Y309250*
X311000Y309094*
X311227*
X311568Y309250*
X311795Y309719*
X311909Y310500*
Y310969*
X311795Y311750*
X311568Y312219*
X311227Y312375*
X311000*
X312932Y311281D02*
Y308000D01*
Y310812D02*
X313159Y311125D01*
X313386Y311281*
X313727*
X313955Y311125*
X314182Y310812*
X314182D02*
X314295Y310344D01*
Y310031*
X314182Y309562*
X314182D02*
X313955Y309250D01*
X313727Y309094*
X313386*
X313159Y309250*
X312932Y309562*
X315318Y312375D02*
Y309094D01*
Y312375D02*
X316795D01*
X315318Y310812D02*
X316227D01*
X358000Y311750D02*
X358227Y311906D01*
X358568Y312375*
Y309094*
X360727Y312375D02*
X359591Y310188D01*
X359591D02*
X361295D01*
X360727Y312375D02*
Y309094D01*
X363000Y312375D02*
X362659Y312219D01*
X362432Y311750*
X362318Y310969*
Y310500*
X362432Y309719*
X362659Y309250*
X363000Y309094*
X363227*
X363568Y309250*
X363795Y309719*
X363909Y310500*
Y310969*
X363795Y311750*
X363568Y312219*
X363227Y312375*
X363000*
X364932Y311281D02*
Y308000D01*
Y310813D02*
X365159Y311125D01*
X365386Y311281*
X365727*
X365955Y311125*
X366182Y310813*
X366182D02*
X366295Y310344D01*
Y310031*
X366182Y309563*
X366182D02*
X365955Y309250D01*
X365727Y309094*
X365386*
X365159Y309250*
X364932Y309563*
X367318Y312375D02*
Y309094D01*
Y312375D02*
X368795D01*
X367318Y310813D02*
X368227D01*
X400682Y172375D02*
X400341Y172219D01*
X400114Y171750*
X400000Y170969*
Y170500*
X400114Y169719*
X400341Y169250*
X400682Y169094*
X400909*
X401250Y169250*
X401477Y169719*
X401591Y170500*
Y170969*
X401477Y171750*
X401250Y172219*
X400909Y172375*
X400682*
X402727Y169406D02*
X402614Y169250D01*
X402727Y169094*
X402841Y169250*
X402727Y169406*
X403864Y171750D02*
X404091Y171906D01*
X404432Y172375*
Y169094*
X405455Y171281D02*
Y169719D01*
X405568Y169250*
X405795Y169094*
X406136*
X406364Y169250*
X406705Y169719*
Y171281D02*
Y169094D01*
X407727Y172375D02*
Y169094D01*
Y172375D02*
X409205D01*
X407727Y170813D02*
X408636D01*
X481682Y172375D02*
X481341Y172219D01*
X481114Y171750*
X481000Y170969*
Y170500*
X481114Y169719*
X481341Y169250*
X481682Y169094*
X481909*
X482250Y169250*
X482477Y169719*
X482591Y170500*
Y170969*
X482477Y171750*
X482250Y172219*
X481909Y172375*
X481682*
X483727Y169406D02*
X483614Y169250D01*
X483727Y169094*
X483841Y169250*
X483727Y169406*
X484864Y171750D02*
X485091Y171906D01*
X485432Y172375*
Y169094*
X486455Y171281D02*
Y169719D01*
X486568Y169250*
X486795Y169094*
X487136*
X487364Y169250*
X487705Y169719*
Y171281D02*
Y169094D01*
X488727Y172375D02*
Y169094D01*
Y172375D02*
X490205D01*
X488727Y170813D02*
X489636D01*
X528682Y172375D02*
X528341Y172219D01*
X528114Y171750*
X528000Y170969*
Y170500*
X528114Y169719*
X528341Y169250*
X528682Y169094*
X528909*
X529250Y169250*
X529477Y169719*
X529591Y170500*
Y170969*
X529477Y171750*
X529250Y172219*
X528909Y172375*
X528682*
X530727Y169406D02*
X530614Y169250D01*
X530727Y169094*
X530841Y169250*
X530727Y169406*
X531864Y171750D02*
X532091Y171906D01*
X532432Y172375*
Y169094*
X533455Y171281D02*
Y169719D01*
X533568Y169250*
X533795Y169094*
X534136*
X534364Y169250*
X534705Y169719*
Y171281D02*
Y169094D01*
X535727Y172375D02*
Y169094D01*
Y172375D02*
X537205D01*
X535727Y170813D02*
X536636D01*
X379375Y356318D02*
X379219Y356659D01*
X378750Y356886*
X377969Y357000*
X377500*
X376719Y356886*
X376250Y356659*
X376094Y356318*
Y356091*
X376250Y355750*
X376719Y355523*
X377500Y355409*
X377969*
X378750Y355523*
X379219Y355750*
X379375Y356091*
Y356318*
X376406Y354273D02*
X376250Y354386D01*
X376094Y354273*
X376250Y354159*
X376406Y354273*
X378750Y353136D02*
X378906Y352909D01*
X379375Y352568*
X376094*
X378281Y351545D02*
X376719D01*
X376250Y351432*
X376094Y351205*
Y350864*
X376250Y350636*
X376719Y350295*
X378281D02*
X376094D01*
X379375Y349273D02*
X376094D01*
X379375D02*
Y347795D01*
X377812Y349273D02*
Y348364D01*
X235682Y254375D02*
X235341Y254219D01*
X235114Y253750*
X235000Y252969*
Y252500*
X235114Y251719*
X235341Y251250*
X235682Y251094*
X235909*
X236250Y251250*
X236477Y251719*
X236591Y252500*
Y252969*
X236477Y253750*
X236250Y254219*
X235909Y254375*
X235682*
X237727Y251406D02*
X237614Y251250D01*
X237727Y251094*
X237841Y251250*
X237727Y251406*
X238864Y253750D02*
X239091Y253906D01*
X239432Y254375*
Y251094*
X240455Y253281D02*
Y251719D01*
X240568Y251250*
X240795Y251094*
X241136*
X241364Y251250*
X241705Y251719*
Y253281D02*
Y251094D01*
X242727Y254375D02*
Y251094D01*
Y254375D02*
X244205D01*
X242727Y252813D02*
X243636D01*
X235682Y287375D02*
X235341Y287219D01*
X235114Y286750*
X235000Y285969*
Y285500*
X235114Y284719*
X235341Y284250*
X235682Y284094*
X235909*
X236250Y284250*
X236477Y284719*
X236591Y285500*
Y285969*
X236477Y286750*
X236250Y287219*
X235909Y287375*
X235682*
X237727Y284406D02*
X237614Y284250D01*
X237727Y284094*
X237841Y284250*
X237727Y284406*
X238864Y286750D02*
X239091Y286906D01*
X239432Y287375*
Y284094*
X240455Y286281D02*
Y284719D01*
X240568Y284250*
X240795Y284094*
X241136*
X241364Y284250*
X241705Y284719*
Y286281D02*
Y284094D01*
X242727Y287375D02*
Y284094D01*
Y287375D02*
X244205D01*
X242727Y285813D02*
X243636D01*
X490000Y263750D02*
X490227Y263906D01*
X490568Y264375*
Y261094*
X492727Y264375D02*
X491591Y262188D01*
X491591D02*
X493295D01*
X492727Y264375D02*
Y261094D01*
X495795Y264375D02*
X494659D01*
X494545Y262969*
X494659Y263125*
X495000Y263281*
X495341*
X495682Y263125*
X495909Y262813*
X495909D02*
X496023Y262344D01*
X495909Y262031*
X495795Y261563*
X495795D02*
X495568Y261250D01*
X495227Y261094*
X494886*
X494545Y261250*
X494432Y261406*
X494318Y261719*
X497045Y264375D02*
Y261094D01*
X498636Y264375D02*
X497045Y262188D01*
X497614Y262969D02*
X498636Y261094D01*
X481477Y264375D02*
X480341D01*
X480227Y262969*
X480341Y263125*
X480682Y263281*
X481023*
X481364Y263125*
X481591Y262813*
X481591D02*
X481705Y262344D01*
X481591Y262031*
X481477Y261563*
X481477D02*
X481250Y261250D01*
X480909Y261094*
X480568*
X480227Y261250*
X480114Y261406*
X480000Y261719*
X482727Y264375D02*
Y261094D01*
X484318Y264375D02*
X482727Y262188D01*
X483295Y262969D02*
X484318Y261094D01*
X283114Y193594D02*
Y193750D01*
X283227Y194063*
X283227D02*
X283341Y194219D01*
X283568Y194375*
X284023*
X284250Y194219*
X284364Y194063*
X284364D02*
X284477Y193750D01*
Y193438*
X284477D02*
X284364Y193125D01*
X284136Y192656*
X283000Y191094*
X284591*
X287091Y194375D02*
X285955D01*
X285841Y192969*
X285955Y193125*
X286295Y193281*
X286636*
X286977Y193125*
X287205Y192813*
X287205D02*
X287318Y192344D01*
X287205Y192031*
X287091Y191563*
X287091D02*
X286864Y191250D01*
X286523Y191094*
X286182*
X285841Y191250*
X285727Y191406*
X285614Y191719*
X288341Y194375D02*
Y191094D01*
X289932Y194375D02*
X288341Y192188D01*
X288909Y192969D02*
X289932Y191094D01*
X286477Y174375D02*
X285341D01*
X285227Y172969*
X285341Y173125*
X285682Y173281*
X286023*
X286364Y173125*
X286591Y172813*
X286591D02*
X286705Y172344D01*
X286591Y172031*
X286477Y171563*
X286477D02*
X286250Y171250D01*
X285909Y171094*
X285568*
X285227Y171250*
X285114Y171406*
X285000Y171719*
X287727Y174375D02*
Y171094D01*
X289318Y174375D02*
X287727Y172188D01*
X288295Y172969D02*
X289318Y171094D01*
X385375Y251773D02*
Y250523D01*
X384125Y251205*
Y250864*
X383969Y250636*
X383813Y250523*
X383813D02*
X383344Y250409D01*
X383031*
X382563Y250523*
X382563D02*
X382250Y250750D01*
X382094Y251091*
Y251432*
X382250Y251773*
X382406Y251886*
X382719Y252000*
X382406Y249273D02*
X382250Y249386D01*
X382094Y249273*
X382250Y249159*
X382406Y249273*
X385375Y246545D02*
X382094Y247682D01*
X385375Y248136D02*
Y246545D01*
Y245523D02*
X382094D01*
X385375Y243932D02*
X383188Y245523D01*
X383969Y244955D02*
X382094Y243932D01*
X384364Y235906D02*
X384250Y236219D01*
X383909Y236375*
X383682*
X383341Y236219*
X383114Y235750*
X383000Y234969*
Y234188*
X383000D02*
X383114Y233563D01*
X383114D02*
X383341Y233250D01*
X383682Y233094*
X383795*
X384136Y233250*
X384364Y233563*
X384364D02*
X384477Y234031D01*
Y234188*
X384477D02*
X384364Y234656D01*
X384136Y234969*
X383795Y235125*
X383682*
X383341Y234969*
X383114Y234656*
X383000Y234188*
X386068Y236375D02*
X385727Y236219D01*
X385614Y235906*
Y235594*
X385727Y235281*
X385955Y235125*
X386409Y234969*
X386750Y234813*
X386750D02*
X386977Y234500D01*
X387091Y234188*
X387091D02*
Y233719D01*
X386977Y233406*
X386864Y233250*
X386523Y233094*
X386068*
X385727Y233250*
X385614Y233406*
X385500Y233719*
Y234188*
X385500D02*
X385614Y234500D01*
X385841Y234813*
X385841D02*
X386182Y234969D01*
X386636Y235125*
X386864Y235281*
X386977Y235594*
Y235906*
X386864Y236219*
X386523Y236375*
X386068*
X388795D02*
X388455Y236219D01*
X388227Y235750*
X388114Y234969*
Y234500*
X388227Y233719*
X388455Y233250*
X388795Y233094*
X389023*
X389364Y233250*
X389591Y233719*
X389705Y234500*
Y234969*
X389591Y235750*
X389364Y236219*
X389023Y236375*
X388795*
X447375Y258523D02*
Y259659D01*
X445969Y259773*
X446125Y259659*
X446281Y259318*
Y258977*
X446125Y258636*
X445813Y258409*
X445813D02*
X445344Y258295D01*
X445031Y258409*
X444563Y258523*
X444563D02*
X444250Y258750D01*
X444094Y259091*
Y259432*
X444250Y259773*
X444406Y259886*
X444719Y260000*
X447375Y257273D02*
X444094D01*
X447375Y255682D02*
X445188Y257273D01*
X445969Y256705D02*
X444094Y255682D01*
X384364Y212906D02*
X384250Y213219D01*
X383909Y213375*
X383682*
X383341Y213219*
X383114Y212750*
X383000Y211969*
Y211188*
X383000D02*
X383114Y210563D01*
X383114D02*
X383341Y210250D01*
X383682Y210094*
X383795*
X384136Y210250*
X384364Y210563*
X384364D02*
X384477Y211031D01*
Y211188*
X384477D02*
X384364Y211656D01*
X384136Y211969*
X383795Y212125*
X383682*
X383341Y211969*
X383114Y211656*
X383000Y211188*
X386068Y213375D02*
X385727Y213219D01*
X385614Y212906*
Y212594*
X385727Y212281*
X385955Y212125*
X386409Y211969*
X386750Y211813*
X386750D02*
X386977Y211500D01*
X387091Y211188*
X387091D02*
Y210719D01*
X386977Y210406*
X386864Y210250*
X386523Y210094*
X386068*
X385727Y210250*
X385614Y210406*
X385500Y210719*
Y211188*
X385500D02*
X385614Y211500D01*
X385841Y211813*
X385841D02*
X386182Y211969D01*
X386636Y212125*
X386864Y212281*
X386977Y212594*
Y212906*
X386864Y213219*
X386523Y213375*
X386068*
X388795D02*
X388455Y213219D01*
X388227Y212750*
X388114Y211969*
Y211500*
X388227Y210719*
X388455Y210250*
X388795Y210094*
X389023*
X389364Y210250*
X389591Y210719*
X389705Y211500*
Y211969*
X389591Y212750*
X389364Y213219*
X389023Y213375*
X388795*
X191477Y185375D02*
X190341D01*
X190227Y183969*
X190341Y184125*
X190682Y184281*
X191023*
X191364Y184125*
X191591Y183813*
X191591D02*
X191705Y183344D01*
X191591Y183031*
X191477Y182563*
X191477D02*
X191250Y182250D01*
X190909Y182094*
X190568*
X190227Y182250*
X190114Y182406*
X190000Y182719*
X192727Y184750D02*
X192955Y184906D01*
X193295Y185375*
Y182094*
X195000Y185375D02*
X194659Y185219D01*
X194432Y184750*
X194318Y183969*
Y183500*
X194432Y182719*
X194659Y182250*
X195000Y182094*
X195227*
X195568Y182250*
X195795Y182719*
X195909Y183500*
Y183969*
X195795Y184750*
X195568Y185219*
X195227Y185375*
X195000*
X236625Y201568D02*
X236781Y201227D01*
X237094Y201114*
X237406*
X237719Y201227*
X237875Y201455*
X238031Y201909*
X238188Y202250*
X238188D02*
X238500Y202477D01*
X238813Y202591*
X238813D02*
X239281D01*
X239594Y202477*
X239750Y202364*
X239906Y202023*
Y201568*
X239750Y201227*
X239594Y201114*
X239281Y201000*
X238813*
X238813D02*
X238500Y201114D01*
X238188Y201341*
X238188D02*
X238031Y201682D01*
X237875Y202136*
X237719Y202364*
X237406Y202477*
X237094*
X236781Y202364*
X236625Y202023*
Y201568*
X237406Y203727D02*
X237250D01*
X236938Y203841*
X236938D02*
X236781Y203955D01*
X236625Y204182*
Y204636*
X236781Y204864*
X236938Y204977*
X236938D02*
X237250Y205091D01*
X237563*
X237563D02*
X237875Y204977D01*
X238344Y204750*
X239906Y203614*
Y205205*
X236625Y206909D02*
X236781Y206568D01*
X237250Y206341*
X238031Y206227*
X238500*
X239281Y206341*
X239750Y206568*
X239906Y206909*
Y207136*
X239750Y207477*
X239281Y207705*
X238500Y207818*
X238031*
X237250Y207705*
X236781Y207477*
X236625Y207136*
Y206909*
X183625Y194477D02*
Y193341D01*
X185031Y193227*
X184875Y193341*
X184719Y193682*
Y194023*
X184875Y194364*
X185187Y194591*
X185187D02*
X185656Y194705D01*
X185969Y194591*
X186437Y194477*
X186437D02*
X186750Y194250D01*
X186906Y193909*
Y193568*
X186750Y193227*
X186594Y193114*
X186281Y193000*
X184250Y195727D02*
X184094Y195955D01*
X183625Y196295*
X186906*
X183625Y198000D02*
X183781Y197659D01*
X184250Y197432*
X185031Y197318*
X185500*
X186281Y197432*
X186750Y197659*
X186906Y198000*
Y198227*
X186750Y198568*
X186281Y198795*
X185500Y198909*
X185031*
X184250Y198795*
X183781Y198568*
X183625Y198227*
Y198000*
X194250Y202000D02*
X194094Y202227D01*
X193625Y202568*
X196906*
X194094Y204955D02*
X193781Y204841D01*
X193625Y204500*
Y204273*
X193781Y203932*
X194250Y203705*
X195031Y203591*
X195812*
X195812D02*
X196437Y203705D01*
X196437D02*
X196750Y203932D01*
X196906Y204273*
Y204386*
X196750Y204727*
X196437Y204955*
X196437D02*
X195969Y205068D01*
X195812*
X195812D02*
X195344Y204955D01*
X195031Y204727*
X194875Y204386*
Y204273*
X195031Y203932*
X195344Y203705*
X195812Y203591*
X194719Y206091D02*
X198000D01*
X195187D02*
X194875Y206318D01*
X194719Y206545*
Y206886*
X194875Y207114*
X195187Y207341*
X195187D02*
X195656Y207455D01*
X195969*
X196437Y207341*
X196437D02*
X196750Y207114D01*
X196906Y206886*
Y206545*
X196750Y206318*
X196437Y206091*
X193625Y208477D02*
X196906D01*
X193625D02*
Y209955D01*
X195187Y208477D02*
Y209386D01*
X231250Y201000D02*
X231094Y201227D01*
X230625Y201568*
X233906*
X231094Y203955D02*
X230781Y203841D01*
X230625Y203500*
Y203273*
X230781Y202932*
X231250Y202705*
X232031Y202591*
X232813*
X232813D02*
X233438Y202705D01*
X233438D02*
X233750Y202932D01*
X233906Y203273*
Y203386*
X233750Y203727*
X233438Y203955*
X233438D02*
X232969Y204068D01*
X232813*
X232813D02*
X232344Y203955D01*
X232031Y203727*
X231875Y203386*
Y203273*
X232031Y202932*
X232344Y202705*
X232813Y202591*
X231719Y205091D02*
X235000D01*
X232188D02*
X231875Y205318D01*
X231719Y205545*
Y205886*
X231875Y206114*
X232188Y206341*
X232188D02*
X232656Y206455D01*
X232969*
X233438Y206341*
X233438D02*
X233750Y206114D01*
X233906Y205886*
Y205545*
X233750Y205318*
X233438Y205091*
X230625Y207477D02*
X233906D01*
X230625D02*
Y208955D01*
X232188Y207477D02*
Y208386D01*
X239375Y190864D02*
X237187Y192000D01*
X237187D02*
Y190295D01*
X239375Y190864D02*
X236094D01*
X239375Y187682D02*
X236094Y188818D01*
X239375Y189273D02*
Y187682D01*
X238281Y186659D02*
X236094D01*
X237656D02*
X238125Y186318D01*
X238281Y186091*
Y185750*
X238125Y185523*
X237656Y185409*
X236094*
X239375Y184386D02*
X236094D01*
X239375D02*
Y182909D01*
X237812Y184386D02*
Y183477D01*
X211136Y174375D02*
X210000Y172188D01*
X210000D02*
X211705D01*
X211136Y174375D02*
Y171094D01*
X214318Y174375D02*
X213182Y171094D01*
X212727Y174375D02*
X214318D01*
X215341Y173281D02*
Y171094D01*
Y172656D02*
X215682Y173125D01*
X215909Y173281*
X216250*
X216477Y173125*
X216591Y172656*
Y171094*
X217614Y174375D02*
Y171094D01*
Y174375D02*
X219091D01*
X217614Y172813D02*
X218523D01*
X578625Y137136D02*
X580812Y136000D01*
X580812D02*
Y137705D01*
X578625Y137136D02*
X581906D01*
X581594Y138841D02*
X581750Y138727D01*
X581906Y138841*
X581750Y138955*
X581594Y138841*
X578625Y141568D02*
X581906Y140432D01*
X578625Y139977D02*
Y141568D01*
Y142591D02*
X581906D01*
X578625Y144182D02*
X580812Y142591D01*
X580031Y143159D02*
X581906Y144182D01*
X586625Y137136D02*
X588812Y136000D01*
X588812D02*
Y137705D01*
X586625Y137136D02*
X589906D01*
X589594Y138841D02*
X589750Y138727D01*
X589906Y138841*
X589750Y138955*
X589594Y138841*
X586625Y141568D02*
X589906Y140432D01*
X586625Y139977D02*
Y141568D01*
Y142591D02*
X589906D01*
X586625Y144182D02*
X588812Y142591D01*
X588031Y143159D02*
X589906Y144182D01*
X594625Y137136D02*
X596812Y136000D01*
X596812D02*
Y137705D01*
X594625Y137136D02*
X597906D01*
X597594Y138841D02*
X597750Y138727D01*
X597906Y138841*
X597750Y138955*
X597594Y138841*
X594625Y141568D02*
X597906Y140432D01*
X594625Y139977D02*
Y141568D01*
Y142591D02*
X597906D01*
X594625Y144182D02*
X596812Y142591D01*
X596031Y143159D02*
X597906Y144182D01*
X602625Y137136D02*
X604812Y136000D01*
X604812D02*
Y137705D01*
X602625Y137136D02*
X605906D01*
X605594Y138841D02*
X605750Y138727D01*
X605906Y138841*
X605750Y138955*
X605594Y138841*
X602625Y141568D02*
X605906Y140432D01*
X602625Y139977D02*
Y141568D01*
Y142591D02*
X605906D01*
X602625Y144182D02*
X604812Y142591D01*
X604031Y143159D02*
X605906Y144182D01*
X610625Y137136D02*
X612812Y136000D01*
X612812D02*
Y137705D01*
X610625Y137136D02*
X613906D01*
X613594Y138841D02*
X613750Y138727D01*
X613906Y138841*
X613750Y138955*
X613594Y138841*
X610625Y141568D02*
X613906Y140432D01*
X610625Y139977D02*
Y141568D01*
Y142591D02*
X613906D01*
X610625Y144182D02*
X612812Y142591D01*
X612031Y143159D02*
X613906Y144182D01*
X618625Y137136D02*
X620812Y136000D01*
X620812D02*
Y137705D01*
X618625Y137136D02*
X621906D01*
X621594Y138841D02*
X621750Y138727D01*
X621906Y138841*
X621750Y138955*
X621594Y138841*
X618625Y141568D02*
X621906Y140432D01*
X618625Y139977D02*
Y141568D01*
Y142591D02*
X621906D01*
X618625Y144182D02*
X620812Y142591D01*
X620031Y143159D02*
X621906Y144182D01*
X235682Y293375D02*
X235341Y293219D01*
X235114Y292750*
X235000Y291969*
Y291500*
X235114Y290719*
X235341Y290250*
X235682Y290094*
X235909*
X236250Y290250*
X236477Y290719*
X236591Y291500*
Y291969*
X236477Y292750*
X236250Y293219*
X235909Y293375*
X235682*
X237727Y290406D02*
X237614Y290250D01*
X237727Y290094*
X237841Y290250*
X237727Y290406*
X238864Y292750D02*
X239091Y292906D01*
X239432Y293375*
Y290094*
X240455Y292281D02*
Y290719D01*
X240568Y290250*
X240795Y290094*
X241136*
X241364Y290250*
X241705Y290719*
Y292281D02*
Y290094D01*
X242727Y293375D02*
Y290094D01*
Y293375D02*
X244205D01*
X242727Y291813D02*
X243636D01*
X234682Y328375D02*
X234341Y328219D01*
X234114Y327750*
X234000Y326969*
Y326500*
X234114Y325719*
X234341Y325250*
X234682Y325094*
X234909*
X235250Y325250*
X235477Y325719*
X235591Y326500*
Y326969*
X235477Y327750*
X235250Y328219*
X234909Y328375*
X234682*
X236727Y325406D02*
X236614Y325250D01*
X236727Y325094*
X236841Y325250*
X236727Y325406*
X237864Y327750D02*
X238091Y327906D01*
X238432Y328375*
Y325094*
X239455Y327281D02*
Y325719D01*
X239568Y325250*
X239795Y325094*
X240136*
X240364Y325250*
X240705Y325719*
Y327281D02*
Y325094D01*
X241727Y328375D02*
Y325094D01*
Y328375D02*
X243205D01*
X241727Y326813D02*
X242636D01*
X308114Y261594D02*
Y261750D01*
X308227Y262063*
X308227D02*
X308341Y262219D01*
X308568Y262375*
X309023*
X309250Y262219*
X309364Y262063*
X309364D02*
X309477Y261750D01*
Y261438*
X309477D02*
X309364Y261125D01*
X309136Y260656*
X308000Y259094*
X309591*
X311295Y262375D02*
X310955Y262219D01*
X310727Y261750*
X310614Y260969*
Y260500*
X310727Y259719*
X310955Y259250*
X311295Y259094*
X311523*
X311864Y259250*
X312091Y259719*
X312205Y260500*
Y260969*
X312091Y261750*
X311864Y262219*
X311523Y262375*
X311295*
X313227D02*
Y259094D01*
X314818Y262375D02*
X313227Y260188D01*
X313795Y260969D02*
X314818Y259094D01*
X308114Y271594D02*
Y271750D01*
X308227Y272063*
X308227D02*
X308341Y272219D01*
X308568Y272375*
X309023*
X309250Y272219*
X309364Y272063*
X309364D02*
X309477Y271750D01*
Y271438*
X309477D02*
X309364Y271125D01*
X309136Y270656*
X308000Y269094*
X309591*
X311295Y272375D02*
X310955Y272219D01*
X310727Y271750*
X310614Y270969*
Y270500*
X310727Y269719*
X310955Y269250*
X311295Y269094*
X311523*
X311864Y269250*
X312091Y269719*
X312205Y270500*
Y270969*
X312091Y271750*
X311864Y272219*
X311523Y272375*
X311295*
X313227D02*
Y269094D01*
X314818Y272375D02*
X313227Y270188D01*
X313795Y270969D02*
X314818Y269094D01*
G54D33*
X295000Y172500D02*
Y192500D01*
X305000*
Y172500*
X295000*
X305000Y137500D02*
X205000D01*
Y167500*
X215000*
Y157500*
X255000*
Y167500*
X265000*
Y157500*
X305000*
Y137500*
X135000D02*
Y237500D01*
X165000*
Y227500*
X155000*
Y187500*
X165000*
Y177500*
X155000*
Y137500*
X135000*
Y257500D02*
Y357500D01*
X165000*
Y347500*
X155000*
Y307500*
X165000*
Y297500*
X155000*
Y257500*
X135000*
X205000Y357500D02*
X305000D01*
Y327500*
X295000*
Y337500*
X255000*
Y327500*
X245000*
Y337500*
X205000*
Y357500*
X413843Y150724D02*
Y141276D01*
X394157*
Y150724*
X413843*
X375654Y124795D02*
X432346D01*
Y103142*
X426047*
Y107079*
X381953*
Y103142*
X375654*
Y124795*
X494843Y150724D02*
Y141276D01*
X475157*
Y150724*
X494843*
X439654Y124795D02*
X496346D01*
Y103142*
X490047*
Y107079*
X445953*
Y103142*
X439654*
Y124795*
X541843Y150724D02*
Y141276D01*
X522157*
Y150724*
X541843*
X503654Y124795D02*
X560346D01*
Y103142*
X554047*
Y107079*
X509953*
Y103142*
X503654*
Y124795*
X566220Y380205D02*
X493780D01*
Y401858*
X500079*
Y397921*
X559921*
Y401858*
X566220*
Y380205*
X403465Y337157D02*
X386535D01*
Y356843*
X403465*
Y337157*
X410124Y337551D02*
G03X410124I-557J0D01*
G01X218535Y282795D02*
X235465D01*
Y257205*
X218535*
Y282795*
X211415Y281811D02*
G03X211415I-557J0D01*
G01X200205Y372189D02*
Y395811D01*
X210638*
X214575Y399354*
X221858*
Y392661*
X217921*
Y375339*
X221858*
Y368646*
X214575*
X210638Y372189*
X200205*
X230205D02*
Y395811D01*
X240638*
X244575Y399354*
X251858*
Y392661*
X247921*
Y375339*
X251858*
Y368646*
X244575*
X240638Y372189*
X230205*
X260205D02*
Y395811D01*
X270638*
X274575Y399354*
X281858*
Y392661*
X277921*
Y375339*
X281858*
Y368646*
X274575*
X270638Y372189*
X260205*
X290205D02*
Y395811D01*
X300638*
X304575Y399354*
X311858*
Y392661*
X307921*
Y375339*
X311858*
Y368646*
X304575*
X300638Y372189*
X290205*
X320205D02*
Y395811D01*
X330638*
X334575Y399354*
X341858*
Y392661*
X337921*
Y375339*
X341858*
Y368646*
X334575*
X330638Y372189*
X320205*
X350205D02*
Y395811D01*
X360638*
X364575Y399354*
X371858*
Y392661*
X367921*
Y375339*
X371858*
Y368646*
X364575*
X360638Y372189*
X350205*
X380205D02*
Y395811D01*
X390638*
X394575Y399354*
X401858*
Y392661*
X397921*
Y375339*
X401858*
Y368646*
X394575*
X390638Y372189*
X380205*
X410205D02*
Y395811D01*
X420638*
X424575Y399354*
X431858*
Y392661*
X427921*
Y375339*
X431858*
Y368646*
X424575*
X420638Y372189*
X410205*
X623409Y380205D02*
X574591D01*
Y401858*
X580496*
Y397921*
X617504*
Y401858*
X623409*
Y380205*
X567780Y124795D02*
X640220D01*
Y103142*
X633921*
Y107079*
X574079*
Y103142*
X567780*
Y124795*
X124795Y286811D02*
Y263189D01*
X114362*
X110425Y259646*
X103142*
Y266339*
X107079*
Y283661*
X103142*
Y290354*
X110425*
X114362Y286811*
X124795*
X661504Y286937D02*
Y179063D01*
X628039*
Y286937*
X661504*
X124795Y251409D02*
Y202591D01*
X103142*
Y208496*
X107079*
Y245504*
X103142*
Y251409*
X124795*
X223528Y124795D02*
X264472D01*
Y103142*
X258173*
Y107079*
X229827*
Y103142*
X223528*
Y124795*
X175528D02*
X216472D01*
Y103142*
X210173*
Y107079*
X181827*
Y103142*
X175528*
Y124795*
X128150Y369795D02*
Y394205D01*
X191850*
Y369795*
X128150*
X129788Y364283D02*
G03X129788I-615J0D01*
G01X129173D02*
G03X129173I-39J0D01*
G01X129331D02*
G03X129331I-158J0D01*
G01X124795Y190811D02*
Y167189D01*
X114362*
X110425Y163646*
X103142*
Y170339*
X107079*
Y187661*
X103142*
Y194354*
X110425*
X114362Y190811*
X124795*
Y151811D02*
Y128189D01*
X114362*
X110425Y124646*
X103142*
Y131339*
X107079*
Y148661*
X103142*
Y155354*
X110425*
X114362Y151811*
X124795*
X368524Y100598D02*
X271476D01*
Y125402*
X368524*
Y100598*
X324724Y125205D02*
Y122843D01*
X364980*
Y103157*
X275020*
Y122843*
X315276*
Y125205*
X209094Y220685D02*
X220906D01*
Y181315*
X209094*
Y220685*
X203189Y221512D02*
G03X203189I-394J0D01*
G01X662496Y327000D02*
G03X662496I-31496J0D01*
G01X127528Y124795D02*
X168472D01*
Y103142*
X162173*
Y107079*
X133827*
Y103142*
X127528*
Y124795*
X218535Y321795D02*
X235465D01*
Y296205*
X218535*
Y321795*
X211415Y320811D02*
G03X211415I-557J0D01*
G01X124795Y371220D02*
Y298780D01*
X103142*
Y305079*
X107079*
Y364921*
X103142*
Y371220*
X124795*
X427598Y221055D02*
Y202945D01*
X402402*
Y221055*
X427598*
X399266Y223024D02*
G03X399266I-880J0D01*
G01X398924D02*
G03X398924I-459J0D01*
G01X427598Y265055D02*
Y246945D01*
X402402*
Y265055*
X427598*
X399266Y267024D02*
G03X399266I-880J0D01*
G01X398924D02*
G03X398924I-459J0D01*
G01X427598Y243055D02*
Y224945D01*
X402402*
Y243055*
X427598*
X399266Y245024D02*
G03X399266I-880J0D01*
G01X398924D02*
G03X398924I-459J0D01*
G74*
G01X0Y0D02*
M02*
