*
*
G04 PADS 9.3.1 Build Number: 456998 generated Gerber (RS-274-X) file*
G04 PC Version=2.1*
*
%IN "menial_board_21.pcb"*%
*
%MOIN*%
*
%FSLAX35Y35*%
*
*
*
*
G04 PC Standard Apertures*
*
*
G04 Thermal Relief Aperture macro.*
%AMTER*
1,1,$1,0,0*
1,0,$1-$2,0,0*
21,0,$3,$4,0,0,45*
21,0,$3,$4,0,0,135*
%
*
*
G04 Annular Aperture macro.*
%AMANN*
1,1,$1,0,0*
1,0,$2,0,0*
%
*
*
G04 Odd Aperture macro.*
%AMODD*
1,1,$1,0,0*
1,0,$1-0.005,0,0*
%
*
*
G04 PC Custom Aperture Macros*
*
*
*
*
*
*
G04 PC Aperture Table*
*
%ADD010C,0.001*%
%ADD019C,0.01*%
%ADD020C,0.007*%
%ADD022C,0.005*%
%ADD076C,0.00787*%
*
*
*
*
G04 PC Circuitry*
G04 Layer Name menial_board_21.pcb - circuitry*
%LPD*%
*
*
G04 PC Custom Flashes*
G04 Layer Name menial_board_21.pcb - flashes*
%LPD*%
*
*
G04 PC Circuitry*
G04 Layer Name menial_board_21.pcb - circuitry*
%LPD*%
*
G54D10*
G54D19*
G01X164819Y326693D02*
Y313307D01*
X184898*
Y326693*
X164819*
X163638Y331024D02*
G75*
G03X163638I-394J0D01*
G54D20*
G01X463428Y285168D02*
X468350D01*
X463428D02*
X468350Y283805D01*
X463428Y282441D02*
X468350Y283805D01*
X463428Y282441D02*
X468350D01*
X466475Y280907D02*
Y278861D01*
X466006*
X465537Y279032*
X465537D02*
X465303Y279202D01*
X465069Y279543*
Y280055*
X465303Y280395*
X465772Y280736*
X466475Y280907*
X466944*
X467647Y280736*
X468116Y280395*
X468350Y280055*
Y279543*
X468116Y279202*
X467647Y278861*
X465069Y277327D02*
X468350D01*
X466006D02*
X465303Y276816D01*
X465069Y276475*
Y275964*
X465303Y275623*
X466006Y275452*
X468350*
X463428Y273918D02*
X463662Y273748D01*
X463662D02*
X463428Y273577D01*
X463194Y273748*
X463428Y273918*
X465069Y273748D02*
X468350D01*
X465069Y269998D02*
X468350D01*
X465772D02*
X465303Y270339D01*
X465069Y270680*
Y271191*
X465303Y271532*
X465772Y271873*
X466475Y272043*
X466944*
X467647Y271873*
X468116Y271532*
X468350Y271191*
Y270680*
X468116Y270339*
X467647Y269998*
X463428Y268464D02*
X468350D01*
X463428Y263009D02*
X468350D01*
X463428D02*
Y261475D01*
X463662Y260964*
X463662D02*
X463897Y260793D01*
X464366Y260623*
X464834*
X465303Y260793*
X465537Y260964*
X465537D02*
X465772Y261475D01*
Y263009D02*
Y261475D01*
X466006Y260964*
X466241Y260793*
X466709Y260623*
X467412*
X467412D02*
X467881Y260793D01*
X468116Y260964*
X468350Y261475*
Y263009*
X465069Y258236D02*
X465303Y258577D01*
X465772Y258918*
X466475Y259089*
X466944*
X467647Y258918*
X468116Y258577*
X468350Y258236*
Y257725*
X468116Y257384*
X467647Y257043*
X466944Y256873*
X466475*
X465772Y257043*
X465303Y257384*
X465069Y257725*
Y258236*
Y253293D02*
X468350D01*
X465772D02*
X465303Y253634D01*
X465069Y253975*
Y254486*
X465303Y254827*
X465772Y255168*
X466475Y255339*
X466944*
X467647Y255168*
X468116Y254827*
X468350Y254486*
Y253975*
X468116Y253634*
X467647Y253293*
X465069Y251759D02*
X468350D01*
X466475D02*
X465772Y251589D01*
X465303Y251248*
X465069Y250907*
Y250395*
X463428Y246816D02*
X468350D01*
X465772D02*
X465303Y247157D01*
X465069Y247498*
Y248009*
X465303Y248350*
X465772Y248691*
X466475Y248861*
X466944*
X467647Y248691*
X468116Y248350*
X468350Y248009*
Y247498*
X468116Y247157*
X467647Y246816*
X465069Y241361D02*
X468350Y240339D01*
X465069Y239316D02*
X468350Y240339D01*
X464600Y237611D02*
X464366D01*
X463897Y237441*
X463662Y237270*
X463662D02*
X463428Y236930D01*
Y236248*
X463662Y235907*
X463662D02*
X463897Y235736D01*
X464366Y235566*
X464834*
X465303Y235736*
X466006Y236077*
X468350Y237782*
Y235395*
X467881Y233691D02*
X468116Y233861D01*
X468350Y233691*
X468116Y233520*
X467881Y233691*
X464366Y231986D02*
X464131Y231645D01*
X463428Y231134*
X468350*
X463428Y225680D02*
X468350D01*
X463428D02*
Y224145D01*
X463662Y223634*
X463662D02*
X463897Y223464D01*
X464366Y223293*
X464834*
X465303Y223464*
X465537Y223634*
X465537D02*
X465772Y224145D01*
Y225680*
Y224486D02*
X468350Y223293D01*
X466475Y221759D02*
Y219714D01*
X466006*
X465537Y219884*
X465537D02*
X465303Y220055D01*
X465069Y220395*
Y220907*
X465303Y221248*
X465772Y221589*
X466475Y221759*
X466944*
X467647Y221589*
X468116Y221248*
X468350Y220907*
Y220395*
X468116Y220055*
X467647Y219714*
X465069Y218180D02*
X468350Y217157D01*
X465069Y216134D02*
X468350Y217157D01*
X464600Y214430D02*
X464366D01*
X463897Y214259*
X463662Y214089*
X463662D02*
X463428Y213748D01*
Y213066*
X463662Y212725*
X463662D02*
X463897Y212555D01*
X464366Y212384*
X464834*
X465303Y212555*
X466006Y212895*
X468350Y214600*
Y212214*
X471428Y287594D02*
X471662Y287935D01*
X471662D02*
X472131Y288276D01*
X472600Y288447*
X473303Y288617*
X474475*
X475178Y288447*
X475647Y288276*
X476116Y287935*
X476350Y287594*
Y286912*
X476350D02*
X476116Y286572D01*
X475647Y286231*
X475178Y286060*
X474475Y285890*
X473303*
X472600Y286060*
X472131Y286231*
X471662Y286572*
X471662D02*
X471428Y286912D01*
X471428D02*
Y287594D01*
X473069Y284356D02*
X476350D01*
X474475D02*
X473772Y284185D01*
X473303Y283844*
X473069Y283503*
Y282992*
X474475Y281458D02*
Y279412D01*
X474475D02*
X474006D01*
X474006D02*
X473537Y279583D01*
X473537D02*
X473303Y279753D01*
X473069Y280094*
Y280606*
X473303Y280947*
X473772Y281287*
X473772D02*
X474475Y281458D01*
X474944*
X475647Y281287*
X475647D02*
X476116Y280947D01*
X476350Y280606*
Y280094*
X476116Y279753*
X475647Y279412*
X473069Y275833D02*
X476819D01*
X477522Y276003*
X477756Y276174*
X477991Y276515*
Y277026*
X477756Y277367*
X473772Y275833D02*
X473303Y276174D01*
X473069Y276515*
Y277026*
X473303Y277367*
X473772Y277708*
X474475Y277878*
X474944*
X475647Y277708*
X476116Y277367*
X476350Y277026*
Y276515*
X476116Y276174*
X475647Y275833*
X473069Y273447D02*
X473303Y273787D01*
X473303D02*
X473772Y274128D01*
X474475Y274299*
X474944*
X475647Y274128*
X476116Y273787*
X476116D02*
X476350Y273447D01*
Y272935*
X476116Y272594*
X475647Y272253*
X474944Y272083*
X474475*
X473772Y272253*
X473303Y272594*
X473069Y272935*
Y273447*
Y270549D02*
X476350D01*
X474006D02*
X473303Y270037D01*
X473303D02*
X473069Y269697D01*
Y269185*
X473303Y268844*
X474006Y268674*
X476350*
X472131Y260833D02*
X471662Y261174D01*
X471662D02*
X471428Y261685D01*
Y262367*
X471662Y262878*
X471662D02*
X472131Y263219D01*
X472600*
X473069Y263049*
X473303Y262878*
X473537Y262537*
X473537D02*
X474006Y261515D01*
X474241Y261174*
X474475Y261003*
X474944Y260833*
X475647*
X476116Y261174*
X476350Y261685*
Y262367*
X476116Y262878*
X475647Y263219*
X471428Y258787D02*
X475412D01*
X475412D02*
X476116Y258617D01*
X476350Y258276*
Y257935*
X473069Y259299D02*
Y258106D01*
Y254356D02*
X476350D01*
X473772D02*
X473303Y254697D01*
X473069Y255037*
X473069D02*
Y255549D01*
X473303Y255890*
X473772Y256231*
X474475Y256401*
X474944*
X475647Y256231*
X476116Y255890*
X476350Y255549*
Y255037*
X476350D02*
X476116Y254697D01*
X475647Y254356*
X471428Y252310D02*
X475412D01*
X475412D02*
X476116Y252140D01*
X476350Y251799*
Y251458*
X473069Y252822D02*
Y251628D01*
X474475Y249924D02*
Y247878D01*
X474006*
X473537Y248049*
X473537D02*
X473303Y248219D01*
X473069Y248560*
Y249072*
X473303Y249412*
X473303D02*
X473772Y249753D01*
X474475Y249924*
X474944*
X475647Y249753*
X476116Y249412*
X476116D02*
X476350Y249072D01*
Y248560*
X476116Y248219*
X475647Y247878*
X471428Y242424D02*
X474944D01*
X475647Y242253*
X476116Y241912*
X476116D02*
X476350Y241401D01*
Y241060*
X476116Y240549*
X475647Y240208*
X474944Y240037*
X474944D02*
X471428D01*
X473069Y238503D02*
X476350D01*
X474006D02*
X473303Y237992D01*
X473069Y237651*
Y237140*
X473303Y236799*
X474006Y236628*
X476350*
X471428Y235094D02*
X471662Y234924D01*
X471662D02*
X471428Y234753D01*
X471194Y234924*
X471428Y235094*
X473069Y234924D02*
X476350D01*
X473069Y233219D02*
X476350Y232197D01*
X473069Y231174D02*
X476350Y232197D01*
X474475Y229640D02*
Y227594D01*
X474006*
X473537Y227765*
X473537D02*
X473303Y227935D01*
X473069Y228276*
Y228787*
X473069D02*
X473303Y229128D01*
X473772Y229469*
X474475Y229640*
X474944*
X475647Y229469*
X476116Y229128*
X476350Y228787*
X476350D02*
Y228276D01*
X476116Y227935*
X475647Y227594*
X473069Y226060D02*
X476350D01*
X474475D02*
X473772Y225890D01*
X473303Y225549*
X473069Y225208*
Y224697*
X473772Y221287D02*
X473303Y221458D01*
X473069Y221969*
Y222481*
X473303Y222992*
X473772Y223162*
X473772D02*
X474241Y222992D01*
X474475Y222651*
X474709Y221799*
X474944Y221458*
X475412Y221287*
X475412D02*
X475647D01*
X475647D02*
X476116Y221458D01*
X476350Y221969*
Y222481*
X476116Y222992*
X475647Y223162*
X471428Y219753D02*
X471662Y219583D01*
X471662D02*
X471428Y219412D01*
X471428D02*
X471194Y219583D01*
X471428Y219753*
X473069Y219583D02*
X476350D01*
X471428Y217367D02*
X475412D01*
X475412D02*
X476116Y217197D01*
X476350Y216856*
Y216515*
X473069Y217878D02*
Y216685D01*
Y214810D02*
X476350Y213787D01*
X473069Y212765D02*
X476350Y213787D01*
X476350D02*
X477288Y214128D01*
X477288D02*
X477756Y214469D01*
X477991Y214810*
Y214981*
X479428Y296055D02*
X484350D01*
X479428D02*
Y294861D01*
X479662Y294350*
X479662D02*
X480131Y294009D01*
X480600Y293839*
X481303Y293668*
X482475*
X483178Y293839*
X483647Y294009*
X484116Y294350*
X484350Y294861*
Y296055*
X481069Y291964D02*
X484350Y290941D01*
X481069Y289918D02*
X484350Y290941D01*
X485288Y291282*
X485288D02*
X485756Y291623D01*
X485991Y291964*
Y292134*
X481069Y288384D02*
X484350D01*
X482006D02*
X481303Y287873D01*
X481069Y287532*
Y287020*
X481303Y286680*
X482006Y286509*
X484350*
X481069Y282930D02*
X484350D01*
X481772D02*
X481303Y283270D01*
X481069Y283611*
Y284123*
X481303Y284464*
X481772Y284805*
X482475Y284975*
X482944*
X483647Y284805*
X484116Y284464*
X484350Y284123*
Y283611*
X484116Y283270*
X483647Y282930*
X481069Y281395D02*
X484350D01*
X482006D02*
X481303Y280884D01*
X481069Y280543*
Y280032*
X481303Y279691*
X482006Y279520*
X484350*
X482006D02*
X481303Y279009D01*
X481069Y278668*
Y278157*
X481303Y277816*
X482006Y277645*
X484350*
X479428Y276111D02*
X479662Y275941D01*
X479662D02*
X479428Y275770D01*
X479194Y275941*
X479428Y276111*
X481069Y275941D02*
X484350D01*
X481772Y272191D02*
X481303Y272532D01*
X481069Y272873*
Y273384*
X481303Y273725*
X481772Y274066*
X482475Y274236*
X482944*
X483647Y274066*
X484116Y273725*
X484350Y273384*
Y272873*
X484116Y272532*
X483647Y272191*
X479428Y266736D02*
X484350D01*
X479428D02*
Y265202D01*
X479662Y264691*
X479662D02*
X479897Y264520D01*
X480366Y264350*
X480834*
X481303Y264520*
X481537Y264691*
X481537D02*
X481772Y265202D01*
Y266736*
Y265543D02*
X484350Y264350D01*
X481069Y261964D02*
X481303Y262305D01*
X481772Y262645*
X482475Y262816*
X482944*
X483647Y262645*
X484116Y262305*
X484350Y261964*
Y261452*
X484116Y261111*
X483647Y260770*
X482944Y260600*
X482475*
X481772Y260770*
X481303Y261111*
X481069Y261452*
Y261964*
X479428Y259066D02*
X484350D01*
X481772D02*
X481303Y258725D01*
X481069Y258384*
Y257873*
X481303Y257532*
X481772Y257191*
X482475Y257020*
X482944*
X483647Y257191*
X484116Y257532*
X484350Y257873*
Y258384*
X484116Y258725*
X483647Y259066*
X481069Y254634D02*
X481303Y254975D01*
X481772Y255316*
X482475Y255486*
X482944*
X483647Y255316*
X484116Y254975*
X484350Y254634*
Y254123*
X484116Y253782*
X483647Y253441*
X482944Y253270*
X482475*
X481772Y253441*
X481303Y253782*
X481069Y254123*
Y254634*
X479428Y251225D02*
X483412D01*
X483412D02*
X484116Y251055D01*
X484350Y250714*
Y250373*
X481069Y251736D02*
Y250543D01*
X479428Y248839D02*
X479662Y248668D01*
X479662D02*
X479428Y248498D01*
X479194Y248668*
X479428Y248839*
X481069Y248668D02*
X484350D01*
X481772Y244918D02*
X481303Y245259D01*
X481069Y245600*
Y246111*
X481303Y246452*
X481772Y246793*
X482475Y246964*
X482944*
X483647Y246793*
X484116Y246452*
X484350Y246111*
Y245600*
X484116Y245259*
X483647Y244918*
X481772Y241509D02*
X481303Y241680D01*
X481069Y242191*
Y242702*
X481303Y243214*
X481772Y243384*
X482241Y243214*
X482475Y242873*
X482709Y242020*
X482944Y241680*
X483412Y241509*
X483412D02*
X483647D01*
X484116Y241680*
X484350Y242191*
Y242702*
X484116Y243214*
X483647Y243384*
X479428Y236055D02*
X484350D01*
Y234009*
X481069Y230430D02*
X484350D01*
X481772D02*
X481303Y230770D01*
X481069Y231111*
Y231623*
X481303Y231964*
X481772Y232305*
X482475Y232475*
X482944*
X483647Y232305*
X484116Y231964*
X484350Y231623*
Y231111*
X484116Y230770*
X483647Y230430*
X479428Y228895D02*
X484350D01*
X481772D02*
X481303Y228555D01*
X481069Y228214*
Y227702*
X481303Y227361*
X481772Y227020*
X482475Y226850*
X482944*
X483647Y227020*
X484116Y227361*
X484350Y227702*
Y228214*
X484116Y228555*
X483647Y228895*
X481069Y224464D02*
X481303Y224805D01*
X481772Y225145*
X482475Y225316*
X482944*
X483647Y225145*
X484116Y224805*
X484350Y224464*
Y223952*
X484116Y223611*
X483647Y223270*
X482944Y223100*
X482475*
X481772Y223270*
X481303Y223611*
X481069Y223952*
Y224464*
Y221566D02*
X484350D01*
X482475D02*
X481772Y221395D01*
X481303Y221055*
X481069Y220714*
Y220202*
Y216623D02*
X484350D01*
X481772D02*
X481303Y216964D01*
X481069Y217305*
Y217816*
X481303Y218157*
X481772Y218498*
X482475Y218668*
X482944*
X483647Y218498*
X484116Y218157*
X484350Y217816*
Y217305*
X484116Y216964*
X483647Y216623*
X479428Y214577D02*
X483412D01*
X483412D02*
X484116Y214407D01*
X484350Y214066*
Y213725*
X481069Y215089D02*
Y213895D01*
Y211339D02*
X481303Y211680D01*
X481772Y212020*
X482475Y212191*
X482944*
X483647Y212020*
X484116Y211680*
X484350Y211339*
Y210827*
X484116Y210486*
X483647Y210145*
X482944Y209975*
X482475*
X481772Y210145*
X481303Y210486*
X481069Y210827*
Y211339*
Y208441D02*
X484350D01*
X482475D02*
X481772Y208270D01*
X481303Y207930*
X481069Y207589*
Y207077*
Y205373D02*
X484350Y204350D01*
X481069Y203327D02*
X484350Y204350D01*
X485288Y204691*
X485288D02*
X485756Y205032D01*
X485991Y205373*
Y205543*
X490428Y265714D02*
X495350D01*
X490428Y263327D02*
X493709Y265714D01*
X492537Y264861D02*
X495350Y263327D01*
X490428Y261793D02*
X490662Y261623D01*
X490662D02*
X490428Y261452D01*
X490194Y261623*
X490428Y261793*
X492069Y261623D02*
X495350D01*
X490428Y259407D02*
X494412D01*
X494412D02*
X495116Y259236D01*
X495350Y258895*
Y258555*
X492069Y259918D02*
Y258725D01*
X490428Y253100D02*
X495350D01*
X490428D02*
X495350Y251736D01*
X490428Y250373D02*
X495350Y251736D01*
X490428Y250373D02*
X495350D01*
X492069Y247986D02*
X492303Y248327D01*
X492772Y248668*
X493475Y248839*
X493944*
X494647Y248668*
X495116Y248327*
X495350Y247986*
Y247475*
X495116Y247134*
X494647Y246793*
X493944Y246623*
X493475*
X492772Y246793*
X492303Y247134*
X492069Y247475*
Y247986*
Y245089D02*
X495350D01*
X493475D02*
X492772Y244918D01*
X492303Y244577*
X492069Y244236*
Y243725*
X490428Y241680D02*
X494412D01*
X494412D02*
X495116Y241509D01*
X495350Y241168*
Y240827*
X492069Y242191D02*
Y240998D01*
Y238441D02*
X492303Y238782D01*
X492772Y239123*
X493475Y239293*
X493944*
X494647Y239123*
X495116Y238782*
X495350Y238441*
Y237930*
X495116Y237589*
X494647Y237248*
X493944Y237077*
X493475*
X492772Y237248*
X492303Y237589*
X492069Y237930*
Y238441*
Y235543D02*
X495350D01*
X493006D02*
X492303Y235032D01*
X492069Y234691*
Y234180*
X492303Y233839*
X493006Y233668*
X495350*
G54D22*
X390000Y124281D02*
Y121000D01*
Y124281D02*
X388977D01*
X388636Y124125*
X388523Y123969*
X388409Y123656*
Y123344*
X388523Y123031*
X388636Y122875*
X388977Y122719*
X390000*
X389205D02*
X388409Y121000D01*
X387159Y124281D02*
X385909D01*
X386591Y123031*
X386250*
X386023Y122875*
X385909Y122719*
X385795Y122250*
Y121938*
X385795D02*
X385909Y121469D01*
X386136Y121156*
X386477Y121000*
X386818*
X387159Y121156*
X387273Y121313*
X387273D02*
X387386Y121625D01*
X422000Y124281D02*
Y121000D01*
Y124281D02*
X420977D01*
X420636Y124125*
X420523Y123969*
X420409Y123656*
Y123344*
X420523Y123031*
X420636Y122875*
X420977Y122719*
X422000*
X421205D02*
X420409Y121000D01*
X418250Y124281D02*
X419386Y122094D01*
X417682*
X418250Y124281D02*
Y121000D01*
X454000Y124281D02*
Y121000D01*
Y124281D02*
X452977D01*
X452636Y124125*
X452523Y123969*
X452409Y123656*
Y123344*
X452523Y123031*
X452636Y122875*
X452977Y122719*
X454000*
X453205D02*
X452409Y121000D01*
X449909Y124281D02*
X451045D01*
X451159Y122875*
X451045Y123031*
X450705Y123188*
X450705D02*
X450364D01*
X450364D02*
X450023Y123031D01*
X449795Y122719*
X449682Y122250*
X449795Y121938*
X449795D02*
X449909Y121469D01*
X450136Y121156*
X450477Y121000*
X450818*
X451159Y121156*
X451273Y121313*
X451273D02*
X451386Y121625D01*
X486000Y124281D02*
Y121000D01*
Y124281D02*
X484977D01*
X484636Y124125*
X484523Y123969*
X484409Y123656*
Y123344*
X484523Y123031*
X484636Y122875*
X484977Y122719*
X486000*
X485205D02*
X484409Y121000D01*
X482023Y123813D02*
X482136Y124125D01*
X482477Y124281*
X482705*
X483045Y124125*
X483273Y123656*
X483386Y122875*
Y122094*
X483273Y121469*
X483045Y121156*
X482705Y121000*
X482591*
X482250Y121156*
X482023Y121469*
X481909Y121938*
X481909D02*
Y122094D01*
X482023Y122563*
X482023D02*
X482250Y122875D01*
X482591Y123031*
X482705*
X483045Y122875*
X483273Y122563*
X483273D02*
X483386Y122094D01*
X518000Y124281D02*
Y121000D01*
Y124281D02*
X516977D01*
X516636Y124125*
X516523Y123969*
X516409Y123656*
Y123344*
X516523Y123031*
X516636Y122875*
X516977Y122719*
X518000*
X517205D02*
X516409Y121000D01*
X513795Y124281D02*
X514932Y121000D01*
X515386Y124281D02*
X513795D01*
X550000D02*
Y121000D01*
Y124281D02*
X548977D01*
X548636Y124125*
X548523Y123969*
X548409Y123656*
Y123344*
X548523Y123031*
X548636Y122875*
X548977Y122719*
X550000*
X549205D02*
X548409Y121000D01*
X546818Y124281D02*
X547159Y124125D01*
X547273Y123813*
X547273D02*
Y123500D01*
X547159Y123188*
X547159D02*
X546932Y123031D01*
X546477Y122875*
X546136Y122719*
X545909Y122406*
X545795Y122094*
Y121625*
X545909Y121313*
X545909D02*
X546023Y121156D01*
X546364Y121000*
X546818*
X547159Y121156*
X547273Y121313*
X547273D02*
X547386Y121625D01*
Y122094*
X547273Y122406*
X547045Y122719*
X546705Y122875*
X546250Y123031*
X546023Y123188*
X546023D02*
X545909Y123500D01*
Y123813*
X545909D02*
X546023Y124125D01*
X546364Y124281*
X546818*
X551281Y365000D02*
X548000D01*
X551281D02*
Y366023D01*
X551125Y366364*
X550969Y366477*
X550656Y366591*
X550344*
X550031Y366477*
X549875Y366364*
X549719Y366023*
Y365000*
Y365795D02*
X548000Y366591D01*
X550656Y367614D02*
X550813Y367841D01*
X550813D02*
X551281Y368182D01*
X548000*
X551281Y370682D02*
Y369545D01*
X549875Y369432*
X550031Y369545*
X550188Y369886*
X550188D02*
Y370227D01*
X550188D02*
X550031Y370568D01*
X549719Y370795*
X549250Y370909*
X548938Y370795*
X548938D02*
X548469Y370682D01*
X548156Y370455*
X548000Y370114*
Y369773*
X548156Y369432*
X548313Y369318*
X548313D02*
X548625Y369205D01*
X543281Y365000D02*
X540000D01*
X543281D02*
Y366023D01*
X543125Y366364*
X542969Y366477*
X542656Y366591*
X542344*
X542031Y366477*
X541875Y366364*
X541719Y366023*
Y365000*
Y365795D02*
X540000Y366591D01*
X542656Y367614D02*
X542813Y367841D01*
X542813D02*
X543281Y368182D01*
X540000*
X542813Y370568D02*
X543125Y370455D01*
X543281Y370114*
Y369886*
X543125Y369545*
X542656Y369318*
X541875Y369205*
X541094*
X540469Y369318*
X540156Y369545*
X540000Y369886*
Y370000*
X540156Y370341*
X540469Y370568*
X540938Y370682*
X540938D02*
X541094D01*
X541563Y370568*
X541563D02*
X541875Y370341D01*
X542031Y370000*
Y369886*
X541875Y369545*
X541563Y369318*
X541563D02*
X541094Y369205D01*
X535281Y365000D02*
X532000D01*
X535281D02*
Y366023D01*
X535125Y366364*
X534969Y366477*
X534656Y366591*
X534344*
X534031Y366477*
X533875Y366364*
X533719Y366023*
Y365000*
Y365795D02*
X532000Y366591D01*
X534656Y367614D02*
X534813Y367841D01*
X534813D02*
X535281Y368182D01*
X532000*
X535281Y370795D02*
X532000Y369659D01*
X535281Y369205D02*
Y370795D01*
X528281Y365000D02*
X525000D01*
X528281D02*
Y366023D01*
X528125Y366364*
X527969Y366477*
X527656Y366591*
X527344*
X527031Y366477*
X526875Y366364*
X526719Y366023*
Y365000*
Y365795D02*
X525000Y366591D01*
X527656Y367614D02*
X527813Y367841D01*
X527813D02*
X528281Y368182D01*
X525000*
X528281Y369773D02*
X528125Y369432D01*
X527813Y369318*
X527813D02*
X527500D01*
X527188Y369432*
X527188D02*
X527031Y369659D01*
X526875Y370114*
X526719Y370455*
X526406Y370682*
X526094Y370795*
X525625*
X525313Y370682*
X525313D02*
X525156Y370568D01*
X525000Y370227*
Y369773*
X525156Y369432*
X525313Y369318*
X525313D02*
X525625Y369205D01*
X526094*
X526406Y369318*
X526719Y369545*
X526875Y369886*
X527031Y370341*
X527188Y370568*
X527188D02*
X527500Y370682D01*
X527813*
X527813D02*
X528125Y370568D01*
X528281Y370227*
Y369773*
X519281Y365000D02*
X516000D01*
X519281D02*
Y366023D01*
X519125Y366364*
X518969Y366477*
X518656Y366591*
X518344*
X518031Y366477*
X517875Y366364*
X517719Y366023*
Y365000*
Y365795D02*
X516000Y366591D01*
X518656Y367614D02*
X518813Y367841D01*
X518813D02*
X519281Y368182D01*
X516000*
X518188Y370682D02*
X517719Y370568D01*
X517406Y370341*
X517250Y370000*
Y369886*
X517406Y369545*
X517719Y369318*
X518188Y369205*
X518188D02*
X518344D01*
X518813Y369318*
X518813D02*
X519125Y369545D01*
X519281Y369886*
Y370000*
X519125Y370341*
X518813Y370568*
X518813D02*
X518188Y370682D01*
X518188D02*
X517406D01*
X516625Y370568*
X516156Y370341*
X516000Y370000*
Y369773*
X516156Y369432*
X516469Y369318*
X511281Y364000D02*
X508000D01*
X511281D02*
Y365023D01*
X511125Y365364*
X510969Y365477*
X510656Y365591*
X510344*
X510031Y365477*
X509875Y365364*
X509719Y365023*
Y364000*
Y364795D02*
X508000Y365591D01*
X510500Y366727D02*
X510656D01*
X510969Y366841*
X511125Y366955*
X511281Y367182*
Y367636*
X511125Y367864*
X510969Y367977*
X510656Y368091*
X510344*
X510031Y367977*
X509563Y367750*
X509563D02*
X508000Y366614D01*
Y368205*
X511281Y369909D02*
X511125Y369568D01*
X510656Y369341*
X509875Y369227*
X509406*
X508625Y369341*
X508156Y369568*
X508000Y369909*
Y370136*
X508156Y370477*
X508625Y370705*
X509406Y370818*
X509875*
X510656Y370705*
X511125Y370477*
X511281Y370136*
Y369909*
X125800Y224481D02*
Y221200D01*
Y224481D02*
X124777D01*
X124436Y224325*
X124323Y224169*
X124209Y223856*
Y223544*
X124323Y223231*
X124436Y223075*
X124777Y222919*
X125800*
X125005D02*
X124209Y221200D01*
X123073Y223700D02*
Y223856D01*
X122959Y224169*
X122845Y224325*
X122618Y224481*
X122164*
X121936Y224325*
X121823Y224169*
X121709Y223856*
Y223544*
X121823Y223231*
X122050Y222763*
X122050D02*
X123186Y221200D01*
X121595*
X120573Y223856D02*
X120345Y224013D01*
X120345D02*
X120005Y224481D01*
Y221200*
X125800Y232281D02*
Y229000D01*
Y232281D02*
X124777D01*
X124436Y232125*
X124323Y231969*
X124209Y231656*
Y231344*
X124323Y231031*
X124436Y230875*
X124777Y230719*
X125800*
X125005D02*
X124209Y229000D01*
X123073Y231500D02*
Y231656D01*
X122959Y231969*
X122845Y232125*
X122618Y232281*
X122164*
X121936Y232125*
X121823Y231969*
X121709Y231656*
Y231344*
X121823Y231031*
X122050Y230563*
X122050D02*
X123186Y229000D01*
X121595*
X120459Y231500D02*
Y231656D01*
X120345Y231969*
X120232Y232125*
X120005Y232281*
X119550*
X119323Y232125*
X119209Y231969*
X119095Y231656*
Y231344*
X119209Y231031*
X119436Y230563*
X119436D02*
X120573Y229000D01*
X118982*
X125800Y240681D02*
Y237400D01*
Y240681D02*
X124777D01*
X124436Y240525*
X124323Y240369*
X124209Y240056*
Y239744*
X124323Y239431*
X124436Y239275*
X124777Y239119*
X125800*
X125005D02*
X124209Y237400D01*
X123073Y239900D02*
Y240056D01*
X122959Y240369*
X122845Y240525*
X122618Y240681*
X122164*
X121936Y240525*
X121823Y240369*
X121709Y240056*
Y239744*
X121823Y239431*
X122050Y238963*
X122050D02*
X123186Y237400D01*
X121595*
X120345Y240681D02*
X119095D01*
X119777Y239431*
X119436*
X119209Y239275*
X119095Y239119*
X118982Y238650*
Y238338*
X118982D02*
X119095Y237869D01*
X119323Y237556*
X119664Y237400*
X120005*
X120345Y237556*
X120459Y237713*
X120459D02*
X120573Y238025D01*
X239281Y131000D02*
X236000D01*
X239281D02*
Y132023D01*
X239125Y132364*
X238969Y132477*
X238656Y132591*
X238344*
X238031Y132477*
X237875Y132364*
X237719Y132023*
Y131000*
Y131795D02*
X236000Y132591D01*
X238500Y133727D02*
X238656D01*
X238969Y133841*
X239125Y133955*
X239281Y134182*
Y134636*
X239125Y134864*
X238969Y134977*
X238656Y135091*
X238344*
X238031Y134977*
X237563Y134750*
X236000Y133614*
Y135205*
X239281Y137364D02*
X237094Y136227D01*
Y137932*
X239281Y137364D02*
X236000D01*
X201281Y132000D02*
X198000D01*
X201281D02*
Y133023D01*
X201125Y133364*
X200969Y133477*
X200656Y133591*
X200344*
X200031Y133477*
X199875Y133364*
X199719Y133023*
Y132000*
Y132795D02*
X198000Y133591D01*
X200500Y134727D02*
X200656D01*
X200969Y134841*
X201125Y134955*
X201281Y135182*
Y135636*
X201125Y135864*
X200969Y135977*
X200656Y136091*
X200344*
X200031Y135977*
X199563Y135750*
X198000Y134614*
Y136205*
X201281Y138705D02*
Y137568D01*
X199875Y137455*
X200031Y137568*
X200188Y137909*
Y138250*
X200031Y138591*
X199719Y138818*
X199250Y138932*
X198938Y138818*
X198469Y138705*
X198156Y138477*
X198000Y138136*
Y137795*
X198156Y137455*
X198313Y137341*
X198625Y137227*
X178000Y267081D02*
Y264738D01*
X178000D02*
X177886Y264269D01*
X177659Y263956*
X177318Y263800*
X177091*
X176750Y263956*
X176523Y264269*
X176409Y264738*
X176409D02*
Y267081D01*
X175386Y266456D02*
X175159Y266613D01*
X175159D02*
X174818Y267081D01*
Y263800*
X173795Y266456D02*
X173568Y266613D01*
X173568D02*
X173227Y267081D01*
Y263800*
X191295Y270500D02*
X191409Y270813D01*
X191409D02*
X191636Y271125D01*
X191864Y271281*
X192318*
X192545Y271125*
X192773Y270813*
X192773D02*
X192886Y270500D01*
X193000Y270031*
Y269250*
X192886Y268781*
X192773Y268469*
X192545Y268156*
X192318Y268000*
X191864*
X191636Y268156*
X191409Y268469*
X191295Y268781*
X190273Y270656D02*
X190045Y270813D01*
X190045D02*
X189705Y271281D01*
Y268000*
X187091Y271281D02*
X188227Y268000D01*
X188682Y271281D02*
X187091D01*
X189705Y235500D02*
X189591Y235187D01*
X189364Y234875*
X189136Y234719*
X188682*
X188455Y234875*
X188227Y235187*
X188114Y235500*
X188000Y235969*
Y236750*
X188114Y237219*
X188227Y237531*
X188455Y237844*
X188682Y238000*
X189136*
X189364Y237844*
X189591Y237531*
X189705Y237219*
X190727Y235344D02*
X190955Y235187D01*
X191295Y234719*
Y238000*
X192886Y234719D02*
X192545Y234875D01*
X192432Y235187*
Y235500*
X192545Y235812*
X192773Y235969*
X193227Y236125*
X193568Y236281*
X193795Y236594*
X193909Y236906*
Y237375*
X193795Y237687*
X193682Y237844*
X193341Y238000*
X192886*
X192545Y237844*
X192432Y237687*
X192318Y237375*
Y236906*
X192432Y236594*
X192659Y236281*
X193000Y236125*
X193455Y235969*
X193682Y235812*
X193795Y235500*
Y235187*
X193682Y234875*
X193341Y234719*
X192886*
X189500Y248705D02*
X189813Y248591D01*
X189813D02*
X190125Y248364D01*
X190281Y248136*
Y247682*
X190125Y247455*
X189813Y247227*
X189813D02*
X189500Y247114D01*
X189031Y247000*
X188250*
X187781Y247114*
X187469Y247227*
X187156Y247455*
X187000Y247682*
Y248136*
X187156Y248364*
X187469Y248591*
X187781Y248705*
X189656Y249727D02*
X189813Y249955D01*
X189813D02*
X190281Y250295D01*
X187000*
X189188Y252795D02*
X188719Y252682D01*
X188406Y252455*
X188250Y252114*
Y252000*
X188406Y251659*
X188719Y251432*
X189188Y251318*
X189188D02*
X189344D01*
X189813Y251432*
X189813D02*
X190125Y251659D01*
X190281Y252000*
Y252114*
X190125Y252455*
X189813Y252682*
X189813D02*
X189188Y252795D01*
X189188D02*
X188406D01*
X187625Y252682*
X187156Y252455*
X187000Y252114*
Y251886*
X187156Y251545*
X187469Y251432*
X145281Y132000D02*
X142000D01*
X145281D02*
Y133023D01*
X145125Y133364*
X144969Y133477*
X144656Y133591*
X144344*
X144031Y133477*
X143875Y133364*
X143719Y133023*
Y132000*
Y132795D02*
X142000Y133591D01*
X145281Y135750D02*
X143094Y134614D01*
Y136318*
X145281Y135750D02*
X142000D01*
X144813Y138705D02*
X145125Y138591D01*
X145281Y138250*
Y138023*
X145125Y137682*
X144656Y137455*
X143875Y137341*
X143094*
X142469Y137455*
X142156Y137682*
X142000Y138023*
Y138136*
X142156Y138477*
X142469Y138705*
X142938Y138818*
X143094*
X143563Y138705*
X143875Y138477*
X144031Y138136*
Y138023*
X143875Y137682*
X143563Y137455*
X143094Y137341*
X153281Y132000D02*
X150000D01*
X153281D02*
Y133023D01*
X153125Y133364*
X152969Y133477*
X152656Y133591*
X152344*
X152031Y133477*
X151875Y133364*
X151719Y133023*
Y132000*
Y132795D02*
X150000Y133591D01*
X153281Y135750D02*
X151094Y134614D01*
Y136318*
X153281Y135750D02*
X150000D01*
X153281Y138932D02*
X150000Y137795D01*
X153281Y137341D02*
Y138932D01*
X159119Y322600D02*
X161463D01*
X161463D02*
X161931Y322486D01*
X162244Y322259*
X162400Y321918*
Y321691*
X162244Y321350*
X161931Y321123*
X161463Y321009*
X161463D02*
X159119D01*
X159744Y319986D02*
X159588Y319759D01*
X159588D02*
X159119Y319418D01*
X162400*
X159119Y318168D02*
Y316918D01*
X160369Y317600*
Y317259*
X160525Y317032*
X160681Y316918*
X161150Y316805*
X161463*
X161463D02*
X161931Y316918D01*
X162244Y317145*
X162400Y317486*
Y317827*
X162244Y318168*
X162088Y318282*
X162088D02*
X161775Y318395D01*
X193500Y313695D02*
X193187Y313809D01*
X193187D02*
X192875Y314036D01*
X192719Y314264*
Y314718*
X192875Y314945*
X193187Y315173*
X193187D02*
X193500Y315286D01*
X193969Y315400*
X194750*
X195219Y315286*
X195531Y315173*
X195844Y314945*
X196000Y314718*
Y314264*
X195844Y314036*
X195531Y313809*
X195219Y313695*
X193500Y312559D02*
X193344D01*
X193031Y312445*
X192875Y312332*
X192719Y312105*
Y311650*
X192875Y311423*
X193031Y311309*
X193344Y311195*
X193656*
X193969Y311309*
X194437Y311536*
X194437D02*
X196000Y312673D01*
Y311082*
X192719Y308468D02*
X196000Y309605D01*
X192719Y310059D02*
Y308468D01*
X158225Y260800D02*
X161506D01*
X158225D02*
X161506Y259891D01*
X158225Y258982D02*
X161506Y259891D01*
X158225Y258982D02*
X161506D01*
X158225Y257959D02*
X161506D01*
X158225D02*
Y256936D01*
X158381Y256595*
X158537Y256482*
X158537D02*
X158850Y256368D01*
X159319*
X159631Y256482*
X159787Y256595*
X159787D02*
X159944Y256936D01*
Y257959*
X158225Y255345D02*
X160569D01*
X161037Y255232*
X161037D02*
X161350Y255005D01*
X161506Y254664*
Y254436*
X161350Y254095*
X161037Y253868*
X161037D02*
X160569Y253755D01*
X158225*
X160100Y252732D02*
Y250686D01*
X158694Y248300D02*
X158381Y248414D01*
X158225Y248755*
Y248982*
X158381Y249323*
X158850Y249550*
X159631Y249664*
X160412*
X160412D02*
X161037Y249550D01*
X161037D02*
X161350Y249323D01*
X161506Y248982*
Y248868*
X161350Y248527*
X161037Y248300*
X161037D02*
X160569Y248186D01*
X160412*
X160412D02*
X159944Y248300D01*
X159631Y248527*
X159475Y248868*
Y248982*
X159631Y249323*
X159944Y249550*
X160412Y249664*
X158225Y246482D02*
X158381Y246823D01*
X158850Y247050*
X159631Y247164*
X160100*
X160881Y247050*
X161350Y246823*
X161506Y246482*
Y246255*
X161350Y245914*
X160881Y245686*
X160100Y245573*
X159631*
X158850Y245686*
X158381Y245914*
X158225Y246255*
Y246482*
Y243868D02*
X158381Y244209D01*
X158850Y244436*
X159631Y244550*
X160100*
X160881Y244436*
X161350Y244209*
X161506Y243868*
Y243641*
X161350Y243300*
X160881Y243073*
X160100Y242959*
X159631*
X158850Y243073*
X158381Y243300*
X158225Y243641*
Y243868*
Y241255D02*
X158381Y241595D01*
X158850Y241823*
X159631Y241936*
X160100*
X160881Y241823*
X161350Y241595*
X161506Y241255*
Y241027*
X161350Y240686*
X160881Y240459*
X160100Y240345*
X159631*
X158850Y240459*
X158381Y240686*
X158225Y241027*
Y241255*
X163391Y336587D02*
X163164Y336275D01*
X162823Y336119*
X162368*
X162027Y336275*
X161800Y336587*
X161800D02*
Y336900D01*
X161914Y337212*
X161914D02*
X162027Y337369D01*
X162255Y337525*
X162936Y337837*
X162936D02*
X163164Y337994D01*
X163277Y338150*
X163391Y338462*
X163391D02*
Y338931D01*
X163164Y339244*
X162823Y339400*
X162368*
X162027Y339244*
X161800Y338931*
X164414Y336119D02*
Y339400D01*
Y336119D02*
X166005Y339400D01*
Y336119D02*
Y339400D01*
X168391Y336587D02*
X168277Y336275D01*
X167936Y336119*
X167709*
X167368Y336275*
X167141Y336744*
X167027Y337525*
Y338306*
X167141Y338931*
X167368Y339244*
X167709Y339400*
X167823*
X168164Y339244*
X168391Y338931*
X168505Y338462*
X168505D02*
Y338306D01*
X168391Y337837*
X168391D02*
X168164Y337525D01*
X167823Y337369*
X167709*
X167368Y337525*
X167141Y337837*
X167141D02*
X167027Y338306D01*
X171005Y336119D02*
X169868D01*
X169755Y337525*
X169868Y337369*
X170209Y337212*
X170209D02*
X170550D01*
X170550D02*
X170891Y337369D01*
X171118Y337681*
X171232Y338150*
X171118Y338462*
X171118D02*
X171005Y338931D01*
X170777Y339244*
X170436Y339400*
X170095*
X169755Y339244*
X169641Y339087*
X169641D02*
X169527Y338775D01*
X172255Y336119D02*
Y339400D01*
X173618*
X174641Y336119D02*
X175550Y339400D01*
X176459Y336119D02*
X175550Y339400D01*
X177482Y336119D02*
Y339400D01*
Y336119D02*
X178277D01*
X178618Y336275*
X178845Y336587*
X178845D02*
X178959Y336900D01*
X179073Y337369*
Y338150*
X178959Y338619*
X178845Y338931*
X178618Y339244*
X178277Y339400*
X177482*
X181686Y336587D02*
X181459Y336275D01*
X181118Y336119*
X180664*
X180323Y336275*
X180095Y336587*
X180095D02*
Y336900D01*
X180209Y337212*
X180209D02*
X180323Y337369D01*
X180550Y337525*
X181232Y337837*
X181232D02*
X181459Y337994D01*
X181573Y338150*
X181686Y338462*
X181686D02*
Y338931D01*
X181459Y339244*
X181118Y339400*
X180664*
X180323Y339244*
X180095Y338931*
X183391Y336119D02*
X183050Y336275D01*
X182823Y336744*
X182709Y337525*
Y337994*
X182823Y338775*
X183050Y339244*
X183391Y339400*
X183618*
X183959Y339244*
X184186Y338775*
X184300Y337994*
Y337525*
X184186Y336744*
X183959Y336275*
X183618Y336119*
X183391*
X186459D02*
X185323Y338306D01*
X187027*
X186459Y336119D02*
Y339400D01*
X189527Y337212D02*
X189414Y337681D01*
X189186Y337994*
X188845Y338150*
X188732*
X188391Y337994*
X188164Y337681*
X188050Y337212*
X188050D02*
Y337056D01*
X188164Y336587*
X188164D02*
X188391Y336275D01*
X188732Y336119*
X188845*
X189186Y336275*
X189414Y336587*
X189414D02*
X189527Y337212D01*
X189527D02*
Y337994D01*
X189414Y338775*
X189186Y339244*
X188845Y339400*
X188618*
X188277Y339244*
X188164Y338931*
G54D76*
X167701Y243126D02*
X166126D01*
Y244701*
X180299Y243126D02*
X181874D01*
Y244701*
Y257299D02*
Y258874D01*
X180299*
X167701D02*
X166126D01*
Y257299*
X164617Y243638D02*
G03X164617I-460J0D01*
G74*
G01X0Y0D02*
M02*
