*
*
G04 PADS 9.3.1 Build Number: 456998 generated Gerber (RS-274-X) file*
G04 PC Version=2.1*
*
%IN "body_status_board_v1_1."*%
*
%MOIN*%
*
%FSLAX35Y35*%
*
*
*
*
G04 PC Standard Apertures*
*
*
G04 Thermal Relief Aperture macro.*
%AMTER*
1,1,$1,0,0*
1,0,$1-$2,0,0*
21,0,$3,$4,0,0,45*
21,0,$3,$4,0,0,135*
%
*
*
G04 Annular Aperture macro.*
%AMANN*
1,1,$1,0,0*
1,0,$2,0,0*
%
*
*
G04 Odd Aperture macro.*
%AMODD*
1,1,$1,0,0*
1,0,$1-0.005,0,0*
%
*
*
G04 PC Custom Aperture Macros*
*
*
*
*
*
*
G04 PC Aperture Table*
*
%ADD010C,0.001*%
%ADD011C,0.04*%
%ADD018R,0.038X0.03*%
%ADD019C,0.01*%
%ADD036R,0.05118X0.05118*%
%ADD037C,0.05118*%
%ADD038R,0.03X0.038*%
%ADD054R,0.06X0.06*%
%ADD055C,0.06*%
%ADD056C,0.07*%
%ADD057C,0.085*%
%ADD058C,0.09*%
%ADD059C,0.03*%
%ADD061C,0.02*%
%ADD073C,0.06299*%
*
*
*
*
G04 PC Circuitry*
G04 Layer Name body_status_board_v1_1. - circuitry*
%LPD*%
*
*
G04 PC Custom Flashes*
G04 Layer Name body_status_board_v1_1. - flashes*
%LPD*%
*
*
G04 PC Circuitry*
G04 Layer Name body_status_board_v1_1. - circuitry*
%LPD*%
*
G54D10*
G54D11*
G01X219300Y264000D02*
Y316000D01*
G54D18*
X492900Y331000D03*
X499100D03*
X492900Y303000D03*
X499100D03*
X492900Y289000D03*
X499100D03*
X492900Y275000D03*
X499100D03*
X492900Y317000D03*
X499100D03*
G54D19*
X158126Y147000D02*
X139000Y166126D01*
Y198900*
X166000Y147000D02*
X144000Y169000D01*
Y198900*
X173874Y147000D02*
X149000Y171874D01*
Y198900*
X185000Y142000D02*
X187000Y144000D01*
X197000*
X185000Y142000D02*
X155252D01*
X150252Y147000*
X260000Y142000D02*
X205000D01*
Y147000*
X205252*
X205000Y142000D02*
X199000D01*
X197000Y144000*
X213126Y147000D02*
X208626Y151500D01*
X177500*
X164000Y165000*
Y198900*
X221000Y147000D02*
X214500Y153500D01*
X180500*
X168000Y166000*
X228874Y147000D02*
X220374Y155500D01*
X184500*
X168000Y172000*
X315000Y142000D02*
X260000D01*
Y147000*
X260252*
X268126D02*
X263626Y151500D01*
X244500*
X229500Y166500*
Y179500*
X224000Y185000*
Y198900*
X276000Y147000D02*
X269500Y153500D01*
X247500*
X233000Y168000*
X283874Y147000D02*
X275374Y155500D01*
X249500*
X233000Y172000*
X186000Y168000D02*
X169000Y185000D01*
Y198900*
X190000Y168000D02*
Y169000D01*
X174000Y185000*
Y198900*
X194000Y168000D02*
Y170000D01*
X179000Y185000*
Y198900*
X198000Y168000D02*
Y171000D01*
X184000Y185000*
Y198900*
X202000Y168000D02*
Y172000D01*
X189000Y185000*
Y198900*
X206000Y168000D02*
Y173000D01*
X194000Y185000*
Y198900*
X218000Y168000D02*
Y176000D01*
X209000Y185000*
Y198900*
X229000Y160000D02*
X214500D01*
X210000Y164500*
Y174000*
X199000Y185000*
Y198900*
X222000Y163000D02*
X217500D01*
X214000Y166500*
Y174000*
X204000Y184000*
Y198900*
X222000Y168000D02*
Y177000D01*
X214000Y185000*
Y198900*
X226000Y168000D02*
Y178000D01*
X219000Y185000*
Y198900*
X154000Y175000D02*
Y198900D01*
X159000Y172000D02*
Y198900D01*
X139000Y205100D02*
Y244000D01*
X149000Y205100D02*
Y244000D01*
X144000Y205100D02*
Y244000D01*
X154000Y205100D02*
Y244000D01*
X159000Y205100D02*
Y244000D01*
X169000Y205100D02*
Y244000D01*
X164000Y205100D02*
Y244000D01*
X174000Y205100D02*
Y244000D01*
X179000Y205100D02*
Y244000D01*
X184000Y205100D02*
Y244000D01*
X189000Y205100D02*
Y244000D01*
X194000Y205100D02*
Y244000D01*
X199000Y205100D02*
Y244000D01*
X204000Y205100D02*
Y244000D01*
X209000Y205100D02*
Y244000D01*
X214000Y205100D02*
Y244000D01*
X219000Y205100D02*
Y244000D01*
X224000Y205100D02*
Y244000D01*
X435126Y147000D02*
X427126Y139000D01*
X196000*
X194000Y141000*
X443000Y147000D02*
X433000Y137000D01*
X193000*
X190000Y140000*
X450874Y147000D02*
X438874Y135000D01*
X190000*
X186000Y139000*
X371000Y142000D02*
X315000D01*
Y147000*
X315252*
X371000Y142000D02*
Y147000D01*
X371252*
X371000Y142000D02*
X422252D01*
X427252Y147000*
X505000Y172937D02*
X506000Y173937D01*
Y280000*
X503000Y283000*
X241000Y264000D02*
X228500Y276500D01*
Y317500*
X320000Y231000D02*
X331000Y242000D01*
X345500*
X370689Y267189*
X376000*
X310000Y231000D02*
X323000Y244000D01*
X344937*
X376000Y275063*
X396000Y278000D02*
X395643D01*
Y284400*
X395500*
Y290600D02*
X386385D01*
X386174Y290811*
X376000*
X499000Y283000D02*
Y289000D01*
X499100*
X483000D02*
X492900D01*
X483000Y275000D02*
X492900D01*
X492063Y258000D02*
Y268363D01*
X498700Y275000*
X499100*
X219300Y316000D02*
X219500D01*
X228000Y324350*
X502650*
X228500Y317500D02*
X233500Y322500D01*
X493200*
X443000Y332000D02*
X276937D01*
X262937Y346000*
X438000Y328000D02*
X273063D01*
X255063Y346000*
X503000Y324000D02*
X502650Y324350D01*
X483000Y317000D02*
X492900D01*
X483000Y303000D02*
X492900D01*
X483000Y331000D02*
X492900D01*
X503000Y337000D02*
X400937D01*
X391937Y346000*
X499100Y317000D02*
X498700D01*
X493200Y322500*
X499100Y303000D02*
X498700D01*
X489700Y312000*
X445000*
X438000Y319000*
X499100Y331000D02*
X498478D01*
Y333522*
X497000Y335000*
X395063*
X384063Y346000*
G54D36*
X384063D03*
X255063D03*
X181748Y147000D03*
X236748D03*
X291748D03*
X346748D03*
X402748D03*
X458748D03*
X492063Y226000D03*
Y258000D03*
X216622Y341000D03*
X348622Y342000D03*
X474622D03*
X416063Y283000D03*
Y254000D03*
Y312000D03*
X376000Y267189D03*
G54D37*
X391937Y346000D03*
X262937D03*
X173874Y147000D03*
X166000D03*
X158126D03*
X150252D03*
X228874D03*
X221000D03*
X213126D03*
X205252D03*
X283874D03*
X276000D03*
X268126D03*
X260252D03*
X338874D03*
X331000D03*
X323126D03*
X315252D03*
X394874D03*
X387000D03*
X379126D03*
X371252D03*
X450874D03*
X443000D03*
X435126D03*
X427252D03*
X499937Y226000D03*
Y258000D03*
X208748Y341000D03*
X200874D03*
X193000D03*
X185126D03*
X177252D03*
X169378D03*
X340748Y342000D03*
X332874D03*
X325000D03*
X317126D03*
X309252D03*
X301378D03*
X466748D03*
X458874D03*
X451000D03*
X443126D03*
X435252D03*
X427378D03*
X423937Y283000D03*
Y254000D03*
Y312000D03*
X376000Y275063D03*
Y282937D03*
Y290811D03*
G54D38*
X139000Y198900D03*
Y205100D03*
X144000Y198900D03*
Y205100D03*
X149000Y198900D03*
Y205100D03*
X164000Y198900D03*
Y205100D03*
X159000Y198900D03*
Y205100D03*
X154000Y198900D03*
Y205100D03*
X224000Y198900D03*
Y205100D03*
X219000Y198900D03*
Y205100D03*
X214000Y198900D03*
Y205100D03*
X209000Y198900D03*
Y205100D03*
X204000Y198900D03*
Y205100D03*
X199000Y198900D03*
Y205100D03*
X194000Y198900D03*
Y205100D03*
X189000Y198900D03*
Y205100D03*
X184000Y198900D03*
Y205100D03*
X179000Y198900D03*
Y205100D03*
X174000Y198900D03*
Y205100D03*
X169000Y198900D03*
Y205100D03*
X395500Y290600D03*
Y284400D03*
G54D54*
X223000Y361000D03*
X355000Y362000D03*
X481000D03*
G54D55*
X213000Y361000D03*
X203000D03*
X193000D03*
X183000D03*
X173000D03*
X163000D03*
X345000Y362000D03*
X335000D03*
X325000D03*
X315000D03*
X305000D03*
X295000D03*
X471000D03*
X461000D03*
X451000D03*
X441000D03*
X431000D03*
X421000D03*
G54D56*
X310000Y231000D03*
X320000D03*
X330000D03*
X340000D03*
G54D57*
X331000Y212000D03*
Y192000D03*
X279000Y252000D03*
X259000D03*
G54D58*
X241000Y316000D03*
X219300D03*
X241000Y264000D03*
X219300D03*
G54D59*
X321000Y201200D02*
X330600Y191600D01*
X331000Y192000*
X321000Y201200D02*
Y215000D01*
X329000Y223000*
X341000*
X347000Y229000*
Y238000*
X363000Y254000*
X416063*
X412000Y153000D02*
X417000Y158000D01*
X484175*
X488175Y162000*
X496000*
X412000Y153000D02*
X360000D01*
X338000Y175000*
Y205000*
X331000Y212000*
X505000Y172937D02*
X423937Y254000D01*
X496000Y152000D02*
X501450D01*
X505000Y155550*
Y172937*
X259000Y252000D02*
Y260000D01*
X255000Y264000*
X241000*
X279000Y252000D02*
Y270354D01*
X241000Y308354*
Y316000*
X423937Y254000D02*
Y283000D01*
X416063Y254000D02*
Y283000D01*
X423937D02*
Y312000D01*
X416063Y283000D02*
Y312000D01*
X186000Y139000D03*
X190000Y140000D03*
X194000Y141000D03*
X168000Y166000D03*
X186000Y168000D03*
X190000D03*
X194000D03*
X198000D03*
X202000D03*
X206000D03*
X218000D03*
X229000Y160000D03*
X222000Y163000D03*
Y168000D03*
X226000D03*
X233000D03*
X154000Y175000D03*
X159000Y172000D03*
X168000D03*
X233000D03*
X139000Y244000D03*
X174000D03*
X169000D03*
X179000D03*
X189000D03*
X184000D03*
X194000D03*
X204000D03*
X199000D03*
X209000D03*
X219000D03*
X214000D03*
X159000D03*
X154000D03*
X164000D03*
X144000D03*
X149000D03*
X224000D03*
X396000Y278000D03*
X499000Y283000D03*
X483000Y289000D03*
Y275000D03*
X503000Y283000D03*
X443000Y332000D03*
X438000Y328000D03*
Y319000D03*
X503000Y324000D03*
X483000Y317000D03*
Y303000D03*
Y331000D03*
X503000Y337000D03*
G54D61*
X427252Y147000D02*
X432252Y152000D01*
X496000*
X169378Y341000D02*
Y347622D01*
X163000Y354000*
Y361000*
X177252Y341000D02*
Y348654D01*
X173000Y352906*
Y361000*
X185126Y341000D02*
Y349717D01*
X183000Y351843*
Y361000*
X193000Y341000D02*
Y361000D01*
X200874Y341000D02*
Y349717D01*
X203000Y351843*
Y361000*
X208748Y341000D02*
Y348654D01*
X213000Y352906*
Y361000*
X216622Y341000D02*
Y347622D01*
X223000Y354000*
Y361000*
X301378Y342000D02*
Y348622D01*
X295000Y355000*
Y362000*
X309252Y342000D02*
Y349654D01*
X305000Y353906*
Y362000*
X317126Y342000D02*
Y350717D01*
X315000Y352843*
Y362000*
X325000Y342000D02*
Y362000D01*
X332874Y342000D02*
Y350717D01*
X335000Y352843*
Y362000*
X340748Y342000D02*
Y349654D01*
X345000Y353906*
Y362000*
X348622Y342000D02*
Y348622D01*
X355000Y355000*
Y362000*
X427378Y342000D02*
Y348622D01*
X421000Y355000*
Y362000*
X435252Y342000D02*
Y349654D01*
X431000Y353906*
Y362000*
X443126Y342000D02*
Y350717D01*
X441000Y352843*
Y362000*
X451000Y342000D02*
Y362000D01*
X458874Y342000D02*
Y350717D01*
X461000Y352843*
Y362000*
X466748Y342000D02*
Y349654D01*
X471000Y353906*
Y362000*
X474622Y342000D02*
Y348622D01*
X481000Y355000*
Y362000*
G54D73*
X496000Y162000D03*
Y152000D03*
X0Y0D02*
M02*
