%
T1C.02F197S55
X0168Y0166
X0159Y0172
X0168Y0172
X0154Y0175
X0144Y0244
X0139Y0244
X0169Y0244
X0159Y0244
X0154Y0244
X0164Y0244
X0149Y0244
X0174Y0244
X0179Y0244
X0189Y0244
X0184Y0244
X0194Y0244
X0204Y0244
X0199Y0244
X0209Y0244
X0219Y0244
X0214Y0244
X0194Y0168
X0186Y0168
X019Y0168
X0198Y0168
X0202Y0168
X0206Y0168
X0218Y0168
X0194Y0141
X019Y014
X0186Y0139
X0229Y016
X0222Y0163
X0226Y0168
X0222Y0168
X0233Y0168
X0233Y0172
X0224Y0244
X0443Y0332
X0438Y0328
X0438Y0319
X0396Y0278
X0483Y0275
X0503Y0283
X0499Y0283
X0483Y0289
X0483Y0303
X0483Y0317
X0503Y0324
X0483Y0331
X0503Y0337
T2C.0315F197S55
X0166Y0147
X015813Y0147
X015025Y0147
X018175Y0147
X017387Y0147
X016938Y0341
X0193Y0341
X018513Y0341
X017725Y0341
X025506Y0346
X026294Y0346
X021662Y0341
X020875Y0341
X020087Y0341
X020525Y0147
X022887Y0147
X023675Y0147
X026813Y0147
X026025Y0147
X0221Y0147
X021313Y0147
X028387Y0147
X0276Y0147
X029175Y0147
X031525Y0147
X0331Y0147
X032313Y0147
X033887Y0147
X031713Y0342
X030925Y0342
X030138Y0342
X034075Y0342
X033287Y0342
X0325Y0342
X038406Y0346
X039194Y0346
X034862Y0342
X0376Y029081
X0376Y028294
X0376Y027506
X0376Y026719
X037913Y0147
X0387Y0147
X039487Y0147
X034675Y0147
X037125Y0147
X040275Y0147
X0443Y0147
X043513Y0147
X042725Y0147
X041606Y0254
X042394Y0254
X041606Y0283
X042394Y0283
X041606Y0312
X042394Y0312
X043525Y0342
X044313Y0342
X042738Y0342
X045887Y0342
X0451Y0342
X046675Y0342
X047462Y0342
X049206Y0258
X049994Y0258
X049206Y0226
X049994Y0226
X045875Y0147
X045087Y0147
T3C.037F197S55
X0163Y0361
X0193Y0361
X0183Y0361
X0173Y0361
X0203Y0361
X0213Y0361
X0295Y0362
X0315Y0362
X0305Y0362
X0325Y0362
X0345Y0362
X0335Y0362
X0223Y0361
X0355Y0362
X0421Y0362
X0441Y0362
X0431Y0362
X0451Y0362
X0471Y0362
X0461Y0362
X0481Y0362
T4C.04016F139S55
X0496Y0152
X0496Y0162
T5C.045F139S55
X031Y0231
X032Y0231
X033Y0231
X034Y0231
T6C.057F107S55
X02193Y0264
X0241Y0264
X02193Y0316
X0241Y0316
T7C.06F089S55
X0331Y0192
X0331Y0212
X0259Y0252
X0279Y0252
T8C.1F069S658
X0325Y0276
T9C.118F069S658
X02392Y02455
X02392Y02825
X02392Y02975
X02392Y03345
T10C.15F035S9
X0269Y0202
X0381Y0202
T11C.166F035S1033
X01215Y01215
X01215Y05285
X05285Y05285
X05285Y01215
M30
