*
*
G04 PADS 9.3.1 Build Number: 456998 generated Gerber (RS-274-X) file*
G04 PC Version=2.1*
*
%IN "body_status_board_v1_1."*%
*
%MOIN*%
*
%FSLAX35Y35*%
*
*
*
*
G04 PC Standard Apertures*
*
*
G04 Thermal Relief Aperture macro.*
%AMTER*
1,1,$1,0,0*
1,0,$1-$2,0,0*
21,0,$3,$4,0,0,45*
21,0,$3,$4,0,0,135*
%
*
*
G04 Annular Aperture macro.*
%AMANN*
1,1,$1,0,0*
1,0,$2,0,0*
%
*
*
G04 Odd Aperture macro.*
%AMODD*
1,1,$1,0,0*
1,0,$1-0.005,0,0*
%
*
*
G04 PC Custom Aperture Macros*
*
*
*
*
*
*
G04 PC Aperture Table*
*
%ADD010C,0.001*%
%ADD019C,0.01*%
%ADD023C,0.015*%
%ADD061C,0.02*%
%ADD070C,0.012*%
*
*
*
*
G04 PC Circuitry*
G04 Layer Name body_status_board_v1_1. - circuitry*
%LPD*%
*
*
G04 PC Custom Flashes*
G04 Layer Name body_status_board_v1_1. - flashes*
%LPD*%
*
*
G04 PC Circuitry*
G04 Layer Name body_status_board_v1_1. - circuitry*
%LPD*%
*
G54D10*
G54D19*
G01X498000Y334000D02*
Y328000D01*
Y306000D02*
Y300000D01*
Y292000D02*
Y286000D01*
Y278000D02*
Y272000D01*
Y320000D02*
Y314000D01*
X155843Y255413D02*
G75*
G03X155843I-394J0D01*
G01Y268913D02*
G03X155843I-394J0D01*
G01Y322913D02*
G03X155843I-394J0D01*
G01Y309413D02*
G03X155843I-394J0D01*
G01Y295913D02*
G03X155843I-394J0D01*
G01Y282413D02*
G03X155843I-394J0D01*
G54D23*
G01X229000Y360000D02*
Y367000D01*
X222000*
X361000Y361000D02*
Y368000D01*
X354000*
X487000Y361000D02*
Y368000D01*
X480000*
X158500Y334414D02*
Y326211D01*
X161909*
X171000Y334414D02*
Y326211D01*
X174977Y334414D02*
Y326211D01*
X171000Y330508D02*
X174977D01*
X177534Y334414D02*
X177818Y334023D01*
X178102Y334414*
X177818Y334805*
X177534Y334414*
X177818Y331680D02*
Y326211D01*
X180659Y331680D02*
Y323477D01*
Y330508D02*
X181227Y331289D01*
X181795Y331680*
X182648*
X183216Y331289*
X183784Y330508*
X184068Y329336*
Y328555*
X183784Y327383*
X183216Y326602*
X182648Y326211*
X181795*
X181227Y326602*
X180659Y327383*
X158500Y320414D02*
Y312211D01*
Y320414D02*
X161057D01*
X161909Y320023*
X162193Y319633*
X162477Y318852*
Y318070*
X162193Y317289*
X161909Y316898*
X161057Y316508*
X158500*
X160489D02*
X162477Y312211D01*
X171568Y320414D02*
Y312211D01*
X175545Y320414D02*
Y312211D01*
X171568Y316508D02*
X175545D01*
X178102Y320414D02*
X178386Y320023D01*
X178670Y320414*
X178386Y320805*
X178102Y320414*
X178386Y317680D02*
Y312211D01*
X181227Y317680D02*
Y309477D01*
Y316508D02*
X181795Y317289D01*
X182364Y317680*
X183216*
X183784Y317289*
X184352Y316508*
X184636Y315336*
Y314555*
X184352Y313383*
X183784Y312602*
X183216Y312211*
X182364*
X181795Y312602*
X181227Y313383*
X158500Y306414D02*
Y298211D01*
X161909*
X171000Y306414D02*
Y298211D01*
X174409*
X176966Y301336D02*
X180375D01*
Y302117*
X180091Y302898*
X179807Y303289*
X179239Y303680*
X178386*
X177818Y303289*
X177250Y302508*
X176966Y301336*
Y300555*
X177250Y299383*
X177818Y298602*
X178386Y298211*
X179239*
X179807Y298602*
X180375Y299383*
X186341Y303680D02*
Y297430D01*
X186057Y296258*
X185773Y295867*
X185205Y295477*
X184352*
X183784Y295867*
X186341Y302508D02*
X185773Y303289D01*
X185205Y303680*
X184352*
X183784Y303289*
X183216Y302508*
X182932Y301336*
Y300555*
X183216Y299383*
X183784Y298602*
X184352Y298211*
X185205*
X185773Y298602*
X186341Y299383*
X197705Y306414D02*
X195432Y298211D01*
X197705Y306414D02*
X199977Y298211D01*
X196284Y300945D02*
X199125D01*
X158500Y293414D02*
Y285211D01*
X161909*
X171000Y293414D02*
Y285211D01*
X174409*
X176966Y288336D02*
X180375D01*
Y289117*
X180091Y289898*
X179807Y290289*
X179239Y290680*
X178386*
X177818Y290289*
X177250Y289508*
X176966Y288336*
Y287555*
X177250Y286383*
X177818Y285602*
X178386Y285211*
X179239*
X179807Y285602*
X180375Y286383*
X186341Y290680D02*
Y284430D01*
X186057Y283258*
X185773Y282867*
X185205Y282477*
X184352*
X183784Y282867*
X186341Y289508D02*
X185773Y290289D01*
X185205Y290680*
X184352*
X183784Y290289*
X183216Y289508*
X182932Y288336*
Y287555*
X183216Y286383*
X183784Y285602*
X184352Y285211*
X185205*
X185773Y285602*
X186341Y286383*
X195432Y293414D02*
Y285211D01*
Y293414D02*
X197989D01*
X198841Y293023*
X199125Y292633*
X199409Y291852*
Y291070*
X199125Y290289*
X198841Y289898*
X197989Y289508*
X195432D02*
X197989D01*
X198841Y289117*
X199125Y288727*
X199409Y287945*
Y286773*
X199125Y285992*
X198841Y285602*
X197989Y285211*
X195432*
X158500Y280414D02*
Y272211D01*
Y280414D02*
X161057D01*
X161909Y280023*
X162193Y279633*
X162477Y278852*
Y278070*
X162193Y277289*
X161909Y276898*
X161057Y276508*
X158500*
X160489D02*
X162477Y272211D01*
X171568Y280414D02*
Y272211D01*
X174977*
X177534Y275336D02*
X180943D01*
Y276117*
X180659Y276898*
X180375Y277289*
X179807Y277680*
X178955*
X178386Y277289*
X177818Y276508*
X177534Y275336*
Y274555*
X177818Y273383*
X178386Y272602*
X178955Y272211*
X179807*
X180375Y272602*
X180943Y273383*
X186909Y277680D02*
Y271430D01*
X186625Y270258*
X186341Y269867*
X185773Y269477*
X184920*
X184352Y269867*
X186909Y276508D02*
X186341Y277289D01*
X185773Y277680*
X184920*
X184352Y277289*
X183784Y276508*
X183500Y275336*
Y274555*
X183784Y273383*
X184352Y272602*
X184920Y272211*
X185773*
X186341Y272602*
X186909Y273383*
X198273Y280414D02*
X196000Y272211D01*
X198273Y280414D02*
X200545Y272211D01*
X196852Y274945D02*
X199693D01*
X158500Y266414D02*
Y258211D01*
Y266414D02*
X161057D01*
X161909Y266023*
X162193Y265633*
X162477Y264852*
Y264070*
X162193Y263289*
X161909Y262898*
X161057Y262508*
X158500*
X160489D02*
X162477Y258211D01*
X171568Y266414D02*
Y258211D01*
X174977*
X177534Y261336D02*
X180943D01*
Y262117*
X180659Y262898*
X180375Y263289*
X179807Y263680*
X178955*
X178386Y263289*
X177818Y262508*
X177534Y261336*
Y260555*
X177818Y259383*
X178386Y258602*
X178955Y258211*
X179807*
X180375Y258602*
X180943Y259383*
X186909Y263680D02*
Y257430D01*
X186625Y256258*
X186341Y255867*
X185773Y255477*
X184920*
X184352Y255867*
X186909Y262508D02*
X186341Y263289D01*
X185773Y263680*
X184920*
X184352Y263289*
X183784Y262508*
X183500Y261336*
Y260555*
X183784Y259383*
X184352Y258602*
X184920Y258211*
X185773*
X186341Y258602*
X186909Y259383*
X196000Y266414D02*
Y258211D01*
Y266414D02*
X198557D01*
X199409Y266023*
X199693Y265633*
X199977Y264852*
Y264070*
X199693Y263289*
X199409Y262898*
X198557Y262508*
X196000D02*
X198557D01*
X199409Y262117*
X199693Y261727*
X199977Y260945*
Y259773*
X199693Y258992*
X199409Y258602*
X198557Y258211*
X196000*
X440795Y279320D02*
Y271117D01*
Y279320D02*
X444489D01*
X440795Y275414D02*
X443068D01*
X440795Y271117D02*
X444489D01*
X447045Y274633D02*
X452159D01*
X458693Y278148D02*
X458125Y278930D01*
X457273Y279320*
X456136*
X455284Y278930*
X454716Y278148*
Y277367*
X455000Y276586*
X455284Y276195*
X455852Y275805*
X457557Y275023*
X458125Y274633*
X458409Y274242*
X458693Y273461*
Y272289*
X458125Y271508*
X457273Y271117*
X456136*
X455284Y271508*
X454716Y272289*
X463239Y279320D02*
Y271117D01*
X461250Y279320D02*
X465227D01*
X469489D02*
X468920Y278930D01*
X468352Y278148*
X468068Y277367*
X467784Y276195*
Y274242*
X468068Y273070*
X468352Y272289*
X468920Y271508*
X469489Y271117*
X470625*
X471193Y271508*
X471761Y272289*
X472045Y273070*
X472330Y274242*
Y276195*
X472045Y277367*
X471761Y278148*
X471193Y278930*
X470625Y279320*
X469489*
X474886D02*
Y271117D01*
Y279320D02*
X477443D01*
X478295Y278930*
X478580Y278539*
X478864Y277758*
Y276586*
X478580Y275805*
X478295Y275414*
X477443Y275023*
X474886*
X454148Y293320D02*
Y285117D01*
X457557*
X461534Y290586D02*
X460966Y290195D01*
X460398Y289414*
X460114Y288242*
Y287461*
X460398Y286289*
X460966Y285508*
X461534Y285117*
X462386*
X462955Y285508*
X463523Y286289*
X463807Y287461*
Y288242*
X463523Y289414*
X462955Y290195*
X462386Y290586*
X461534*
X469773D02*
Y284336D01*
X469489Y283164*
X469205Y282773*
X468636Y282383*
X467784*
X467216Y282773*
X469773Y289414D02*
X469205Y290195D01*
X468636Y290586*
X467784*
X467216Y290195*
X466648Y289414*
X466364Y288242*
Y287461*
X466648Y286289*
X467216Y285508*
X467784Y285117*
X468636*
X469205Y285508*
X469773Y286289*
X472330Y293320D02*
X472614Y292930D01*
X472898Y293320*
X472614Y293711*
X472330Y293320*
X472614Y290586D02*
Y285117D01*
X478864Y289414D02*
X478295Y290195D01*
X477727Y290586*
X476875*
X476307Y290195*
X475739Y289414*
X475455Y288242*
Y287461*
X475739Y286289*
X476307Y285508*
X476875Y285117*
X477727*
X478295Y285508*
X478864Y286289*
X436534Y305367D02*
X436250Y306148D01*
X435682Y306930*
X435114Y307320*
X433977*
X433409Y306930*
X432841Y306148*
X432557Y305367*
X432273Y304195*
Y302242*
X432557Y301070*
X432841Y300289*
X433409Y299508*
X433977Y299117*
X435114*
X435682Y299508*
X436250Y300289*
X436534Y301070*
X440511Y304586D02*
X439943Y304195D01*
X439375Y303414*
X439091Y302242*
Y301461*
X439375Y300289*
X439943Y299508*
X440511Y299117*
X441364*
X441932Y299508*
X442500Y300289*
X442784Y301461*
Y302242*
X442500Y303414*
X441932Y304195*
X441364Y304586*
X440511*
X445341D02*
Y299117D01*
Y303023D02*
X446193Y304195D01*
X446761Y304586*
X447614*
X448182Y304195*
X448466Y303023*
Y299117*
Y303023D02*
X449318Y304195D01*
X449886Y304586*
X450739*
X451307Y304195*
X451591Y303023*
Y299117*
X454148Y304586D02*
Y296383D01*
Y303414D02*
X454716Y304195D01*
X455284Y304586*
X456136*
X456705Y304195*
X457273Y303414*
X457557Y302242*
Y301461*
X457273Y300289*
X456705Y299508*
X456136Y299117*
X455284*
X454716Y299508*
X454148Y300289*
X460114Y304586D02*
Y300680D01*
X460398Y299508*
X460966Y299117*
X461818*
X462386Y299508*
X463239Y300680*
Y304586D02*
Y299117D01*
X466648Y307320D02*
Y300680D01*
X466932Y299508*
X467500Y299117*
X468068*
X465795Y304586D02*
X467784D01*
X470625Y302242D02*
X474034D01*
Y303023*
X473750Y303805*
X473466Y304195*
X472898Y304586*
X472045*
X471477Y304195*
X470909Y303414*
X470625Y302242*
Y301461*
X470909Y300289*
X471477Y299508*
X472045Y299117*
X472898*
X473466Y299508*
X474034Y300289*
X476591Y304586D02*
Y299117D01*
Y302242D02*
X476875Y303414D01*
X477443Y304195*
X478011Y304586*
X478864*
X447045Y321320D02*
Y313117D01*
Y321320D02*
X449034D01*
X449886Y320930*
X450455Y320148*
X450739Y319367*
X451023Y318195*
Y316242*
X450739Y315070*
X450455Y314289*
X449886Y313508*
X449034Y313117*
X447045*
X457841Y319367D02*
X457557Y320148D01*
X456989Y320930*
X456420Y321320*
X455284*
X454716Y320930*
X454148Y320148*
X453864Y319367*
X453580Y318195*
Y316242*
X453864Y315070*
X454148Y314289*
X454716Y313508*
X455284Y313117*
X456420*
X456989Y313508*
X457557Y314289*
X457841Y315070*
X465511Y322883D02*
X460398Y310383D01*
X468068Y321320D02*
Y313117D01*
Y321320D02*
X470057D01*
X470909Y320930*
X471477Y320148*
X471761Y319367*
X472045Y318195*
Y316242*
X471761Y315070*
X471477Y314289*
X470909Y313508*
X470057Y313117*
X468068*
X478864Y319367D02*
X478580Y320148D01*
X478011Y320930*
X477443Y321320*
X476307*
X475739Y320930*
X475170Y320148*
X474886Y319367*
X474602Y318195*
Y316242*
X474886Y315070*
X475170Y314289*
X475739Y313508*
X476307Y313117*
X477443*
X478011Y313508*
X478580Y314289*
X478864Y315070*
X452159Y335320D02*
Y327117D01*
Y335320D02*
X454432Y327117D01*
X456705Y335320D02*
X454432Y327117D01*
X456705Y335320D02*
Y327117D01*
X460682Y332586D02*
X460114Y332195D01*
X459545Y331414*
X459261Y330242*
Y329461*
X459545Y328289*
X460114Y327508*
X460682Y327117*
X461534*
X462102Y327508*
X462670Y328289*
X462955Y329461*
Y330242*
X462670Y331414*
X462102Y332195*
X461534Y332586*
X460682*
X466364Y335320D02*
Y328680D01*
X466648Y327508*
X467216Y327117*
X467784*
X465511Y332586D02*
X467500D01*
X471761D02*
X471193Y332195D01*
X470625Y331414*
X470341Y330242*
Y329461*
X470625Y328289*
X471193Y327508*
X471761Y327117*
X472614*
X473182Y327508*
X473750Y328289*
X474034Y329461*
Y330242*
X473750Y331414*
X473182Y332195*
X472614Y332586*
X471761*
X476591D02*
Y327117D01*
Y330242D02*
X476875Y331414D01*
X477443Y332195*
X478011Y332586*
X478864*
G54D61*
X162273Y218500D02*
Y205375D01*
Y218500D02*
X165455D01*
X166818Y217875*
X167727Y216625*
X168182Y215375*
X168636Y213500*
Y210375*
X168182Y208500*
X167727Y207250*
X166818Y206000*
X165455Y205375*
X162273*
X179545Y215375D02*
X179091Y216625D01*
X178182Y217875*
X177273Y218500*
X175455*
X174545Y217875*
X173636Y216625*
X173182Y215375*
X172727Y213500*
Y210375*
X173182Y208500*
X173636Y207250*
X174545Y206000*
X175455Y205375*
X177273*
X178182Y206000*
X179091Y207250*
X179545Y208500*
X191818Y221000D02*
X183636Y201000D01*
X195909Y218500D02*
Y205375D01*
Y218500D02*
X199091D01*
X200455Y217875*
X201364Y216625*
X201818Y215375*
X202273Y213500*
Y210375*
X201818Y208500*
X201364Y207250*
X200455Y206000*
X199091Y205375*
X195909*
X213182Y215375D02*
X212727Y216625D01*
X211818Y217875*
X210909Y218500*
X209091*
X208182Y217875*
X207273Y216625*
X206818Y215375*
X206364Y213500*
Y210375*
X206818Y208500*
X207273Y207250*
X208182Y206000*
X209091Y205375*
X210909*
X211818Y206000*
X212727Y207250*
X213182Y208500*
X432000Y218500D02*
Y205375D01*
X437455*
X443818Y214125D02*
X442909Y213500D01*
X442000Y212250*
X441545Y210375*
Y209125*
X442000Y207250*
X442909Y206000*
X443818Y205375*
X445182*
X446091Y206000*
X447000Y207250*
X447455Y209125*
Y210375*
X447000Y212250*
X446091Y213500*
X445182Y214125*
X443818*
X457000D02*
Y204125D01*
X456545Y202250*
X456091Y201625*
X455182Y201000*
X453818*
X452909Y201625*
X457000Y212250D02*
X456091Y213500D01*
X455182Y214125*
X453818*
X452909Y213500*
X452000Y212250*
X451545Y210375*
Y209125*
X452000Y207250*
X452909Y206000*
X453818Y205375*
X455182*
X456091Y206000*
X457000Y207250*
X461091Y218500D02*
X461545Y217875D01*
X462000Y218500*
X461545Y219125*
X461091Y218500*
X461545Y214125D02*
Y205375D01*
X471545Y212250D02*
X470636Y213500D01*
X469727Y214125*
X468364*
X467455Y213500*
X466545Y212250*
X466091Y210375*
Y209125*
X466545Y207250*
X467455Y206000*
X468364Y205375*
X469727*
X470636Y206000*
X471545Y207250*
X264864Y327188D02*
X264409Y328438D01*
X264409D02*
X263500Y329688D01*
X263500D02*
X262591Y330313D01*
X262591D02*
X260773D01*
X260773D02*
X259864Y329688D01*
X259864D02*
X258955Y328438D01*
X258955D02*
X258500Y327188D01*
X258500D02*
X258045Y325313D01*
X258045D02*
Y322187D01*
X258045D02*
X258500Y320312D01*
X258500D02*
X258955Y319062D01*
X258955D02*
X259864Y317812D01*
X259864D02*
X260773Y317187D01*
X260773D02*
X262591D01*
X262591D02*
X263500Y317812D01*
X263500D02*
X264409Y319062D01*
X264409D02*
X264864Y320312D01*
X271227Y325938D02*
X270318Y325313D01*
X270318D02*
X269409Y324062D01*
X269409D02*
X268955Y322187D01*
X268955D02*
Y320937D01*
X268955D02*
X269409Y319062D01*
X269409D02*
X270318Y317812D01*
X270318D02*
X271227Y317187D01*
X271227D02*
X272591D01*
X272591D02*
X273500Y317812D01*
X273500D02*
X274409Y319062D01*
X274409D02*
X274864Y320937D01*
X274864D02*
Y322187D01*
X274864D02*
X274409Y324062D01*
X274409D02*
X273500Y325313D01*
X273500D02*
X272591Y325938D01*
X272591D02*
X271227D01*
X278955D02*
Y317187D01*
Y323437D02*
X280318Y325313D01*
X280318D02*
X281227Y325938D01*
X281227D02*
X282591D01*
X282591D02*
X283500Y325313D01*
X283500D02*
X283955Y323437D01*
X283955D02*
Y317187D01*
Y323437D02*
X285318Y325313D01*
X285318D02*
X286227Y325938D01*
X286227D02*
X287591D01*
X287591D02*
X288500Y325313D01*
X288500D02*
X288955Y323437D01*
X288955D02*
Y317187D01*
X293045Y325938D02*
Y312812D01*
Y324062D02*
X293955Y325313D01*
X293955D02*
X294864Y325938D01*
X294864D02*
X296227D01*
X296227D02*
X297136Y325313D01*
X297136D02*
X298045Y324062D01*
X298045D02*
X298500Y322187D01*
X298500D02*
Y320937D01*
X298500D02*
X298045Y319062D01*
X298045D02*
X297136Y317812D01*
X297136D02*
X296227Y317187D01*
X296227D02*
X294864D01*
X294864D02*
X293955Y317812D01*
X293955D02*
X293045Y319062D01*
X302591Y325938D02*
Y319687D01*
X302591D02*
X303045Y317812D01*
X303045D02*
X303955Y317187D01*
X303955D02*
X305318D01*
X305318D02*
X306227Y317812D01*
X306227D02*
X307591Y319687D01*
Y325938D02*
Y317187D01*
X313045Y330313D02*
Y319687D01*
X313045D02*
X313500Y317812D01*
X313500D02*
X314409Y317187D01*
X314409D02*
X315318D01*
X311682Y325938D02*
X314864D01*
X319409Y322187D02*
X324864D01*
X324864D02*
Y323437D01*
X324864D02*
X324409Y324687D01*
X324409D02*
X323955Y325313D01*
X323955D02*
X323045Y325938D01*
X323045D02*
X321682D01*
X321682D02*
X320773Y325313D01*
X320773D02*
X319864Y324062D01*
X319864D02*
X319409Y322187D01*
X319409D02*
Y320937D01*
X319409D02*
X319864Y319062D01*
X319864D02*
X320773Y317812D01*
X320773D02*
X321682Y317187D01*
X321682D02*
X323045D01*
X323045D02*
X323955Y317812D01*
X323955D02*
X324864Y319062D01*
X328955Y325938D02*
Y317187D01*
Y322187D02*
X329409Y324062D01*
X329409D02*
X330318Y325313D01*
X330318D02*
X331227Y325938D01*
X331227D02*
X332591D01*
X347136Y330313D02*
Y317187D01*
Y330313D02*
X351227D01*
X351227D02*
X352591Y329688D01*
X352591D02*
X353045Y329063D01*
X353045D02*
X353500Y327813D01*
X353500D02*
Y325938D01*
X353500D02*
X353045Y324687D01*
X353045D02*
X352591Y324062D01*
X352591D02*
X351227Y323437D01*
X351227D02*
X347136D01*
X359864Y325938D02*
X358955Y325313D01*
X358955D02*
X358045Y324062D01*
X358045D02*
X357591Y322187D01*
X357591D02*
Y320937D01*
X357591D02*
X358045Y319062D01*
X358045D02*
X358955Y317812D01*
X358955D02*
X359864Y317187D01*
X359864D02*
X361227D01*
X361227D02*
X362136Y317812D01*
X362136D02*
X363045Y319062D01*
X363045D02*
X363500Y320937D01*
X363500D02*
Y322187D01*
X363500D02*
X363045Y324062D01*
X363045D02*
X362136Y325313D01*
X362136D02*
X361227Y325938D01*
X361227D02*
X359864D01*
X367591D02*
X369409Y317187D01*
X371227Y325938D02*
X369409Y317187D01*
X371227Y325938D02*
X373045Y317187D01*
X374864Y325938D02*
X373045Y317187D01*
X378955Y322187D02*
X384409D01*
X384409D02*
Y323437D01*
X384409D02*
X383955Y324687D01*
X383955D02*
X383500Y325313D01*
X383500D02*
X382591Y325938D01*
X382591D02*
X381227D01*
X381227D02*
X380318Y325313D01*
X380318D02*
X379409Y324062D01*
X379409D02*
X378955Y322187D01*
X378955D02*
Y320937D01*
X378955D02*
X379409Y319062D01*
X379409D02*
X380318Y317812D01*
X380318D02*
X381227Y317187D01*
X381227D02*
X382591D01*
X382591D02*
X383500Y317812D01*
X383500D02*
X384409Y319062D01*
X388500Y325938D02*
Y317187D01*
Y322187D02*
X388955Y324062D01*
X388955D02*
X389864Y325313D01*
X389864D02*
X390773Y325938D01*
X390773D02*
X392136D01*
X168182Y198500D02*
Y185375D01*
Y198500D02*
X172273D01*
X173636Y197875*
X174091Y197250*
X174545Y196000*
Y194125*
X174091Y192875*
X173636Y192250*
X172273Y191625*
X168182*
X180909Y194125D02*
X180000Y193500D01*
X179091Y192250*
X178636Y190375*
Y189125*
X179091Y187250*
X180000Y186000*
X180909Y185375*
X182273*
X183182Y186000*
X184091Y187250*
X184545Y189125*
Y190375*
X184091Y192250*
X183182Y193500*
X182273Y194125*
X180909*
X188636D02*
X190455Y185375D01*
X192273Y194125D02*
X190455Y185375D01*
X192273Y194125D02*
X194091Y185375D01*
X195909Y194125D02*
X194091Y185375D01*
X200000Y190375D02*
X205455D01*
Y191625*
X205000Y192875*
X204545Y193500*
X203636Y194125*
X202273*
X201364Y193500*
X200455Y192250*
X200000Y190375*
Y189125*
X200455Y187250*
X201364Y186000*
X202273Y185375*
X203636*
X204545Y186000*
X205455Y187250*
X209545Y194125D02*
Y185375D01*
Y190375D02*
X210000Y192250D01*
X210909Y193500*
X211818Y194125*
X213182*
X432000Y198500D02*
Y185375D01*
Y198500D02*
X436091D01*
X437455Y197875*
X437909Y197250*
X438364Y196000*
Y194125*
X437909Y192875*
X437455Y192250*
X436091Y191625*
X432000*
X444727Y194125D02*
X443818Y193500D01*
X442909Y192250*
X442455Y190375*
Y189125*
X442909Y187250*
X443818Y186000*
X444727Y185375*
X446091*
X447000Y186000*
X447909Y187250*
X448364Y189125*
Y190375*
X447909Y192250*
X447000Y193500*
X446091Y194125*
X444727*
X452455D02*
X454273Y185375D01*
X456091Y194125D02*
X454273Y185375D01*
X456091Y194125D02*
X457909Y185375D01*
X459727Y194125D02*
X457909Y185375D01*
X463818Y190375D02*
X469273D01*
Y191625*
X468818Y192875*
X468364Y193500*
X467455Y194125*
X466091*
X465182Y193500*
X464273Y192250*
X463818Y190375*
Y189125*
X464273Y187250*
X465182Y186000*
X466091Y185375*
X467455*
X468364Y186000*
X469273Y187250*
X473364Y194125D02*
Y185375D01*
Y190375D02*
X473818Y192250D01*
X474727Y193500*
X475636Y194125*
X477000*
G54D70*
X228000Y356000D02*
X158000D01*
Y366000*
X225000*
X228000Y363000*
Y356000*
X360000Y357000D02*
X290000D01*
Y367000*
X357000*
X360000Y364000*
Y357000*
X486000D02*
X416000D01*
Y367000*
X483000*
X486000Y364000*
Y357000*
X352362Y276000D02*
G03X352362I-27362J0D01*
G01X420750Y202000D02*
G03X420750I-39750J0D01*
G01X308750D02*
G03X308750I-39750J0D01*
G74*
G01X0Y0D02*
M02*
