*
*
G04 PADS 9.3.1 Build Number: 456998 generated Gerber (RS-274-X) file*
G04 PC Version=2.1*
*
%IN "body_status_board_v1_1."*%
*
%MOIN*%
*
%FSLAX35Y35*%
*
*
*
*
G04 PC Standard Apertures*
*
*
G04 Thermal Relief Aperture macro.*
%AMTER*
1,1,$1,0,0*
1,0,$1-$2,0,0*
21,0,$3,$4,0,0,45*
21,0,$3,$4,0,0,135*
%
*
*
G04 Annular Aperture macro.*
%AMANN*
1,1,$1,0,0*
1,0,$2,0,0*
%
*
*
G04 Odd Aperture macro.*
%AMODD*
1,1,$1,0,0*
1,0,$1-0.005,0,0*
%
*
*
G04 PC Custom Aperture Macros*
*
*
*
*
*
*
G04 PC Aperture Table*
*
%ADD010C,0.001*%
%ADD022C,0.005*%
%ADD033C,0.00787*%
%ADD047C,0.003*%
%ADD070C,0.012*%
%ADD072C,0.0075*%
*
*
*
*
G04 PC Circuitry*
G04 Layer Name body_status_board_v1_1. - circuitry*
%LPD*%
*
*
G04 PC Custom Flashes*
G04 Layer Name body_status_board_v1_1. - flashes*
%LPD*%
*
*
G04 PC Circuitry*
G04 Layer Name body_status_board_v1_1. - circuitry*
%LPD*%
*
G54D10*
G54D22*
G01X141281Y209000D02*
X138000D01*
X141281D02*
Y210023D01*
X141125Y210364*
X140969Y210477*
X140656Y210591*
X140344*
X140031Y210477*
X139875Y210364*
X139719Y210023*
Y209000*
Y209795D02*
X138000Y210591D01*
X140656Y211614D02*
X140813Y211841D01*
X140813D02*
X141281Y212182D01*
X138000*
X146281Y209000D02*
X143000D01*
X146281D02*
Y210023D01*
X146125Y210364*
X145969Y210477*
X145656Y210591*
X145344*
X145031Y210477*
X144875Y210364*
X144719Y210023*
Y209000*
Y209795D02*
X143000Y210591D01*
X145500Y211727D02*
X145656D01*
X145969Y211841*
X146125Y211955*
X146281Y212182*
Y212636*
X146125Y212864*
X145969Y212977*
X145656Y213091*
X145344*
X145031Y212977*
X144563Y212750*
X144563D02*
X143000Y211614D01*
Y213205*
X151281Y209000D02*
X148000D01*
X151281D02*
Y210023D01*
X151125Y210364*
X150969Y210477*
X150656Y210591*
X150344*
X150031Y210477*
X149875Y210364*
X149719Y210023*
Y209000*
Y209795D02*
X148000Y210591D01*
X151281Y211841D02*
Y213091D01*
X150031Y212409*
Y212750*
X149875Y212977*
X149719Y213091*
X149250Y213205*
X148938*
X148938D02*
X148469Y213091D01*
X148156Y212864*
X148000Y212523*
Y212182*
X148156Y211841*
X148313Y211727*
X148313D02*
X148625Y211614D01*
X166281Y209000D02*
X163000D01*
X166281D02*
Y210023D01*
X166125Y210364*
X165969Y210477*
X165656Y210591*
X165344*
X165031Y210477*
X164875Y210364*
X164719Y210023*
Y209000*
Y209795D02*
X163000Y210591D01*
X166281Y212750D02*
X164094Y211614D01*
Y213318*
X166281Y212750D02*
X163000D01*
X161281Y209000D02*
X158000D01*
X161281D02*
Y210023D01*
X161125Y210364*
X160969Y210477*
X160656Y210591*
X160344*
X160031Y210477*
X159875Y210364*
X159719Y210023*
Y209000*
Y209795D02*
X158000Y210591D01*
X161281Y213091D02*
Y211955D01*
X159875Y211841*
X160031Y211955*
X160188Y212295*
X160188D02*
Y212636D01*
X160188D02*
X160031Y212977D01*
X159719Y213205*
X159250Y213318*
X158938Y213205*
X158938D02*
X158469Y213091D01*
X158156Y212864*
X158000Y212523*
Y212182*
X158156Y211841*
X158313Y211727*
X158313D02*
X158625Y211614D01*
X156281Y209000D02*
X153000D01*
X156281D02*
Y210023D01*
X156125Y210364*
X155969Y210477*
X155656Y210591*
X155344*
X155031Y210477*
X154875Y210364*
X154719Y210023*
Y209000*
Y209795D02*
X153000Y210591D01*
X155813Y212977D02*
X156125Y212864D01*
X156281Y212523*
Y212295*
X156125Y211955*
X155656Y211727*
X154875Y211614*
X154094*
X153469Y211727*
X153156Y211955*
X153000Y212295*
Y212409*
X153156Y212750*
X153469Y212977*
X153938Y213091*
X153938D02*
X154094D01*
X154563Y212977*
X154563D02*
X154875Y212750D01*
X155031Y212409*
Y212295*
X154875Y211955*
X154563Y211727*
X154563D02*
X154094Y211614D01*
X225781Y209000D02*
X222500D01*
X225781D02*
Y210023D01*
X225625Y210364*
X225469Y210477*
X225156Y210591*
X224844*
X224531Y210477*
X224375Y210364*
X224219Y210023*
Y209000*
Y209795D02*
X222500Y210591D01*
X225781Y213205D02*
X222500Y212068D01*
X225781Y211614D02*
Y213205D01*
X220781Y209000D02*
X217500D01*
X220781D02*
Y210023D01*
X220625Y210364*
X220469Y210477*
X220156Y210591*
X219844*
X219531Y210477*
X219375Y210364*
X219219Y210023*
Y209000*
Y209795D02*
X217500Y210591D01*
X220781Y212182D02*
X220625Y211841D01*
X220313Y211727*
X220000*
X219688Y211841*
X219531Y212068*
X219375Y212523*
X219219Y212864*
X218906Y213091*
X218594Y213205*
X218125*
X217813Y213091*
X217656Y212977*
X217500Y212636*
Y212182*
X217656Y211841*
X217813Y211727*
X218125Y211614*
X218594*
X218906Y211727*
X219219Y211955*
X219375Y212295*
X219531Y212750*
X219688Y212977*
X220000Y213091*
X220313*
X220625Y212977*
X220781Y212636*
Y212182*
X215781Y209000D02*
X212500D01*
X215781D02*
Y210023D01*
X215625Y210364*
X215469Y210477*
X215156Y210591*
X214844*
X214531Y210477*
X214375Y210364*
X214219Y210023*
Y209000*
Y209795D02*
X212500Y210591D01*
X214688Y213091D02*
X214219Y212977D01*
X213906Y212750*
X213750Y212409*
Y212295*
X213906Y211955*
X214219Y211727*
X214688Y211614*
X214844*
X215313Y211727*
X215625Y211955*
X215781Y212295*
Y212409*
X215625Y212750*
X215313Y212977*
X214688Y213091*
X213906*
X213125Y212977*
X212656Y212750*
X212500Y212409*
Y212182*
X212656Y211841*
X212969Y211727*
X210781Y209000D02*
X207500D01*
X210781D02*
Y210023D01*
X210625Y210364*
X210469Y210477*
X210156Y210591*
X209844*
X209531Y210477*
X209375Y210364*
X209219Y210023*
Y209000*
Y209795D02*
X207500Y210591D01*
X210156Y211614D02*
X210313Y211841D01*
X210781Y212182*
X207500*
X210781Y213886D02*
X210625Y213545D01*
X210156Y213318*
X209375Y213205*
X208906*
X208125Y213318*
X207656Y213545*
X207500Y213886*
Y214114*
X207656Y214455*
X208125Y214682*
X208906Y214795*
X209375*
X210156Y214682*
X210625Y214455*
X210781Y214114*
Y213886*
X205781Y209000D02*
X202500D01*
X205781D02*
Y210023D01*
X205625Y210364*
X205469Y210477*
X205156Y210591*
X204844*
X204531Y210477*
X204375Y210364*
X204219Y210023*
Y209000*
Y209795D02*
X202500Y210591D01*
X205156Y211614D02*
X205313Y211841D01*
X205781Y212182*
X202500*
X205156Y213205D02*
X205313Y213432D01*
X205781Y213773*
X202500*
X200781Y209000D02*
X197500D01*
X200781D02*
Y210023D01*
X200625Y210364*
X200469Y210477*
X200156Y210591*
X199844*
X199531Y210477*
X199375Y210364*
X199219Y210023*
Y209000*
Y209795D02*
X197500Y210591D01*
X200156Y211614D02*
X200313Y211841D01*
X200781Y212182*
X197500*
X200000Y213318D02*
X200156D01*
X200469Y213432*
X200625Y213545*
X200781Y213773*
Y214227*
X200625Y214455*
X200469Y214568*
X200156Y214682*
X199844*
X199531Y214568*
X199063Y214341*
X197500Y213205*
Y214795*
X195781Y209000D02*
X192500D01*
X195781D02*
Y210023D01*
X195625Y210364*
X195469Y210477*
X195156Y210591*
X194844*
X194531Y210477*
X194375Y210364*
X194219Y210023*
Y209000*
Y209795D02*
X192500Y210591D01*
X195156Y211614D02*
X195313Y211841D01*
X195313D02*
X195781Y212182D01*
X192500*
X195781Y213432D02*
Y214682D01*
X194531Y214000*
Y214341*
X194375Y214568*
X194219Y214682*
X193750Y214795*
X193438*
X193438D02*
X192969Y214682D01*
X192656Y214455*
X192500Y214114*
Y213773*
X192656Y213432*
X192813Y213318*
X192813D02*
X193125Y213205D01*
X190781Y209000D02*
X187500D01*
X190781D02*
Y210023D01*
X190625Y210364*
X190469Y210477*
X190156Y210591*
X189844*
X189531Y210477*
X189375Y210364*
X189219Y210023*
Y209000*
Y209795D02*
X187500Y210591D01*
X190156Y211614D02*
X190313Y211841D01*
X190313D02*
X190781Y212182D01*
X187500*
X190781Y214341D02*
X188594Y213205D01*
Y214909*
X190781Y214341D02*
X187500D01*
X185781Y209000D02*
X182500D01*
X185781D02*
Y210023D01*
X185625Y210364*
X185469Y210477*
X185156Y210591*
X184844*
X184531Y210477*
X184375Y210364*
X184219Y210023*
Y209000*
Y209795D02*
X182500Y210591D01*
X185156Y211614D02*
X185313Y211841D01*
X185313D02*
X185781Y212182D01*
X182500*
X185781Y214682D02*
Y213545D01*
X184375Y213432*
X184531Y213545*
X184688Y213886*
X184688D02*
Y214227D01*
X184688D02*
X184531Y214568D01*
X184219Y214795*
X183750Y214909*
X183438Y214795*
X183438D02*
X182969Y214682D01*
X182656Y214455*
X182500Y214114*
Y213773*
X182656Y213432*
X182813Y213318*
X182813D02*
X183125Y213205D01*
X180781Y209000D02*
X177500D01*
X180781D02*
Y210023D01*
X180625Y210364*
X180469Y210477*
X180156Y210591*
X179844*
X179531Y210477*
X179375Y210364*
X179219Y210023*
Y209000*
Y209795D02*
X177500Y210591D01*
X180156Y211614D02*
X180313Y211841D01*
X180313D02*
X180781Y212182D01*
X177500*
X180313Y214568D02*
X180625Y214455D01*
X180781Y214114*
Y213886*
X180625Y213545*
X180156Y213318*
X179375Y213205*
X178594*
X177969Y213318*
X177656Y213545*
X177500Y213886*
Y214000*
X177656Y214341*
X177969Y214568*
X178438Y214682*
X178438D02*
X178594D01*
X179063Y214568*
X179063D02*
X179375Y214341D01*
X179531Y214000*
Y213886*
X179375Y213545*
X179063Y213318*
X179063D02*
X178594Y213205D01*
X175781Y209000D02*
X172500D01*
X175781D02*
Y210023D01*
X175625Y210364*
X175469Y210477*
X175156Y210591*
X174844*
X174531Y210477*
X174375Y210364*
X174219Y210023*
Y209000*
Y209795D02*
X172500Y210591D01*
X175156Y211614D02*
X175313Y211841D01*
X175313D02*
X175781Y212182D01*
X172500*
X175781Y214795D02*
X172500Y213659D01*
X175781Y213205D02*
Y214795D01*
X170781Y209000D02*
X167500D01*
X170781D02*
Y210023D01*
X170625Y210364*
X170469Y210477*
X170156Y210591*
X169844*
X169531Y210477*
X169375Y210364*
X169219Y210023*
Y209000*
Y209795D02*
X167500Y210591D01*
X170156Y211614D02*
X170313Y211841D01*
X170313D02*
X170781Y212182D01*
X167500*
X170781Y213773D02*
X170625Y213432D01*
X170313Y213318*
X170313D02*
X170000D01*
X169688Y213432*
X169688D02*
X169531Y213659D01*
X169375Y214114*
X169219Y214455*
X168906Y214682*
X168594Y214795*
X168125*
X167813Y214682*
X167813D02*
X167656Y214568D01*
X167500Y214227*
Y213773*
X167656Y213432*
X167813Y213318*
X167813D02*
X168125Y213205D01*
X168594*
X168906Y213318*
X169219Y213545*
X169375Y213886*
X169531Y214341*
X169688Y214568*
X169688D02*
X170000Y214682D01*
X170313*
X170313D02*
X170625Y214568D01*
X170781Y214227*
Y213773*
X504000Y329719D02*
Y333000D01*
Y329719D02*
X505023D01*
X505364Y329875*
X505477Y330031*
X505591Y330344*
Y330656*
X505477Y330969*
X505364Y331125*
X505023Y331281*
X504000*
X504795D02*
X505591Y333000D01*
X506614Y330344D02*
X506841Y330187D01*
X507182Y329719*
Y333000*
X509682Y330812D02*
X509568Y331281D01*
X509341Y331594*
X509000Y331750*
X508886*
X508545Y331594*
X508318Y331281*
X508205Y330812*
Y330656*
X508318Y330187*
X508545Y329875*
X508886Y329719*
X509000*
X509341Y329875*
X509568Y330187*
X509682Y330812*
Y331594*
X509568Y332375*
X509341Y332844*
X509000Y333000*
X508773*
X508432Y332844*
X508318Y332531*
X504000Y301719D02*
Y305000D01*
Y301719D02*
X505023D01*
X505364Y301875*
X505477Y302031*
X505591Y302344*
Y302656*
X505477Y302969*
X505364Y303125*
X505023Y303281*
X504000*
X504795D02*
X505591Y305000D01*
X506727Y302500D02*
Y302344D01*
X506841Y302031*
X506955Y301875*
X507182Y301719*
X507636*
X507864Y301875*
X507977Y302031*
X508091Y302344*
Y302656*
X507977Y302969*
X507750Y303437*
X506614Y305000*
X508205*
X509909Y301719D02*
X509568Y301875D01*
X509341Y302344*
X509227Y303125*
Y303594*
X509341Y304375*
X509568Y304844*
X509909Y305000*
X510136*
X510477Y304844*
X510705Y304375*
X510818Y303594*
Y303125*
X510705Y302344*
X510477Y301875*
X510136Y301719*
X509909*
X504000Y287719D02*
Y291000D01*
Y287719D02*
X505023D01*
X505364Y287875*
X505477Y288031*
X505591Y288344*
Y288656*
X505477Y288969*
X505364Y289125*
X505023Y289281*
X504000*
X504795D02*
X505591Y291000D01*
X506727Y288500D02*
Y288344D01*
X506841Y288031*
X506955Y287875*
X507182Y287719*
X507636*
X507864Y287875*
X507977Y288031*
X508091Y288344*
Y288656*
X507977Y288969*
X507750Y289437*
X506614Y291000*
X508205*
X509227Y288344D02*
X509455Y288187D01*
X509795Y287719*
Y291000*
X504000Y273719D02*
Y277000D01*
Y273719D02*
X505023D01*
X505364Y273875*
X505477Y274031*
X505591Y274344*
Y274656*
X505477Y274969*
X505364Y275125*
X505023Y275281*
X504000*
X504795D02*
X505591Y277000D01*
X506727Y274500D02*
Y274344D01*
X506841Y274031*
X506955Y273875*
X507182Y273719*
X507636*
X507864Y273875*
X507977Y274031*
X508091Y274344*
Y274656*
X507977Y274969*
X507750Y275437*
X506614Y277000*
X508205*
X509341Y274500D02*
Y274344D01*
X509455Y274031*
X509568Y273875*
X509795Y273719*
X510250*
X510477Y273875*
X510591Y274031*
X510705Y274344*
Y274656*
X510591Y274969*
X510364Y275437*
X509227Y277000*
X510818*
X504000Y315719D02*
Y319000D01*
Y315719D02*
X505023D01*
X505364Y315875*
X505477Y316031*
X505591Y316344*
Y316656*
X505477Y316969*
X505364Y317125*
X505023Y317281*
X504000*
X504795D02*
X505591Y319000D01*
X506727Y316500D02*
Y316344D01*
X506841Y316031*
X506955Y315875*
X507182Y315719*
X507636*
X507864Y315875*
X507977Y316031*
X508091Y316344*
Y316656*
X507977Y316969*
X507750Y317437*
X506614Y319000*
X508205*
X509455Y315719D02*
X510705D01*
X510023Y316969*
X510364*
X510591Y317125*
X510705Y317281*
X510818Y317750*
Y318062*
X510705Y318531*
X510477Y318844*
X510136Y319000*
X509795*
X509455Y318844*
X509341Y318687*
X509227Y318375*
X328409Y238906D02*
X328636Y239219D01*
X328977Y239375*
X329432*
X329773Y239219*
X330000Y238906*
Y238594*
X329886Y238281*
X329773Y238125*
X329545Y237969*
X328864Y237656*
X328636Y237500*
X328523Y237344*
X328409Y237031*
Y236563*
X328409D02*
X328636Y236250D01*
X328977Y236094*
X329432*
X329773Y236250*
X330000Y236563*
X327386Y239375D02*
X326818Y236094D01*
X326250Y239375D02*
X326818Y236094D01*
X326250Y239375D02*
X325682Y236094D01*
X325114Y239375D02*
X325682Y236094D01*
X323977Y238594D02*
Y238750D01*
X323864Y239063*
X323864D02*
X323750Y239219D01*
X323523Y239375*
X323068*
X322841Y239219*
X322727Y239063*
X322727D02*
X322614Y238750D01*
Y238438*
X322614D02*
X322727Y238125D01*
X322955Y237656*
X324091Y236094*
X322500*
X325813Y200591D02*
X326125Y200364D01*
X326281Y200023*
Y199568*
X326125Y199227*
X325813Y199000*
X325813D02*
X325500D01*
X325188Y199114*
X325188D02*
X325031Y199227D01*
X324875Y199455*
X324563Y200136*
X324563D02*
X324406Y200364D01*
X324250Y200477*
X323938Y200591*
X323938D02*
X323469D01*
X323156Y200364*
X323000Y200023*
Y199568*
X323156Y199227*
X323469Y199000*
X326281Y201614D02*
X323000Y202182D01*
X326281Y202750D02*
X323000Y202182D01*
X326281Y202750D02*
X323000Y203318D01*
X326281Y203886D02*
X323000Y203318D01*
X325656Y204909D02*
X325813Y205136D01*
X325813D02*
X326281Y205477D01*
X323000*
X271409Y260813D02*
X271636Y261125D01*
X271977Y261281*
X272432*
X272773Y261125*
X273000Y260813*
X273000D02*
Y260500D01*
X272886Y260188*
X272886D02*
X272773Y260031D01*
X272545Y259875*
X271864Y259563*
X271864D02*
X271636Y259406D01*
X271523Y259250*
X271409Y258938*
X271409D02*
Y258469D01*
X271636Y258156*
X271977Y258000*
X272432*
X272773Y258156*
X273000Y258469*
X270386Y261281D02*
X269818Y258000D01*
X269250Y261281D02*
X269818Y258000D01*
X269250Y261281D02*
X268682Y258000D01*
X268114Y261281D02*
X268682Y258000D01*
X266864Y261281D02*
X265614D01*
X266295Y260031*
X265955*
X265727Y259875*
X265614Y259719*
X265500Y259250*
Y258938*
X265500D02*
X265614Y258469D01*
X265841Y258156*
X266182Y258000*
X266523*
X266864Y258156*
X266977Y258313*
X266977D02*
X267091Y258625D01*
X397719Y290000D02*
X401000D01*
X397719D02*
Y288977D01*
X397875Y288636*
X398031Y288523*
X398344Y288409*
X398656*
X398969Y288523*
X399125Y288636*
X399281Y288977*
Y290000*
Y289205D02*
X401000Y288409D01*
X398500Y287273D02*
X398344D01*
X398031Y287159*
X397875Y287045*
X397719Y286818*
Y286364*
X397875Y286136*
X398031Y286023*
X398344Y285909*
X398656*
X398969Y286023*
X399437Y286250*
X399437D02*
X401000Y287386D01*
Y285795*
X397719Y283636D02*
X399906Y284773D01*
Y283068*
X397719Y283636D02*
X401000D01*
X140781Y192591D02*
X137500Y191455D01*
X140781Y191000D02*
Y192591D01*
X140000Y193727D02*
X140156D01*
X140469Y193841*
X140625Y193955*
X140781Y194182*
Y194636*
X140625Y194864*
X140469Y194977*
X140156Y195091*
X139844*
X139531Y194977*
X139063Y194750*
X139063D02*
X137500Y193614D01*
Y195205*
X145000Y191114D02*
X145156D01*
X145469Y191227*
X145625Y191341*
X145781Y191568*
Y192023*
X145625Y192250*
X145469Y192364*
X145156Y192477*
X144844*
X144531Y192364*
X144063Y192136*
X144063D02*
X142500Y191000D01*
Y192591*
X145781Y194295D02*
X145625Y193955D01*
X145156Y193727*
X144375Y193614*
X143906*
X143125Y193727*
X142656Y193955*
X142500Y194295*
Y194523*
X142656Y194864*
X143125Y195091*
X143906Y195205*
X144375*
X145156Y195091*
X145625Y194864*
X145781Y194523*
Y194295*
X150000Y191114D02*
X150156D01*
X150469Y191227*
X150625Y191341*
X150781Y191568*
Y192023*
X150625Y192250*
X150469Y192364*
X150156Y192477*
X149844*
X149531Y192364*
X149063Y192136*
X149063D02*
X147500Y191000D01*
Y192591*
X150781Y194295D02*
X150625Y193955D01*
X150156Y193727*
X149375Y193614*
X148906*
X148125Y193727*
X147656Y193955*
X147500Y194295*
Y194523*
X147656Y194864*
X148125Y195091*
X148906Y195205*
X149375*
X150156Y195091*
X150625Y194864*
X150781Y194523*
Y194295*
X165781Y192591D02*
X162500Y191455D01*
X165781Y191000D02*
Y192591D01*
X165000Y193727D02*
X165156D01*
X165469Y193841*
X165625Y193955*
X165781Y194182*
Y194636*
X165625Y194864*
X165469Y194977*
X165156Y195091*
X164844*
X164531Y194977*
X164063Y194750*
X164063D02*
X162500Y193614D01*
Y195205*
X160000Y191114D02*
X160156D01*
X160469Y191227*
X160625Y191341*
X160781Y191568*
Y192023*
X160625Y192250*
X160469Y192364*
X160156Y192477*
X159844*
X159531Y192364*
X159063Y192136*
X159063D02*
X157500Y191000D01*
Y192591*
X160781Y194295D02*
X160625Y193955D01*
X160156Y193727*
X159375Y193614*
X158906*
X158125Y193727*
X157656Y193955*
X157500Y194295*
Y194523*
X157656Y194864*
X158125Y195091*
X158906Y195205*
X159375*
X160156Y195091*
X160625Y194864*
X160781Y194523*
Y194295*
X155000Y191114D02*
X155156D01*
X155469Y191227*
X155625Y191341*
X155781Y191568*
Y192023*
X155625Y192250*
X155469Y192364*
X155156Y192477*
X154844*
X154531Y192364*
X154063Y192136*
X154063D02*
X152500Y191000D01*
Y192591*
X155781Y194295D02*
X155625Y193955D01*
X155156Y193727*
X154375Y193614*
X153906*
X153125Y193727*
X152656Y193955*
X152500Y194295*
Y194523*
X152656Y194864*
X153125Y195091*
X153906Y195205*
X154375*
X155156Y195091*
X155625Y194864*
X155781Y194523*
Y194295*
X225781Y192591D02*
X222500Y191455D01*
X225781Y191000D02*
Y192591D01*
X225000Y193727D02*
X225156D01*
X225469Y193841*
X225625Y193955*
X225781Y194182*
Y194636*
X225625Y194864*
X225469Y194977*
X225156Y195091*
X224844*
X224531Y194977*
X224063Y194750*
X222500Y193614*
Y195205*
X220000Y191114D02*
X220156D01*
X220469Y191227*
X220625Y191341*
X220781Y191568*
Y192023*
X220625Y192250*
X220469Y192364*
X220156Y192477*
X219844*
X219531Y192364*
X219063Y192136*
X217500Y191000*
Y192591*
X220781Y194295D02*
X220625Y193955D01*
X220156Y193727*
X219375Y193614*
X218906*
X218125Y193727*
X217656Y193955*
X217500Y194295*
Y194523*
X217656Y194864*
X218125Y195091*
X218906Y195205*
X219375*
X220156Y195091*
X220625Y194864*
X220781Y194523*
Y194295*
X215000Y191114D02*
X215156D01*
X215469Y191227*
X215625Y191341*
X215781Y191568*
Y192023*
X215625Y192250*
X215469Y192364*
X215156Y192477*
X214844*
X214531Y192364*
X214063Y192136*
X212500Y191000*
Y192591*
X215781Y194295D02*
X215625Y193955D01*
X215156Y193727*
X214375Y193614*
X213906*
X213125Y193727*
X212656Y193955*
X212500Y194295*
Y194523*
X212656Y194864*
X213125Y195091*
X213906Y195205*
X214375*
X215156Y195091*
X215625Y194864*
X215781Y194523*
Y194295*
X210781Y192591D02*
X207500Y191455D01*
X210781Y191000D02*
Y192591D01*
X210000Y193727D02*
X210156D01*
X210469Y193841*
X210625Y193955*
X210781Y194182*
Y194636*
X210625Y194864*
X210469Y194977*
X210156Y195091*
X209844*
X209531Y194977*
X209063Y194750*
X207500Y193614*
Y195205*
X205000Y191114D02*
X205156D01*
X205469Y191227*
X205625Y191341*
X205781Y191568*
Y192023*
X205625Y192250*
X205469Y192364*
X205156Y192477*
X204844*
X204531Y192364*
X204063Y192136*
X202500Y191000*
Y192591*
X205781Y194295D02*
X205625Y193955D01*
X205156Y193727*
X204375Y193614*
X203906*
X203125Y193727*
X202656Y193955*
X202500Y194295*
Y194523*
X202656Y194864*
X203125Y195091*
X203906Y195205*
X204375*
X205156Y195091*
X205625Y194864*
X205781Y194523*
Y194295*
X200000Y191114D02*
X200156D01*
X200469Y191227*
X200625Y191341*
X200781Y191568*
Y192023*
X200625Y192250*
X200469Y192364*
X200156Y192477*
X199844*
X199531Y192364*
X199063Y192136*
X197500Y191000*
Y192591*
X200781Y194295D02*
X200625Y193955D01*
X200156Y193727*
X199375Y193614*
X198906*
X198125Y193727*
X197656Y193955*
X197500Y194295*
Y194523*
X197656Y194864*
X198125Y195091*
X198906Y195205*
X199375*
X200156Y195091*
X200625Y194864*
X200781Y194523*
Y194295*
X195781Y192591D02*
X192500Y191455D01*
X195781Y191000D02*
Y192591D01*
X195000Y193727D02*
X195156D01*
X195469Y193841*
X195625Y193955*
X195781Y194182*
Y194636*
X195625Y194864*
X195469Y194977*
X195156Y195091*
X194844*
X194531Y194977*
X194063Y194750*
X194063D02*
X192500Y193614D01*
Y195205*
X190000Y191114D02*
X190156D01*
X190469Y191227*
X190625Y191341*
X190781Y191568*
Y192023*
X190625Y192250*
X190469Y192364*
X190156Y192477*
X189844*
X189531Y192364*
X189063Y192136*
X189063D02*
X187500Y191000D01*
Y192591*
X190781Y194295D02*
X190625Y193955D01*
X190156Y193727*
X189375Y193614*
X188906*
X188125Y193727*
X187656Y193955*
X187500Y194295*
Y194523*
X187656Y194864*
X188125Y195091*
X188906Y195205*
X189375*
X190156Y195091*
X190625Y194864*
X190781Y194523*
Y194295*
X185000Y191114D02*
X185156D01*
X185469Y191227*
X185625Y191341*
X185781Y191568*
Y192023*
X185625Y192250*
X185469Y192364*
X185156Y192477*
X184844*
X184531Y192364*
X184063Y192136*
X184063D02*
X182500Y191000D01*
Y192591*
X185781Y194295D02*
X185625Y193955D01*
X185156Y193727*
X184375Y193614*
X183906*
X183125Y193727*
X182656Y193955*
X182500Y194295*
Y194523*
X182656Y194864*
X183125Y195091*
X183906Y195205*
X184375*
X185156Y195091*
X185625Y194864*
X185781Y194523*
Y194295*
X180781Y192591D02*
X177500Y191455D01*
X180781Y191000D02*
Y192591D01*
X180000Y193727D02*
X180156D01*
X180469Y193841*
X180625Y193955*
X180781Y194182*
Y194636*
X180625Y194864*
X180469Y194977*
X180156Y195091*
X179844*
X179531Y194977*
X179063Y194750*
X179063D02*
X177500Y193614D01*
Y195205*
X175000Y191114D02*
X175156D01*
X175469Y191227*
X175625Y191341*
X175781Y191568*
Y192023*
X175625Y192250*
X175469Y192364*
X175156Y192477*
X174844*
X174531Y192364*
X174063Y192136*
X174063D02*
X172500Y191000D01*
Y192591*
X175781Y194295D02*
X175625Y193955D01*
X175156Y193727*
X174375Y193614*
X173906*
X173125Y193727*
X172656Y193955*
X172500Y194295*
Y194523*
X172656Y194864*
X173125Y195091*
X173906Y195205*
X174375*
X175156Y195091*
X175625Y194864*
X175781Y194523*
Y194295*
X170000Y191114D02*
X170156D01*
X170469Y191227*
X170625Y191341*
X170781Y191568*
Y192023*
X170625Y192250*
X170469Y192364*
X170156Y192477*
X169844*
X169531Y192364*
X169063Y192136*
X169063D02*
X167500Y191000D01*
Y192591*
X170781Y194295D02*
X170625Y193955D01*
X170156Y193727*
X169375Y193614*
X168906*
X168125Y193727*
X167656Y193955*
X167500Y194295*
Y194523*
X167656Y194864*
X168125Y195091*
X168906Y195205*
X169375*
X170156Y195091*
X170625Y194864*
X170781Y194523*
Y194295*
X492727Y334219D02*
X493977D01*
X493295Y335469*
X493636*
X493864Y335625*
X493977Y335781*
X494091Y336250*
Y336562*
X494091D02*
X493977Y337031D01*
X493750Y337344*
X493409Y337500*
X493068*
X492727Y337344*
X492614Y337187*
X492614D02*
X492500Y336875D01*
X495227Y337187D02*
X495114Y337344D01*
X495227Y337500*
X495341Y337344*
X495227Y337187*
X497955Y334219D02*
X496818Y337500D01*
X496364Y334219D02*
X497955D01*
X498977D02*
Y337500D01*
X500568Y334219D02*
X498977Y336406D01*
X499545Y335625D02*
X500568Y337500D01*
X492500Y306844D02*
X492727Y306687D01*
X492727D02*
X493068Y306219D01*
Y309500*
X494091Y306219D02*
Y309500D01*
X495682Y306219D02*
X494091Y308406D01*
X494659Y307625D02*
X495682Y309500D01*
X493977Y292219D02*
X492841D01*
X492727Y293625*
X492841Y293469*
X493182Y293312*
X493182D02*
X493523D01*
X493523D02*
X493864Y293469D01*
X494091Y293781*
X494205Y294250*
X494091Y294562*
X494091D02*
X493977Y295031D01*
X493750Y295344*
X493409Y295500*
X493068*
X492727Y295344*
X492614Y295187*
X492614D02*
X492500Y294875D01*
X495909Y292219D02*
X495568Y292375D01*
X495341Y292844*
X495227Y293625*
Y294094*
X495341Y294875*
X495568Y295344*
X495909Y295500*
X496136*
X496477Y295344*
X496705Y294875*
X496818Y294094*
Y293625*
X496705Y292844*
X496477Y292375*
X496136Y292219*
X495909*
X498523D02*
X498182Y292375D01*
X497955Y292844*
X497841Y293625*
Y294094*
X497955Y294875*
X498182Y295344*
X498523Y295500*
X498750*
X499091Y295344*
X499318Y294875*
X499432Y294094*
Y293625*
X499318Y292844*
X499091Y292375*
X498750Y292219*
X498523*
X493977Y278219D02*
X492841D01*
X492727Y279625*
X492841Y279469*
X493182Y279312*
X493182D02*
X493523D01*
X493523D02*
X493864Y279469D01*
X494091Y279781*
X494205Y280250*
X494091Y280562*
X494091D02*
X493977Y281031D01*
X493750Y281344*
X493409Y281500*
X493068*
X492727Y281344*
X492614Y281187*
X492614D02*
X492500Y280875D01*
X495909Y278219D02*
X495568Y278375D01*
X495341Y278844*
X495227Y279625*
Y280094*
X495341Y280875*
X495568Y281344*
X495909Y281500*
X496136*
X496477Y281344*
X496705Y280875*
X496818Y280094*
Y279625*
X496705Y278844*
X496477Y278375*
X496136Y278219*
X495909*
X498523D02*
X498182Y278375D01*
X497955Y278844*
X497841Y279625*
Y280094*
X497955Y280875*
X498182Y281344*
X498523Y281500*
X498750*
X499091Y281344*
X499318Y280875*
X499432Y280094*
Y279625*
X499318Y278844*
X499091Y278375*
X498750Y278219*
X498523*
X492727Y320219D02*
X493977D01*
X493295Y321469*
X493636*
X493864Y321625*
X493977Y321781*
X494091Y322250*
Y322562*
X494091D02*
X493977Y323031D01*
X493750Y323344*
X493409Y323500*
X493068*
X492727Y323344*
X492614Y323187*
X492614D02*
X492500Y322875D01*
X495227Y323187D02*
X495114Y323344D01*
X495227Y323500*
X495341Y323344*
X495227Y323187*
X497955Y320219D02*
X496818Y323500D01*
X496364Y320219D02*
X497955D01*
X498977D02*
Y323500D01*
X500568Y320219D02*
X498977Y322406D01*
X499545Y321625D02*
X500568Y323500D01*
X395000Y298386D02*
X394844D01*
X394531Y298273*
X394375Y298159*
X394219Y297932*
Y297477*
X394375Y297250*
X394531Y297136*
X394844Y297023*
X395156*
X395469Y297136*
X395937Y297364*
X395937D02*
X397500Y298500D01*
Y296909*
X394219Y295205D02*
X394375Y295545D01*
X394844Y295773*
X395625Y295886*
X396094*
X396875Y295773*
X397344Y295545*
X397500Y295205*
Y294977*
X397344Y294636*
X396875Y294409*
X396094Y294295*
X395625*
X394844Y294409*
X394375Y294636*
X394219Y294977*
Y295205*
G54D33*
X376189Y333205D02*
X399811D01*
Y343638*
X403354Y347575*
Y354858*
X396661*
Y350921*
X379339*
Y354858*
X372646*
Y347575*
X376189Y343638*
Y333205*
X247189D02*
X270811D01*
Y343638*
X274354Y347575*
Y354858*
X267661*
Y350921*
X250339*
Y354858*
X243646*
Y347575*
X247189Y343638*
Y333205*
X190409Y159795D02*
X141591D01*
Y138142*
X147496*
Y142079*
X184504*
Y138142*
X190409*
Y159795*
X245409D02*
X196591D01*
Y138142*
X202496*
Y142079*
X239504*
Y138142*
X245409*
Y159795*
X300409D02*
X251591D01*
Y138142*
X257496*
Y142079*
X294504*
Y138142*
X300409*
Y159795*
X355409D02*
X306591D01*
Y138142*
X312496*
Y142079*
X349504*
Y138142*
X355409*
Y159795*
X411409D02*
X362591D01*
Y138142*
X368496*
Y142079*
X405504*
Y138142*
X411409*
Y159795*
X467409D02*
X418591D01*
Y138142*
X424496*
Y142079*
X461504*
Y138142*
X467409*
Y159795*
X484189Y213205D02*
X507811D01*
Y223638*
X511354Y227575*
Y234858*
X504661*
Y230921*
X487339*
Y234858*
X480646*
Y227575*
X484189Y223638*
Y213205*
Y245205D02*
X507811D01*
Y255638*
X511354Y259575*
Y266858*
X504661*
Y262921*
X487339*
Y266858*
X480646*
Y259575*
X484189Y255638*
Y245205*
X225283Y353795D02*
X160717D01*
Y332142*
X166622*
Y336079*
X219378*
Y332142*
X225283*
Y353795*
X357283Y354795D02*
X292717D01*
Y333142*
X298622*
Y337079*
X351378*
Y333142*
X357283*
Y354795*
X483283D02*
X418717D01*
Y333142*
X424622*
Y337079*
X477378*
Y333142*
X483283*
Y354795*
X408189Y270205D02*
X431811D01*
Y280638*
X435354Y284575*
Y291858*
X428661*
Y287921*
X411339*
Y291858*
X404646*
Y284575*
X408189Y280638*
Y270205*
Y241205D02*
X431811D01*
Y251638*
X435354Y255575*
Y262858*
X428661*
Y258921*
X411339*
Y262858*
X404646*
Y255575*
X408189Y251638*
Y241205*
Y299205D02*
X431811D01*
Y309638*
X435354Y313575*
Y320858*
X428661*
Y316921*
X411339*
Y320858*
X404646*
Y313575*
X408189Y309638*
Y299205*
X388795Y258528D02*
Y299472D01*
X367142*
Y293173*
X371079*
Y264827*
X367142*
Y258528*
X388795*
G54D47*
X397850Y331020D02*
Y329150D01*
Y331020D02*
X397277Y329150D01*
X396705Y331020D02*
X397277Y329150D01*
X396705Y331020D02*
Y329150D01*
X395631Y331020D02*
X395774Y330931D01*
X395917Y330753*
X395989Y330575*
X396060Y330308*
Y329862*
X395989Y329595*
X395917Y329417*
X395774Y329239*
X395631Y329150*
X395345*
X395201Y329239*
X395058Y329417*
X394987Y329595*
X394915Y329862*
Y330308*
X394987Y330575*
X395058Y330753*
X395201Y330931*
X395345Y331020*
X395631*
X393770D02*
Y329150D01*
X394271Y331020D02*
X393269D01*
X392195D02*
X392338Y330931D01*
X392481Y330753*
X392553Y330575*
X392625Y330308*
Y329862*
X392553Y329595*
X392481Y329417*
X392338Y329239*
X392195Y329150*
X391909*
X391766Y329239*
X391622Y329417*
X391551Y329595*
X391479Y329862*
Y330308*
X391551Y330575*
X391622Y330753*
X391766Y330931*
X391909Y331020*
X392195*
X390835D02*
Y329150D01*
Y331020D02*
X390191D01*
X389976Y330931*
X389904Y330842*
X389833Y330664*
Y330486*
X389904Y330308*
X389976Y330219*
X390191Y330130*
X390835*
X390334D02*
X389833Y329150D01*
X389189Y328794D02*
X387685D01*
X387256Y331020D02*
Y329150D01*
Y331020D02*
X386612D01*
X386397Y330931*
X386325Y330842*
X386254Y330664*
Y330397*
X386325Y330219*
X386397Y330130*
X386612Y330041*
X386612D02*
X387256D01*
X385180Y331020D02*
X385323Y330931D01*
X385466Y330753*
X385538Y330575*
X385609Y330308*
Y329862*
X385538Y329595*
X385466Y329417*
X385323Y329239*
X385180Y329150*
X384894*
X384750Y329239*
X384750D02*
X384607Y329417D01*
X384536Y329595*
X384464Y329862*
Y330308*
X384536Y330575*
X384607Y330753*
X384750Y330931*
X384750D02*
X384894Y331020D01*
X385180*
X383820D02*
X383462Y329150D01*
X383104Y331020D02*
X383462Y329150D01*
X383104Y331020D02*
X382746Y329150D01*
X382388Y331020D02*
X382746Y329150D01*
X381744Y331020D02*
Y329150D01*
Y331020D02*
X380813D01*
X381744Y330130D02*
X381171D01*
X381744Y329150D02*
X380813D01*
X380169Y331020D02*
Y329150D01*
Y331020D02*
X379525D01*
X379310Y330931*
X379239Y330842*
X379167Y330664*
Y330486*
X379239Y330308*
X379310Y330219*
X379525Y330130*
X380169*
X379668D02*
X379167Y329150D01*
X250224Y329425D02*
X250152Y329247D01*
X250009Y329069*
X249866Y328980*
X249579*
X249436Y329069*
X249293Y329247*
X249222Y329425*
X249150Y329692*
Y330138*
X249222Y330405*
X249293Y330583*
X249436Y330761*
X249579Y330850*
X249866*
X250009Y330761*
X250152Y330583*
X250224Y330405*
X251297Y328980D02*
X251154Y329069D01*
X251011Y329247*
X250940Y329425*
X250868Y329692*
Y330138*
X250940Y330405*
X251011Y330583*
X251154Y330761*
X251297Y330850*
X251584*
X251727Y330761*
X251870Y330583*
X251942Y330405*
X252013Y330138*
Y329692*
X251942Y329425*
X251870Y329247*
X251727Y329069*
X251584Y328980*
X251297*
X252658D02*
Y330850D01*
Y328980D02*
X253230Y330850D01*
X253803Y328980D02*
X253230Y330850D01*
X253803Y328980D02*
Y330850D01*
X254447Y328980D02*
Y330850D01*
Y328980D02*
X255091D01*
X255306Y329069*
X255378Y329158*
X255449Y329336*
Y329603*
X255378Y329781*
X255306Y329870*
X255091Y329960*
X255091D02*
X254447D01*
X256093Y328980D02*
Y330316D01*
X256165Y330583*
X256308Y330761*
X256523Y330850*
X256666*
X256881Y330761*
X257024Y330583*
X257096Y330316*
Y328980*
X257740D02*
Y330850D01*
Y328980D02*
X258670D01*
X257740Y329870D02*
X258312D01*
X257740Y330850D02*
X258670D01*
X259315Y328980D02*
Y330850D01*
Y328980D02*
X259959D01*
X260174Y329069*
X260245Y329158*
X260317Y329336*
Y329514*
X260245Y329692*
X260174Y329781*
X259959Y329870*
X259315*
X259816D02*
X260317Y330850D01*
X260961Y331206D02*
X262464D01*
X262894Y328980D02*
Y330850D01*
Y328980D02*
X263538D01*
X263753Y329069*
X263824Y329158*
X263896Y329336*
Y329603*
X263824Y329781*
X263753Y329870*
X263538Y329960*
X263538D02*
X262894D01*
X264970Y328980D02*
X264826Y329069D01*
X264683Y329247*
X264612Y329425*
X264540Y329692*
Y330138*
X264612Y330405*
X264683Y330583*
X264826Y330761*
X264970Y330850*
X265256*
X265399Y330761*
X265542Y330583*
X265614Y330405*
X265685Y330138*
Y329692*
X265614Y329425*
X265542Y329247*
X265399Y329069*
X265256Y328980*
X264970*
X266330D02*
X266688Y330850D01*
X267045Y328980D02*
X266688Y330850D01*
X267045Y328980D02*
X267403Y330850D01*
X267761Y328980D02*
X267403Y330850D01*
X268406Y328980D02*
Y330850D01*
Y328980D02*
X269336D01*
X268406Y329870D02*
X268978D01*
X268406Y330850D02*
X269336D01*
X269980Y328980D02*
Y330850D01*
Y328980D02*
X270625D01*
X270839Y329069*
X270911Y329158*
X270982Y329336*
X270982D02*
Y329514D01*
X270982D02*
X270911Y329692D01*
X270839Y329781*
X270625Y329870*
X269980*
X270481D02*
X270982Y330850D01*
X190980Y152134D02*
X192405D01*
X192672Y152206*
X192761Y152277*
X192850Y152421*
Y152564*
X192761Y152707*
X192672Y152778*
X192405Y152850*
X192227*
X190980Y151132D02*
X191069Y151347D01*
X191247Y151418*
X191425*
X191603Y151347*
X191692Y151204*
X191781Y150917*
X191870Y150703*
X192049Y150559*
X192227Y150488*
X192494*
X192672Y150559*
X192761Y150631*
X192850Y150846*
Y151132*
X192761Y151347*
X192672Y151418*
X192494Y151490*
X192227*
X192049Y151418*
X191870Y151275*
X191781Y151060*
X191692Y150774*
X191603Y150631*
X191425Y150559*
X191247*
X191069Y150631*
X190980Y150846*
Y151132*
X246980Y152134D02*
X248405D01*
X248672Y152206*
X248761Y152277*
X248850Y152421*
Y152564*
X248761Y152707*
X248672Y152778*
X248405Y152850*
X248227*
X247603Y150559D02*
X247870Y150631D01*
X248049Y150774*
X248138Y150989*
Y151060*
X248049Y151275*
X247870Y151418*
X247603Y151490*
X247514*
X247247Y151418*
X247069Y151275*
X246980Y151060*
Y150989*
X247069Y150774*
X247247Y150631*
X247603Y150559*
X248049*
X248494Y150631*
X248761Y150774*
X248850Y150989*
Y151132*
X248761Y151347*
X248583Y151418*
X301980Y153134D02*
X303405D01*
X303672Y153206*
X303761Y153277*
X303850Y153421*
Y153564*
X303761Y153707*
X303672Y153778*
X303405Y153850*
X303227*
X302336Y152490D02*
X302247Y152347D01*
X301980Y152132*
X303850*
X301980Y151058D02*
X302069Y151273D01*
X302336Y151416*
X302781Y151488*
X303049*
X303494Y151416*
X303761Y151273*
X303850Y151058*
Y150915*
X303761Y150700*
X303494Y150557*
X303049Y150486*
X302781*
X302336Y150557*
X302069Y150700*
X301980Y150915*
Y151058*
X356980Y151134D02*
X358405D01*
X358672Y151206*
X358761Y151277*
X358850Y151421*
Y151564*
X358761Y151707*
X358672Y151778*
X358405Y151850*
X358227*
X357336Y150490D02*
X357247Y150347D01*
X356980Y150132*
X358850*
X357336Y149488D02*
X357247Y149345D01*
X356980Y149130*
X358850*
X412980Y151134D02*
X414405D01*
X414672Y151206*
X414761Y151277*
X414850Y151421*
Y151564*
X414761Y151707*
X414672Y151778*
X414405Y151850*
X414227*
X413336Y150490D02*
X413247Y150347D01*
X412980Y150132*
X414850*
X413425Y149416D02*
X413336D01*
X413158Y149345*
X413069Y149273*
X412980Y149130*
Y148844*
X413069Y148700*
X413158Y148629*
X413336Y148557*
X413514*
X413692Y148629*
X413959Y148772*
X413959D02*
X414850Y149488D01*
Y148486*
X469980Y152134D02*
X471405D01*
X471672Y152206*
X471761Y152277*
X471850Y152421*
Y152564*
X471761Y152707*
X471672Y152778*
X471405Y152850*
X471227*
X470336Y151490D02*
X470247Y151347D01*
X469980Y151132*
X471850*
X469980Y150345D02*
Y149557D01*
X470692Y149987*
Y149772*
X470781Y149629*
X470870Y149557*
X471138Y149486*
X471316*
X471583Y149557*
X471761Y149700*
X471850Y149915*
Y150130*
X471761Y150345*
X471672Y150416*
X471494Y150488*
X495150Y208980D02*
Y210850D01*
Y208980D02*
X496081D01*
X495150Y209870D02*
X495723D01*
X495150Y210850D02*
X496081D01*
X496725Y211206D02*
X498228D01*
X498658Y208980D02*
Y210850D01*
X499302Y208980D02*
Y210850D01*
Y208980D02*
X500304Y210850D01*
Y208980D02*
Y210850D01*
X493150Y240980D02*
Y242850D01*
Y240980D02*
X494081D01*
X493150Y241870D02*
X493723D01*
X493150Y242850D02*
X494081D01*
X494725Y243206D02*
X496228D01*
X497087Y240980D02*
X496944Y241069D01*
X496801Y241247*
X496729Y241425*
X496658Y241692*
Y242138*
X496729Y242405*
X496801Y242583*
X496944Y242761*
X497087Y242850*
X497373*
X497516Y242761*
X497516D02*
X497660Y242583D01*
X497731Y242405*
X497803Y242138*
Y241692*
X497731Y241425*
X497660Y241247*
X497516Y241069*
X497516D02*
X497373Y240980D01*
X497087*
X498447D02*
Y242316D01*
X498519Y242583*
X498662Y242761*
X498877Y242850*
X499020*
X499234Y242761*
X499378Y242583*
X499449Y242316*
Y240980*
X500595D02*
Y242850D01*
X500093Y240980D02*
X501096D01*
X226980Y344134D02*
X228405D01*
X228672Y344206*
X228761Y344277*
X228850Y344421*
Y344564*
X228761Y344707*
X228672Y344778*
X228405Y344850*
X228227*
X227336Y343490D02*
X227247Y343347D01*
X226980Y343132*
X228850*
X358980Y345134D02*
X360405D01*
X360672Y345206*
X360761Y345277*
X360850Y345421*
Y345564*
X360761Y345707*
X360672Y345778*
X360405Y345850*
X360227*
X359425Y344418D02*
X359336D01*
X359158Y344347*
X359069Y344275*
X358980Y344132*
Y343846*
X359069Y343703*
X359158Y343631*
X359336Y343559*
X359514*
X359692Y343631*
X359959Y343774*
X359959D02*
X360850Y344490D01*
Y343488*
X484980Y346134D02*
X486405D01*
X486672Y346206*
X486761Y346277*
X486850Y346421*
Y346564*
X486761Y346707*
X486672Y346778*
X486405Y346850*
X486227*
X484980Y345347D02*
Y344559D01*
X485692Y344989*
Y344774*
X485781Y344631*
X485870Y344559*
X486138Y344488*
X486316*
X486583Y344559*
X486761Y344703*
X486850Y344917*
Y345132*
X486761Y345347*
X486672Y345418*
X486494Y345490*
X409150Y266980D02*
Y268850D01*
X410009*
X411083Y266980D02*
X410940Y267069D01*
X410796Y267247*
X410725Y267425*
X410653Y267692*
Y268138*
X410725Y268405*
X410796Y268583*
X410940Y268761*
X411083Y268850*
X411369*
X411512Y268761*
X411655Y268583*
X411727Y268405*
X411799Y268138*
Y267692*
X411727Y267425*
X411655Y267247*
X411512Y267069*
X411369Y266980*
X411083*
X413516Y267425D02*
X413445Y267247D01*
X413302Y267069*
X413159Y266980*
X412872*
X412729Y267069*
X412586Y267247*
X412514Y267425*
X412443Y267692*
Y268138*
X412514Y268405*
X412586Y268583*
X412729Y268761*
X412872Y268850*
X413159*
X413302Y268761*
X413445Y268583*
X413516Y268405*
X413516D02*
Y268138D01*
X413159D02*
X413516D01*
X414161Y266980D02*
Y268850D01*
X415879Y267425D02*
X415807Y267247D01*
X415664Y267069*
X415521Y266980*
X415234*
X415091Y267069*
X414948Y267247*
X414877Y267425*
X414805Y267692*
Y268138*
X414877Y268405*
X414948Y268583*
X415091Y268761*
X415234Y268850*
X415521*
X415664Y268761*
X415807Y268583*
X415879Y268405*
X416523Y266980D02*
Y268850D01*
Y266980D02*
X417167D01*
X417382Y267069*
X417454Y267158*
X417525Y267336*
Y267603*
X417454Y267781*
X417382Y267870*
X417167Y267960*
X417167D02*
X416523D01*
X418599Y266980D02*
X418456Y267069D01*
X418312Y267247*
X418241Y267425*
X418169Y267692*
Y268138*
X418241Y268405*
X418312Y268583*
X418456Y268761*
X418599Y268850*
X418885*
X419028Y268761*
X419171Y268583*
X419243Y268405*
X419315Y268138*
Y267692*
X419243Y267425*
X419171Y267247*
X419028Y267069*
X418885Y266980*
X418599*
X419959D02*
X420317Y268850D01*
X420675Y266980D02*
X420317Y268850D01*
X420675Y266980D02*
X421033Y268850D01*
X421391Y266980D02*
X421033Y268850D01*
X422035Y266980D02*
Y268850D01*
Y266980D02*
X422965D01*
X422035Y267870D02*
X422607D01*
X422035Y268850D02*
X422965D01*
X423610Y266980D02*
Y268850D01*
Y266980D02*
X424254D01*
X424469Y267069*
X424540Y267158*
X424612Y267336*
Y267514*
X424540Y267692*
X424469Y267781*
X424254Y267870*
X423610*
X424111D02*
X424612Y268850D01*
X425685Y266980D02*
X425542Y267069D01*
X425399Y267247*
X425328Y267425*
X425256Y267692*
Y268138*
X425328Y268405*
X425399Y268583*
X425542Y268761*
X425685Y268850*
X425972*
X426115Y268761*
X426258Y268583*
X426330Y268405*
X426401Y268138*
Y267692*
X426330Y267425*
X426258Y267247*
X426115Y267069*
X425972Y266980*
X425685*
X427045D02*
Y268316D01*
X427117Y268583*
X427260Y268761*
X427475Y268850*
X427618*
X427833Y268761*
X427976Y268583*
X428048Y268316*
Y266980*
X429193D02*
Y268850D01*
X428692Y266980D02*
X429694D01*
X430338Y267336D02*
X430481Y267247D01*
X430696Y266980*
Y268850*
X409150Y236980D02*
Y238850D01*
X410009*
X411083Y236980D02*
X410940Y237069D01*
X410796Y237247*
X410725Y237425*
X410653Y237692*
Y238138*
X410725Y238405*
X410796Y238583*
X410940Y238761*
X411083Y238850*
X411369*
X411512Y238761*
X411655Y238583*
X411727Y238405*
X411799Y238138*
Y237692*
X411727Y237425*
X411655Y237247*
X411512Y237069*
X411369Y236980*
X411083*
X413516Y237425D02*
X413445Y237247D01*
X413302Y237069*
X413159Y236980*
X412872*
X412729Y237069*
X412586Y237247*
X412514Y237425*
X412443Y237692*
Y238138*
X412514Y238405*
X412586Y238583*
X412729Y238761*
X412872Y238850*
X413159*
X413302Y238761*
X413445Y238583*
X413516Y238405*
X413516D02*
Y238138D01*
X413159D02*
X413516D01*
X414161Y236980D02*
Y238850D01*
X415879Y237425D02*
X415807Y237247D01*
X415664Y237069*
X415521Y236980*
X415234*
X415091Y237069*
X414948Y237247*
X414877Y237425*
X414805Y237692*
Y238138*
X414877Y238405*
X414948Y238583*
X415091Y238761*
X415234Y238850*
X415521*
X415664Y238761*
X415807Y238583*
X415879Y238405*
X416523Y236980D02*
Y238850D01*
Y236980D02*
X417167D01*
X417382Y237069*
X417454Y237158*
X417525Y237336*
Y237603*
X417454Y237781*
X417382Y237870*
X417167Y237960*
X417167D02*
X416523D01*
X418599Y236980D02*
X418456Y237069D01*
X418312Y237247*
X418241Y237425*
X418169Y237692*
Y238138*
X418241Y238405*
X418312Y238583*
X418456Y238761*
X418599Y238850*
X418885*
X419028Y238761*
X419171Y238583*
X419243Y238405*
X419315Y238138*
Y237692*
X419243Y237425*
X419171Y237247*
X419028Y237069*
X418885Y236980*
X418599*
X419959D02*
X420317Y238850D01*
X420675Y236980D02*
X420317Y238850D01*
X420675Y236980D02*
X421033Y238850D01*
X421391Y236980D02*
X421033Y238850D01*
X422035Y236980D02*
Y238850D01*
Y236980D02*
X422965D01*
X422035Y237870D02*
X422607D01*
X422035Y238850D02*
X422965D01*
X423610Y236980D02*
Y238850D01*
Y236980D02*
X424254D01*
X424469Y237069*
X424540Y237158*
X424612Y237336*
Y237514*
X424540Y237692*
X424469Y237781*
X424254Y237870*
X423610*
X424111D02*
X424612Y238850D01*
X425685Y236980D02*
X425542Y237069D01*
X425399Y237247*
X425328Y237425*
X425256Y237692*
Y238138*
X425328Y238405*
X425399Y238583*
X425542Y238761*
X425685Y238850*
X425972*
X426115Y238761*
X426258Y238583*
X426330Y238405*
X426401Y238138*
Y237692*
X426330Y237425*
X426258Y237247*
X426115Y237069*
X425972Y236980*
X425685*
X427045D02*
Y238316D01*
X427117Y238583*
X427260Y238761*
X427475Y238850*
X427618*
X427833Y238761*
X427976Y238583*
X428048Y238316*
Y236980*
X429193D02*
Y238850D01*
X428692Y236980D02*
X429694D01*
X430410Y237425D02*
Y237336D01*
X430481Y237158*
X430553Y237069*
X430696Y236980*
X430982*
X430982D02*
X431126Y237069D01*
X431197Y237158*
X431269Y237336*
Y237514*
X431197Y237692*
X431054Y237960*
X431054D02*
X430338Y238850D01*
X431340*
X409150Y295980D02*
Y297850D01*
X410009*
X411083Y295980D02*
X410940Y296069D01*
X410796Y296247*
X410725Y296425*
X410653Y296692*
Y297138*
X410725Y297405*
X410796Y297583*
X410940Y297761*
X411083Y297850*
X411369*
X411512Y297761*
X411655Y297583*
X411727Y297405*
X411799Y297138*
Y296692*
X411727Y296425*
X411655Y296247*
X411512Y296069*
X411369Y295980*
X411083*
X413516Y296425D02*
X413445Y296247D01*
X413302Y296069*
X413159Y295980*
X412872*
X412729Y296069*
X412586Y296247*
X412514Y296425*
X412443Y296692*
Y297138*
X412514Y297405*
X412586Y297583*
X412729Y297761*
X412872Y297850*
X413159*
X413302Y297761*
X413445Y297583*
X413516Y297405*
X413516D02*
Y297138D01*
X413159D02*
X413516D01*
X414161Y295980D02*
Y297850D01*
X415879Y296425D02*
X415807Y296247D01*
X415664Y296069*
X415521Y295980*
X415234*
X415091Y296069*
X414948Y296247*
X414877Y296425*
X414805Y296692*
Y297138*
X414877Y297405*
X414948Y297583*
X415091Y297761*
X415234Y297850*
X415521*
X415664Y297761*
X415807Y297583*
X415879Y297405*
X416523Y295980D02*
Y297850D01*
Y295980D02*
X417167D01*
X417382Y296069*
X417454Y296158*
X417525Y296336*
Y296603*
X417454Y296781*
X417382Y296870*
X417167Y296960*
X417167D02*
X416523D01*
X418599Y295980D02*
X418456Y296069D01*
X418312Y296247*
X418241Y296425*
X418169Y296692*
Y297138*
X418241Y297405*
X418312Y297583*
X418456Y297761*
X418599Y297850*
X418885*
X419028Y297761*
X419171Y297583*
X419243Y297405*
X419315Y297138*
Y296692*
X419243Y296425*
X419171Y296247*
X419028Y296069*
X418885Y295980*
X418599*
X419959D02*
X420317Y297850D01*
X420675Y295980D02*
X420317Y297850D01*
X420675Y295980D02*
X421033Y297850D01*
X421391Y295980D02*
X421033Y297850D01*
X422035Y295980D02*
Y297850D01*
Y295980D02*
X422965D01*
X422035Y296870D02*
X422607D01*
X422035Y297850D02*
X422965D01*
X423610Y295980D02*
Y297850D01*
Y295980D02*
X424254D01*
X424469Y296069*
X424540Y296158*
X424612Y296336*
Y296514*
X424540Y296692*
X424469Y296781*
X424254Y296870*
X423610*
X424111D02*
X424612Y297850D01*
X425685Y295980D02*
X425542Y296069D01*
X425399Y296247*
X425328Y296425*
X425256Y296692*
Y297138*
X425328Y297405*
X425399Y297583*
X425542Y297761*
X425685Y297850*
X425972*
X426115Y297761*
X426258Y297583*
X426330Y297405*
X426401Y297138*
Y296692*
X426330Y296425*
X426258Y296247*
X426115Y296069*
X425972Y295980*
X425685*
X427045D02*
Y297316D01*
X427117Y297583*
X427260Y297761*
X427475Y297850*
X427618*
X427833Y297761*
X427976Y297583*
X428048Y297316*
Y295980*
X429193D02*
Y297850D01*
X428692Y295980D02*
X429694D01*
X430481D02*
X431269D01*
X430839Y296692*
X431054*
X431197Y296781*
X431269Y296870*
X431340Y297138*
Y297316*
X431269Y297583*
X431126Y297761*
X430911Y297850*
X430696*
X430481Y297761*
X430410Y297672*
X430338Y297494*
X256020Y304150D02*
X254150D01*
X256020D02*
Y304651D01*
X255931Y304866*
X255753Y305009*
X255575Y305081*
X255308Y305152*
X254862*
X254595Y305081*
X254417Y305009*
X254239Y304866*
X254150Y304651*
Y304150*
X255575Y306870D02*
X255753Y306799D01*
X255931Y306655*
X256020Y306512*
Y306226*
X255931Y306083*
X255753Y305940*
X255575Y305868*
X255308Y305796*
X254862*
X254595Y305868*
X254417Y305940*
X254239Y306083*
X254150Y306226*
Y306512*
X254239Y306655*
X254417Y306799*
X254595Y306870*
X256376Y308803D02*
X253527Y307514D01*
X256020Y309447D02*
X254150D01*
X256020D02*
Y309948D01*
X255931Y310163*
X255753Y310306*
X255575Y310378*
X255308Y310449*
X254862*
X254595Y310378*
X254417Y310306*
X254239Y310163*
X254150Y309948*
Y309447*
X255575Y312167D02*
X255753Y312096D01*
X255931Y311952*
X256020Y311809*
Y311523*
X255931Y311380*
X255753Y311237*
X255575Y311165*
X255308Y311093*
X254862*
X254595Y311165*
X254417Y311237*
X254239Y311380*
X254150Y311523*
Y311809*
X254239Y311952*
X254417Y312096*
X254595Y312167*
X253794Y312811D02*
Y314315D01*
X256020Y314744D02*
X254150D01*
X256020D02*
Y315388D01*
X255931Y315603*
X255842Y315675*
X255664Y315746*
X255397*
X255219Y315675*
X255130Y315603*
X255041Y315388*
X255041D02*
Y314744D01*
X256020Y316820D02*
X255931Y316677D01*
X255753Y316534*
X255575Y316462*
X255308Y316391*
X254862*
X254595Y316462*
X254417Y316534*
X254239Y316677*
X254150Y316820*
Y317106*
X254239Y317249*
X254239D02*
X254417Y317393D01*
X254595Y317464*
X254862Y317536*
X255308*
X255575Y317464*
X255753Y317393*
X255931Y317249*
X255931D02*
X256020Y317106D01*
Y316820*
Y318180D02*
X254150Y318538D01*
X256020Y318896D02*
X254150Y318538D01*
X256020Y318896D02*
X254150Y319254D01*
X256020Y319612D02*
X254150Y319254D01*
X256020Y320256D02*
X254150D01*
X256020D02*
Y321187D01*
X255130Y320256D02*
Y320829D01*
X254150Y320256D02*
Y321187D01*
X256020Y321831D02*
X254150D01*
X256020D02*
Y322475D01*
X255931Y322690*
X255842Y322761*
X255664Y322833*
X255486*
X255308Y322761*
X255219Y322690*
X255130Y322475*
Y321831*
Y322332D02*
X254150Y322833D01*
X253794Y323477D02*
Y324980D01*
X256020Y325410D02*
X254150D01*
X256020Y326054D02*
X254150D01*
X256020D02*
X254150Y327056D01*
X256020D02*
X254150D01*
X256020Y258150D02*
X254150D01*
X256020D02*
Y258651D01*
X255931Y258866*
X255753Y259009*
X255575Y259081*
X255308Y259152*
X254862*
X254595Y259081*
X254417Y259009*
X254239Y258866*
X254150Y258651*
Y258150*
X255575Y260870D02*
X255753Y260799D01*
X255931Y260655*
X256020Y260512*
Y260226*
X255931Y260083*
X255753Y259940*
X255575Y259868*
X255308Y259796*
X254862*
X254595Y259868*
X254417Y259940*
X254239Y260083*
X254150Y260226*
Y260512*
X254239Y260655*
X254417Y260799*
X254595Y260870*
X256376Y262803D02*
X253527Y261514D01*
X256020Y263447D02*
X254150D01*
X256020D02*
Y263948D01*
X255931Y264163*
X255753Y264306*
X255575Y264378*
X255308Y264449*
X254862*
X254595Y264378*
X254417Y264306*
X254239Y264163*
X254150Y263948*
Y263447*
X255575Y266167D02*
X255753Y266096D01*
X255931Y265952*
X256020Y265809*
Y265523*
X255931Y265380*
X255753Y265237*
X255575Y265165*
X255308Y265093*
X254862*
X254595Y265165*
X254417Y265237*
X254239Y265380*
X254150Y265523*
Y265809*
X254239Y265952*
X254417Y266096*
X254595Y266167*
X253794Y266811D02*
Y268315D01*
X256020Y268744D02*
X254150D01*
X256020D02*
Y269388D01*
X255931Y269603*
X255842Y269675*
X255664Y269746*
X255397*
X255219Y269675*
X255130Y269603*
X255041Y269388*
X255041D02*
Y268744D01*
X256020Y270820D02*
X255931Y270677D01*
X255753Y270534*
X255575Y270462*
X255308Y270391*
X254862*
X254595Y270462*
X254417Y270534*
X254239Y270677*
X254150Y270820*
Y271106*
X254239Y271249*
X254239D02*
X254417Y271393D01*
X254595Y271464*
X254862Y271536*
X255308*
X255575Y271464*
X255753Y271393*
X255931Y271249*
X255931D02*
X256020Y271106D01*
Y270820*
Y272180D02*
X254150Y272538D01*
X256020Y272896D02*
X254150Y272538D01*
X256020Y272896D02*
X254150Y273254D01*
X256020Y273612D02*
X254150Y273254D01*
X256020Y274256D02*
X254150D01*
X256020D02*
Y275187D01*
X255130Y274256D02*
Y274829D01*
X254150Y274256D02*
Y275187D01*
X256020Y275831D02*
X254150D01*
X256020D02*
Y276475D01*
X255931Y276690*
X255842Y276761*
X255664Y276833*
X255486*
X255308Y276761*
X255219Y276690*
X255130Y276475*
Y275831*
Y276332D02*
X254150Y276833D01*
X253794Y277477D02*
Y278980D01*
X256020Y279839D02*
X255931Y279696D01*
X255753Y279553*
X255575Y279481*
X255308Y279410*
X254862*
X254595Y279481*
X254417Y279553*
X254239Y279696*
X254150Y279839*
Y280126*
X254239Y280269*
X254417Y280412*
X254595Y280484*
X254862Y280555*
X255308*
X255575Y280484*
X255753Y280412*
X255931Y280269*
X256020Y280126*
Y279839*
Y281199D02*
X254684D01*
X254417Y281271*
X254239Y281414*
X254150Y281629*
Y281772*
X254239Y281987*
X254417Y282130*
X254684Y282202*
X256020*
Y283347D02*
X254150D01*
X256020Y282846D02*
Y283848D01*
X392575Y266224D02*
X392753Y266152D01*
X392931Y266009*
X393020Y265866*
Y265579*
X392931Y265436*
X392753Y265293*
X392575Y265222*
X392308Y265150*
X391862*
X391595Y265222*
X391417Y265293*
X391239Y265436*
X391150Y265579*
Y265866*
X391239Y266009*
X391417Y266152*
X391595Y266224*
X393020Y267297D02*
X392931Y267154D01*
X392753Y267011*
X392575Y266940*
X392308Y266868*
X391862*
X391595Y266940*
X391417Y267011*
X391239Y267154*
X391150Y267297*
Y267584*
X391239Y267727*
X391417Y267870*
X391595Y267942*
X391862Y268013*
X392308*
X392575Y267942*
X392753Y267870*
X392931Y267727*
X393020Y267584*
Y267297*
Y268658D02*
X391150D01*
X393020D02*
X391150Y269230D01*
X393020Y269803D02*
X391150Y269230D01*
X393020Y269803D02*
X391150D01*
X393020Y270447D02*
X391150D01*
X393020D02*
Y271091D01*
X392931Y271306*
X392842Y271378*
X392664Y271449*
X392397*
X392219Y271378*
X392130Y271306*
X392041Y271091*
X392041D02*
Y270447D01*
X393020Y272093D02*
X391684D01*
X391417Y272165*
X391239Y272308*
X391150Y272523*
Y272666*
X391239Y272881*
X391417Y273024*
X391684Y273096*
X393020*
Y274241D02*
X391150D01*
X393020Y273740D02*
Y274742D01*
Y275386D02*
X391150D01*
X393020D02*
Y276317D01*
X392130Y275386D02*
Y275959D01*
X391150Y275386D02*
Y276317D01*
X393020Y276961D02*
X391150D01*
X393020D02*
Y277605D01*
X392931Y277820*
X392842Y277892*
X392664Y277963*
X392486*
X392308Y277892*
X392219Y277820*
X392130Y277605*
Y276961*
Y277462D02*
X391150Y277963D01*
X390794Y278607D02*
Y280111D01*
X393020Y280540D02*
X391150D01*
X393020D02*
Y281184D01*
X392931Y281399*
X392842Y281471*
X392664Y281542*
X392486*
X392308Y281471*
X392219Y281399*
X392130Y281184*
Y280540D02*
Y281184D01*
X392041Y281399*
X392041D02*
X391951Y281471D01*
X391773Y281542*
X391506*
X391328Y281471*
X391239Y281399*
X391150Y281184*
Y280540*
X393020Y282187D02*
X391684D01*
X391417Y282258*
X391239Y282401*
X391150Y282616*
Y282759*
X391239Y282974*
X391417Y283117*
X391684Y283189*
X393020*
Y284334D02*
X391150D01*
X393020Y283833D02*
Y284835D01*
Y285980D02*
X391150D01*
X393020Y285479D02*
Y286481D01*
Y287555D02*
X392931Y287412D01*
X392753Y287269*
X392575Y287197*
X392308Y287126*
X391862*
X391595Y287197*
X391417Y287269*
X391239Y287412*
X391150Y287555*
Y287841*
X391239Y287985*
X391417Y288128*
X391595Y288199*
X391862Y288271*
X392308*
X392575Y288199*
X392753Y288128*
X392931Y287985*
X393020Y287841*
Y287555*
Y288915D02*
X391150D01*
X393020D02*
X391150Y289917D01*
X393020D02*
X391150D01*
X480980Y167850D02*
X482850D01*
Y166991*
X480980Y165917D02*
X481069Y166060D01*
X481247Y166204*
X481425Y166275*
X481692Y166347*
X482138*
X482405Y166275*
X482583Y166204*
X482761Y166060*
X482850Y165917*
Y165631*
X482761Y165488*
X482583Y165345*
X482405Y165273*
X482138Y165201*
X481692*
X481425Y165273*
X481247Y165345*
X481069Y165488*
X480980Y165631*
Y165917*
X481425Y163484D02*
X481247Y163555D01*
X481069Y163698*
X480980Y163841*
Y164128*
X481069Y164271*
X481247Y164414*
X481425Y164486*
X481692Y164557*
X482138*
X482405Y164486*
X482583Y164414*
X482761Y164271*
X482850Y164128*
Y163841*
X482761Y163698*
X482583Y163555*
X482405Y163484*
X482405D02*
X482138D01*
Y163841D02*
Y163484D01*
X480980Y162839D02*
X482850D01*
X481425Y161121D02*
X481247Y161193D01*
X481069Y161336*
X480980Y161479*
Y161766*
X481069Y161909*
X481247Y162052*
X481425Y162123*
X481692Y162195*
X482138*
X482405Y162123*
X482583Y162052*
X482761Y161909*
X482850Y161766*
Y161479*
X482761Y161336*
X482583Y161193*
X482405Y161121*
X483206Y160477D02*
Y158974D01*
X480980Y158544D02*
X482850D01*
X480980D02*
Y157900D01*
X481069Y157685*
X481158Y157614*
X481336Y157542*
X481603*
X481781Y157614*
X481870Y157685*
X481959Y157900*
X481959D02*
Y158544D01*
X480980Y156468D02*
X481069Y156612D01*
X481247Y156755*
X481425Y156826*
X481692Y156898*
X482138*
X482405Y156826*
X482583Y156755*
X482761Y156612*
X482850Y156468*
Y156182*
X482761Y156039*
X482583Y155896*
X482405Y155824*
X482138Y155753*
X481692*
X481425Y155824*
X481247Y155896*
X481069Y156039*
X480980Y156182*
Y156468*
Y155108D02*
X482850Y154751D01*
X480980Y154393D02*
X482850Y154751D01*
X480980Y154393D02*
X482850Y154035D01*
X480980Y153677D02*
X482850Y154035D01*
X480980Y153033D02*
X482850D01*
X480980D02*
Y152102D01*
X481870Y153033D02*
Y152460D01*
X482850Y153033D02*
Y152102D01*
X480980Y151458D02*
X482850D01*
X480980D02*
Y150813D01*
X481069Y150599*
X481158Y150527*
X481336Y150456*
X481514*
X481692Y150527*
X481781Y150599*
X481870Y150813*
Y151458*
Y150957D02*
X482850Y150456D01*
X483206Y149811D02*
Y148308D01*
X480980Y147879D02*
X482850D01*
X480980Y147234D02*
X482850D01*
X480980D02*
X482850Y146232D01*
X480980D02*
X482850D01*
G54D70*
X251000Y305500D02*
Y326500D01*
X209300*
Y305500*
X251000*
Y253500D02*
Y274500D01*
X209300*
Y253500*
X251000*
G54D72*
X386739Y135422D02*
X388102Y130500D01*
X386739Y135422D02*
X385375Y130500D01*
X387591Y132141D02*
X385886D01*
X382648Y135422D02*
Y130500D01*
X383841Y135422D02*
X381455D01*
X379920D02*
Y130500D01*
Y135422D02*
X378386D01*
X377875Y135188*
X377875D02*
X377705Y134953D01*
X377534Y134484*
Y134016*
X377705Y133547*
X377875Y133313*
X377875D02*
X378386Y133078D01*
X379920*
X378727D02*
X377534Y130500D01*
X376000Y135422D02*
Y130500D01*
X373102Y135422D02*
X374466Y130500D01*
X373102Y135422D02*
X371739Y130500D01*
X373955Y132141D02*
X372250D01*
X367818Y134719D02*
X368159Y135188D01*
X368159D02*
X368670Y135422D01*
X369352*
X369864Y135188*
X369864D02*
X370205Y134719D01*
Y134250*
X370034Y133781*
X369864Y133547*
X369523Y133313*
X369523D02*
X368500Y132844D01*
X368159Y132609*
X367989Y132375*
X367818Y131906*
Y131203*
X368159Y130734*
X368670Y130500*
X369352*
X369864Y130734*
X370205Y131203*
X362193Y134250D02*
Y134484D01*
X362023Y134953*
X361852Y135188*
X361852D02*
X361511Y135422D01*
X360830*
X360489Y135188*
X360489D02*
X360318Y134953D01*
X360148Y134484*
Y134016*
X360318Y133547*
X360659Y132844*
X362364Y130500*
X359977*
X358273Y130969D02*
X358443Y130734D01*
X358273Y130500*
X358102Y130734*
X358273Y130969*
X356568Y134484D02*
X356227Y134719D01*
X355716Y135422*
Y130500*
X350261Y135422D02*
Y130500D01*
Y135422D02*
X348727D01*
X348216Y135188*
X348216D02*
X348045Y134953D01*
X347875Y134484*
Y134016*
X348045Y133547*
X348216Y133313*
X348216D02*
X348727Y133078D01*
X350261D02*
X348727D01*
X348216Y132844*
X348045Y132609*
X347875Y132141*
Y131438*
X347875D02*
X348045Y130969D01*
X348216Y130734*
X348727Y130500*
X350261*
X345489Y133781D02*
X345830Y133547D01*
X346170Y133078*
X346341Y132375*
Y131906*
X346170Y131203*
X345830Y130734*
X345489Y130500*
X344977*
X344636Y130734*
X344295Y131203*
X344125Y131906*
Y132375*
X344295Y133078*
X344636Y133547*
X344977Y133781*
X345489*
X340545Y135422D02*
Y130500D01*
Y133078D02*
X340886Y133547D01*
X341227Y133781*
X341739*
X342080Y133547*
X342420Y133078*
X342591Y132375*
Y131906*
X342420Y131203*
X342080Y130734*
X341739Y130500*
X341227*
X340886Y130734*
X340545Y131203*
X338841Y133781D02*
X337818Y130500D01*
X336795Y133781D02*
X337818Y130500D01*
X338159Y129562*
X338159D02*
X338500Y129094D01*
X338841Y128859*
X339011*
X328955Y134719D02*
X329295Y135188D01*
X329295D02*
X329807Y135422D01*
X330489*
X331000Y135188*
X331000D02*
X331341Y134719D01*
Y134250*
X331170Y133781*
X331000Y133547*
X330659Y133313*
X330659D02*
X329636Y132844D01*
X329295Y132609*
X329125Y132375*
X328955Y131906*
Y131203*
X329295Y130734*
X329807Y130500*
X330489*
X331000Y130734*
X331341Y131203*
X326909Y135422D02*
Y131438D01*
X326909D02*
X326739Y130734D01*
X326398Y130500*
X326057*
X327420Y133781D02*
X326227D01*
X322477D02*
Y130500D01*
Y133078D02*
X322818Y133547D01*
X323159Y133781*
X323670*
X324011Y133547*
X324352Y133078*
X324523Y132375*
Y131906*
X324352Y131203*
X324011Y130734*
X323670Y130500*
X323159*
X322818Y130734*
X322477Y131203*
X320432Y135422D02*
Y131438D01*
X320432D02*
X320261Y130734D01*
X319920Y130500*
X319580*
X320943Y133781D02*
X319750D01*
X318045D02*
Y131438D01*
X318045D02*
X317875Y130734D01*
X317534Y130500*
X317023*
X316682Y130734*
X316170Y131438*
Y133781D02*
Y130500D01*
X312761Y133078D02*
X312932Y133547D01*
X313443Y133781*
X313955*
X314466Y133547*
X314636Y133078*
X314466Y132609*
X314125Y132375*
X313273Y132141*
X312932Y131906*
X312761Y131438*
X312761D02*
Y131203D01*
X312932Y130734*
X313443Y130500*
X313955*
X314466Y130734*
X314636Y131203*
X307307Y135422D02*
Y130500D01*
Y135422D02*
X305773D01*
X305261Y135188*
X305261D02*
X305091Y134953D01*
X304920Y134484*
Y134016*
X305091Y133547*
X305261Y133313*
X305261D02*
X305773Y133078D01*
X307307D02*
X305773D01*
X305261Y132844*
X305091Y132609*
X304920Y132141*
Y131438*
X304920D02*
X305091Y130969D01*
X305261Y130734*
X305773Y130500*
X307307*
X302534Y133781D02*
X302875Y133547D01*
X303216Y133078*
X303386Y132375*
Y131906*
X303216Y131203*
X302875Y130734*
X302534Y130500*
X302023*
X301682Y130734*
X301341Y131203*
X301170Y131906*
Y132375*
X301341Y133078*
X301682Y133547*
X302023Y133781*
X302534*
X297591D02*
Y130500D01*
Y133078D02*
X297932Y133547D01*
X298273Y133781*
X298784*
X299125Y133547*
X299466Y133078*
X299636Y132375*
Y131906*
X299466Y131203*
X299125Y130734*
X298784Y130500*
X298273*
X297932Y130734*
X297591Y131203*
X296057Y133781D02*
Y130500D01*
Y132375D02*
X295886Y133078D01*
X295545Y133547*
X295205Y133781*
X294693*
X291114Y135422D02*
Y130500D01*
Y133078D02*
X291455Y133547D01*
X291795Y133781*
X292307*
X292648Y133547*
X292989Y133078*
X293159Y132375*
Y131906*
X292989Y131203*
X292648Y130734*
X292307Y130500*
X291795*
X291455Y130734*
X291114Y131203*
X285659Y133781D02*
X284636Y130500D01*
X283614Y133781D02*
X284636Y130500D01*
X282080Y134484D02*
X281739Y134719D01*
X281227Y135422*
Y130500*
X275773Y133781D02*
Y130500D01*
Y132375D02*
X275602Y133078D01*
X275261Y133547*
X274920Y133781*
X274409*
X272875Y132375D02*
X270830D01*
Y132844*
X271000Y133313*
X271000D02*
X271170Y133547D01*
X271511Y133781*
X272023*
X272364Y133547*
X272705Y133078*
X272875Y132375*
Y131906*
X272705Y131203*
X272364Y130734*
X272023Y130500*
X271511*
X271170Y130734*
X270830Y131203*
X269295Y133781D02*
X268273Y130500D01*
X267250Y133781D02*
X268273Y130500D01*
X265545Y134250D02*
Y134484D01*
X265375Y134953*
X265205Y135188*
X265205D02*
X264864Y135422D01*
X264182*
X263841Y135188*
X263841D02*
X263670Y134953D01*
X263500Y134484*
Y134016*
X263670Y133547*
X264011Y132844*
X265716Y130500*
X263330*
X372080Y120422D02*
Y115500D01*
Y120422D02*
X370886D01*
X370375Y120188*
X370375D02*
X370034Y119719D01*
X369864Y119250*
X369693Y118547*
Y117375*
X369864Y116672*
X370034Y116203*
X370375Y115734*
X370886Y115500*
X372080*
X367989Y118781D02*
X366966Y115500D01*
X365943Y118781D02*
X366966Y115500D01*
X367307Y114562*
X367307D02*
X367648Y114094D01*
X367989Y113859*
X368159*
X364409Y118781D02*
Y115500D01*
Y117844D02*
X363898Y118547D01*
X363557Y118781*
X363045*
X362705Y118547*
X362534Y117844*
Y115500*
X358955Y118781D02*
Y115500D01*
Y118078D02*
X359295Y118547D01*
X359636Y118781*
X360148*
X360489Y118547*
X360830Y118078*
X361000Y117375*
Y116906*
X360830Y116203*
X360489Y115734*
X360148Y115500*
X359636*
X359295Y115734*
X358955Y116203*
X357420Y118781D02*
Y115500D01*
Y117844D02*
X356909Y118547D01*
X356568Y118781*
X356057*
X355716Y118547*
X355545Y117844*
Y115500*
Y117844D02*
X355034Y118547D01*
X354693Y118781*
X354182*
X353841Y118547*
X353670Y117844*
Y115500*
X352136Y120422D02*
X351966Y120188D01*
X351966D02*
X351795Y120422D01*
X351966Y120656*
X352136Y120422*
X351966Y118781D02*
Y115500D01*
X348216Y118078D02*
X348557Y118547D01*
X348898Y118781*
X349409*
X349750Y118547*
X350091Y118078*
X350261Y117375*
Y116906*
X350091Y116203*
X349750Y115734*
X349409Y115500*
X348898*
X348557Y115734*
X348216Y116203*
X342761Y120422D02*
Y115500D01*
Y120422D02*
X341227D01*
X340716Y120188*
X340716D02*
X340545Y119953D01*
X340375Y119484*
Y119016*
X340545Y118547*
X340716Y118313*
X340716D02*
X341227Y118078D01*
X342761*
X341568D02*
X340375Y115500D01*
X337989Y118781D02*
X338330Y118547D01*
X338670Y118078*
X338841Y117375*
Y116906*
X338670Y116203*
X338330Y115734*
X337989Y115500*
X337477*
X337136Y115734*
X336795Y116203*
X336625Y116906*
Y117375*
X336795Y118078*
X337136Y118547*
X337477Y118781*
X337989*
X335091Y120422D02*
Y115500D01*
Y118078D02*
X334750Y118547D01*
X334409Y118781*
X333898*
X333557Y118547*
X333216Y118078*
X333045Y117375*
Y116906*
X333216Y116203*
X333557Y115734*
X333898Y115500*
X334409*
X334750Y115734*
X335091Y116203*
X330659Y118781D02*
X331000Y118547D01*
X331341Y118078*
X331511Y117375*
Y116906*
X331341Y116203*
X331000Y115734*
X330659Y115500*
X330148*
X329807Y115734*
X329466Y116203*
X329295Y116906*
Y117375*
X329466Y118078*
X329807Y118547*
X330148Y118781*
X330659*
X327250Y120422D02*
Y116438D01*
X327250D02*
X327080Y115734D01*
X326739Y115500*
X326398*
X327761Y118781D02*
X326568D01*
X324864Y120422D02*
X324693Y120188D01*
X324693D02*
X324523Y120422D01*
X324693Y120656*
X324864Y120422*
X324693Y118781D02*
Y115500D01*
X320943Y118078D02*
X321284Y118547D01*
X321625Y118781*
X322136*
X322477Y118547*
X322818Y118078*
X322989Y117375*
Y116906*
X322818Y116203*
X322477Y115734*
X322136Y115500*
X321625*
X321284Y115734*
X320943Y116203*
X317534Y118078D02*
X317705Y118547D01*
X318216Y118781*
X318727*
X319239Y118547*
X319409Y118078*
X319239Y117609*
X318898Y117375*
X318045Y117141*
X317705Y116906*
X317534Y116438*
X317534D02*
Y116203D01*
X317705Y115734*
X318216Y115500*
X318727*
X319239Y115734*
X319409Y116203*
X312080Y120422D02*
Y115500D01*
X310034*
X306455Y118781D02*
Y115500D01*
Y118078D02*
X306795Y118547D01*
X307136Y118781*
X307648*
X307989Y118547*
X308330Y118078*
X308500Y117375*
Y116906*
X308330Y116203*
X307989Y115734*
X307648Y115500*
X307136*
X306795Y115734*
X306455Y116203*
X304920Y120422D02*
Y115500D01*
Y118078D02*
X304580Y118547D01*
X304239Y118781*
X303727*
X303386Y118547*
X303045Y118078*
X302875Y117375*
Y116906*
X303045Y116203*
X303386Y115734*
X303727Y115500*
X304239*
X304580Y115734*
X304920Y116203*
X300489Y118781D02*
X300830Y118547D01*
X301170Y118078*
X301341Y117375*
Y116906*
X301170Y116203*
X300830Y115734*
X300489Y115500*
X299977*
X299636Y115734*
X299295Y116203*
X299125Y116906*
Y117375*
X299295Y118078*
X299636Y118547*
X299977Y118781*
X300489*
X297591D02*
Y115500D01*
Y117375D02*
X297420Y118078D01*
X297080Y118547*
X296739Y118781*
X296227*
X292648D02*
Y115500D01*
Y118078D02*
X292989Y118547D01*
X293330Y118781*
X293841*
X294182Y118547*
X294523Y118078*
X294693Y117375*
Y116906*
X294523Y116203*
X294182Y115734*
X293841Y115500*
X293330*
X292989Y115734*
X292648Y116203*
X290602Y120422D02*
Y116438D01*
X290602D02*
X290432Y115734D01*
X290091Y115500*
X289750*
X291114Y118781D02*
X289920D01*
X287364D02*
X287705Y118547D01*
X288045Y118078*
X288216Y117375*
Y116906*
X288045Y116203*
X287705Y115734*
X287364Y115500*
X286852*
X286511Y115734*
X286170Y116203*
X286000Y116906*
Y117375*
X286170Y118078*
X286511Y118547*
X286852Y118781*
X287364*
X284466D02*
Y115500D01*
Y117375D02*
X284295Y118078D01*
X283955Y118547*
X283614Y118781*
X283102*
X281398D02*
X280375Y115500D01*
X279352Y118781D02*
X280375Y115500D01*
X280716Y114562*
X280716D02*
X281057Y114094D01*
X281398Y113859*
X281568*
X341739Y112922D02*
Y108000D01*
X339352Y112922D02*
X341739Y109641D01*
X340886Y110813D02*
X339352Y108000D01*
X337818Y112922D02*
X337648Y112688D01*
X337648D02*
X337477Y112922D01*
X337648Y113156*
X337818Y112922*
X337648Y111281D02*
Y108000D01*
X335432Y112922D02*
Y108938D01*
X335432D02*
X335261Y108234D01*
X334920Y108000*
X334580*
X335943Y111281D02*
X334750D01*
X329125Y112922D02*
Y108000D01*
Y112922D02*
X327761Y108000D01*
X326398Y112922D02*
X327761Y108000D01*
X326398Y112922D02*
Y108000D01*
X324011Y111281D02*
X324352Y111047D01*
X324693Y110578*
X324864Y109875*
Y109406*
X324693Y108703*
X324352Y108234*
X324011Y108000*
X323500*
X323159Y108234*
X322818Y108703*
X322648Y109406*
Y109875*
X322818Y110578*
X323159Y111047*
X323500Y111281*
X324011*
X321114D02*
Y108000D01*
Y109875D02*
X320943Y110578D01*
X320602Y111047*
X320261Y111281*
X319750*
X317705Y112922D02*
Y108938D01*
X317705D02*
X317534Y108234D01*
X317193Y108000*
X316852*
X318216Y111281D02*
X317023D01*
X314466D02*
X314807Y111047D01*
X315148Y110578*
X315318Y109875*
Y109406*
X315148Y108703*
X314807Y108234*
X314466Y108000*
X313955*
X313614Y108234*
X313273Y108703*
X313102Y109406*
Y109875*
X313273Y110578*
X313614Y111047*
X313955Y111281*
X314466*
X311568D02*
Y108000D01*
Y110344D02*
X311057Y111047D01*
X310716Y111281*
X310205*
X309864Y111047*
X309693Y110344*
Y108000*
X362619Y127922D02*
X362960Y127688D01*
X362960D02*
X363301Y127219D01*
X363472Y126750*
X363642Y126047*
Y124875*
X363472Y124172*
X363301Y123703*
X362960Y123234*
X362619Y123000*
X361937*
X361937D02*
X361597Y123234D01*
X361256Y123703*
X361085Y124172*
X360915Y124875*
Y126047*
X361085Y126750*
X361256Y127219*
X361597Y127688*
X361597D02*
X361937Y127922D01*
X361937D02*
X362619D01*
X359381Y126281D02*
Y123000D01*
Y124875D02*
X359210Y125578D01*
X358869Y126047*
X358528Y126281*
X358017*
X356483Y124875D02*
X354437D01*
X354437D02*
Y125344D01*
X354437D02*
X354608Y125813D01*
X354608D02*
X354778Y126047D01*
X355119Y126281*
X355631*
X355972Y126047*
X356312Y125578*
X356312D02*
X356483Y124875D01*
Y124406*
X356312Y123703*
X356312D02*
X355972Y123234D01*
X355631Y123000*
X355119*
X354778Y123234*
X354437Y123703*
X350858Y126281D02*
Y122531D01*
X351028Y121828*
X351199Y121594*
X351540Y121359*
X352051*
X352392Y121594*
X350858Y125578D02*
X351199Y126047D01*
X351540Y126281*
X352051*
X352392Y126047*
X352733Y125578*
X352903Y124875*
Y124406*
X352733Y123703*
X352392Y123234*
X352051Y123000*
X351540*
X351199Y123234*
X350858Y123703*
X348472Y126281D02*
X348812Y126047D01*
X348812D02*
X349153Y125578D01*
X349324Y124875*
Y124406*
X349153Y123703*
X348812Y123234*
X348812D02*
X348472Y123000D01*
X347960*
X347619Y123234*
X347278Y123703*
X347108Y124406*
Y124875*
X347278Y125578*
X347619Y126047*
X347960Y126281*
X348472*
X345574D02*
Y123000D01*
Y125344D02*
X345062Y126047D01*
X345062D02*
X344722Y126281D01*
X344210*
X343869Y126047*
X343699Y125344*
Y123000*
X335858Y127219D02*
X336199Y127688D01*
X336199D02*
X336710Y127922D01*
X337392*
X337903Y127688*
X337903D02*
X338244Y127219D01*
Y126750*
X338074Y126281*
X337903Y126047*
X337562Y125813*
X337562D02*
X336540Y125344D01*
X336199Y125109*
X336028Y124875*
X335858Y124406*
Y123703*
X336199Y123234*
X336710Y123000*
X337392*
X337903Y123234*
X338244Y123703*
X333812Y127922D02*
Y123938D01*
X333812D02*
X333642Y123234D01*
X333301Y123000*
X332960*
X334324Y126281D02*
X333131D01*
X329381D02*
Y123000D01*
Y125578D02*
X329722Y126047D01*
X330062Y126281*
X330062D02*
X330574D01*
X330915Y126047*
X331256Y125578*
X331426Y124875*
Y124406*
X331256Y123703*
X330915Y123234*
X330574Y123000*
X330062*
X330062D02*
X329722Y123234D01*
X329381Y123703*
X327335Y127922D02*
Y123938D01*
X327335D02*
X327165Y123234D01*
X326824Y123000*
X326483*
X327847Y126281D02*
X326653D01*
X324949Y124875D02*
X322903D01*
Y125344*
X323074Y125813*
X323074D02*
X323244Y126047D01*
X323585Y126281*
X324097*
X324437Y126047*
X324437D02*
X324778Y125578D01*
X324949Y124875*
Y124406*
X324778Y123703*
X324437Y123234*
X324437D02*
X324097Y123000D01*
X323585*
X323244Y123234*
X322903Y123703*
X317449Y127922D02*
Y124406D01*
X317278Y123703*
X316937Y123234*
X316937D02*
X316426Y123000D01*
X316085*
X315574Y123234*
X315233Y123703*
X315062Y124406*
X315062D02*
Y127922D01*
X313528Y126281D02*
Y123000D01*
Y125344D02*
X313017Y126047D01*
X312676Y126281*
X312165*
X311824Y126047*
X311653Y125344*
Y123000*
X310119Y127922D02*
X309949Y127688D01*
X309949D02*
X309778Y127922D01*
X309949Y128156*
X310119Y127922*
X309949Y126281D02*
Y123000D01*
X308244Y126281D02*
X307222Y123000D01*
X306199Y126281D02*
X307222Y123000D01*
X304665Y124875D02*
X302619D01*
Y125344*
X302790Y125813*
X302790D02*
X302960Y126047D01*
X303301Y126281*
X303812*
X303812D02*
X304153Y126047D01*
X304494Y125578*
X304665Y124875*
Y124406*
X304494Y123703*
X304153Y123234*
X303812Y123000*
X303812D02*
X303301D01*
X302960Y123234*
X302619Y123703*
X301085Y126281D02*
Y123000D01*
Y124875D02*
X300915Y125578D01*
X300574Y126047*
X300233Y126281*
X299722*
X296312Y125578D02*
X296483Y126047D01*
X296994Y126281*
X297506*
X298017Y126047*
X298187Y125578*
X298187D02*
X298017Y125109D01*
X297676Y124875*
X296824Y124641*
X296483Y124406*
X296312Y123938*
X296312D02*
Y123703D01*
X296312D02*
X296483Y123234D01*
X296994Y123000*
X297506*
X298017Y123234*
X298187Y123703*
X294778Y127922D02*
X294608Y127688D01*
X294608D02*
X294437Y127922D01*
X294437D02*
X294608Y128156D01*
X294778Y127922*
X294608Y126281D02*
Y123000D01*
X292392Y127922D02*
Y123938D01*
X292392D02*
X292222Y123234D01*
X291881Y123000*
X291540*
X292903Y126281D02*
X291710D01*
X289835D02*
X288812Y123000D01*
X287790Y126281D02*
X288812Y123000D01*
X288812D02*
X289153Y122062D01*
X289153D02*
X289494Y121594D01*
X289835Y121359*
X290006*
X0Y0D02*
M02*
