*
*
G04 PADS 9.3.1 Build Number: 456998 generated Gerber (RS-274-X) file*
G04 PC Version=2.1*
*
%IN "body_status_board_v1_1."*%
*
%MOIN*%
*
%FSLAX35Y35*%
*
*
*
*
G04 PC Standard Apertures*
*
*
G04 Thermal Relief Aperture macro.*
%AMTER*
1,1,$1,0,0*
1,0,$1-$2,0,0*
21,0,$3,$4,0,0,45*
21,0,$3,$4,0,0,135*
%
*
*
G04 Annular Aperture macro.*
%AMANN*
1,1,$1,0,0*
1,0,$2,0,0*
%
*
*
G04 Odd Aperture macro.*
%AMODD*
1,1,$1,0,0*
1,0,$1-0.005,0,0*
%
*
*
G04 PC Custom Aperture Macros*
*
*
*
*
*
*
G04 PC Aperture Table*
*
%ADD010C,0.001*%
%ADD019C,0.01*%
%ADD023C,0.015*%
%ADD036R,0.05118X0.05118*%
%ADD037C,0.05118*%
%ADD053R,0.06693X0.05906*%
%ADD054R,0.06X0.06*%
%ADD055C,0.06*%
%ADD056C,0.07*%
%ADD057C,0.085*%
%ADD058C,0.09*%
%ADD059C,0.03*%
%ADD072R,0.05118X0.02756*%
%ADD073C,0.06299*%
*
*
*
*
G04 PC Circuitry*
G04 Layer Name body_status_board_v1_1. - circuitry*
%LPD*%
*
*
G04 PC Custom Flashes*
G04 Layer Name body_status_board_v1_1. - flashes*
%LPD*%
*
*
G04 PC Circuitry*
G04 Layer Name body_status_board_v1_1. - circuitry*
%LPD*%
*
G54D10*
G54D19*
G01X186000Y139000D02*
Y168000D01*
X190000Y140000D02*
Y168000D01*
X201000Y143091D02*
X205091Y139000D01*
X371126*
X379126Y147000*
X201000Y143091D02*
Y150000D01*
X205000Y154000*
X206000Y158000*
Y168000*
X199000Y142000D02*
X204000Y137000D01*
X377000*
X387000Y147000*
X199000Y142000D02*
Y152000D01*
X202000Y155000*
Y168000*
X197000Y141000D02*
X203000Y135000D01*
X382874*
X394874Y147000*
X197000Y141000D02*
Y153000D01*
X198000Y154000*
Y168000*
X194000Y141000D02*
Y168000D01*
X218000D02*
Y163040D01*
X229540Y151500*
X318626*
X323126Y147000*
X229000Y160000D02*
X233500Y155500D01*
X330374*
X338874Y147000*
X222000Y163000D02*
X231500Y153500D01*
X324500*
X331000Y147000*
X222000Y168000D02*
X226000Y172000D01*
X233000*
X226000Y168000D02*
X233000D01*
X154000Y175000D02*
X165000D01*
X168000Y172000*
X159000D02*
X162000D01*
X168000Y166000*
X138134Y271669D02*
Y266831D01*
X140193*
X138134Y271669D02*
X140193D01*
X138134Y262500D02*
Y258169D01*
X140193*
X138134Y262500D02*
X140193D01*
X138134Y298669D02*
Y293831D01*
X140193*
X138134Y298669D02*
X140193D01*
X138134Y293831D02*
Y289500D01*
X140193*
X138134Y293831D02*
X140193D01*
X138134Y289500D02*
Y285169D01*
X140193*
X138134Y289500D02*
X140193D01*
X138134Y285169D02*
Y280331D01*
X140193*
X138134Y285169D02*
X140193D01*
X138134Y280331D02*
Y276000D01*
X140193*
X138134Y280331D02*
X140193D01*
X138134Y276000D02*
Y271669D01*
X140193*
X138134Y276000D02*
X140193D01*
X138134Y266831D02*
Y262500D01*
X140193*
X138134Y266831D02*
X140193D01*
X139000Y244000D02*
Y250000D01*
X145000Y256000*
Y261205*
X150626Y266831*
X151807*
X159000Y244000D02*
Y248500D01*
X161000Y250500*
X154000Y244000D02*
Y248000D01*
X157500Y251500*
X144000Y244000D02*
Y250000D01*
X147500Y253500*
Y259374*
X150626Y262500*
X151807*
X149000Y244000D02*
Y250000D01*
X151807Y252807*
Y258169*
Y293831D02*
X171669D01*
X179000Y286500*
Y244000*
X151807Y289500D02*
X167500D01*
X174000Y283000*
Y244000*
X151807Y285169D02*
X163831D01*
X169000Y280000*
Y244000*
X151807Y298669D02*
X173831D01*
X183500Y289000*
Y262750*
X184000Y262250*
Y244000*
X151807Y280331D02*
X161169D01*
X164000Y277500*
Y244000*
X152988Y276000D02*
X151807D01*
X159000*
X161000Y274000*
Y250500*
X152988Y271669D02*
X151807D01*
X155831*
X157500Y270000*
Y251500*
X340000Y231000D02*
X370000Y261000D01*
X379000*
X396000Y278000*
X330000Y231000D02*
X364500Y265500D01*
Y271437*
X376000Y282937*
X416063Y254000D02*
X445063Y283000D01*
X499000*
X483000Y289000D02*
X489071D01*
X483000Y275000D02*
X489071D01*
X502929Y289000D02*
X503000D01*
Y283000*
X499937Y258000D02*
Y264807D01*
X502929Y267799*
Y275000*
X499937Y226000D02*
Y258000D01*
X492063Y226000D02*
Y258000D01*
X138134Y330000D02*
Y325669D01*
X140193*
X138134Y330000D02*
X140193D01*
X138134Y325669D02*
Y320831D01*
X140193*
X138134Y325669D02*
X140193D01*
X138134Y320831D02*
Y316500D01*
X140193*
X138134Y320831D02*
X140193D01*
X138134Y316500D02*
Y312169D01*
X140193*
X138134Y316500D02*
X140193D01*
X138134Y312169D02*
Y307331D01*
X140193*
X138134Y312169D02*
X140193D01*
X138134Y307331D02*
Y303000D01*
X140193*
X138134Y307331D02*
X140193D01*
X138134Y303000D02*
Y298669D01*
X140193*
X138134Y303000D02*
X140193D01*
X138134Y330000D02*
Y334331D01*
X140193*
X138134Y330000D02*
X140193D01*
X151807Y307331D02*
X180169D01*
X194000Y293500*
Y244000*
X151807Y303000D02*
X176500D01*
X189000Y290500*
Y244000*
X151807Y320831D02*
X194669D01*
X203000Y312500*
Y256000*
X209000Y250000*
Y244000*
X151807Y316500D02*
X193000D01*
X200000Y309500*
Y254000*
X204000Y250000*
Y244000*
X151807Y312169D02*
X191331D01*
X197000Y306500*
Y251500*
X199000Y249500*
Y244000*
X151807Y334331D02*
X175598D01*
X175768Y334500*
X197500*
X212000Y320000*
Y260000*
X224000Y248000*
Y244000*
X151807Y330000D02*
X197000D01*
X209000Y318000*
Y259000*
X219000Y249000*
Y244000*
X151807Y325669D02*
X174848D01*
X175018Y325500*
X196000*
X206000Y315500*
Y257500*
X214000Y249500*
Y244000*
X443000Y332000D02*
Y314500D01*
X446000Y311500*
X489683*
X498183Y303000*
X502929*
X438000Y319000D02*
Y328000D01*
X483000Y317000D02*
X489071D01*
X483000Y303000D02*
X489071D01*
X483000Y331000D02*
X489071D01*
X502929Y317000D02*
X503000D01*
Y324000*
X502929Y303000D02*
Y303071D01*
Y331000D02*
X503000D01*
Y337000*
G54D23*
X135000Y162252D02*
Y254157D01*
X139012Y258169*
X140193*
X135000Y162252D02*
X150252Y147000D01*
G54D36*
X384063Y346000D03*
X255063D03*
X181748Y147000D03*
X236748D03*
X291748D03*
X346748D03*
X402748D03*
X458748D03*
X492063Y226000D03*
Y258000D03*
X216622Y341000D03*
X348622Y342000D03*
X474622D03*
X416063Y283000D03*
Y254000D03*
Y312000D03*
X376000Y267189D03*
G54D37*
X391937Y346000D03*
X262937D03*
X173874Y147000D03*
X166000D03*
X158126D03*
X150252D03*
X228874D03*
X221000D03*
X213126D03*
X205252D03*
X283874D03*
X276000D03*
X268126D03*
X260252D03*
X338874D03*
X331000D03*
X323126D03*
X315252D03*
X394874D03*
X387000D03*
X379126D03*
X371252D03*
X450874D03*
X443000D03*
X435126D03*
X427252D03*
X499937Y226000D03*
Y258000D03*
X208748Y341000D03*
X200874D03*
X193000D03*
X185126D03*
X177252D03*
X169378D03*
X340748Y342000D03*
X332874D03*
X325000D03*
X317126D03*
X309252D03*
X301378D03*
X466748D03*
X458874D03*
X451000D03*
X443126D03*
X435252D03*
X427378D03*
X423937Y283000D03*
Y254000D03*
Y312000D03*
X376000Y275063D03*
Y282937D03*
Y290811D03*
G54D53*
X489071Y331000D03*
X502929D03*
X489071Y303000D03*
X502929D03*
X489071Y289000D03*
X502929D03*
X489071Y275000D03*
X502929D03*
X489071Y317000D03*
X502929D03*
G54D54*
X223000Y361000D03*
X355000Y362000D03*
X481000D03*
G54D55*
X213000Y361000D03*
X203000D03*
X193000D03*
X183000D03*
X173000D03*
X163000D03*
X345000Y362000D03*
X335000D03*
X325000D03*
X315000D03*
X305000D03*
X295000D03*
X471000D03*
X461000D03*
X451000D03*
X441000D03*
X431000D03*
X421000D03*
G54D56*
X310000Y231000D03*
X320000D03*
X330000D03*
X340000D03*
G54D57*
X331000Y212000D03*
Y192000D03*
X279000Y252000D03*
X259000D03*
G54D58*
X241000Y316000D03*
X219300D03*
X241000Y264000D03*
X219300D03*
G54D59*
X186000Y139000D03*
X190000Y140000D03*
X194000Y141000D03*
X168000Y166000D03*
X186000Y168000D03*
X190000D03*
X194000D03*
X198000D03*
X202000D03*
X206000D03*
X218000D03*
X229000Y160000D03*
X222000Y163000D03*
Y168000D03*
X226000D03*
X233000D03*
X154000Y175000D03*
X159000Y172000D03*
X168000D03*
X233000D03*
X139000Y244000D03*
X174000D03*
X169000D03*
X179000D03*
X189000D03*
X184000D03*
X194000D03*
X204000D03*
X199000D03*
X209000D03*
X219000D03*
X214000D03*
X159000D03*
X154000D03*
X164000D03*
X144000D03*
X149000D03*
X224000D03*
X396000Y278000D03*
X499000Y283000D03*
X483000Y289000D03*
Y275000D03*
X503000Y283000D03*
X443000Y332000D03*
X438000Y328000D03*
Y319000D03*
X503000Y324000D03*
X483000Y317000D03*
Y303000D03*
Y331000D03*
X503000Y337000D03*
G54D72*
X151807Y258169D03*
Y262500D03*
Y266831D03*
X140193D03*
Y262500D03*
Y258169D03*
X151807Y271669D03*
Y276000D03*
Y280331D03*
X140193D03*
Y276000D03*
Y271669D03*
X151807Y325669D03*
Y330000D03*
Y334331D03*
X140193D03*
Y330000D03*
Y325669D03*
X151807Y312169D03*
Y316500D03*
Y320831D03*
X140193D03*
Y316500D03*
Y312169D03*
X151807Y298669D03*
Y303000D03*
Y307331D03*
X140193D03*
Y303000D03*
Y298669D03*
X151807Y285169D03*
Y289500D03*
Y293831D03*
X140193D03*
Y289500D03*
Y285169D03*
G54D73*
X496000Y162000D03*
Y152000D03*
X0Y0D02*
M02*
