%
T1C.035F197S55
X014626Y018957
X014626Y017972
X014626Y016988
X01561Y018957
X01561Y017972
X01561Y016988
X016594Y018957
X016594Y017972
X016594Y016988
X017579Y018957
X017579Y017972
X017579Y016988
X018563Y018957
X018563Y017972
X018563Y016988
X019547Y018957
X019547Y017972
X019547Y016988
T2C.09449F066S55
X011575Y011575
X011575Y015118
X019843Y021417
X014331Y021417
M30
