%
M48
M72
T01C0.0197
T02C0.0236
T03C0.0315
T04C0.0394
T05C0.0400
T06C0.0551
T07C0.0929
T08C0.0941
T09C0.1181
T10C0.1250
T11C0.1283
%
T01
X11093Y18058
X11093Y19095
T02
X16343Y31308
T03
X8843Y29792
X8843Y27824
X8343Y19095
X8343Y18308
X8343Y17521
X41343Y17702
X41343Y16914
X41343Y20914
X41343Y21702
X41343Y24914
X41343Y25702
X41343Y28914
X41343Y29702
X41343Y10702
X41343Y9914
T04
X12343Y12082
X12343Y15034
X12343Y21582
X12343Y24534
T05
X12843Y28808
X14843Y28808
X13843Y7808
X11843Y7808
T06
X9926Y7808
X7761Y7808
T07
X37843Y6308
X37843Y10308
X37843Y14308
X37843Y21808
X37843Y25808
X37843Y29808
T08
X17843Y29808
X17843Y27056
X17843Y24556
X17843Y21808
X17843Y14308
X17843Y11556
X17843Y9056
X17843Y6308
T09
X9745Y5958
X9745Y9658
T10
X8343Y3808
X41343Y3808
X41343Y32808
X8343Y32808
T11
X21343Y32158
X27843Y32158
X34343Y32158
X34343Y19458
X34343Y16658
X27843Y16658
X27843Y19458
X21343Y19458
X21343Y16658
X21343Y3958
X27843Y3958
X34343Y3958
M30
