G75*
G70*
%OFA0B0*%
%FSLAX24Y24*%
%IPPOS*%
%LPD*%
%AMOC8*
5,1,8,0,0,1.08239X$1,22.5*
%
%ADD10C,0.0000*%
%ADD11C,0.0050*%
%ADD12C,0.0040*%
%ADD13C,0.0200*%
%ADD14C,0.0060*%
%ADD15R,0.4200X0.0300*%
%ADD16R,0.0750X0.0200*%
%ADD17R,0.1300X0.0200*%
%ADD18C,0.0070*%
D10*
X006843Y002308D02*
X006843Y034304D01*
X042843Y034304D01*
X042843Y002308D01*
X006843Y002308D01*
X007718Y003808D02*
X007720Y003858D01*
X007726Y003907D01*
X007736Y003956D01*
X007749Y004003D01*
X007767Y004050D01*
X007788Y004095D01*
X007812Y004138D01*
X007840Y004179D01*
X007871Y004218D01*
X007905Y004254D01*
X007942Y004288D01*
X007982Y004318D01*
X008023Y004345D01*
X008067Y004369D01*
X008112Y004389D01*
X008159Y004405D01*
X008207Y004418D01*
X008256Y004427D01*
X008306Y004432D01*
X008355Y004433D01*
X008405Y004430D01*
X008454Y004423D01*
X008503Y004412D01*
X008550Y004398D01*
X008596Y004379D01*
X008641Y004357D01*
X008684Y004332D01*
X008724Y004303D01*
X008762Y004271D01*
X008798Y004237D01*
X008831Y004199D01*
X008860Y004159D01*
X008886Y004117D01*
X008909Y004073D01*
X008928Y004027D01*
X008944Y003980D01*
X008956Y003931D01*
X008964Y003882D01*
X008968Y003833D01*
X008968Y003783D01*
X008964Y003734D01*
X008956Y003685D01*
X008944Y003636D01*
X008928Y003589D01*
X008909Y003543D01*
X008886Y003499D01*
X008860Y003457D01*
X008831Y003417D01*
X008798Y003379D01*
X008762Y003345D01*
X008724Y003313D01*
X008684Y003284D01*
X008641Y003259D01*
X008596Y003237D01*
X008550Y003218D01*
X008503Y003204D01*
X008454Y003193D01*
X008405Y003186D01*
X008355Y003183D01*
X008306Y003184D01*
X008256Y003189D01*
X008207Y003198D01*
X008159Y003211D01*
X008112Y003227D01*
X008067Y003247D01*
X008023Y003271D01*
X007982Y003298D01*
X007942Y003328D01*
X007905Y003362D01*
X007871Y003398D01*
X007840Y003437D01*
X007812Y003478D01*
X007788Y003521D01*
X007767Y003566D01*
X007749Y003613D01*
X007736Y003660D01*
X007726Y003709D01*
X007720Y003758D01*
X007718Y003808D01*
X009154Y005958D02*
X009156Y006006D01*
X009162Y006054D01*
X009172Y006101D01*
X009185Y006147D01*
X009203Y006192D01*
X009223Y006236D01*
X009248Y006278D01*
X009276Y006317D01*
X009306Y006354D01*
X009340Y006388D01*
X009377Y006420D01*
X009415Y006449D01*
X009456Y006474D01*
X009499Y006496D01*
X009544Y006514D01*
X009590Y006528D01*
X009637Y006539D01*
X009685Y006546D01*
X009733Y006549D01*
X009781Y006548D01*
X009829Y006543D01*
X009877Y006534D01*
X009923Y006522D01*
X009968Y006505D01*
X010012Y006485D01*
X010054Y006462D01*
X010094Y006435D01*
X010132Y006405D01*
X010167Y006372D01*
X010199Y006336D01*
X010229Y006298D01*
X010255Y006257D01*
X010277Y006214D01*
X010297Y006170D01*
X010312Y006125D01*
X010324Y006078D01*
X010332Y006030D01*
X010336Y005982D01*
X010336Y005934D01*
X010332Y005886D01*
X010324Y005838D01*
X010312Y005791D01*
X010297Y005746D01*
X010277Y005702D01*
X010255Y005659D01*
X010229Y005618D01*
X010199Y005580D01*
X010167Y005544D01*
X010132Y005511D01*
X010094Y005481D01*
X010054Y005454D01*
X010012Y005431D01*
X009968Y005411D01*
X009923Y005394D01*
X009877Y005382D01*
X009829Y005373D01*
X009781Y005368D01*
X009733Y005367D01*
X009685Y005370D01*
X009637Y005377D01*
X009590Y005388D01*
X009544Y005402D01*
X009499Y005420D01*
X009456Y005442D01*
X009415Y005467D01*
X009377Y005496D01*
X009340Y005528D01*
X009306Y005562D01*
X009276Y005599D01*
X009248Y005638D01*
X009223Y005680D01*
X009203Y005724D01*
X009185Y005769D01*
X009172Y005815D01*
X009162Y005862D01*
X009156Y005910D01*
X009154Y005958D01*
X009154Y009658D02*
X009156Y009706D01*
X009162Y009754D01*
X009172Y009801D01*
X009185Y009847D01*
X009203Y009892D01*
X009223Y009936D01*
X009248Y009978D01*
X009276Y010017D01*
X009306Y010054D01*
X009340Y010088D01*
X009377Y010120D01*
X009415Y010149D01*
X009456Y010174D01*
X009499Y010196D01*
X009544Y010214D01*
X009590Y010228D01*
X009637Y010239D01*
X009685Y010246D01*
X009733Y010249D01*
X009781Y010248D01*
X009829Y010243D01*
X009877Y010234D01*
X009923Y010222D01*
X009968Y010205D01*
X010012Y010185D01*
X010054Y010162D01*
X010094Y010135D01*
X010132Y010105D01*
X010167Y010072D01*
X010199Y010036D01*
X010229Y009998D01*
X010255Y009957D01*
X010277Y009914D01*
X010297Y009870D01*
X010312Y009825D01*
X010324Y009778D01*
X010332Y009730D01*
X010336Y009682D01*
X010336Y009634D01*
X010332Y009586D01*
X010324Y009538D01*
X010312Y009491D01*
X010297Y009446D01*
X010277Y009402D01*
X010255Y009359D01*
X010229Y009318D01*
X010199Y009280D01*
X010167Y009244D01*
X010132Y009211D01*
X010094Y009181D01*
X010054Y009154D01*
X010012Y009131D01*
X009968Y009111D01*
X009923Y009094D01*
X009877Y009082D01*
X009829Y009073D01*
X009781Y009068D01*
X009733Y009067D01*
X009685Y009070D01*
X009637Y009077D01*
X009590Y009088D01*
X009544Y009102D01*
X009499Y009120D01*
X009456Y009142D01*
X009415Y009167D01*
X009377Y009196D01*
X009340Y009228D01*
X009306Y009262D01*
X009276Y009299D01*
X009248Y009338D01*
X009223Y009380D01*
X009203Y009424D01*
X009185Y009469D01*
X009172Y009515D01*
X009162Y009562D01*
X009156Y009610D01*
X009154Y009658D01*
X007718Y032808D02*
X007720Y032858D01*
X007726Y032907D01*
X007736Y032956D01*
X007749Y033003D01*
X007767Y033050D01*
X007788Y033095D01*
X007812Y033138D01*
X007840Y033179D01*
X007871Y033218D01*
X007905Y033254D01*
X007942Y033288D01*
X007982Y033318D01*
X008023Y033345D01*
X008067Y033369D01*
X008112Y033389D01*
X008159Y033405D01*
X008207Y033418D01*
X008256Y033427D01*
X008306Y033432D01*
X008355Y033433D01*
X008405Y033430D01*
X008454Y033423D01*
X008503Y033412D01*
X008550Y033398D01*
X008596Y033379D01*
X008641Y033357D01*
X008684Y033332D01*
X008724Y033303D01*
X008762Y033271D01*
X008798Y033237D01*
X008831Y033199D01*
X008860Y033159D01*
X008886Y033117D01*
X008909Y033073D01*
X008928Y033027D01*
X008944Y032980D01*
X008956Y032931D01*
X008964Y032882D01*
X008968Y032833D01*
X008968Y032783D01*
X008964Y032734D01*
X008956Y032685D01*
X008944Y032636D01*
X008928Y032589D01*
X008909Y032543D01*
X008886Y032499D01*
X008860Y032457D01*
X008831Y032417D01*
X008798Y032379D01*
X008762Y032345D01*
X008724Y032313D01*
X008684Y032284D01*
X008641Y032259D01*
X008596Y032237D01*
X008550Y032218D01*
X008503Y032204D01*
X008454Y032193D01*
X008405Y032186D01*
X008355Y032183D01*
X008306Y032184D01*
X008256Y032189D01*
X008207Y032198D01*
X008159Y032211D01*
X008112Y032227D01*
X008067Y032247D01*
X008023Y032271D01*
X007982Y032298D01*
X007942Y032328D01*
X007905Y032362D01*
X007871Y032398D01*
X007840Y032437D01*
X007812Y032478D01*
X007788Y032521D01*
X007767Y032566D01*
X007749Y032613D01*
X007736Y032660D01*
X007726Y032709D01*
X007720Y032758D01*
X007718Y032808D01*
X040718Y032808D02*
X040720Y032858D01*
X040726Y032907D01*
X040736Y032956D01*
X040749Y033003D01*
X040767Y033050D01*
X040788Y033095D01*
X040812Y033138D01*
X040840Y033179D01*
X040871Y033218D01*
X040905Y033254D01*
X040942Y033288D01*
X040982Y033318D01*
X041023Y033345D01*
X041067Y033369D01*
X041112Y033389D01*
X041159Y033405D01*
X041207Y033418D01*
X041256Y033427D01*
X041306Y033432D01*
X041355Y033433D01*
X041405Y033430D01*
X041454Y033423D01*
X041503Y033412D01*
X041550Y033398D01*
X041596Y033379D01*
X041641Y033357D01*
X041684Y033332D01*
X041724Y033303D01*
X041762Y033271D01*
X041798Y033237D01*
X041831Y033199D01*
X041860Y033159D01*
X041886Y033117D01*
X041909Y033073D01*
X041928Y033027D01*
X041944Y032980D01*
X041956Y032931D01*
X041964Y032882D01*
X041968Y032833D01*
X041968Y032783D01*
X041964Y032734D01*
X041956Y032685D01*
X041944Y032636D01*
X041928Y032589D01*
X041909Y032543D01*
X041886Y032499D01*
X041860Y032457D01*
X041831Y032417D01*
X041798Y032379D01*
X041762Y032345D01*
X041724Y032313D01*
X041684Y032284D01*
X041641Y032259D01*
X041596Y032237D01*
X041550Y032218D01*
X041503Y032204D01*
X041454Y032193D01*
X041405Y032186D01*
X041355Y032183D01*
X041306Y032184D01*
X041256Y032189D01*
X041207Y032198D01*
X041159Y032211D01*
X041112Y032227D01*
X041067Y032247D01*
X041023Y032271D01*
X040982Y032298D01*
X040942Y032328D01*
X040905Y032362D01*
X040871Y032398D01*
X040840Y032437D01*
X040812Y032478D01*
X040788Y032521D01*
X040767Y032566D01*
X040749Y032613D01*
X040736Y032660D01*
X040726Y032709D01*
X040720Y032758D01*
X040718Y032808D01*
X040718Y003808D02*
X040720Y003858D01*
X040726Y003907D01*
X040736Y003956D01*
X040749Y004003D01*
X040767Y004050D01*
X040788Y004095D01*
X040812Y004138D01*
X040840Y004179D01*
X040871Y004218D01*
X040905Y004254D01*
X040942Y004288D01*
X040982Y004318D01*
X041023Y004345D01*
X041067Y004369D01*
X041112Y004389D01*
X041159Y004405D01*
X041207Y004418D01*
X041256Y004427D01*
X041306Y004432D01*
X041355Y004433D01*
X041405Y004430D01*
X041454Y004423D01*
X041503Y004412D01*
X041550Y004398D01*
X041596Y004379D01*
X041641Y004357D01*
X041684Y004332D01*
X041724Y004303D01*
X041762Y004271D01*
X041798Y004237D01*
X041831Y004199D01*
X041860Y004159D01*
X041886Y004117D01*
X041909Y004073D01*
X041928Y004027D01*
X041944Y003980D01*
X041956Y003931D01*
X041964Y003882D01*
X041968Y003833D01*
X041968Y003783D01*
X041964Y003734D01*
X041956Y003685D01*
X041944Y003636D01*
X041928Y003589D01*
X041909Y003543D01*
X041886Y003499D01*
X041860Y003457D01*
X041831Y003417D01*
X041798Y003379D01*
X041762Y003345D01*
X041724Y003313D01*
X041684Y003284D01*
X041641Y003259D01*
X041596Y003237D01*
X041550Y003218D01*
X041503Y003204D01*
X041454Y003193D01*
X041405Y003186D01*
X041355Y003183D01*
X041306Y003184D01*
X041256Y003189D01*
X041207Y003198D01*
X041159Y003211D01*
X041112Y003227D01*
X041067Y003247D01*
X041023Y003271D01*
X040982Y003298D01*
X040942Y003328D01*
X040905Y003362D01*
X040871Y003398D01*
X040840Y003437D01*
X040812Y003478D01*
X040788Y003521D01*
X040767Y003566D01*
X040749Y003613D01*
X040736Y003660D01*
X040726Y003709D01*
X040720Y003758D01*
X040718Y003808D01*
D11*
X039245Y003643D02*
X039245Y016981D01*
X039245Y016424D02*
X039245Y017772D01*
X038036Y017772D01*
X037446Y017772D02*
X036237Y017772D01*
X035646Y017772D02*
X034437Y017772D01*
X034437Y018352D02*
X035646Y018352D01*
X036236Y018352D02*
X037445Y018352D01*
X038036Y018352D02*
X039245Y018352D01*
X039245Y019700D01*
X039245Y019143D02*
X039245Y032481D01*
X039245Y031924D02*
X039245Y033272D01*
X038036Y033272D01*
X037446Y033272D02*
X036237Y033272D01*
X035646Y033272D02*
X034437Y033272D01*
X033847Y033272D02*
X032638Y033272D01*
X032047Y033272D02*
X030838Y033272D01*
X030248Y033272D02*
X029039Y033272D01*
X028448Y033272D02*
X027239Y033272D01*
X026649Y033272D02*
X025440Y033272D01*
X024849Y033272D02*
X023640Y033272D01*
X023050Y033272D02*
X021841Y033272D01*
X021250Y033272D02*
X020041Y033272D01*
X019451Y033272D02*
X018242Y033272D01*
X017651Y033272D02*
X016442Y033272D01*
X016442Y031924D01*
X016442Y031333D02*
X016442Y029985D01*
X016442Y029394D02*
X016442Y028046D01*
X016442Y027455D02*
X016442Y026107D01*
X016442Y025517D02*
X016442Y024168D01*
X016442Y023578D02*
X016442Y022230D01*
X016442Y021639D02*
X016442Y020291D01*
X016442Y020048D02*
X016442Y032481D01*
X016441Y032481D02*
X016443Y032527D01*
X016448Y032573D01*
X016457Y032619D01*
X016470Y032664D01*
X016486Y032707D01*
X016505Y032749D01*
X016528Y032790D01*
X016554Y032828D01*
X016583Y032865D01*
X016614Y032899D01*
X016648Y032930D01*
X016685Y032959D01*
X016723Y032985D01*
X016764Y033008D01*
X016806Y033027D01*
X016849Y033043D01*
X016894Y033056D01*
X016940Y033065D01*
X016986Y033070D01*
X017032Y033072D01*
X038654Y033072D01*
X038700Y033070D01*
X038746Y033065D01*
X038792Y033056D01*
X038837Y033043D01*
X038880Y033027D01*
X038922Y033008D01*
X038963Y032985D01*
X039001Y032959D01*
X039038Y032930D01*
X039072Y032899D01*
X039103Y032865D01*
X039132Y032828D01*
X039158Y032790D01*
X039181Y032749D01*
X039200Y032707D01*
X039216Y032664D01*
X039229Y032619D01*
X039238Y032573D01*
X039243Y032527D01*
X039245Y032481D01*
X039245Y031333D02*
X039245Y029985D01*
X039245Y029394D02*
X039245Y028046D01*
X039245Y027455D02*
X039245Y026107D01*
X039245Y025517D02*
X039245Y024168D01*
X039245Y023578D02*
X039245Y022230D01*
X039245Y021639D02*
X039245Y020291D01*
X039245Y019143D02*
X039243Y019097D01*
X039238Y019051D01*
X039229Y019005D01*
X039216Y018960D01*
X039200Y018917D01*
X039181Y018875D01*
X039158Y018834D01*
X039132Y018796D01*
X039103Y018759D01*
X039072Y018725D01*
X039038Y018694D01*
X039001Y018665D01*
X038963Y018639D01*
X038922Y018616D01*
X038880Y018597D01*
X038837Y018581D01*
X038792Y018568D01*
X038746Y018559D01*
X038700Y018554D01*
X038654Y018552D01*
X017938Y018552D01*
X016442Y020048D01*
X016442Y019700D02*
X016442Y018352D01*
X017651Y018352D01*
X018241Y018352D02*
X019450Y018352D01*
X020041Y018352D02*
X021250Y018352D01*
X021250Y017772D02*
X020041Y017772D01*
X019451Y017772D02*
X018242Y017772D01*
X017651Y017772D02*
X016442Y017772D01*
X016442Y016424D01*
X016442Y016981D02*
X016442Y004548D01*
X017938Y003052D01*
X038654Y003052D01*
X038700Y003054D01*
X038746Y003059D01*
X038792Y003068D01*
X038837Y003081D01*
X038880Y003097D01*
X038922Y003116D01*
X038963Y003139D01*
X039001Y003165D01*
X039038Y003194D01*
X039072Y003225D01*
X039103Y003259D01*
X039132Y003296D01*
X039158Y003334D01*
X039181Y003375D01*
X039200Y003417D01*
X039216Y003460D01*
X039229Y003505D01*
X039238Y003551D01*
X039243Y003597D01*
X039245Y003643D01*
X039245Y004200D02*
X039245Y002852D01*
X038036Y002852D01*
X037445Y002852D02*
X036236Y002852D01*
X035646Y002852D02*
X034437Y002852D01*
X033846Y002852D02*
X032637Y002852D01*
X032047Y002852D02*
X030838Y002852D01*
X030247Y002852D02*
X029038Y002852D01*
X028448Y002852D02*
X027239Y002852D01*
X026648Y002852D02*
X025439Y002852D01*
X024849Y002852D02*
X023640Y002852D01*
X023049Y002852D02*
X021840Y002852D01*
X021250Y002852D02*
X020041Y002852D01*
X019450Y002852D02*
X018241Y002852D01*
X017651Y002852D02*
X016442Y002852D01*
X016442Y004200D01*
X016442Y004791D02*
X016442Y006139D01*
X016442Y006730D02*
X016442Y008078D01*
X016442Y008668D02*
X016442Y010017D01*
X016442Y010607D02*
X016442Y011955D01*
X016442Y012546D02*
X016442Y013894D01*
X016442Y014485D02*
X016442Y015833D01*
X016441Y016981D02*
X016443Y017027D01*
X016448Y017073D01*
X016457Y017119D01*
X016470Y017164D01*
X016486Y017207D01*
X016505Y017249D01*
X016528Y017290D01*
X016554Y017328D01*
X016583Y017365D01*
X016614Y017399D01*
X016648Y017430D01*
X016685Y017459D01*
X016723Y017485D01*
X016764Y017508D01*
X016806Y017527D01*
X016849Y017543D01*
X016894Y017556D01*
X016940Y017565D01*
X016986Y017570D01*
X017032Y017572D01*
X038654Y017572D01*
X038700Y017570D01*
X038746Y017565D01*
X038792Y017556D01*
X038837Y017543D01*
X038880Y017527D01*
X038922Y017508D01*
X038963Y017485D01*
X039001Y017459D01*
X039038Y017430D01*
X039072Y017399D01*
X039103Y017365D01*
X039132Y017328D01*
X039158Y017290D01*
X039181Y017249D01*
X039200Y017207D01*
X039216Y017164D01*
X039229Y017119D01*
X039238Y017073D01*
X039243Y017027D01*
X039245Y016981D01*
X039245Y015833D02*
X039245Y014485D01*
X039245Y013894D02*
X039245Y012546D01*
X039245Y011955D02*
X039245Y010607D01*
X039245Y010017D02*
X039245Y008668D01*
X039245Y008078D02*
X039245Y006730D01*
X039245Y006139D02*
X039245Y004791D01*
X033847Y017772D02*
X032638Y017772D01*
X032047Y017772D02*
X030838Y017772D01*
X030248Y017772D02*
X029039Y017772D01*
X028448Y017772D02*
X027239Y017772D01*
X026649Y017772D02*
X025440Y017772D01*
X024849Y017772D02*
X023640Y017772D01*
X023050Y017772D02*
X021841Y017772D01*
X021840Y018352D02*
X023049Y018352D01*
X023640Y018352D02*
X024849Y018352D01*
X025439Y018352D02*
X026648Y018352D01*
X027239Y018352D02*
X028448Y018352D01*
X029038Y018352D02*
X030247Y018352D01*
X030838Y018352D02*
X032047Y018352D01*
X032637Y018352D02*
X033846Y018352D01*
X015361Y019173D02*
X015361Y017443D01*
X015359Y017426D01*
X015355Y017409D01*
X015348Y017393D01*
X015338Y017379D01*
X015325Y017366D01*
X015311Y017356D01*
X015295Y017349D01*
X015278Y017345D01*
X015261Y017343D01*
X013937Y017343D01*
X013918Y017344D01*
X013900Y017348D01*
X013883Y017354D01*
X013868Y017364D01*
X013854Y017376D01*
X013842Y017391D01*
X013834Y017407D01*
X013828Y017425D01*
X013825Y017443D01*
X013826Y017443D02*
X013826Y019172D01*
X013827Y019189D01*
X013832Y019206D01*
X013839Y019222D01*
X013849Y019236D01*
X013862Y019249D01*
X013876Y019259D01*
X013892Y019266D01*
X013909Y019271D01*
X013926Y019272D01*
X013926Y019273D02*
X015261Y019273D01*
X015278Y019271D01*
X015295Y019267D01*
X015311Y019260D01*
X015325Y019250D01*
X015338Y019237D01*
X015348Y019223D01*
X015355Y019207D01*
X015359Y019190D01*
X015361Y019173D01*
X014988Y018997D02*
X014990Y019016D01*
X014995Y019035D01*
X015005Y019051D01*
X015017Y019066D01*
X015032Y019078D01*
X015048Y019088D01*
X015067Y019093D01*
X015086Y019095D01*
X015105Y019093D01*
X015124Y019088D01*
X015140Y019078D01*
X015155Y019066D01*
X015167Y019051D01*
X015177Y019035D01*
X015182Y019016D01*
X015184Y018997D01*
X015182Y018978D01*
X015177Y018959D01*
X015167Y018943D01*
X015155Y018928D01*
X015140Y018916D01*
X015124Y018906D01*
X015105Y018901D01*
X015086Y018899D01*
X015067Y018901D01*
X015048Y018906D01*
X015032Y018916D01*
X015017Y018928D01*
X015005Y018943D01*
X014995Y018959D01*
X014990Y018978D01*
X014988Y018997D01*
D12*
X012705Y018962D02*
X012705Y018655D01*
X012628Y018578D01*
X012474Y018578D01*
X012398Y018655D01*
X012244Y018578D02*
X011937Y018578D01*
X012091Y018578D02*
X012091Y019038D01*
X012244Y018885D01*
X012398Y018962D02*
X012474Y019038D01*
X012628Y019038D01*
X012705Y018962D01*
X011784Y018962D02*
X011784Y018655D01*
X011477Y018962D01*
X011477Y018655D01*
X011554Y018578D01*
X011707Y018578D01*
X011784Y018655D01*
X011784Y018962D02*
X011707Y019038D01*
X011554Y019038D01*
X011477Y018962D01*
X026477Y024328D02*
X026784Y024328D01*
X026477Y024635D01*
X026477Y024712D01*
X026554Y024788D01*
X026707Y024788D01*
X026784Y024712D01*
X026937Y024788D02*
X026937Y024405D01*
X027014Y024328D01*
X027168Y024328D01*
X027244Y024405D01*
X027244Y024788D01*
X027244Y009288D02*
X027244Y008905D01*
X027168Y008828D01*
X027014Y008828D01*
X026937Y008905D01*
X026937Y009288D01*
X026784Y009135D02*
X026630Y009288D01*
X026630Y008828D01*
X026477Y008828D02*
X026784Y008828D01*
D13*
X011073Y008268D03*
X015613Y028348D03*
D14*
X015793Y028208D02*
X015843Y029358D01*
X015793Y028208D02*
X015693Y028108D01*
X011993Y028108D01*
X011893Y028208D01*
X011843Y029358D01*
X010993Y008508D02*
X010893Y008408D01*
X010843Y007258D01*
X010993Y008508D02*
X014693Y008508D01*
X014793Y008408D01*
X014843Y007258D01*
D15*
X012843Y006958D03*
X013843Y029658D03*
D16*
X012118Y029408D03*
X015568Y029408D03*
X014568Y007208D03*
X011118Y007208D03*
D17*
X012843Y007208D03*
X013843Y029408D03*
D18*
X011159Y030343D02*
X011159Y030658D01*
X011054Y030763D01*
X010634Y030763D01*
X010528Y030658D01*
X010528Y030343D01*
X011159Y030343D01*
X011054Y030988D02*
X011159Y031093D01*
X011159Y031303D01*
X011054Y031408D01*
X010949Y031408D01*
X010844Y031303D01*
X010739Y031408D01*
X010634Y031408D01*
X010528Y031303D01*
X010528Y031093D01*
X010634Y030988D01*
X010844Y031198D02*
X010844Y031303D01*
X015844Y007119D02*
X015844Y006698D01*
X016159Y007014D01*
X015528Y007014D01*
X015634Y006474D02*
X016054Y006474D01*
X016159Y006369D01*
X016159Y006054D01*
X015528Y006054D01*
X015528Y006369D01*
X015634Y006474D01*
M02*
