G75*
G70*
%OFA0B0*%
%FSLAX24Y24*%
%IPPOS*%
%LPD*%
%AMOC8*
5,1,8,0,0,1.08239X$1,22.5*
%
%ADD10C,0.0000*%
%ADD11C,0.0060*%
%ADD12C,0.0080*%
%ADD13C,0.0040*%
%ADD14C,0.0050*%
%ADD15C,0.0100*%
D10*
X006843Y002308D02*
X006843Y034304D01*
X042843Y034304D01*
X042843Y002308D01*
X006843Y002308D01*
X007718Y003808D02*
X007720Y003858D01*
X007726Y003907D01*
X007736Y003956D01*
X007749Y004003D01*
X007767Y004050D01*
X007788Y004095D01*
X007812Y004138D01*
X007840Y004179D01*
X007871Y004218D01*
X007905Y004254D01*
X007942Y004288D01*
X007982Y004318D01*
X008023Y004345D01*
X008067Y004369D01*
X008112Y004389D01*
X008159Y004405D01*
X008207Y004418D01*
X008256Y004427D01*
X008306Y004432D01*
X008355Y004433D01*
X008405Y004430D01*
X008454Y004423D01*
X008503Y004412D01*
X008550Y004398D01*
X008596Y004379D01*
X008641Y004357D01*
X008684Y004332D01*
X008724Y004303D01*
X008762Y004271D01*
X008798Y004237D01*
X008831Y004199D01*
X008860Y004159D01*
X008886Y004117D01*
X008909Y004073D01*
X008928Y004027D01*
X008944Y003980D01*
X008956Y003931D01*
X008964Y003882D01*
X008968Y003833D01*
X008968Y003783D01*
X008964Y003734D01*
X008956Y003685D01*
X008944Y003636D01*
X008928Y003589D01*
X008909Y003543D01*
X008886Y003499D01*
X008860Y003457D01*
X008831Y003417D01*
X008798Y003379D01*
X008762Y003345D01*
X008724Y003313D01*
X008684Y003284D01*
X008641Y003259D01*
X008596Y003237D01*
X008550Y003218D01*
X008503Y003204D01*
X008454Y003193D01*
X008405Y003186D01*
X008355Y003183D01*
X008306Y003184D01*
X008256Y003189D01*
X008207Y003198D01*
X008159Y003211D01*
X008112Y003227D01*
X008067Y003247D01*
X008023Y003271D01*
X007982Y003298D01*
X007942Y003328D01*
X007905Y003362D01*
X007871Y003398D01*
X007840Y003437D01*
X007812Y003478D01*
X007788Y003521D01*
X007767Y003566D01*
X007749Y003613D01*
X007736Y003660D01*
X007726Y003709D01*
X007720Y003758D01*
X007718Y003808D01*
X009154Y005958D02*
X009156Y006006D01*
X009162Y006054D01*
X009172Y006101D01*
X009185Y006147D01*
X009203Y006192D01*
X009223Y006236D01*
X009248Y006278D01*
X009276Y006317D01*
X009306Y006354D01*
X009340Y006388D01*
X009377Y006420D01*
X009415Y006449D01*
X009456Y006474D01*
X009499Y006496D01*
X009544Y006514D01*
X009590Y006528D01*
X009637Y006539D01*
X009685Y006546D01*
X009733Y006549D01*
X009781Y006548D01*
X009829Y006543D01*
X009877Y006534D01*
X009923Y006522D01*
X009968Y006505D01*
X010012Y006485D01*
X010054Y006462D01*
X010094Y006435D01*
X010132Y006405D01*
X010167Y006372D01*
X010199Y006336D01*
X010229Y006298D01*
X010255Y006257D01*
X010277Y006214D01*
X010297Y006170D01*
X010312Y006125D01*
X010324Y006078D01*
X010332Y006030D01*
X010336Y005982D01*
X010336Y005934D01*
X010332Y005886D01*
X010324Y005838D01*
X010312Y005791D01*
X010297Y005746D01*
X010277Y005702D01*
X010255Y005659D01*
X010229Y005618D01*
X010199Y005580D01*
X010167Y005544D01*
X010132Y005511D01*
X010094Y005481D01*
X010054Y005454D01*
X010012Y005431D01*
X009968Y005411D01*
X009923Y005394D01*
X009877Y005382D01*
X009829Y005373D01*
X009781Y005368D01*
X009733Y005367D01*
X009685Y005370D01*
X009637Y005377D01*
X009590Y005388D01*
X009544Y005402D01*
X009499Y005420D01*
X009456Y005442D01*
X009415Y005467D01*
X009377Y005496D01*
X009340Y005528D01*
X009306Y005562D01*
X009276Y005599D01*
X009248Y005638D01*
X009223Y005680D01*
X009203Y005724D01*
X009185Y005769D01*
X009172Y005815D01*
X009162Y005862D01*
X009156Y005910D01*
X009154Y005958D01*
X009154Y009658D02*
X009156Y009706D01*
X009162Y009754D01*
X009172Y009801D01*
X009185Y009847D01*
X009203Y009892D01*
X009223Y009936D01*
X009248Y009978D01*
X009276Y010017D01*
X009306Y010054D01*
X009340Y010088D01*
X009377Y010120D01*
X009415Y010149D01*
X009456Y010174D01*
X009499Y010196D01*
X009544Y010214D01*
X009590Y010228D01*
X009637Y010239D01*
X009685Y010246D01*
X009733Y010249D01*
X009781Y010248D01*
X009829Y010243D01*
X009877Y010234D01*
X009923Y010222D01*
X009968Y010205D01*
X010012Y010185D01*
X010054Y010162D01*
X010094Y010135D01*
X010132Y010105D01*
X010167Y010072D01*
X010199Y010036D01*
X010229Y009998D01*
X010255Y009957D01*
X010277Y009914D01*
X010297Y009870D01*
X010312Y009825D01*
X010324Y009778D01*
X010332Y009730D01*
X010336Y009682D01*
X010336Y009634D01*
X010332Y009586D01*
X010324Y009538D01*
X010312Y009491D01*
X010297Y009446D01*
X010277Y009402D01*
X010255Y009359D01*
X010229Y009318D01*
X010199Y009280D01*
X010167Y009244D01*
X010132Y009211D01*
X010094Y009181D01*
X010054Y009154D01*
X010012Y009131D01*
X009968Y009111D01*
X009923Y009094D01*
X009877Y009082D01*
X009829Y009073D01*
X009781Y009068D01*
X009733Y009067D01*
X009685Y009070D01*
X009637Y009077D01*
X009590Y009088D01*
X009544Y009102D01*
X009499Y009120D01*
X009456Y009142D01*
X009415Y009167D01*
X009377Y009196D01*
X009340Y009228D01*
X009306Y009262D01*
X009276Y009299D01*
X009248Y009338D01*
X009223Y009380D01*
X009203Y009424D01*
X009185Y009469D01*
X009172Y009515D01*
X009162Y009562D01*
X009156Y009610D01*
X009154Y009658D01*
X007718Y032808D02*
X007720Y032858D01*
X007726Y032907D01*
X007736Y032956D01*
X007749Y033003D01*
X007767Y033050D01*
X007788Y033095D01*
X007812Y033138D01*
X007840Y033179D01*
X007871Y033218D01*
X007905Y033254D01*
X007942Y033288D01*
X007982Y033318D01*
X008023Y033345D01*
X008067Y033369D01*
X008112Y033389D01*
X008159Y033405D01*
X008207Y033418D01*
X008256Y033427D01*
X008306Y033432D01*
X008355Y033433D01*
X008405Y033430D01*
X008454Y033423D01*
X008503Y033412D01*
X008550Y033398D01*
X008596Y033379D01*
X008641Y033357D01*
X008684Y033332D01*
X008724Y033303D01*
X008762Y033271D01*
X008798Y033237D01*
X008831Y033199D01*
X008860Y033159D01*
X008886Y033117D01*
X008909Y033073D01*
X008928Y033027D01*
X008944Y032980D01*
X008956Y032931D01*
X008964Y032882D01*
X008968Y032833D01*
X008968Y032783D01*
X008964Y032734D01*
X008956Y032685D01*
X008944Y032636D01*
X008928Y032589D01*
X008909Y032543D01*
X008886Y032499D01*
X008860Y032457D01*
X008831Y032417D01*
X008798Y032379D01*
X008762Y032345D01*
X008724Y032313D01*
X008684Y032284D01*
X008641Y032259D01*
X008596Y032237D01*
X008550Y032218D01*
X008503Y032204D01*
X008454Y032193D01*
X008405Y032186D01*
X008355Y032183D01*
X008306Y032184D01*
X008256Y032189D01*
X008207Y032198D01*
X008159Y032211D01*
X008112Y032227D01*
X008067Y032247D01*
X008023Y032271D01*
X007982Y032298D01*
X007942Y032328D01*
X007905Y032362D01*
X007871Y032398D01*
X007840Y032437D01*
X007812Y032478D01*
X007788Y032521D01*
X007767Y032566D01*
X007749Y032613D01*
X007736Y032660D01*
X007726Y032709D01*
X007720Y032758D01*
X007718Y032808D01*
X040718Y032808D02*
X040720Y032858D01*
X040726Y032907D01*
X040736Y032956D01*
X040749Y033003D01*
X040767Y033050D01*
X040788Y033095D01*
X040812Y033138D01*
X040840Y033179D01*
X040871Y033218D01*
X040905Y033254D01*
X040942Y033288D01*
X040982Y033318D01*
X041023Y033345D01*
X041067Y033369D01*
X041112Y033389D01*
X041159Y033405D01*
X041207Y033418D01*
X041256Y033427D01*
X041306Y033432D01*
X041355Y033433D01*
X041405Y033430D01*
X041454Y033423D01*
X041503Y033412D01*
X041550Y033398D01*
X041596Y033379D01*
X041641Y033357D01*
X041684Y033332D01*
X041724Y033303D01*
X041762Y033271D01*
X041798Y033237D01*
X041831Y033199D01*
X041860Y033159D01*
X041886Y033117D01*
X041909Y033073D01*
X041928Y033027D01*
X041944Y032980D01*
X041956Y032931D01*
X041964Y032882D01*
X041968Y032833D01*
X041968Y032783D01*
X041964Y032734D01*
X041956Y032685D01*
X041944Y032636D01*
X041928Y032589D01*
X041909Y032543D01*
X041886Y032499D01*
X041860Y032457D01*
X041831Y032417D01*
X041798Y032379D01*
X041762Y032345D01*
X041724Y032313D01*
X041684Y032284D01*
X041641Y032259D01*
X041596Y032237D01*
X041550Y032218D01*
X041503Y032204D01*
X041454Y032193D01*
X041405Y032186D01*
X041355Y032183D01*
X041306Y032184D01*
X041256Y032189D01*
X041207Y032198D01*
X041159Y032211D01*
X041112Y032227D01*
X041067Y032247D01*
X041023Y032271D01*
X040982Y032298D01*
X040942Y032328D01*
X040905Y032362D01*
X040871Y032398D01*
X040840Y032437D01*
X040812Y032478D01*
X040788Y032521D01*
X040767Y032566D01*
X040749Y032613D01*
X040736Y032660D01*
X040726Y032709D01*
X040720Y032758D01*
X040718Y032808D01*
X040718Y003808D02*
X040720Y003858D01*
X040726Y003907D01*
X040736Y003956D01*
X040749Y004003D01*
X040767Y004050D01*
X040788Y004095D01*
X040812Y004138D01*
X040840Y004179D01*
X040871Y004218D01*
X040905Y004254D01*
X040942Y004288D01*
X040982Y004318D01*
X041023Y004345D01*
X041067Y004369D01*
X041112Y004389D01*
X041159Y004405D01*
X041207Y004418D01*
X041256Y004427D01*
X041306Y004432D01*
X041355Y004433D01*
X041405Y004430D01*
X041454Y004423D01*
X041503Y004412D01*
X041550Y004398D01*
X041596Y004379D01*
X041641Y004357D01*
X041684Y004332D01*
X041724Y004303D01*
X041762Y004271D01*
X041798Y004237D01*
X041831Y004199D01*
X041860Y004159D01*
X041886Y004117D01*
X041909Y004073D01*
X041928Y004027D01*
X041944Y003980D01*
X041956Y003931D01*
X041964Y003882D01*
X041968Y003833D01*
X041968Y003783D01*
X041964Y003734D01*
X041956Y003685D01*
X041944Y003636D01*
X041928Y003589D01*
X041909Y003543D01*
X041886Y003499D01*
X041860Y003457D01*
X041831Y003417D01*
X041798Y003379D01*
X041762Y003345D01*
X041724Y003313D01*
X041684Y003284D01*
X041641Y003259D01*
X041596Y003237D01*
X041550Y003218D01*
X041503Y003204D01*
X041454Y003193D01*
X041405Y003186D01*
X041355Y003183D01*
X041306Y003184D01*
X041256Y003189D01*
X041207Y003198D01*
X041159Y003211D01*
X041112Y003227D01*
X041067Y003247D01*
X041023Y003271D01*
X040982Y003298D01*
X040942Y003328D01*
X040905Y003362D01*
X040871Y003398D01*
X040840Y003437D01*
X040812Y003478D01*
X040788Y003521D01*
X040767Y003566D01*
X040749Y003613D01*
X040736Y003660D01*
X040726Y003709D01*
X040720Y003758D01*
X040718Y003808D01*
D11*
X031099Y024838D02*
X031099Y025158D01*
X030992Y025265D01*
X030672Y025265D01*
X030672Y024838D01*
X030455Y024945D02*
X030455Y025158D01*
X030348Y025265D01*
X030134Y025265D01*
X030028Y025158D01*
X030028Y024945D01*
X030134Y024838D01*
X030348Y024838D01*
X030455Y024945D01*
X029812Y024838D02*
X029705Y024945D01*
X029705Y025372D01*
X029598Y025265D02*
X029812Y025265D01*
X029381Y025265D02*
X029274Y025265D01*
X029061Y025052D01*
X029061Y025265D02*
X029061Y024838D01*
X028843Y024945D02*
X028843Y025158D01*
X028737Y025265D01*
X028523Y025265D01*
X028416Y025158D01*
X028416Y024945D01*
X028523Y024838D01*
X028737Y024838D01*
X028843Y024945D01*
X028199Y024838D02*
X028199Y025479D01*
X027985Y025265D01*
X027772Y025479D01*
X027772Y024838D01*
X026911Y024838D02*
X026804Y024945D01*
X026804Y025372D01*
X026698Y025265D02*
X026911Y025265D01*
X026375Y025265D02*
X026375Y024838D01*
X026481Y024838D02*
X026268Y024838D01*
X026050Y024838D02*
X025730Y025158D01*
X025623Y025052D02*
X026050Y025479D01*
X026268Y025265D02*
X026375Y025265D01*
X026375Y025479D02*
X026375Y025585D01*
X026272Y026338D02*
X026058Y026338D01*
X025952Y026445D01*
X025952Y026872D01*
X026058Y026979D01*
X026272Y026979D01*
X026379Y026872D01*
X026379Y026445D02*
X026272Y026338D01*
X025734Y026445D02*
X025734Y026872D01*
X025627Y026979D01*
X025307Y026979D01*
X025307Y026338D01*
X025627Y026338D01*
X025734Y026445D01*
X025090Y026979D02*
X024663Y026338D01*
X024445Y026445D02*
X024338Y026338D01*
X024125Y026338D01*
X024018Y026445D01*
X024018Y026872D01*
X024125Y026979D01*
X024338Y026979D01*
X024445Y026872D01*
X023800Y026872D02*
X023800Y026445D01*
X023694Y026338D01*
X023373Y026338D01*
X023373Y026979D01*
X023694Y026979D01*
X023800Y026872D01*
X025623Y025479D02*
X025623Y024838D01*
X027241Y026445D02*
X027347Y026338D01*
X027561Y026338D01*
X027668Y026445D01*
X027885Y026445D02*
X027992Y026338D01*
X028205Y026338D01*
X028312Y026445D01*
X028312Y026658D01*
X028205Y026765D01*
X027992Y026765D01*
X027885Y026658D01*
X027885Y026445D01*
X027668Y026872D02*
X027561Y026979D01*
X027347Y026979D01*
X027241Y026872D01*
X027241Y026445D01*
X028530Y026338D02*
X028530Y026765D01*
X028850Y026765D01*
X028957Y026658D01*
X028957Y026338D01*
X029388Y026338D02*
X029174Y026765D01*
X029601Y026765D02*
X029388Y026338D01*
X029819Y026445D02*
X029819Y026658D01*
X029925Y026765D01*
X030139Y026765D01*
X030246Y026658D01*
X030246Y026552D01*
X029819Y026552D01*
X029819Y026445D02*
X029925Y026338D01*
X030139Y026338D01*
X030463Y026338D02*
X030463Y026765D01*
X030463Y026552D02*
X030677Y026765D01*
X030784Y026765D01*
X031000Y026765D02*
X031214Y026765D01*
X031107Y026872D02*
X031107Y026445D01*
X031214Y026338D01*
X031430Y026445D02*
X031430Y026658D01*
X031537Y026765D01*
X031750Y026765D01*
X031857Y026658D01*
X031857Y026552D01*
X031430Y026552D01*
X031430Y026445D02*
X031537Y026338D01*
X031750Y026338D01*
X032075Y026338D02*
X032075Y026765D01*
X032288Y026765D02*
X032395Y026765D01*
X032288Y026765D02*
X032075Y026552D01*
X033256Y026765D02*
X033470Y026979D01*
X033470Y026338D01*
X033683Y026338D02*
X033256Y026338D01*
X033901Y026338D02*
X034007Y026338D01*
X034007Y026445D01*
X033901Y026445D01*
X033901Y026338D01*
X034223Y026445D02*
X034330Y026338D01*
X034543Y026338D01*
X034650Y026445D01*
X034650Y026872D01*
X034223Y026445D01*
X034223Y026872D01*
X034330Y026979D01*
X034543Y026979D01*
X034650Y026872D01*
X011300Y029908D02*
X010873Y029908D01*
X011087Y029695D02*
X011087Y030122D01*
X010993Y028015D02*
X010993Y027588D01*
D12*
X026383Y027848D02*
X026844Y027848D01*
X026997Y028001D01*
X026997Y028615D01*
X026844Y028769D01*
X026383Y028769D01*
X026383Y027848D01*
X027304Y027848D02*
X027304Y028769D01*
X027765Y028769D01*
X027918Y028615D01*
X027918Y028308D01*
X027765Y028155D01*
X027304Y028155D01*
X027611Y028155D02*
X027918Y027848D01*
X028225Y027848D02*
X028839Y027848D01*
X028225Y027848D02*
X028225Y028769D01*
D13*
X036943Y032405D02*
X037019Y032328D01*
X037173Y032328D01*
X037250Y032405D01*
X037403Y032405D02*
X037403Y032558D01*
X037633Y032558D01*
X037710Y032481D01*
X037710Y032405D01*
X037633Y032328D01*
X037480Y032328D01*
X037403Y032405D01*
X037403Y032558D02*
X037556Y032712D01*
X037710Y032788D01*
X037250Y032712D02*
X037173Y032788D01*
X037019Y032788D01*
X036943Y032712D01*
X036943Y032405D01*
X036940Y019288D02*
X036863Y019212D01*
X036863Y018905D01*
X036940Y018828D01*
X037094Y018828D01*
X037170Y018905D01*
X037324Y018905D02*
X037401Y018828D01*
X037554Y018828D01*
X037631Y018905D01*
X037631Y019058D01*
X037554Y019135D01*
X037477Y019135D01*
X037324Y019058D01*
X037324Y019288D01*
X037631Y019288D01*
X037170Y019212D02*
X037094Y019288D01*
X036940Y019288D01*
X037019Y017288D02*
X036943Y017212D01*
X036943Y016905D01*
X037019Y016828D01*
X037173Y016828D01*
X037250Y016905D01*
X037403Y016828D02*
X037710Y016828D01*
X037556Y016828D02*
X037556Y017288D01*
X037403Y017135D01*
X037250Y017212D02*
X037173Y017288D01*
X037019Y017288D01*
X035960Y012674D02*
X035960Y012368D01*
X035960Y012521D02*
X035499Y012521D01*
X035653Y012368D01*
X035730Y012214D02*
X035806Y012137D01*
X035806Y011907D01*
X035806Y012061D02*
X035960Y012214D01*
X035730Y012214D02*
X035576Y012214D01*
X035499Y012137D01*
X035499Y011907D01*
X035960Y011907D01*
X036940Y003788D02*
X036863Y003712D01*
X036863Y003405D01*
X036940Y003328D01*
X037094Y003328D01*
X037170Y003405D01*
X037324Y003328D02*
X037631Y003635D01*
X037631Y003712D01*
X037554Y003788D01*
X037401Y003788D01*
X037324Y003712D01*
X037170Y003712D02*
X037094Y003788D01*
X036940Y003788D01*
X037324Y003328D02*
X037631Y003328D01*
X018710Y003712D02*
X018403Y003405D01*
X018403Y003328D01*
X018250Y003405D02*
X018173Y003328D01*
X018019Y003328D01*
X017943Y003405D01*
X017943Y003712D01*
X018019Y003788D01*
X018173Y003788D01*
X018250Y003712D01*
X018403Y003788D02*
X018710Y003788D01*
X018710Y003712D01*
X016473Y003745D02*
X016473Y003438D01*
X016167Y003745D01*
X016090Y003745D01*
X016013Y003669D01*
X016013Y003515D01*
X016090Y003438D01*
X016090Y003285D02*
X016243Y003285D01*
X016320Y003208D01*
X016320Y002978D01*
X016320Y003131D02*
X016473Y003285D01*
X016473Y002978D02*
X016013Y002978D01*
X016013Y003208D01*
X016090Y003285D01*
X013723Y003208D02*
X013647Y003285D01*
X013340Y003285D01*
X013263Y003208D01*
X013263Y002978D01*
X013723Y002978D01*
X013723Y003208D01*
X013723Y003438D02*
X013723Y003745D01*
X013723Y003592D02*
X013263Y003592D01*
X013417Y003438D01*
X011247Y007407D02*
X011323Y007484D01*
X011323Y007561D01*
X011247Y007637D01*
X010863Y007637D01*
X010863Y007561D02*
X010863Y007714D01*
X011093Y007868D02*
X011093Y008098D01*
X011170Y008175D01*
X011247Y008175D01*
X011323Y008098D01*
X011323Y007944D01*
X011247Y007868D01*
X011093Y007868D01*
X010940Y008021D01*
X010863Y008175D01*
X008310Y012397D02*
X008003Y012397D01*
X007926Y012474D01*
X007926Y012627D01*
X008003Y012704D01*
X008080Y012857D02*
X007926Y013011D01*
X008386Y013011D01*
X008386Y013164D02*
X008386Y012857D01*
X008310Y012704D02*
X008386Y012627D01*
X008386Y012474D01*
X008310Y012397D01*
X008386Y013318D02*
X008386Y013625D01*
X008386Y013471D02*
X007926Y013471D01*
X008080Y013318D01*
X017863Y016905D02*
X017940Y016828D01*
X018094Y016828D01*
X018170Y016905D01*
X018324Y016905D02*
X018324Y016981D01*
X018401Y017058D01*
X018554Y017058D01*
X018631Y016981D01*
X018631Y016905D01*
X018554Y016828D01*
X018401Y016828D01*
X018324Y016905D01*
X018401Y017058D02*
X018324Y017135D01*
X018324Y017212D01*
X018401Y017288D01*
X018554Y017288D01*
X018631Y017212D01*
X018631Y017135D01*
X018554Y017058D01*
X018170Y017212D02*
X018094Y017288D01*
X017940Y017288D01*
X017863Y017212D01*
X017863Y016905D01*
X018019Y018828D02*
X018173Y018828D01*
X018250Y018905D01*
X018403Y018905D02*
X018480Y018828D01*
X018633Y018828D01*
X018710Y018905D01*
X018710Y018981D01*
X018633Y019058D01*
X018556Y019058D01*
X018633Y019058D02*
X018710Y019135D01*
X018710Y019212D01*
X018633Y019288D01*
X018480Y019288D01*
X018403Y019212D01*
X018250Y019212D02*
X018173Y019288D01*
X018019Y019288D01*
X017943Y019212D01*
X017943Y018905D01*
X018019Y018828D01*
X008386Y021974D02*
X008310Y021897D01*
X008003Y021897D01*
X007926Y021974D01*
X007926Y022127D01*
X008003Y022204D01*
X008003Y022357D02*
X008080Y022357D01*
X008156Y022434D01*
X008156Y022664D01*
X008003Y022664D02*
X007926Y022587D01*
X007926Y022434D01*
X008003Y022357D01*
X008310Y022357D02*
X008386Y022434D01*
X008386Y022587D01*
X008310Y022664D01*
X008003Y022664D01*
X008310Y022204D02*
X008386Y022127D01*
X008386Y021974D01*
X017940Y032328D02*
X017863Y032405D01*
X017863Y032712D01*
X017940Y032788D01*
X018094Y032788D01*
X018170Y032712D01*
X018324Y032558D02*
X018631Y032558D01*
X018554Y032328D02*
X018554Y032788D01*
X018324Y032558D01*
X018170Y032405D02*
X018094Y032328D01*
X017940Y032328D01*
X016423Y032765D02*
X015963Y032765D01*
X015963Y032995D01*
X016040Y033072D01*
X016193Y033072D01*
X016270Y032995D01*
X016270Y032765D01*
X016270Y032918D02*
X016423Y033072D01*
X016347Y033225D02*
X016423Y033302D01*
X016423Y033455D01*
X016347Y033532D01*
X016270Y033532D01*
X016193Y033455D01*
X016193Y033379D01*
X016193Y033455D02*
X016117Y033532D01*
X016040Y033532D01*
X015963Y033455D01*
X015963Y033302D01*
X016040Y033225D01*
X013923Y033218D02*
X013617Y033525D01*
X013540Y033525D01*
X013463Y033448D01*
X013463Y033294D01*
X013540Y033218D01*
X013540Y033064D02*
X013463Y032987D01*
X013463Y032757D01*
X013923Y032757D01*
X013923Y032987D01*
X013847Y033064D01*
X013540Y033064D01*
X013923Y033218D02*
X013923Y033525D01*
D14*
X010418Y030777D02*
X007151Y030777D01*
X007151Y030580D01*
X007150Y030580D02*
X007110Y030519D01*
X007073Y030456D01*
X007040Y030391D01*
X007010Y030325D01*
X006983Y030257D01*
X006960Y030187D01*
X006941Y030117D01*
X006926Y030046D01*
X006914Y029974D01*
X006906Y029901D01*
X006902Y029828D01*
X006902Y029756D01*
X006906Y029683D01*
X006914Y029610D01*
X006926Y029538D01*
X006941Y029467D01*
X006960Y029397D01*
X006983Y029327D01*
X007010Y029259D01*
X007040Y029193D01*
X007073Y029128D01*
X007110Y029065D01*
X007150Y029004D01*
X007151Y029005D02*
X007151Y028808D01*
X007151Y028611D01*
X007151Y028808D02*
X007672Y028808D01*
X008066Y028808D02*
X008588Y028808D01*
X008981Y028808D02*
X009503Y028808D01*
X009897Y028808D02*
X010418Y028808D01*
X010418Y026840D01*
X007151Y026840D01*
X007151Y027036D01*
X007150Y027036D02*
X007110Y027097D01*
X007073Y027160D01*
X007040Y027225D01*
X007010Y027291D01*
X006983Y027359D01*
X006960Y027429D01*
X006941Y027499D01*
X006926Y027570D01*
X006914Y027642D01*
X006906Y027715D01*
X006902Y027788D01*
X006902Y027860D01*
X006906Y027933D01*
X006914Y028006D01*
X006926Y028078D01*
X006941Y028149D01*
X006960Y028219D01*
X006983Y028289D01*
X007010Y028357D01*
X007040Y028423D01*
X007073Y028488D01*
X007110Y028551D01*
X007150Y028612D01*
X010418Y028808D02*
X010418Y030777D01*
X012343Y023845D02*
X012343Y023156D01*
X008800Y023058D02*
X008804Y023232D01*
X008817Y023405D01*
X008838Y023578D01*
X008868Y023749D01*
X008906Y023919D01*
X008953Y024086D01*
X009007Y024252D01*
X009070Y024414D01*
X009140Y024573D01*
X009218Y024728D01*
X009304Y024879D01*
X009397Y025026D01*
X009497Y025169D01*
X009604Y025306D01*
X009718Y025437D01*
X009838Y025563D01*
X009964Y025683D01*
X010095Y025797D01*
X010232Y025904D01*
X010375Y026004D01*
X010522Y026097D01*
X010673Y026183D01*
X010828Y026261D01*
X010987Y026331D01*
X011149Y026394D01*
X011315Y026448D01*
X011482Y026495D01*
X011652Y026533D01*
X011823Y026563D01*
X011996Y026584D01*
X012169Y026597D01*
X012343Y026601D01*
X012517Y026597D01*
X012690Y026584D01*
X012863Y026563D01*
X013034Y026533D01*
X013204Y026495D01*
X013371Y026448D01*
X013537Y026394D01*
X013699Y026331D01*
X013858Y026261D01*
X014013Y026183D01*
X014164Y026097D01*
X014311Y026004D01*
X014454Y025904D01*
X014591Y025797D01*
X014722Y025683D01*
X014848Y025563D01*
X014968Y025437D01*
X015082Y025306D01*
X015189Y025169D01*
X015289Y025026D01*
X015382Y024879D01*
X015468Y024728D01*
X015546Y024573D01*
X015616Y024414D01*
X015679Y024252D01*
X015733Y024086D01*
X015780Y023919D01*
X015818Y023749D01*
X015848Y023578D01*
X015869Y023405D01*
X015882Y023232D01*
X015886Y023058D01*
X015882Y022884D01*
X015869Y022711D01*
X015848Y022538D01*
X015818Y022367D01*
X015780Y022197D01*
X015733Y022030D01*
X015679Y021864D01*
X015616Y021702D01*
X015546Y021543D01*
X015468Y021388D01*
X015382Y021237D01*
X015289Y021090D01*
X015189Y020947D01*
X015082Y020810D01*
X014968Y020679D01*
X014848Y020553D01*
X014722Y020433D01*
X014591Y020319D01*
X014454Y020212D01*
X014311Y020112D01*
X014164Y020019D01*
X014013Y019933D01*
X013858Y019855D01*
X013699Y019785D01*
X013537Y019722D01*
X013371Y019668D01*
X013204Y019621D01*
X013034Y019583D01*
X012863Y019553D01*
X012690Y019532D01*
X012517Y019519D01*
X012343Y019515D01*
X012169Y019519D01*
X011996Y019532D01*
X011823Y019553D01*
X011652Y019583D01*
X011482Y019621D01*
X011315Y019668D01*
X011149Y019722D01*
X010987Y019785D01*
X010828Y019855D01*
X010673Y019933D01*
X010522Y020019D01*
X010375Y020112D01*
X010232Y020212D01*
X010095Y020319D01*
X009964Y020433D01*
X009838Y020553D01*
X009718Y020679D01*
X009604Y020810D01*
X009497Y020947D01*
X009397Y021090D01*
X009304Y021237D01*
X009218Y021388D01*
X009140Y021543D01*
X009070Y021702D01*
X009007Y021864D01*
X008953Y022030D01*
X008906Y022197D01*
X008868Y022367D01*
X008838Y022538D01*
X008817Y022711D01*
X008804Y022884D01*
X008800Y023058D01*
X011950Y022271D02*
X012147Y022271D01*
X012048Y022369D02*
X012048Y022172D01*
X012343Y022271D02*
X012343Y022960D01*
X012639Y022960D01*
X012343Y022960D02*
X012048Y022960D01*
X012048Y023275D02*
X012073Y023247D01*
X012101Y023222D01*
X012131Y023200D01*
X012164Y023181D01*
X012197Y023166D01*
X012233Y023153D01*
X012269Y023144D01*
X012306Y023139D01*
X012343Y023137D01*
X012380Y023139D01*
X012417Y023144D01*
X012453Y023153D01*
X012489Y023166D01*
X012522Y023181D01*
X012555Y023200D01*
X012585Y023222D01*
X012613Y023247D01*
X012638Y023275D01*
X009367Y019936D02*
X008383Y019936D01*
X008095Y020217D01*
X007202Y020217D01*
X007202Y019509D01*
X007556Y019509D01*
X007556Y017127D01*
X007202Y017127D01*
X007202Y016399D01*
X008095Y016399D01*
X008383Y016680D01*
X009367Y016680D01*
X009367Y019936D01*
X012343Y014345D02*
X012343Y013656D01*
X008800Y013558D02*
X008804Y013732D01*
X008817Y013905D01*
X008838Y014078D01*
X008868Y014249D01*
X008906Y014419D01*
X008953Y014586D01*
X009007Y014752D01*
X009070Y014914D01*
X009140Y015073D01*
X009218Y015228D01*
X009304Y015379D01*
X009397Y015526D01*
X009497Y015669D01*
X009604Y015806D01*
X009718Y015937D01*
X009838Y016063D01*
X009964Y016183D01*
X010095Y016297D01*
X010232Y016404D01*
X010375Y016504D01*
X010522Y016597D01*
X010673Y016683D01*
X010828Y016761D01*
X010987Y016831D01*
X011149Y016894D01*
X011315Y016948D01*
X011482Y016995D01*
X011652Y017033D01*
X011823Y017063D01*
X011996Y017084D01*
X012169Y017097D01*
X012343Y017101D01*
X012517Y017097D01*
X012690Y017084D01*
X012863Y017063D01*
X013034Y017033D01*
X013204Y016995D01*
X013371Y016948D01*
X013537Y016894D01*
X013699Y016831D01*
X013858Y016761D01*
X014013Y016683D01*
X014164Y016597D01*
X014311Y016504D01*
X014454Y016404D01*
X014591Y016297D01*
X014722Y016183D01*
X014848Y016063D01*
X014968Y015937D01*
X015082Y015806D01*
X015189Y015669D01*
X015289Y015526D01*
X015382Y015379D01*
X015468Y015228D01*
X015546Y015073D01*
X015616Y014914D01*
X015679Y014752D01*
X015733Y014586D01*
X015780Y014419D01*
X015818Y014249D01*
X015848Y014078D01*
X015869Y013905D01*
X015882Y013732D01*
X015886Y013558D01*
X015882Y013384D01*
X015869Y013211D01*
X015848Y013038D01*
X015818Y012867D01*
X015780Y012697D01*
X015733Y012530D01*
X015679Y012364D01*
X015616Y012202D01*
X015546Y012043D01*
X015468Y011888D01*
X015382Y011737D01*
X015289Y011590D01*
X015189Y011447D01*
X015082Y011310D01*
X014968Y011179D01*
X014848Y011053D01*
X014722Y010933D01*
X014591Y010819D01*
X014454Y010712D01*
X014311Y010612D01*
X014164Y010519D01*
X014013Y010433D01*
X013858Y010355D01*
X013699Y010285D01*
X013537Y010222D01*
X013371Y010168D01*
X013204Y010121D01*
X013034Y010083D01*
X012863Y010053D01*
X012690Y010032D01*
X012517Y010019D01*
X012343Y010015D01*
X012169Y010019D01*
X011996Y010032D01*
X011823Y010053D01*
X011652Y010083D01*
X011482Y010121D01*
X011315Y010168D01*
X011149Y010222D01*
X010987Y010285D01*
X010828Y010355D01*
X010673Y010433D01*
X010522Y010519D01*
X010375Y010612D01*
X010232Y010712D01*
X010095Y010819D01*
X009964Y010933D01*
X009838Y011053D01*
X009718Y011179D01*
X009604Y011310D01*
X009497Y011447D01*
X009397Y011590D01*
X009304Y011737D01*
X009218Y011888D01*
X009140Y012043D01*
X009070Y012202D01*
X009007Y012364D01*
X008953Y012530D01*
X008906Y012697D01*
X008868Y012867D01*
X008838Y013038D01*
X008817Y013211D01*
X008804Y013384D01*
X008800Y013558D01*
X011950Y012771D02*
X012147Y012771D01*
X012048Y012869D02*
X012048Y012672D01*
X012343Y012771D02*
X012343Y013460D01*
X012639Y013460D01*
X012343Y013460D02*
X012048Y013460D01*
X012048Y013775D02*
X012073Y013747D01*
X012101Y013722D01*
X012131Y013700D01*
X012164Y013681D01*
X012197Y013666D01*
X012233Y013653D01*
X012269Y013644D01*
X012306Y013639D01*
X012343Y013637D01*
X012380Y013639D01*
X012417Y013644D01*
X012453Y013653D01*
X012489Y013666D01*
X012522Y013681D01*
X012555Y013700D01*
X012585Y013722D01*
X012613Y013747D01*
X012638Y013775D01*
X040320Y011542D02*
X040320Y009074D01*
X041304Y009074D01*
X041591Y008792D01*
X042485Y008792D01*
X042485Y009501D01*
X042131Y009501D01*
X042131Y011095D01*
X042485Y011095D01*
X042485Y011824D01*
X041591Y011824D01*
X041304Y011542D01*
X040320Y011542D01*
X041591Y015792D02*
X041304Y016074D01*
X040320Y016074D01*
X040320Y018542D01*
X041304Y018542D01*
X041591Y018824D01*
X042485Y018824D01*
X042485Y018095D01*
X042131Y018095D01*
X042131Y016501D01*
X042485Y016501D01*
X042485Y015792D01*
X041591Y015792D01*
X041591Y019792D02*
X041304Y020074D01*
X040320Y020074D01*
X040320Y022542D01*
X041304Y022542D01*
X041591Y022824D01*
X042485Y022824D01*
X042485Y022095D01*
X042131Y022095D01*
X042131Y020501D01*
X042485Y020501D01*
X042485Y019792D01*
X041591Y019792D01*
X041591Y023792D02*
X041304Y024074D01*
X040320Y024074D01*
X040320Y026542D01*
X041304Y026542D01*
X041591Y026824D01*
X042485Y026824D01*
X042485Y026095D01*
X042131Y026095D01*
X042131Y024501D01*
X042485Y024501D01*
X042485Y023792D01*
X041591Y023792D01*
X041591Y027792D02*
X041304Y028074D01*
X040320Y028074D01*
X040320Y030542D01*
X041304Y030542D01*
X041591Y030824D01*
X042485Y030824D01*
X042485Y030095D01*
X042131Y030095D01*
X042131Y028501D01*
X042485Y028501D01*
X042485Y027792D01*
X041591Y027792D01*
D15*
X010615Y008832D02*
X010615Y006784D01*
X007977Y006784D01*
X007978Y006784D02*
X007976Y006756D01*
X007971Y006728D01*
X007961Y006701D01*
X007949Y006675D01*
X007933Y006652D01*
X007914Y006631D01*
X007893Y006612D01*
X007869Y006596D01*
X007844Y006584D01*
X007817Y006574D01*
X007789Y006569D01*
X007761Y006567D01*
X007733Y006569D01*
X007705Y006574D01*
X007678Y006584D01*
X007652Y006596D01*
X007629Y006612D01*
X007608Y006631D01*
X007589Y006652D01*
X007573Y006676D01*
X007561Y006701D01*
X007551Y006728D01*
X007546Y006756D01*
X007544Y006784D01*
X006914Y006784D01*
X006914Y008832D01*
X010615Y008832D01*
X010143Y008871D02*
X010143Y009147D01*
X009395Y009107D02*
X009354Y009136D01*
X009315Y009168D01*
X009278Y009203D01*
X009245Y009240D01*
X009214Y009280D01*
X009187Y009322D01*
X009162Y009366D01*
X009142Y009412D01*
X009125Y009460D01*
X009111Y009508D01*
X009102Y009558D01*
X009096Y009608D01*
X009094Y009658D01*
X009096Y009708D01*
X009102Y009758D01*
X009111Y009808D01*
X009125Y009856D01*
X009142Y009904D01*
X009162Y009950D01*
X009187Y009994D01*
X009214Y010036D01*
X009245Y010076D01*
X009278Y010113D01*
X009315Y010148D01*
X009354Y010180D01*
X009395Y010209D01*
X009395Y010210D02*
X010103Y010210D01*
X010103Y010209D02*
X010144Y010180D01*
X010183Y010148D01*
X010220Y010113D01*
X010253Y010076D01*
X010284Y010036D01*
X010311Y009994D01*
X010336Y009950D01*
X010356Y009904D01*
X010373Y009856D01*
X010387Y009808D01*
X010396Y009758D01*
X010402Y009708D01*
X010404Y009658D01*
X010402Y009608D01*
X010396Y009558D01*
X010387Y009508D01*
X010373Y009460D01*
X010356Y009412D01*
X010336Y009366D01*
X010311Y009322D01*
X010284Y009280D01*
X010253Y009240D01*
X010220Y009203D01*
X010183Y009168D01*
X010144Y009136D01*
X010103Y009107D01*
X009355Y009147D02*
X009355Y008871D01*
X009355Y006745D02*
X009355Y006469D01*
X010103Y006509D02*
X010144Y006480D01*
X010183Y006448D01*
X010220Y006413D01*
X010253Y006376D01*
X010284Y006336D01*
X010311Y006294D01*
X010336Y006250D01*
X010356Y006204D01*
X010373Y006156D01*
X010387Y006108D01*
X010396Y006058D01*
X010402Y006008D01*
X010404Y005958D01*
X010402Y005908D01*
X010396Y005858D01*
X010387Y005808D01*
X010373Y005760D01*
X010356Y005712D01*
X010336Y005666D01*
X010311Y005622D01*
X010284Y005580D01*
X010253Y005540D01*
X010220Y005503D01*
X010183Y005468D01*
X010144Y005436D01*
X010103Y005407D01*
X010103Y005406D02*
X009395Y005406D01*
X009395Y005407D02*
X009354Y005436D01*
X009315Y005468D01*
X009278Y005503D01*
X009245Y005540D01*
X009214Y005580D01*
X009187Y005622D01*
X009162Y005666D01*
X009142Y005712D01*
X009125Y005760D01*
X009111Y005808D01*
X009102Y005858D01*
X009096Y005908D01*
X009094Y005958D01*
X009096Y006008D01*
X009102Y006058D01*
X009111Y006108D01*
X009125Y006156D01*
X009142Y006204D01*
X009162Y006250D01*
X009187Y006294D01*
X009214Y006336D01*
X009245Y006376D01*
X009278Y006413D01*
X009315Y006448D01*
X009354Y006480D01*
X009395Y006509D01*
X010143Y006469D02*
X010143Y006745D01*
M02*
