G75*
G70*
%OFA0B0*%
%FSLAX24Y24*%
%IPPOS*%
%LPD*%
%AMOC8*
5,1,8,0,0,1.08239X$1,22.5*
%
%ADD10C,0.1341*%
%ADD11C,0.1329*%
%ADD12C,0.1683*%
%ADD13R,0.0433X0.0394*%
%ADD14C,0.0594*%
%ADD15R,0.0827X0.0827*%
%ADD16C,0.0515*%
%ADD17C,0.0515*%
%ADD18C,0.0600*%
%ADD19C,0.0120*%
%ADD20C,0.1000*%
%ADD21C,0.0700*%
%ADD22C,0.0500*%
%ADD23C,0.0396*%
%ADD24C,0.0160*%
%ADD25C,0.0357*%
D10*
X017843Y006308D03*
X017843Y009056D03*
X017843Y011556D03*
X017843Y014308D03*
X017843Y021808D03*
X017843Y024556D03*
X017843Y027056D03*
X017843Y029808D03*
D11*
X037843Y029808D03*
X037843Y025808D03*
X037843Y021808D03*
X037843Y014308D03*
X037843Y010308D03*
X037843Y006308D03*
D12*
X034343Y003958D03*
X027843Y003958D03*
X021343Y003958D03*
X021343Y016658D03*
X021343Y019458D03*
X027843Y019458D03*
X027843Y016658D03*
X034343Y016658D03*
X034343Y019458D03*
X034343Y032158D03*
X027843Y032158D03*
X021343Y032158D03*
D13*
X018678Y031808D03*
X018009Y031808D03*
X015343Y032981D03*
X015343Y033650D03*
X014343Y033643D03*
X014343Y032973D03*
X018009Y019808D03*
X018678Y019808D03*
X018678Y016308D03*
X018009Y016308D03*
X018009Y004308D03*
X018678Y004308D03*
X015343Y003643D03*
X015343Y002973D03*
X014343Y002973D03*
X014343Y003643D03*
X036580Y011903D03*
X036580Y012572D03*
X037009Y016308D03*
X037678Y016308D03*
X037678Y019808D03*
X037009Y019808D03*
X037009Y031808D03*
X037678Y031808D03*
X037678Y004308D03*
X037009Y004308D03*
D14*
X012343Y012082D03*
X012343Y015034D03*
X012343Y021582D03*
X012343Y024534D03*
D15*
X009926Y007808D03*
X007761Y007808D03*
D16*
X008343Y017521D03*
X008343Y018308D03*
X008343Y019095D03*
X041343Y017702D03*
X041343Y016914D03*
X041343Y020914D03*
X041343Y021702D03*
X041343Y024914D03*
X041343Y025702D03*
X041343Y028914D03*
X041343Y029702D03*
X041343Y010702D03*
X041343Y009914D03*
D17*
X009101Y027824D02*
X008586Y027824D01*
X008586Y029792D02*
X009101Y029792D01*
D18*
X012843Y029108D02*
X012843Y028508D01*
X014843Y028508D02*
X014843Y029108D01*
X013843Y008108D02*
X013843Y007508D01*
X011843Y007508D02*
X011843Y008108D01*
D19*
X016343Y007556D02*
X016343Y005308D01*
X015343Y004308D01*
X015343Y003643D01*
X015343Y002973D02*
X014343Y002973D01*
X018009Y004308D02*
X018009Y006143D01*
X017843Y006308D01*
X016343Y007556D02*
X017843Y009056D01*
X017843Y014308D02*
X018009Y014473D01*
X018009Y016308D01*
X018009Y019808D02*
X018009Y021643D01*
X017843Y021808D01*
X017843Y029808D02*
X018009Y029973D01*
X018009Y031808D01*
X016343Y031308D02*
X015343Y032308D01*
X015343Y032981D01*
X037678Y031808D02*
X037678Y029973D01*
X037843Y029808D01*
X037843Y021808D02*
X037678Y021643D01*
X037678Y019808D01*
X037678Y016308D02*
X037678Y014473D01*
X037843Y014308D01*
X036580Y013044D01*
X036580Y012572D01*
X036580Y011903D02*
X036580Y011572D01*
X037843Y010308D01*
X037843Y006308D02*
X037678Y006143D01*
X037678Y004308D01*
D20*
X039843Y018308D02*
X039843Y021808D01*
X039843Y025308D01*
X039843Y028808D01*
X039843Y029808D01*
X037843Y029808D01*
X017843Y021808D02*
X012570Y021808D01*
X012343Y021582D01*
D21*
X039843Y021808D02*
X039950Y020914D01*
X039843Y028808D02*
X039950Y028914D01*
D22*
X039843Y029702D02*
X039843Y029808D01*
X039843Y029702D02*
X041343Y029702D01*
X041343Y025702D02*
X039843Y025702D01*
X039843Y025308D01*
X039843Y021808D02*
X039843Y021702D01*
X041343Y021702D01*
X039843Y018308D02*
X040450Y017702D01*
X041343Y017702D01*
D23*
X016343Y031308D03*
D24*
X007343Y007215D02*
X007343Y004286D01*
X007459Y004486D01*
X007665Y004692D01*
X007917Y004838D01*
X008198Y004913D01*
X008489Y004913D01*
X008770Y004838D01*
X009022Y004692D01*
X009228Y004486D01*
X009373Y004235D01*
X009448Y003954D01*
X009448Y003663D01*
X009373Y003381D01*
X009228Y003130D01*
X009022Y002924D01*
X008821Y002808D01*
X013947Y002808D01*
X013947Y003245D01*
X014010Y003308D01*
X013983Y003335D01*
X013959Y003376D01*
X013947Y003422D01*
X013947Y003624D01*
X014325Y003624D01*
X014325Y003661D01*
X013947Y003661D01*
X013947Y003863D01*
X013959Y003909D01*
X013983Y003950D01*
X014016Y003984D01*
X014057Y004007D01*
X014103Y004019D01*
X014325Y004019D01*
X014325Y003661D01*
X014362Y003661D01*
X014740Y003661D01*
X014740Y003863D01*
X014728Y003909D01*
X014704Y003950D01*
X014671Y003984D01*
X014629Y004007D01*
X014584Y004019D01*
X014362Y004019D01*
X014362Y003661D01*
X014362Y003624D01*
X014740Y003624D01*
X014740Y003422D01*
X014728Y003376D01*
X014704Y003335D01*
X014677Y003308D01*
X014740Y003245D01*
X014740Y003213D01*
X014947Y003213D01*
X014947Y003245D01*
X015010Y003308D01*
X014947Y003371D01*
X014947Y003914D01*
X015052Y004019D01*
X015103Y004019D01*
X015103Y004260D01*
X015103Y004356D01*
X015140Y004444D01*
X016103Y005407D01*
X016103Y007508D01*
X016103Y007604D01*
X016140Y007692D01*
X017093Y008645D01*
X016993Y008887D01*
X016993Y009225D01*
X017122Y009538D01*
X017362Y009777D01*
X017674Y009906D01*
X018013Y009906D01*
X018325Y009777D01*
X018343Y009759D01*
X018343Y010853D01*
X018325Y010835D01*
X018013Y010706D01*
X017674Y010706D01*
X017362Y010835D01*
X017122Y011074D01*
X016993Y011387D01*
X016993Y011725D01*
X017122Y012038D01*
X017362Y012277D01*
X017674Y012406D01*
X018013Y012406D01*
X018325Y012277D01*
X018343Y012259D01*
X018343Y013620D01*
X018317Y013599D01*
X018220Y013544D01*
X018117Y013501D01*
X018010Y013472D01*
X017923Y013461D01*
X017923Y014228D01*
X017763Y014228D01*
X016996Y014228D01*
X017008Y014142D01*
X017036Y014034D01*
X017079Y013931D01*
X017135Y013834D01*
X017203Y013746D01*
X017281Y013667D01*
X017370Y013599D01*
X017466Y013544D01*
X017569Y013501D01*
X017677Y013472D01*
X017763Y013461D01*
X017763Y014228D01*
X017763Y014388D01*
X016996Y014388D01*
X017008Y014474D01*
X017036Y014582D01*
X017079Y014685D01*
X017135Y014782D01*
X017203Y014870D01*
X017281Y014949D01*
X017370Y015017D01*
X017466Y015072D01*
X017569Y015115D01*
X017677Y015144D01*
X017763Y015155D01*
X017763Y014388D01*
X017923Y014388D01*
X017923Y015155D01*
X018010Y015144D01*
X018117Y015115D01*
X018220Y015072D01*
X018317Y015017D01*
X018343Y014996D01*
X018343Y015975D01*
X018336Y015967D01*
X018295Y015943D01*
X018249Y015931D01*
X018027Y015931D01*
X018027Y016289D01*
X017990Y016289D01*
X017990Y015931D01*
X017769Y015931D01*
X017723Y015943D01*
X017682Y015967D01*
X017648Y016001D01*
X017625Y016042D01*
X017612Y016087D01*
X017612Y016290D01*
X017990Y016290D01*
X017990Y016326D01*
X017612Y016326D01*
X017612Y016529D01*
X017625Y016574D01*
X017648Y016615D01*
X017682Y016649D01*
X017723Y016673D01*
X017769Y016685D01*
X017990Y016685D01*
X017990Y016327D01*
X018027Y016327D01*
X018027Y016685D01*
X018249Y016685D01*
X018295Y016673D01*
X018336Y016649D01*
X018343Y016641D01*
X018343Y019475D01*
X018300Y019431D01*
X017718Y019431D01*
X017612Y019537D01*
X017612Y020079D01*
X017718Y020185D01*
X017769Y020185D01*
X017769Y020958D01*
X017674Y020958D01*
X017362Y021087D01*
X017321Y021128D01*
X012851Y021128D01*
X012729Y021005D01*
X012479Y020902D01*
X012208Y020902D01*
X011958Y021005D01*
X011767Y021196D01*
X011663Y021446D01*
X011663Y021717D01*
X011767Y021967D01*
X011993Y022193D01*
X012185Y022384D01*
X012435Y022488D01*
X017321Y022488D01*
X017362Y022529D01*
X017674Y022658D01*
X018013Y022658D01*
X018325Y022529D01*
X018343Y022511D01*
X018343Y023853D01*
X018325Y023835D01*
X018013Y023706D01*
X017674Y023706D01*
X017362Y023835D01*
X017122Y024074D01*
X016993Y024387D01*
X016993Y024725D01*
X017122Y025038D01*
X017362Y025277D01*
X017674Y025406D01*
X018013Y025406D01*
X018325Y025277D01*
X018343Y025259D01*
X018343Y026353D01*
X018325Y026335D01*
X018013Y026206D01*
X017674Y026206D01*
X017362Y026335D01*
X017122Y026574D01*
X016993Y026887D01*
X016993Y027225D01*
X017122Y027538D01*
X017362Y027777D01*
X017674Y027906D01*
X018013Y027906D01*
X018325Y027777D01*
X018343Y027759D01*
X018343Y029120D01*
X018317Y029099D01*
X018220Y029044D01*
X018117Y029001D01*
X018010Y028972D01*
X017923Y028961D01*
X017923Y029728D01*
X017763Y029728D01*
X016996Y029728D01*
X017008Y029642D01*
X017036Y029534D01*
X017079Y029431D01*
X017135Y029334D01*
X017203Y029246D01*
X017281Y029167D01*
X017370Y029099D01*
X017466Y029044D01*
X017569Y029001D01*
X017677Y028972D01*
X017763Y028961D01*
X017763Y029728D01*
X017763Y029888D01*
X016996Y029888D01*
X017008Y029974D01*
X017036Y030082D01*
X017079Y030185D01*
X017135Y030282D01*
X017203Y030370D01*
X007343Y030370D01*
X007343Y030212D02*
X008455Y030212D01*
X008499Y030230D02*
X008338Y030163D01*
X008215Y030040D01*
X008149Y029879D01*
X008149Y029705D01*
X008215Y029544D01*
X008338Y029421D01*
X008499Y029355D01*
X009188Y029355D01*
X009349Y029421D01*
X009472Y029544D01*
X009538Y029705D01*
X009538Y029879D01*
X009472Y030040D01*
X009349Y030163D01*
X009188Y030230D01*
X008499Y030230D01*
X008228Y030053D02*
X007343Y030053D01*
X007343Y029895D02*
X008155Y029895D01*
X008149Y029736D02*
X007343Y029736D01*
X007343Y029577D02*
X008201Y029577D01*
X008344Y029419D02*
X007343Y029419D01*
X007343Y029260D02*
X012387Y029260D01*
X012363Y029204D02*
X012437Y029380D01*
X012572Y029515D01*
X012748Y029588D01*
X012939Y029588D01*
X013115Y029515D01*
X013250Y029380D01*
X013323Y029204D01*
X013323Y028413D01*
X013250Y028236D01*
X013115Y028101D01*
X012939Y028028D01*
X012748Y028028D01*
X012572Y028101D01*
X012437Y028236D01*
X012363Y028413D01*
X012363Y029204D01*
X012363Y029102D02*
X007343Y029102D01*
X007343Y028943D02*
X012363Y028943D01*
X012363Y028785D02*
X007343Y028785D01*
X007343Y028626D02*
X012363Y028626D01*
X012363Y028468D02*
X007343Y028468D01*
X007343Y028309D02*
X012406Y028309D01*
X012522Y028151D02*
X009393Y028151D01*
X009386Y028157D02*
X009330Y028198D01*
X009269Y028229D01*
X009203Y028250D01*
X009135Y028261D01*
X008844Y028261D01*
X008844Y027824D01*
X009538Y027824D01*
X009538Y027858D01*
X009528Y027926D01*
X009506Y027992D01*
X018343Y027992D01*
X018343Y027834D02*
X018189Y027834D01*
X018343Y028151D02*
X015165Y028151D01*
X015115Y028101D02*
X015250Y028236D01*
X015323Y028413D01*
X015323Y029204D01*
X015250Y029380D01*
X015115Y029515D01*
X014939Y029588D01*
X014748Y029588D01*
X014572Y029515D01*
X014437Y029380D01*
X014363Y029204D01*
X014363Y028413D01*
X014437Y028236D01*
X014572Y028101D01*
X014748Y028028D01*
X014939Y028028D01*
X015115Y028101D01*
X015281Y028309D02*
X018343Y028309D01*
X018343Y028468D02*
X015323Y028468D01*
X015323Y028626D02*
X018343Y028626D01*
X018343Y028785D02*
X015323Y028785D01*
X015323Y028943D02*
X018343Y028943D01*
X018343Y029102D02*
X018320Y029102D01*
X017923Y029102D02*
X017763Y029102D01*
X017763Y029260D02*
X017923Y029260D01*
X017923Y029419D02*
X017763Y029419D01*
X017763Y029577D02*
X017923Y029577D01*
X017763Y029736D02*
X009538Y029736D01*
X009532Y029895D02*
X016997Y029895D01*
X017029Y030053D02*
X009459Y030053D01*
X009232Y030212D02*
X017094Y030212D01*
X017203Y030370D02*
X017281Y030449D01*
X017370Y030517D01*
X017466Y030572D01*
X017569Y030615D01*
X017677Y030644D01*
X017763Y030655D01*
X017763Y029888D01*
X017923Y029888D01*
X017923Y030655D01*
X018010Y030644D01*
X018117Y030615D01*
X018220Y030572D01*
X018317Y030517D01*
X018343Y030496D01*
X018343Y031475D01*
X018336Y031467D01*
X018295Y031443D01*
X018249Y031431D01*
X018027Y031431D01*
X018027Y031789D01*
X017990Y031789D01*
X017990Y031431D01*
X017769Y031431D01*
X017723Y031443D01*
X017682Y031467D01*
X017648Y031501D01*
X017625Y031542D01*
X017612Y031587D01*
X017612Y031790D01*
X017990Y031790D01*
X017990Y031826D01*
X017612Y031826D01*
X017612Y032029D01*
X017625Y032074D01*
X017648Y032115D01*
X017682Y032149D01*
X017723Y032173D01*
X017769Y032185D01*
X017990Y032185D01*
X017990Y031827D01*
X018027Y031827D01*
X018027Y032185D01*
X018249Y032185D01*
X018295Y032173D01*
X018336Y032149D01*
X018343Y032141D01*
X018343Y033808D01*
X015740Y033808D01*
X015740Y033379D01*
X015677Y033316D01*
X015740Y033252D01*
X015740Y032709D01*
X015635Y032604D01*
X015583Y032604D01*
X015583Y032407D01*
X016305Y031686D01*
X016419Y031686D01*
X016558Y031629D01*
X016664Y031522D01*
X016722Y031383D01*
X016722Y031233D01*
X016664Y031094D01*
X016558Y030987D01*
X016419Y030930D01*
X016268Y030930D01*
X016129Y030987D01*
X016023Y031094D01*
X015965Y031233D01*
X015965Y031347D01*
X015140Y032172D01*
X015103Y032260D01*
X015103Y032356D01*
X015103Y032604D01*
X015052Y032604D01*
X014947Y032709D01*
X014947Y033252D01*
X015010Y033316D01*
X014947Y033379D01*
X014947Y033383D01*
X014740Y033383D01*
X014740Y033371D01*
X014677Y033308D01*
X014704Y033281D01*
X014728Y033240D01*
X014740Y033194D01*
X014740Y032992D01*
X014362Y032992D01*
X014362Y032955D01*
X014740Y032955D01*
X014740Y032753D01*
X014728Y032707D01*
X014704Y032666D01*
X014671Y032632D01*
X014629Y032609D01*
X014584Y032597D01*
X014362Y032597D01*
X014362Y032955D01*
X014325Y032955D01*
X013947Y032955D01*
X013947Y032753D01*
X013959Y032707D01*
X013983Y032666D01*
X014016Y032632D01*
X014057Y032609D01*
X014103Y032597D01*
X014325Y032597D01*
X014325Y032955D01*
X014325Y032992D01*
X013947Y032992D01*
X013947Y033194D01*
X013959Y033240D01*
X013983Y033281D01*
X014010Y033308D01*
X013947Y033371D01*
X013947Y033808D01*
X008821Y033808D01*
X009022Y033692D01*
X009228Y033486D01*
X009373Y033235D01*
X009448Y032954D01*
X009448Y032663D01*
X009373Y032381D01*
X009228Y032130D01*
X009022Y031924D01*
X008770Y031778D01*
X008489Y031703D01*
X008198Y031703D01*
X007917Y031778D01*
X007665Y031924D01*
X007459Y032130D01*
X007343Y032330D01*
X007343Y008401D01*
X007703Y008401D01*
X007703Y007866D01*
X007819Y007866D01*
X008354Y007866D01*
X008354Y008245D01*
X008342Y008291D01*
X008318Y008332D01*
X008285Y008365D01*
X008244Y008389D01*
X008198Y008401D01*
X007819Y008401D01*
X007819Y007866D01*
X007819Y007750D01*
X008354Y007750D01*
X008354Y007371D01*
X008342Y007325D01*
X008318Y007284D01*
X008285Y007251D01*
X008244Y007227D01*
X008198Y007215D01*
X007819Y007215D01*
X007819Y007750D01*
X007703Y007750D01*
X007703Y007215D01*
X007343Y007215D01*
X007343Y007064D02*
X011660Y007064D01*
X011748Y007028D02*
X011939Y007028D01*
X012115Y007101D01*
X012250Y007236D01*
X012323Y007413D01*
X012323Y008204D01*
X012250Y008380D01*
X012115Y008515D01*
X011939Y008588D01*
X011748Y008588D01*
X011572Y008515D01*
X011437Y008380D01*
X011363Y008204D01*
X011363Y007413D01*
X011437Y007236D01*
X011572Y007101D01*
X011748Y007028D01*
X012027Y007064D02*
X013660Y007064D01*
X013748Y007028D02*
X013939Y007028D01*
X014115Y007101D01*
X014250Y007236D01*
X014323Y007413D01*
X014323Y008204D01*
X014250Y008380D01*
X014115Y008515D01*
X013939Y008588D01*
X013748Y008588D01*
X013572Y008515D01*
X013437Y008380D01*
X013363Y008204D01*
X013363Y007413D01*
X013437Y007236D01*
X013572Y007101D01*
X013748Y007028D01*
X014027Y007064D02*
X016103Y007064D01*
X016103Y006906D02*
X010244Y006906D01*
X010158Y006955D02*
X010402Y006814D01*
X010602Y006615D01*
X010743Y006371D01*
X010816Y006099D01*
X010816Y005817D01*
X010743Y005544D01*
X010602Y005300D01*
X010402Y005101D01*
X010158Y004960D01*
X009886Y004887D01*
X009604Y004887D01*
X009332Y004960D01*
X009088Y005101D01*
X008888Y005300D01*
X008747Y005544D01*
X008674Y005817D01*
X008674Y006099D01*
X008747Y006371D01*
X008888Y006615D01*
X009088Y006814D01*
X009332Y006955D01*
X009604Y007028D01*
X009886Y007028D01*
X010158Y006955D01*
X010414Y007215D02*
X010519Y007320D01*
X010519Y008296D01*
X010414Y008401D01*
X009438Y008401D01*
X009333Y008296D01*
X009333Y007320D01*
X009438Y007215D01*
X010414Y007215D01*
X010422Y007223D02*
X011450Y007223D01*
X011376Y007381D02*
X010519Y007381D01*
X010519Y007540D02*
X011363Y007540D01*
X011363Y007699D02*
X010519Y007699D01*
X010519Y007857D02*
X011363Y007857D01*
X011363Y008016D02*
X010519Y008016D01*
X010519Y008174D02*
X011363Y008174D01*
X011417Y008333D02*
X010483Y008333D01*
X010158Y008661D02*
X010402Y008802D01*
X010602Y009001D01*
X010743Y009245D01*
X010816Y009517D01*
X010816Y009799D01*
X010743Y010072D01*
X010602Y010316D01*
X010402Y010515D01*
X010158Y010656D01*
X009886Y010729D01*
X009604Y010729D01*
X009332Y010656D01*
X009088Y010515D01*
X008888Y010316D01*
X008747Y010072D01*
X008674Y009799D01*
X008674Y009517D01*
X008747Y009245D01*
X008888Y009001D01*
X009088Y008802D01*
X009332Y008661D01*
X009604Y008588D01*
X009886Y008588D01*
X010158Y008661D01*
X010117Y008650D02*
X017091Y008650D01*
X017026Y008808D02*
X010409Y008808D01*
X010567Y008967D02*
X016993Y008967D01*
X016993Y009125D02*
X010673Y009125D01*
X010753Y009284D02*
X017017Y009284D01*
X017083Y009442D02*
X010795Y009442D01*
X010816Y009601D02*
X017186Y009601D01*
X017344Y009760D02*
X010816Y009760D01*
X010784Y009918D02*
X018343Y009918D01*
X018343Y009760D02*
X018343Y009760D01*
X018343Y010077D02*
X010740Y010077D01*
X010648Y010235D02*
X018343Y010235D01*
X018343Y010394D02*
X010524Y010394D01*
X010338Y010552D02*
X018343Y010552D01*
X018343Y010711D02*
X018025Y010711D01*
X017662Y010711D02*
X009954Y010711D01*
X009536Y010711D02*
X007343Y010711D01*
X007343Y010869D02*
X017327Y010869D01*
X017169Y011028D02*
X007343Y011028D01*
X007343Y011186D02*
X017076Y011186D01*
X017010Y011345D02*
X007343Y011345D01*
X007343Y011504D02*
X016993Y011504D01*
X016993Y011662D02*
X012577Y011662D01*
X012614Y011677D02*
X012438Y011605D01*
X012249Y011605D01*
X012073Y011677D01*
X011939Y011812D01*
X011867Y011987D01*
X011867Y012176D01*
X011939Y012352D01*
X012073Y012486D01*
X012249Y012558D01*
X012438Y012558D01*
X012614Y012486D01*
X012748Y012352D01*
X012820Y012176D01*
X012820Y011987D01*
X012748Y011812D01*
X012614Y011677D01*
X012751Y011821D02*
X017033Y011821D01*
X017098Y011979D02*
X012817Y011979D01*
X012820Y012138D02*
X017222Y012138D01*
X017408Y012296D02*
X012771Y012296D01*
X012645Y012455D02*
X018343Y012455D01*
X018343Y012613D02*
X007343Y012613D01*
X007343Y012455D02*
X012042Y012455D01*
X011916Y012296D02*
X007343Y012296D01*
X007343Y012138D02*
X011867Y012138D01*
X011870Y011979D02*
X007343Y011979D01*
X007343Y011821D02*
X011935Y011821D01*
X012110Y011662D02*
X007343Y011662D01*
X007343Y010552D02*
X009152Y010552D01*
X008966Y010394D02*
X007343Y010394D01*
X007343Y010235D02*
X008842Y010235D01*
X008750Y010077D02*
X007343Y010077D01*
X007343Y009918D02*
X008706Y009918D01*
X008674Y009760D02*
X007343Y009760D01*
X007343Y009601D02*
X008674Y009601D01*
X008695Y009442D02*
X007343Y009442D01*
X007343Y009284D02*
X008737Y009284D01*
X008817Y009125D02*
X007343Y009125D01*
X007343Y008967D02*
X008923Y008967D01*
X009081Y008808D02*
X007343Y008808D01*
X007343Y008650D02*
X009373Y008650D01*
X009369Y008333D02*
X008317Y008333D01*
X008354Y008174D02*
X009333Y008174D01*
X009333Y008016D02*
X008354Y008016D01*
X008354Y007699D02*
X009333Y007699D01*
X009333Y007857D02*
X007819Y007857D01*
X007819Y007699D02*
X007703Y007699D01*
X007703Y007540D02*
X007819Y007540D01*
X007819Y007381D02*
X007703Y007381D01*
X007703Y007223D02*
X007819Y007223D01*
X008229Y007223D02*
X009430Y007223D01*
X009333Y007381D02*
X008354Y007381D01*
X008354Y007540D02*
X009333Y007540D01*
X009246Y006906D02*
X007343Y006906D01*
X007343Y006747D02*
X009021Y006747D01*
X008873Y006589D02*
X007343Y006589D01*
X007343Y006430D02*
X008782Y006430D01*
X008721Y006272D02*
X007343Y006272D01*
X007343Y006113D02*
X008678Y006113D01*
X008674Y005955D02*
X007343Y005955D01*
X007343Y005796D02*
X008680Y005796D01*
X008722Y005637D02*
X007343Y005637D01*
X007343Y005479D02*
X008785Y005479D01*
X008877Y005320D02*
X007343Y005320D01*
X007343Y005162D02*
X009027Y005162D01*
X009257Y005003D02*
X007343Y005003D01*
X007343Y004845D02*
X007943Y004845D01*
X007659Y004686D02*
X007343Y004686D01*
X007343Y004528D02*
X007500Y004528D01*
X007392Y004369D02*
X007343Y004369D01*
X008744Y004845D02*
X015541Y004845D01*
X015699Y005003D02*
X010233Y005003D01*
X010463Y005162D02*
X015858Y005162D01*
X016016Y005320D02*
X010613Y005320D01*
X010705Y005479D02*
X016103Y005479D01*
X016103Y005637D02*
X010768Y005637D01*
X010810Y005796D02*
X016103Y005796D01*
X016103Y005955D02*
X010816Y005955D01*
X010812Y006113D02*
X016103Y006113D01*
X016103Y006272D02*
X010769Y006272D01*
X010708Y006430D02*
X016103Y006430D01*
X016103Y006589D02*
X010617Y006589D01*
X010469Y006747D02*
X016103Y006747D01*
X016103Y007223D02*
X014237Y007223D01*
X014311Y007381D02*
X016103Y007381D01*
X016103Y007540D02*
X014323Y007540D01*
X014323Y007699D02*
X016147Y007699D01*
X016305Y007857D02*
X014323Y007857D01*
X014323Y008016D02*
X016464Y008016D01*
X016622Y008174D02*
X014323Y008174D01*
X014270Y008333D02*
X016781Y008333D01*
X016939Y008491D02*
X014139Y008491D01*
X013548Y008491D02*
X012139Y008491D01*
X012270Y008333D02*
X013417Y008333D01*
X013363Y008174D02*
X012323Y008174D01*
X012323Y008016D02*
X013363Y008016D01*
X013363Y007857D02*
X012323Y007857D01*
X012323Y007699D02*
X013363Y007699D01*
X013363Y007540D02*
X012323Y007540D01*
X012311Y007381D02*
X013376Y007381D01*
X013450Y007223D02*
X012237Y007223D01*
X011548Y008491D02*
X007343Y008491D01*
X007703Y008333D02*
X007819Y008333D01*
X007819Y008174D02*
X007703Y008174D01*
X007703Y008016D02*
X007819Y008016D01*
X009028Y004686D02*
X015382Y004686D01*
X015224Y004528D02*
X009186Y004528D01*
X009295Y004369D02*
X015109Y004369D01*
X015103Y004211D02*
X009380Y004211D01*
X009422Y004052D02*
X015103Y004052D01*
X014947Y003893D02*
X014732Y003893D01*
X014740Y003735D02*
X014947Y003735D01*
X014947Y003576D02*
X014740Y003576D01*
X014739Y003418D02*
X014947Y003418D01*
X014961Y003259D02*
X014725Y003259D01*
X014362Y003735D02*
X014325Y003735D01*
X014325Y003893D02*
X014362Y003893D01*
X013955Y003893D02*
X009448Y003893D01*
X009448Y003735D02*
X013947Y003735D01*
X013947Y003576D02*
X009425Y003576D01*
X009383Y003418D02*
X013948Y003418D01*
X013961Y003259D02*
X009303Y003259D01*
X009199Y003101D02*
X013947Y003101D01*
X013947Y002942D02*
X009040Y002942D01*
X018678Y004308D02*
X019029Y003958D01*
X021343Y003958D01*
X027843Y003958D01*
X034343Y003958D01*
X036658Y003958D01*
X037009Y004308D01*
X037027Y004289D02*
X037027Y003931D01*
X037249Y003931D01*
X037295Y003943D01*
X037336Y003967D01*
X037343Y003975D01*
X037387Y003931D01*
X037969Y003931D01*
X038075Y004037D01*
X038075Y004579D01*
X037969Y004685D01*
X037918Y004685D01*
X037918Y005463D01*
X038011Y005463D01*
X038322Y005592D01*
X038559Y005830D01*
X038688Y006140D01*
X038688Y006476D01*
X038559Y006786D01*
X038322Y007024D01*
X038011Y007153D01*
X037675Y007153D01*
X037365Y007024D01*
X037127Y006786D01*
X036999Y006476D01*
X036999Y006140D01*
X037127Y005830D01*
X037365Y005592D01*
X037438Y005562D01*
X037438Y004685D01*
X037387Y004685D01*
X037343Y004641D01*
X037336Y004649D01*
X037295Y004673D01*
X037249Y004685D01*
X037027Y004685D01*
X037027Y004327D01*
X036990Y004327D01*
X036990Y004685D01*
X036769Y004685D01*
X036723Y004673D01*
X036682Y004649D01*
X036648Y004615D01*
X036625Y004574D01*
X036612Y004529D01*
X036612Y004326D01*
X036990Y004326D01*
X036990Y004290D01*
X036612Y004290D01*
X036612Y004087D01*
X036625Y004042D01*
X036648Y004001D01*
X036682Y003967D01*
X036723Y003943D01*
X036769Y003931D01*
X036990Y003931D01*
X036990Y004289D01*
X037027Y004289D01*
X037027Y004211D02*
X036990Y004211D01*
X036990Y004369D02*
X037027Y004369D01*
X037027Y004528D02*
X036990Y004528D01*
X036612Y004528D02*
X035192Y004528D01*
X035178Y004550D02*
X035106Y004640D01*
X035025Y004721D01*
X034936Y004792D01*
X034838Y004853D01*
X034735Y004903D01*
X034627Y004941D01*
X034515Y004966D01*
X034423Y004977D01*
X034423Y004038D01*
X034263Y004038D01*
X034263Y003878D01*
X033324Y003878D01*
X033335Y003786D01*
X033360Y003674D01*
X033398Y003566D01*
X033448Y003463D01*
X033509Y003365D01*
X033580Y003276D01*
X033662Y003195D01*
X033751Y003123D01*
X033848Y003062D01*
X033952Y003012D01*
X034060Y002974D01*
X034172Y002949D01*
X034263Y002938D01*
X034263Y003877D01*
X034423Y003877D01*
X034423Y002938D01*
X034515Y002949D01*
X034627Y002974D01*
X034735Y003012D01*
X034838Y003062D01*
X034936Y003123D01*
X035025Y003195D01*
X035106Y003276D01*
X035178Y003365D01*
X035239Y003463D01*
X035289Y003566D01*
X035327Y003674D01*
X035352Y003786D01*
X035363Y003878D01*
X034424Y003878D01*
X034424Y004038D01*
X035363Y004038D01*
X035352Y004129D01*
X035327Y004241D01*
X035289Y004349D01*
X035239Y004453D01*
X035178Y004550D01*
X035060Y004686D02*
X037438Y004686D01*
X037438Y004845D02*
X034852Y004845D01*
X034423Y004845D02*
X034263Y004845D01*
X034263Y004977D02*
X034172Y004966D01*
X034060Y004941D01*
X033952Y004903D01*
X033848Y004853D01*
X033751Y004792D01*
X033662Y004721D01*
X033580Y004640D01*
X033509Y004550D01*
X033448Y004453D01*
X033398Y004349D01*
X033360Y004241D01*
X033335Y004129D01*
X033324Y004038D01*
X034263Y004038D01*
X034263Y004977D01*
X034263Y004686D02*
X034423Y004686D01*
X034423Y004528D02*
X034263Y004528D01*
X034263Y004369D02*
X034423Y004369D01*
X034423Y004211D02*
X034263Y004211D01*
X034263Y004052D02*
X034423Y004052D01*
X034424Y003893D02*
X040238Y003893D01*
X040238Y003954D02*
X040238Y003663D01*
X040314Y003381D01*
X040459Y003130D01*
X040665Y002924D01*
X040866Y002808D01*
X018843Y002808D01*
X018843Y003931D01*
X018918Y003931D01*
X018964Y003943D01*
X019005Y003967D01*
X019039Y004001D01*
X019062Y004042D01*
X019075Y004087D01*
X019075Y004290D01*
X018843Y004290D01*
X018843Y004326D01*
X019075Y004326D01*
X019075Y004529D01*
X019062Y004574D01*
X019039Y004615D01*
X019005Y004649D01*
X018964Y004673D01*
X018918Y004685D01*
X018843Y004685D01*
X018843Y015931D01*
X018918Y015931D01*
X018964Y015943D01*
X019005Y015967D01*
X019039Y016001D01*
X019062Y016042D01*
X019075Y016087D01*
X019075Y016290D01*
X018843Y016290D01*
X018843Y016326D01*
X019075Y016326D01*
X019075Y016529D01*
X019062Y016574D01*
X019039Y016615D01*
X019005Y016649D01*
X018964Y016673D01*
X018918Y016685D01*
X018843Y016685D01*
X018843Y019431D01*
X021263Y019431D01*
X021263Y019378D02*
X020324Y019378D01*
X020335Y019286D01*
X020360Y019174D01*
X020398Y019066D01*
X020448Y018963D01*
X020509Y018865D01*
X020580Y018776D01*
X020662Y018695D01*
X020751Y018623D01*
X020848Y018562D01*
X020952Y018512D01*
X021060Y018474D01*
X021172Y018449D01*
X021263Y018438D01*
X021263Y019377D01*
X021423Y019377D01*
X021423Y018438D01*
X021515Y018449D01*
X021627Y018474D01*
X021735Y018512D01*
X021838Y018562D01*
X021936Y018623D01*
X022025Y018695D01*
X022106Y018776D01*
X022178Y018865D01*
X022239Y018963D01*
X022289Y019066D01*
X022327Y019174D01*
X022352Y019286D01*
X022363Y019378D01*
X021424Y019378D01*
X021424Y019538D01*
X022363Y019538D01*
X022352Y019629D01*
X022327Y019741D01*
X022289Y019849D01*
X022239Y019953D01*
X022178Y020050D01*
X022106Y020140D01*
X022025Y020221D01*
X021936Y020292D01*
X021838Y020353D01*
X021735Y020403D01*
X021627Y020441D01*
X021515Y020466D01*
X021423Y020477D01*
X021423Y019538D01*
X021263Y019538D01*
X021263Y019378D01*
X021263Y019272D02*
X021423Y019272D01*
X021423Y019114D02*
X021263Y019114D01*
X021263Y018955D02*
X021423Y018955D01*
X021423Y018797D02*
X021263Y018797D01*
X021263Y018638D02*
X021423Y018638D01*
X021423Y018479D02*
X021263Y018479D01*
X021045Y018479D02*
X018843Y018479D01*
X018843Y018321D02*
X039163Y018321D01*
X039163Y018173D02*
X039267Y017923D01*
X039458Y017732D01*
X039708Y017628D01*
X039915Y017628D01*
X040206Y017337D01*
X040364Y017272D01*
X040535Y017272D01*
X041082Y017272D01*
X040973Y017162D01*
X040906Y017001D01*
X040906Y016827D01*
X040973Y016666D01*
X041096Y016543D01*
X041256Y016477D01*
X041430Y016477D01*
X041591Y016543D01*
X041714Y016666D01*
X041781Y016827D01*
X041781Y017001D01*
X041714Y017162D01*
X041591Y017285D01*
X041536Y017308D01*
X041591Y017331D01*
X041714Y017454D01*
X041781Y017615D01*
X041781Y017789D01*
X041714Y017950D01*
X041591Y018073D01*
X041430Y018139D01*
X041256Y018139D01*
X041238Y018132D01*
X040628Y018132D01*
X040523Y018236D01*
X040523Y021272D01*
X041082Y021272D01*
X040973Y021162D01*
X040906Y021001D01*
X040906Y020827D01*
X040973Y020666D01*
X041096Y020543D01*
X041256Y020477D01*
X041430Y020477D01*
X041591Y020543D01*
X041714Y020666D01*
X041781Y020827D01*
X041781Y021001D01*
X041714Y021162D01*
X041591Y021285D01*
X041536Y021308D01*
X041591Y021331D01*
X041714Y021454D01*
X041781Y021615D01*
X041781Y021789D01*
X041714Y021950D01*
X041591Y022073D01*
X041430Y022139D01*
X041256Y022139D01*
X041238Y022132D01*
X040523Y022132D01*
X040523Y025173D01*
X040523Y025272D01*
X041082Y025272D01*
X040973Y025162D01*
X040906Y025001D01*
X040906Y024827D01*
X040973Y024666D01*
X041096Y024543D01*
X041256Y024477D01*
X041430Y024477D01*
X041591Y024543D01*
X041714Y024666D01*
X041781Y024827D01*
X041781Y025001D01*
X041714Y025162D01*
X041591Y025285D01*
X041536Y025308D01*
X041591Y025331D01*
X041714Y025454D01*
X041781Y025615D01*
X041781Y025789D01*
X041714Y025950D01*
X041591Y026073D01*
X041430Y026139D01*
X041256Y026139D01*
X041238Y026132D01*
X040523Y026132D01*
X040523Y028673D01*
X040523Y029272D01*
X041082Y029272D01*
X040973Y029162D01*
X040906Y029001D01*
X040906Y028827D01*
X040973Y028666D01*
X041096Y028543D01*
X041256Y028477D01*
X041430Y028477D01*
X041591Y028543D01*
X041714Y028666D01*
X041781Y028827D01*
X041781Y029001D01*
X041714Y029162D01*
X041591Y029285D01*
X041536Y029308D01*
X041591Y029331D01*
X041714Y029454D01*
X041781Y029615D01*
X041781Y029789D01*
X041714Y029950D01*
X041591Y030073D01*
X041430Y030139D01*
X041256Y030139D01*
X041238Y030132D01*
X040445Y030132D01*
X040420Y030193D01*
X040229Y030384D01*
X039979Y030488D01*
X039708Y030488D01*
X038358Y030488D01*
X038322Y030524D01*
X038011Y030653D01*
X037918Y030653D01*
X037918Y031431D01*
X037969Y031431D01*
X038075Y031537D01*
X038075Y032079D01*
X037969Y032185D01*
X037387Y032185D01*
X037343Y032141D01*
X037336Y032149D01*
X037295Y032173D01*
X037249Y032185D01*
X037027Y032185D01*
X037027Y031827D01*
X036990Y031827D01*
X036990Y032185D01*
X036769Y032185D01*
X036723Y032173D01*
X036682Y032149D01*
X036648Y032115D01*
X036625Y032074D01*
X036612Y032029D01*
X036612Y031826D01*
X036990Y031826D01*
X036990Y031790D01*
X036612Y031790D01*
X036612Y031587D01*
X036625Y031542D01*
X036648Y031501D01*
X036682Y031467D01*
X036723Y031443D01*
X036769Y031431D01*
X036990Y031431D01*
X036990Y031789D01*
X037027Y031789D01*
X037027Y031431D01*
X037249Y031431D01*
X037295Y031443D01*
X037336Y031467D01*
X037343Y031475D01*
X037387Y031431D01*
X037438Y031431D01*
X037438Y030554D01*
X037365Y030524D01*
X037127Y030286D01*
X036999Y029976D01*
X036999Y029640D01*
X037127Y029330D01*
X037365Y029092D01*
X037675Y028963D01*
X038011Y028963D01*
X038322Y029092D01*
X038358Y029128D01*
X039163Y029128D01*
X039163Y028673D01*
X039163Y025173D01*
X039163Y021673D01*
X039163Y018173D01*
X039168Y018162D02*
X018843Y018162D01*
X018843Y018004D02*
X039233Y018004D01*
X039345Y017845D02*
X018843Y017845D01*
X018843Y017687D02*
X039566Y017687D01*
X040015Y017528D02*
X034880Y017528D01*
X034838Y017554D02*
X034936Y017493D01*
X035025Y017421D01*
X035106Y017340D01*
X035178Y017251D01*
X035239Y017153D01*
X035289Y017050D01*
X035327Y016942D01*
X035352Y016830D01*
X035363Y016738D01*
X034424Y016738D01*
X034424Y016578D01*
X035363Y016578D01*
X035352Y016487D01*
X035327Y016375D01*
X035289Y016267D01*
X035239Y016163D01*
X035178Y016066D01*
X035106Y015976D01*
X035025Y015895D01*
X034936Y015824D01*
X034838Y015763D01*
X034735Y015713D01*
X034627Y015675D01*
X034515Y015650D01*
X034423Y015639D01*
X034423Y016578D01*
X034263Y016578D01*
X034263Y015639D01*
X034172Y015650D01*
X034060Y015675D01*
X033952Y015713D01*
X033848Y015763D01*
X033751Y015824D01*
X033662Y015895D01*
X033580Y015976D01*
X033509Y016066D01*
X033448Y016163D01*
X033398Y016267D01*
X033360Y016375D01*
X033335Y016487D01*
X033324Y016578D01*
X034263Y016578D01*
X034263Y016738D01*
X033324Y016738D01*
X033335Y016830D01*
X033360Y016942D01*
X033398Y017050D01*
X033448Y017153D01*
X033509Y017251D01*
X033580Y017340D01*
X033662Y017421D01*
X033751Y017493D01*
X033848Y017554D01*
X033952Y017604D01*
X034060Y017642D01*
X034172Y017667D01*
X034263Y017678D01*
X034263Y016739D01*
X034423Y016739D01*
X034423Y017678D01*
X034515Y017667D01*
X034627Y017642D01*
X034735Y017604D01*
X034838Y017554D01*
X035077Y017370D02*
X040174Y017370D01*
X040927Y017053D02*
X035288Y017053D01*
X035338Y016894D02*
X040906Y016894D01*
X040944Y016735D02*
X034424Y016735D01*
X034343Y016658D02*
X036658Y016658D01*
X037009Y016308D01*
X037027Y016289D02*
X037027Y015931D01*
X037249Y015931D01*
X037295Y015943D01*
X037336Y015967D01*
X037343Y015975D01*
X037387Y015931D01*
X037438Y015931D01*
X037438Y015054D01*
X037365Y015024D01*
X037127Y014786D01*
X036999Y014476D01*
X036999Y014140D01*
X037098Y013902D01*
X036376Y013180D01*
X036340Y013092D01*
X036340Y012996D01*
X036340Y012949D01*
X036289Y012949D01*
X036183Y012843D01*
X036183Y012300D01*
X036246Y012237D01*
X036183Y012174D01*
X036183Y011631D01*
X036289Y011526D01*
X036340Y011526D01*
X036340Y011524D01*
X036376Y011436D01*
X037098Y010714D01*
X036999Y010476D01*
X036999Y010140D01*
X037127Y009830D01*
X037365Y009592D01*
X037675Y009463D01*
X038011Y009463D01*
X038322Y009592D01*
X038559Y009830D01*
X038688Y010140D01*
X038688Y010476D01*
X038559Y010786D01*
X038322Y011024D01*
X038011Y011153D01*
X037675Y011153D01*
X037437Y011054D01*
X036918Y011573D01*
X036976Y011631D01*
X036976Y012174D01*
X036913Y012237D01*
X036976Y012300D01*
X036976Y012843D01*
X036871Y012949D01*
X036823Y012949D01*
X037437Y013562D01*
X037675Y013463D01*
X038011Y013463D01*
X038322Y013592D01*
X038559Y013830D01*
X038688Y014140D01*
X038688Y014476D01*
X038559Y014786D01*
X038322Y015024D01*
X038011Y015153D01*
X037918Y015153D01*
X037918Y015931D01*
X037969Y015931D01*
X038075Y016037D01*
X038075Y016579D01*
X037969Y016685D01*
X037387Y016685D01*
X037343Y016641D01*
X037336Y016649D01*
X037295Y016673D01*
X037249Y016685D01*
X037027Y016685D01*
X037027Y016327D01*
X036990Y016327D01*
X036990Y016685D01*
X036769Y016685D01*
X036723Y016673D01*
X036682Y016649D01*
X036648Y016615D01*
X036625Y016574D01*
X036612Y016529D01*
X036612Y016326D01*
X036990Y016326D01*
X036990Y016290D01*
X036612Y016290D01*
X036612Y016087D01*
X036625Y016042D01*
X036648Y016001D01*
X036682Y015967D01*
X036723Y015943D01*
X036769Y015931D01*
X036990Y015931D01*
X036990Y016289D01*
X037027Y016289D01*
X037027Y016260D02*
X036990Y016260D01*
X036990Y016418D02*
X037027Y016418D01*
X037027Y016577D02*
X036990Y016577D01*
X036626Y016577D02*
X035362Y016577D01*
X035337Y016418D02*
X036612Y016418D01*
X036612Y016260D02*
X035286Y016260D01*
X035200Y016101D02*
X036612Y016101D01*
X036725Y015943D02*
X035073Y015943D01*
X034873Y015784D02*
X037438Y015784D01*
X037438Y015626D02*
X018843Y015626D01*
X018843Y015784D02*
X020814Y015784D01*
X020848Y015763D02*
X020751Y015824D01*
X020662Y015895D01*
X020580Y015976D01*
X020509Y016066D01*
X020448Y016163D01*
X020398Y016267D01*
X020360Y016375D01*
X020335Y016487D01*
X020324Y016578D01*
X021263Y016578D01*
X021423Y016578D01*
X021423Y015639D01*
X021515Y015650D01*
X021627Y015675D01*
X021735Y015713D01*
X021838Y015763D01*
X021936Y015824D01*
X022025Y015895D01*
X022106Y015976D01*
X022178Y016066D01*
X022239Y016163D01*
X022289Y016267D01*
X022327Y016375D01*
X022352Y016487D01*
X022363Y016578D01*
X021424Y016578D01*
X021424Y016738D01*
X022363Y016738D01*
X022352Y016830D01*
X022327Y016942D01*
X022289Y017050D01*
X022239Y017153D01*
X022178Y017251D01*
X022106Y017340D01*
X022025Y017421D01*
X021936Y017493D01*
X021838Y017554D01*
X021735Y017604D01*
X021627Y017642D01*
X021515Y017667D01*
X021423Y017678D01*
X021423Y016739D01*
X021263Y016739D01*
X021263Y017678D01*
X021172Y017667D01*
X021060Y017642D01*
X020952Y017604D01*
X020848Y017554D01*
X020751Y017493D01*
X020662Y017421D01*
X020580Y017340D01*
X020509Y017251D01*
X020448Y017153D01*
X020398Y017050D01*
X020360Y016942D01*
X020335Y016830D01*
X020324Y016738D01*
X021263Y016738D01*
X021263Y016578D01*
X021263Y015639D01*
X021172Y015650D01*
X021060Y015675D01*
X020952Y015713D01*
X020848Y015763D01*
X020614Y015943D02*
X018961Y015943D01*
X019075Y016101D02*
X020487Y016101D01*
X020401Y016260D02*
X019075Y016260D01*
X019075Y016418D02*
X020350Y016418D01*
X020324Y016577D02*
X019061Y016577D01*
X019029Y016658D02*
X018678Y016308D01*
X018843Y016735D02*
X021263Y016735D01*
X021343Y016658D02*
X019029Y016658D01*
X018843Y016894D02*
X020349Y016894D01*
X020399Y017053D02*
X018843Y017053D01*
X018843Y017211D02*
X020484Y017211D01*
X020610Y017370D02*
X018843Y017370D01*
X018843Y017528D02*
X020807Y017528D01*
X021263Y017528D02*
X021423Y017528D01*
X021423Y017370D02*
X021263Y017370D01*
X021263Y017211D02*
X021423Y017211D01*
X021423Y017053D02*
X021263Y017053D01*
X021263Y016894D02*
X021423Y016894D01*
X021424Y016735D02*
X027763Y016735D01*
X027763Y016738D02*
X027763Y016578D01*
X027923Y016578D01*
X027923Y015639D01*
X028015Y015650D01*
X028127Y015675D01*
X028235Y015713D01*
X028338Y015763D01*
X028436Y015824D01*
X028525Y015895D01*
X028606Y015976D01*
X028678Y016066D01*
X028739Y016163D01*
X028789Y016267D01*
X028827Y016375D01*
X028852Y016487D01*
X028863Y016578D01*
X027924Y016578D01*
X027924Y016738D01*
X028863Y016738D01*
X028852Y016830D01*
X028827Y016942D01*
X028789Y017050D01*
X028739Y017153D01*
X028678Y017251D01*
X028606Y017340D01*
X028525Y017421D01*
X028436Y017493D01*
X028338Y017554D01*
X028235Y017604D01*
X028127Y017642D01*
X028015Y017667D01*
X027923Y017678D01*
X027923Y016739D01*
X027763Y016739D01*
X027763Y017678D01*
X027672Y017667D01*
X027560Y017642D01*
X027452Y017604D01*
X027348Y017554D01*
X027251Y017493D01*
X027162Y017421D01*
X027080Y017340D01*
X027009Y017251D01*
X026948Y017153D01*
X026898Y017050D01*
X026860Y016942D01*
X026835Y016830D01*
X026824Y016738D01*
X027763Y016738D01*
X027843Y016658D02*
X034343Y016658D01*
X034263Y016735D02*
X027924Y016735D01*
X027843Y016658D02*
X021343Y016658D01*
X021263Y016577D02*
X021423Y016577D01*
X021423Y016418D02*
X021263Y016418D01*
X021263Y016260D02*
X021423Y016260D01*
X021423Y016101D02*
X021263Y016101D01*
X021263Y015943D02*
X021423Y015943D01*
X021423Y015784D02*
X021263Y015784D01*
X021873Y015784D02*
X027314Y015784D01*
X027348Y015763D02*
X027452Y015713D01*
X027560Y015675D01*
X027672Y015650D01*
X027763Y015639D01*
X027763Y016578D01*
X026824Y016578D01*
X026835Y016487D01*
X026860Y016375D01*
X026898Y016267D01*
X026948Y016163D01*
X027009Y016066D01*
X027080Y015976D01*
X027162Y015895D01*
X027251Y015824D01*
X027348Y015763D01*
X027114Y015943D02*
X022073Y015943D01*
X022200Y016101D02*
X026987Y016101D01*
X026901Y016260D02*
X022286Y016260D01*
X022337Y016418D02*
X026850Y016418D01*
X026824Y016577D02*
X022362Y016577D01*
X022338Y016894D02*
X026849Y016894D01*
X026899Y017053D02*
X022288Y017053D01*
X022203Y017211D02*
X026984Y017211D01*
X027110Y017370D02*
X022077Y017370D01*
X021880Y017528D02*
X027307Y017528D01*
X027763Y017528D02*
X027923Y017528D01*
X027923Y017370D02*
X027763Y017370D01*
X027763Y017211D02*
X027923Y017211D01*
X027923Y017053D02*
X027763Y017053D01*
X027763Y016894D02*
X027923Y016894D01*
X027923Y016577D02*
X027763Y016577D01*
X027763Y016418D02*
X027923Y016418D01*
X027923Y016260D02*
X027763Y016260D01*
X027763Y016101D02*
X027923Y016101D01*
X027923Y015943D02*
X027763Y015943D01*
X027763Y015784D02*
X027923Y015784D01*
X028373Y015784D02*
X033814Y015784D01*
X033614Y015943D02*
X028573Y015943D01*
X028700Y016101D02*
X033487Y016101D01*
X033401Y016260D02*
X028786Y016260D01*
X028837Y016418D02*
X033350Y016418D01*
X033324Y016577D02*
X028862Y016577D01*
X028838Y016894D02*
X033349Y016894D01*
X033399Y017053D02*
X028788Y017053D01*
X028703Y017211D02*
X033484Y017211D01*
X033610Y017370D02*
X028577Y017370D01*
X028380Y017528D02*
X033807Y017528D01*
X034263Y017528D02*
X034423Y017528D01*
X034423Y017370D02*
X034263Y017370D01*
X034263Y017211D02*
X034423Y017211D01*
X034423Y017053D02*
X034263Y017053D01*
X034263Y016894D02*
X034423Y016894D01*
X034423Y016577D02*
X034263Y016577D01*
X034263Y016418D02*
X034423Y016418D01*
X034423Y016260D02*
X034263Y016260D01*
X034263Y016101D02*
X034423Y016101D01*
X034423Y015943D02*
X034263Y015943D01*
X034263Y015784D02*
X034423Y015784D01*
X035203Y017211D02*
X041022Y017211D01*
X041630Y017370D02*
X042343Y017370D01*
X042343Y017528D02*
X041745Y017528D01*
X041781Y017687D02*
X042343Y017687D01*
X042343Y017845D02*
X041758Y017845D01*
X041660Y018004D02*
X042343Y018004D01*
X042343Y018162D02*
X040597Y018162D01*
X040523Y018321D02*
X042343Y018321D01*
X042343Y018479D02*
X040523Y018479D01*
X040523Y018638D02*
X042343Y018638D01*
X042343Y018797D02*
X040523Y018797D01*
X040523Y018955D02*
X042343Y018955D01*
X042343Y019114D02*
X040523Y019114D01*
X040523Y019272D02*
X042343Y019272D01*
X042343Y019431D02*
X040523Y019431D01*
X040523Y019589D02*
X042343Y019589D01*
X042343Y019748D02*
X040523Y019748D01*
X040523Y019906D02*
X042343Y019906D01*
X042343Y020065D02*
X040523Y020065D01*
X040523Y020223D02*
X042343Y020223D01*
X042343Y020382D02*
X040523Y020382D01*
X040523Y020541D02*
X041103Y020541D01*
X040959Y020699D02*
X040523Y020699D01*
X040523Y020858D02*
X040906Y020858D01*
X040912Y021016D02*
X040523Y021016D01*
X040523Y021175D02*
X040985Y021175D01*
X041594Y021333D02*
X042343Y021333D01*
X042343Y021175D02*
X041702Y021175D01*
X041775Y021016D02*
X042343Y021016D01*
X042343Y020858D02*
X041781Y020858D01*
X041728Y020699D02*
X042343Y020699D01*
X042343Y020541D02*
X041584Y020541D01*
X041730Y021492D02*
X042343Y021492D01*
X042343Y021650D02*
X041781Y021650D01*
X041773Y021809D02*
X042343Y021809D01*
X042343Y021967D02*
X041696Y021967D01*
X041462Y022126D02*
X042343Y022126D01*
X042343Y022284D02*
X040523Y022284D01*
X040523Y022443D02*
X042343Y022443D01*
X042343Y022602D02*
X040523Y022602D01*
X040523Y022760D02*
X042343Y022760D01*
X042343Y022919D02*
X040523Y022919D01*
X040523Y023077D02*
X042343Y023077D01*
X042343Y023236D02*
X040523Y023236D01*
X040523Y023394D02*
X042343Y023394D01*
X042343Y023553D02*
X040523Y023553D01*
X040523Y023711D02*
X042343Y023711D01*
X042343Y023870D02*
X040523Y023870D01*
X040523Y024028D02*
X042343Y024028D01*
X042343Y024187D02*
X040523Y024187D01*
X040523Y024346D02*
X042343Y024346D01*
X042343Y024504D02*
X041496Y024504D01*
X041710Y024663D02*
X042343Y024663D01*
X042343Y024821D02*
X041778Y024821D01*
X041781Y024980D02*
X042343Y024980D01*
X042343Y025138D02*
X041724Y025138D01*
X041563Y025297D02*
X042343Y025297D01*
X042343Y025455D02*
X041715Y025455D01*
X041781Y025614D02*
X042343Y025614D01*
X042343Y025772D02*
X041781Y025772D01*
X041722Y025931D02*
X042343Y025931D01*
X042343Y026090D02*
X041550Y026090D01*
X042343Y026248D02*
X040523Y026248D01*
X040523Y026407D02*
X042343Y026407D01*
X042343Y026565D02*
X040523Y026565D01*
X040523Y026724D02*
X042343Y026724D01*
X042343Y026882D02*
X040523Y026882D01*
X040523Y027041D02*
X042343Y027041D01*
X042343Y027199D02*
X040523Y027199D01*
X040523Y027358D02*
X042343Y027358D01*
X042343Y027516D02*
X040523Y027516D01*
X040523Y027675D02*
X042343Y027675D01*
X042343Y027834D02*
X040523Y027834D01*
X040523Y027992D02*
X042343Y027992D01*
X042343Y028151D02*
X040523Y028151D01*
X040523Y028309D02*
X042343Y028309D01*
X042343Y028468D02*
X040523Y028468D01*
X040523Y028626D02*
X041013Y028626D01*
X040924Y028785D02*
X040523Y028785D01*
X040523Y028943D02*
X040906Y028943D01*
X040948Y029102D02*
X040523Y029102D01*
X040523Y029260D02*
X041071Y029260D01*
X041616Y029260D02*
X042343Y029260D01*
X042343Y029102D02*
X041739Y029102D01*
X041781Y028943D02*
X042343Y028943D01*
X042343Y028785D02*
X041763Y028785D01*
X041674Y028626D02*
X042343Y028626D01*
X042343Y029419D02*
X041679Y029419D01*
X041765Y029577D02*
X042343Y029577D01*
X042343Y029736D02*
X041781Y029736D01*
X041737Y029895D02*
X042343Y029895D01*
X042343Y030053D02*
X041611Y030053D01*
X042343Y030212D02*
X040401Y030212D01*
X040243Y030370D02*
X042343Y030370D01*
X042343Y030529D02*
X038310Y030529D01*
X037918Y030687D02*
X042343Y030687D01*
X042343Y030846D02*
X037918Y030846D01*
X037918Y031004D02*
X042343Y031004D01*
X042343Y031163D02*
X037918Y031163D01*
X037918Y031321D02*
X042343Y031321D01*
X042343Y031480D02*
X038018Y031480D01*
X038075Y031639D02*
X042343Y031639D01*
X042343Y031797D02*
X041802Y031797D01*
X041770Y031778D02*
X042022Y031924D01*
X042228Y032130D01*
X042343Y032330D01*
X042343Y004286D01*
X042228Y004486D01*
X042022Y004692D01*
X041770Y004838D01*
X041489Y004913D01*
X041198Y004913D01*
X040917Y004838D01*
X040665Y004692D01*
X040459Y004486D01*
X040314Y004235D01*
X040238Y003954D01*
X040265Y004052D02*
X038075Y004052D01*
X038075Y004211D02*
X040307Y004211D01*
X040391Y004369D02*
X038075Y004369D01*
X038075Y004528D02*
X040500Y004528D01*
X040659Y004686D02*
X037918Y004686D01*
X037918Y004845D02*
X040943Y004845D01*
X041744Y004845D02*
X042343Y004845D01*
X042343Y005003D02*
X037918Y005003D01*
X037918Y005162D02*
X042343Y005162D01*
X042343Y005320D02*
X037918Y005320D01*
X038049Y005479D02*
X042343Y005479D01*
X042343Y005637D02*
X038367Y005637D01*
X038526Y005796D02*
X042343Y005796D01*
X042343Y005955D02*
X038611Y005955D01*
X038677Y006113D02*
X042343Y006113D01*
X042343Y006272D02*
X038688Y006272D01*
X038688Y006430D02*
X042343Y006430D01*
X042343Y006589D02*
X038641Y006589D01*
X038576Y006747D02*
X042343Y006747D01*
X042343Y006906D02*
X038440Y006906D01*
X038224Y007064D02*
X042343Y007064D01*
X042343Y007223D02*
X018843Y007223D01*
X018843Y007381D02*
X042343Y007381D01*
X042343Y007540D02*
X018843Y007540D01*
X018843Y007699D02*
X042343Y007699D01*
X042343Y007857D02*
X018843Y007857D01*
X018843Y008016D02*
X042343Y008016D01*
X042343Y008174D02*
X018843Y008174D01*
X018843Y008333D02*
X042343Y008333D01*
X042343Y008491D02*
X018843Y008491D01*
X018843Y008650D02*
X042343Y008650D01*
X042343Y008808D02*
X018843Y008808D01*
X018843Y008967D02*
X042343Y008967D01*
X042343Y009125D02*
X018843Y009125D01*
X018843Y009284D02*
X042343Y009284D01*
X042343Y009442D02*
X018843Y009442D01*
X018843Y009601D02*
X037356Y009601D01*
X037198Y009760D02*
X018843Y009760D01*
X018843Y009918D02*
X037091Y009918D01*
X037025Y010077D02*
X018843Y010077D01*
X018843Y010235D02*
X036999Y010235D01*
X036999Y010394D02*
X018843Y010394D01*
X018843Y010552D02*
X037031Y010552D01*
X037096Y010711D02*
X018843Y010711D01*
X018843Y010869D02*
X036943Y010869D01*
X036784Y011028D02*
X018843Y011028D01*
X018843Y011186D02*
X036626Y011186D01*
X036467Y011345D02*
X018843Y011345D01*
X018843Y011504D02*
X036348Y011504D01*
X036183Y011662D02*
X018843Y011662D01*
X018843Y011821D02*
X036183Y011821D01*
X036183Y011979D02*
X018843Y011979D01*
X018843Y012138D02*
X036183Y012138D01*
X036187Y012296D02*
X018843Y012296D01*
X018843Y012455D02*
X036183Y012455D01*
X036183Y012613D02*
X018843Y012613D01*
X018843Y012772D02*
X036183Y012772D01*
X036270Y012930D02*
X018843Y012930D01*
X018843Y013089D02*
X036340Y013089D01*
X036444Y013248D02*
X018843Y013248D01*
X018843Y013406D02*
X036602Y013406D01*
X036761Y013565D02*
X018843Y013565D01*
X018843Y013723D02*
X036919Y013723D01*
X037078Y013882D02*
X018843Y013882D01*
X018843Y014040D02*
X037040Y014040D01*
X036999Y014199D02*
X018843Y014199D01*
X018843Y014357D02*
X036999Y014357D01*
X037015Y014516D02*
X018843Y014516D01*
X018843Y014674D02*
X037081Y014674D01*
X037174Y014833D02*
X018843Y014833D01*
X018843Y014991D02*
X037333Y014991D01*
X037438Y015150D02*
X018843Y015150D01*
X018843Y015309D02*
X037438Y015309D01*
X037438Y015467D02*
X018843Y015467D01*
X018343Y015467D02*
X012545Y015467D01*
X012526Y015476D02*
X012455Y015499D01*
X012381Y015511D01*
X012362Y015511D01*
X012362Y015053D01*
X012325Y015053D01*
X012325Y015511D01*
X012306Y015511D01*
X012232Y015499D01*
X012160Y015476D01*
X012094Y015442D01*
X012033Y015398D01*
X011980Y015345D01*
X011936Y015284D01*
X011902Y015217D01*
X011878Y015146D01*
X011867Y015072D01*
X011867Y015053D01*
X012325Y015053D01*
X012325Y015016D01*
X011867Y015016D01*
X011867Y014997D01*
X011878Y014923D01*
X011902Y014851D01*
X011936Y014784D01*
X011980Y014724D01*
X012033Y014671D01*
X012094Y014627D01*
X012160Y014592D01*
X012232Y014569D01*
X012306Y014558D01*
X012325Y014558D01*
X012325Y015016D01*
X012362Y015016D01*
X012362Y015053D01*
X012820Y015053D01*
X012820Y015072D01*
X012809Y015146D01*
X012785Y015217D01*
X012751Y015284D01*
X012707Y015345D01*
X012654Y015398D01*
X012593Y015442D01*
X012526Y015476D01*
X012362Y015467D02*
X012325Y015467D01*
X012325Y015309D02*
X012362Y015309D01*
X012362Y015150D02*
X012325Y015150D01*
X012362Y015016D02*
X012820Y015016D01*
X012820Y014997D01*
X012809Y014923D01*
X012785Y014851D01*
X012751Y014784D01*
X012707Y014724D01*
X012654Y014671D01*
X012593Y014627D01*
X012526Y014592D01*
X012455Y014569D01*
X012381Y014558D01*
X012362Y014558D01*
X012362Y015016D01*
X012362Y014991D02*
X012325Y014991D01*
X012325Y014833D02*
X012362Y014833D01*
X012362Y014674D02*
X012325Y014674D01*
X012029Y014674D02*
X007343Y014674D01*
X007343Y014516D02*
X017019Y014516D01*
X017075Y014674D02*
X012658Y014674D01*
X012776Y014833D02*
X017174Y014833D01*
X017337Y014991D02*
X012819Y014991D01*
X012807Y015150D02*
X017724Y015150D01*
X017763Y015150D02*
X017923Y015150D01*
X017963Y015150D02*
X018343Y015150D01*
X018343Y015309D02*
X012734Y015309D01*
X012142Y015467D02*
X007343Y015467D01*
X007343Y015309D02*
X011953Y015309D01*
X011880Y015150D02*
X007343Y015150D01*
X007343Y014991D02*
X011867Y014991D01*
X011911Y014833D02*
X007343Y014833D01*
X007343Y014357D02*
X017763Y014357D01*
X017763Y014199D02*
X017923Y014199D01*
X017923Y014040D02*
X017763Y014040D01*
X017763Y013882D02*
X017923Y013882D01*
X017923Y013723D02*
X017763Y013723D01*
X017763Y013565D02*
X017923Y013565D01*
X018257Y013565D02*
X018343Y013565D01*
X018343Y013406D02*
X007343Y013406D01*
X007343Y013248D02*
X018343Y013248D01*
X018343Y013089D02*
X007343Y013089D01*
X007343Y012930D02*
X018343Y012930D01*
X018343Y012772D02*
X007343Y012772D01*
X007343Y013565D02*
X017430Y013565D01*
X017226Y013723D02*
X007343Y013723D01*
X007343Y013882D02*
X017108Y013882D01*
X017035Y014040D02*
X007343Y014040D01*
X007343Y014199D02*
X017000Y014199D01*
X017763Y014516D02*
X017923Y014516D01*
X017923Y014674D02*
X017763Y014674D01*
X017763Y014833D02*
X017923Y014833D01*
X017923Y014991D02*
X017763Y014991D01*
X018343Y015626D02*
X007343Y015626D01*
X007343Y015784D02*
X018343Y015784D01*
X018343Y015943D02*
X018292Y015943D01*
X018027Y015943D02*
X017990Y015943D01*
X017990Y016101D02*
X018027Y016101D01*
X018027Y016260D02*
X017990Y016260D01*
X017990Y016418D02*
X018027Y016418D01*
X018027Y016577D02*
X017990Y016577D01*
X017626Y016577D02*
X007343Y016577D01*
X007343Y016735D02*
X018343Y016735D01*
X018343Y016894D02*
X007343Y016894D01*
X007343Y017053D02*
X018343Y017053D01*
X018343Y017211D02*
X008653Y017211D01*
X008591Y017150D02*
X008714Y017273D01*
X008781Y017434D01*
X008781Y017608D01*
X008714Y017768D01*
X008591Y017891D01*
X008536Y017914D01*
X008591Y017937D01*
X008714Y018060D01*
X008781Y018221D01*
X008781Y018395D01*
X008714Y018556D01*
X008591Y018679D01*
X008536Y018702D01*
X008591Y018725D01*
X008714Y018848D01*
X008781Y019008D01*
X008781Y019182D01*
X008714Y019343D01*
X008591Y019466D01*
X008430Y019533D01*
X008256Y019533D01*
X008096Y019466D01*
X007973Y019343D01*
X007906Y019182D01*
X007906Y019008D01*
X007973Y018848D01*
X008096Y018725D01*
X008151Y018702D01*
X008096Y018679D01*
X007973Y018556D01*
X007906Y018395D01*
X007906Y018221D01*
X007973Y018060D01*
X008096Y017937D01*
X008151Y017914D01*
X008096Y017891D01*
X007973Y017768D01*
X007906Y017608D01*
X007906Y017434D01*
X007973Y017273D01*
X008096Y017150D01*
X008256Y017083D01*
X008430Y017083D01*
X008591Y017150D01*
X008754Y017370D02*
X018343Y017370D01*
X018343Y017528D02*
X008781Y017528D01*
X008748Y017687D02*
X018343Y017687D01*
X018343Y017845D02*
X011388Y017845D01*
X011397Y017855D02*
X011296Y017754D01*
X011165Y017700D01*
X011022Y017700D01*
X010890Y017754D01*
X010790Y017855D01*
X010735Y017987D01*
X010735Y018129D01*
X010790Y018261D01*
X010833Y018305D01*
X010833Y018849D01*
X010790Y018892D01*
X010735Y019024D01*
X010735Y019167D01*
X010790Y019298D01*
X010890Y019399D01*
X011022Y019454D01*
X011165Y019454D01*
X011296Y019399D01*
X011397Y019298D01*
X011452Y019167D01*
X011452Y019024D01*
X011397Y018892D01*
X011353Y018849D01*
X011353Y018305D01*
X011397Y018261D01*
X011452Y018129D01*
X011452Y017987D01*
X011397Y017855D01*
X011452Y018004D02*
X018343Y018004D01*
X018343Y018162D02*
X011438Y018162D01*
X011353Y018321D02*
X018343Y018321D01*
X018343Y018479D02*
X011353Y018479D01*
X011353Y018638D02*
X018343Y018638D01*
X018343Y018797D02*
X011353Y018797D01*
X011423Y018955D02*
X018343Y018955D01*
X018343Y019114D02*
X011452Y019114D01*
X011408Y019272D02*
X018343Y019272D01*
X018343Y019431D02*
X011221Y019431D01*
X010966Y019431D02*
X008627Y019431D01*
X008744Y019272D02*
X010779Y019272D01*
X010735Y019114D02*
X008781Y019114D01*
X008759Y018955D02*
X010764Y018955D01*
X010833Y018797D02*
X008663Y018797D01*
X008632Y018638D02*
X010833Y018638D01*
X010833Y018479D02*
X008746Y018479D01*
X008781Y018321D02*
X010833Y018321D01*
X010749Y018162D02*
X008757Y018162D01*
X008658Y018004D02*
X010735Y018004D01*
X010799Y017845D02*
X008637Y017845D01*
X008049Y017845D02*
X007343Y017845D01*
X007343Y017687D02*
X007939Y017687D01*
X007906Y017528D02*
X007343Y017528D01*
X007343Y017370D02*
X007932Y017370D01*
X008034Y017211D02*
X007343Y017211D01*
X007343Y016418D02*
X017612Y016418D01*
X017612Y016260D02*
X007343Y016260D01*
X007343Y016101D02*
X017612Y016101D01*
X017725Y015943D02*
X007343Y015943D01*
X007343Y018004D02*
X008029Y018004D01*
X007930Y018162D02*
X007343Y018162D01*
X007343Y018321D02*
X007906Y018321D01*
X007941Y018479D02*
X007343Y018479D01*
X007343Y018638D02*
X008055Y018638D01*
X008024Y018797D02*
X007343Y018797D01*
X007343Y018955D02*
X007928Y018955D01*
X007906Y019114D02*
X007343Y019114D01*
X007343Y019272D02*
X007943Y019272D01*
X008060Y019431D02*
X007343Y019431D01*
X007343Y019589D02*
X017612Y019589D01*
X017612Y019748D02*
X007343Y019748D01*
X007343Y019906D02*
X017612Y019906D01*
X017612Y020065D02*
X007343Y020065D01*
X007343Y020223D02*
X017769Y020223D01*
X017769Y020382D02*
X007343Y020382D01*
X007343Y020541D02*
X017769Y020541D01*
X017769Y020699D02*
X007343Y020699D01*
X007343Y020858D02*
X017769Y020858D01*
X017533Y021016D02*
X012740Y021016D01*
X011947Y021016D02*
X007343Y021016D01*
X007343Y021175D02*
X011789Y021175D01*
X011710Y021333D02*
X007343Y021333D01*
X007343Y021492D02*
X011663Y021492D01*
X011663Y021650D02*
X007343Y021650D01*
X007343Y021809D02*
X011702Y021809D01*
X011768Y021967D02*
X007343Y021967D01*
X007343Y022126D02*
X011926Y022126D01*
X012085Y022284D02*
X007343Y022284D01*
X007343Y022443D02*
X012326Y022443D01*
X012325Y024058D02*
X012325Y024516D01*
X011867Y024516D01*
X011867Y024497D01*
X011878Y024423D01*
X011902Y024351D01*
X011936Y024284D01*
X011980Y024224D01*
X012033Y024171D01*
X012094Y024127D01*
X012160Y024092D01*
X012232Y024069D01*
X012306Y024058D01*
X012325Y024058D01*
X012362Y024058D02*
X012381Y024058D01*
X012455Y024069D01*
X012526Y024092D01*
X012593Y024127D01*
X012654Y024171D01*
X012707Y024224D01*
X012751Y024284D01*
X012785Y024351D01*
X012809Y024423D01*
X012820Y024497D01*
X012820Y024516D01*
X012362Y024516D01*
X012362Y024553D01*
X012325Y024553D01*
X012325Y025011D01*
X012306Y025011D01*
X012232Y024999D01*
X012160Y024976D01*
X012094Y024942D01*
X012033Y024898D01*
X011980Y024845D01*
X011936Y024784D01*
X011902Y024717D01*
X011878Y024646D01*
X011867Y024572D01*
X011867Y024553D01*
X012325Y024553D01*
X012325Y024516D01*
X012362Y024516D01*
X012362Y024058D01*
X012362Y024187D02*
X012325Y024187D01*
X012325Y024346D02*
X012362Y024346D01*
X012362Y024504D02*
X012325Y024504D01*
X012362Y024553D02*
X012820Y024553D01*
X012820Y024572D01*
X012809Y024646D01*
X012785Y024717D01*
X012751Y024784D01*
X012707Y024845D01*
X012654Y024898D01*
X012593Y024942D01*
X012526Y024976D01*
X012455Y024999D01*
X012381Y025011D01*
X012362Y025011D01*
X012362Y024553D01*
X012362Y024663D02*
X012325Y024663D01*
X012325Y024821D02*
X012362Y024821D01*
X012362Y024980D02*
X012325Y024980D01*
X012171Y024980D02*
X007343Y024980D01*
X007343Y025138D02*
X017223Y025138D01*
X017098Y024980D02*
X012516Y024980D01*
X012725Y024821D02*
X017033Y024821D01*
X016993Y024663D02*
X012803Y024663D01*
X012820Y024504D02*
X016993Y024504D01*
X017010Y024346D02*
X012782Y024346D01*
X012670Y024187D02*
X017076Y024187D01*
X017168Y024028D02*
X007343Y024028D01*
X007343Y023870D02*
X017327Y023870D01*
X017660Y023711D02*
X007343Y023711D01*
X007343Y023553D02*
X018343Y023553D01*
X018343Y023711D02*
X018027Y023711D01*
X018343Y023394D02*
X007343Y023394D01*
X007343Y023236D02*
X018343Y023236D01*
X018343Y023077D02*
X007343Y023077D01*
X007343Y022919D02*
X018343Y022919D01*
X018343Y022760D02*
X007343Y022760D01*
X007343Y022602D02*
X017537Y022602D01*
X018150Y022602D02*
X018343Y022602D01*
X018843Y022602D02*
X037552Y022602D01*
X037675Y022653D02*
X037365Y022524D01*
X037127Y022286D01*
X036999Y021976D01*
X036999Y021640D01*
X037127Y021330D01*
X037365Y021092D01*
X037438Y021062D01*
X037438Y020185D01*
X037387Y020185D01*
X037343Y020141D01*
X037336Y020149D01*
X037295Y020173D01*
X037249Y020185D01*
X037027Y020185D01*
X037027Y019827D01*
X036990Y019827D01*
X036990Y020185D01*
X036769Y020185D01*
X036723Y020173D01*
X036682Y020149D01*
X036648Y020115D01*
X036625Y020074D01*
X036612Y020029D01*
X036612Y019826D01*
X036990Y019826D01*
X036990Y019790D01*
X036612Y019790D01*
X036612Y019587D01*
X036625Y019542D01*
X036648Y019501D01*
X036682Y019467D01*
X036723Y019443D01*
X036769Y019431D01*
X036990Y019431D01*
X036990Y019789D01*
X037027Y019789D01*
X037027Y019431D01*
X037249Y019431D01*
X037295Y019443D01*
X037336Y019467D01*
X037343Y019475D01*
X037387Y019431D01*
X037969Y019431D01*
X038075Y019537D01*
X038075Y020079D01*
X037969Y020185D01*
X037918Y020185D01*
X037918Y020963D01*
X038011Y020963D01*
X038322Y021092D01*
X038559Y021330D01*
X038688Y021640D01*
X038688Y021976D01*
X038559Y022286D01*
X038322Y022524D01*
X038011Y022653D01*
X037675Y022653D01*
X037284Y022443D02*
X018843Y022443D01*
X018843Y022284D02*
X037127Y022284D01*
X037061Y022126D02*
X018843Y022126D01*
X018843Y021967D02*
X036999Y021967D01*
X036999Y021809D02*
X018843Y021809D01*
X018843Y021650D02*
X036999Y021650D01*
X037060Y021492D02*
X018843Y021492D01*
X018843Y021333D02*
X037126Y021333D01*
X037282Y021175D02*
X018843Y021175D01*
X018843Y021016D02*
X037438Y021016D01*
X037438Y020858D02*
X018843Y020858D01*
X018843Y020699D02*
X037438Y020699D01*
X037438Y020541D02*
X018843Y020541D01*
X018843Y020382D02*
X020908Y020382D01*
X020952Y020403D02*
X020848Y020353D01*
X020751Y020292D01*
X020662Y020221D01*
X020580Y020140D01*
X020509Y020050D01*
X020448Y019953D01*
X020398Y019849D01*
X020360Y019741D01*
X020335Y019629D01*
X020324Y019538D01*
X021263Y019538D01*
X021263Y020477D01*
X021172Y020466D01*
X021060Y020441D01*
X020952Y020403D01*
X021263Y020382D02*
X021423Y020382D01*
X021423Y020223D02*
X021263Y020223D01*
X021263Y020065D02*
X021423Y020065D01*
X021423Y019906D02*
X021263Y019906D01*
X021263Y019748D02*
X021423Y019748D01*
X021423Y019589D02*
X021263Y019589D01*
X021343Y019458D02*
X019029Y019458D01*
X018678Y019808D01*
X018843Y019826D02*
X019075Y019826D01*
X019075Y020029D01*
X019062Y020074D01*
X019039Y020115D01*
X019005Y020149D01*
X018964Y020173D01*
X018918Y020185D01*
X018843Y020185D01*
X018843Y031431D01*
X018918Y031431D01*
X018964Y031443D01*
X019005Y031467D01*
X019039Y031501D01*
X019062Y031542D01*
X019075Y031587D01*
X019075Y031790D01*
X018843Y031790D01*
X018843Y031826D01*
X019075Y031826D01*
X019075Y032029D01*
X019062Y032074D01*
X019039Y032115D01*
X019005Y032149D01*
X018964Y032173D01*
X018918Y032185D01*
X018843Y032185D01*
X018843Y033808D01*
X040866Y033808D01*
X040665Y033692D01*
X040459Y033486D01*
X040314Y033235D01*
X040238Y032954D01*
X040238Y032663D01*
X040314Y032381D01*
X040459Y032130D01*
X040665Y031924D01*
X040917Y031778D01*
X041198Y031703D01*
X041489Y031703D01*
X041770Y031778D01*
X042054Y031956D02*
X042343Y031956D01*
X042343Y032114D02*
X042212Y032114D01*
X042310Y032273D02*
X042343Y032273D01*
X040884Y031797D02*
X038075Y031797D01*
X038075Y031956D02*
X040633Y031956D01*
X040475Y032114D02*
X038040Y032114D01*
X037438Y031321D02*
X034932Y031321D01*
X034936Y031324D02*
X035025Y031395D01*
X035106Y031476D01*
X035178Y031566D01*
X035239Y031663D01*
X035289Y031767D01*
X035327Y031875D01*
X035352Y031987D01*
X035363Y032078D01*
X034424Y032078D01*
X034424Y032238D01*
X035363Y032238D01*
X035352Y032330D01*
X035327Y032442D01*
X035289Y032550D01*
X035239Y032653D01*
X035178Y032751D01*
X035106Y032840D01*
X035025Y032921D01*
X034936Y032993D01*
X034838Y033054D01*
X034735Y033104D01*
X034627Y033142D01*
X034515Y033167D01*
X034423Y033178D01*
X034423Y032239D01*
X034263Y032239D01*
X034263Y033178D01*
X034172Y033167D01*
X034060Y033142D01*
X033952Y033104D01*
X033848Y033054D01*
X033751Y032993D01*
X033662Y032921D01*
X033580Y032840D01*
X033509Y032751D01*
X033448Y032653D01*
X033398Y032550D01*
X033360Y032442D01*
X033335Y032330D01*
X033324Y032238D01*
X034263Y032238D01*
X034263Y032078D01*
X034423Y032078D01*
X034423Y031139D01*
X034515Y031150D01*
X034627Y031175D01*
X034735Y031213D01*
X034838Y031263D01*
X034936Y031324D01*
X035109Y031480D02*
X036669Y031480D01*
X036612Y031639D02*
X035223Y031639D01*
X035299Y031797D02*
X036990Y031797D01*
X037009Y031808D02*
X036658Y032158D01*
X034343Y032158D01*
X027843Y032158D01*
X021343Y032158D01*
X019194Y032158D01*
X018843Y031808D01*
X018678Y031808D01*
X018843Y031797D02*
X020387Y031797D01*
X020398Y031767D02*
X020448Y031663D01*
X020509Y031566D01*
X020580Y031476D01*
X020662Y031395D01*
X020751Y031324D01*
X020848Y031263D01*
X020952Y031213D01*
X021060Y031175D01*
X021172Y031150D01*
X021263Y031139D01*
X021263Y032078D01*
X021423Y032078D01*
X021423Y031139D01*
X021515Y031150D01*
X021627Y031175D01*
X021735Y031213D01*
X021838Y031263D01*
X021936Y031324D01*
X022025Y031395D01*
X022106Y031476D01*
X022178Y031566D01*
X022239Y031663D01*
X022289Y031767D01*
X022327Y031875D01*
X022352Y031987D01*
X022363Y032078D01*
X021424Y032078D01*
X021424Y032238D01*
X022363Y032238D01*
X022352Y032330D01*
X022327Y032442D01*
X022289Y032550D01*
X022239Y032653D01*
X022178Y032751D01*
X022106Y032840D01*
X022025Y032921D01*
X021936Y032993D01*
X021838Y033054D01*
X021735Y033104D01*
X021627Y033142D01*
X021515Y033167D01*
X021423Y033178D01*
X021423Y032239D01*
X021263Y032239D01*
X021263Y033178D01*
X021172Y033167D01*
X021060Y033142D01*
X020952Y033104D01*
X020848Y033054D01*
X020751Y032993D01*
X020662Y032921D01*
X020580Y032840D01*
X020509Y032751D01*
X020448Y032653D01*
X020398Y032550D01*
X020360Y032442D01*
X020335Y032330D01*
X020324Y032238D01*
X021263Y032238D01*
X021263Y032078D01*
X020324Y032078D01*
X020335Y031987D01*
X020360Y031875D01*
X020398Y031767D01*
X020463Y031639D02*
X019075Y031639D01*
X019018Y031480D02*
X020578Y031480D01*
X020755Y031321D02*
X018843Y031321D01*
X018843Y031163D02*
X021113Y031163D01*
X021263Y031163D02*
X021423Y031163D01*
X021573Y031163D02*
X027613Y031163D01*
X027560Y031175D02*
X027672Y031150D01*
X027763Y031139D01*
X027763Y032078D01*
X027923Y032078D01*
X027923Y031139D01*
X028015Y031150D01*
X028127Y031175D01*
X028235Y031213D01*
X028338Y031263D01*
X028436Y031324D01*
X028525Y031395D01*
X028606Y031476D01*
X028678Y031566D01*
X028739Y031663D01*
X028789Y031767D01*
X028827Y031875D01*
X028852Y031987D01*
X028863Y032078D01*
X027924Y032078D01*
X027924Y032238D01*
X028863Y032238D01*
X028852Y032330D01*
X028827Y032442D01*
X028789Y032550D01*
X028739Y032653D01*
X028678Y032751D01*
X028606Y032840D01*
X028525Y032921D01*
X028436Y032993D01*
X028338Y033054D01*
X028235Y033104D01*
X028127Y033142D01*
X028015Y033167D01*
X027923Y033178D01*
X027923Y032239D01*
X027763Y032239D01*
X027763Y033178D01*
X027672Y033167D01*
X027560Y033142D01*
X027452Y033104D01*
X027348Y033054D01*
X027251Y032993D01*
X027162Y032921D01*
X027080Y032840D01*
X027009Y032751D01*
X026948Y032653D01*
X026898Y032550D01*
X026860Y032442D01*
X026835Y032330D01*
X026824Y032238D01*
X027763Y032238D01*
X027763Y032078D01*
X026824Y032078D01*
X026835Y031987D01*
X026860Y031875D01*
X026898Y031767D01*
X026948Y031663D01*
X027009Y031566D01*
X027080Y031476D01*
X027162Y031395D01*
X027251Y031324D01*
X027348Y031263D01*
X027452Y031213D01*
X027560Y031175D01*
X027763Y031163D02*
X027923Y031163D01*
X028073Y031163D02*
X034113Y031163D01*
X034060Y031175D02*
X034172Y031150D01*
X034263Y031139D01*
X034263Y032078D01*
X033324Y032078D01*
X033335Y031987D01*
X033360Y031875D01*
X033398Y031767D01*
X033448Y031663D01*
X033509Y031566D01*
X033580Y031476D01*
X033662Y031395D01*
X033751Y031324D01*
X033848Y031263D01*
X033952Y031213D01*
X034060Y031175D01*
X034263Y031163D02*
X034423Y031163D01*
X034573Y031163D02*
X037438Y031163D01*
X037438Y031004D02*
X018843Y031004D01*
X018843Y030846D02*
X037438Y030846D01*
X037438Y030687D02*
X018843Y030687D01*
X018843Y030529D02*
X037377Y030529D01*
X037211Y030370D02*
X018843Y030370D01*
X018843Y030212D02*
X037097Y030212D01*
X037031Y030053D02*
X018843Y030053D01*
X018843Y029895D02*
X036999Y029895D01*
X036999Y029736D02*
X018843Y029736D01*
X018843Y029577D02*
X037025Y029577D01*
X037090Y029419D02*
X018843Y029419D01*
X018843Y029260D02*
X037197Y029260D01*
X037355Y029102D02*
X018843Y029102D01*
X018843Y028943D02*
X039163Y028943D01*
X039163Y028785D02*
X018843Y028785D01*
X018843Y028626D02*
X039163Y028626D01*
X039163Y028468D02*
X018843Y028468D01*
X018843Y028309D02*
X039163Y028309D01*
X039163Y028151D02*
X018843Y028151D01*
X018843Y027992D02*
X039163Y027992D01*
X039163Y027834D02*
X018843Y027834D01*
X018843Y027675D02*
X039163Y027675D01*
X039163Y027516D02*
X018843Y027516D01*
X018843Y027358D02*
X039163Y027358D01*
X039163Y027199D02*
X018843Y027199D01*
X018843Y027041D02*
X039163Y027041D01*
X039163Y026882D02*
X018843Y026882D01*
X018843Y026724D02*
X039163Y026724D01*
X039163Y026565D02*
X038222Y026565D01*
X038322Y026524D02*
X038011Y026653D01*
X037675Y026653D01*
X037365Y026524D01*
X037127Y026286D01*
X036999Y025976D01*
X036999Y025640D01*
X037127Y025330D01*
X037365Y025092D01*
X037675Y024963D01*
X038011Y024963D01*
X038322Y025092D01*
X038559Y025330D01*
X038688Y025640D01*
X038688Y025976D01*
X038559Y026286D01*
X038322Y026524D01*
X038439Y026407D02*
X039163Y026407D01*
X039163Y026248D02*
X038575Y026248D01*
X038641Y026090D02*
X039163Y026090D01*
X039163Y025931D02*
X038688Y025931D01*
X038688Y025772D02*
X039163Y025772D01*
X039163Y025614D02*
X038677Y025614D01*
X038611Y025455D02*
X039163Y025455D01*
X039163Y025297D02*
X038527Y025297D01*
X038368Y025138D02*
X039163Y025138D01*
X039163Y024980D02*
X038051Y024980D01*
X037636Y024980D02*
X018843Y024980D01*
X018843Y025138D02*
X037319Y025138D01*
X037160Y025297D02*
X018843Y025297D01*
X018843Y025455D02*
X037075Y025455D01*
X037010Y025614D02*
X018843Y025614D01*
X018843Y025772D02*
X036999Y025772D01*
X036999Y025931D02*
X018843Y025931D01*
X018843Y026090D02*
X037046Y026090D01*
X037112Y026248D02*
X018843Y026248D01*
X018843Y026407D02*
X037248Y026407D01*
X037464Y026565D02*
X018843Y026565D01*
X018343Y026248D02*
X018115Y026248D01*
X018343Y026090D02*
X007343Y026090D01*
X007343Y026248D02*
X017572Y026248D01*
X017290Y026407D02*
X007343Y026407D01*
X007343Y026565D02*
X017132Y026565D01*
X017061Y026724D02*
X007343Y026724D01*
X007343Y026882D02*
X016995Y026882D01*
X016993Y027041D02*
X007343Y027041D01*
X007343Y027199D02*
X016993Y027199D01*
X017048Y027358D02*
X007343Y027358D01*
X007343Y027516D02*
X008275Y027516D01*
X008252Y027539D02*
X008301Y027490D01*
X008357Y027450D01*
X008418Y027418D01*
X008484Y027397D01*
X008552Y027386D01*
X008843Y027386D01*
X008843Y027823D01*
X008844Y027823D01*
X008844Y027386D01*
X009135Y027386D01*
X009203Y027397D01*
X009269Y027418D01*
X009330Y027450D01*
X009386Y027490D01*
X009435Y027539D01*
X009475Y027594D01*
X009506Y027656D01*
X009528Y027721D01*
X009538Y027789D01*
X009538Y027824D01*
X008844Y027824D01*
X008844Y027824D01*
X008843Y027824D01*
X008843Y027824D01*
X008149Y027824D01*
X008149Y027858D01*
X008159Y027926D01*
X008181Y027992D01*
X007343Y027992D01*
X007343Y027834D02*
X008149Y027834D01*
X008149Y027824D02*
X008149Y027789D01*
X008159Y027721D01*
X008181Y027656D01*
X008212Y027594D01*
X008252Y027539D01*
X008174Y027675D02*
X007343Y027675D01*
X007343Y028151D02*
X008294Y028151D01*
X008301Y028157D02*
X008252Y028109D01*
X008212Y028053D01*
X008181Y027992D01*
X008149Y027824D02*
X008843Y027824D01*
X008843Y028261D01*
X008552Y028261D01*
X008484Y028250D01*
X008418Y028229D01*
X008357Y028198D01*
X008301Y028157D01*
X008843Y028151D02*
X008844Y028151D01*
X008843Y027992D02*
X008844Y027992D01*
X008843Y027834D02*
X008844Y027834D01*
X008843Y027675D02*
X008844Y027675D01*
X008843Y027516D02*
X008844Y027516D01*
X009412Y027516D02*
X017114Y027516D01*
X017260Y027675D02*
X009513Y027675D01*
X009538Y027834D02*
X017498Y027834D01*
X017367Y029102D02*
X015323Y029102D01*
X015300Y029260D02*
X017192Y029260D01*
X017086Y029419D02*
X015211Y029419D01*
X014964Y029577D02*
X017025Y029577D01*
X017763Y029895D02*
X017923Y029895D01*
X017923Y030053D02*
X017763Y030053D01*
X017763Y030212D02*
X017923Y030212D01*
X017923Y030370D02*
X017763Y030370D01*
X017763Y030529D02*
X017923Y030529D01*
X018296Y030529D02*
X018343Y030529D01*
X018343Y030687D02*
X007343Y030687D01*
X007343Y030529D02*
X017391Y030529D01*
X016693Y031163D02*
X018343Y031163D01*
X018343Y031321D02*
X016722Y031321D01*
X016681Y031480D02*
X017669Y031480D01*
X017612Y031639D02*
X016534Y031639D01*
X016194Y031797D02*
X017990Y031797D01*
X017990Y031639D02*
X018027Y031639D01*
X018027Y031480D02*
X017990Y031480D01*
X017990Y031956D02*
X018027Y031956D01*
X018027Y032114D02*
X017990Y032114D01*
X017648Y032114D02*
X015877Y032114D01*
X016035Y031956D02*
X017612Y031956D01*
X018343Y032273D02*
X015718Y032273D01*
X015583Y032431D02*
X018343Y032431D01*
X018343Y032590D02*
X015583Y032590D01*
X015740Y032748D02*
X018343Y032748D01*
X018343Y032907D02*
X015740Y032907D01*
X015740Y033065D02*
X018343Y033065D01*
X018343Y033224D02*
X015740Y033224D01*
X015740Y033383D02*
X018343Y033383D01*
X018343Y033541D02*
X015740Y033541D01*
X015740Y033700D02*
X018343Y033700D01*
X018843Y033700D02*
X040678Y033700D01*
X040514Y033541D02*
X018843Y033541D01*
X018843Y033383D02*
X040399Y033383D01*
X040311Y033224D02*
X018843Y033224D01*
X018843Y033065D02*
X020872Y033065D01*
X020647Y032907D02*
X018843Y032907D01*
X018843Y032748D02*
X020507Y032748D01*
X020417Y032590D02*
X018843Y032590D01*
X018843Y032431D02*
X020358Y032431D01*
X020328Y032273D02*
X018843Y032273D01*
X019039Y032114D02*
X021263Y032114D01*
X021263Y031956D02*
X021423Y031956D01*
X021424Y032114D02*
X027763Y032114D01*
X027763Y031956D02*
X027923Y031956D01*
X027924Y032114D02*
X034263Y032114D01*
X034263Y031956D02*
X034423Y031956D01*
X034424Y032114D02*
X036648Y032114D01*
X036612Y031956D02*
X035345Y031956D01*
X035359Y032273D02*
X040377Y032273D01*
X040300Y032431D02*
X035329Y032431D01*
X035270Y032590D02*
X040258Y032590D01*
X040238Y032748D02*
X035179Y032748D01*
X035040Y032907D02*
X040238Y032907D01*
X040268Y033065D02*
X034815Y033065D01*
X034423Y033065D02*
X034263Y033065D01*
X034263Y032907D02*
X034423Y032907D01*
X034423Y032748D02*
X034263Y032748D01*
X034263Y032590D02*
X034423Y032590D01*
X034423Y032431D02*
X034263Y032431D01*
X034263Y032273D02*
X034423Y032273D01*
X034423Y031797D02*
X034263Y031797D01*
X034263Y031639D02*
X034423Y031639D01*
X034423Y031480D02*
X034263Y031480D01*
X034263Y031321D02*
X034423Y031321D01*
X033755Y031321D02*
X028432Y031321D01*
X028609Y031480D02*
X033578Y031480D01*
X033463Y031639D02*
X028723Y031639D01*
X028799Y031797D02*
X033387Y031797D01*
X033342Y031956D02*
X028845Y031956D01*
X028859Y032273D02*
X033328Y032273D01*
X033358Y032431D02*
X028829Y032431D01*
X028770Y032590D02*
X033417Y032590D01*
X033507Y032748D02*
X028679Y032748D01*
X028540Y032907D02*
X033647Y032907D01*
X033872Y033065D02*
X028315Y033065D01*
X027923Y033065D02*
X027763Y033065D01*
X027763Y032907D02*
X027923Y032907D01*
X027923Y032748D02*
X027763Y032748D01*
X027763Y032590D02*
X027923Y032590D01*
X027923Y032431D02*
X027763Y032431D01*
X027763Y032273D02*
X027923Y032273D01*
X027923Y031797D02*
X027763Y031797D01*
X027763Y031639D02*
X027923Y031639D01*
X027923Y031480D02*
X027763Y031480D01*
X027763Y031321D02*
X027923Y031321D01*
X027255Y031321D02*
X021932Y031321D01*
X022109Y031480D02*
X027078Y031480D01*
X026963Y031639D02*
X022223Y031639D01*
X022299Y031797D02*
X026887Y031797D01*
X026842Y031956D02*
X022345Y031956D01*
X022359Y032273D02*
X026828Y032273D01*
X026858Y032431D02*
X022329Y032431D01*
X022270Y032590D02*
X026917Y032590D01*
X027007Y032748D02*
X022179Y032748D01*
X022040Y032907D02*
X027147Y032907D01*
X027372Y033065D02*
X021815Y033065D01*
X021423Y033065D02*
X021263Y033065D01*
X021263Y032907D02*
X021423Y032907D01*
X021423Y032748D02*
X021263Y032748D01*
X021263Y032590D02*
X021423Y032590D01*
X021423Y032431D02*
X021263Y032431D01*
X021263Y032273D02*
X021423Y032273D01*
X021423Y031797D02*
X021263Y031797D01*
X021263Y031639D02*
X021423Y031639D01*
X021423Y031480D02*
X021263Y031480D01*
X021263Y031321D02*
X021423Y031321D01*
X020342Y031956D02*
X019075Y031956D01*
X018343Y031004D02*
X016575Y031004D01*
X016112Y031004D02*
X007343Y031004D01*
X007343Y030846D02*
X018343Y030846D01*
X015994Y031163D02*
X007343Y031163D01*
X007343Y031321D02*
X015965Y031321D01*
X015832Y031480D02*
X007343Y031480D01*
X007343Y031639D02*
X015674Y031639D01*
X015515Y031797D02*
X008802Y031797D01*
X009054Y031956D02*
X015356Y031956D01*
X015198Y032114D02*
X009212Y032114D01*
X009310Y032273D02*
X015103Y032273D01*
X015103Y032431D02*
X009386Y032431D01*
X009429Y032590D02*
X015103Y032590D01*
X014947Y032748D02*
X014739Y032748D01*
X014740Y032907D02*
X014947Y032907D01*
X014947Y033065D02*
X014740Y033065D01*
X014732Y033224D02*
X014947Y033224D01*
X014947Y033383D02*
X014740Y033383D01*
X014343Y033643D02*
X015343Y033643D01*
X015343Y033650D01*
X014362Y032907D02*
X014325Y032907D01*
X014325Y032748D02*
X014362Y032748D01*
X013948Y032748D02*
X009448Y032748D01*
X009448Y032907D02*
X013947Y032907D01*
X013947Y033065D02*
X009418Y033065D01*
X009376Y033224D02*
X013955Y033224D01*
X013947Y033383D02*
X009288Y033383D01*
X009173Y033541D02*
X013947Y033541D01*
X013947Y033700D02*
X009009Y033700D01*
X007377Y032273D02*
X007343Y032273D01*
X007343Y032114D02*
X007475Y032114D01*
X007343Y031956D02*
X007633Y031956D01*
X007884Y031797D02*
X007343Y031797D01*
X009485Y029577D02*
X012723Y029577D01*
X012964Y029577D02*
X014723Y029577D01*
X014476Y029419D02*
X013211Y029419D01*
X013300Y029260D02*
X014387Y029260D01*
X014363Y029102D02*
X013323Y029102D01*
X013323Y028943D02*
X014363Y028943D01*
X014363Y028785D02*
X013323Y028785D01*
X013323Y028626D02*
X014363Y028626D01*
X014363Y028468D02*
X013323Y028468D01*
X013281Y028309D02*
X014406Y028309D01*
X014522Y028151D02*
X013165Y028151D01*
X012476Y029419D02*
X009343Y029419D01*
X009386Y028157D02*
X009435Y028109D01*
X009475Y028053D01*
X009506Y027992D01*
X007343Y025931D02*
X018343Y025931D01*
X018343Y025772D02*
X007343Y025772D01*
X007343Y025614D02*
X018343Y025614D01*
X018343Y025455D02*
X007343Y025455D01*
X007343Y025297D02*
X017410Y025297D01*
X018277Y025297D02*
X018343Y025297D01*
X018843Y024821D02*
X039163Y024821D01*
X039163Y024663D02*
X018843Y024663D01*
X018843Y024504D02*
X039163Y024504D01*
X039163Y024346D02*
X018843Y024346D01*
X018843Y024187D02*
X039163Y024187D01*
X039163Y024028D02*
X018843Y024028D01*
X018843Y023870D02*
X039163Y023870D01*
X039163Y023711D02*
X018843Y023711D01*
X018843Y023553D02*
X039163Y023553D01*
X039163Y023394D02*
X018843Y023394D01*
X018843Y023236D02*
X039163Y023236D01*
X039163Y023077D02*
X018843Y023077D01*
X018843Y022919D02*
X039163Y022919D01*
X039163Y022760D02*
X018843Y022760D01*
X021779Y020382D02*
X027408Y020382D01*
X027452Y020403D02*
X027348Y020353D01*
X027251Y020292D01*
X027162Y020221D01*
X027080Y020140D01*
X027009Y020050D01*
X026948Y019953D01*
X026898Y019849D01*
X026860Y019741D01*
X026835Y019629D01*
X026824Y019538D01*
X027763Y019538D01*
X027763Y019378D01*
X026824Y019378D01*
X026835Y019286D01*
X026860Y019174D01*
X026898Y019066D01*
X026948Y018963D01*
X027009Y018865D01*
X027080Y018776D01*
X027162Y018695D01*
X027251Y018623D01*
X027348Y018562D01*
X027452Y018512D01*
X027560Y018474D01*
X027672Y018449D01*
X027763Y018438D01*
X027763Y019377D01*
X027923Y019377D01*
X027923Y018438D01*
X028015Y018449D01*
X028127Y018474D01*
X028235Y018512D01*
X028338Y018562D01*
X028436Y018623D01*
X028525Y018695D01*
X028606Y018776D01*
X028678Y018865D01*
X028739Y018963D01*
X028789Y019066D01*
X028827Y019174D01*
X028852Y019286D01*
X028863Y019378D01*
X027924Y019378D01*
X027924Y019538D01*
X028863Y019538D01*
X028852Y019629D01*
X028827Y019741D01*
X028789Y019849D01*
X028739Y019953D01*
X028678Y020050D01*
X028606Y020140D01*
X028525Y020221D01*
X028436Y020292D01*
X028338Y020353D01*
X028235Y020403D01*
X028127Y020441D01*
X028015Y020466D01*
X027923Y020477D01*
X027923Y019538D01*
X027763Y019538D01*
X027763Y020477D01*
X027672Y020466D01*
X027560Y020441D01*
X027452Y020403D01*
X027763Y020382D02*
X027923Y020382D01*
X027923Y020223D02*
X027763Y020223D01*
X027763Y020065D02*
X027923Y020065D01*
X027923Y019906D02*
X027763Y019906D01*
X027763Y019748D02*
X027923Y019748D01*
X027923Y019589D02*
X027763Y019589D01*
X027843Y019458D02*
X034343Y019458D01*
X036658Y019458D01*
X037009Y019808D01*
X036990Y019748D02*
X037027Y019748D01*
X037027Y019906D02*
X036990Y019906D01*
X036990Y020065D02*
X037027Y020065D01*
X036622Y020065D02*
X035166Y020065D01*
X035178Y020050D02*
X035106Y020140D01*
X035025Y020221D01*
X034936Y020292D01*
X034838Y020353D01*
X034735Y020403D01*
X034627Y020441D01*
X034515Y020466D01*
X034423Y020477D01*
X034423Y019538D01*
X034263Y019538D01*
X034263Y019378D01*
X033324Y019378D01*
X033335Y019286D01*
X033360Y019174D01*
X033398Y019066D01*
X033448Y018963D01*
X033509Y018865D01*
X033580Y018776D01*
X033662Y018695D01*
X033751Y018623D01*
X033848Y018562D01*
X033952Y018512D01*
X034060Y018474D01*
X034172Y018449D01*
X034263Y018438D01*
X034263Y019377D01*
X034423Y019377D01*
X034423Y018438D01*
X034515Y018449D01*
X034627Y018474D01*
X034735Y018512D01*
X034838Y018562D01*
X034936Y018623D01*
X035025Y018695D01*
X035106Y018776D01*
X035178Y018865D01*
X035239Y018963D01*
X035289Y019066D01*
X035327Y019174D01*
X035352Y019286D01*
X035363Y019378D01*
X034424Y019378D01*
X034424Y019538D01*
X035363Y019538D01*
X035352Y019629D01*
X035327Y019741D01*
X035289Y019849D01*
X035239Y019953D01*
X035178Y020050D01*
X035261Y019906D02*
X036612Y019906D01*
X036612Y019748D02*
X035324Y019748D01*
X035357Y019589D02*
X036612Y019589D01*
X036990Y019589D02*
X037027Y019589D01*
X037438Y020223D02*
X035022Y020223D01*
X034779Y020382D02*
X037438Y020382D01*
X037918Y020382D02*
X039163Y020382D01*
X039163Y020541D02*
X037918Y020541D01*
X037918Y020699D02*
X039163Y020699D01*
X039163Y020858D02*
X037918Y020858D01*
X038139Y021016D02*
X039163Y021016D01*
X039163Y021175D02*
X038404Y021175D01*
X038561Y021333D02*
X039163Y021333D01*
X039163Y021492D02*
X038627Y021492D01*
X038688Y021650D02*
X039163Y021650D01*
X039163Y021809D02*
X038688Y021809D01*
X038688Y021967D02*
X039163Y021967D01*
X039163Y022126D02*
X038626Y022126D01*
X038560Y022284D02*
X039163Y022284D01*
X039163Y022443D02*
X038403Y022443D01*
X038135Y022602D02*
X039163Y022602D01*
X040523Y024504D02*
X041191Y024504D01*
X040976Y024663D02*
X040523Y024663D01*
X040523Y024821D02*
X040909Y024821D01*
X040906Y024980D02*
X040523Y024980D01*
X040523Y025138D02*
X040963Y025138D01*
X039163Y029102D02*
X038332Y029102D01*
X037027Y031480D02*
X036990Y031480D01*
X036990Y031639D02*
X037027Y031639D01*
X037027Y031956D02*
X036990Y031956D01*
X036990Y032114D02*
X037027Y032114D01*
X034263Y020477D02*
X034172Y020466D01*
X034060Y020441D01*
X033952Y020403D01*
X033848Y020353D01*
X033751Y020292D01*
X033662Y020221D01*
X033580Y020140D01*
X033509Y020050D01*
X033448Y019953D01*
X033398Y019849D01*
X033360Y019741D01*
X033335Y019629D01*
X033324Y019538D01*
X034263Y019538D01*
X034263Y020477D01*
X034263Y020382D02*
X034423Y020382D01*
X034423Y020223D02*
X034263Y020223D01*
X034263Y020065D02*
X034423Y020065D01*
X034423Y019906D02*
X034263Y019906D01*
X034263Y019748D02*
X034423Y019748D01*
X034423Y019589D02*
X034263Y019589D01*
X034263Y019431D02*
X027924Y019431D01*
X027843Y019458D02*
X021343Y019458D01*
X021424Y019431D02*
X027763Y019431D01*
X027763Y019272D02*
X027923Y019272D01*
X027923Y019114D02*
X027763Y019114D01*
X027763Y018955D02*
X027923Y018955D01*
X027923Y018797D02*
X027763Y018797D01*
X027763Y018638D02*
X027923Y018638D01*
X027923Y018479D02*
X027763Y018479D01*
X027545Y018479D02*
X021641Y018479D01*
X021954Y018638D02*
X027232Y018638D01*
X027064Y018797D02*
X022123Y018797D01*
X022234Y018955D02*
X026953Y018955D01*
X026881Y019114D02*
X022306Y019114D01*
X022349Y019272D02*
X026838Y019272D01*
X026830Y019589D02*
X022357Y019589D01*
X022324Y019748D02*
X026863Y019748D01*
X026926Y019906D02*
X022261Y019906D01*
X022166Y020065D02*
X027021Y020065D01*
X027165Y020223D02*
X022022Y020223D01*
X020665Y020223D02*
X018843Y020223D01*
X019065Y020065D02*
X020521Y020065D01*
X020426Y019906D02*
X019075Y019906D01*
X019075Y019790D02*
X018843Y019790D01*
X018843Y019826D01*
X019075Y019790D02*
X019075Y019587D01*
X019062Y019542D01*
X019039Y019501D01*
X019005Y019467D01*
X018964Y019443D01*
X018918Y019431D01*
X018843Y019431D01*
X018843Y019272D02*
X020338Y019272D01*
X020381Y019114D02*
X018843Y019114D01*
X018843Y018955D02*
X020453Y018955D01*
X020564Y018797D02*
X018843Y018797D01*
X018843Y018638D02*
X020732Y018638D01*
X020330Y019589D02*
X019075Y019589D01*
X019075Y019748D02*
X020363Y019748D01*
X028141Y018479D02*
X034045Y018479D01*
X034263Y018479D02*
X034423Y018479D01*
X034423Y018638D02*
X034263Y018638D01*
X034263Y018797D02*
X034423Y018797D01*
X034423Y018955D02*
X034263Y018955D01*
X034263Y019114D02*
X034423Y019114D01*
X034423Y019272D02*
X034263Y019272D01*
X034424Y019431D02*
X039163Y019431D01*
X039163Y019589D02*
X038075Y019589D01*
X038075Y019748D02*
X039163Y019748D01*
X039163Y019906D02*
X038075Y019906D01*
X038075Y020065D02*
X039163Y020065D01*
X039163Y020223D02*
X037918Y020223D01*
X039163Y019272D02*
X035349Y019272D01*
X035306Y019114D02*
X039163Y019114D01*
X039163Y018955D02*
X035234Y018955D01*
X035123Y018797D02*
X039163Y018797D01*
X039163Y018638D02*
X034954Y018638D01*
X034641Y018479D02*
X039163Y018479D01*
X038075Y016577D02*
X041062Y016577D01*
X041625Y016577D02*
X042343Y016577D01*
X042343Y016735D02*
X041743Y016735D01*
X041781Y016894D02*
X042343Y016894D01*
X042343Y017053D02*
X041760Y017053D01*
X041665Y017211D02*
X042343Y017211D01*
X042343Y016418D02*
X038075Y016418D01*
X038075Y016260D02*
X042343Y016260D01*
X042343Y016101D02*
X038075Y016101D01*
X037981Y015943D02*
X042343Y015943D01*
X042343Y015784D02*
X037918Y015784D01*
X037918Y015626D02*
X042343Y015626D01*
X042343Y015467D02*
X037918Y015467D01*
X037918Y015309D02*
X042343Y015309D01*
X042343Y015150D02*
X038018Y015150D01*
X038354Y014991D02*
X042343Y014991D01*
X042343Y014833D02*
X038513Y014833D01*
X038606Y014674D02*
X042343Y014674D01*
X042343Y014516D02*
X038671Y014516D01*
X038688Y014357D02*
X042343Y014357D01*
X042343Y014199D02*
X038688Y014199D01*
X038647Y014040D02*
X042343Y014040D01*
X042343Y013882D02*
X038581Y013882D01*
X038453Y013723D02*
X042343Y013723D01*
X042343Y013565D02*
X038256Y013565D01*
X037281Y013406D02*
X042343Y013406D01*
X042343Y013248D02*
X037122Y013248D01*
X036964Y013089D02*
X042343Y013089D01*
X042343Y012930D02*
X036889Y012930D01*
X036976Y012772D02*
X042343Y012772D01*
X042343Y012613D02*
X036976Y012613D01*
X036976Y012455D02*
X042343Y012455D01*
X042343Y012296D02*
X036972Y012296D01*
X036976Y012138D02*
X042343Y012138D01*
X042343Y011979D02*
X036976Y011979D01*
X036976Y011821D02*
X042343Y011821D01*
X042343Y011662D02*
X036976Y011662D01*
X036987Y011504D02*
X042343Y011504D01*
X042343Y011345D02*
X037146Y011345D01*
X037304Y011186D02*
X042343Y011186D01*
X042343Y011028D02*
X041636Y011028D01*
X041591Y011073D02*
X041430Y011139D01*
X041256Y011139D01*
X041096Y011073D01*
X040973Y010950D01*
X040906Y010789D01*
X040906Y010615D01*
X040973Y010454D01*
X041096Y010331D01*
X041151Y010308D01*
X041096Y010285D01*
X040973Y010162D01*
X040906Y010001D01*
X040906Y009827D01*
X040973Y009666D01*
X041096Y009543D01*
X041256Y009477D01*
X041430Y009477D01*
X041591Y009543D01*
X041714Y009666D01*
X041781Y009827D01*
X041781Y010001D01*
X041714Y010162D01*
X041591Y010285D01*
X041536Y010308D01*
X041591Y010331D01*
X041714Y010454D01*
X041781Y010615D01*
X041781Y010789D01*
X041714Y010950D01*
X041591Y011073D01*
X041748Y010869D02*
X042343Y010869D01*
X042343Y010711D02*
X041781Y010711D01*
X041755Y010552D02*
X042343Y010552D01*
X042343Y010394D02*
X041654Y010394D01*
X041641Y010235D02*
X042343Y010235D01*
X042343Y010077D02*
X041750Y010077D01*
X041781Y009918D02*
X042343Y009918D01*
X042343Y009760D02*
X041753Y009760D01*
X041649Y009601D02*
X042343Y009601D01*
X041038Y009601D02*
X038331Y009601D01*
X038489Y009760D02*
X040934Y009760D01*
X040906Y009918D02*
X038596Y009918D01*
X038662Y010077D02*
X040937Y010077D01*
X041046Y010235D02*
X038688Y010235D01*
X038688Y010394D02*
X041033Y010394D01*
X040932Y010552D02*
X038656Y010552D01*
X038591Y010711D02*
X040906Y010711D01*
X040939Y010869D02*
X038476Y010869D01*
X038312Y011028D02*
X041051Y011028D01*
X037462Y007064D02*
X018843Y007064D01*
X018843Y006906D02*
X037247Y006906D01*
X037111Y006747D02*
X018843Y006747D01*
X018843Y006589D02*
X037046Y006589D01*
X036999Y006430D02*
X018843Y006430D01*
X018843Y006272D02*
X036999Y006272D01*
X037010Y006113D02*
X018843Y006113D01*
X018843Y005955D02*
X037076Y005955D01*
X037161Y005796D02*
X018843Y005796D01*
X018843Y005637D02*
X037320Y005637D01*
X037438Y005479D02*
X018843Y005479D01*
X018843Y005320D02*
X037438Y005320D01*
X037438Y005162D02*
X018843Y005162D01*
X018843Y005003D02*
X037438Y005003D01*
X036612Y004369D02*
X035279Y004369D01*
X035334Y004211D02*
X036612Y004211D01*
X036622Y004052D02*
X035361Y004052D01*
X035341Y003735D02*
X040238Y003735D01*
X040262Y003576D02*
X035292Y003576D01*
X035211Y003418D02*
X040304Y003418D01*
X040384Y003259D02*
X035090Y003259D01*
X034900Y003101D02*
X040488Y003101D01*
X040647Y002942D02*
X034457Y002942D01*
X034423Y002942D02*
X034263Y002942D01*
X034230Y002942D02*
X027957Y002942D01*
X027923Y002942D02*
X027763Y002942D01*
X027763Y002938D02*
X027763Y003877D01*
X027923Y003877D01*
X027923Y002938D01*
X028015Y002949D01*
X028127Y002974D01*
X028235Y003012D01*
X028338Y003062D01*
X028436Y003123D01*
X028525Y003195D01*
X028606Y003276D01*
X028678Y003365D01*
X028739Y003463D01*
X028789Y003566D01*
X028827Y003674D01*
X028852Y003786D01*
X028863Y003878D01*
X027924Y003878D01*
X027924Y004038D01*
X028863Y004038D01*
X028852Y004129D01*
X028827Y004241D01*
X028789Y004349D01*
X028739Y004453D01*
X028678Y004550D01*
X028606Y004640D01*
X028525Y004721D01*
X028436Y004792D01*
X028338Y004853D01*
X028235Y004903D01*
X028127Y004941D01*
X028015Y004966D01*
X027923Y004977D01*
X027923Y004038D01*
X027763Y004038D01*
X027763Y003878D01*
X026824Y003878D01*
X026835Y003786D01*
X026860Y003674D01*
X026898Y003566D01*
X026948Y003463D01*
X027009Y003365D01*
X027080Y003276D01*
X027162Y003195D01*
X027251Y003123D01*
X027348Y003062D01*
X027452Y003012D01*
X027560Y002974D01*
X027672Y002949D01*
X027763Y002938D01*
X027730Y002942D02*
X021457Y002942D01*
X021423Y002942D02*
X021263Y002942D01*
X021263Y002938D02*
X021263Y003877D01*
X021423Y003877D01*
X021423Y002938D01*
X021515Y002949D01*
X021627Y002974D01*
X021735Y003012D01*
X021838Y003062D01*
X021936Y003123D01*
X022025Y003195D01*
X022106Y003276D01*
X022178Y003365D01*
X022239Y003463D01*
X022289Y003566D01*
X022327Y003674D01*
X022352Y003786D01*
X022363Y003878D01*
X021424Y003878D01*
X021424Y004038D01*
X022363Y004038D01*
X022352Y004129D01*
X022327Y004241D01*
X022289Y004349D01*
X022239Y004453D01*
X022178Y004550D01*
X022106Y004640D01*
X022025Y004721D01*
X021936Y004792D01*
X021838Y004853D01*
X021735Y004903D01*
X021627Y004941D01*
X021515Y004966D01*
X021423Y004977D01*
X021423Y004038D01*
X021263Y004038D01*
X021263Y003878D01*
X020324Y003878D01*
X020335Y003786D01*
X020360Y003674D01*
X020398Y003566D01*
X020448Y003463D01*
X020509Y003365D01*
X020580Y003276D01*
X020662Y003195D01*
X020751Y003123D01*
X020848Y003062D01*
X020952Y003012D01*
X021060Y002974D01*
X021172Y002949D01*
X021263Y002938D01*
X021230Y002942D02*
X018843Y002942D01*
X018843Y003101D02*
X020787Y003101D01*
X020597Y003259D02*
X018843Y003259D01*
X018843Y003418D02*
X020476Y003418D01*
X020394Y003576D02*
X018843Y003576D01*
X018843Y003735D02*
X020346Y003735D01*
X020324Y004038D02*
X020335Y004129D01*
X020360Y004241D01*
X020398Y004349D01*
X020448Y004453D01*
X020509Y004550D01*
X020580Y004640D01*
X020662Y004721D01*
X020751Y004792D01*
X020848Y004853D01*
X020952Y004903D01*
X021060Y004941D01*
X021172Y004966D01*
X021263Y004977D01*
X021263Y004038D01*
X020324Y004038D01*
X020326Y004052D02*
X019065Y004052D01*
X019075Y004211D02*
X020353Y004211D01*
X020408Y004369D02*
X019075Y004369D01*
X019075Y004528D02*
X020495Y004528D01*
X020627Y004686D02*
X018843Y004686D01*
X018843Y004845D02*
X020835Y004845D01*
X021263Y004845D02*
X021423Y004845D01*
X021423Y004686D02*
X021263Y004686D01*
X021263Y004528D02*
X021423Y004528D01*
X021423Y004369D02*
X021263Y004369D01*
X021263Y004211D02*
X021423Y004211D01*
X021423Y004052D02*
X021263Y004052D01*
X021263Y003893D02*
X018843Y003893D01*
X021263Y003735D02*
X021423Y003735D01*
X021424Y003893D02*
X027763Y003893D01*
X027763Y004038D02*
X026824Y004038D01*
X026835Y004129D01*
X026860Y004241D01*
X026898Y004349D01*
X026948Y004453D01*
X027009Y004550D01*
X027080Y004640D01*
X027162Y004721D01*
X027251Y004792D01*
X027348Y004853D01*
X027452Y004903D01*
X027560Y004941D01*
X027672Y004966D01*
X027763Y004977D01*
X027763Y004038D01*
X027763Y004052D02*
X027923Y004052D01*
X027924Y003893D02*
X034263Y003893D01*
X034263Y003735D02*
X034423Y003735D01*
X034423Y003576D02*
X034263Y003576D01*
X034263Y003418D02*
X034423Y003418D01*
X034423Y003259D02*
X034263Y003259D01*
X034263Y003101D02*
X034423Y003101D01*
X033787Y003101D02*
X028400Y003101D01*
X028590Y003259D02*
X033597Y003259D01*
X033476Y003418D02*
X028711Y003418D01*
X028792Y003576D02*
X033394Y003576D01*
X033346Y003735D02*
X028841Y003735D01*
X028861Y004052D02*
X033326Y004052D01*
X033353Y004211D02*
X028834Y004211D01*
X028779Y004369D02*
X033408Y004369D01*
X033495Y004528D02*
X028692Y004528D01*
X028560Y004686D02*
X033627Y004686D01*
X033835Y004845D02*
X028352Y004845D01*
X027923Y004845D02*
X027763Y004845D01*
X027763Y004686D02*
X027923Y004686D01*
X027923Y004528D02*
X027763Y004528D01*
X027763Y004369D02*
X027923Y004369D01*
X027923Y004211D02*
X027763Y004211D01*
X027763Y003735D02*
X027923Y003735D01*
X027923Y003576D02*
X027763Y003576D01*
X027763Y003418D02*
X027923Y003418D01*
X027923Y003259D02*
X027763Y003259D01*
X027763Y003101D02*
X027923Y003101D01*
X027287Y003101D02*
X021900Y003101D01*
X022090Y003259D02*
X027097Y003259D01*
X026976Y003418D02*
X022211Y003418D01*
X022292Y003576D02*
X026894Y003576D01*
X026846Y003735D02*
X022341Y003735D01*
X022361Y004052D02*
X026826Y004052D01*
X026853Y004211D02*
X022334Y004211D01*
X022279Y004369D02*
X026908Y004369D01*
X026995Y004528D02*
X022192Y004528D01*
X022060Y004686D02*
X027127Y004686D01*
X027335Y004845D02*
X021852Y004845D01*
X021423Y003576D02*
X021263Y003576D01*
X021263Y003418D02*
X021423Y003418D01*
X021423Y003259D02*
X021263Y003259D01*
X021263Y003101D02*
X021423Y003101D01*
X018343Y012296D02*
X018279Y012296D01*
X011093Y018058D02*
X011093Y019095D01*
X012016Y024187D02*
X007343Y024187D01*
X007343Y024346D02*
X011904Y024346D01*
X011867Y024504D02*
X007343Y024504D01*
X007343Y024663D02*
X011884Y024663D01*
X011962Y024821D02*
X007343Y024821D01*
X028279Y020382D02*
X033908Y020382D01*
X033665Y020223D02*
X028522Y020223D01*
X028666Y020065D02*
X033521Y020065D01*
X033426Y019906D02*
X028761Y019906D01*
X028824Y019748D02*
X033363Y019748D01*
X033330Y019589D02*
X028857Y019589D01*
X028849Y019272D02*
X033338Y019272D01*
X033381Y019114D02*
X028806Y019114D01*
X028734Y018955D02*
X033453Y018955D01*
X033564Y018797D02*
X028623Y018797D01*
X028454Y018638D02*
X033732Y018638D01*
X036990Y016101D02*
X037027Y016101D01*
X037027Y015943D02*
X036990Y015943D01*
X037292Y015943D02*
X037375Y015943D01*
X042028Y004686D02*
X042343Y004686D01*
X042343Y004528D02*
X042186Y004528D01*
X042295Y004369D02*
X042343Y004369D01*
X037027Y004052D02*
X036990Y004052D01*
D25*
X011093Y018058D03*
X011093Y019095D03*
M02*
