  0
SECTION
  2
HEADER
  9
$ACADVER
  1
AC1015
  9
$ACADMAINTVER
 70
     6
  9
$DWGCODEPAGE
  3
ANSI_1252
  9
$INSBASE
 10
0.0
 20
0.0
 30
0.0
  9
$EXTMIN
 10
0.0
 20
0.0
 30
0.0
  9
$EXTMAX
 10
17.0
 20
11.0
 30
0.0
  9
$LIMMIN
 10
0.0
 20
0.0
  9
$LIMMAX
 10
17.0
 20
11.0
  9
$ORTHOMODE
 70
     0
  9
$REGENMODE
 70
     1
  9
$FILLMODE
 70
     1
  9
$QTEXTMODE
 70
     0
  9
$MIRRTEXT
 70
     1
  9
$LTSCALE
 40
1.0
  9
$ATTMODE
 70
     1
  9
$TEXTSIZE
 40
0.125
  9
$TRACEWID
 40
0.05
  9
$TEXTSTYLE
  7
Standard
  9
$CLAYER
  8
0
  9
$CELTYPE
  6
ByLayer
  9
$CECOLOR
 62
   256
  9
$CELTSCALE
 40
1.0
  9
$DISPSILH
 70
     0
  9
$DIMSCALE
 40
1.0
  9
$DIMASZ
 40
0.13
  9
$DIMEXO
 40
0.05
  9
$DIMDLI
 40
0.38
  9
$DIMRND
 40
0.0
  9
$DIMDLE
 40
0.0
  9
$DIMEXE
 40
0.125
  9
$DIMTP
 40
0.0
  9
$DIMTM
 40
0.0
  9
$DIMTXT
 40
0.125
  9
$DIMCEN
 40
0.09
  9
$DIMTSZ
 40
0.0
  9
$DIMTOL
 70
     0
  9
$DIMLIM
 70
     0
  9
$DIMTIH
 70
     1
  9
$DIMTOH
 70
     1
  9
$DIMSE1
 70
     0
  9
$DIMSE2
 70
     0
  9
$DIMTAD
 70
     1
  9
$DIMZIN
 70
     0
  9
$DIMBLK
  1

  9
$DIMASO
 70
     1
  9
$DIMSHO
 70
     1
  9
$DIMPOST
  1

  9
$DIMAPOST
  1

  9
$DIMALT
 70
     0
  9
$DIMALTD
 70
     2
  9
$DIMALTF
 40
25.4
  9
$DIMLFAC
 40
0.6666666667
  9
$DIMTOFL
 70
     0
  9
$DIMTVP
 40
0.0
  9
$DIMTIX
 70
     0
  9
$DIMSOXD
 70
     0
  9
$DIMSAH
 70
     0
  9
$DIMBLK1
  1

  9
$DIMBLK2
  1

  9
$DIMSTYLE
  2
Standard
  9
$DIMCLRD
 70
     0
  9
$DIMCLRE
 70
     0
  9
$DIMCLRT
 70
     0
  9
$DIMTFAC
 40
1.0
  9
$DIMGAP
 40
0.06
  9
$DIMJUST
 70
     0
  9
$DIMSD1
 70
     0
  9
$DIMSD2
 70
     0
  9
$DIMTOLJ
 70
     1
  9
$DIMTZIN
 70
     0
  9
$DIMALTZ
 70
     0
  9
$DIMALTTZ
 70
     0
  9
$DIMUPT
 70
     0
  9
$DIMDEC
 70
     3
  9
$DIMTDEC
 70
     3
  9
$DIMALTU
 70
     2
  9
$DIMALTTD
 70
     2
  9
$DIMTXSTY
  7
Standard
  9
$DIMAUNIT
 70
     0
  9
$DIMADEC
 70
     3
  9
$DIMALTRND
 40
0.0
  9
$DIMAZIN
 70
     0
  9
$DIMDSEP
 70
    46
  9
$DIMATFIT
 70
     3
  9
$DIMFRAC
 70
     0
  9
$DIMLDRBLK
  1

  9
$DIMLUNIT
 70
     2
  9
$DIMLWD
 70
    -2
  9
$DIMLWE
 70
    -2
  9
$DIMTMOVE
 70
     0
  9
$LUNITS
 70
     2
  9
$LUPREC
 70
     3
  9
$SKETCHINC
 40
0.1
  9
$FILLETRAD
 40
0.5
  9
$AUNITS
 70
     0
  9
$AUPREC
 70
     2
  9
$MENU
  1
.
  9
$ELEVATION
 40
0.0
  9
$PELEVATION
 40
0.0
  9
$THICKNESS
 40
0.0
  9
$LIMCHECK
 70
     0
  9
$CHAMFERA
 40
0.5
  9
$CHAMFERB
 40
0.5
  9
$CHAMFERC
 40
1.0
  9
$CHAMFERD
 40
0.0
  9
$SKPOLY
 70
     0
  9
$TDCREATE
 40
2455849.598506643
  9
$TDUCREATE
 40
2455849.89017331
  9
$TDUPDATE
 40
2455849.598506655
  9
$TDUUPDATE
 40
2455849.890173322
  9
$TDINDWG
 40
0.0000000116
  9
$TDUSRTIMER
 40
0.0000000116
  9
$USRTIMER
 70
     1
  9
$ANGBASE
 50
0.0
  9
$ANGDIR
 70
     0
  9
$PDMODE
 70
     0
  9
$PDSIZE
 40
-1.0
  9
$PLINEWID
 40
0.0
  9
$SPLFRAME
 70
     0
  9
$SPLINETYPE
 70
     6
  9
$SPLINESEGS
 70
     8
  9
$HANDSEED
  5
1A2
  9
$SURFTAB1
 70
     6
  9
$SURFTAB2
 70
     6
  9
$SURFTYPE
 70
     6
  9
$SURFU
 70
     6
  9
$SURFV
 70
     6
  9
$UCSBASE
  2

  9
$UCSNAME
  2

  9
$UCSORG
 10
0.0
 20
0.0
 30
0.0
  9
$UCSXDIR
 10
1.0
 20
0.0
 30
0.0
  9
$UCSYDIR
 10
0.0
 20
1.0
 30
0.0
  9
$UCSORTHOREF
  2

  9
$UCSORTHOVIEW
 70
     0
  9
$UCSORGTOP
 10
0.0
 20
0.0
 30
0.0
  9
$UCSORGBOTTOM
 10
0.0
 20
0.0
 30
0.0
  9
$UCSORGLEFT
 10
0.0
 20
0.0
 30
0.0
  9
$UCSORGRIGHT
 10
0.0
 20
0.0
 30
0.0
  9
$UCSORGFRONT
 10
0.0
 20
0.0
 30
0.0
  9
$UCSORGBACK
 10
0.0
 20
0.0
 30
0.0
  9
$PUCSBASE
  2

  9
$PUCSNAME
  2

  9
$PUCSORG
 10
0.0
 20
0.0
 30
0.0
  9
$PUCSXDIR
 10
1.0
 20
0.0
 30
0.0
  9
$PUCSYDIR
 10
0.0
 20
1.0
 30
0.0
  9
$PUCSORTHOREF
  2

  9
$PUCSORTHOVIEW
 70
     0
  9
$PUCSORGTOP
 10
0.0
 20
0.0
 30
0.0
  9
$PUCSORGBOTTOM
 10
0.0
 20
0.0
 30
0.0
  9
$PUCSORGLEFT
 10
0.0
 20
0.0
 30
0.0
  9
$PUCSORGRIGHT
 10
0.0
 20
0.0
 30
0.0
  9
$PUCSORGFRONT
 10
0.0
 20
0.0
 30
0.0
  9
$PUCSORGBACK
 10
0.0
 20
0.0
 30
0.0
  9
$USERI1
 70
     0
  9
$USERI2
 70
     0
  9
$USERI3
 70
     0
  9
$USERI4
 70
     0
  9
$USERI5
 70
     0
  9
$USERR1
 40
0.0
  9
$USERR2
 40
0.0
  9
$USERR3
 40
0.0
  9
$USERR4
 40
0.0
  9
$USERR5
 40
0.0
  9
$WORLDVIEW
 70
     1
  9
$SHADEDGE
 70
     3
  9
$SHADEDIF
 70
    70
  9
$TILEMODE
 70
     1
  9
$MAXACTVP
 70
    64
  9
$PINSBASE
 10
0.0
 20
0.0
 30
0.0
  9
$PLIMCHECK
 70
     0
  9
$PEXTMIN
 10
1.0000000000E+20
 20
1.0000000000E+20
 30
1.0000000000E+20
  9
$PEXTMAX
 10
-1.0000000000E+20
 20
-1.0000000000E+20
 30
-1.0000000000E+20
  9
$PLIMMIN
 10
0.0
 20
0.0
  9
$PLIMMAX
 10
12.0
 20
9.0
  9
$UNITMODE
 70
     0
  9
$VISRETAIN
 70
     1
  9
$PLINEGEN
 70
     0
  9
$PSLTSCALE
 70
     1
  9
$TREEDEPTH
 70
  3020
  9
$CMLSTYLE
  2
Standard
  9
$CMLJUST
 70
     0
  9
$CMLSCALE
 40
1.0
  9
$PROXYGRAPHICS
 70
     1
  9
$MEASUREMENT
 70
     0
  9
$CELWEIGHT
370
    -1
  9
$ENDCAPS
280
     0
  9
$JOINSTYLE
280
     0
  9
$LWDISPLAY
290
     1
  9
$INSUNITS
 70
     1
  9
$HYPERLINKBASE
  1

  9
$STYLESHEET
  1

  9
$XEDIT
290
     1
  9
$CEPSNTYPE
380
     0
  9
$PSTYLEMODE
290
     1
  9
$FINGERPRINTGUID
  2
{5E2B72F8-6292-4546-B89C-98E43155F4CA}
  9
$VERSIONGUID
  2
{FAEB1C32-E019-11D5-929B-00C0DF256EC4}
  9
$EXTNAMES
290
     1
  9
$PSVPSCALE
 40
0.0
  9
$OLESTARTUP
290
     0
  0
ENDSEC
  0
SECTION
  2
CLASSES
  0
CLASS
  1
ACDBDICTIONARYWDFLT
  2
AcDbDictionaryWithDefault
  3
ObjectDBX Classes
 90
        0
280
     0
281
     0
  0
CLASS
  1
VISUALSTYLE
  2
AcDbVisualStyle
  3
ObjectDBX Classes
 90
     4095
280
     0
281
     0
  0
CLASS
  1
MATERIAL
  2
AcDbMaterial
  3
ObjectDBX Classes
 90
     1153
280
     0
281
     0
  0
CLASS
  1
SCALE
  2
AcDbScale
  3
ObjectDBX Classes
 90
     1153
280
     0
281
     0
  0
CLASS
  1
DICTIONARYVAR
  2
AcDbDictionaryVar
  3
ObjectDBX Classes
 90
        0
280
     0
281
     0
  0
CLASS
  1
ACDBPLACEHOLDER
  2
AcDbPlaceHolder
  3
ObjectDBX Classes
 90
        0
280
     0
281
     0
  0
CLASS
  1
LAYOUT
  2
AcDbLayout
  3
ObjectDBX Classes
 90
        0
280
     0
281
     0
  0
ENDSEC
  0
SECTION
  2
TABLES
  0
TABLE
  2
VPORT
  5
8
330
0
100
AcDbSymbolTable
 70
     1
  0
VPORT
  5
29
330
8
100
AcDbSymbolTableRecord
100
AcDbViewportTableRecord
  2
*Active
 70
     0
 10
0.0
 20
0.0
 11
1.0
 21
1.0
 12
8.5
 22
5.5
 13
0.0
 23
0.0
 14
0.5
 24
0.5
 15
0.5
 25
0.5
 16
0.0
 26
0.0
 36
1.0
 17
0.0
 27
0.0
 37
0.0
 40
11.0
 41
1.5454545455
 42
50.0
 43
0.0
 44
0.0
 50
0.0
 51
0.0
 71
     0
 72
  2000
 73
     1
 74
     3
 75
     0
 76
     0
 77
     0
 78
     0
281
     0
 65
     1
110
0.0
120
0.0
130
0.0
111
1.0
121
0.0
131
0.0
112
0.0
122
1.0
132
0.0
 79
     0
146
0.0
  0
ENDTAB
  0
TABLE
  2
LTYPE
  5
5
330
0
100
AcDbSymbolTable
 70
     6
  0
LTYPE
  5
14
330
5
100
AcDbSymbolTableRecord
100
AcDbLinetypeTableRecord
  2
ByBlock
 70
     0
  3

 72
    65
 73
     0
 40
0.0
  0
LTYPE
  5
15
330
5
100
AcDbSymbolTableRecord
100
AcDbLinetypeTableRecord
  2
ByLayer
 70
     0
  3

 72
    65
 73
     0
 40
0.0
  0
LTYPE
  5
16
330
5
100
AcDbSymbolTableRecord
100
AcDbLinetypeTableRecord
  2
Continuous
 70
     0
  3
Solid line
 72
    65
 73
     0
 40
0.0
  0
LTYPE
  5
3F
330
5
100
AcDbSymbolTableRecord
100
AcDbLinetypeTableRecord
  2
HIDDEN
 70
     0
  3
Hidden __ __ __ __ __ __ __ __ __ __ __ __ __ __
 72
    65
 73
     2
 40
0.075
 49
0.05
 74
     0
 49
-0.025
 74
     0
  0
LTYPE
  5
40
330
5
100
AcDbSymbolTableRecord
100
AcDbLinetypeTableRecord
  2
PHANTOM
 70
     0
  3
Phantom ______  __  __  ______  __  __  ______
 72
    65
 73
     6
 40
0.5
 49
0.25
 74
     0
 49
-0.05
 74
     0
 49
0.05
 74
     0
 49
-0.05
 74
     0
 49
0.05
 74
     0
 49
-0.05
 74
     0
  0
LTYPE
  5
41
330
5
100
AcDbSymbolTableRecord
100
AcDbLinetypeTableRecord
  2
CENTER
 70
     0
  3
Center ____ _ ____ _ ____ _ ____ _ ____ _ ____
 72
    65
 73
     4
 40
0.4
 49
0.25
 74
     0
 49
-0.05
 74
     0
 49
0.05
 74
     0
 49
-0.05
 74
     0
  0
LTYPE
  5
42
330
5
100
AcDbSymbolTableRecord
100
AcDbLinetypeTableRecord
  2
CENTERX2
 70
     0
  3
Center (2x) ________  __  ________  __  _____
 72
    65
 73
     4
 40
0.8
 49
0.5
 74
     0
 49
-0.1
 74
     0
 49
0.1
 74
     0
 49
-0.1
 74
     0
  0
LTYPE
  5
43
330
5
100
AcDbSymbolTableRecord
100
AcDbLinetypeTableRecord
  2
DOT2
 70
     0
  3
Dot (.5x) ........................................
 72
    65
 73
     2
 40
0.025
 49
0.0
 74
     0
 49
-0.025
 74
     0
  0
ENDTAB
  0
TABLE
  2
LAYER
  5
2
330
0
100
AcDbSymbolTable
 70
     2
  0
LAYER
  5
10
330
2
100
AcDbSymbolTableRecord
100
AcDbLayerTableRecord
  2
0
 70
     0
 62
     7
  6
Continuous
370
    -3
390
F
  0
LAYER
  5
44
330
2
100
AcDbSymbolTableRecord
100
AcDbLayerTableRecord
  2
FORMAT
 70
     0
 62
     7
  6
Continuous
370
    -3
390
F
  0
ENDTAB
  0
TABLE
  2
STYLE
  5
3
330
0
100
AcDbSymbolTable
 70
     5
  0
STYLE
  5
11
330
3
100
AcDbSymbolTableRecord
100
AcDbTextStyleTableRecord
  2
Standard
 70
     0
 40
0.0
 41
1.0
 50
0.0
 71
     0
 42
0.2
  3
txt
  4

  0
STYLE
  5
6C
330
3
100
AcDbSymbolTableRecord
100
AcDbTextStyleTableRecord
  2
SLDTEXTSTYLE0
 70
     0
 40
0.0
 41
0.75
 50
0.0
 71
     0
 42
0.2
  3
TXT
  4

  0
STYLE
  5
C1
330
3
100
AcDbSymbolTableRecord
100
AcDbTextStyleTableRecord
  2
SLDTEXTSTYLE1
 70
     0
 40
0.0
 41
0.6944444444
 50
0.0
 71
     0
 42
0.2
  3
TXT
  4

  0
STYLE
  5
C6
330
3
100
AcDbSymbolTableRecord
100
AcDbTextStyleTableRecord
  2
SLDTEXTSTYLE2
 70
     0
 40
0.0
 41
0.6875
 50
0.0
 71
     0
 42
0.2
  3
TXT
  4

  0
STYLE
  5
D4
330
3
100
AcDbSymbolTableRecord
100
AcDbTextStyleTableRecord
  2
SLDTEXTSTYLE3
 70
     0
 40
0.0
 41
0.663
 50
0.0
 71
     0
 42
0.2
  3
TXT
  4

  0
ENDTAB
  0
TABLE
  2
VIEW
  5
6
330
0
100
AcDbSymbolTable
 70
     0
  0
ENDTAB
  0
TABLE
  2
UCS
  5
7
330
0
100
AcDbSymbolTable
 70
     0
  0
ENDTAB
  0
TABLE
  2
APPID
  5
9
330
0
100
AcDbSymbolTable
 70
     1
  0
APPID
  5
12
330
9
100
AcDbSymbolTableRecord
100
AcDbRegAppTableRecord
  2
ACAD
 70
     0
  0
ENDTAB
  0
TABLE
  2
DIMSTYLE
  5
A
330
0
100
AcDbSymbolTable
 70
     4
100
AcDbDimStyleTable
  0
DIMSTYLE
105
27
330
A
100
AcDbSymbolTableRecord
100
AcDbDimStyleTableRecord
  2
Standard
 70
     0
340
11
  0
DIMSTYLE
105
12B
102
{ACAD_REACTORS
330
12A
330
137
330
14E
330
15A
330
172
330
195
102
}
330
A
100
AcDbSymbolTableRecord
100
AcDbDimStyleTableRecord
  2
SLDDIMSTYLE0
 70
     0
 41
0.13
 44
0.0
 45
0.000000001
 78
     4
140
0.125
144
0.6666666667
147
0.03125
173
     1
271
     3
272
     3
276
     2
277
     5
284
    12
340
6C
  0
DIMSTYLE
105
143
102
{ACAD_REACTORS
330
142
330
17D
102
}
330
A
100
AcDbSymbolTableRecord
100
AcDbDimStyleTableRecord
  2
SLDDIMSTYLE1
 70
     0
 41
0.13
 44
0.0
 45
0.000000001
 78
     4
140
0.125
144
0.6666666667
147
0.03125
173
     1
271
     3
272
     3
276
     2
277
     5
284
    12
340
6C
  0
DIMSTYLE
105
167
102
{ACAD_REACTORS
330
166
330
189
102
}
330
A
100
AcDbSymbolTableRecord
100
AcDbDimStyleTableRecord
  2
SLDDIMSTYLE2
 70
     0
 41
0.13
 44
0.0
 45
0.000000001
 78
    12
140
0.125
144
0.6666666667
147
0.03125
173
     1
271
     3
272
     3
276
     2
277
     5
284
    12
340
6C
  0
ENDTAB
  0
TABLE
  2
BLOCK_RECORD
  5
1
330
0
100
AcDbSymbolTable
 70
    15
  0
BLOCK_RECORD
  5
1F
330
1
100
AcDbSymbolTableRecord
100
AcDbBlockTableRecord
  2
*Model_Space
340
22
  0
BLOCK_RECORD
  5
1B
330
1
100
AcDbSymbolTableRecord
100
AcDbBlockTableRecord
  2
*Paper_Space
340
1E
  0
BLOCK_RECORD
  5
23
330
1
100
AcDbSymbolTableRecord
100
AcDbBlockTableRecord
  2
*Paper_Space0
340
26
  0
BLOCK_RECORD
  5
69
330
1
100
AcDbSymbolTableRecord
100
AcDbBlockTableRecord
  2
SW_NOTE_0
340
0
102
{BLKREFS
331
95
102
}
  0
BLOCK_RECORD
  5
96
330
1
100
AcDbSymbolTableRecord
100
AcDbBlockTableRecord
  2
SW_NOTE_1
340
0
102
{BLKREFS
331
A0
102
}
  0
BLOCK_RECORD
  5
A2
330
1
100
AcDbSymbolTableRecord
100
AcDbBlockTableRecord
  2
SW_NOTE_2
340
0
102
{BLKREFS
331
B6
102
}
  0
BLOCK_RECORD
  5
D1
330
1
100
AcDbSymbolTableRecord
100
AcDbBlockTableRecord
  2
SW_NOTE_3
340
0
102
{BLKREFS
331
D7
102
}
  0
BLOCK_RECORD
  5
12C
330
1
100
AcDbSymbolTableRecord
100
AcDbBlockTableRecord
  2
*D5
340
0
  0
BLOCK_RECORD
  5
138
330
1
100
AcDbSymbolTableRecord
100
AcDbBlockTableRecord
  2
*D6
340
0
  0
BLOCK_RECORD
  5
144
330
1
100
AcDbSymbolTableRecord
100
AcDbBlockTableRecord
  2
*D7
340
0
  0
BLOCK_RECORD
  5
14F
330
1
100
AcDbSymbolTableRecord
100
AcDbBlockTableRecord
  2
*D8
340
0
  0
BLOCK_RECORD
  5
15B
330
1
100
AcDbSymbolTableRecord
100
AcDbBlockTableRecord
  2
*D9
340
0
  0
BLOCK_RECORD
  5
168
330
1
100
AcDbSymbolTableRecord
100
AcDbBlockTableRecord
  2
*D10
340
0
  0
BLOCK_RECORD
  5
173
330
1
100
AcDbSymbolTableRecord
100
AcDbBlockTableRecord
  2
*D11
340
0
  0
BLOCK_RECORD
  5
17E
330
1
100
AcDbSymbolTableRecord
100
AcDbBlockTableRecord
  2
*D12
340
0
  0
BLOCK_RECORD
  5
18A
330
1
100
AcDbSymbolTableRecord
100
AcDbBlockTableRecord
  2
*D13
340
0
  0
BLOCK_RECORD
  5
196
330
1
100
AcDbSymbolTableRecord
100
AcDbBlockTableRecord
  2
*D14
340
0
  0
ENDTAB
  0
ENDSEC
  0
SECTION
  2
BLOCKS
  0
BLOCK
  5
20
330
1F
100
AcDbEntity
  8
0
100
AcDbBlockBegin
  2
*Model_Space
 70
     0
 10
0.0
 20
0.0
 30
0.0
  3
*Model_Space
  1

  0
ENDBLK
  5
21
330
1F
100
AcDbEntity
  8
0
100
AcDbBlockEnd
  0
BLOCK
  5
1C
330
1B
100
AcDbEntity
 67
     1
  8
0
100
AcDbBlockBegin
  2
*Paper_Space
 70
     0
 10
0.0
 20
0.0
 30
0.0
  3
*Paper_Space
  1

  0
ENDBLK
  5
1D
330
1B
100
AcDbEntity
 67
     1
  8
0
100
AcDbBlockEnd
  0
BLOCK
  5
24
330
23
100
AcDbEntity
  8
0
100
AcDbBlockBegin
  2
*Paper_Space0
 70
     0
 10
0.0
 20
0.0
 30
0.0
  3
*Paper_Space0
  1

  0
ENDBLK
  5
25
330
23
100
AcDbEntity
  8
0
100
AcDbBlockEnd
  0
BLOCK
  5
6A
330
69
100
AcDbEntity
  8
0
100
AcDbBlockBegin
  2
SW_NOTE_0
 70
     0
 10
0.0
 20
0.0
 30
0.0
  3
SW_NOTE_0
  1

  0
MTEXT
  5
8F
330
69
100
AcDbEntity
  8
0
  6
Continuous
 62
     0
370
     0
100
AcDbMText
 10
0.0
 20
0.1611334675
 30
0.0
 40
0.125
 41
0.0
 71
     1
 72
     1
  1
NOTE:
  7
SLDTEXTSTYLE0
 73
     1
 44
1.0
  0
MTEXT
  5
90
330
69
100
AcDbEntity
  8
0
  6
Continuous
 62
     0
370
     0
100
AcDbMText
 10
0.0
 20
-0.003236607
 30
0.0
 40
0.125
 41
0.0
 71
     1
 72
     1
  1
The dimentions indicated with 'MAX' are the maximum 
  7
SLDTEXTSTYLE0
 73
     1
 44
1.0
  0
MTEXT
  5
91
330
69
100
AcDbEntity
  8
0
  6
Continuous
 62
     0
370
     0
100
AcDbMText
 10
0.0
 20
-0.1676066816
 30
0.0
 40
0.125
 41
0.0
 71
     1
 72
     1
  1
dimentions allowable for installation on ATRIAS 2.0. 
  7
SLDTEXTSTYLE0
 73
     1
 44
1.0
  0
MTEXT
  5
92
330
69
100
AcDbEntity
  8
0
  6
Continuous
 62
     0
370
     0
100
AcDbMText
 10
0.0
 20
-0.4963468306
 30
0.0
 40
0.125
 41
0.0
 71
     1
 72
     1
  1
All other dimentions shown are what work in the 
  7
SLDTEXTSTYLE0
 73
     1
 44
1.0
  0
MTEXT
  5
93
330
69
100
AcDbEntity
  8
0
  6
Continuous
 62
     0
370
     0
100
AcDbMText
 10
0.0
 20
-0.6607169051
 30
0.0
 40
0.125
 41
0.0
 71
     1
 72
     1
  1
SolidWorks model of the robot. These do not nessesaraly 
  7
SLDTEXTSTYLE0
 73
     1
 44
1.0
  0
MTEXT
  5
94
330
69
100
AcDbEntity
  8
0
  6
Continuous
 62
     0
370
     0
100
AcDbMText
 10
0.0
 20
-0.8250869796
 30
0.0
 40
0.125
 41
0.0
 71
     1
 72
     1
  1
need tobe replicated in the final board layout. 
  7
SLDTEXTSTYLE0
 73
     1
 44
1.0
  0
ENDBLK
  5
6B
330
69
100
AcDbEntity
  8
0
100
AcDbBlockEnd
  0
BLOCK
  5
97
330
96
100
AcDbEntity
  8
0
100
AcDbBlockBegin
  2
SW_NOTE_1
 70
     0
 10
0.0
 20
0.0
 30
0.0
  3
SW_NOTE_1
  1

  0
MTEXT
  5
99
330
96
100
AcDbEntity
  8
0
  6
Continuous
 62
     0
370
     0
100
AcDbMText
 10
0.0
 20
0.0773440644
 30
0.0
 40
0.06
 41
0.0
 71
     1
 72
     1
  1
THE INFORMATION CONTAINED IN THIS
  7
SLDTEXTSTYLE0
 73
     1
 44
1.0
  0
MTEXT
  5
9A
330
96
100
AcDbEntity
  8
0
  6
Continuous
 62
     0
370
     0
100
AcDbMText
 10
0.0
 20
-0.0220260102
 30
0.0
 40
0.06
 41
0.0
 71
     1
 72
     1
  1
DRAWING IS THE SOLE PROPERTY OF
  7
SLDTEXTSTYLE0
 73
     1
 44
1.0
  0
MTEXT
  5
9B
330
96
100
AcDbEntity
  8
0
  6
Continuous
 62
     0
370
     0
100
AcDbMText
 10
0.0
 20
-0.1213960848
 30
0.0
 40
0.06
 41
0.0
 71
     1
 72
     1
  1
THE DYNAMIC ROBOTICS LAB.  ANY 
  7
SLDTEXTSTYLE0
 73
     1
 44
1.0
  0
MTEXT
  5
9C
330
96
100
AcDbEntity
  8
0
  6
Continuous
 62
     0
370
     0
100
AcDbMText
 10
0.0
 20
-0.2207661593
 30
0.0
 40
0.06
 41
0.0
 71
     1
 72
     1
  1
REPRODUCTION IN PART OR AS A WHOLE
  7
SLDTEXTSTYLE0
 73
     1
 44
1.0
  0
MTEXT
  5
9D
330
96
100
AcDbEntity
  8
0
  6
Continuous
 62
     0
370
     0
100
AcDbMText
 10
0.0
 20
-0.3201362339
 30
0.0
 40
0.06
 41
0.0
 71
     1
 72
     1
  1
WITHOUT THE WRITTEN PERMISSION OF
  7
SLDTEXTSTYLE0
 73
     1
 44
1.0
  0
MTEXT
  5
9E
330
96
100
AcDbEntity
  8
0
  6
Continuous
 62
     0
370
     0
100
AcDbMText
 10
0.0
 20
-0.4195063085
 30
0.0
 40
0.06
 41
0.0
 71
     1
 72
     1
  1
DRL IS 
  7
SLDTEXTSTYLE0
 73
     1
 44
1.0
  0
MTEXT
  5
9F
330
96
100
AcDbEntity
  8
0
  6
Continuous
 62
     0
370
     0
100
AcDbMText
 10
0.0
 20
-0.518876383
 30
0.0
 40
0.06
 41
0.0
 71
     1
 72
     1
  1
PROHIBITED.
  7
SLDTEXTSTYLE0
 73
     1
 44
1.0
  0
ENDBLK
  5
98
330
96
100
AcDbEntity
  8
0
100
AcDbBlockEnd
  0
BLOCK
  5
A3
330
A2
100
AcDbEntity
  8
0
100
AcDbBlockBegin
  2
SW_NOTE_2
 70
     0
 10
0.0
 20
0.0
 30
0.0
  3
SW_NOTE_2
  1

  0
MTEXT
  5
A5
330
A2
100
AcDbEntity
  8
0
  6
Continuous
 62
     0
370
     0
100
AcDbMText
 10
0.0
 20
0.0837894031
 30
0.0
 40
0.065
 41
0.0
 71
     1
 72
     1
  1
DIMENSIONS ARE IN INCHES
  7
SLDTEXTSTYLE0
 73
     1
 44
1.0
  0
MTEXT
  5
A6
330
A2
100
AcDbEntity
  8
0
  6
Continuous
 62
     0
370
     0
100
AcDbMText
 10
0.0
 20
-0.0205806729
 30
0.0
 40
0.065
 41
0.0
 71
     1
 72
     1
  1
TOLERANCES: 
  7
SLDTEXTSTYLE0
 73
     1
 44
1.0
  0
MTEXT
  5
A7
330
A2
100
AcDbEntity
  8
0
  6
Continuous
 62
     0
370
     0
100
AcDbMText
 10
0.0
 20
-0.1249507489
 30
0.0
 40
0.065
 41
0.0
 71
     1
 72
     1
  1
    FRACTIONAL: 
  7
SLDTEXTSTYLE0
 73
     1
 44
1.0
  0
MTEXT
  5
A8
330
A2
100
AcDbEntity
  8
0
  6
Continuous
 62
     0
370
     0
100
AcDbMText
 10
0.659964436
 20
-0.1249507489
 30
0.0
 40
0.065
 41
0.0
 71
     1
 72
     1
  1
%%p
  7
SLDTEXTSTYLE0
 73
     1
 44
1.0
  0
MTEXT
  5
A9
330
A2
100
AcDbEntity
  8
0
  6
Continuous
 62
     0
370
     0
100
AcDbMText
 10
0.7218769275
 20
-0.1249507489
 30
0.0
 40
0.065
 41
0.0
 71
     1
 72
     1
  1
1/16"
  7
SLDTEXTSTYLE0
 73
     1
 44
1.0
  0
MTEXT
  5
AA
330
A2
100
AcDbEntity
  8
0
  6
Continuous
 62
     0
370
     0
100
AcDbMText
 10
0.0
 20
-0.2293208248
 30
0.0
 40
0.065
 41
0.0
 71
     1
 72
     1
  1
    ANGULAR: MACH
  7
SLDTEXTSTYLE0
 73
     1
 44
1.0
  0
MTEXT
  5
AB
330
A2
100
AcDbEntity
  8
0
  6
Continuous
 62
     0
370
     0
100
AcDbMText
 10
0.8194288606
 20
-0.2293208248
 30
0.0
 40
0.065
 41
0.0
 71
     1
 72
     1
  1
%%p
  7
SLDTEXTSTYLE0
 73
     1
 44
1.0
  0
MTEXT
  5
AC
330
A2
100
AcDbEntity
  8
0
  6
Continuous
 62
     0
370
     0
100
AcDbMText
 10
0.881341352
 20
-0.2293208248
 30
0.0
 40
0.065
 41
0.0
 71
     1
 72
     1
  1
0.5
  7
SLDTEXTSTYLE0
 73
     1
 44
1.0
  0
MTEXT
  5
AD
330
A2
100
AcDbEntity
  8
0
  6
Continuous
 62
     0
370
     0
100
AcDbMText
 10
0.0
 20
-0.3336909008
 30
0.0
 40
0.065
 41
0.0
 71
     1
 72
     1
  1
    DECIMAL: 
  7
SLDTEXTSTYLE0
 73
     1
 44
1.0
  0
MTEXT
  5
AE
330
A2
100
AcDbEntity
  8
0
  6
Continuous
 62
     0
370
     0
100
AcDbMText
 10
0.0
 20
-0.4380609768
 30
0.0
 40
0.065
 41
0.0
 71
     1
 72
     1
  1
        TWO PLACE:   
  7
SLDTEXTSTYLE0
 73
     1
 44
1.0
  0
MTEXT
  5
AF
330
A2
100
AcDbEntity
  8
0
  6
Continuous
 62
     0
370
     0
100
AcDbMText
 10
0.769787314
 20
-0.4380609768
 30
0.0
 40
0.065
 41
0.0
 71
     1
 72
     1
  1
%%p
  7
SLDTEXTSTYLE0
 73
     1
 44
1.0
  0
MTEXT
  5
B0
330
A2
100
AcDbEntity
  8
0
  6
Continuous
 62
     0
370
     0
100
AcDbMText
 10
0.8316998055
 20
-0.4380609768
 30
0.0
 40
0.065
 41
0.0
 71
     1
 72
     1
  1
0.010"
  7
SLDTEXTSTYLE0
 73
     1
 44
1.0
  0
MTEXT
  5
B1
330
A2
100
AcDbEntity
  8
0
  6
Continuous
 62
     0
370
     0
100
AcDbMText
 10
0.0
 20
-0.5424310528
 30
0.0
 40
0.065
 41
0.0
 71
     1
 72
     1
  1
        THREE PLACE: 
  7
SLDTEXTSTYLE0
 73
     1
 44
1.0
  0
MTEXT
  5
B2
330
A2
100
AcDbEntity
  8
0
  6
Continuous
 62
     0
370
     0
100
AcDbMText
 10
0.7641562591
 20
-0.5424310528
 30
0.0
 40
0.065
 41
0.0
 71
     1
 72
     1
  1
%%p
  7
SLDTEXTSTYLE0
 73
     1
 44
1.0
  0
MTEXT
  5
B3
330
A2
100
AcDbEntity
  8
0
  6
Continuous
 62
     0
370
     0
100
AcDbMText
 10
0.8260687505
 20
-0.5424310528
 30
0.0
 40
0.065
 41
0.0
 71
     1
 72
     1
  1
0.005"
  7
SLDTEXTSTYLE0
 73
     1
 44
1.0
  0
MTEXT
  5
B4
330
A2
100
AcDbEntity
  8
0
  6
Continuous
 62
     0
370
     0
100
AcDbMText
 10
0.0
 20
-0.6468011287
 30
0.0
 40
0.065
 41
0.0
 71
     1
 72
     1
  1
    MIN: +0.010"
  7
SLDTEXTSTYLE0
 73
     1
 44
1.0
  0
MTEXT
  5
B5
330
A2
100
AcDbEntity
  8
0
  6
Continuous
 62
     0
370
     0
100
AcDbMText
 10
0.0
 20
-0.7511712047
 30
0.0
 40
0.065
 41
0.0
 71
     1
 72
     1
  1
    MAX: -0.010"
  7
SLDTEXTSTYLE0
 73
     1
 44
1.0
  0
ENDBLK
  5
A4
330
A2
100
AcDbEntity
  8
0
100
AcDbBlockEnd
  0
BLOCK
  5
D2
330
D1
100
AcDbEntity
  8
0
100
AcDbBlockBegin
  2
SW_NOTE_3
 70
     0
 10
0.0
 20
0.0
 30
0.0
  3
SW_NOTE_3
  1

  0
MTEXT
  5
D5
330
D1
100
AcDbEntity
  8
FORMAT
 62
     0
100
AcDbMText
 10
0.0
 20
0.295411357
 30
0.0
 40
0.2291666667
 41
0.0
 71
     1
 72
     1
  1
Dynamic Robotics 
  7
SLDTEXTSTYLE3
 73
     1
 44
1.0
  0
MTEXT
  5
D6
330
D1
100
AcDbEntity
  8
FORMAT
 62
     0
100
AcDbMText
 10
0.4561583504
 20
-0.0101441948
 30
0.0
 40
0.2291666667
 41
0.0
 71
     1
 72
     1
  1
Laboratory
  7
SLDTEXTSTYLE3
 73
     1
 44
1.0
  0
ENDBLK
  5
D3
330
D1
100
AcDbEntity
  8
0
100
AcDbBlockEnd
  0
BLOCK
  5
12D
330
12C
100
AcDbEntity
  8
0
100
AcDbBlockBegin
  2
*D5
 70
     1
 10
0.0
 20
0.0
 30
0.0
  3
*D5
  1

  0
SOLID
  5
12F
330
12C
100
AcDbEntity
  8
0
  6
Continuous
 62
     7
370
     0
100
AcDbTrace
 10
9.009183914
 20
9.7428066456
 30
0.0
 11
8.879183914
 21
9.7628066456
 31
0.0
 12
8.879183914
 22
9.7228066456
 32
0.0
 13
8.879183914
 23
9.7228066456
 33
0.0
  0
SOLID
  5
130
330
12C
100
AcDbEntity
  8
0
  6
Continuous
 62
     7
370
     0
100
AcDbTrace
 10
2.259183914
 20
9.7428066456
 30
0.0
 11
2.389183914
 21
9.7228066456
 31
0.0
 12
2.389183914
 22
9.7628066456
 32
0.0
 13
2.389183914
 23
9.7628066456
 33
0.0
  0
LINE
  5
131
330
12C
100
AcDbEntity
  8
0
  6
Continuous
 62
     7
370
     0
100
AcDbLine
 10
9.009183914
 20
8.5810709132
 30
0.0
 11
9.009183914
 21
9.8678066456
 31
0.0
  0
LINE
  5
132
330
12C
100
AcDbEntity
  8
0
  6
Continuous
 62
     7
370
     0
100
AcDbLine
 10
2.259183914
 20
8.5810709132
 30
0.0
 11
2.259183914
 21
9.8678066456
 31
0.0
  0
LINE
  5
133
330
12C
100
AcDbEntity
  8
0
  6
Continuous
 62
     7
370
     0
100
AcDbLine
 10
9.009183914
 20
9.7428066456
 30
0.0
 11
5.7990459182
 21
9.7428066456
 31
0.0
  0
LINE
  5
134
330
12C
100
AcDbEntity
  8
0
  6
Continuous
 62
     7
370
     0
100
AcDbLine
 10
2.259183914
 20
9.7428066456
 30
0.0
 11
5.2585077136
 21
9.7428066456
 31
0.0
  0
MTEXT
  5
135
330
12C
100
AcDbEntity
  8
0
  6
Continuous
 62
     7
370
     0
100
AcDbMText
 10
5.3210077136
 20
9.9039401062
 30
0.0
 40
0.125
 41
0.0
 71
     1
 72
     1
  1
4.500
  7
SLDTEXTSTYLE0
 73
     1
 44
1.0
  0
MTEXT
  5
136
330
12C
100
AcDbEntity
  8
0
  6
Continuous
 62
     7
370
     0
100
AcDbMText
 10
5.3554303127
 20
9.7055405238
 30
0.0
 40
0.125
 41
0.0
 71
     1
 72
     1
  1
MAX
  7
SLDTEXTSTYLE0
 73
     1
 44
1.0
  0
ENDBLK
  5
12E
330
12C
100
AcDbEntity
  8
0
100
AcDbBlockEnd
  0
BLOCK
  5
139
330
138
100
AcDbEntity
  8
0
100
AcDbBlockBegin
  2
*D6
 70
     1
 10
0.0
 20
0.0
 30
0.0
  3
*D6
  1

  0
SOLID
  5
13B
330
138
100
AcDbEntity
  8
0
  6
Continuous
 62
     7
370
     0
100
AcDbTrace
 10
6.909183914
 20
9.3972141218
 30
0.0
 11
6.779183914
 21
9.4172141218
 31
0.0
 12
6.779183914
 22
9.3772141218
 32
0.0
 13
6.779183914
 23
9.3772141218
 33
0.0
  0
SOLID
  5
13C
330
138
100
AcDbEntity
  8
0
  6
Continuous
 62
     7
370
     0
100
AcDbTrace
 10
3.789183914
 20
9.3972141218
 30
0.0
 11
3.919183914
 21
9.3772141218
 31
0.0
 12
3.919183914
 22
9.4172141218
 32
0.0
 13
3.919183914
 23
9.4172141218
 33
0.0
  0
LINE
  5
13D
330
138
100
AcDbEntity
  8
0
  6
Continuous
 62
     7
370
     0
100
AcDbLine
 10
6.909183914
 20
6.8185709132
 30
0.0
 11
6.909183914
 21
9.5222141218
 31
0.0
  0
LINE
  5
13E
330
138
100
AcDbEntity
  8
0
  6
Continuous
 62
     7
370
     0
100
AcDbLine
 10
3.789183914
 20
7.0885709132
 30
0.0
 11
3.789183914
 21
9.5222141218
 31
0.0
  0
LINE
  5
13F
330
138
100
AcDbEntity
  8
0
  6
Continuous
 62
     7
370
     0
100
AcDbLine
 10
6.909183914
 20
9.3972141218
 30
0.0
 11
5.6311649161
 21
9.3972141218
 31
0.0
  0
LINE
  5
140
330
138
100
AcDbEntity
  8
0
  6
Continuous
 62
     7
370
     0
100
AcDbLine
 10
3.789183914
 20
9.3972141218
 30
0.0
 11
5.0906267115
 21
9.3972141218
 31
0.0
  0
MTEXT
  5
141
330
138
100
AcDbEntity
  8
0
  6
Continuous
 62
     7
370
     0
100
AcDbMText
 10
5.1531267115
 20
9.4591477912
 30
0.0
 40
0.125
 41
0.0
 71
     1
 72
     1
  1
2.080
  7
SLDTEXTSTYLE0
 73
     1
 44
1.0
  0
ENDBLK
  5
13A
330
138
100
AcDbEntity
  8
0
100
AcDbBlockEnd
  0
BLOCK
  5
145
330
144
100
AcDbEntity
  8
0
100
AcDbBlockBegin
  2
*D7
 70
     1
 10
0.0
 20
0.0
 30
0.0
  3
*D7
  1

  0
SOLID
  5
147
330
144
100
AcDbEntity
  8
0
  6
Continuous
 62
     7
370
     0
100
AcDbTrace
 10
6.909183914
 20
9.3972141218
 30
0.0
 11
6.779183914
 21
9.4172141218
 31
0.0
 12
6.779183914
 22
9.3772141218
 32
0.0
 13
6.779183914
 23
9.3772141218
 33
0.0
  0
SOLID
  5
148
330
144
100
AcDbEntity
  8
0
  6
Continuous
 62
     7
370
     0
100
AcDbTrace
 10
7.659183914
 20
9.3972141218
 30
0.0
 11
7.789183914
 21
9.3772141218
 31
0.0
 12
7.789183914
 22
9.4172141218
 32
0.0
 13
7.789183914
 23
9.4172141218
 33
0.0
  0
LINE
  5
149
330
144
100
AcDbEntity
  8
0
  6
Continuous
 62
     7
370
     0
100
AcDbLine
 10
6.909183914
 20
6.8185709132
 30
0.0
 11
6.909183914
 21
9.5222141218
 31
0.0
  0
LINE
  5
14A
330
144
100
AcDbEntity
  8
0
  6
Continuous
 62
     7
370
     0
100
AcDbLine
 10
7.659183914
 20
6.8185709132
 30
0.0
 11
7.659183914
 21
9.5222141218
 31
0.0
  0
LINE
  5
14B
330
144
100
AcDbEntity
  8
0
  6
Continuous
 62
     7
370
     0
100
AcDbLine
 10
6.909183914
 20
9.3972141218
 30
0.0
 11
6.659183914
 21
9.3972141218
 31
0.0
  0
LINE
  5
14C
330
144
100
AcDbEntity
  8
0
  6
Continuous
 62
     7
370
     0
100
AcDbLine
 10
7.659183914
 20
9.3972141218
 30
0.0
 11
7.909183914
 21
9.3972141218
 31
0.0
  0
MTEXT
  5
14D
330
144
100
AcDbEntity
  8
0
  6
Continuous
 62
     7
370
     0
100
AcDbMText
 10
7.169407296
 20
9.4591477912
 30
0.0
 40
0.125
 41
0.0
 71
     1
 72
     1
  1
.500
  7
SLDTEXTSTYLE0
 73
     1
 44
1.0
  0
ENDBLK
  5
146
330
144
100
AcDbEntity
  8
0
100
AcDbBlockEnd
  0
BLOCK
  5
150
330
14F
100
AcDbEntity
  8
0
100
AcDbBlockBegin
  2
*D8
 70
     1
 10
0.0
 20
0.0
 30
0.0
  3
*D8
  1

  0
SOLID
  5
152
330
14F
100
AcDbEntity
  8
0
  6
Continuous
 62
     7
370
     0
100
AcDbTrace
 10
7.659183914
 20
9.3972141218
 30
0.0
 11
7.789183914
 21
9.3772141218
 31
0.0
 12
7.789183914
 22
9.4172141218
 32
0.0
 13
7.789183914
 23
9.4172141218
 33
0.0
  0
SOLID
  5
153
330
14F
100
AcDbEntity
  8
0
  6
Continuous
 62
     7
370
     0
100
AcDbTrace
 10
9.009183914
 20
9.3972141218
 30
0.0
 11
8.879183914
 21
9.4172141218
 31
0.0
 12
8.879183914
 22
9.3772141218
 32
0.0
 13
8.879183914
 23
9.3772141218
 33
0.0
  0
LINE
  5
154
330
14F
100
AcDbEntity
  8
0
  6
Continuous
 62
     7
370
     0
100
AcDbLine
 10
7.659183914
 20
6.8185709132
 30
0.0
 11
7.659183914
 21
9.5222141218
 31
0.0
  0
LINE
  5
155
330
14F
100
AcDbEntity
  8
0
  6
Continuous
 62
     7
370
     0
100
AcDbLine
 10
9.009183914
 20
8.5810709132
 30
0.0
 11
9.009183914
 21
9.5222141218
 31
0.0
  0
LINE
  5
156
330
14F
100
AcDbEntity
  8
0
  6
Continuous
 62
     7
370
     0
100
AcDbLine
 10
7.659183914
 20
9.3972141218
 30
0.0
 11
8.0827124109
 21
9.3972141218
 31
0.0
  0
LINE
  5
157
330
14F
100
AcDbEntity
  8
0
  6
Continuous
 62
     7
370
     0
100
AcDbLine
 10
9.009183914
 20
9.3972141218
 30
0.0
 11
8.5856554171
 21
9.3972141218
 31
0.0
  0
MTEXT
  5
158
330
14F
100
AcDbEntity
  8
0
  6
Continuous
 62
     7
370
     0
100
AcDbMText
 10
8.1725596969
 20
9.5583475824
 30
0.0
 40
0.125
 41
0.0
 71
     1
 72
     1
  1
.900
  7
SLDTEXTSTYLE0
 73
     1
 44
1.0
  0
MTEXT
  5
159
330
14F
100
AcDbEntity
  8
0
  6
Continuous
 62
     7
370
     0
100
AcDbMText
 10
8.1608374109
 20
9.359948
 30
0.0
 40
0.125
 41
0.0
 71
     1
 72
     1
  1
MAX
  7
SLDTEXTSTYLE0
 73
     1
 44
1.0
  0
ENDBLK
  5
151
330
14F
100
AcDbEntity
  8
0
100
AcDbBlockEnd
  0
BLOCK
  5
15C
330
15B
100
AcDbEntity
  8
0
100
AcDbBlockBegin
  2
*D9
 70
     1
 10
0.0
 20
0.0
 30
0.0
  3
*D9
  1

  0
SOLID
  5
15E
330
15B
100
AcDbEntity
  8
0
  6
Continuous
 62
     7
370
     0
100
AcDbTrace
 10
10.1984083481
 20
8.5310709132
 30
0.0
 11
10.1784083481
 21
8.4010709132
 31
0.0
 12
10.2184083481
 22
8.4010709132
 32
0.0
 13
10.2184083481
 23
8.4010709132
 33
0.0
  0
SOLID
  5
15F
330
15B
100
AcDbEntity
  8
0
  6
Continuous
 62
     7
370
     0
100
AcDbTrace
 10
10.1984083481
 20
3.6560709132
 30
0.0
 11
10.2184083481
 21
3.7860709132
 31
0.0
 12
10.1784083481
 22
3.7860709132
 32
0.0
 13
10.1784083481
 23
3.7860709132
 33
0.0
  0
LINE
  5
160
330
15B
100
AcDbEntity
  8
0
  6
Continuous
 62
     7
370
     0
100
AcDbLine
 10
9.059183914
 20
8.5310709132
 30
0.0
 11
10.3234083481
 21
8.5310709132
 31
0.0
  0
LINE
  5
161
330
15B
100
AcDbEntity
  8
0
  6
Continuous
 62
     7
370
     0
100
AcDbLine
 10
9.059183914
 20
3.6560709132
 30
0.0
 11
10.3234083481
 21
3.6560709132
 31
0.0
  0
LINE
  5
162
330
15B
100
AcDbEntity
  8
0
  6
Continuous
 62
     7
370
     0
100
AcDbLine
 10
10.1984083481
 20
8.5310709132
 30
0.0
 11
10.1984083481
 21
6.2669924219
 31
0.0
  0
LINE
  5
163
330
15B
100
AcDbEntity
  8
0
  6
Continuous
 62
     7
370
     0
100
AcDbLine
 10
10.1984083481
 20
3.6560709132
 30
0.0
 11
10.1984083481
 21
5.870193257
 31
0.0
  0
MTEXT
  5
164
330
15B
100
AcDbEntity
  8
0
  6
Continuous
 62
     7
370
     0
100
AcDbMText
 10
9.9906392458
 20
6.2297263001
 30
0.0
 40
0.125
 41
0.0
 71
     1
 72
     1
  1
3.250
  7
SLDTEXTSTYLE0
 73
     1
 44
1.0
  0
MTEXT
  5
165
330
15B
100
AcDbEntity
  8
0
  6
Continuous
 62
     7
370
     0
100
AcDbMText
 10
10.025061845
 20
6.0313267176
 30
0.0
 40
0.125
 41
0.0
 71
     1
 72
     1
  1
MAX
  7
SLDTEXTSTYLE0
 73
     1
 44
1.0
  0
ENDBLK
  5
15D
330
15B
100
AcDbEntity
  8
0
100
AcDbBlockEnd
  0
BLOCK
  5
169
330
168
100
AcDbEntity
  8
0
100
AcDbBlockBegin
  2
*D10
 70
     1
 10
0.0
 20
0.0
 30
0.0
  3
*D10
  1

  0
SOLID
  5
16B
330
168
100
AcDbEntity
  8
0
  6
Continuous
 62
     7
370
     0
100
AcDbTrace
 10
1.6292626541
 20
8.5310709132
 30
0.0
 11
1.6092626541
 21
8.4010709132
 31
0.0
 12
1.6492626541
 22
8.4010709132
 32
0.0
 13
1.6492626541
 23
8.4010709132
 33
0.0
  0
SOLID
  5
16C
330
168
100
AcDbEntity
  8
0
  6
Continuous
 62
     7
370
     0
100
AcDbTrace
 10
1.6292626541
 20
7.0385709132
 30
0.0
 11
1.6492626541
 21
7.1685709132
 31
0.0
 12
1.6092626541
 22
7.1685709132
 32
0.0
 13
1.6092626541
 23
7.1685709132
 33
0.0
  0
LINE
  5
16D
330
168
100
AcDbEntity
  8
0
  6
Continuous
 62
     7
370
     0
100
AcDbLine
 10
2.209183914
 20
8.5310709132
 30
0.0
 11
1.5042626541
 21
8.5310709132
 31
0.0
  0
LINE
  5
16E
330
168
100
AcDbEntity
  8
0
  6
Continuous
 62
     7
370
     0
100
AcDbLine
 10
3.739183914
 20
7.0385709132
 30
0.0
 11
1.5042626541
 21
7.0385709132
 31
0.0
  0
LINE
  5
16F
330
168
100
AcDbEntity
  8
0
  6
Continuous
 62
     7
370
     0
100
AcDbLine
 10
1.6292626541
 20
8.5310709132
 30
0.0
 11
1.6292626541
 21
7.8957326042
 31
0.0
  0
LINE
  5
170
330
168
100
AcDbEntity
  8
0
  6
Continuous
 62
     7
370
     0
100
AcDbLine
 10
1.6292626541
 20
7.0385709132
 30
0.0
 11
1.6292626541
 21
7.6973330217
 31
0.0
  0
MTEXT
  5
171
330
168
100
AcDbEntity
  8
0
  6
Continuous
 62
     7
370
     0
100
AcDbMText
 10
1.467638437
 20
7.8584664823
 30
0.0
 40
0.125
 41
0.0
 71
     1
 72
     1
  1
.995
  7
SLDTEXTSTYLE0
 73
     1
 44
1.0
  0
ENDBLK
  5
16A
330
168
100
AcDbEntity
  8
0
100
AcDbBlockEnd
  0
BLOCK
  5
174
330
173
100
AcDbEntity
  8
0
100
AcDbBlockBegin
  2
*D11
 70
     1
 10
0.0
 20
0.0
 30
0.0
  3
*D11
  1

  0
SOLID
  5
176
330
173
100
AcDbEntity
  8
0
  6
Continuous
 62
     7
370
     0
100
AcDbTrace
 10
1.6292626541
 20
7.0385709132
 30
0.0
 11
1.6092626541
 21
6.9085709132
 31
0.0
 12
1.6492626541
 22
6.9085709132
 32
0.0
 13
1.6492626541
 23
6.9085709132
 33
0.0
  0
SOLID
  5
177
330
173
100
AcDbEntity
  8
0
  6
Continuous
 62
     7
370
     0
100
AcDbTrace
 10
1.6292626541
 20
4.9385709132
 30
0.0
 11
1.6492626541
 21
5.0685709132
 31
0.0
 12
1.6092626541
 22
5.0685709132
 32
0.0
 13
1.6092626541
 23
5.0685709132
 33
0.0
  0
LINE
  5
178
330
173
100
AcDbEntity
  8
0
  6
Continuous
 62
     7
370
     0
100
AcDbLine
 10
3.739183914
 20
7.0385709132
 30
0.0
 11
1.5042626541
 21
7.0385709132
 31
0.0
  0
LINE
  5
179
330
173
100
AcDbEntity
  8
0
  6
Continuous
 62
     7
370
     0
100
AcDbLine
 10
3.739183914
 20
4.9385709132
 30
0.0
 11
1.5042626541
 21
4.9385709132
 31
0.0
  0
LINE
  5
17A
330
173
100
AcDbEntity
  8
0
  6
Continuous
 62
     7
370
     0
100
AcDbLine
 10
1.6292626541
 20
7.0385709132
 30
0.0
 11
1.6292626541
 21
6.0427707044
 31
0.0
  0
LINE
  5
17B
330
173
100
AcDbEntity
  8
0
  6
Continuous
 62
     7
370
     0
100
AcDbLine
 10
1.6292626541
 20
4.9385709132
 30
0.0
 11
1.6292626541
 21
5.8443711219
 31
0.0
  0
MTEXT
  5
17C
330
173
100
AcDbEntity
  8
0
  6
Continuous
 62
     7
370
     0
100
AcDbMText
 10
1.4214935518
 20
6.0055045825
 30
0.0
 40
0.125
 41
0.0
 71
     1
 72
     1
  1
1.400
  7
SLDTEXTSTYLE0
 73
     1
 44
1.0
  0
ENDBLK
  5
175
330
173
100
AcDbEntity
  8
0
100
AcDbBlockEnd
  0
BLOCK
  5
17F
330
17E
100
AcDbEntity
  8
0
100
AcDbBlockBegin
  2
*D12
 70
     1
 10
0.0
 20
0.0
 30
0.0
  3
*D12
  1

  0
SOLID
  5
181
330
17E
100
AcDbEntity
  8
0
  6
Continuous
 62
     7
370
     0
100
AcDbTrace
 10
3.789183914
 20
9.0361277049
 30
0.0
 11
3.659183914
 21
9.0561277049
 31
0.0
 12
3.659183914
 22
9.0161277049
 32
0.0
 13
3.659183914
 23
9.0161277049
 33
0.0
  0
SOLID
  5
182
330
17E
100
AcDbEntity
  8
0
  6
Continuous
 62
     7
370
     0
100
AcDbTrace
 10
3.939183914
 20
9.0361277049
 30
0.0
 11
4.069183914
 21
9.0161277049
 31
0.0
 12
4.069183914
 22
9.0561277049
 32
0.0
 13
4.069183914
 23
9.0561277049
 33
0.0
  0
LINE
  5
183
330
17E
100
AcDbEntity
  8
0
  6
Continuous
 62
     7
370
     0
100
AcDbLine
 10
3.789183914
 20
7.0885709132
 30
0.0
 11
3.789183914
 21
9.1611277049
 31
0.0
  0
LINE
  5
184
330
17E
100
AcDbEntity
  8
0
  6
Continuous
 62
     7
370
     0
100
AcDbLine
 10
3.939183914
 20
7.0885709132
 30
0.0
 11
3.939183914
 21
9.1611277049
 31
0.0
  0
LINE
  5
185
330
17E
100
AcDbEntity
  8
0
  6
Continuous
 62
     7
370
     0
100
AcDbLine
 10
3.789183914
 20
9.0361277049
 30
0.0
 11
3.539183914
 21
9.0361277049
 31
0.0
  0
LINE
  5
186
330
17E
100
AcDbEntity
  8
0
  6
Continuous
 62
     7
370
     0
100
AcDbLine
 10
3.939183914
 20
9.0361277049
 30
0.0
 11
4.1287576998
 21
9.0361277049
 31
0.0
  0
MTEXT
  5
187
330
17E
100
AcDbEntity
  8
0
  6
Continuous
 62
     7
370
     0
100
AcDbMText
 10
4.1912576998
 20
9.1972611655
 30
0.0
 40
0.125
 41
0.0
 71
     1
 72
     1
  1
.100
  7
SLDTEXTSTYLE0
 73
     1
 44
1.0
  0
MTEXT
  5
188
330
17E
100
AcDbEntity
  8
0
  6
Continuous
 62
     7
370
     0
100
AcDbMText
 10
4.2344056643
 20
8.9988615831
 30
0.0
 40
0.125
 41
0.0
 71
     1
 72
     1
  1
TYP
  7
SLDTEXTSTYLE0
 73
     1
 44
1.0
  0
ENDBLK
  5
180
330
17E
100
AcDbEntity
  8
0
100
AcDbBlockEnd
  0
BLOCK
  5
18B
330
18A
100
AcDbEntity
  8
0
100
AcDbBlockBegin
  2
*D13
 70
     1
 10
0.0
 20
0.0
 30
0.0
  3
*D13
  1

  0
SOLID
  5
18D
330
18A
100
AcDbEntity
  8
0
  6
Continuous
 62
     7
370
     0
100
AcDbTrace
 10
9.6391051738
 20
8.5310709132
 30
0.0
 11
9.6191051738
 21
8.4010709132
 31
0.0
 12
9.6591051738
 22
8.4010709132
 32
0.0
 13
9.6591051738
 23
8.4010709132
 33
0.0
  0
SOLID
  5
18E
330
18A
100
AcDbEntity
  8
0
  6
Continuous
 62
     7
370
     0
100
AcDbTrace
 10
9.6391051738
 20
6.7685709132
 30
0.0
 11
9.6591051738
 21
6.8985709132
 31
0.0
 12
9.6191051738
 22
6.8985709132
 32
0.0
 13
9.6191051738
 23
6.8985709132
 33
0.0
  0
LINE
  5
18F
330
18A
100
AcDbEntity
  8
0
  6
Continuous
 62
     7
370
     0
100
AcDbLine
 10
9.059183914
 20
8.5310709132
 30
0.0
 11
9.7641051738
 21
8.5310709132
 31
0.0
  0
LINE
  5
190
330
18A
100
AcDbEntity
  8
0
  6
Continuous
 62
     7
370
     0
100
AcDbLine
 10
7.859183914
 20
6.7685709132
 30
0.0
 11
9.7641051738
 21
6.7685709132
 31
0.0
  0
LINE
  5
191
330
18A
100
AcDbEntity
  8
0
  6
Continuous
 62
     7
370
     0
100
AcDbLine
 10
9.6391051738
 20
8.5310709132
 30
0.0
 11
9.6391051738
 21
7.7662371971
 31
0.0
  0
LINE
  5
192
330
18A
100
AcDbEntity
  8
0
  6
Continuous
 62
     7
370
     0
100
AcDbLine
 10
9.6391051738
 20
6.7685709132
 30
0.0
 11
9.6391051738
 21
7.3694380322
 31
0.0
  0
MTEXT
  5
193
330
18A
100
AcDbEntity
  8
0
  6
Continuous
 62
     7
370
     0
100
AcDbMText
 10
9.4313360715
 20
7.7289710752
 30
0.0
 40
0.125
 41
0.0
 71
     1
 72
     1
  1
1.175
  7
SLDTEXTSTYLE0
 73
     1
 44
1.0
  0
MTEXT
  5
194
330
18A
100
AcDbEntity
  8
0
  6
Continuous
 62
     7
370
     0
100
AcDbMText
 10
9.4657586707
 20
7.5305714928
 30
0.0
 40
0.125
 41
0.0
 71
     1
 72
     1
  1
MAX
  7
SLDTEXTSTYLE0
 73
     1
 44
1.0
  0
ENDBLK
  5
18C
330
18A
100
AcDbEntity
  8
0
100
AcDbBlockEnd
  0
BLOCK
  5
197
330
196
100
AcDbEntity
  8
0
100
AcDbBlockBegin
  2
*D14
 70
     1
 10
0.0
 20
0.0
 30
0.0
  3
*D14
  1

  0
SOLID
  5
199
330
196
100
AcDbEntity
  8
0
  6
Continuous
 62
     7
370
     0
100
AcDbTrace
 10
9.6391051738
 20
6.7685709132
 30
0.0
 11
9.6191051738
 21
6.6385709132
 31
0.0
 12
9.6591051738
 22
6.6385709132
 32
0.0
 13
9.6591051738
 23
6.6385709132
 33
0.0
  0
SOLID
  5
19A
330
196
100
AcDbEntity
  8
0
  6
Continuous
 62
     7
370
     0
100
AcDbTrace
 10
9.6391051738
 20
5.1185709132
 30
0.0
 11
9.6591051738
 21
5.2485709132
 31
0.0
 12
9.6191051738
 22
5.2485709132
 32
0.0
 13
9.6191051738
 23
5.2485709132
 33
0.0
  0
LINE
  5
19B
330
196
100
AcDbEntity
  8
0
  6
Continuous
 62
     7
370
     0
100
AcDbLine
 10
7.859183914
 20
6.7685709132
 30
0.0
 11
9.7641051738
 21
6.7685709132
 31
0.0
  0
LINE
  5
19C
330
196
100
AcDbEntity
  8
0
  6
Continuous
 62
     7
370
     0
100
AcDbLine
 10
7.859183914
 20
5.1185709132
 30
0.0
 11
9.7641051738
 21
5.1185709132
 31
0.0
  0
LINE
  5
19D
330
196
100
AcDbEntity
  8
0
  6
Continuous
 62
     7
370
     0
100
AcDbLine
 10
9.6391051738
 20
6.7685709132
 30
0.0
 11
9.6391051738
 21
6.0427707044
 31
0.0
  0
LINE
  5
19E
330
196
100
AcDbEntity
  8
0
  6
Continuous
 62
     7
370
     0
100
AcDbLine
 10
9.6391051738
 20
5.1185709132
 30
0.0
 11
9.6391051738
 21
5.8443711219
 31
0.0
  0
MTEXT
  5
19F
330
196
100
AcDbEntity
  8
0
  6
Continuous
 62
     7
370
     0
100
AcDbMText
 10
9.4313360715
 20
6.0055045825
 30
0.0
 40
0.125
 41
0.0
 71
     1
 72
     1
  1
1.100
  7
SLDTEXTSTYLE0
 73
     1
 44
1.0
  0
ENDBLK
  5
198
330
196
100
AcDbEntity
  8
0
100
AcDbBlockEnd
  0
ENDSEC
  0
SECTION
  2
ENTITIES
  0
LINE
  5
45
330
1F
100
AcDbEntity
  8
0
  6
Continuous
 62
     7
370
     0
100
AcDbLine
 10
0.6262516046
 20
10.6420731707
 30
0.0
 11
16.3762516046
 21
10.6420731707
 31
0.0
  0
LINE
  5
46
330
1F
100
AcDbEntity
  8
0
  6
Continuous
 62
     7
370
     0
100
AcDbLine
 10
0.6262516046
 20
10.6420731707
 30
0.0
 11
0.6262516046
 21
0.3920731707
 31
0.0
  0
LINE
  5
47
330
1F
100
AcDbEntity
  8
0
  6
Continuous
 62
     7
370
     0
100
AcDbLine
 10
16.3762516046
 20
0.3920731707
 30
0.0
 11
0.6262516046
 21
0.3920731707
 31
0.0
  0
LINE
  5
48
330
1F
100
AcDbEntity
  8
0
  6
Continuous
 62
     7
370
     0
100
AcDbLine
 10
16.3762516046
 20
0.3920731707
 30
0.0
 11
16.3762516046
 21
10.6420731707
 31
0.0
  0
LINE
  5
49
330
1F
100
AcDbEntity
  8
0
  6
Continuous
 62
     7
370
     0
100
AcDbLine
 10
12.1720580035
 20
2.0818539547
 30
0.0
 11
16.3762516046
 21
2.0818539547
 31
0.0
  0
LINE
  5
4A
330
1F
100
AcDbEntity
  8
0
  6
Continuous
 62
     7
370
     0
100
AcDbLine
 10
12.1720580035
 20
1.3446977248
 30
0.0
 11
16.3762516046
 21
1.3446977248
 31
0.0
  0
LINE
  5
4B
330
1F
100
AcDbEntity
  8
0
  6
Continuous
 62
     7
370
     0
100
AcDbLine
 10
0.6262516046
 20
5.5170731707
 30
0.0
 11
0.5590701755
 21
5.5067650507
 31
0.0
  0
LINE
  5
4C
330
1F
100
AcDbEntity
  8
0
  6
Continuous
 62
     7
370
     0
100
AcDbLine
 10
0.6262516046
 20
5.5170731707
 30
0.0
 11
0.5590701755
 21
5.5261113291
 31
0.0
  0
LINE
  5
4D
330
1F
100
AcDbEntity
  8
0
  6
Continuous
 62
     7
370
     0
100
AcDbLine
 10
0.5590701755
 20
5.5410828212
 30
0.0
 11
0.5590701755
 21
5.4944946453
 31
0.0
  0
LINE
  5
4E
330
1F
100
AcDbEntity
  8
0
  6
Continuous
 62
     7
370
     0
100
AcDbLine
 10
0.6262516046
 20
5.5170731707
 30
0.0
 11
0.5590701755
 21
5.4944946453
 31
0.0
  0
LINE
  5
4F
330
1F
100
AcDbEntity
  8
0
  6
Continuous
 62
     7
370
     0
100
AcDbLine
 10
0.6262516046
 20
5.5170731707
 30
0.0
 11
0.5590701755
 21
5.5410828212
 31
0.0
  0
LINE
  5
50
330
1F
100
AcDbEntity
  8
0
  6
Continuous
 62
     7
370
     0
100
AcDbLine
 10
8.8193933017
 20
0.3920731707
 30
0.0
 11
8.8193933017
 21
2.8421013311
 31
0.0
  0
LINE
  5
51
330
1F
100
AcDbEntity
  8
0
  6
Continuous
 62
     7
370
     0
100
AcDbLine
 10
8.8193933017
 20
2.8421013311
 30
0.0
 11
16.3762516046
 21
2.8421013311
 31
0.0
  0
LINE
  5
52
330
1F
100
AcDbEntity
  8
0
  6
Continuous
 62
     7
370
     0
100
AcDbLine
 10
10.4448324427
 20
2.8421013311
 30
0.0
 11
10.4448324427
 21
0.3920731707
 31
0.0
  0
LINE
  5
53
330
1F
100
AcDbEntity
  8
0
  6
Continuous
 62
     7
370
     0
100
AcDbLine
 10
12.1720580035
 20
2.8421013311
 30
0.0
 11
12.1720580035
 21
0.3920731707
 31
0.0
  0
LINE
  5
54
330
1F
100
AcDbEntity
  8
0
  6
Continuous
 62
     7
370
     0
100
AcDbLine
 10
12.1720580035
 20
0.6075414949
 30
0.0
 11
16.3762516046
 21
0.6075414949
 31
0.0
  0
LINE
  5
55
330
1F
100
AcDbEntity
  8
0
  6
Continuous
 62
     7
370
     0
100
AcDbLine
 10
12.1720580035
 20
0.9761196098
 30
0.0
 11
16.3762516046
 21
0.9761196098
 31
0.0
  0
LINE
  5
56
330
1F
100
AcDbEntity
  8
0
  6
Continuous
 62
     7
370
     0
100
AcDbLine
 10
12.1720580035
 20
1.7132758398
 30
0.0
 11
16.3762516046
 21
1.7132758398
 31
0.0
  0
LINE
  5
57
330
1F
100
AcDbEntity
  8
0
  6
Continuous
 62
     7
370
     0
100
AcDbLine
 10
12.5888443683
 20
0.9761196098
 30
0.0
 11
12.5888443683
 21
0.6075414949
 31
0.0
  0
LINE
  5
58
330
1F
100
AcDbEntity
  8
0
  6
Continuous
 62
     7
370
     0
100
AcDbLine
 10
14.3872125257
 20
0.6075414949
 30
0.0
 11
14.3872125257
 21
0.3920731707
 31
0.0
  0
LINE
  5
59
330
1F
100
AcDbEntity
  8
0
  6
Continuous
 62
     7
370
     0
100
AcDbLine
 10
15.8043182398
 20
0.9761196098
 30
0.0
 11
15.8043182398
 21
0.6075414949
 31
0.0
  0
LINE
  5
5A
330
1F
100
AcDbEntity
  8
0
  6
Continuous
 62
     7
370
     0
100
AcDbLine
 10
15.4780676496
 20
0.6075414949
 30
0.0
 11
15.4780676496
 21
0.3920731707
 31
0.0
  0
LINE
  5
5B
330
1F
100
AcDbEntity
  8
0
  6
Continuous
 62
     7
370
     0
100
AcDbLine
 10
10.4448324427
 20
2.318078212
 30
0.0
 11
12.1720580035
 21
2.318078212
 31
0.0
  0
LINE
  5
5C
330
1F
100
AcDbEntity
  8
0
  6
Continuous
 62
     7
370
     0
100
AcDbLine
 10
10.4448324427
 20
2.5196790027
 30
0.0
 11
12.1720580035
 21
2.5196790027
 31
0.0
  0
LINE
  5
5D
330
1F
100
AcDbEntity
  8
0
  6
Continuous
 62
     7
370
     0
100
AcDbLine
 10
12.1720580035
 20
1.7132758398
 30
0.0
 11
10.4448324427
 21
1.7132758398
 31
0.0
  0
LINE
  5
5E
330
1F
100
AcDbEntity
  8
0
  6
Continuous
 62
     7
370
     0
100
AcDbLine
 10
11.5827762831
 20
2.8421013311
 30
0.0
 11
11.5827762831
 21
1.7132758398
 31
0.0
  0
LINE
  5
5F
330
1F
100
AcDbEntity
  8
0
  6
Continuous
 62
     7
370
     0
100
AcDbLine
 10
10.9701103674
 20
2.8421013311
 30
0.0
 11
10.9701103674
 21
1.7132758398
 31
0.0
  0
LINE
  5
60
330
1F
100
AcDbEntity
  8
0
  6
Continuous
 62
     7
370
     0
100
AcDbLine
 10
8.8193933017
 20
0.3920731707
 30
0.0
 11
8.8193933017
 21
2.8421013311
 31
0.0
  0
LINE
  5
61
330
1F
100
AcDbEntity
  8
0
  6
Continuous
 62
     7
370
     0
100
AcDbLine
 10
12.1720580035
 20
2.7212797934
 30
0.0
 11
8.8193933017
 21
2.7212797934
 31
0.0
  0
LINE
  5
62
330
1F
100
AcDbEntity
  8
0
  6
Continuous
 62
     7
370
     0
100
AcDbLine
 10
12.1720580035
 20
2.1164774212
 30
0.0
 11
10.4448324427
 21
2.1164774212
 31
0.0
  0
LINE
  5
63
330
1F
100
AcDbEntity
  8
0
  6
Continuous
 62
     7
370
     0
100
AcDbLine
 10
12.1720580035
 20
1.9148766305
 30
0.0
 11
10.4448324427
 21
1.9148766305
 31
0.0
  0
LINE
  5
64
330
1F
100
AcDbEntity
  8
0
  6
Continuous
 62
     7
370
     0
100
AcDbLine
 10
10.4448324427
 20
0.3920731707
 30
0.0
 11
10.4448324427
 21
1.307054964
 31
0.0
  0
LINE
  5
65
330
1F
100
AcDbEntity
  8
0
  6
Continuous
 62
     7
370
     0
100
AcDbLine
 10
8.8193933017
 20
1.307054964
 30
0.0
 11
10.4448324427
 21
1.307054964
 31
0.0
  0
LINE
  5
66
330
1F
100
AcDbEntity
  8
0
  6
Continuous
 62
     7
370
     0
100
AcDbLine
 10
8.5010016046
 20
0.3920731707
 30
0.0
 11
8.5135565785
 21
0.3575
 31
0.0
  0
LINE
  5
67
330
1F
100
AcDbEntity
  8
0
  6
Continuous
 62
     7
370
     0
100
AcDbLine
 10
8.5135565785
 20
0.3575
 30
0.0
 11
8.4877504872
 21
0.3575
 31
0.0
  0
LINE
  5
68
330
1F
100
AcDbEntity
  8
0
  6
Continuous
 62
     7
370
     0
100
AcDbLine
 10
8.4877504872
 20
0.3575
 30
0.0
 11
8.5010016046
 21
0.3920731707
 31
0.0
  0
INSERT
  5
95
330
1F
100
AcDbEntity
  8
0
  6
Continuous
 62
     7
370
     0
100
AcDbBlockReference
  2
SW_NOTE_0
 10
11.6387891441
 20
7.5374670817
 30
0.0
  0
INSERT
  5
A0
330
1F
100
AcDbEntity
  8
0
  6
Continuous
 62
     7
370
     0
100
AcDbBlockReference
  2
SW_NOTE_1
 10
8.8676629353
 20
1.0305235258
 30
0.0
  0
MTEXT
  5
A1
330
1F
100
AcDbEntity
  8
0
  6
Continuous
 62
     7
370
     0
100
AcDbMText
 10
8.8651047838
 20
1.2646252974
 30
0.0
 40
0.06
 41
0.0
 71
     1
 72
     1
  1
PROPRIETARY AND CONFIDENTIAL
  7
SLDTEXTSTYLE0
 73
     1
 44
1.0
  0
INSERT
  5
B6
330
1F
100
AcDbEntity
  8
0
  6
Continuous
 62
     7
370
     0
100
AcDbBlockReference
  2
SW_NOTE_2
 10
8.8625958594
 20
2.5777690197
 30
0.0
  0
MTEXT
  5
B7
330
1F
100
AcDbEntity
  8
0
  6
Continuous
 62
     7
370
     0
100
AcDbMText
 10
10.5475052694
 20
2.6505368847
 30
0.0
 40
0.065
 41
0.0
 71
     1
 72
     1
  1
DRAWN
  7
SLDTEXTSTYLE0
 73
     1
 44
1.0
  0
MTEXT
  5
B8
330
1F
100
AcDbEntity
  8
0
  6
Continuous
 62
     7
370
     0
100
AcDbMText
 10
10.5089566547
 20
2.4503203465
 30
0.0
 40
0.065
 41
0.0
 71
     1
 72
     1
  1
CHECKED
  7
SLDTEXTSTYLE0
 73
     1
 44
1.0
  0
MTEXT
  5
B9
330
1F
100
AcDbEntity
  8
0
  6
Continuous
 62
     7
370
     0
100
AcDbMText
 10
10.4874107145
 20
2.2483836038
 30
0.0
 40
0.065
 41
0.0
 71
     1
 72
     1
  1
ENG APPR.
  7
SLDTEXTSTYLE0
 73
     1
 44
1.0
  0
MTEXT
  5
BA
330
1F
100
AcDbEntity
  8
0
  6
Continuous
 62
     7
370
     0
100
AcDbMText
 10
10.4815482956
 20
2.0471905589
 30
0.0
 40
0.065
 41
0.0
 71
     1
 72
     1
  1
MFG APPR.
  7
SLDTEXTSTYLE0
 73
     1
 44
1.0
  0
MTEXT
  5
BB
330
1F
100
AcDbEntity
  8
0
  6
Continuous
 62
     7
370
     0
100
AcDbMText
 10
10.6170136157
 20
1.8450345099
 30
0.0
 40
0.065
 41
0.0
 71
     1
 72
     1
  1
Q.A.
  7
SLDTEXTSTYLE0
 73
     1
 44
1.0
  0
MTEXT
  5
BC
330
1F
100
AcDbEntity
  8
0
  6
Continuous
 62
     7
370
     0
100
AcDbMText
 10
10.4752623643
 20
1.6701965598
 30
0.0
 40
0.065
 41
0.0
 71
     1
 72
     1
  1
COMMENTS:
  7
SLDTEXTSTYLE0
 73
     1
 44
1.0
  0
MTEXT
  5
BD
330
1F
100
AcDbEntity
  8
0
  6
Continuous
 62
     7
370
     0
100
AcDbMText
 10
11.6023629855
 20
2.8120733349
 30
0.0
 40
0.065
 41
0.0
 71
     1
 72
     1
  1
DATE
  7
SLDTEXTSTYLE0
 73
     1
 44
1.0
  0
MTEXT
  5
BE
330
1F
100
AcDbEntity
  8
0
  6
Continuous
 62
     7
370
     0
100
AcDbMText
 10
10.9922115794
 20
2.8120733349
 30
0.0
 40
0.065
 41
0.0
 71
     1
 72
     1
  1
NAME
  7
SLDTEXTSTYLE0
 73
     1
 44
1.0
  0
MTEXT
  5
BF
330
1F
100
AcDbEntity
  8
0
  6
Continuous
 62
     7
370
     0
100
AcDbMText
 10
12.179754978
 20
0.9640380719
 30
0.0
 40
0.1
 41
0.0
 71
     1
 72
     1
  1
SIZE
  7
SLDTEXTSTYLE0
 73
     1
 44
1.0
  0
MTEXT
  5
C0
330
1F
100
AcDbEntity
  8
0
  6
Continuous
 62
     7
370
     0
100
AcDbMText
 10
12.3082152703
 20
0.8261830203
 30
0.0
 40
0.1875
 41
0.0
 71
     1
 72
     1
  1
B
  7
SLDTEXTSTYLE0
 73
     1
 44
1.0
  0
MTEXT
  5
C2
330
1F
100
AcDbEntity
  8
0
  6
Continuous
 62
     7
370
     0
100
AcDbMText
 10
12.5944712137
 20
0.9640380719
 30
0.0
 40
0.1
 41
0.0
 71
     1
 72
     1
  1
DWG.  NO.
  7
SLDTEXTSTYLE1
 73
     1
 44
1.0
  0
MTEXT
  5
C3
330
1F
100
AcDbEntity
  8
0
  6
Continuous
 62
     7
370
     0
100
AcDbMText
 10
15.8063789308
 20
0.9640380719
 30
0.0
 40
0.1
 41
0.0
 71
     1
 72
     1
  1
REV
  7
SLDTEXTSTYLE0
 73
     1
 44
1.0
  0
MTEXT
  5
C4
330
1F
100
AcDbEntity
  8
0
  6
Continuous
 62
     7
370
     0
100
AcDbMText
 10
14.4097953464
 20
0.5485658503
 30
0.0
 40
0.1
 41
0.0
 71
     1
 72
     1
  1
WEIGHT: 
  7
SLDTEXTSTYLE0
 73
     1
 44
1.0
  0
MTEXT
  5
C5
330
1F
100
AcDbEntity
  8
0
  6
Continuous
 62
     7
370
     0
100
AcDbMText
 10
8.8294245693
 20
2.8163962147
 30
0.0
 40
0.07
 41
0.0
 71
     1
 72
     1
  1
UNLESS OTHERWISE SPECIFIED:
  7
SLDTEXTSTYLE0
 73
     1
 44
1.0
  0
MTEXT
  5
C7
330
1F
100
AcDbEntity
  8
0
  6
Continuous
 62
     7
370
     0
100
AcDbMText
 10
15.5391979542
 20
0.5485658503
 30
0.0
 40
0.1
 41
0.0
 71
     1
 72
     1
  1
SHEET 1 OF 1
  7
SLDTEXTSTYLE2
 73
     1
 44
1.0
  0
MTEXT
  5
C8
330
1F
100
AcDbEntity
  8
0
  6
Continuous
 62
     7
370
     0
100
AcDbMText
 10
12.1799598634
 20
1.698939652
 30
0.0
 40
0.1
 41
0.0
 71
     1
 72
     1
  1
Material:
  7
SLDTEXTSTYLE0
 73
     1
 44
1.0
  0
MTEXT
  5
C9
330
1F
100
AcDbEntity
  8
FORMAT
 62
     7
100
AcDbMText
 10
12.8345551956
 20
1.9503187768
 30
0.0
 40
0.1875
 41
0.0
 71
     1
 72
     1
  1
ATRIAS 2.0 Amp Stack
  7
SLDTEXTSTYLE0
 73
     1
 44
1.0
  0
MTEXT
  5
CA
330
1F
100
AcDbEntity
  8
0
  6
Continuous
 62
     7
370
     0
100
AcDbMText
 10
12.1799598634
 20
1.3295796836
 30
0.0
 40
0.1
 41
0.0
 71
     1
 72
     1
  1
Finish:
  7
SLDTEXTSTYLE0
 73
     1
 44
1.0
  0
MTEXT
  5
CB
330
1F
100
AcDbEntity
  8
0
  6
Continuous
 62
     7
370
     0
100
AcDbMText
 10
10.9922115794
 20
2.6676883084
 30
0.0
 40
0.0833333333
 41
0.0
 71
     1
 72
     1
  1
DRAWN BY
  7
SLDTEXTSTYLE0
 73
     1
 44
1.0
  0
MTEXT
  5
CC
330
1F
100
AcDbEntity
  8
0
  6
Continuous
 62
     7
370
     0
100
AcDbMText
 10
11.5568560889
 20
2.6718345284
 30
0.0
 40
0.0833333333
 41
0.0
 71
     1
 72
     1
  1
DRAW DATE
  7
SLDTEXTSTYLE0
 73
     1
 44
1.0
  0
MTEXT
  5
CD
330
1F
100
AcDbEntity
  8
0
  6
Continuous
 62
     7
370
     0
100
AcDbMText
 10
13.702708004
 20
0.5485658503
 30
0.0
 40
0.1
 41
0.0
 71
     1
 72
     1
  1
SCALE: 3:2
  7
SLDTEXTSTYLE0
 73
     1
 44
1.0
  0
MTEXT
  5
CE
330
1F
100
AcDbEntity
  8
0
  6
Continuous
 62
     7
370
     0
100
AcDbMText
 10
12.1799598634
 20
2.068139775
 30
0.0
 40
0.1
 41
0.0
 71
     1
 72
     1
  1
File Name:
  7
SLDTEXTSTYLE0
 73
     1
 44
1.0
  0
MTEXT
  5
CF
330
1F
100
AcDbEntity
  8
0
  6
Continuous
 62
     7
370
     0
100
AcDbMText
 10
10.9922115794
 20
2.4674717701
 30
0.0
 40
0.0833333333
 41
0.0
 71
     1
 72
     1
  1
CHECKED BY
  7
SLDTEXTSTYLE0
 73
     1
 44
1.0
  0
MTEXT
  5
D0
330
1F
100
AcDbEntity
  8
0
  6
Continuous
 62
     7
370
     0
100
AcDbMText
 10
11.535559785
 20
2.4674717701
 30
0.0
 40
0.0833333333
 41
0.0
 71
     1
 72
     1
  1
CHECK DATE
  7
SLDTEXTSTYLE0
 73
     1
 44
1.0
  0
INSERT
  5
D7
330
1F
100
AcDbEntity
  8
FORMAT
 62
     7
100
AcDbBlockReference
  2
SW_NOTE_3
 10
13.1486384988
 20
2.4725383077
 30
0.0
  0
LINE
  5
D8
330
1F
100
AcDbEntity
  8
0
  6
Continuous
 62
     7
370
    15
100
AcDbLine
 10
2.2591839823
 20
8.531070815
 30
0.0
 11
2.2591839823
 21
3.6560710114
 31
0.0
  0
LINE
  5
D9
330
1F
100
AcDbEntity
  8
0
  6
Continuous
 62
     7
370
    15
100
AcDbLine
 10
9.0091838457
 20
8.531070815
 30
0.0
 11
2.2591839823
 21
8.531070815
 31
0.0
  0
LINE
  5
DA
330
1F
100
AcDbEntity
  8
0
  6
Continuous
 62
     7
370
    15
100
AcDbLine
 10
9.0091838457
 20
3.6560710114
 30
0.0
 11
9.0091838457
 21
8.531070815
 31
0.0
  0
LINE
  5
DB
330
1F
100
AcDbEntity
  8
0
  6
Continuous
 62
     7
370
    15
100
AcDbLine
 10
2.2591839823
 20
3.6560710114
 30
0.0
 11
9.0091838457
 21
3.6560710114
 31
0.0
  0
CIRCLE
  5
DC
330
1F
100
AcDbEntity
  8
0
  6
Continuous
 62
     7
370
    15
100
AcDbCircle
 10
6.909183914
 20
5.4185709132
 30
0.0
 40
0.0375000000000005
  0
CIRCLE
  5
DD
330
1F
100
AcDbEntity
  8
0
  6
Continuous
 62
     7
370
    15
100
AcDbCircle
 10
7.059183914
 20
5.5685709132
 30
0.0
 40
0.0375000000000014
  0
CIRCLE
  5
DE
330
1F
100
AcDbEntity
  8
0
  6
Continuous
 62
     7
370
    15
100
AcDbCircle
 10
6.909183914
 20
5.5685709132
 30
0.0
 40
0.0375000000000005
  0
CIRCLE
  5
DF
330
1F
100
AcDbEntity
  8
0
  6
Continuous
 62
     7
370
    15
100
AcDbCircle
 10
7.059183914
 20
5.7185709132
 30
0.0
 40
0.0375000000000014
  0
CIRCLE
  5
E0
330
1F
100
AcDbEntity
  8
0
  6
Continuous
 62
     7
370
    15
100
AcDbCircle
 10
6.909183914
 20
5.7185709132
 30
0.0
 40
0.0375000000000005
  0
CIRCLE
  5
E1
330
1F
100
AcDbEntity
  8
0
  6
Continuous
 62
     7
370
    15
100
AcDbCircle
 10
7.059183914
 20
5.8685709132
 30
0.0
 40
0.0375000000000014
  0
CIRCLE
  5
E2
330
1F
100
AcDbEntity
  8
0
  6
Continuous
 62
     7
370
    15
100
AcDbCircle
 10
6.909183914
 20
5.8685709132
 30
0.0
 40
0.0375000000000005
  0
CIRCLE
  5
E3
330
1F
100
AcDbEntity
  8
0
  6
Continuous
 62
     7
370
    15
100
AcDbCircle
 10
7.059183914
 20
6.0185709132
 30
0.0
 40
0.0375000000000014
  0
CIRCLE
  5
E4
330
1F
100
AcDbEntity
  8
0
  6
Continuous
 62
     7
370
    15
100
AcDbCircle
 10
6.909183914
 20
6.0185709132
 30
0.0
 40
0.0375000000000005
  0
CIRCLE
  5
E5
330
1F
100
AcDbEntity
  8
0
  6
Continuous
 62
     7
370
    15
100
AcDbCircle
 10
7.059183914
 20
6.1685709132
 30
0.0
 40
0.0375000000000014
  0
CIRCLE
  5
E6
330
1F
100
AcDbEntity
  8
0
  6
Continuous
 62
     7
370
    15
100
AcDbCircle
 10
6.909183914
 20
6.1685709132
 30
0.0
 40
0.0375000000000005
  0
CIRCLE
  5
E7
330
1F
100
AcDbEntity
  8
0
  6
Continuous
 62
     7
370
    15
100
AcDbCircle
 10
7.059183914
 20
6.3185709132
 30
0.0
 40
0.0375000000000014
  0
CIRCLE
  5
E8
330
1F
100
AcDbEntity
  8
0
  6
Continuous
 62
     7
370
    15
100
AcDbCircle
 10
6.909183914
 20
6.3185709132
 30
0.0
 40
0.0375000000000005
  0
CIRCLE
  5
E9
330
1F
100
AcDbEntity
  8
0
  6
Continuous
 62
     7
370
    15
100
AcDbCircle
 10
7.059183914
 20
6.4685709132
 30
0.0
 40
0.0375000000000014
  0
CIRCLE
  5
EA
330
1F
100
AcDbEntity
  8
0
  6
Continuous
 62
     7
370
    15
100
AcDbCircle
 10
7.059183914
 20
5.1185709132
 30
0.0
 40
0.0375000000000014
  0
CIRCLE
  5
EB
330
1F
100
AcDbEntity
  8
0
  6
Continuous
 62
     7
370
    15
100
AcDbCircle
 10
7.659183914
 20
5.1185709132
 30
0.0
 40
0.0374999999999996
  0
CIRCLE
  5
EC
330
1F
100
AcDbEntity
  8
0
  6
Continuous
 62
     7
370
    15
100
AcDbCircle
 10
6.909183914
 20
6.6185709132
 30
0.0
 40
0.0375000000000005
  0
CIRCLE
  5
ED
330
1F
100
AcDbEntity
  8
0
  6
Continuous
 62
     7
370
    15
100
AcDbCircle
 10
7.059183914
 20
6.7685709132
 30
0.0
 40
0.0375000000000014
  0
CIRCLE
  5
EE
330
1F
100
AcDbEntity
  8
0
  6
Continuous
 62
     7
370
    15
100
AcDbCircle
 10
6.909183914
 20
6.7685709132
 30
0.0
 40
0.0375000000000005
  0
CIRCLE
  5
EF
330
1F
100
AcDbEntity
  8
0
  6
Continuous
 62
     7
370
    15
100
AcDbCircle
 10
7.809183914
 20
5.1185709132
 30
0.0
 40
0.0374999999999934
  0
CIRCLE
  5
F0
330
1F
100
AcDbEntity
  8
0
  6
Continuous
 62
     7
370
    15
100
AcDbCircle
 10
7.659183914
 20
5.2685709132
 30
0.0
 40
0.0375000000000023
  0
CIRCLE
  5
F1
330
1F
100
AcDbEntity
  8
0
  6
Continuous
 62
     7
370
    15
100
AcDbCircle
 10
7.809183914
 20
5.2685709132
 30
0.0
 40
0.0374999999999996
  0
CIRCLE
  5
F2
330
1F
100
AcDbEntity
  8
0
  6
Continuous
 62
     7
370
    15
100
AcDbCircle
 10
7.659183914
 20
5.4185709132
 30
0.0
 40
0.0375000000000005
  0
CIRCLE
  5
F3
330
1F
100
AcDbEntity
  8
0
  6
Continuous
 62
     7
370
    15
100
AcDbCircle
 10
7.809183914
 20
5.4185709132
 30
0.0
 40
0.0375000000000005
  0
CIRCLE
  5
F4
330
1F
100
AcDbEntity
  8
0
  6
Continuous
 62
     7
370
    15
100
AcDbCircle
 10
7.659183914
 20
5.5685709132
 30
0.0
 40
0.0375000000000005
  0
CIRCLE
  5
F5
330
1F
100
AcDbEntity
  8
0
  6
Continuous
 62
     7
370
    15
100
AcDbCircle
 10
7.809183914
 20
5.5685709132
 30
0.0
 40
0.0375000000000005
  0
CIRCLE
  5
F6
330
1F
100
AcDbEntity
  8
0
  6
Continuous
 62
     7
370
    15
100
AcDbCircle
 10
7.659183914
 20
5.7185709132
 30
0.0
 40
0.0375000000000005
  0
CIRCLE
  5
F7
330
1F
100
AcDbEntity
  8
0
  6
Continuous
 62
     7
370
    15
100
AcDbCircle
 10
7.809183914
 20
5.7185709132
 30
0.0
 40
0.0375000000000005
  0
CIRCLE
  5
F8
330
1F
100
AcDbEntity
  8
0
  6
Continuous
 62
     7
370
    15
100
AcDbCircle
 10
7.659183914
 20
5.8685709132
 30
0.0
 40
0.0374999999999996
  0
CIRCLE
  5
F9
330
1F
100
AcDbEntity
  8
0
  6
Continuous
 62
     7
370
    15
100
AcDbCircle
 10
7.809183914
 20
5.8685709132
 30
0.0
 40
0.0374999999999988
  0
CIRCLE
  5
FA
330
1F
100
AcDbEntity
  8
0
  6
Continuous
 62
     7
370
    15
100
AcDbCircle
 10
7.659183914
 20
6.0185709132
 30
0.0
 40
0.0374999999999996
  0
CIRCLE
  5
FB
330
1F
100
AcDbEntity
  8
0
  6
Continuous
 62
     7
370
    15
100
AcDbCircle
 10
7.809183914
 20
6.0185709132
 30
0.0
 40
0.0374999999999988
  0
CIRCLE
  5
FC
330
1F
100
AcDbEntity
  8
0
  6
Continuous
 62
     7
370
    15
100
AcDbCircle
 10
7.659183914
 20
6.1685709132
 30
0.0
 40
0.0374999999999996
  0
CIRCLE
  5
FD
330
1F
100
AcDbEntity
  8
0
  6
Continuous
 62
     7
370
    15
100
AcDbCircle
 10
7.809183914
 20
6.1685709132
 30
0.0
 40
0.0374999999999988
  0
CIRCLE
  5
FE
330
1F
100
AcDbEntity
  8
0
  6
Continuous
 62
     7
370
    15
100
AcDbCircle
 10
7.659183914
 20
6.3185709132
 30
0.0
 40
0.0374999999999996
  0
CIRCLE
  5
FF
330
1F
100
AcDbEntity
  8
0
  6
Continuous
 62
     7
370
    15
100
AcDbCircle
 10
7.809183914
 20
6.3185709132
 30
0.0
 40
0.0374999999999988
  0
CIRCLE
  5
100
330
1F
100
AcDbEntity
  8
0
  6
Continuous
 62
     7
370
    15
100
AcDbCircle
 10
7.659183914
 20
6.4685709132
 30
0.0
 40
0.0374999999999996
  0
CIRCLE
  5
101
330
1F
100
AcDbEntity
  8
0
  6
Continuous
 62
     7
370
    15
100
AcDbCircle
 10
7.809183914
 20
6.4685709132
 30
0.0
 40
0.0374999999999988
  0
CIRCLE
  5
102
330
1F
100
AcDbEntity
  8
0
  6
Continuous
 62
     7
370
    15
100
AcDbCircle
 10
7.659183914
 20
6.6185709132
 30
0.0
 40
0.0374999999999996
  0
CIRCLE
  5
103
330
1F
100
AcDbEntity
  8
0
  6
Continuous
 62
     7
370
    15
100
AcDbCircle
 10
7.809183914
 20
6.6185709132
 30
0.0
 40
0.0374999999999988
  0
CIRCLE
  5
104
330
1F
100
AcDbEntity
  8
0
  6
Continuous
 62
     7
370
    15
100
AcDbCircle
 10
7.659183914
 20
6.7685709132
 30
0.0
 40
0.0374999999999996
  0
CIRCLE
  5
105
330
1F
100
AcDbEntity
  8
0
  6
Continuous
 62
     7
370
    15
100
AcDbCircle
 10
7.809183914
 20
6.7685709132
 30
0.0
 40
0.0375000000000005
  0
CIRCLE
  5
106
330
1F
100
AcDbEntity
  8
0
  6
Continuous
 62
     7
370
    15
100
AcDbCircle
 10
7.059183914
 20
5.4185709132
 30
0.0
 40
0.0375000000000014
  0
CIRCLE
  5
107
330
1F
100
AcDbEntity
  8
0
  6
Continuous
 62
     7
370
    15
100
AcDbCircle
 10
7.059183914
 20
5.2685709132
 30
0.0
 40
0.0375000000000005
  0
CIRCLE
  5
108
330
1F
100
AcDbEntity
  8
0
  6
Continuous
 62
     7
370
    15
100
AcDbCircle
 10
6.909183914
 20
5.2685709132
 30
0.0
 40
0.0375000000000005
  0
CIRCLE
  5
109
330
1F
100
AcDbEntity
  8
0
  6
Continuous
 62
     7
370
    15
100
AcDbCircle
 10
6.909183914
 20
5.1185709132
 30
0.0
 40
0.0375000000000005
  0
CIRCLE
  5
10A
330
1F
100
AcDbEntity
  8
0
  6
Continuous
 62
     7
370
    15
100
AcDbCircle
 10
7.059183914
 20
6.6185709132
 30
0.0
 40
0.0375000000000014
  0
CIRCLE
  5
10B
330
1F
100
AcDbEntity
  8
0
  6
Continuous
 62
     7
370
    15
100
AcDbCircle
 10
6.909183914
 20
6.4685709132
 30
0.0
 40
0.0375000000000005
  0
CIRCLE
  5
10C
330
1F
100
AcDbEntity
  8
0
  6
Continuous
 62
     7
370
    15
100
AcDbCircle
 10
3.939183914
 20
7.0385709132
 30
0.0
 40
0.0374999999999992
  0
CIRCLE
  5
10D
330
1F
100
AcDbEntity
  8
0
  6
Continuous
 62
     7
370
    15
100
AcDbCircle
 10
3.789183914
 20
7.0385709132
 30
0.0
 40
0.0375000000000001
  0
CIRCLE
  5
10E
330
1F
100
AcDbEntity
  8
0
  6
Continuous
 62
     7
370
    15
100
AcDbCircle
 10
3.789183914
 20
5.6885709132
 30
0.0
 40
0.0375000000000001
  0
CIRCLE
  5
10F
330
1F
100
AcDbEntity
  8
0
  6
Continuous
 62
     7
370
    15
100
AcDbCircle
 10
3.939183914
 20
6.8885709132
 30
0.0
 40
0.0374999999999992
  0
CIRCLE
  5
110
330
1F
100
AcDbEntity
  8
0
  6
Continuous
 62
     7
370
    15
100
AcDbCircle
 10
3.939183914
 20
5.8385709132
 30
0.0
 40
0.0374999999999992
  0
CIRCLE
  5
111
330
1F
100
AcDbEntity
  8
0
  6
Continuous
 62
     7
370
    15
100
AcDbCircle
 10
3.789183914
 20
5.9885709132
 30
0.0
 40
0.0375000000000001
  0
CIRCLE
  5
112
330
1F
100
AcDbEntity
  8
0
  6
Continuous
 62
     7
370
    15
100
AcDbCircle
 10
3.939183914
 20
5.9885709132
 30
0.0
 40
0.0374999999999992
  0
CIRCLE
  5
113
330
1F
100
AcDbEntity
  8
0
  6
Continuous
 62
     7
370
    15
100
AcDbCircle
 10
3.789183914
 20
6.1385709132
 30
0.0
 40
0.0375000000000001
  0
CIRCLE
  5
114
330
1F
100
AcDbEntity
  8
0
  6
Continuous
 62
     7
370
    15
100
AcDbCircle
 10
3.939183914
 20
6.1385709132
 30
0.0
 40
0.0374999999999992
  0
CIRCLE
  5
115
330
1F
100
AcDbEntity
  8
0
  6
Continuous
 62
     7
370
    15
100
AcDbCircle
 10
3.789183914
 20
6.2885709132
 30
0.0
 40
0.0375000000000001
  0
CIRCLE
  5
116
330
1F
100
AcDbEntity
  8
0
  6
Continuous
 62
     7
370
    15
100
AcDbCircle
 10
3.939183914
 20
6.2885709132
 30
0.0
 40
0.0374999999999992
  0
CIRCLE
  5
117
330
1F
100
AcDbEntity
  8
0
  6
Continuous
 62
     7
370
    15
100
AcDbCircle
 10
3.789183914
 20
6.4385709132
 30
0.0
 40
0.0375000000000001
  0
CIRCLE
  5
118
330
1F
100
AcDbEntity
  8
0
  6
Continuous
 62
     7
370
    15
100
AcDbCircle
 10
3.939183914
 20
6.4385709132
 30
0.0
 40
0.0374999999999992
  0
CIRCLE
  5
119
330
1F
100
AcDbEntity
  8
0
  6
Continuous
 62
     7
370
    15
100
AcDbCircle
 10
3.789183914
 20
4.9385709132
 30
0.0
 40
0.0375000000000005
  0
CIRCLE
  5
11A
330
1F
100
AcDbEntity
  8
0
  6
Continuous
 62
     7
370
    15
100
AcDbCircle
 10
3.939183914
 20
5.6885709132
 30
0.0
 40
0.0374999999999992
  0
CIRCLE
  5
11B
330
1F
100
AcDbEntity
  8
0
  6
Continuous
 62
     7
370
    15
100
AcDbCircle
 10
3.789183914
 20
5.8385709132
 30
0.0
 40
0.0375000000000001
  0
CIRCLE
  5
11C
330
1F
100
AcDbEntity
  8
0
  6
Continuous
 62
     7
370
    15
100
AcDbCircle
 10
3.939183914
 20
4.9385709132
 30
0.0
 40
0.0375000000000001
  0
CIRCLE
  5
11D
330
1F
100
AcDbEntity
  8
0
  6
Continuous
 62
     7
370
    15
100
AcDbCircle
 10
3.789183914
 20
5.0885709132
 30
0.0
 40
0.0375000000000001
  0
CIRCLE
  5
11E
330
1F
100
AcDbEntity
  8
0
  6
Continuous
 62
     7
370
    15
100
AcDbCircle
 10
3.939183914
 20
5.0885709132
 30
0.0
 40
0.0375000000000001
  0
CIRCLE
  5
11F
330
1F
100
AcDbEntity
  8
0
  6
Continuous
 62
     7
370
    15
100
AcDbCircle
 10
3.789183914
 20
5.2385709132
 30
0.0
 40
0.0375000000000005
  0
CIRCLE
  5
120
330
1F
100
AcDbEntity
  8
0
  6
Continuous
 62
     7
370
    15
100
AcDbCircle
 10
3.939183914
 20
5.2385709132
 30
0.0
 40
0.0375000000000001
  0
CIRCLE
  5
121
330
1F
100
AcDbEntity
  8
0
  6
Continuous
 62
     7
370
    15
100
AcDbCircle
 10
3.789183914
 20
5.3885709132
 30
0.0
 40
0.0375000000000005
  0
CIRCLE
  5
122
330
1F
100
AcDbEntity
  8
0
  6
Continuous
 62
     7
370
    15
100
AcDbCircle
 10
3.939183914
 20
5.3885709132
 30
0.0
 40
0.0375000000000001
  0
CIRCLE
  5
123
330
1F
100
AcDbEntity
  8
0
  6
Continuous
 62
     7
370
    15
100
AcDbCircle
 10
3.789183914
 20
5.5385709132
 30
0.0
 40
0.0375000000000005
  0
CIRCLE
  5
124
330
1F
100
AcDbEntity
  8
0
  6
Continuous
 62
     7
370
    15
100
AcDbCircle
 10
3.939183914
 20
5.5385709132
 30
0.0
 40
0.0374999999999992
  0
CIRCLE
  5
125
330
1F
100
AcDbEntity
  8
0
  6
Continuous
 62
     7
370
    15
100
AcDbCircle
 10
3.789183914
 20
6.5885709132
 30
0.0
 40
0.0375000000000001
  0
CIRCLE
  5
126
330
1F
100
AcDbEntity
  8
0
  6
Continuous
 62
     7
370
    15
100
AcDbCircle
 10
3.939183914
 20
6.5885709132
 30
0.0
 40
0.0374999999999992
  0
CIRCLE
  5
127
330
1F
100
AcDbEntity
  8
0
  6
Continuous
 62
     7
370
    15
100
AcDbCircle
 10
3.789183914
 20
6.7385709132
 30
0.0
 40
0.0375000000000001
  0
CIRCLE
  5
128
330
1F
100
AcDbEntity
  8
0
  6
Continuous
 62
     7
370
    15
100
AcDbCircle
 10
3.789183914
 20
6.8885709132
 30
0.0
 40
0.0375000000000001
  0
CIRCLE
  5
129
330
1F
100
AcDbEntity
  8
0
  6
Continuous
 62
     7
370
    15
100
AcDbCircle
 10
3.939183914
 20
6.7385709132
 30
0.0
 40
0.0374999999999992
  0
DIMENSION
  5
12A
330
1F
100
AcDbEntity
  8
0
  6
Continuous
 62
     7
370
     0
100
AcDbDimension
  2
*D5
 10
2.259183914
 20
9.7428066456
 30
0.0
 11
5.5287768159
 21
9.7428066456
 31
0.0
 70
   160
  1
<>\PMAX
 71
     2
 42
-1.0
  3
SLDDIMSTYLE0
100
AcDbAlignedDimension
 13
9.009183914
 23
8.5310709132
 33
0.0
 14
2.259183914
 24
8.5310709132
 34
0.0
100
AcDbRotatedDimension
  0
DIMENSION
  5
137
330
1F
100
AcDbEntity
  8
0
  6
Continuous
 62
     7
370
     0
100
AcDbDimension
  2
*D6
 10
3.789183914
 20
9.3972141218
 30
0.0
 11
5.3608958138
 21
9.3972141218
 31
0.0
 70
   160
 71
     2
 42
-1.0
  3
SLDDIMSTYLE0
100
AcDbAlignedDimension
 13
6.909183914
 23
6.7685709132
 33
0.0
 14
3.789183914
 24
7.0385709132
 34
0.0
100
AcDbRotatedDimension
  0
DIMENSION
  5
142
330
1F
100
AcDbEntity
  8
0
  6
Continuous
 62
     7
370
     0
100
AcDbDimension
  2
*D7
 10
7.659183914
 20
9.3972141218
 30
0.0
 11
7.3310315132
 21
9.3972141218
 31
0.0
 70
   160
 71
     2
 42
-1.0
  3
SLDDIMSTYLE1
100
AcDbAlignedDimension
 13
6.909183914
 23
6.7685709132
 33
0.0
 14
7.659183914
 24
6.7685709132
 34
0.0
100
AcDbRotatedDimension
  0
DIMENSION
  5
14E
330
1F
100
AcDbEntity
  8
0
  6
Continuous
 62
     7
370
     0
100
AcDbDimension
  2
*D8
 10
9.009183914
 20
9.3972141218
 30
0.0
 11
8.334183914
 21
9.3972141218
 31
0.0
 70
   160
  1
<>\PMAX
 71
     2
 42
-1.0
  3
SLDDIMSTYLE0
100
AcDbAlignedDimension
 13
7.659183914
 23
6.7685709132
 33
0.0
 14
9.009183914
 24
8.5310709132
 34
0.0
100
AcDbRotatedDimension
  0
DIMENSION
  5
15A
330
1F
100
AcDbEntity
  8
0
  6
Continuous
 62
     7
370
     0
100
AcDbDimension
  2
*D9
 10
10.1984083481
 20
3.6560709132
 30
0.0
 11
10.1984083481
 21
6.0685928395
 31
0.0
 70
   160
  1
<>\PMAX
 71
     2
 42
-1.0
  3
SLDDIMSTYLE0
100
AcDbAlignedDimension
 13
9.009183914
 23
8.5310709132
 33
0.0
 14
9.009183914
 24
3.6560709132
 34
0.0
 50
90.0
100
AcDbRotatedDimension
  0
DIMENSION
  5
166
330
1F
100
AcDbEntity
  8
0
  6
Continuous
 62
     7
370
     0
100
AcDbDimension
  2
*D10
 10
1.6292626541
 20
7.0385709132
 30
0.0
 11
1.6292626541
 21
7.796532813
 31
0.0
 70
   160
 71
     2
 42
-1.0
  3
SLDDIMSTYLE2
100
AcDbAlignedDimension
 13
2.259183914
 23
8.5310709132
 33
0.0
 14
3.789183914
 24
7.0385709132
 34
0.0
 50
90.0
100
AcDbRotatedDimension
  0
DIMENSION
  5
172
330
1F
100
AcDbEntity
  8
0
  6
Continuous
 62
     7
370
     0
100
AcDbDimension
  2
*D11
 10
1.6292626541
 20
4.9385709132
 30
0.0
 11
1.6292626541
 21
5.9435709132
 31
0.0
 70
   160
 71
     2
 42
-1.0
  3
SLDDIMSTYLE0
100
AcDbAlignedDimension
 13
3.789183914
 23
7.0385709132
 33
0.0
 14
3.789183914
 24
4.9385709132
 34
0.0
 50
90.0
100
AcDbRotatedDimension
  0
DIMENSION
  5
17D
330
1F
100
AcDbEntity
  8
0
  6
Continuous
 62
     7
370
     0
100
AcDbDimension
  2
*D12
 10
3.939183914
 20
9.0361277049
 30
0.0
 11
4.3528819169
 21
9.0361277049
 31
0.0
 70
   160
  1
<>\PTYP
 71
     2
 42
-1.0
  3
SLDDIMSTYLE1
100
AcDbAlignedDimension
 13
3.789183914
 23
7.0385709132
 33
0.0
 14
3.939183914
 24
7.0385709132
 34
0.0
100
AcDbRotatedDimension
  0
DIMENSION
  5
189
330
1F
100
AcDbEntity
  8
0
  6
Continuous
 62
     7
370
     0
100
AcDbDimension
  2
*D13
 10
9.6391051738
 20
6.7685709132
 30
0.0
 11
9.6391051738
 21
7.5678376146
 31
0.0
 70
   160
  1
<>\PMAX
 71
     2
 42
-1.0
  3
SLDDIMSTYLE2
100
AcDbAlignedDimension
 13
9.009183914
 23
8.5310709132
 33
0.0
 14
7.809183914
 24
6.7685709132
 34
0.0
 50
90.0
100
AcDbRotatedDimension
  0
DIMENSION
  5
195
330
1F
100
AcDbEntity
  8
0
  6
Continuous
 62
     7
370
     0
100
AcDbDimension
  2
*D14
 10
9.6391051738
 20
5.1185709132
 30
0.0
 11
9.6391051738
 21
5.9435709132
 31
0.0
 70
   160
 71
     2
 42
-1.0
  3
SLDDIMSTYLE0
100
AcDbAlignedDimension
 13
7.809183914
 23
6.7685709132
 33
0.0
 14
7.809183914
 24
5.1185709132
 34
0.0
 50
90.0
100
AcDbRotatedDimension
  0
ENDSEC
  0
SECTION
  2
OBJECTS
  0
DICTIONARY
  5
C
330
0
100
AcDbDictionary
281
     1
  3
ACAD_GROUP
350
D
  3
ACAD_LAYOUT
350
1A
  3
ACAD_MLINESTYLE
350
17
  3
ACAD_PLOTSETTINGS
350
19
  3
ACAD_PLOTSTYLENAME
350
E
  3
ACAD_SCALELIST
350
6D
  3
AcDbVariableDictionary
350
1A0
  0
DICTIONARY
  5
D
102
{ACAD_REACTORS
330
C
102
}
330
C
100
AcDbDictionary
281
     1
  0
DICTIONARY
  5
1A
102
{ACAD_REACTORS
330
C
102
}
330
C
100
AcDbDictionary
281
     1
  3
Layout1
350
1E
  3
Layout2
350
26
  3
Model
350
22
  0
DICTIONARY
  5
17
102
{ACAD_REACTORS
330
C
102
}
330
C
100
AcDbDictionary
281
     1
  3
Standard
350
18
  0
DICTIONARY
  5
19
102
{ACAD_REACTORS
330
C
102
}
330
C
100
AcDbDictionary
281
     1
  0
ACDBDICTIONARYWDFLT
  5
E
102
{ACAD_REACTORS
330
C
102
}
330
C
100
AcDbDictionary
281
     1
  3
Normal
350
F
100
AcDbDictionaryWithDefault
340
F
  0
DICTIONARY
  5
6D
102
{ACAD_REACTORS
330
C
102
}
330
C
100
AcDbDictionary
281
     1
  3
A0
350
6E
  3
A1
350
6F
  3
A2
350
70
  3
A3
350
71
  3
A4
350
72
  3
A5
350
73
  3
A6
350
74
  3
A7
350
75
  3
A8
350
76
  3
A9
350
77
  3
B0
350
78
  3
B1
350
79
  3
B2
350
7A
  3
B3
350
7B
  3
B4
350
7C
  3
B5
350
7D
  3
B6
350
7E
  3
B7
350
7F
  3
B8
350
80
  3
B9
350
81
  3
C0
350
82
  3
C1
350
83
  3
C2
350
84
  3
C3
350
85
  3
C4
350
86
  3
C5
350
87
  3
C6
350
88
  3
C7
350
89
  3
C8
350
8A
  3
C9
350
8B
  3
D0
350
8C
  3
D1
350
8D
  3
D2
350
8E
  0
DICTIONARY
  5
1A0
102
{ACAD_REACTORS
330
C
102
}
330
C
100
AcDbDictionary
281
     1
  3
CANNOSCALE
350
1A1
  0
LAYOUT
  5
1E
102
{ACAD_REACTORS
330
1A
102
}
330
1A
100
AcDbPlotSettings
  1

  2
none_device
  4

  6

 40
0.0
 41
0.0
 42
0.0
 43
0.0
 44
0.0
 45
0.0
 46
0.0
 47
0.0
 48
0.0
 49
0.0
140
0.0
141
0.0
142
1.0
143
1.0
 70
   688
 72
     0
 73
     0
 74
     5
  7

 75
    16
147
1.0
148
0.0
149
0.0
100
AcDbLayout
  1
Layout1
 70
     1
 71
     1
 10
0.0
 20
0.0
 11
12.0
 21
9.0
 12
0.0
 22
0.0
 32
0.0
 14
1.0000000000E+20
 24
1.0000000000E+20
 34
1.0000000000E+20
 15
-1.0000000000E+20
 25
-1.0000000000E+20
 35
-1.0000000000E+20
146
0.0
 13
0.0
 23
0.0
 33
0.0
 16
1.0
 26
0.0
 36
0.0
 17
0.0
 27
1.0
 37
0.0
 76
     0
330
1B
  0
LAYOUT
  5
26
102
{ACAD_REACTORS
330
1A
102
}
330
1A
100
AcDbPlotSettings
  1

  2
none_device
  4

  6

 40
0.0
 41
0.0
 42
0.0
 43
0.0
 44
0.0
 45
0.0
 46
0.0
 47
0.0
 48
0.0
 49
0.0
140
0.0
141
0.0
142
1.0
143
1.0
 70
   688
 72
     0
 73
     0
 74
     5
  7

 75
    16
147
1.0
148
0.0
149
0.0
100
AcDbLayout
  1
Layout2
 70
     1
 71
     2
 10
0.0
 20
0.0
 11
0.0
 21
0.0
 12
0.0
 22
0.0
 32
0.0
 14
0.0
 24
0.0
 34
0.0
 15
0.0
 25
0.0
 35
0.0
146
0.0
 13
0.0
 23
0.0
 33
0.0
 16
1.0
 26
0.0
 36
0.0
 17
0.0
 27
1.0
 37
0.0
 76
     0
330
23
  0
LAYOUT
  5
22
102
{ACAD_REACTORS
330
1A
102
}
330
1A
100
AcDbPlotSettings
  1

  2
none_device
  4

  6

 40
0.0
 41
0.0
 42
0.0
 43
0.0
 44
0.0
 45
0.0
 46
0.0
 47
0.0
 48
0.0
 49
0.0
140
0.0
141
0.0
142
1.0
143
1.0
 70
  1712
 72
     0
 73
     0
 74
     0
  7

 75
     0
147
1.0
148
0.0
149
0.0
100
AcDbLayout
  1
Model
 70
     1
 71
     0
 10
0.0
 20
0.0
 11
17.0
 21
11.0
 12
0.0
 22
0.0
 32
0.0
 14
0.0
 24
0.0
 34
0.0
 15
17.0
 25
11.0
 35
0.0
146
0.0
 13
0.0
 23
0.0
 33
0.0
 16
1.0
 26
0.0
 36
0.0
 17
0.0
 27
1.0
 37
0.0
 76
     0
330
1F
331
29
  0
MLINESTYLE
  5
18
102
{ACAD_REACTORS
330
17
102
}
330
17
100
AcDbMlineStyle
  2
Standard
 70
     0
  3

 62
   256
 51
90.0
 52
90.0
 71
     2
 49
0.5
 62
   256
  6
BYLAYER
 49
-0.5
 62
   256
  6
BYLAYER
  0
ACDBPLACEHOLDER
  5
F
102
{ACAD_REACTORS
330
E
102
}
330
E
  0
SCALE
  5
6E
102
{ACAD_REACTORS
330
6D
102
}
330
6D
100
AcDbScale
 70
     0
300
1:1
140
1.0
141
1.0
290
     1
  0
SCALE
  5
6F
102
{ACAD_REACTORS
330
6D
102
}
330
6D
100
AcDbScale
 70
     0
300
1:2
140
1.0
141
2.0
290
     0
  0
SCALE
  5
70
102
{ACAD_REACTORS
330
6D
102
}
330
6D
100
AcDbScale
 70
     0
300
1:4
140
1.0
141
4.0
290
     0
  0
SCALE
  5
71
102
{ACAD_REACTORS
330
6D
102
}
330
6D
100
AcDbScale
 70
     0
300
1:5
140
1.0
141
5.0
290
     0
  0
SCALE
  5
72
102
{ACAD_REACTORS
330
6D
102
}
330
6D
100
AcDbScale
 70
     0
300
1:8
140
1.0
141
8.0
290
     0
  0
SCALE
  5
73
102
{ACAD_REACTORS
330
6D
102
}
330
6D
100
AcDbScale
 70
     0
300
1:10
140
1.0
141
10.0
290
     0
  0
SCALE
  5
74
102
{ACAD_REACTORS
330
6D
102
}
330
6D
100
AcDbScale
 70
     0
300
1:16
140
1.0
141
16.0
290
     0
  0
SCALE
  5
75
102
{ACAD_REACTORS
330
6D
102
}
330
6D
100
AcDbScale
 70
     0
300
1:20
140
1.0
141
20.0
290
     0
  0
SCALE
  5
76
102
{ACAD_REACTORS
330
6D
102
}
330
6D
100
AcDbScale
 70
     0
300
1:30
140
1.0
141
30.0
290
     0
  0
SCALE
  5
77
102
{ACAD_REACTORS
330
6D
102
}
330
6D
100
AcDbScale
 70
     0
300
1:40
140
1.0
141
40.0
290
     0
  0
SCALE
  5
78
102
{ACAD_REACTORS
330
6D
102
}
330
6D
100
AcDbScale
 70
     0
300
1:50
140
1.0
141
50.0
290
     0
  0
SCALE
  5
79
102
{ACAD_REACTORS
330
6D
102
}
330
6D
100
AcDbScale
 70
     0
300
1:100
140
1.0
141
100.0
290
     0
  0
SCALE
  5
7A
102
{ACAD_REACTORS
330
6D
102
}
330
6D
100
AcDbScale
 70
     0
300
2:1
140
2.0
141
1.0
290
     0
  0
SCALE
  5
7B
102
{ACAD_REACTORS
330
6D
102
}
330
6D
100
AcDbScale
 70
     0
300
4:1
140
4.0
141
1.0
290
     0
  0
SCALE
  5
7C
102
{ACAD_REACTORS
330
6D
102
}
330
6D
100
AcDbScale
 70
     0
300
8:1
140
8.0
141
1.0
290
     0
  0
SCALE
  5
7D
102
{ACAD_REACTORS
330
6D
102
}
330
6D
100
AcDbScale
 70
     0
300
10:1
140
10.0
141
1.0
290
     0
  0
SCALE
  5
7E
102
{ACAD_REACTORS
330
6D
102
}
330
6D
100
AcDbScale
 70
     0
300
100:1
140
100.0
141
1.0
290
     0
  0
SCALE
  5
7F
102
{ACAD_REACTORS
330
6D
102
}
330
6D
100
AcDbScale
 70
     0
300
1/128" = 1'-0"
140
0.0078125
141
12.0
290
     0
  0
SCALE
  5
80
102
{ACAD_REACTORS
330
6D
102
}
330
6D
100
AcDbScale
 70
     0
300
1/64" = 1'-0"
140
0.015625
141
12.0
290
     0
  0
SCALE
  5
81
102
{ACAD_REACTORS
330
6D
102
}
330
6D
100
AcDbScale
 70
     0
300
1/32" = 1'-0"
140
0.03125
141
12.0
290
     0
  0
SCALE
  5
82
102
{ACAD_REACTORS
330
6D
102
}
330
6D
100
AcDbScale
 70
     0
300
1/16" = 1'-0"
140
0.0625
141
12.0
290
     0
  0
SCALE
  5
83
102
{ACAD_REACTORS
330
6D
102
}
330
6D
100
AcDbScale
 70
     0
300
3/32" = 1'-0"
140
0.09375
141
12.0
290
     0
  0
SCALE
  5
84
102
{ACAD_REACTORS
330
6D
102
}
330
6D
100
AcDbScale
 70
     0
300
1/8" = 1'-0"
140
0.125
141
12.0
290
     0
  0
SCALE
  5
85
102
{ACAD_REACTORS
330
6D
102
}
330
6D
100
AcDbScale
 70
     0
300
3/16" = 1'-0"
140
0.1875
141
12.0
290
     0
  0
SCALE
  5
86
102
{ACAD_REACTORS
330
6D
102
}
330
6D
100
AcDbScale
 70
     0
300
1/4" = 1'-0"
140
0.25
141
12.0
290
     0
  0
SCALE
  5
87
102
{ACAD_REACTORS
330
6D
102
}
330
6D
100
AcDbScale
 70
     0
300
3/8" = 1'-0"
140
0.375
141
12.0
290
     0
  0
SCALE
  5
88
102
{ACAD_REACTORS
330
6D
102
}
330
6D
100
AcDbScale
 70
     0
300
1/2" = 1'-0"
140
0.5
141
12.0
290
     0
  0
SCALE
  5
89
102
{ACAD_REACTORS
330
6D
102
}
330
6D
100
AcDbScale
 70
     0
300
3/4" = 1'-0"
140
0.75
141
12.0
290
     0
  0
SCALE
  5
8A
102
{ACAD_REACTORS
330
6D
102
}
330
6D
100
AcDbScale
 70
     0
300
1" = 1'-0"
140
1.0
141
12.0
290
     0
  0
SCALE
  5
8B
102
{ACAD_REACTORS
330
6D
102
}
330
6D
100
AcDbScale
 70
     0
300
1-1/2" = 1'-0"
140
1.5
141
12.0
290
     0
  0
SCALE
  5
8C
102
{ACAD_REACTORS
330
6D
102
}
330
6D
100
AcDbScale
 70
     0
300
3" = 1'-0"
140
3.0
141
12.0
290
     0
  0
SCALE
  5
8D
102
{ACAD_REACTORS
330
6D
102
}
330
6D
100
AcDbScale
 70
     0
300
6" = 1'-0"
140
6.0
141
12.0
290
     0
  0
SCALE
  5
8E
102
{ACAD_REACTORS
330
6D
102
}
330
6D
100
AcDbScale
 70
     0
300
1'-0" = 1'-0"
140
12.0
141
12.0
290
     0
  0
DICTIONARYVAR
  5
1A1
102
{ACAD_REACTORS
330
1A0
102
}
330
1A0
100
DictionaryVariables
280
     0
  1
1:1
  0
ENDSEC
  0
EOF
